# Blender 4.3.1
# www.blender.org
mtllib keyboard_C.mtl
o Cube.034
v -0.173099 -0.037221 -0.564360
v -0.173099 -0.037221 -0.637423
v -0.173099 0.037221 -0.564360
v 0.173099 -0.037221 -0.564360
v -0.173099 -0.037221 0.351925
v -0.173099 0.037221 0.351925
v 0.173099 -0.037221 0.351925
v -0.149428 -0.037221 0.409372
v -0.149428 0.037221 0.409372
v 0.149428 -0.037221 0.409372
v -0.103233 -0.037221 0.440488
v -0.103233 0.037221 0.440488
v 0.103233 -0.037221 0.440488
v 0.103233 0.037221 0.440488
v 0.149428 0.037221 0.409372
v 0.173099 0.037221 0.351925
v 0.173099 0.037221 -0.564360
v 0.173099 0.037221 -0.637423
v -0.173099 0.037221 -0.637423
v 0.173099 -0.037221 -0.637423
vn -0.0000 -1.0000 -0.0000
vn -1.0000 -0.0000 -0.0000
vn -0.9246 -0.0000 0.3810
vn -0.5587 -0.0000 0.8294
vn -0.0000 -0.0000 1.0000
vn 0.5587 -0.0000 0.8294
vn -0.0000 1.0000 -0.0000
vn 0.9246 -0.0000 0.3810
vn 1.0000 -0.0000 -0.0000
vn -0.0000 -0.0000 -1.0000
vt 0.243281 0.253642
vt 0.322596 0.250738
vt 0.323209 0.267477
vt 0.243894 0.270381
vt 0.225538 0.219849
vt 0.242403 0.219966
vt 0.242657 0.236587
vt 0.225538 0.236664
vt 0.233293 0.022692
vt 0.249365 0.030702
vt 0.330896 0.477400
vt 0.251581 0.480304
vt 0.243368 0.008372
vt 0.254793 0.020811
vt 0.325955 0.490759
vt 0.257486 0.493267
vt 0.256266 0.000000
vt 0.262289 0.015274
vt 0.315632 0.498276
vt 0.268331 0.500008
vt 0.303424 0.001137
vt 0.295445 0.015300
vt 0.314884 0.010652
vt 0.302821 0.020727
vt 0.322863 0.024482
vt 0.308048 0.030837
vt 0.337203 0.216526
vt 0.321214 0.217454
vt 0.321971 0.233683
vt 0.338307 0.232559
s 0
usemtl keyboard
f 2/1/1 20/2/1 4/3/1 1/4/1
f 1/5/2 3/6/2 19/7/2 2/8/2
f 3/6/2 1/5/2 5/9/2 6/10/2
f 1/4/1 4/3/1 7/11/1 5/12/1
f 6/10/3 5/9/3 8/13/3 9/14/3
f 5/12/1 7/11/1 10/15/1 8/16/1
f 9/14/4 8/13/4 11/17/4 12/18/4
f 8/16/1 10/15/1 13/19/1 11/20/1
f 13/21/5 14/22/5 12/18/5 11/17/5
f 10/23/6 15/24/6 14/22/6 13/21/6
f 15/24/7 9/14/7 12/18/7 14/22/7
f 7/25/8 16/26/8 15/24/8 10/23/8
f 16/26/7 6/10/7 9/14/7 15/24/7
f 4/27/9 17/28/9 16/26/9 7/25/9
f 17/28/7 3/6/7 6/10/7 16/26/7
f 18/29/7 19/7/7 3/6/7 17/28/7
f 20/30/9 18/29/9 17/28/9 4/27/9
f 2/1/10 19/7/10 18/29/10 20/2/10
