# Blender 4.3.2
# www.blender.org
mtllib packa_1.mtl
o Sphere.001
v 0.012928 -0.002452 -0.015408
v 0.019808 -0.002452 -0.003493
v 0.017419 -0.002452 0.010057
v 0.006879 -0.002452 0.018900
v -0.006879 -0.002452 0.018900
v -0.017419 -0.002452 0.010057
v -0.019808 -0.002452 -0.003493
v -0.012928 -0.002452 -0.015408
v 0.000000 -0.002452 -0.020113
v 0.010688 0.020772 -0.001885
v 0.009721 0.019870 -0.001516
v 0.006341 0.019871 -0.007370
v 0.006976 0.020772 -0.008314
v 0.009399 0.020772 0.005427
v 0.008547 0.019870 0.005141
v 0.003712 0.020772 0.010199
v 0.003370 0.019871 0.009486
v -0.003712 0.020772 0.010199
v -0.003390 0.019871 0.009486
v -0.009399 0.020772 0.005427
v -0.008568 0.019871 0.005141
v -0.010688 0.020772 -0.001885
v -0.009742 0.019870 -0.001516
v -0.006976 0.020772 -0.008314
v -0.006362 0.019871 -0.007370
v 0.000000 0.020772 -0.010853
v -0.000010 0.019871 -0.009682
v 0.009663 0.014760 -0.000381
v 0.008671 0.013834 -0.000002
v 0.005632 0.013834 -0.005265
v 0.006283 0.014759 -0.006235
v 0.008489 0.014760 0.006276
v 0.007615 0.013834 0.005983
v 0.003311 0.014759 0.010621
v 0.002960 0.013834 0.009889
v -0.003448 0.014759 0.010621
v -0.003118 0.013834 0.009889
v -0.008626 0.014760 0.006276
v -0.007773 0.013834 0.005983
v -0.009800 0.014760 -0.000381
v -0.008829 0.013834 -0.000002
v -0.006420 0.014759 -0.006235
v -0.005790 0.013834 -0.005265
v -0.000068 0.014759 -0.008547
v -0.000079 0.013834 -0.007344
v 0.012928 0.019683 -0.015408
v 0.012183 0.020772 -0.014520
v 0.018666 0.020772 -0.003291
v 0.019808 0.019683 -0.003493
v 0.016415 0.020772 0.009477
v 0.017419 0.019683 0.010057
v 0.006483 0.020772 0.017811
v 0.006879 0.019683 0.018900
v -0.006483 0.020772 0.017811
v -0.006879 0.019683 0.018900
v -0.016415 0.020772 0.009477
v -0.017419 0.019683 0.010057
v -0.018666 0.020772 -0.003291
v -0.019808 0.019683 -0.003493
v -0.012183 0.020772 -0.014520
v -0.012928 0.019683 -0.015408
v 0.000000 0.020772 -0.018954
v 0.000000 0.019683 -0.020113
vn -0.0000 -0.2167 -0.9762
vn 0.9848 -0.0000 0.1736
vn -0.6344 -0.1606 -0.7561
vn 0.6329 -0.1747 -0.7543
vn -0.0000 1.0000 -0.0000
vn -0.0000 -0.0000 1.0000
vn -0.9848 -0.0000 0.1736
vn 0.9836 -0.0497 -0.1734
vn 0.3351 0.2006 0.9206
vn 0.8616 0.1007 0.4975
vn -0.3345 0.2079 0.9192
vn -0.8660 -0.0000 -0.5000
vn -0.9844 -0.0273 -0.1736
vn -0.6428 -0.0000 0.7660
vn 0.6428 -0.0000 0.7660
vn -0.3420 -0.0000 -0.9397
vn -0.8598 0.1200 0.4964
vn -0.0000 -1.0000 -0.0000
vn -0.2163 0.7747 0.5942
vn 0.2171 0.7727 0.5965
vn 0.5787 0.7439 0.3341
vn 0.7096 0.6934 -0.1251
vn 0.4934 0.6410 -0.5880
vn -0.0000 0.6202 -0.7844
vn -0.4898 0.6475 -0.5838
vn -0.7017 0.7016 -0.1237
vn -0.5730 0.7498 0.3309
vn 0.3420 -0.0000 -0.9397
vn -0.4899 0.6475 -0.5838
vn -0.5731 0.7498 0.3308
vn 0.6123 0.7071 -0.3535
vn 0.6963 0.7071 0.1228
vn 0.4545 0.7071 0.5417
vn -0.0000 0.7071 0.7071
vn -0.4545 0.7071 0.5417
vn -0.6963 0.7071 0.1228
vn -0.6123 0.7071 -0.3535
vn -0.2418 0.7071 -0.6644
vn 0.2418 0.7071 -0.6644
vn 0.8660 -0.0000 -0.5000
vt 0.111111 0.666667
vt 0.222222 0.666667
vt 0.444444 0.333333
vt 0.444444 0.651033
vt 0.333333 0.651033
vt 0.333333 0.333333
vt 0.333333 0.666667
vt 0.000000 0.666667
vt 0.555556 0.666667
vt 0.666667 0.666667
vt 0.222222 0.333333
vt 0.222222 0.651033
vt 0.111111 0.651033
vt 0.111111 0.333333
vt 0.444444 0.666667
vt 1.000000 0.333333
vt 1.000000 0.651033
vt 0.888889 0.651033
vt 0.888889 0.333333
vt 0.888889 0.666667
vt 1.000000 0.666667
vt 0.777778 0.666667
vt 0.777778 0.651033
vt 0.777778 0.333333
vt 0.000000 0.651033
vt 0.000000 0.333333
vt 0.666667 0.651033
vt 0.666667 0.333333
vt 0.555556 0.333333
vt 0.555556 0.651033
vt 0.660076 0.666667
vt 0.763552 0.666667
vt 0.863543 0.666667
vt 0.901871 0.666667
vt 0.209240 0.666667
vt 0.127416 0.666667
vt 0.247568 0.666667
vt 0.347559 0.666667
vt 0.451035 0.666667
s 1
f 19/1/1 17/2/1 34/2/1 36/1/1
f 2/3/2 49/4/2 51/5/2 3/6/2
f 17/2/3 15/7/3 32/7/3 34/2/3
f 21/8/4 19/1/4 36/1/4 38/8/4
f 47/9/5 62/10/5 26/10/5 13/9/5
f 4/11/6 53/12/6 55/13/6 5/14/6
f 50/7/5 48/15/5 10/15/5 14/7/5
f 6/16/7 57/17/7 59/18/7 7/19/7
f 23/20/8 21/21/8 38/21/8 40/20/8
f 52/2/5 50/7/5 14/7/5 16/2/5
f 27/10/9 25/22/9 42/22/9 44/10/9
f 25/22/10 23/20/10 40/20/10 42/22/10
f 54/1/5 52/2/5 16/2/5 18/1/5
f 12/9/11 27/10/11 44/10/11 31/9/11
f 56/8/5 54/1/5 18/1/5 20/8/5
f 7/19/12 59/18/12 61/23/12 8/24/12
f 15/7/13 11/15/13 28/15/13 32/7/13
f 58/20/5 56/21/5 20/21/5 22/20/5
f 5/14/14 55/13/14 57/25/14 6/26/14
f 3/6/15 51/5/15 53/12/15 4/11/15
f 60/22/5 58/20/5 22/20/5 24/22/5
f 8/24/16 61/23/16 63/27/16 9/28/16
f 62/10/5 60/22/5 24/22/5 26/10/5
f 48/15/5 47/9/5 13/9/5 10/15/5
f 11/15/17 12/9/17 31/9/17 28/15/17
f 1/29/18 2/3/18 3/6/18 4/11/18 5/14/18 6/16/18 7/19/18 8/24/18 9/28/18
f 27/10/19 12/9/19 13/9/19 26/10/19
f 25/22/20 27/10/20 26/10/20 24/22/20
f 23/20/21 25/22/21 24/22/21 22/20/21
f 21/21/22 23/20/22 22/20/22 20/21/22
f 19/1/23 21/8/23 20/8/23 18/1/23
f 17/2/24 19/1/24 18/1/24 16/2/24
f 15/7/25 17/2/25 16/2/25 14/7/25
f 11/15/26 15/7/26 14/7/26 10/15/26
f 12/9/27 11/15/27 10/15/27 13/9/27
f 9/28/28 63/27/28 46/30/28 1/29/28
f 45/31/19 30/9/19 31/9/19 44/10/19
f 43/32/20 45/31/20 44/10/20 42/22/20
f 41/33/21 43/32/21 42/22/21 40/20/21
f 39/34/22 41/33/22 40/20/22 38/21/22
f 37/35/23 39/34/23 38/21/23 36/36/23
f 35/37/24 37/35/24 36/1/24 34/2/24
f 33/38/29 35/37/29 34/2/29 32/7/29
f 29/39/26 33/38/26 32/7/26 28/15/26
f 30/9/30 29/39/30 28/15/30 31/9/30
f 45/31/5 43/32/5 41/33/5 39/34/5 37/35/5 35/37/5 33/38/5 29/39/5 30/9/5
f 47/9/31 48/15/31 49/4/31 46/30/31
f 48/15/32 50/7/32 51/5/32 49/4/32
f 50/7/33 52/2/33 53/12/33 51/5/33
f 52/2/34 54/1/34 55/13/34 53/12/34
f 54/1/35 56/8/35 57/25/35 55/13/35
f 56/21/36 58/20/36 59/18/36 57/17/36
f 58/20/37 60/22/37 61/23/37 59/18/37
f 60/22/38 62/10/38 63/27/38 61/23/38
f 62/10/39 47/9/39 46/30/39 63/27/39
f 1/29/40 46/30/40 49/4/40 2/3/40
