# Blender 4.3.1
# www.blender.org
mtllib packa_1.mtl
o Cube.006
v -0.442495 -0.059725 1.868380
v -0.442495 -0.059725 -1.144390
v 0.453907 -0.059725 1.868380
v 0.453907 -0.059725 -1.144390
v -0.442495 0.394143 1.868380
v -0.393920 0.458521 1.793720
v -0.428268 0.439665 1.846513
v -0.393920 0.458521 -1.069730
v -0.442495 0.394143 -1.144390
v -0.428268 0.439665 -1.122523
v 0.405331 0.458521 -1.069730
v 0.453907 0.394143 -1.144390
v 0.439679 0.439665 -1.122523
v 0.405331 0.458521 1.793720
v 0.453907 0.394143 1.868380
v 0.439679 0.439665 1.846513
v -0.173494 0.458521 1.454929
v -0.152436 0.430612 1.422563
v -0.152436 0.430612 -0.698573
v -0.173494 0.458521 -0.730939
v 0.163846 0.430612 1.422563
v 0.184904 0.458521 1.454929
v 0.163846 0.430612 -0.698573
v 0.184904 0.458521 -0.730939
v -0.152436 0.228761 1.422563
v -0.130654 0.206979 1.400780
v -0.130654 0.206979 -0.676790
v -0.152436 0.228761 -0.698573
v 0.142064 0.206979 -0.676790
v 0.163846 0.228761 -0.698573
v 0.142064 0.206979 1.400780
v 0.163846 0.228761 1.422563
v -0.442495 -0.128696 -1.144390
v -0.442495 -0.128696 1.868380
v 0.453907 -0.128696 -1.144390
v 0.453907 -0.128696 1.868380
vn -0.0000 1.0000 -0.0000
vn -1.0000 -0.0000 -0.0000
vn -0.0000 -0.0000 -1.0000
vn 1.0000 -0.0000 -0.0000
vn -0.0000 -0.0000 1.0000
vn -0.4812 0.8766 -0.0000
vn -0.9545 0.2983 -0.0000
vn -0.0000 0.9417 -0.3364
vn -0.0000 0.4330 -0.9014
vn 0.4812 0.8766 -0.0000
vn 0.9545 0.2983 -0.0000
vn -0.0000 0.9417 0.3364
vn -0.0000 0.4330 0.9014
vn 0.7983 0.6023 -0.0000
vn -0.0000 0.7573 0.6530
vn -0.7983 0.6023 -0.0000
vn -0.0000 0.7573 -0.6530
vn 0.7071 0.7071 -0.0000
vn -0.0000 0.7071 0.7071
vn -0.7071 0.7071 -0.0000
vn -0.0000 0.7071 -0.7071
vn -0.0000 -1.0000 -0.0000
vt 0.831856 0.737163
vt 0.831856 0.512837
vt 0.867209 0.502318
vt 0.867209 0.747682
vt 0.375000 0.000000
vt 0.593944 0.000000
vt 0.593944 0.250000
vt 0.375000 0.250000
vt 0.375000 0.500000
vt 0.668144 0.512837
vt 0.668144 0.737163
vt 0.632791 0.747682
vt 0.632791 0.502318
vt 0.593944 0.250000
vt 0.593944 0.500000
vt 0.593944 0.500000
vt 0.593944 0.750000
vt 0.375000 0.750000
vt 0.671521 0.513842
vt 0.828479 0.513842
vt 0.828479 0.736158
vt 0.671521 0.736158
vt 0.828479 0.736158
vt 0.668144 0.737163
vt 0.831856 0.737163
vt 0.867209 0.747682
vt 0.632791 0.747682
vt 0.875000 0.501815
vt 0.875000 0.748185
vt 0.625000 0.001815
vt 0.625000 0.248185
vt 0.628968 0.500000
vt 0.871032 0.500000
vt 0.625000 0.253968
vt 0.625000 0.496032
vt 0.625000 0.748185
vt 0.625000 0.501815
vt 0.871032 0.750000
vt 0.628968 0.750000
vt 0.625000 0.753968
vt 0.625000 0.996032
vt 0.593944 1.000000
vt 0.593944 0.750000
vt 0.375000 1.000000
vt 0.682331 0.516125
vt 0.817669 0.516125
vt 0.817669 0.733875
vt 0.682331 0.733875
vt 0.125000 0.500000
vt 0.125000 0.750000
s 0
f 17/1/1 20/2/1 8/3/1 6/4/1
f 1/5/2 5/6/2 9/7/2 2/8/2
f 2/8/3 4/9/3 35/9/3 33/8/3
f 24/10/1 22/11/1 14/12/1 11/13/1
f 2/8/3 9/14/3 12/15/3 4/9/3
f 4/9/4 12/16/4 15/17/4 3/18/4
f 23/19/5 19/20/5 28/20/5 30/19/5
f 18/21/3 21/22/3 32/22/3 25/23/3
f 22/24/1 17/25/1 6/26/1 14/27/1
f 21/22/2 23/19/2 30/19/2 32/22/2
f 20/2/1 24/10/1 11/13/1 8/3/1
f 6/4/6 8/3/6 10/28/6 7/29/6
f 7/30/7 10/31/7 9/7/7 5/6/7
f 8/3/8 11/13/8 13/32/8 10/33/8
f 10/34/9 13/35/9 12/15/9 9/14/9
f 11/13/10 14/12/10 16/36/10 13/37/10
f 13/37/11 16/36/11 15/17/11 12/16/11
f 14/27/12 6/26/12 7/38/12 16/39/12
f 16/40/13 7/41/13 5/42/13 15/43/13
f 3/18/5 15/43/5 5/42/5 1/44/5
f 18/23/14 19/20/14 20/2/14 17/1/14
f 19/20/15 23/19/15 24/10/15 20/2/15
f 23/19/16 21/22/16 22/11/16 24/10/16
f 21/22/17 18/21/17 17/25/17 22/24/17
f 29/45/1 27/46/1 26/47/1 31/48/1
f 26/47/18 27/46/18 28/20/18 25/23/18
f 27/46/19 29/45/19 30/19/19 28/20/19
f 29/45/20 31/48/20 32/22/20 30/19/20
f 31/48/21 26/47/21 25/23/21 32/22/21
f 19/20/4 18/23/4 25/23/4 28/20/4
f 33/49/22 35/9/22 36/18/22 34/50/22
f 4/9/4 3/18/4 36/18/4 35/9/4
f 1/5/2 2/8/2 33/8/2 34/5/2
f 3/18/5 1/44/5 34/44/5 36/18/5
o Cube.007
v -0.081508 0.057402 0.424791
v -0.081508 0.057402 0.194260
v 0.097993 0.057402 0.424791
v 0.097993 0.057402 0.194260
v 0.008242 0.057402 0.194260
v 0.008242 0.057402 0.424791
v -0.081508 2.204984 0.424791
v -0.117621 2.234884 0.442436
v -0.117621 2.234884 0.176615
v -0.081508 2.204984 0.194260
v 0.134106 2.234884 0.442436
v 0.097993 2.204984 0.424791
v 0.134106 2.234884 0.176615
v 0.097993 2.204984 0.194260
v 0.008242 2.204984 0.194260
v 0.008242 2.235598 0.176374
v 0.008242 2.204984 0.424791
v 0.008242 2.235598 0.442677
v -0.543644 2.723567 0.650580
v -0.503498 2.763712 0.607059
v -0.503498 2.763712 0.011992
v -0.543644 2.723567 -0.031529
v 0.519983 2.763712 0.607059
v 0.560128 2.723567 0.650580
v 0.519983 2.763712 0.011992
v 0.560128 2.723567 -0.031529
v 0.008242 2.723567 0.013075
v 0.008242 2.763712 0.053351
v 0.008242 2.723567 0.605976
v 0.008242 2.763712 0.565700
v -0.499539 2.263567 0.629031
v -0.543644 2.299485 0.650580
v -0.543644 2.299485 -0.031529
v -0.499539 2.263567 -0.009980
v 0.560128 2.299485 0.650580
v 0.516024 2.263567 0.629031
v 0.560128 2.299485 -0.031529
v 0.516024 2.263567 -0.009980
v 0.008242 2.263335 0.031579
v 0.008242 2.299485 0.013075
v 0.008242 2.263335 0.587472
v 0.008242 2.299485 0.605976
vn -0.0000 -0.8195 -0.5732
vn -0.1446 -0.9716 -0.1875
vn -0.2354 -0.8532 -0.4655
vn -0.0000 -0.8117 -0.5840
vn 0.1446 -0.9716 0.1875
vn 0.1446 -0.9716 -0.1875
vn 0.2354 -0.8532 -0.4655
vn 0.2354 -0.8532 0.4655
vn -0.5774 -0.5774 0.5774
vn -0.8833 -0.4688 -0.0000
vn -0.5774 -0.5774 -0.5774
vn -0.0000 -0.7071 -0.7071
vn 0.5774 -0.5774 -0.5774
vn 0.5774 -0.5774 0.5774
vn -0.0000 -0.7071 0.7071
vn -0.0000 -0.2349 0.9720
vn 0.6467 -0.3786 0.6622
vn 0.6227 0.3957 0.6750
vn -0.0000 0.3906 0.9206
vn 0.2834 0.9085 -0.3072
vn -0.0000 0.9310 -0.3650
vn -0.0000 0.9310 0.3650
vn 0.2834 0.9085 0.3072
vn 0.8833 -0.4688 -0.0000
vn 0.0004 -0.3152 -0.9490
vn -0.0000 -0.2622 -0.9650
vn -0.0004 -0.3152 0.9490
vn -0.0000 -0.2622 0.9650
vn -0.1446 -0.9716 0.1875
vn -0.0000 -0.8194 0.5732
vn -0.0000 -0.8117 0.5840
vn -0.2354 -0.8532 0.4655
vn -0.2834 0.9085 -0.3072
vn -0.2834 0.9085 0.3072
vn 0.6467 -0.3786 -0.6622
vn 0.6227 0.3957 -0.6750
vn -0.6467 -0.3786 0.6622
vn -0.6227 0.3957 0.6750
vn -0.0004 -0.3152 -0.9490
vn -0.0000 -0.2349 -0.9720
vn -0.0000 0.3906 -0.9206
vn -0.6467 -0.3786 -0.6622
vn -0.6227 0.3957 -0.6750
vn 0.0004 -0.3152 0.9490
vt 0.625000 0.375000
vt 0.625000 0.250000
vt 0.625000 0.750000
vt 0.625000 0.500000
vt 0.375000 0.000000
vt 0.621875 0.000000
vt 0.621875 0.250000
vt 0.375000 0.250000
vt 0.250000 0.500000
vt 0.375000 0.500000
vt 0.375000 0.750000
vt 0.250000 0.750000
vt 0.625000 0.875000
vt 0.634093 0.515167
vt 0.750000 0.516983
vt 0.750000 0.733017
vt 0.634093 0.734833
vt 0.621875 0.500000
vt 0.621875 0.750000
vt 0.621875 0.375000
vt 0.375000 0.375000
vt 0.621875 0.875000
vt 0.375000 0.875000
vt 0.625000 1.000000
vt 0.625000 1.000000
vt 0.625000 0.375000
vt 0.865907 0.515167
vt 0.865907 0.734833
vt 0.625000 0.875000
vt 0.125000 0.500000
vt 0.125000 0.750000
vt 0.625000 0.000000
vt 0.621875 1.000000
vt 0.621875 0.875000
vt 0.375000 1.000000
vt 0.625000 0.015951
vt 0.625000 0.234049
vt 0.625000 0.490175
vt 0.625000 0.990175
vt 0.625000 0.259825
vt 0.625000 0.759825
s 1
f 52/51/23 45/52/24 70/52/25 75/51/26
f 47/53/27 49/54/28 74/54/29 72/53/30
f 37/55/31 43/56/32 46/57/32 38/58/33
f 41/59/34 40/60/35 39/61/36 42/62/37
f 78/63/38 71/53/39 60/53/40 65/63/41
f 61/64/42 64/65/43 66/66/44 59/67/45
f 40/60/35 50/68/46 48/69/46 39/61/36
f 38/58/33 46/57/47 51/70/48 41/71/34
f 39/61/36 48/69/49 53/72/50 42/73/37
f 44/74/51 54/63/52 77/63/53 67/75/54
f 49/54/28 52/76/23 75/51/26 74/54/29
f 64/65/43 57/77/55 56/78/56 66/66/44
f 71/53/39 73/54/57 62/54/58 60/53/40
f 54/63/52 47/53/27 72/53/30 77/79/53
f 68/74/59 78/63/38 65/63/41 55/74/60
f 41/71/34 51/70/48 50/68/61 40/60/35
f 38/80/33 41/59/34 42/62/37 37/81/31
f 73/54/57 76/51/62 63/51/63 62/54/58
f 76/51/62 69/52/64 58/52/65 63/51/63
f 44/82/51 45/52/24 46/57/32 43/56/32
f 52/76/23 49/54/28 50/68/61 51/70/48
f 49/54/28 47/53/27 48/69/46 50/68/46
f 54/63/52 44/74/51 43/83/66 53/84/50
f 45/52/24 52/51/23 51/70/48 46/57/47
f 47/53/27 54/63/52 53/72/50 48/69/49
f 42/73/37 53/84/50 43/83/66 37/85/31
f 56/86/56 57/87/55 58/52/65 55/82/60
f 64/51/43 61/88/42 62/54/58 63/51/63
f 61/64/42 59/67/45 60/53/40 62/54/58
f 66/63/44 56/89/56 55/74/60 65/63/41
f 57/90/55 64/51/43 63/51/63 58/52/65
f 59/91/45 66/63/44 65/63/41 60/53/40
f 45/52/24 44/82/51 67/82/54 70/52/25
f 68/82/59 69/52/64 70/52/25 67/82/54
f 76/51/62 73/54/57 74/54/29 75/51/26
f 73/54/57 71/53/39 72/53/30 74/54/29
f 78/63/38 68/74/59 67/75/54 77/63/53
f 69/52/64 76/51/62 75/51/26 70/52/25
f 71/53/39 78/63/38 77/79/53 72/53/30
f 69/52/64 68/82/59 55/82/60 58/52/65
