# Blender 4.3.1
# www.blender.org
mtllib packa_B_1.mtl
o Cube.006
v -0.448201 -0.070045 1.600924
v -0.448201 -0.070045 -1.411846
v 0.448201 -0.070045 1.600924
v 0.448201 -0.070045 -1.411846
v -0.448201 0.383823 1.600924
v -0.399625 0.448201 1.526264
v -0.433973 0.429345 1.579057
v -0.399625 0.448201 -1.337186
v -0.448201 0.383823 -1.411846
v -0.433974 0.429345 -1.389979
v 0.399625 0.448201 -1.337186
v 0.448201 0.383823 -1.411846
v 0.433973 0.429345 -1.389979
v 0.399625 0.448201 1.526264
v 0.448201 0.383823 1.600924
v 0.433973 0.429345 1.579057
v -0.179199 0.448201 1.187473
v -0.158141 0.420292 1.155107
v -0.158141 0.420292 -0.966029
v -0.179199 0.448201 -0.998395
v 0.158140 0.420292 1.155107
v 0.179198 0.448201 1.187473
v 0.158140 0.420292 -0.966029
v 0.179198 0.448201 -0.998395
v -0.158141 0.218441 1.155107
v -0.136359 0.196659 1.133324
v -0.136359 0.196659 -0.944247
v -0.158141 0.218441 -0.966029
v 0.136358 0.196659 -0.944247
v 0.158140 0.218441 -0.966029
v 0.136358 0.196659 1.133324
v 0.158140 0.218441 1.155107
v -0.448201 -0.139016 -1.411846
v -0.448201 -0.139016 1.600924
v 0.448201 -0.139016 -1.411846
v 0.448201 -0.139016 1.600924
vn -0.0000 1.0000 -0.0000
vn -1.0000 -0.0000 -0.0000
vn -0.0000 -0.0000 -1.0000
vn 1.0000 -0.0000 -0.0000
vn -0.0000 -0.0000 1.0000
vn -0.4812 0.8766 -0.0000
vn -0.9545 0.2983 -0.0000
vn -0.0000 0.9417 -0.3364
vn -0.0000 0.4330 -0.9014
vn 0.4812 0.8766 -0.0000
vn 0.9545 0.2983 -0.0000
vn -0.0000 0.9417 0.3364
vn -0.0000 0.4330 0.9014
vn 0.7983 0.6023 -0.0000
vn -0.0000 0.7573 0.6530
vn -0.7983 0.6023 -0.0000
vn -0.0000 0.7573 -0.6530
vn 0.7071 0.7071 -0.0000
vn -0.0000 0.7071 0.7071
vn -0.7071 0.7071 -0.0000
vn -0.0000 0.7071 -0.7071
vn -0.0000 -1.0000 -0.0000
vt 0.831856 0.737163
vt 0.831856 0.512837
vt 0.867209 0.502318
vt 0.867209 0.747682
vt 0.375000 0.000000
vt 0.593944 0.000000
vt 0.593944 0.250000
vt 0.375000 0.250000
vt 0.375000 0.500000
vt 0.668144 0.512837
vt 0.668144 0.737163
vt 0.632791 0.747682
vt 0.632791 0.502318
vt 0.593944 0.250000
vt 0.593944 0.500000
vt 0.593944 0.500000
vt 0.593944 0.750000
vt 0.375000 0.750000
vt 0.671521 0.513842
vt 0.828479 0.513842
vt 0.828479 0.736158
vt 0.671521 0.736158
vt 0.828479 0.736158
vt 0.668144 0.737163
vt 0.831856 0.737163
vt 0.867209 0.747682
vt 0.632791 0.747682
vt 0.875000 0.501815
vt 0.875000 0.748185
vt 0.625000 0.001815
vt 0.625000 0.248185
vt 0.628968 0.500000
vt 0.871032 0.500000
vt 0.625000 0.253968
vt 0.625000 0.496032
vt 0.625000 0.748185
vt 0.625000 0.501815
vt 0.871032 0.750000
vt 0.628968 0.750000
vt 0.625000 0.753968
vt 0.625000 0.996032
vt 0.593944 1.000000
vt 0.593944 0.750000
vt 0.375000 1.000000
vt 0.682331 0.516125
vt 0.817669 0.516125
vt 0.817669 0.733875
vt 0.682331 0.733875
vt 0.125000 0.500000
vt 0.125000 0.750000
s 0
f 17/1/1 20/2/1 8/3/1 6/4/1
f 1/5/2 5/6/2 9/7/2 2/8/2
f 2/8/3 4/9/3 35/9/3 33/8/3
f 24/10/1 22/11/1 14/12/1 11/13/1
f 2/8/3 9/14/3 12/15/3 4/9/3
f 4/9/4 12/16/4 15/17/4 3/18/4
f 23/19/5 19/20/5 28/20/5 30/19/5
f 18/21/3 21/22/3 32/22/3 25/23/3
f 22/24/1 17/25/1 6/26/1 14/27/1
f 21/22/2 23/19/2 30/19/2 32/22/2
f 20/2/1 24/10/1 11/13/1 8/3/1
f 6/4/6 8/3/6 10/28/6 7/29/6
f 7/30/7 10/31/7 9/7/7 5/6/7
f 8/3/8 11/13/8 13/32/8 10/33/8
f 10/34/9 13/35/9 12/15/9 9/14/9
f 11/13/10 14/12/10 16/36/10 13/37/10
f 13/37/11 16/36/11 15/17/11 12/16/11
f 14/27/12 6/26/12 7/38/12 16/39/12
f 16/40/13 7/41/13 5/42/13 15/43/13
f 3/18/5 15/43/5 5/42/5 1/44/5
f 18/23/14 19/20/14 20/2/14 17/1/14
f 19/20/15 23/19/15 24/10/15 20/2/15
f 23/19/16 21/22/16 22/11/16 24/10/16
f 21/22/17 18/21/17 17/25/17 22/24/17
f 29/45/1 27/46/1 26/47/1 31/48/1
f 26/47/18 27/46/18 28/20/18 25/23/18
f 27/46/19 29/45/19 30/19/19 28/20/19
f 29/45/20 31/48/20 32/22/20 30/19/20
f 31/48/21 26/47/21 25/23/21 32/22/21
f 19/20/4 18/23/4 25/23/4 28/20/4
f 33/49/22 35/9/22 36/18/22 34/50/22
f 4/9/4 3/18/4 36/18/4 35/9/4
f 1/5/2 2/8/2 33/8/2 34/5/2
f 3/18/5 1/44/5 34/44/5 36/18/5
