# Blender 4.3.2
# www.blender.org
mtllib packa_2.mtl
o Sphere.002
v 0.007615 0.072063 -0.009137
v 0.010659 0.060629 -0.012765
v 0.005787 0.004029 -0.006958
v 0.011525 0.072063 -0.002363
v 0.016190 0.060629 -0.003186
v 0.008725 0.004029 -0.001869
v 0.010167 0.072063 0.005340
v 0.014269 0.060629 0.007708
v 0.007704 0.004029 0.003918
v 0.004176 0.072063 0.010367
v 0.005796 0.060629 0.014818
v 0.003203 0.004029 0.007695
v -0.003646 0.072063 0.010367
v -0.005266 0.060629 0.014818
v -0.002673 0.004029 0.007695
v -0.009638 0.072063 0.005340
v -0.013739 0.060629 0.007708
v -0.007175 0.004029 0.003918
v 0.000265 0.000471 -0.000378
v 0.000265 0.076799 -0.000378
v -0.010996 0.072063 -0.002363
v -0.015660 0.060629 -0.003186
v -0.008195 0.004029 -0.001869
v -0.007085 0.072063 -0.009137
v -0.010130 0.060629 -0.012765
v -0.005257 0.004029 -0.006958
v 0.000265 0.072063 -0.011812
v 0.000265 0.060629 -0.016548
v 0.000265 0.004029 -0.008968
v 0.004953 0.014952 -0.005965
v 0.007448 0.014952 -0.001644
v 0.006582 0.014952 0.003269
v 0.002759 0.014952 0.006477
v -0.002230 0.014952 0.006477
v -0.006052 0.014952 0.003269
v -0.006918 0.014952 -0.001644
v -0.004424 0.014952 -0.005965
v 0.000265 0.014952 -0.007672
vn -0.0000 -0.0382 -0.9993
vn -0.0000 0.0945 -0.9955
vn 0.6399 0.0945 -0.7626
vn 0.6423 -0.0382 -0.7655
vn -0.0000 0.6675 -0.7446
vn -0.0000 1.0000 -0.0000
vn 0.4786 0.6675 -0.5704
vn -0.0000 -1.0000 -0.0000
vn -0.0000 -0.4554 -0.8903
vn 0.5723 -0.4554 -0.6820
vn 0.9804 0.0945 -0.1729
vn 0.9841 -0.0382 -0.1735
vn 0.7333 0.6675 -0.1293
vn 0.8767 -0.4554 -0.1546
vn 0.8622 0.0945 0.4978
vn 0.8654 -0.0382 0.4996
vn 0.6449 0.6675 0.3723
vn 0.7710 -0.4554 0.4451
vn 0.3405 0.0945 0.9355
vn 0.3418 -0.0382 0.9390
vn 0.2547 0.6675 0.6997
vn 0.3045 -0.4554 0.8366
vn -0.3405 0.0945 0.9355
vn -0.3418 -0.0382 0.9390
vn -0.2547 0.6675 0.6997
vn -0.3045 -0.4554 0.8366
vn -0.6449 0.6675 0.3723
vn -0.8622 0.0945 0.4978
vn -0.8654 -0.0382 0.4996
vn -0.7710 -0.4554 0.4451
vn -0.8767 -0.4554 -0.1546
vn -0.7333 0.6675 -0.1293
vn -0.9804 0.0945 -0.1729
vn -0.9841 -0.0382 -0.1735
vn -0.5723 -0.4554 -0.6820
vn -0.4786 0.6675 -0.5704
vn -0.6399 0.0945 -0.7626
vn -0.6423 -0.0382 -0.7655
vt 0.666667 0.308350
vt 0.666667 0.500000
vt 0.555556 0.500000
vt 0.555556 0.308350
vt 0.666667 0.750000
vt 0.611111 1.000000
vt 0.555556 0.750000
vt 0.611111 0.000000
vt 0.666667 0.250000
vt 0.555556 0.250000
vt 0.444444 0.500000
vt 0.444444 0.308350
vt 0.500000 1.000000
vt 0.444444 0.750000
vt 0.500000 0.000000
vt 0.444444 0.250000
vt 0.333333 0.500000
vt 0.333333 0.308350
vt 0.388889 1.000000
vt 0.333333 0.750000
vt 0.388889 0.000000
vt 0.333333 0.250000
vt 0.222222 0.500000
vt 0.222222 0.308350
vt 0.277778 1.000000
vt 0.222222 0.750000
vt 0.277778 0.000000
vt 0.222222 0.250000
vt 0.111111 0.500000
vt 0.111111 0.308350
vt 0.166667 1.000000
vt 0.111111 0.750000
vt 0.166667 0.000000
vt 0.111111 0.250000
vt 0.000000 0.750000
vt 0.000000 0.500000
vt 0.000000 0.308350
vt 0.055556 1.000000
vt 0.055556 0.000000
vt 0.000000 0.250000
vt 0.944444 0.000000
vt 1.000000 0.250000
vt 0.888889 0.250000
vt 1.000000 0.500000
vt 1.000000 0.750000
vt 0.888889 0.750000
vt 0.888889 0.500000
vt 1.000000 0.308350
vt 0.888889 0.308350
vt 0.944444 1.000000
vt 0.833333 0.000000
vt 0.777778 0.250000
vt 0.777778 0.750000
vt 0.777778 0.500000
vt 0.777778 0.308350
vt 0.833333 1.000000
vt 0.722222 0.000000
vt 0.722222 1.000000
s 1
f 38/1/1 28/2/2 2/3/3 30/4/4
f 27/5/5 20/6/6 1/7/7
f 19/8/8 29/9/9 3/10/10
f 28/2/2 27/5/5 1/7/7 2/3/3
f 30/4/4 2/3/3 5/11/11 31/12/12
f 1/7/7 20/13/6 4/14/13
f 19/15/8 3/10/10 6/16/14
f 2/3/3 1/7/7 4/14/13 5/11/11
f 31/12/12 5/11/11 8/17/15 32/18/16
f 4/14/13 20/19/6 7/20/17
f 19/21/8 6/16/14 9/22/18
f 5/11/11 4/14/13 7/20/17 8/17/15
f 32/18/16 8/17/15 11/23/19 33/24/20
f 7/20/17 20/25/6 10/26/21
f 19/27/8 9/22/18 12/28/22
f 8/17/15 7/20/17 10/26/21 11/23/19
f 33/24/20 11/23/19 14/29/23 34/30/24
f 10/26/21 20/31/6 13/32/25
f 19/33/8 12/28/22 15/34/26
f 11/23/19 10/26/21 13/32/25 14/29/23
f 14/29/23 13/32/25 16/35/27 17/36/28
f 34/30/24 14/29/23 17/36/28 35/37/29
f 13/32/25 20/38/6 16/35/27
f 19/39/8 15/34/26 18/40/30
f 19/41/8 18/42/30 23/43/31
f 17/44/28 16/45/27 21/46/32 22/47/33
f 35/48/29 17/44/28 22/47/33 36/49/34
f 16/45/27 20/50/6 21/46/32
f 19/51/8 23/43/31 26/52/35
f 22/47/33 21/46/32 24/53/36 25/54/37
f 36/49/34 22/47/33 25/54/37 37/55/38
f 21/46/32 20/56/6 24/53/36
f 19/57/8 26/52/35 29/9/9
f 25/54/37 24/53/36 27/5/5 28/2/2
f 37/55/38 25/54/37 28/2/2 38/1/1
f 24/53/36 20/58/6 27/5/5
f 26/52/35 37/55/38 38/1/1 29/9/9
f 23/43/31 36/49/34 37/55/38 26/52/35
f 18/42/30 35/48/29 36/49/34 23/43/31
f 15/34/26 34/30/24 35/37/29 18/40/30
f 12/28/22 33/24/20 34/30/24 15/34/26
f 9/22/18 32/18/16 33/24/20 12/28/22
f 6/16/14 31/12/12 32/18/16 9/22/18
f 3/10/10 30/4/4 31/12/12 6/16/14
f 29/9/9 38/1/1 30/4/4 3/10/10
