# Blender 4.3.1
# www.blender.org
mtllib packa_2.mtl
o Sphere.002
v 0.076147 0.720631 -0.091368
v 0.106592 0.606287 -0.127650
v 0.057866 0.040292 -0.069582
v 0.115255 0.720631 -0.023631
v 0.161899 0.606287 -0.031855
v 0.087247 0.040292 -0.018692
v 0.101673 0.720631 0.053397
v 0.142691 0.606287 0.077079
v 0.077043 0.040292 0.039177
v 0.041756 0.720631 0.103674
v 0.057955 0.606287 0.148180
v 0.032029 0.040292 0.076949
v -0.036460 0.720631 0.103674
v -0.052659 0.606287 0.148180
v -0.026733 0.040292 0.076949
v -0.096377 0.720631 0.053397
v -0.137395 0.606287 0.077079
v -0.071748 0.040292 0.039177
v 0.002648 0.004709 -0.003775
v 0.002648 0.767994 -0.003775
v -0.109959 0.720631 -0.023631
v -0.156603 0.606287 -0.031855
v -0.081952 0.040292 -0.018692
v -0.070851 0.720631 -0.091368
v -0.101296 0.606287 -0.127650
v -0.052571 0.040292 -0.069582
v 0.002648 0.720631 -0.118120
v 0.002648 0.606287 -0.165483
v 0.002648 0.040292 -0.089680
v 0.049532 0.149516 -0.059650
v 0.074479 0.149516 -0.016441
v 0.065815 0.149516 0.032695
v 0.027594 0.149516 0.064766
v -0.022299 0.149516 0.064766
v -0.060520 0.149516 0.032695
v -0.069184 0.149516 -0.016441
v -0.044237 0.149516 -0.059650
v 0.002648 0.149516 -0.076715
vn 0.4786 0.6675 -0.5704
vn 0.6399 0.0945 -0.7626
vn 0.5723 -0.4554 -0.6820
vn 0.7333 0.6675 -0.1293
vn 0.9804 0.0945 -0.1729
vn 0.8767 -0.4554 -0.1546
vn 0.6449 0.6675 0.3723
vn 0.8622 0.0945 0.4978
vn 0.7710 -0.4554 0.4451
vn 0.2547 0.6675 0.6997
vn 0.3405 0.0945 0.9355
vn 0.3045 -0.4554 0.8366
vn -0.2547 0.6675 0.6997
vn -0.3405 0.0945 0.9355
vn -0.3045 -0.4554 0.8366
vn -0.6449 0.6675 0.3723
vn -0.8622 0.0945 0.4978
vn -0.7710 -0.4554 0.4451
vn -0.0000 -1.0000 -0.0000
vn -0.0000 1.0000 -0.0000
vn -0.7333 0.6675 -0.1293
vn -0.9804 0.0945 -0.1729
vn -0.8767 -0.4554 -0.1546
vn -0.4786 0.6675 -0.5704
vn -0.6399 0.0945 -0.7626
vn -0.5723 -0.4554 -0.6820
vn -0.0000 0.6675 -0.7446
vn -0.0000 0.0945 -0.9955
vn -0.0000 -0.4554 -0.8903
vn 0.6423 -0.0382 -0.7655
vn 0.9841 -0.0382 -0.1735
vn 0.8654 -0.0382 0.4996
vn 0.3418 -0.0382 0.9390
vn -0.3418 -0.0382 0.9390
vn -0.8654 -0.0382 0.4996
vn -0.9841 -0.0382 -0.1735
vn -0.6423 -0.0382 -0.7655
vn -0.0000 -0.0382 -0.9993
vt 0.666667 0.308350
vt 0.666667 0.500000
vt 0.555556 0.500000
vt 0.555556 0.308350
vt 0.666667 0.750000
vt 0.611111 1.000000
vt 0.555556 0.750000
vt 0.611111 0.000000
vt 0.666667 0.250000
vt 0.555556 0.250000
vt 0.444444 0.500000
vt 0.444444 0.308350
vt 0.500000 1.000000
vt 0.444444 0.750000
vt 0.500000 0.000000
vt 0.444444 0.250000
vt 0.333333 0.500000
vt 0.333333 0.308350
vt 0.388889 1.000000
vt 0.333333 0.750000
vt 0.388889 0.000000
vt 0.333333 0.250000
vt 0.222222 0.500000
vt 0.222222 0.308350
vt 0.277778 1.000000
vt 0.222222 0.750000
vt 0.277778 0.000000
vt 0.222222 0.250000
vt 0.111111 0.500000
vt 0.111111 0.308350
vt 0.166667 1.000000
vt 0.111111 0.750000
vt 0.166667 0.000000
vt 0.111111 0.250000
vt 0.000000 0.750000
vt 0.000000 0.500000
vt 0.000000 0.308350
vt 0.055556 1.000000
vt 0.055556 0.000000
vt 0.000000 0.250000
vt 0.944444 0.000000
vt 1.000000 0.250000
vt 0.888889 0.250000
vt 1.000000 0.500000
vt 1.000000 0.750000
vt 0.888889 0.750000
vt 0.888889 0.500000
vt 1.000000 0.308350
vt 0.888889 0.308350
vt 0.944444 1.000000
vt 0.833333 0.000000
vt 0.777778 0.250000
vt 0.777778 0.750000
vt 0.777778 0.500000
vt 0.777778 0.308350
vt 0.833333 1.000000
vt 0.722222 0.000000
vt 0.722222 1.000000
s 1
f 38/1/38 28/2/28 2/3/2 30/4/30
f 27/5/27 20/6/20 1/7/1
f 19/8/19 29/9/29 3/10/3
f 28/2/28 27/5/27 1/7/1 2/3/2
f 30/4/30 2/3/2 5/11/5 31/12/31
f 1/7/1 20/13/20 4/14/4
f 19/15/19 3/10/3 6/16/6
f 2/3/2 1/7/1 4/14/4 5/11/5
f 31/12/31 5/11/5 8/17/8 32/18/32
f 4/14/4 20/19/20 7/20/7
f 19/21/19 6/16/6 9/22/9
f 5/11/5 4/14/4 7/20/7 8/17/8
f 32/18/32 8/17/8 11/23/11 33/24/33
f 7/20/7 20/25/20 10/26/10
f 19/27/19 9/22/9 12/28/12
f 8/17/8 7/20/7 10/26/10 11/23/11
f 33/24/33 11/23/11 14/29/14 34/30/34
f 10/26/10 20/31/20 13/32/13
f 19/33/19 12/28/12 15/34/15
f 11/23/11 10/26/10 13/32/13 14/29/14
f 14/29/14 13/32/13 16/35/16 17/36/17
f 34/30/34 14/29/14 17/36/17 35/37/35
f 13/32/13 20/38/20 16/35/16
f 19/39/19 15/34/15 18/40/18
f 19/41/19 18/42/18 23/43/23
f 17/44/17 16/45/16 21/46/21 22/47/22
f 35/48/35 17/44/17 22/47/22 36/49/36
f 16/45/16 20/50/20 21/46/21
f 19/51/19 23/43/23 26/52/26
f 22/47/22 21/46/21 24/53/24 25/54/25
f 36/49/36 22/47/22 25/54/25 37/55/37
f 21/46/21 20/56/20 24/53/24
f 19/57/19 26/52/26 29/9/29
f 25/54/25 24/53/24 27/5/27 28/2/28
f 37/55/37 25/54/25 28/2/28 38/1/38
f 24/53/24 20/58/20 27/5/27
f 26/52/26 37/55/37 38/1/38 29/9/29
f 23/43/23 36/49/36 37/55/37 26/52/26
f 18/42/18 35/48/35 36/49/36 23/43/23
f 15/34/15 34/30/34 35/37/35 18/40/18
f 12/28/12 33/24/33 34/30/34 15/34/15
f 9/22/9 32/18/32 33/24/33 12/28/12
f 6/16/6 31/12/31 32/18/32 9/22/9
f 3/10/3 30/4/30 31/12/31 6/16/6
f 29/9/29 38/1/38 30/4/30 3/10/3
