# Blender 4.3.2
# www.blender.org
mtllib packa_B_2.mtl
o Cube.007
v -0.008590 0.005740 0.015148
v -0.008590 0.005740 -0.007906
v 0.009360 0.005740 0.015148
v 0.009360 0.005740 -0.007906
v 0.000385 0.005740 -0.007906
v 0.000385 0.005740 0.015148
v -0.008590 0.220498 0.015147
v -0.012202 0.223488 0.016912
v -0.012202 0.223488 -0.009670
v -0.008590 0.220498 -0.007906
v 0.012971 0.223488 0.016912
v 0.009360 0.220498 0.015147
v 0.012971 0.223488 -0.009670
v 0.009360 0.220498 -0.007906
v 0.000385 0.220498 -0.007906
v 0.000385 0.223560 -0.009694
v 0.000385 0.220498 0.015147
v 0.000385 0.223560 0.016936
v -0.054804 0.272357 0.037726
v -0.050789 0.276371 0.033374
v -0.050789 0.276371 -0.026132
v -0.054804 0.272357 -0.030485
v 0.051559 0.276371 0.033374
v 0.055573 0.272357 0.037726
v 0.051559 0.276371 -0.026132
v 0.055573 0.272357 -0.030485
v 0.000385 0.272357 -0.026024
v 0.000385 0.276371 -0.021997
v 0.000385 0.272357 0.033266
v 0.000385 0.276371 0.029238
v -0.050393 0.226357 0.035571
v -0.054804 0.229949 0.037726
v -0.054804 0.229949 -0.030485
v -0.050393 0.226357 -0.028330
v 0.055573 0.229949 0.037726
v 0.051163 0.226357 0.035571
v 0.055573 0.229949 -0.030485
v 0.051163 0.226357 -0.028330
v 0.000385 0.226334 -0.024174
v 0.000385 0.229949 -0.026024
v 0.000385 0.226334 0.031415
v 0.000385 0.229949 0.033266
v -0.008590 0.002679 0.015148
v -0.008590 0.002679 -0.007906
v 0.009360 0.002679 0.015148
v 0.009360 0.002679 -0.007906
v 0.000385 0.002679 -0.007906
v 0.000385 0.002679 0.015148
vn -0.0000 -0.8195 -0.5731
vn -0.1446 -0.9716 -0.1875
vn -0.2354 -0.8532 -0.4655
vn -0.0000 -0.8117 -0.5840
vn 0.1446 -0.9716 0.1875
vn 0.1446 -0.9716 -0.1875
vn 0.2354 -0.8532 -0.4655
vn 0.2354 -0.8532 0.4655
vn -0.7071 -0.0000 0.7071
vn -0.8833 -0.4688 -0.0000
vn -0.7071 -0.0000 -0.7071
vn 0.7071 -0.0000 -0.7071
vn 0.7071 -0.0000 0.7071
vn 0.5774 -0.5774 0.5774
vn 0.5774 -0.5774 -0.5774
vn -0.0000 -0.2349 0.9720
vn 0.6467 -0.3786 0.6622
vn 0.6227 0.3957 0.6750
vn -0.0000 0.3906 0.9206
vn 0.2834 0.9085 -0.3072
vn -0.0000 0.9310 -0.3649
vn -0.0000 0.9310 0.3649
vn 0.2834 0.9085 0.3072
vn 0.8833 -0.4688 -0.0000
vn 0.0004 -0.3152 -0.9490
vn -0.0000 -0.2622 -0.9650
vn -0.0000 -0.0000 -1.0000
vn -0.0004 -0.3152 0.9490
vn -0.0000 -0.2622 0.9650
vn -0.0000 -0.0000 1.0000
vn -0.1446 -0.9716 0.1875
vn -0.0000 -0.8194 0.5732
vn -0.0000 -0.8117 0.5840
vn -0.2354 -0.8532 0.4655
vn -0.2834 0.9085 -0.3072
vn -0.2834 0.9085 0.3072
vn 0.6467 -0.3786 -0.6622
vn 0.6227 0.3957 -0.6750
vn -0.6467 -0.3786 0.6622
vn -0.6227 0.3957 0.6750
vn -0.0004 -0.3152 -0.9490
vn -0.0000 -0.7071 -0.7071
vn -0.0000 -0.2349 -0.9720
vn -0.0000 0.3906 -0.9206
vn -0.6467 -0.3786 -0.6622
vn -0.6227 0.3957 -0.6750
vn 0.0004 -0.3152 0.9490
vn -0.0000 -0.7071 0.7071
vn -0.5774 -0.5774 -0.5774
vn -0.5774 -0.5774 0.5774
vt 0.625000 0.375000
vt 0.625000 0.250000
vt 0.625000 0.750000
vt 0.625000 0.500000
vt 0.375000 0.000000
vt 0.621875 0.000000
vt 0.621875 0.250000
vt 0.375000 0.250000
vt 0.375000 0.500000
vt 0.375000 0.750000
vt 0.625000 0.875000
vt 0.634093 0.515167
vt 0.750000 0.516983
vt 0.750000 0.733017
vt 0.634093 0.734833
vt 0.621875 0.500000
vt 0.621875 0.750000
vt 0.621875 0.375000
vt 0.375000 0.375000
vt 0.621875 0.875000
vt 0.375000 0.875000
vt 0.625000 1.000000
vt 0.865907 0.515167
vt 0.865907 0.734833
vt 0.625000 0.000000
vt 0.621875 1.000000
vt 0.375000 1.000000
vt 0.625000 0.015951
vt 0.625000 0.234049
vt 0.625000 0.490175
vt 0.625000 0.990175
vt 0.625000 0.259825
vt 0.625000 0.759825
vt 0.250000 0.500000
vt 0.250000 0.750000
vt 0.125000 0.500000
vt 0.125000 0.750000
s 1
f 16/1/1 9/2/2 34/2/3 39/1/4
f 11/3/5 13/4/6 38/4/7 36/3/8
f 1/5/9 7/6/10 10/7/10 2/8/11
f 4/9/12 3/10/13 45/10/14 46/9/15
f 42/11/16 35/3/17 24/3/18 29/11/19
f 25/12/20 28/13/21 30/14/22 23/15/23
f 4/9/12 14/16/24 12/17/24 3/10/13
f 2/8/11 10/7/25 15/18/26 5/19/27
f 3/10/13 12/17/28 17/20/29 6/21/30
f 8/22/31 18/11/32 41/11/33 31/22/34
f 13/4/6 16/1/1 39/1/4 38/4/7
f 28/13/21 21/23/35 20/24/36 30/14/22
f 35/3/17 37/4/37 26/4/38 24/3/18
f 18/11/32 11/3/5 36/3/8 41/11/33
f 32/22/39 42/11/16 29/11/19 19/22/40
f 5/19/27 15/18/26 14/16/41 4/9/12
f 5/19/27 4/9/12 46/9/15 47/19/42
f 37/4/37 40/1/43 27/1/44 26/4/38
f 40/1/43 33/2/45 22/2/46 27/1/44
f 8/25/31 9/2/2 10/7/10 7/6/10
f 16/1/1 13/4/6 14/16/41 15/18/26
f 13/4/6 11/3/5 12/17/24 14/16/24
f 18/11/32 8/22/31 7/26/47 17/20/29
f 9/2/2 16/1/1 15/18/26 10/7/25
f 11/3/5 18/11/32 17/20/29 12/17/28
f 6/21/30 17/20/29 7/26/47 1/27/9
f 20/28/36 21/29/35 22/2/46 19/25/40
f 28/1/21 25/30/20 26/4/38 27/1/44
f 25/12/20 23/15/23 24/3/18 26/4/38
f 30/11/22 20/31/36 19/22/40 29/11/19
f 21/32/35 28/1/21 27/1/44 22/2/46
f 23/33/23 30/11/22 29/11/19 24/3/18
f 9/2/2 8/25/31 31/25/34 34/2/3
f 32/25/39 33/2/45 34/2/3 31/25/34
f 40/1/43 37/4/37 38/4/7 39/1/4
f 37/4/37 35/3/17 36/3/8 38/4/7
f 42/11/16 32/22/39 31/22/34 41/11/33
f 33/2/45 40/1/43 39/1/4 34/2/3
f 35/3/17 42/11/16 41/11/33 36/3/8
f 33/2/45 32/25/39 19/25/40 22/2/46
f 47/34/42 46/9/15 45/10/14 48/35/48
f 44/36/49 47/34/42 48/35/48 43/37/50
f 1/5/9 2/8/11 44/8/49 43/5/50
f 6/21/30 1/27/9 43/27/50 48/21/48
f 3/10/13 6/21/30 48/21/48 45/10/14
f 2/8/11 5/19/27 47/19/42 44/8/49
