# Blender 4.3.2
# www.blender.org
mtllib paka_3.mtl
o Circle.001
v 0.015000 0.104046 -0.104046
v 0.015000 0.122345 -0.081748
v 0.015000 0.135942 -0.056309
v 0.015000 0.144315 -0.028706
v 0.015000 0.147143 0.000000
v 0.015000 0.144315 0.028706
v 0.015000 0.135942 0.056309
v 0.015000 0.122345 0.081748
v 0.015000 0.104046 0.104046
v -0.000000 0.081748 -0.122345
v -0.015000 0.104046 -0.104046
v -0.015000 0.122345 -0.081748
v -0.015000 0.135942 -0.056309
v -0.015000 0.144315 -0.028706
v -0.015000 0.147143 0.000000
v -0.015000 0.144315 0.028706
v -0.015000 0.135942 0.056309
v -0.015000 0.122345 0.081748
v -0.015000 0.104046 0.104046
v -0.000000 0.081748 0.122345
v 0.030398 0.104046 -0.104046
v 0.030398 0.104046 0.104046
v -0.030398 0.104046 -0.104046
v -0.030398 0.104046 0.104046
v 0.015000 0.105754 -0.105870
v 0.015000 0.124423 -0.083137
v 0.015000 0.138252 -0.057266
v 0.015000 0.146767 -0.029194
v 0.015000 0.149643 0.000000
v 0.015000 0.146767 0.029194
v 0.015000 0.138252 0.057266
v 0.015000 0.124423 0.083137
v 0.015000 0.105754 0.105870
v -0.000000 0.083334 -0.124277
v -0.015000 0.105754 -0.105870
v -0.015000 0.124423 -0.083137
v -0.015000 0.138252 -0.057266
v -0.015000 0.146767 -0.029194
v -0.015000 0.149643 0.000000
v -0.015000 0.146767 0.029194
v -0.015000 0.138252 0.057266
v -0.015000 0.124423 0.083137
v -0.015000 0.105754 0.105870
v -0.000000 0.083334 0.124277
v 0.030398 0.105632 -0.105978
v 0.030398 0.105632 0.105978
v -0.030398 0.105632 -0.105978
v -0.030398 0.105632 0.105978
vn -0.0000 -0.6835 -0.7299
vn -0.0000 -0.6344 -0.7730
vn -0.0000 -0.6344 0.7730
vn -0.0000 -0.6835 0.7299
vn -0.0000 -0.8315 0.5556
vn -0.0000 -0.9239 0.3827
vn -0.0000 -0.9808 0.1951
vn -0.0000 -1.0000 -0.0000
vn -0.0000 -0.9808 -0.1951
vn -0.0000 -0.9239 -0.3827
vn -0.0000 -0.8315 -0.5556
vn 0.0001 0.6837 0.7298
vn 0.0003 0.6347 0.7728
vn -0.0000 0.6346 0.7728
vn -0.0000 0.6346 -0.7728
vn 0.0001 0.6837 -0.7298
vn -0.0001 0.6837 -0.7298
vn -0.0000 0.8314 -0.5557
vn -0.0000 0.9239 -0.3827
vn -0.0000 0.9808 -0.1951
vn -0.0000 1.0000 -0.0000
vn -0.0000 0.9808 0.1951
vn -0.0000 0.9239 0.3827
vn -0.0000 0.8314 0.5557
vn -0.0001 0.6837 0.7298
vn -0.0003 0.6347 -0.7728
vn 0.0003 0.6347 -0.7728
vn -0.0003 0.6347 0.7728
vn 1.0000 -0.0000 -0.0000
vn -1.0000 -0.0000 -0.0000
vn -0.6883 -0.5607 -0.4602
vn -0.6883 -0.5607 0.4602
vn 0.6883 -0.5607 -0.4602
vn -0.0053 0.7519 -0.6593
vn 0.0053 0.7519 0.6593
vn 0.0053 0.7519 -0.6593
vn 0.6883 -0.5607 0.4602
vn -0.0053 0.7519 0.6593
vt 0.000000 0.000000
s 1
f 19/1/1 20/1/2 24/1/2
f 10/1/3 1/1/4 11/1/4
f 1/1/4 2/1/5 12/1/5 11/1/4
f 2/1/5 3/1/6 13/1/6 12/1/5
f 3/1/6 4/1/7 14/1/7 13/1/6
f 4/1/7 5/1/8 15/1/8 14/1/7
f 5/1/8 6/1/9 16/1/9 15/1/8
f 6/1/9 7/1/10 17/1/10 16/1/9
f 7/1/10 8/1/11 18/1/11 17/1/10
f 8/1/11 9/1/1 19/1/1 18/1/11
f 9/1/1 20/1/2 19/1/1
f 1/1/4 10/1/3 21/1/3
f 10/1/3 11/1/4 23/1/3
f 20/1/2 9/1/1 22/1/2
f 43/1/12 48/1/13 44/1/14
f 34/1/15 35/1/16 25/1/17
f 25/1/17 35/1/16 36/1/18 26/1/18
f 26/1/18 36/1/18 37/1/19 27/1/19
f 27/1/19 37/1/19 38/1/20 28/1/20
f 28/1/20 38/1/20 39/1/21 29/1/21
f 29/1/21 39/1/21 40/1/22 30/1/22
f 30/1/22 40/1/22 41/1/23 31/1/23
f 31/1/23 41/1/23 42/1/24 32/1/24
f 32/1/24 42/1/24 43/1/12 33/1/25
f 33/1/25 43/1/12 44/1/14
f 25/1/17 45/1/26 34/1/15
f 34/1/15 47/1/27 35/1/16
f 44/1/14 46/1/28 33/1/25
f 2/1/29 1/1/29 25/1/29 26/1/29
f 3/1/29 2/1/29 26/1/29 27/1/29
f 4/1/29 3/1/29 27/1/29 28/1/29
f 5/1/29 4/1/29 28/1/29 29/1/29
f 6/1/29 5/1/29 29/1/29 30/1/29
f 7/1/29 6/1/29 30/1/29 31/1/29
f 8/1/29 7/1/29 31/1/29 32/1/29
f 9/1/29 8/1/29 32/1/29 33/1/29
f 11/1/30 12/1/30 36/1/30 35/1/30
f 12/1/30 13/1/30 37/1/30 36/1/30
f 13/1/30 14/1/30 38/1/30 37/1/30
f 14/1/30 15/1/30 39/1/30 38/1/30
f 15/1/30 16/1/30 40/1/30 39/1/30
f 16/1/30 17/1/30 41/1/30 40/1/30
f 17/1/30 18/1/30 42/1/30 41/1/30
f 18/1/30 19/1/30 43/1/30 42/1/30
f 10/1/31 23/1/31 47/1/31 34/1/31
f 24/1/32 20/1/32 44/1/32 48/1/32
f 21/1/33 10/1/33 34/1/33 45/1/33
f 19/1/34 24/1/34 48/1/34 43/1/34
f 1/1/35 21/1/35 45/1/35 25/1/35
f 22/1/36 9/1/36 33/1/36 46/1/36
f 20/1/37 22/1/37 46/1/37 44/1/37
f 23/1/38 11/1/38 35/1/38 47/1/38
