# Blender 4.3.1
# www.blender.org
mtllib reset_button_2.mtl
o Cylinder.013
v 0.000000 -0.045844 -0.241611
v 0.000000 0.045844 -0.241611
v 0.047136 -0.045844 -0.236969
v 0.047136 0.045844 -0.236969
v 0.092461 -0.045844 -0.223220
v 0.092461 0.045844 -0.223220
v 0.134232 -0.045844 -0.200892
v 0.134232 0.045844 -0.200892
v 0.170845 -0.045844 -0.170845
v 0.170845 0.045844 -0.170845
v 0.200892 -0.045844 -0.134232
v 0.200892 0.045844 -0.134232
v 0.223220 -0.045844 -0.092461
v 0.223220 0.045844 -0.092461
v 0.236969 -0.045844 -0.047136
v 0.236969 0.045844 -0.047136
v 0.241611 -0.045844 0.000000
v 0.241611 0.045844 0.000000
v 0.236969 -0.045844 0.047136
v 0.236969 0.045844 0.047136
v 0.223220 -0.045844 0.092461
v 0.223220 0.045844 0.092461
v 0.200892 -0.045844 0.134232
v 0.200892 0.045844 0.134232
v 0.170845 -0.045844 0.170845
v 0.170845 0.045844 0.170845
v 0.134232 -0.045844 0.200892
v 0.134232 0.045844 0.200892
v 0.092461 -0.045844 0.223220
v 0.092461 0.045844 0.223220
v 0.047136 -0.045844 0.236969
v 0.047136 0.045844 0.236969
v 0.000000 -0.045844 0.241611
v 0.000000 0.045844 0.241611
v -0.047136 -0.045844 0.236969
v -0.047136 0.045844 0.236969
v -0.092461 -0.045844 0.223220
v -0.092461 0.045844 0.223220
v -0.134232 -0.045844 0.200892
v -0.134232 0.045844 0.200892
v -0.170845 -0.045844 0.170845
v -0.170845 0.045844 0.170845
v -0.200892 -0.045844 0.134232
v -0.200892 0.045844 0.134232
v -0.223220 -0.045844 0.092461
v -0.223220 0.045844 0.092461
v -0.236969 -0.045844 0.047136
v -0.236969 0.045844 0.047136
v -0.241611 -0.045844 0.000000
v -0.241611 0.045844 0.000000
v -0.236969 -0.045844 -0.047136
v -0.236969 0.045844 -0.047136
v -0.223220 -0.045844 -0.092461
v -0.223220 0.045844 -0.092461
v -0.200892 -0.045844 -0.134232
v -0.200892 0.045844 -0.134232
v -0.170845 -0.045844 -0.170845
v -0.170845 0.045844 -0.170845
v -0.134232 -0.045844 -0.200892
v -0.134232 0.045844 -0.200892
v -0.092461 -0.045844 -0.223220
v -0.092461 0.045844 -0.223220
v -0.047136 -0.045844 -0.236969
v -0.047136 0.045844 -0.236969
v 0.000000 0.035100 -0.241611
v 0.047136 0.035100 -0.236969
v 0.092461 0.035100 -0.223220
v 0.134232 0.035100 -0.200892
v 0.170845 0.035100 -0.170845
v 0.200892 0.035100 -0.134232
v 0.223220 0.035100 -0.092461
v 0.236969 0.035100 -0.047136
v 0.241611 0.035100 0.000000
v 0.236969 0.035100 0.047136
v 0.223220 0.035100 0.092461
v 0.200892 0.035100 0.134232
v 0.170845 0.035100 0.170845
v 0.134232 0.035100 0.200892
v 0.092461 0.035100 0.223220
v 0.047136 0.035100 0.236969
v 0.000000 0.035100 0.241611
v -0.047136 0.035100 0.236969
v -0.092461 0.035100 0.223220
v -0.134232 0.035100 0.200892
v -0.170845 0.035100 0.170845
v -0.200892 0.035100 0.134232
v -0.223220 0.035100 0.092461
v -0.236969 0.035100 0.047136
v -0.241611 0.035100 0.000000
v -0.236969 0.035100 -0.047136
v -0.223220 0.035100 -0.092461
v -0.200892 0.035100 -0.134232
v -0.170845 0.035100 -0.170845
v -0.134232 0.035100 -0.200892
v -0.092461 0.035100 -0.223220
v -0.047136 0.035100 -0.236969
v 0.047136 -0.033535 -0.236969
v 0.092461 -0.033535 -0.223220
v 0.134232 -0.033535 -0.200892
v 0.170845 -0.033535 -0.170845
v 0.200892 -0.033535 -0.134232
v 0.223220 -0.033535 -0.092461
v 0.236969 -0.033535 -0.047136
v 0.241611 -0.033535 0.000000
v 0.236969 -0.033535 0.047136
v 0.223220 -0.033535 0.092461
v 0.200892 -0.033535 0.134232
v 0.170845 -0.033535 0.170845
v 0.134232 -0.033535 0.200892
v 0.092461 -0.033535 0.223220
v 0.047136 -0.033535 0.236969
v 0.000000 -0.033535 0.241611
v -0.047136 -0.033535 0.236969
v -0.092461 -0.033535 0.223220
v -0.134232 -0.033535 0.200892
v -0.170845 -0.033535 0.170845
v -0.200892 -0.033535 0.134232
v -0.223220 -0.033535 0.092461
v -0.236969 -0.033535 0.047136
v -0.241611 -0.033535 0.000000
v -0.236969 -0.033535 -0.047136
v -0.223220 -0.033535 -0.092461
v -0.200892 -0.033535 -0.134232
v -0.170845 -0.033535 -0.170845
v -0.134232 -0.033535 -0.200892
v -0.092461 -0.033535 -0.223220
v -0.047136 -0.033535 -0.236969
v 0.000000 -0.033535 -0.241611
vn -0.0000 -0.6857 -0.7279
vn -0.0000 0.6857 -0.7279
vn 0.1420 -0.6857 -0.7139
vn 0.1420 0.6857 -0.7139
vn 0.2785 -0.6857 -0.6725
vn 0.2785 0.6857 -0.6725
vn 0.4044 -0.6857 -0.6052
vn 0.4044 0.6857 -0.6052
vn 0.5147 -0.6857 -0.5147
vn 0.5147 0.6857 -0.5147
vn 0.6052 -0.6857 -0.4044
vn 0.6052 0.6857 -0.4044
vn 0.6725 -0.6857 -0.2785
vn 0.6725 0.6857 -0.2785
vn 0.7139 -0.6857 -0.1420
vn 0.7139 0.6857 -0.1420
vn 0.7279 -0.6857 -0.0000
vn 0.7279 0.6857 -0.0000
vn 0.7139 -0.6857 0.1420
vn 0.7139 0.6857 0.1420
vn 0.6725 -0.6857 0.2785
vn 0.6725 0.6857 0.2785
vn 0.6052 -0.6857 0.4044
vn 0.6052 0.6857 0.4044
vn 0.5147 -0.6857 0.5147
vn 0.5147 0.6857 0.5147
vn 0.4044 -0.6857 0.6052
vn 0.4044 0.6857 0.6052
vn 0.2785 -0.6857 0.6725
vn 0.2785 0.6857 0.6725
vn 0.1420 -0.6857 0.7139
vn 0.1420 0.6857 0.7139
vn -0.0000 -0.6857 0.7279
vn -0.0000 0.6857 0.7279
vn -0.1420 -0.6857 0.7139
vn -0.1420 0.6857 0.7139
vn -0.2785 -0.6857 0.6725
vn -0.2785 0.6857 0.6725
vn -0.4044 -0.6857 0.6052
vn -0.4044 0.6857 0.6052
vn -0.5147 -0.6857 0.5147
vn -0.5147 0.6857 0.5147
vn -0.6052 -0.6857 0.4044
vn -0.6052 0.6857 0.4044
vn -0.6725 -0.6857 0.2785
vn -0.6725 0.6857 0.2785
vn -0.7139 -0.6857 0.1420
vn -0.7139 0.6857 0.1420
vn -0.7279 -0.6857 -0.0000
vn -0.7279 0.6857 -0.0000
vn -0.7139 -0.6857 -0.1420
vn -0.7139 0.6857 -0.1420
vn -0.6725 -0.6857 -0.2785
vn -0.6725 0.6857 -0.2785
vn -0.6052 -0.6857 -0.4044
vn -0.6052 0.6857 -0.4044
vn -0.5147 -0.6857 -0.5147
vn -0.5147 0.6857 -0.5147
vn -0.4044 -0.6857 -0.6052
vn -0.4044 0.6857 -0.6052
vn -0.2785 -0.6857 -0.6725
vn -0.2785 0.6857 -0.6725
vn -0.1420 -0.6857 -0.7139
vn -0.1420 0.6857 -0.7139
vn -0.0000 -0.0000 -1.0000
vn 0.1951 -0.0000 -0.9808
vn 0.3827 -0.0000 -0.9239
vn 0.5556 -0.0000 -0.8315
vn 0.7071 -0.0000 -0.7071
vn 0.8315 -0.0000 -0.5556
vn 0.9239 -0.0000 -0.3827
vn 0.9808 -0.0000 -0.1951
vn 1.0000 -0.0000 -0.0000
vn 0.9808 -0.0000 0.1951
vn 0.9239 -0.0000 0.3827
vn 0.8315 -0.0000 0.5556
vn 0.7071 -0.0000 0.7071
vn 0.5556 -0.0000 0.8315
vn 0.3827 -0.0000 0.9239
vn 0.1951 -0.0000 0.9808
vn -0.0000 -0.0000 1.0000
vn -0.1951 -0.0000 0.9808
vn -0.3827 -0.0000 0.9239
vn -0.5556 -0.0000 0.8315
vn -0.7071 -0.0000 0.7071
vn -0.8315 -0.0000 0.5556
vn -0.9239 -0.0000 0.3827
vn -0.9808 -0.0000 0.1951
vn -1.0000 -0.0000 -0.0000
vn -0.9808 -0.0000 -0.1951
vn -0.9239 -0.0000 -0.3827
vn -0.8315 -0.0000 -0.5556
vn -0.7071 -0.0000 -0.7071
vn -0.5556 -0.0000 -0.8315
vn -0.3827 -0.0000 -0.9239
vn -0.1951 -0.0000 -0.9808
vt 0.463077 0.441170
vt 0.433543 0.441170
vt 0.433543 0.416466
vt 0.463077 0.416466
vt 0.433543 0.391762
vt 0.463077 0.391762
vt 0.433543 0.367057
vt 0.463077 0.367057
vt 0.433543 0.342353
vt 0.463077 0.342353
vt 0.433543 0.317649
vt 0.463077 0.317648
vt 0.433543 0.292944
vt 0.463077 0.292944
vt 0.433543 0.268240
vt 0.463077 0.268240
vt 0.433543 0.243535
vt 0.463077 0.243535
vt 0.433543 0.218831
vt 0.463077 0.218831
vt 0.433543 0.194127
vt 0.463077 0.194127
vt 0.433543 0.169422
vt 0.463077 0.169422
vt 0.433543 0.144718
vt 0.463077 0.144718
vt 0.433543 0.120014
vt 0.463077 0.120014
vt 0.433543 0.095309
vt 0.463077 0.095309
vt 0.433543 0.070605
vt 0.463077 0.070605
vt 0.433543 0.045901
vt 0.463077 0.045901
vt 0.433543 0.021196
vt 0.463077 0.021196
vt 0.463077 0.811736
vt 0.433543 0.811736
vt 0.433543 0.787031
vt 0.463077 0.787031
vt 0.433543 0.762327
vt 0.463077 0.762327
vt 0.433543 0.737623
vt 0.463077 0.737622
vt 0.433543 0.712918
vt 0.463077 0.712918
vt 0.433543 0.688214
vt 0.463077 0.688214
vt 0.433543 0.663509
vt 0.463077 0.663509
vt 0.433543 0.638805
vt 0.463077 0.638805
vt 0.433543 0.614101
vt 0.463077 0.614101
vt 0.433543 0.589396
vt 0.463077 0.589396
vt 0.433543 0.564692
vt 0.463077 0.564692
vt 0.433543 0.539988
vt 0.463077 0.539988
vt 0.433543 0.515283
vt 0.463077 0.515283
vt 0.433543 0.490579
vt 0.463077 0.490579
vt 0.773444 0.537245
vt 0.755975 0.519776
vt 0.742250 0.499235
vt 0.732796 0.476411
vt 0.727976 0.452182
vt 0.727976 0.427477
vt 0.732796 0.403248
vt 0.742250 0.380424
vt 0.755975 0.359883
vt 0.773443 0.342414
vt 0.793984 0.328689
vt 0.816808 0.319235
vt 0.841038 0.314416
vt 0.865742 0.314416
vt 0.889972 0.319235
vt 0.912796 0.328689
vt 0.933337 0.342414
vt 0.950805 0.359883
vt 0.964530 0.380424
vt 0.973984 0.403248
vt 0.978804 0.427477
vt 0.978804 0.452182
vt 0.973984 0.476411
vt 0.964530 0.499235
vt 0.950805 0.519776
vt 0.933337 0.537245
vt 0.912796 0.550970
vt 0.889972 0.560424
vt 0.865742 0.565243
vt 0.841038 0.565243
vt 0.816808 0.560424
vt 0.793984 0.550970
vt 0.433543 0.465875
vt 0.463077 0.465875
vt 0.933337 0.049195
vt 0.950805 0.066663
vt 0.964530 0.087204
vt 0.973984 0.110028
vt 0.978804 0.134258
vt 0.978804 0.158962
vt 0.973984 0.183192
vt 0.964530 0.206016
vt 0.950805 0.226557
vt 0.933337 0.244025
vt 0.912796 0.257750
vt 0.889972 0.267204
vt 0.865742 0.272024
vt 0.841038 0.272024
vt 0.816808 0.267204
vt 0.793984 0.257750
vt 0.773444 0.244025
vt 0.755975 0.226556
vt 0.742250 0.206016
vt 0.732796 0.183192
vt 0.727976 0.158962
vt 0.727976 0.134258
vt 0.732796 0.110028
vt 0.742250 0.087204
vt 0.755975 0.066663
vt 0.773444 0.049195
vt 0.793984 0.035470
vt 0.816808 0.026016
vt 0.841038 0.021196
vt 0.865742 0.021196
vt 0.889972 0.026016
vt 0.912796 0.035470
vt 0.651748 0.465875
vt 0.651748 0.441170
vt 0.651748 0.490579
vt 0.651748 0.515283
vt 0.651748 0.539988
vt 0.651748 0.564692
vt 0.651748 0.589396
vt 0.651748 0.614101
vt 0.651748 0.638805
vt 0.651748 0.663509
vt 0.651748 0.688214
vt 0.651748 0.712918
vt 0.651748 0.737622
vt 0.651748 0.762327
vt 0.651748 0.787031
vt 0.651748 0.811736
vt 0.651748 0.045901
vt 0.651748 0.021196
vt 0.651748 0.070605
vt 0.651748 0.095309
vt 0.651748 0.120014
vt 0.651748 0.144718
vt 0.651748 0.169422
vt 0.651748 0.194127
vt 0.651748 0.218831
vt 0.651748 0.243535
vt 0.651748 0.268240
vt 0.651748 0.292944
vt 0.651748 0.317649
vt 0.651748 0.342353
vt 0.651748 0.367057
vt 0.651748 0.391762
vt 0.651748 0.416466
vt 0.685584 0.441170
vt 0.685584 0.416466
vt 0.685584 0.391762
vt 0.685584 0.367057
vt 0.685584 0.342353
vt 0.685584 0.317649
vt 0.685584 0.292944
vt 0.685584 0.268240
vt 0.685584 0.243535
vt 0.685584 0.218831
vt 0.685584 0.194127
vt 0.685584 0.169422
vt 0.685584 0.144718
vt 0.685584 0.120014
vt 0.685584 0.095309
vt 0.685584 0.070605
vt 0.685584 0.045901
vt 0.685584 0.021196
vt 0.685584 0.811736
vt 0.685584 0.787031
vt 0.685584 0.762327
vt 0.685584 0.737623
vt 0.685584 0.712918
vt 0.685584 0.688214
vt 0.685584 0.663509
vt 0.685584 0.638805
vt 0.685584 0.614101
vt 0.685584 0.589396
vt 0.685584 0.564692
vt 0.685584 0.539988
vt 0.685584 0.515283
vt 0.685584 0.490579
vt 0.685584 0.465875
s 1
usemtl reset
f 65/1/65 2/2/2 4/3/4 66/4/66
f 66/4/66 4/3/4 6/5/6 67/6/67
f 67/6/67 6/5/6 8/7/8 68/8/68
f 68/8/68 8/7/8 10/9/10 69/10/69
f 69/10/69 10/9/10 12/11/12 70/12/70
f 70/12/70 12/11/12 14/13/14 71/14/71
f 71/14/71 14/13/14 16/15/16 72/16/72
f 72/16/72 16/15/16 18/17/18 73/18/73
f 73/18/73 18/17/18 20/19/20 74/20/74
f 74/20/74 20/19/20 22/21/22 75/22/75
f 75/22/75 22/21/22 24/23/24 76/24/76
f 76/24/76 24/23/24 26/25/26 77/26/77
f 77/26/77 26/25/26 28/27/28 78/28/78
f 78/28/78 28/27/28 30/29/30 79/30/79
f 79/30/79 30/29/30 32/31/32 80/32/80
f 80/32/80 32/31/32 34/33/34 81/34/81
f 81/34/81 34/33/34 36/35/36 82/36/82
f 82/37/82 36/38/36 38/39/38 83/40/83
f 83/40/83 38/39/38 40/41/40 84/42/84
f 84/42/84 40/41/40 42/43/42 85/44/85
f 85/44/85 42/43/42 44/45/44 86/46/86
f 86/46/86 44/45/44 46/47/46 87/48/87
f 87/48/87 46/47/46 48/49/48 88/50/88
f 88/50/88 48/49/48 50/51/50 89/52/89
f 89/52/89 50/51/50 52/53/52 90/54/90
f 90/54/90 52/53/52 54/55/54 91/56/91
f 91/56/91 54/55/54 56/57/56 92/58/92
f 92/58/92 56/57/56 58/59/58 93/60/93
f 93/60/93 58/59/58 60/61/60 94/62/94
f 94/62/94 60/61/60 62/63/62 95/64/95
f 4/65/4 2/66/2 64/67/64 62/68/62 60/69/60 58/70/58 56/71/56 54/72/54 52/73/52 50/74/50 48/75/48 46/76/46 44/77/44 42/78/42 40/79/40 38/80/38 36/81/36 34/82/34 32/83/32 30/84/30 28/85/28 26/86/26 24/87/24 22/88/22 20/89/20 18/90/18 16/91/16 14/92/14 12/93/12 10/94/10 8/95/8 6/96/6
f 95/64/95 62/63/62 64/97/64 96/98/96
f 96/98/96 64/97/64 2/2/2 65/1/65
f 1/99/1 3/100/3 5/101/5 7/102/7 9/103/9 11/104/11 13/105/13 15/106/15 17/107/17 19/108/19 21/109/21 23/110/23 25/111/25 27/112/27 29/113/29 31/114/31 33/115/33 35/116/35 37/117/37 39/118/39 41/119/41 43/120/43 45/121/45 47/122/47 49/123/49 51/124/51 53/125/53 55/126/55 57/127/57 59/128/59 61/129/61 63/130/63
f 127/131/96 96/98/96 65/1/65 128/132/65
f 126/133/95 95/64/95 96/98/96 127/131/96
f 125/134/94 94/62/94 95/64/95 126/133/95
f 124/135/93 93/60/93 94/62/94 125/134/94
f 123/136/92 92/58/92 93/60/93 124/135/93
f 122/137/91 91/56/91 92/58/92 123/136/92
f 121/138/90 90/54/90 91/56/91 122/137/91
f 120/139/89 89/52/89 90/54/90 121/138/90
f 119/140/88 88/50/88 89/52/89 120/139/89
f 118/141/87 87/48/87 88/50/88 119/140/88
f 117/142/86 86/46/86 87/48/87 118/141/87
f 116/143/85 85/44/85 86/46/86 117/142/86
f 115/144/84 84/42/84 85/44/85 116/143/85
f 114/145/83 83/40/83 84/42/84 115/144/84
f 113/146/82 82/37/82 83/40/83 114/145/83
f 112/147/81 81/34/81 82/36/82 113/148/82
f 111/149/80 80/32/80 81/34/81 112/147/81
f 110/150/79 79/30/79 80/32/80 111/149/80
f 109/151/78 78/28/78 79/30/79 110/150/79
f 108/152/77 77/26/77 78/28/78 109/151/78
f 107/153/76 76/24/76 77/26/77 108/152/77
f 106/154/75 75/22/75 76/24/76 107/153/76
f 105/155/74 74/20/74 75/22/75 106/154/75
f 104/156/73 73/18/73 74/20/74 105/155/74
f 103/157/72 72/16/72 73/18/73 104/156/73
f 102/158/71 71/14/71 72/16/72 103/157/72
f 101/159/70 70/12/70 71/14/71 102/158/71
f 100/160/69 69/10/69 70/12/70 101/159/70
f 99/161/68 68/8/68 69/10/69 100/160/69
f 98/162/67 67/6/67 68/8/68 99/161/68
f 97/163/66 66/4/66 67/6/67 98/162/67
f 128/132/65 65/1/65 66/4/66 97/163/66
f 1/164/1 128/132/65 97/163/66 3/165/3
f 3/165/3 97/163/66 98/162/67 5/166/5
f 5/166/5 98/162/67 99/161/68 7/167/7
f 7/167/7 99/161/68 100/160/69 9/168/9
f 9/168/9 100/160/69 101/159/70 11/169/11
f 11/169/11 101/159/70 102/158/71 13/170/13
f 13/170/13 102/158/71 103/157/72 15/171/15
f 15/171/15 103/157/72 104/156/73 17/172/17
f 17/172/17 104/156/73 105/155/74 19/173/19
f 19/173/19 105/155/74 106/154/75 21/174/21
f 21/174/21 106/154/75 107/153/76 23/175/23
f 23/175/23 107/153/76 108/152/77 25/176/25
f 25/176/25 108/152/77 109/151/78 27/177/27
f 27/177/27 109/151/78 110/150/79 29/178/29
f 29/178/29 110/150/79 111/149/80 31/179/31
f 31/179/31 111/149/80 112/147/81 33/180/33
f 33/180/33 112/147/81 113/148/82 35/181/35
f 35/182/35 113/146/82 114/145/83 37/183/37
f 37/183/37 114/145/83 115/144/84 39/184/39
f 39/184/39 115/144/84 116/143/85 41/185/41
f 41/185/41 116/143/85 117/142/86 43/186/43
f 43/186/43 117/142/86 118/141/87 45/187/45
f 45/187/45 118/141/87 119/140/88 47/188/47
f 47/188/47 119/140/88 120/139/89 49/189/49
f 49/189/49 120/139/89 121/138/90 51/190/51
f 51/190/51 121/138/90 122/137/91 53/191/53
f 53/191/53 122/137/91 123/136/92 55/192/55
f 55/192/55 123/136/92 124/135/93 57/193/57
f 57/193/57 124/135/93 125/134/94 59/194/59
f 59/194/59 125/134/94 126/133/95 61/195/61
f 61/195/61 126/133/95 127/131/96 63/196/63
f 63/196/63 127/131/96 128/132/65 1/164/1
