# Blender 4.3.1
# www.blender.org
mtllib reset_button_1.mtl
o Cube.060
v -0.351033 -0.024666 0.450357
v -0.351033 0.024666 0.450357
v -0.351033 -0.024666 -0.450357
v -0.351033 0.024666 -0.450357
v 0.351033 -0.024666 0.450357
v 0.351033 0.024666 0.450357
v 0.351033 -0.024666 -0.450357
v 0.351033 0.024666 -0.450357
vn -1.0000 -0.0000 -0.0000
vn -0.0000 -0.0000 -1.0000
vn 1.0000 -0.0000 -0.0000
vn -0.0000 -0.0000 1.0000
vn -0.0000 -1.0000 -0.0000
vn -0.0000 1.0000 -0.0000
vt 0.043988 0.460139
vt 0.021196 0.460139
vt 0.021196 0.043988
vt 0.043988 0.043988
vt 0.043988 0.021196
vt 0.368358 0.021196
vt 0.368358 0.043988
vt 0.391150 0.043988
vt 0.391151 0.460139
vt 0.368358 0.460139
vt 0.368358 0.482931
vt 0.043988 0.482931
vt 0.368358 0.899081
vt 0.043988 0.899081
s 0
usemtl reset
f 1/1/1 2/2/1 4/3/1 3/4/1
f 3/4/2 4/5/2 8/6/2 7/7/2
f 7/7/3 8/8/3 6/9/3 5/10/3
f 5/10/4 6/11/4 2/12/4 1/1/4
f 3/4/5 7/7/5 5/10/5 1/1/5
f 8/13/6 4/14/6 2/12/6 6/11/6
