# Blender 4.3.0
# www.blender.org
mtllib TV_2.mtl
o Cube.003
v -0.770485 -1.075081 1.703676
v -1.093824 -0.751742 1.703676
v -0.932154 -1.031762 1.703676
v -1.050504 -0.913412 1.703676
v -1.093824 0.751742 1.703676
v -0.770485 1.075081 1.703676
v -1.050504 0.913412 1.703676
v -0.932154 1.031762 1.703676
v -0.832894 -1.162612 -0.567142
v -1.181355 -0.814151 -0.567142
v -1.007124 -1.115927 -0.567142
v -1.134670 -0.988382 -0.567142
v -1.181355 0.814152 -0.567142
v -0.832894 1.162612 -0.567142
v -1.134670 0.988382 -0.567142
v -1.007124 1.115927 -0.567142
v 1.056339 -0.751742 1.703676
v 0.733000 -1.075081 1.703676
v 1.013019 -0.913412 1.703676
v 0.894669 -1.031762 1.703676
v 0.733000 1.075081 1.703676
v 1.056339 0.751742 1.703676
v 0.894669 1.031762 1.703676
v 1.013019 0.913412 1.703676
v 1.143870 -0.814152 -0.567142
v 0.795409 -1.162612 -0.567142
v 1.097185 -0.988382 -0.567142
v 0.969639 -1.115927 -0.567142
v 0.795409 1.162612 -0.567142
v 1.143870 0.814151 -0.567142
v 0.969639 1.115927 -0.567142
v 1.097185 0.988382 -0.567142
v -0.962058 -0.618229 1.782016
v -0.636972 -0.943315 1.782016
v -0.918505 -0.780772 1.782016
v -0.799515 -0.899762 1.782016
v -0.636972 0.943315 1.782016
v -0.962058 0.618230 1.782016
v -0.799515 0.899762 1.782016
v -0.918504 0.780772 1.782016
v 0.924572 0.618229 1.782016
v 0.599487 0.943315 1.782016
v 0.881019 0.780772 1.782016
v 0.762030 0.899762 1.782016
v 0.599487 -0.943315 1.782016
v 0.924572 -0.618230 1.782016
v 0.762030 -0.899762 1.782016
v 0.881019 -0.780772 1.782016
v -0.831775 -1.162612 1.595153
v -1.006565 -1.115777 1.595153
v -1.134520 -0.987822 1.595153
v -1.181355 -0.813032 1.595153
v -0.831775 1.162612 1.595153
v -1.006565 1.115777 1.595153
v -1.134520 0.987822 1.595153
v -1.181355 0.813032 1.595153
v 0.794289 -1.162612 1.595153
v 0.969079 -1.115777 1.595153
v 1.097035 -0.987822 1.595153
v 1.143870 -0.813032 1.595153
v 0.794289 1.162612 1.595153
v 0.969079 1.115777 1.595153
v 1.097035 0.987822 1.595153
v 1.143870 0.813032 1.595153
vn -0.0796 -0.6229 0.7782
vn 0.0796 -0.6229 0.7782
vn 0.0202 -0.2689 0.9630
vn -0.0202 -0.2689 0.9630
vn 0.9293 -0.1323 0.3449
vn 0.9293 0.1323 0.3449
vn 0.6229 0.0796 0.7782
vn 0.6229 -0.0796 0.7782
vn 0.2689 0.0202 0.9630
vn 0.2689 -0.0202 0.9630
vn -0.0959 -0.7280 -0.6789
vn -0.3786 -0.6558 -0.6532
vn -0.6558 -0.3786 -0.6532
vn -0.7280 -0.0959 -0.6789
vn -0.7280 0.0959 -0.6789
vn -0.6558 0.3786 -0.6532
vn -0.3786 0.6558 -0.6532
vn -0.0959 0.7280 -0.6789
vn 0.0959 0.7280 -0.6789
vn 0.3786 0.6558 -0.6532
vn 0.6558 0.3786 -0.6532
vn 0.7280 0.0959 -0.6789
vn 0.7280 -0.0959 -0.6789
vn 0.6558 -0.3786 -0.6532
vn 0.3786 -0.6558 -0.6532
vn 0.0959 -0.7280 -0.6789
vn -0.9293 -0.1323 0.3449
vn -0.9293 0.1323 0.3449
vn 0.0796 0.6229 0.7782
vn -0.0796 0.6229 0.7782
vn -0.0202 0.2689 0.9630
vn 0.0202 0.2689 0.9630
vn 0.1084 -0.2123 0.9712
vn 0.2123 -0.1084 0.9712
vn 0.2122 0.1084 0.9712
vn 0.1084 0.2123 0.9712
vn -0.1084 0.2123 0.9712
vn -0.2123 0.1084 0.9712
vn -0.2689 0.0202 0.9630
vn -0.2689 -0.0202 0.9630
vn -0.2123 -0.1084 0.9712
vn -0.1084 -0.2123 0.9712
vn 0.1323 0.9293 0.3449
vn -0.1323 0.9293 0.3449
vn -0.6229 0.0796 0.7782
vn -0.6229 -0.0796 0.7782
vn -0.1323 -0.9293 0.3449
vn -0.2849 -0.5054 0.8145
vn -0.4717 -0.8024 0.3657
vn -0.5054 -0.2849 0.8145
vn -0.8024 -0.4717 0.3657
vn -0.4717 0.8024 0.3657
vn -0.8024 0.4717 0.3657
vn 0.1323 -0.9293 0.3449
vn 0.4717 -0.8024 0.3657
vn 0.8024 -0.4717 0.3657
vn 0.2849 0.5054 0.8145
vn 0.4717 0.8024 0.3657
vn 0.5054 0.2849 0.8145
vn 0.8024 0.4717 0.3657
vn -0.5054 0.2849 0.8145
vn -0.2849 0.5054 0.8145
vn 0.2849 -0.5054 0.8145
vn 0.5054 -0.2849 0.8145
vt 0.176701 0.037644
vt 0.823299 0.037644
vt 0.765879 0.094312
vt 0.234121 0.094312
vt 1.000000 0.150343
vt 1.000000 0.849657
vt 0.962356 0.823299
vt 0.962356 0.176702
vt 0.905687 0.765880
vt 0.905687 0.234120
vt 0.149861 0.000000
vt 0.074931 0.020078
vt 0.020078 0.074930
vt 0.000000 0.149861
vt 0.000000 0.850139
vt 0.020078 0.925069
vt 0.074931 0.979922
vt 0.149861 1.000000
vt 0.850139 1.000000
vt 0.925069 0.979922
vt 0.979922 0.925069
vt 1.000000 0.850138
vt 1.000000 0.149861
vt 0.979922 0.074930
vt 0.925069 0.020078
vt 0.850139 0.000000
vt 0.000000 0.150343
vt 0.000000 0.849657
vt 0.823299 0.962356
vt 0.176701 0.962356
vt 0.234121 0.905688
vt 0.765879 0.905688
vt 0.835784 0.113043
vt 0.886957 0.164217
vt 0.886957 0.835784
vt 0.835784 0.886957
vt 0.164216 0.886957
vt 0.113043 0.835784
vt 0.094312 0.765880
vt 0.094312 0.234121
vt 0.113043 0.164217
vt 0.164216 0.113043
vt 0.849657 1.000000
vt 0.150342 1.000000
vt 0.037644 0.823299
vt 0.037644 0.176702
vt 0.150342 0.000000
vt 0.107173 0.056274
vt 0.075171 0.020143
vt 0.056274 0.107173
vt 0.020142 0.075172
vt 0.075171 0.979858
vt 0.020142 0.924829
vt 0.849657 0.000000
vt 0.924828 0.020143
vt 0.979858 0.075172
vt 0.892827 0.943726
vt 0.924828 0.979858
vt 0.943725 0.892827
vt 0.979858 0.924829
vt 0.056274 0.892827
vt 0.107173 0.943726
vt 0.892827 0.056274
vt 0.943725 0.107173
s 1
f 1/1/1 18/2/2 45/3/3 34/4/4
f 60/5/5 64/6/6 22/7/7 17/8/8
f 17/8/8 22/7/7 41/9/9 46/10/10
f 9/11/11 11/12/12 12/13/13 10/14/14 13/15/15 15/16/16 16/17/17 14/18/18 29/19/19 31/20/20 32/21/21 30/22/22 25/23/23 27/24/24 28/25/25 26/26/26
f 52/27/27 56/28/28 13/15/15 10/14/14
f 21/29/29 6/30/30 37/31/31 42/32/32
f 45/3/3 47/33/33 48/34/34 46/10/10 41/9/9 43/35/35 44/36/36 42/32/32 37/31/31 39/37/37 40/38/38 38/39/39 33/40/40 35/41/41 36/42/42 34/4/4
f 61/43/43 53/44/44 6/30/30 21/29/29
f 5/45/45 2/46/46 33/40/40 38/39/39
f 49/47/47 1/1/1 3/48/48 50/49/49
f 50/49/49 3/48/48 4/50/50 51/51/51
f 51/51/51 4/50/50 2/46/46 52/27/27
f 53/44/44 14/18/18 16/17/17 54/52/52
f 54/52/52 16/17/17 15/16/16 55/53/53
f 55/53/53 15/16/16 13/15/15 56/28/28
f 57/54/54 26/26/26 28/25/25 58/55/55
f 58/55/55 28/25/25 27/24/24 59/56/56
f 59/56/56 27/24/24 25/23/23 60/5/5
f 61/43/43 21/29/29 23/57/57 62/58/58
f 62/58/58 23/57/57 24/59/59 63/60/60
f 63/60/60 24/59/59 22/7/7 64/6/6
f 5/45/45 38/39/39 40/38/38 7/61/61
f 7/61/61 40/38/38 39/37/37 8/62/62
f 8/62/62 39/37/37 37/31/31 6/30/30
f 41/9/9 22/7/7 24/59/59 43/35/35
f 43/35/35 24/59/59 23/57/57 44/36/36
f 44/36/36 23/57/57 21/29/29 42/32/32
f 45/3/3 18/2/2 20/63/63 47/33/33
f 47/33/33 20/63/63 19/64/64 48/34/34
f 48/34/34 19/64/64 17/8/8 46/10/10
f 1/1/1 34/4/4 36/42/42 3/48/48
f 3/48/48 36/42/42 35/41/41 4/50/50
f 4/50/50 35/41/41 33/40/40 2/46/46
f 49/47/47 57/54/54 18/2/2 1/1/1
f 9/11/11 26/26/26 57/54/54 49/47/47
f 32/21/21 63/60/60 64/6/6 30/22/22
f 31/20/20 62/58/58 63/60/60 32/21/21
f 29/19/19 61/43/43 62/58/58 31/20/20
f 19/64/64 59/56/56 60/5/5 17/8/8
f 20/63/63 58/55/55 59/56/56 19/64/64
f 18/2/2 57/54/54 58/55/55 20/63/63
f 7/61/61 55/53/53 56/28/28 5/45/45
f 8/62/62 54/52/52 55/53/53 7/61/61
f 6/30/30 53/44/44 54/52/52 8/62/62
f 12/13/13 51/51/51 52/27/27 10/14/14
f 11/12/12 50/49/49 51/51/51 12/13/13
f 9/11/11 49/47/47 50/49/49 11/12/12
f 29/19/19 14/18/18 53/44/44 61/43/43
f 2/46/46 5/45/45 56/28/28 52/27/27
f 25/23/23 30/22/22 64/6/6 60/5/5
