# Blender 4.3.0
# www.blender.org
mtllib TV_3.mtl
o Cube.044
v -2.309220 -2.092573 2.321504
v -3.302460 -1.463216 2.321504
v -2.805840 -2.008255 2.321504
v -3.169391 -1.777894 2.321504
v -3.302460 1.463216 2.321504
v -2.309220 2.092573 2.321504
v -3.169391 1.777894 2.321504
v -2.805840 2.008255 2.321504
v -2.500930 -2.262946 1.722961
v -3.571340 -1.584691 1.722961
v -3.036135 -2.172077 1.722961
v -3.427932 -1.923819 1.722961
v -3.571340 1.584691 1.722961
v -2.500930 2.262946 1.722961
v -3.427932 1.923819 1.722961
v -3.036135 2.172077 1.722961
v 3.302460 -1.463216 2.321504
v 2.309220 -2.092573 2.321504
v 3.169391 -1.777894 2.321504
v 2.805840 -2.008255 2.321504
v 2.309220 2.092573 2.321504
v 3.302460 1.463216 2.321504
v 2.805840 2.008255 2.321504
v 3.169391 1.777894 2.321504
v 3.571340 -1.584691 1.722961
v 2.500930 -2.262946 1.722961
v 3.427932 -1.923819 1.722961
v 3.036135 -2.172077 1.722961
v 2.500930 2.262946 1.722961
v 3.571340 1.584691 1.722961
v 3.036135 2.172077 1.722961
v 3.427932 1.923819 1.722961
v -2.897698 -1.203342 2.485613
v -1.899092 -1.836099 2.485613
v -2.763910 -1.519721 2.485613
v -2.398395 -1.751326 2.485613
v -1.899092 1.836099 2.485613
v -2.897698 1.203342 2.485613
v -2.398395 1.751326 2.485613
v -2.763910 1.519721 2.485613
v 2.897698 1.203342 2.485613
v 1.899092 1.836099 2.485613
v 2.763910 1.519721 2.485613
v 2.398395 1.751326 2.485613
v 1.899092 -1.836099 2.485613
v 2.897698 -1.203342 2.485613
v 2.398395 -1.751326 2.485613
v 2.763910 -1.519721 2.485613
v -2.497491 -2.262946 2.094165
v -3.034415 -2.171785 2.094165
v -3.427471 -1.922729 2.094165
v -3.571340 -1.582512 2.094165
v -2.497491 2.262946 2.094165
v -3.034415 2.171785 2.094165
v -3.427471 1.922729 2.094165
v -3.571340 1.582512 2.094165
v 2.497491 -2.262946 2.094165
v 3.034415 -2.171785 2.094165
v 3.427471 -1.922729 2.094165
v 3.571340 -1.582512 2.094165
v 2.497491 2.262946 2.094165
v 3.034415 2.171785 2.094165
v 3.427471 1.922729 2.094165
v 3.571340 1.582512 2.094165
v -3.035589 -2.171985 1.840739
v -3.427786 -1.923473 1.840739
v -3.571340 -1.584000 1.840739
v -2.499839 2.262946 1.840739
v 2.499839 -2.262946 1.840739
v 3.035589 2.171985 1.840739
v 3.427786 1.923473 1.840739
v 3.571340 1.584000 1.840739
v -2.499839 -2.262946 1.840739
v -3.035589 2.171985 1.840739
v -3.427786 1.923473 1.840739
v -3.571340 1.584000 1.840739
v 3.035589 -2.171985 1.840739
v 3.427786 -1.923473 1.840739
v 3.571340 -1.584000 1.840739
v 2.499839 2.262946 1.840739
vn -0.0528 -0.6518 0.7566
vn 0.0528 -0.6518 0.7566
vn 0.0137 -0.2877 0.9576
vn -0.0137 -0.2877 0.9576
vn 0.8615 -0.1932 0.4695
vn 0.8615 0.1932 0.4695
vn 0.4769 0.0962 0.8737
vn 0.4769 -0.0962 0.8737
vn 0.1870 0.0222 0.9821
vn 0.1870 -0.0222 0.9821
vn -0.0632 -0.7545 -0.6533
vn -0.2597 -0.7094 -0.6552
vn -0.5027 -0.4585 -0.7328
vn -0.5862 -0.1223 -0.8009
vn -0.5862 0.1223 -0.8009
vn -0.5027 0.4585 -0.7328
vn -0.2597 0.7094 -0.6552
vn -0.0632 0.7545 -0.6533
vn 0.0632 0.7545 -0.6533
vn 0.2597 0.7094 -0.6552
vn 0.5027 0.4585 -0.7328
vn 0.5862 0.1223 -0.8009
vn 0.5862 -0.1223 -0.8009
vn 0.5027 -0.4585 -0.7328
vn 0.2597 -0.7094 -0.6552
vn 0.0632 -0.7545 -0.6533
vn -0.9791 -0.2034 0.0012
vn -0.9791 0.2034 0.0012
vn 0.0528 0.6518 0.7566
vn -0.0528 0.6518 0.7566
vn -0.0137 0.2877 0.9576
vn 0.0137 0.2877 0.9576
vn 0.0739 -0.2283 0.9708
vn 0.1464 -0.1180 0.9822
vn 0.1464 0.1180 0.9822
vn 0.0739 0.2283 0.9708
vn -0.0739 0.2283 0.9708
vn -0.1464 0.1180 0.9822
vn -0.1870 0.0222 0.9821
vn -0.1870 -0.0222 0.9821
vn -0.1464 -0.1180 0.9822
vn -0.0739 -0.2283 0.9708
vn 0.0848 0.9418 0.3252
vn -0.0848 0.9418 0.3252
vn -0.4769 0.0962 0.8737
vn -0.4769 -0.0962 0.8737
vn -0.0848 -0.9418 0.3252
vn -0.1946 -0.5447 0.8157
vn -0.3242 -0.8707 0.3698
vn -0.3682 -0.3276 0.8701
vn -0.6581 -0.6102 0.4411
vn -0.8615 -0.1932 0.4695
vn -0.0831 0.9965 0.0008
vn -0.3436 0.9391 0.0024
vn -0.7392 0.6735 0.0029
vn 0.0831 -0.9965 0.0008
vn 0.3436 -0.9391 0.0024
vn 0.7392 -0.6735 0.0029
vn 0.9791 -0.2034 0.0012
vn 0.1946 0.5447 0.8157
vn 0.3242 0.8707 0.3698
vn 0.3682 0.3276 0.8701
vn 0.6581 0.6102 0.4411
vn -0.3682 0.3276 0.8701
vn -0.1946 0.5447 0.8157
vn 0.1946 -0.5447 0.8157
vn 0.3682 -0.3276 0.8701
vn 0.0848 -0.9418 0.3252
vn -0.0831 -0.9965 0.0008
vn 0.7392 0.6735 0.0029
vn 0.9791 0.2034 0.0012
vn 0.3436 0.9391 0.0023
vn 0.0831 0.9965 0.0008
vn 0.6581 -0.6102 0.4411
vn 0.3242 -0.8707 0.3698
vn -0.6581 0.6102 0.4411
vn -0.8615 0.1932 0.4695
vn -0.3242 0.8707 0.3698
vn -0.7392 -0.6735 0.0029
vn -0.3436 -0.9391 0.0023
vt 0.147416 -0.004237
vt 0.852584 -0.004237
vt 0.789963 0.057564
vt 0.210037 0.057564
vt 1.045291 0.118670
vt 1.045291 0.881330
vt 1.004237 0.852584
vt 1.004237 0.147416
vt 0.942436 0.789963
vt 0.942436 0.210037
vt 0.118145 -0.045291
vt 0.036427 -0.023394
vt -0.023394 0.036427
vt -0.045291 0.118145
vt -0.045291 0.881855
vt -0.023394 0.963573
vt 0.036427 1.023394
vt 0.118145 1.045291
vt 0.881855 1.045291
vt 0.963573 1.023394
vt 1.023395 0.963573
vt 1.045291 0.881855
vt 1.045291 0.118145
vt 1.023395 0.036427
vt 0.963573 -0.023394
vt 0.881855 -0.045291
vt -0.045291 0.118311
vt -0.045291 0.881689
vt 0.852584 1.004237
vt 0.147416 1.004237
vt 0.210037 0.942436
vt 0.789963 0.942436
vt 0.866199 0.077992
vt 0.922008 0.133800
vt 0.922008 0.866200
vt 0.866199 0.922008
vt 0.133801 0.922008
vt 0.077992 0.866200
vt 0.057564 0.789963
vt 0.057564 0.210037
vt 0.077992 0.133800
vt 0.133801 0.077992
vt 0.881330 1.045291
vt 0.118670 1.045291
vt -0.004237 0.852584
vt -0.004237 0.147416
vt 0.118670 -0.045291
vt 0.071590 0.016081
vt 0.036690 -0.023324
vt 0.016081 0.071590
vt -0.023324 0.036689
vt -0.045291 0.118670
vt 0.118312 1.045291
vt 0.036510 1.023372
vt -0.023372 0.963489
vt 0.881688 -0.045291
vt 0.963490 -0.023372
vt 1.023372 0.036510
vt 1.045291 0.118311
vt 0.928410 0.983919
vt 0.963310 1.023324
vt 0.983919 0.928410
vt 1.023324 0.963310
vt 0.016081 0.928410
vt 0.071590 0.983919
vt 0.928410 0.016081
vt 0.983919 0.071590
vt 0.881330 -0.045291
vt 0.118312 -0.045291
vt 1.023372 0.963489
vt 1.045291 0.881689
vt 0.963490 1.023372
vt 0.881688 1.045291
vt 1.023324 0.036689
vt 0.963310 -0.023324
vt -0.023324 0.963310
vt -0.045291 0.881330
vt 0.036690 1.023324
vt -0.023372 0.036510
vt 0.036510 -0.023372
s 1
usemtl Material.004
f 1/1/1 18/2/2 45/3/3 34/4/4
f 60/5/5 64/6/6 22/7/7 17/8/8
f 17/8/8 22/7/7 41/9/9 46/10/10
f 9/11/11 11/12/12 12/13/13 10/14/14 13/15/15 15/16/16 16/17/17 14/18/18 29/19/19 31/20/20 32/21/21 30/22/22 25/23/23 27/24/24 28/25/25 26/26/26
f 67/27/27 76/28/28 13/15/15 10/14/14
f 21/29/29 6/30/30 37/31/31 42/32/32
f 45/3/3 47/33/33 48/34/34 46/10/10 41/9/9 43/35/35 44/36/36 42/32/32 37/31/31 39/37/37 40/38/38 38/39/39 33/40/40 35/41/41 36/42/42 34/4/4
f 61/43/43 53/44/44 6/30/30 21/29/29
f 5/45/45 2/46/46 33/40/40 38/39/39
f 49/47/47 1/1/1 3/48/48 50/49/49
f 50/49/49 3/48/48 4/50/50 51/51/51
f 51/51/51 4/50/50 2/46/46 52/52/52
f 68/53/53 14/18/18 16/17/17 74/54/54
f 74/54/54 16/17/17 15/16/16 75/55/55
f 75/55/55 15/16/16 13/15/15 76/28/28
f 69/56/56 26/26/26 28/25/25 77/57/57
f 77/57/57 28/25/25 27/24/24 78/58/58
f 78/58/58 27/24/24 25/23/23 79/59/59
f 61/43/43 21/29/29 23/60/60 62/61/61
f 62/61/61 23/60/60 24/62/62 63/63/63
f 63/63/63 24/62/62 22/7/7 64/6/6
f 5/45/45 38/39/39 40/38/38 7/64/64
f 7/64/64 40/38/38 39/37/37 8/65/65
f 8/65/65 39/37/37 37/31/31 6/30/30
f 41/9/9 22/7/7 24/62/62 43/35/35
f 43/35/35 24/62/62 23/60/60 44/36/36
f 44/36/36 23/60/60 21/29/29 42/32/32
f 45/3/3 18/2/2 20/66/66 47/33/33
f 47/33/33 20/66/66 19/67/67 48/34/34
f 48/34/34 19/67/67 17/8/8 46/10/10
f 1/1/1 34/4/4 36/42/42 3/48/48
f 3/48/48 36/42/42 35/41/41 4/50/50
f 4/50/50 35/41/41 33/40/40 2/46/46
f 49/47/47 57/68/68 18/2/2 1/1/1
f 73/69/69 69/56/56 57/68/68 49/47/47
f 71/70/70 63/63/63 64/6/6 72/71/71
f 70/72/72 62/61/61 63/63/63 71/70/70
f 80/73/73 61/43/43 62/61/61 70/72/72
f 19/67/67 59/74/74 60/5/5 17/8/8
f 20/66/66 58/75/75 59/74/74 19/67/67
f 18/2/2 57/68/68 58/75/75 20/66/66
f 7/64/64 55/76/76 56/77/77 5/45/45
f 8/65/65 54/78/78 55/76/76 7/64/64
f 6/30/30 53/44/44 54/78/78 8/65/65
f 66/79/79 51/51/51 52/52/52 67/27/27
f 65/80/80 50/49/49 51/51/51 66/79/79
f 73/69/69 49/47/47 50/49/49 65/80/80
f 80/73/73 68/53/53 53/44/44 61/43/43
f 2/46/46 5/45/45 56/77/77 52/52/52
f 79/59/59 72/71/71 64/6/6 60/5/5
f 25/23/23 30/22/22 72/71/71 79/59/59
f 29/19/19 14/18/18 68/53/53 80/73/73
f 9/11/11 73/69/69 65/80/80 11/12/12
f 11/12/12 65/80/80 66/79/79 12/13/13
f 12/13/13 66/79/79 67/27/27 10/14/14
f 29/19/19 80/73/73 70/72/72 31/20/20
f 31/20/20 70/72/72 71/70/70 32/21/21
f 32/21/21 71/70/70 72/71/71 30/22/22
f 9/11/11 26/26/26 69/56/56 73/69/69
f 59/74/74 78/58/58 79/59/59 60/5/5
f 58/75/75 77/57/57 78/58/58 59/74/74
f 57/68/68 69/56/56 77/57/57 58/75/75
f 55/76/76 75/55/55 76/28/28 56/77/77
f 54/78/78 74/54/54 75/55/55 55/76/76
f 53/44/44 68/53/53 74/54/54 54/78/78
f 52/52/52 56/77/77 76/28/28 67/27/27
