# Blender 4.3.1
# www.blender.org
mtllib TV_3.mtl
o Cube.044
v -2.309220 -2.092573 2.321504
v -3.302460 -1.463216 2.321504
v -2.805840 -2.008255 2.321504
v -3.169391 -1.777894 2.321504
v -3.302460 1.463216 2.321504
v -2.309220 2.092573 2.321504
v -3.169391 1.777894 2.321504
v -2.805840 2.008255 2.321504
v -2.500930 -2.262946 1.722961
v -3.571340 -1.584691 1.722961
v -3.036135 -2.172077 1.722961
v -3.427932 -1.923819 1.722961
v -3.571340 1.584691 1.722961
v -2.500930 2.262946 1.722961
v -3.427932 1.923819 1.722961
v -3.036135 2.172077 1.722961
v 3.302460 -1.463216 2.321504
v 2.309220 -2.092573 2.321504
v 3.169391 -1.777894 2.321504
v 2.805840 -2.008255 2.321504
v 2.309220 2.092573 2.321504
v 3.302460 1.463216 2.321504
v 2.805840 2.008255 2.321504
v 3.169391 1.777894 2.321504
v 3.571340 -1.584691 1.722961
v 2.500930 -2.262946 1.722961
v 3.427932 -1.923819 1.722961
v 3.036135 -2.172077 1.722961
v 2.500930 2.262946 1.722961
v 3.571340 1.584691 1.722961
v 3.036135 2.172077 1.722961
v 3.427932 1.923819 1.722961
v -2.897698 -1.203342 2.485613
v -1.899092 -1.836099 2.485613
v -2.763910 -1.519721 2.485613
v -2.398395 -1.751326 2.485613
v -1.899092 1.836099 2.485613
v -2.897698 1.203342 2.485613
v -2.398395 1.751326 2.485613
v -2.763910 1.519721 2.485613
v 2.897698 1.203342 2.485613
v 1.899092 1.836099 2.485613
v 2.763910 1.519721 2.485613
v 2.398395 1.751326 2.485613
v 1.899092 -1.836099 2.485613
v 2.897698 -1.203342 2.485613
v 2.398395 -1.751326 2.485613
v 2.763910 -1.519721 2.485613
v -2.497491 -2.262946 2.094165
v -3.034415 -2.171785 2.094165
v -3.427471 -1.922729 2.094165
v -3.571340 -1.582512 2.094165
v -2.497491 2.262946 2.094165
v -3.034415 2.171785 2.094165
v -3.427471 1.922729 2.094165
v -3.571340 1.582512 2.094165
v 2.497491 -2.262946 2.094165
v 3.034415 -2.171785 2.094165
v 3.427471 -1.922729 2.094165
v 3.571340 -1.582512 2.094165
v 2.497491 2.262946 2.094165
v 3.034415 2.171785 2.094165
v 3.427471 1.922729 2.094165
v 3.571340 1.582512 2.094165
v -3.035589 -2.171985 1.840739
v -3.427786 -1.923473 1.840739
v -3.571340 -1.584000 1.840739
v -2.499839 2.262946 1.840739
v 2.499839 -2.262946 1.840739
v 3.035589 2.171985 1.840739
v 3.427786 1.923473 1.840739
v 3.571340 1.584000 1.840739
v -2.499839 -2.262946 1.840739
v -3.035589 2.171985 1.840739
v -3.427786 1.923473 1.840739
v -3.571340 1.584000 1.840739
v 3.035589 -2.171985 1.840739
v 3.427786 -1.923473 1.840739
v 3.571340 -1.584000 1.840739
v 2.499839 2.262946 1.840739
vn -0.0528 -0.6518 0.7566
vn -0.4769 -0.0962 0.8737
vn -0.1946 -0.5447 0.8157
vn -0.3682 -0.3276 0.8701
vn -0.4769 0.0962 0.8737
vn -0.0528 0.6518 0.7566
vn -0.3682 0.3276 0.8701
vn -0.1946 0.5447 0.8157
vn -0.0632 -0.7545 -0.6533
vn -0.5861 -0.1223 -0.8009
vn -0.2597 -0.7094 -0.6552
vn -0.5027 -0.4585 -0.7329
vn -0.5861 0.1223 -0.8009
vn -0.0632 0.7545 -0.6533
vn -0.5027 0.4585 -0.7329
vn -0.2597 0.7094 -0.6552
vn 0.4769 -0.0962 0.8737
vn 0.0528 -0.6518 0.7566
vn 0.3682 -0.3276 0.8701
vn 0.1946 -0.5447 0.8157
vn 0.0528 0.6518 0.7566
vn 0.4769 0.0962 0.8737
vn 0.1946 0.5447 0.8157
vn 0.3682 0.3276 0.8701
vn 0.5861 -0.1223 -0.8009
vn 0.0632 -0.7545 -0.6533
vn 0.5027 -0.4585 -0.7329
vn 0.2597 -0.7094 -0.6552
vn 0.0632 0.7545 -0.6533
vn 0.5861 0.1223 -0.8009
vn 0.2597 0.7094 -0.6552
vn 0.5027 0.4585 -0.7329
vn -0.1870 -0.0222 0.9821
vn -0.0137 -0.2877 0.9576
vn -0.1464 -0.1180 0.9822
vn -0.0739 -0.2283 0.9708
vn -0.0137 0.2877 0.9576
vn -0.1870 0.0222 0.9821
vn -0.0739 0.2283 0.9708
vn -0.1464 0.1180 0.9822
vn 0.1870 0.0222 0.9821
vn 0.0137 0.2877 0.9576
vn 0.1464 0.1180 0.9822
vn 0.0739 0.2283 0.9708
vn 0.0137 -0.2877 0.9576
vn 0.1870 -0.0222 0.9821
vn 0.0739 -0.2283 0.9708
vn 0.1464 -0.1180 0.9822
vn -0.0848 -0.9418 0.3252
vn -0.3242 -0.8707 0.3698
vn -0.6581 -0.6102 0.4411
vn -0.8615 -0.1932 0.4695
vn -0.0848 0.9418 0.3252
vn -0.3242 0.8707 0.3698
vn -0.6581 0.6102 0.4411
vn -0.8615 0.1932 0.4695
vn 0.0848 -0.9418 0.3252
vn 0.3242 -0.8707 0.3698
vn 0.6581 -0.6102 0.4411
vn 0.8615 -0.1932 0.4695
vn 0.0848 0.9418 0.3252
vn 0.3242 0.8707 0.3698
vn 0.6581 0.6102 0.4411
vn 0.8615 0.1932 0.4695
vn -0.3436 -0.9391 0.0023
vn -0.7392 -0.6735 0.0029
vn -0.9791 -0.2034 0.0012
vn -0.0831 0.9965 0.0008
vn 0.0831 -0.9965 0.0008
vn 0.3436 0.9391 0.0023
vn 0.7392 0.6735 0.0029
vn 0.9791 0.2034 0.0012
vn -0.0831 -0.9965 0.0008
vn -0.3436 0.9391 0.0023
vn -0.7392 0.6735 0.0029
vn -0.9791 0.2034 0.0012
vn 0.3436 -0.9391 0.0023
vn 0.7392 -0.6735 0.0029
vn 0.9791 -0.2034 0.0012
vn 0.0831 0.9965 0.0008
vt 0.162595 0.750000
vt 0.337405 0.750000
vt 0.331922 0.750000
vt 0.168078 0.750000
vt 0.412586 0.732482
vt 0.587414 0.732482
vt 0.587405 0.750000
vt 0.412595 0.750000
vt 0.581922 0.750000
vt 0.418078 0.750000
vt 0.375000 0.287465
vt 0.380019 0.268733
vt 0.393733 0.255019
vt 0.412465 0.250000
vt 0.587535 0.250000
vt 0.606267 0.255019
vt 0.619981 0.268733
vt 0.625000 0.287465
vt 0.625000 0.462535
vt 0.619981 0.481267
vt 0.606267 0.494981
vt 0.587535 0.500000
vt 0.412465 0.500000
vt 0.393733 0.494981
vt 0.380019 0.481267
vt 0.375000 0.462535
vt 0.412503 0.176236
vt 0.587497 0.176236
vt 0.662595 0.750000
vt 0.837405 0.750000
vt 0.831922 0.750000
vt 0.668078 0.750000
vt 0.375000 0.793078
vt 0.380771 0.771539
vt 0.396539 0.755771
vt 0.603461 0.755771
vt 0.619229 0.771539
vt 0.625000 0.793078
vt 0.625000 0.956922
vt 0.619229 0.978461
vt 0.603461 0.994229
vt 0.581923 1.000000
vt 0.418078 1.000000
vt 0.396539 0.994229
vt 0.380771 0.978461
vt 0.375000 0.956923
vt 0.662586 0.732482
vt 0.837414 0.732482
vt 0.587405 0.000000
vt 0.412595 0.000000
vt 0.418078 0.000000
vt 0.581923 0.000000
vt 0.162586 0.732482
vt 0.143797 0.750000
vt 0.143793 0.732482
vt 0.125000 0.750000
vt 0.125000 0.732482
vt 0.375000 0.017518
vt 0.375000 0.000000
vt 0.412586 0.017518
vt 0.837497 0.573764
vt 0.837535 0.500000
vt 0.875000 0.500000
vt 0.875000 0.573764
vt 0.625000 0.176236
vt 0.625000 0.250000
vt 0.606267 0.250000
vt 0.606248 0.176236
vt 0.337497 0.573764
vt 0.337535 0.500000
vt 0.356267 0.500000
vt 0.356636 0.573764
vt 0.393733 0.500000
vt 0.393364 0.573764
vt 0.412503 0.573764
vt 0.642484 0.750000
vt 0.642571 0.732482
vt 0.607516 0.750000
vt 0.607429 0.732482
vt 0.605735 0.000000
vt 0.608830 0.000000
vt 0.625000 0.000000
vt 0.875000 0.750000
vt 0.605735 0.750000
vt 0.644265 0.750000
vt 0.357516 0.750000
vt 0.355735 0.750000
vt 0.392484 0.750000
vt 0.394265 0.750000
vt 0.144265 0.750000
vt 0.141170 0.750000
vt 0.337414 0.732482
vt 0.162503 0.573764
vt 0.606636 0.573764
vt 0.587497 0.573764
vt 0.643364 0.573764
vt 0.662503 0.573764
vt 0.392571 0.732482
vt 0.357429 0.732482
vt 0.606203 0.000000
vt 0.606207 0.017518
vt 0.587414 0.017518
vt 0.625000 0.017518
vt 0.875000 0.732482
vt 0.375000 0.176236
vt 0.143752 0.573764
vt 0.125000 0.573764
vt 0.662465 0.500000
vt 0.162465 0.500000
vt 0.143733 0.500000
vt 0.125000 0.500000
vt 0.375000 0.250000
vt 0.643733 0.500000
vt 0.606267 0.500000
s 1
usemtl Material.004
f 1/1/1 18/2/18 45/3/45 34/4/34
f 60/5/60 64/6/64 22/7/22 17/8/17
f 17/8/17 22/7/22 41/9/41 46/10/46
f 9/11/9 11/12/11 12/13/12 10/14/10 13/15/13 15/16/15 16/17/16 14/18/14 29/19/29 31/20/31 32/21/32 30/22/30 25/23/25 27/24/27 28/25/28 26/26/26
f 67/27/67 76/28/76 13/15/13 10/14/10
f 21/29/21 6/30/6 37/31/37 42/32/42
f 45/33/45 47/34/47 48/35/48 46/10/46 41/9/41 43/36/43 44/37/44 42/38/42 37/39/37 39/40/39 40/41/40 38/42/38 33/43/33 35/44/35 36/45/36 34/46/34
f 61/47/61 53/48/53 6/30/6 21/29/21
f 5/49/5 2/50/2 33/51/33 38/52/38
f 49/53/49 1/1/1 3/54/3 50/55/50
f 50/55/50 3/54/3 4/56/4 51/57/51
f 51/58/51 4/59/4 2/50/2 52/60/52
f 68/61/68 14/62/14 16/63/16 74/64/74
f 74/65/74 16/66/16 15/67/15 75/68/75
f 75/68/75 15/67/15 13/15/13 76/28/76
f 69/69/69 26/70/26 28/71/28 77/72/77
f 77/72/77 28/71/28 27/73/27 78/74/78
f 78/74/78 27/73/27 25/23/25 79/75/79
f 61/47/61 21/29/21 23/76/23 62/77/62
f 62/77/62 23/76/23 24/78/24 63/79/63
f 63/79/63 24/78/24 22/7/22 64/6/64
f 5/49/5 38/52/38 40/80/40 7/81/7
f 7/81/7 40/80/40 39/82/39 8/82/8
f 8/83/8 39/83/39 37/31/37 6/30/6
f 41/9/41 22/7/22 24/78/24 43/84/43
f 43/84/43 24/78/24 23/76/23 44/85/44
f 44/85/44 23/76/23 21/29/21 42/32/42
f 45/3/45 18/2/18 20/86/20 47/87/47
f 47/87/47 20/86/20 19/88/19 48/89/48
f 48/89/48 19/88/19 17/8/17 46/10/46
f 1/1/1 34/4/34 36/90/36 3/91/3
f 3/91/3 36/90/36 35/56/35 4/56/4
f 4/59/4 35/59/35 33/51/33 2/50/2
f 49/53/49 57/92/57 18/2/18 1/1/1
f 73/93/73 69/69/69 57/92/57 49/53/49
f 71/94/71 63/79/63 64/6/64 72/95/72
f 70/96/70 62/77/62 63/79/63 71/94/71
f 80/97/80 61/47/61 62/77/62 70/96/70
f 19/88/19 59/98/59 60/5/60 17/8/17
f 20/86/20 58/99/58 59/98/59 19/88/19
f 18/2/18 57/92/57 58/99/58 20/86/20
f 7/100/7 55/101/55 56/102/56 5/49/5
f 8/82/8 54/103/54 55/101/55 7/100/7
f 6/30/6 53/48/53 54/104/54 8/83/8
f 66/105/66 51/58/51 52/60/52 67/27/67
f 65/106/65 50/55/50 51/57/51 66/107/66
f 73/93/73 49/53/49 50/55/50 65/106/65
f 80/97/80 68/61/68 53/48/53 61/47/61
f 2/50/2 5/49/5 56/102/56 52/60/52
f 79/75/79 72/95/72 64/6/64 60/5/60
f 25/23/25 30/22/30 72/95/72 79/75/79
f 29/108/29 14/62/14 68/61/68 80/97/80
f 9/109/9 73/93/73 65/106/65 11/110/11
f 11/110/11 65/106/65 66/107/66 12/111/12
f 12/112/12 66/105/66 67/27/67 10/14/10
f 29/108/29 80/97/80 70/96/70 31/113/31
f 31/113/31 70/96/70 71/94/71 32/114/32
f 32/114/32 71/94/71 72/95/72 30/22/30
f 9/109/9 26/70/26 69/69/69 73/93/73
f 59/98/59 78/74/78 79/75/79 60/5/60
f 58/99/58 77/72/77 78/74/78 59/98/59
f 57/92/57 69/69/69 77/72/77 58/99/58
f 55/101/55 75/68/75 76/28/76 56/102/56
f 54/103/54 74/65/74 75/68/75 55/101/55
f 53/48/53 68/61/68 74/64/74 54/104/54
f 52/60/52 56/102/56 76/28/76 67/27/67
