# Blender 4.3.2
# www.blender.org
mtllib valve_1.mtl
o Cylinder.008
v 0.000000 -0.029518 -0.004574
v 0.023078 -0.018404 -0.004574
v 0.028778 0.006568 -0.004574
v 0.012807 0.026595 -0.004574
v -0.012807 0.026595 -0.004574
v -0.028778 0.006568 -0.004574
v -0.023078 -0.018404 -0.004574
v 0.000000 -0.029518 -0.009548
v 0.023078 -0.018404 -0.009548
v 0.028778 0.006568 -0.009548
v 0.012807 0.026595 -0.009548
v -0.012807 0.026595 -0.009548
v -0.028778 0.006568 -0.009548
v -0.023078 -0.018404 -0.009548
v 0.000000 -0.014204 -0.011597
v 0.011105 -0.008856 -0.011597
v 0.013848 0.003161 -0.011597
v 0.006163 0.012797 -0.011597
v -0.006163 0.012797 -0.011597
v -0.013848 0.003161 -0.011597
v -0.011105 -0.008856 -0.011597
v 0.000000 -0.026281 0.016424
v 0.000000 -0.029518 0.013507
v 0.020547 -0.016386 0.016424
v 0.023078 -0.018404 0.013507
v 0.025622 0.005848 0.016424
v 0.028778 0.006568 0.013507
v 0.011403 0.023679 0.016424
v 0.012807 0.026595 0.013507
v -0.011403 0.023679 0.016424
v -0.012807 0.026595 0.013507
v -0.025622 0.005848 0.016424
v -0.028778 0.006568 0.013507
v -0.020547 -0.016386 0.016424
v -0.023078 -0.018404 0.013507
v 0.000000 -0.014204 -0.075668
v 0.011105 -0.008856 -0.075668
v 0.013848 0.003161 -0.075668
v 0.006163 0.012797 -0.075668
v -0.006163 0.012797 -0.075668
v -0.013848 0.003161 -0.075668
v -0.011105 -0.008856 -0.075668
v 0.000000 -0.028075 -0.080765
v 0.021950 -0.017505 -0.080765
v 0.027371 0.006247 -0.080765
v 0.012181 0.025295 -0.080765
v -0.012181 0.025295 -0.080765
v -0.027371 0.006247 -0.080765
v -0.021950 -0.017505 -0.080765
v 0.000000 -0.028075 -0.113479
v 0.021950 -0.017505 -0.113479
v 0.027371 0.006247 -0.113479
v 0.012181 0.025295 -0.113479
v -0.012181 0.025295 -0.113479
v -0.027371 0.006247 -0.113479
v -0.021950 -0.017505 -0.113479
v 0.000000 -0.048090 -0.115511
v 0.037598 -0.029984 -0.115511
v 0.046885 0.010701 -0.115511
v 0.020865 0.043328 -0.115511
v -0.020866 0.043328 -0.115511
v -0.046885 0.010701 -0.115511
v -0.037598 -0.029984 -0.115511
v 0.000000 -0.048090 -0.181753
v 0.037598 -0.029984 -0.181753
v 0.046885 0.010701 -0.181753
v 0.020865 0.043328 -0.181753
v -0.020866 0.043328 -0.181753
v -0.046885 0.010701 -0.181753
v -0.037598 -0.029984 -0.181753
vn -0.4339 -0.9010 -0.0000
vn 0.7818 0.6235 -0.0000
vn -0.0000 1.0000 -0.0000
vn -0.7818 0.6235 -0.0000
vn -0.9749 -0.2225 -0.0000
vn 0.9749 -0.2225 -0.0000
vn 0.4339 -0.9010 -0.0000
vn -0.0637 -0.1323 -0.9892
vn -0.1148 0.0916 -0.9892
vn 0.1148 0.0916 -0.9892
vn 0.0637 -0.1323 -0.9892
vn -0.1432 -0.0327 -0.9892
vn -0.0000 0.1468 -0.9892
vn 0.1432 -0.0327 -0.9892
vn 0.3068 -0.6371 0.7071
vn 0.6894 -0.1573 0.7071
vn 0.5528 0.4409 0.7071
vn -0.0000 0.7071 0.7071
vn -0.5528 0.4409 0.7071
vn -0.6894 -0.1573 0.7071
vn -0.3068 -0.6371 0.7071
vn -0.0000 -0.0000 1.0000
vn -0.3682 -0.0840 0.9260
vn -0.0000 0.3776 0.9260
vn 0.3682 -0.0840 0.9260
vn -0.1638 -0.3402 0.9260
vn -0.2952 0.2354 0.9260
vn 0.2952 0.2354 0.9260
vn 0.1638 -0.3402 0.9260
vn -0.0000 0.1120 0.9937
vn 0.1092 -0.0249 0.9937
vn -0.0486 -0.1009 0.9937
vn -0.0875 0.0698 0.9937
vn 0.0875 0.0698 0.9937
vn 0.0486 -0.1009 0.9937
vn -0.1092 -0.0249 0.9937
vn -0.0000 -0.0000 -1.0000
vt 0.142857 0.569444
vt 0.142857 1.000000
vt 0.000000 1.000000
vt 0.000000 0.569444
vt 0.714286 0.569444
vt 0.714286 1.000000
vt 0.571429 1.000000
vt 0.571429 0.569444
vt 0.428571 1.000000
vt 0.428571 0.569444
vt 0.285714 1.000000
vt 0.285714 0.569444
vt 0.857143 0.569444
vt 0.857143 1.000000
vt 1.000000 0.569444
vt 1.000000 1.000000
vt 0.864976 0.500000
vt 0.992167 0.500000
vt 0.722118 0.500000
vt 0.849310 0.500000
vt 0.579261 0.500000
vt 0.706453 0.500000
vt 0.436404 0.500000
vt 0.563596 0.500000
vt 0.293547 0.500000
vt 0.420739 0.500000
vt 0.150690 0.500000
vt 0.277882 0.500000
vt 0.007833 0.500000
vt 0.135024 0.500000
vt 0.750000 0.463682
vt 0.917063 0.383229
vt 0.958324 0.202451
vt 0.842713 0.057479
vt 0.657287 0.057479
vt 0.541676 0.202451
vt 0.582937 0.383228
vt 0.437640 0.399638
vt 0.250000 0.490000
vt 0.062360 0.399638
vt 0.016017 0.196595
vt 0.145868 0.033767
vt 0.354132 0.033767
vt 0.483983 0.196595
s 1
f 35/1/1 7/2/1 1/3/1 23/4/1
f 27/5/2 3/6/2 4/7/2 29/8/2
f 29/8/3 4/7/3 5/9/3 31/10/3
f 31/10/4 5/9/4 6/11/4 33/12/4
f 33/12/5 6/11/5 7/2/5 35/1/5
f 1/3/1 7/2/1 14/2/1 8/3/1
f 25/13/6 2/14/6 3/6/6 27/5/6
f 23/15/7 1/16/7 2/14/7 25/13/7
f 8/3/8 14/2/8 21/2/8 15/3/8
f 3/6/6 2/14/6 9/14/6 10/6/6
f 6/11/4 5/9/4 12/9/4 13/11/4
f 2/14/7 1/16/7 8/16/7 9/14/7
f 4/7/2 3/6/2 10/6/2 11/7/2
f 7/2/5 6/11/5 13/11/5 14/2/5
f 5/9/3 4/7/3 11/7/3 12/9/3
f 21/2/5 20/11/5 41/11/5 42/2/5
f 13/11/9 12/9/9 19/9/9 20/11/9
f 11/7/10 10/6/10 17/6/10 18/7/10
f 9/14/11 8/16/11 15/16/11 16/14/11
f 14/2/12 13/11/12 20/11/12 21/2/12
f 12/9/13 11/7/13 18/7/13 19/9/13
f 10/6/14 9/14/14 16/14/14 17/6/14
f 23/15/15 25/13/15 24/17/15 22/18/15
f 25/13/16 27/5/16 26/19/16 24/20/16
f 27/5/17 29/8/17 28/21/17 26/22/17
f 29/8/18 31/10/18 30/23/18 28/24/18
f 31/10/19 33/12/19 32/25/19 30/26/19
f 33/12/20 35/1/20 34/27/20 32/28/20
f 35/1/21 23/4/21 22/29/21 34/30/21
f 22/31/22 24/32/22 26/33/22 28/34/22 30/35/22 32/36/22 34/37/22
f 42/2/23 41/11/23 48/11/23 49/2/23
f 19/9/3 18/7/3 39/7/3 40/9/3
f 17/6/6 16/14/6 37/14/6 38/6/6
f 15/3/1 21/2/1 42/2/1 36/3/1
f 20/11/4 19/9/4 40/9/4 41/11/4
f 18/7/2 17/6/2 38/6/2 39/7/2
f 16/14/7 15/16/7 36/16/7 37/14/7
f 43/3/1 49/2/1 56/2/1 50/3/1
f 40/9/24 39/7/24 46/7/24 47/9/24
f 38/6/25 37/14/25 44/14/25 45/6/25
f 36/3/26 42/2/26 49/2/26 43/3/26
f 41/11/27 40/9/27 47/9/27 48/11/27
f 39/7/28 38/6/28 45/6/28 46/7/28
f 37/14/29 36/16/29 43/16/29 44/14/29
f 54/9/30 53/7/30 60/7/30 61/9/30
f 48/11/4 47/9/4 54/9/4 55/11/4
f 46/7/2 45/6/2 52/6/2 53/7/2
f 44/14/7 43/16/7 50/16/7 51/14/7
f 49/2/5 48/11/5 55/11/5 56/2/5
f 47/9/3 46/7/3 53/7/3 54/9/3
f 45/6/6 44/14/6 51/14/6 52/6/6
f 58/14/7 57/16/7 64/16/7 65/14/7
f 52/6/31 51/14/31 58/14/31 59/6/31
f 50/3/32 56/2/32 63/2/32 57/3/32
f 55/11/33 54/9/33 61/9/33 62/11/33
f 53/7/34 52/6/34 59/6/34 60/7/34
f 51/14/35 50/16/35 57/16/35 58/14/35
f 56/2/36 55/11/36 62/11/36 63/2/36
f 65/38/37 64/39/37 70/40/37 69/41/37 68/42/37 67/43/37 66/44/37
f 63/2/5 62/11/5 69/11/5 70/2/5
f 61/9/3 60/7/3 67/7/3 68/9/3
f 59/6/6 58/14/6 65/14/6 66/6/6
f 57/3/1 63/2/1 70/2/1 64/3/1
f 62/11/4 61/9/4 68/9/4 69/11/4
f 60/7/2 59/6/2 66/6/2 67/7/2
