# Blender 4.3.0
# www.blender.org
mtllib book.mtl
o book
v 0.307608 -0.076925 0.500000
v 0.347886 -0.076925 0.459722
v 0.323022 -0.076925 0.496934
v 0.336089 -0.076925 0.488203
v 0.344820 -0.076925 0.475136
v 0.347886 0.076924 0.459722
v 0.307608 0.076924 0.500000
v 0.344820 0.076924 0.475136
v 0.336089 0.076924 0.488203
v 0.323022 0.076924 0.496934
v 0.307608 -0.076925 -0.500000
v 0.347886 -0.076925 -0.459722
v 0.323022 -0.076925 -0.496934
v 0.336089 -0.076925 -0.488203
v 0.344820 -0.076925 -0.475136
v 0.307608 0.076924 -0.500000
v 0.347886 0.076924 -0.459722
v 0.323022 0.076924 -0.496934
v 0.336089 0.076924 -0.488203
v 0.344820 0.076924 -0.475136
v -0.347886 -0.042925 0.500000
v -0.313886 -0.076925 0.500000
v -0.343331 -0.059925 0.500000
v -0.330886 -0.072369 0.500000
v -0.313886 0.076924 0.500000
v -0.347886 0.042924 0.500000
v -0.330886 0.072369 0.500000
v -0.343331 0.059924 0.500000
v -0.347886 0.042924 -0.500000
v -0.313886 0.076924 -0.500000
v -0.343331 0.059924 -0.500000
v -0.330886 0.072369 -0.500000
v -0.313886 -0.076925 -0.500000
v -0.347886 -0.042925 -0.500000
v -0.330886 -0.072369 -0.500000
v -0.343331 -0.059925 -0.500000
v 0.307608 -0.066925 0.500000
v 0.347886 -0.066925 0.459722
v 0.323022 -0.066925 0.496934
v 0.336089 -0.066925 0.488203
v 0.344820 -0.066925 0.475136
v 0.347886 0.066924 0.459722
v 0.307608 0.066924 0.500000
v 0.344820 0.066924 0.475136
v 0.336089 0.066924 0.488203
v 0.323022 0.066924 0.496934
v 0.307608 -0.066925 -0.500000
v 0.347886 -0.066925 -0.459722
v 0.323022 -0.066925 -0.496934
v 0.336089 -0.066925 -0.488203
v 0.344820 -0.066925 -0.475136
v 0.307608 0.066924 -0.500000
v 0.347886 0.066924 -0.459722
v 0.323022 0.066924 -0.496934
v 0.336089 0.066924 -0.488203
v 0.344820 0.066924 -0.475136
v -0.337971 -0.041619 0.500000
v -0.312580 -0.067010 0.500000
v -0.334670 -0.054925 0.500000
v -0.325886 -0.063709 0.500000
v -0.312580 0.067010 0.500000
v -0.337971 0.041619 0.500000
v -0.325886 0.063709 0.500000
v -0.334670 0.054924 0.500000
v -0.337971 0.041619 -0.500000
v -0.312580 0.067010 -0.500000
v -0.334670 0.054924 -0.500000
v -0.325886 0.063709 -0.500000
v -0.312580 -0.067010 -0.500000
v -0.337971 -0.041619 -0.500000
v -0.325886 -0.063709 -0.500000
v -0.334670 -0.054925 -0.500000
vn -0.0000 -1.0000 -0.0000
vn -0.0000 1.0000 -0.0000
vn -1.0000 -0.0001 -0.0000
vn -0.9659 -0.2588 -0.0000
vn -0.7071 -0.7071 -0.0000
vn -0.5000 -0.8660 -0.0000
vn -0.0001 -1.0000 -0.0000
vn -0.0001 1.0000 -0.0000
vn -0.5000 0.8660 -0.0000
vn -0.7071 0.7071 -0.0000
vn -0.9659 0.2588 -0.0000
vn -1.0000 0.0001 -0.0000
vn -1.0000 -0.0000 -0.0000
vn 0.9375 0.2326 0.2588
vn 0.9706 0.2408 -0.0000
vn 0.9375 0.2326 -0.2588
vn 0.7071 0.7071 -0.0000
vn 0.2408 0.9706 -0.0000
vn 0.2326 0.9375 0.2588
vn 0.2326 0.9375 -0.2588
vn 0.2326 -0.9375 0.2588
vn 0.2408 -0.9706 -0.0000
vn 0.2326 -0.9375 -0.2588
vn 0.7071 -0.7071 -0.0000
vn 0.9706 -0.2408 -0.0000
vn 0.9375 -0.2326 0.2588
vn 0.9375 -0.2326 -0.2588
vn 1.0000 -0.0000 -0.0000
vn 0.9952 -0.0000 0.0980
vn 0.9952 -0.0000 -0.0980
vn 0.9239 -0.0000 0.3827
vn 0.7071 -0.0000 0.7071
vn 0.3827 -0.0000 0.9239
vn 0.0980 -0.0000 0.9952
vn 0.3827 -0.0000 -0.9239
vn 0.0980 -0.0000 -0.9952
vn 0.7071 -0.0000 -0.7071
vn 0.9239 -0.0000 -0.3827
vn -0.0392 -0.1245 0.9914
vn -0.0000 -0.0000 1.0000
vn 0.0606 0.1156 0.9914
vn -0.0000 -0.0000 -1.0000
vn -0.1183 0.0552 -0.9914
vn 0.1221 -0.0462 -0.9914
vn 0.0552 -0.1183 0.9914
vn -0.0462 0.1221 0.9914
vn -0.1245 -0.0392 -0.9914
vn 0.1156 0.0606 -0.9914
vn -0.1245 0.0392 0.9914
vn 0.1156 -0.0606 0.9914
vn 0.0552 0.1183 -0.9914
vn -0.0462 -0.1221 -0.9914
vn -0.1183 -0.0552 0.9914
vn 0.1221 0.0462 0.9914
vn -0.0392 0.1245 -0.9914
vn 0.0606 -0.1156 -0.9914
vt 0.000000 0.040278
vt 0.001987 0.024864
vt 0.007647 0.011797
vt 0.016118 0.003066
vt 0.026109 0.000000
vt 0.428979 0.000000
vt 0.428979 1.000000
vt 0.026109 1.000000
vt 0.016118 0.996934
vt 0.007647 0.988203
vt 0.001987 0.975136
vt 0.000000 0.959722
vt 0.571021 0.000000
vt 0.973891 0.000000
vt 0.983882 0.003066
vt 0.992353 0.011797
vt 0.998013 0.024864
vt 1.000000 0.040278
vt 1.000000 0.959722
vt 0.998013 0.975136
vt 0.992353 0.988203
vt 0.983882 0.996934
vt 0.973891 1.000000
vt 0.571021 1.000000
vt 0.472668 0.000000
vt 0.472668 1.000000
vt 0.461843 1.000000
vt 0.461843 0.000000
vt 0.439999 1.000000
vt 0.439999 0.000000
vt 0.560001 1.000000
vt 0.560001 0.000000
vt 0.538157 1.000000
vt 0.538157 0.000000
vt 0.527332 1.000000
vt 0.527332 0.000000
s 1
usemtl book_cover
f 2/1/1 5/2/1 4/3/1 3/4/1 1/5/1 22/6/1 33/7/1 11/8/1 13/9/1 14/10/1 15/11/1 12/12/1
f 25/13/2 7/14/2 10/15/2 9/16/2 8/17/2 6/18/2 17/19/2 20/20/2 19/21/2 18/22/2 16/23/2 30/24/2
f 21/25/3 34/26/3 36/27/4 23/28/4
f 23/28/5 36/27/5 35/29/6 24/30/6
f 24/30/6 35/29/6 33/7/7 22/6/7
f 25/13/8 30/24/8 32/31/9 27/32/9
f 27/32/9 32/31/9 31/33/10 28/34/10
f 28/34/11 31/33/11 29/35/12 26/36/12
f 21/25/13 26/36/13 29/35/13 34/26/13
f 38/1/8 48/12/8 51/11/8 50/10/8 49/9/8 47/8/8 69/7/8 58/6/8 37/5/8 39/4/8 40/3/8 41/2/8
f 61/13/7 66/24/7 52/23/7 54/22/7 55/21/7 56/20/7 53/19/7 42/18/7 44/17/7 45/16/7 46/15/7 43/14/7
f 57/25/14 59/28/15 72/27/15 70/26/16
f 59/28/17 60/30/17 71/29/17 72/27/17
f 60/30/18 58/6/19 69/7/20 71/29/18
f 61/13/21 63/32/22 68/31/22 66/24/23
f 63/32/24 64/34/24 67/33/24 68/31/24
f 64/34/25 62/36/26 65/35/27 67/33/25
f 57/25/28 70/26/28 65/35/28 62/36/28
f 2/1/29 12/12/30 48/12/30 38/1/29
f 5/2/31 2/1/29 38/1/29 41/2/31
f 4/3/32 5/2/31 41/2/31 40/3/32
f 3/4/33 4/3/32 40/3/32 39/4/33
f 1/5/34 3/4/33 39/4/33 37/5/34
f 13/9/35 11/8/36 47/8/36 49/9/35
f 14/10/37 13/9/35 49/9/35 50/10/37
f 15/11/38 14/10/37 50/10/37 51/11/38
f 12/12/30 15/11/38 51/11/38 48/12/30
f 10/15/33 7/14/34 43/14/34 46/15/33
f 9/16/32 10/15/33 46/15/33 45/16/32
f 8/17/31 9/16/32 45/16/32 44/17/31
f 6/18/29 8/17/31 44/17/31 42/18/29
f 17/19/30 6/18/29 42/18/29 53/19/30
f 20/20/38 17/19/30 53/19/30 56/20/38
f 19/21/37 20/20/38 56/20/38 55/21/37
f 18/22/35 19/21/37 55/21/37 54/22/35
f 16/23/36 18/22/35 54/22/35 52/23/36
f 21/25/39 23/28/40 59/28/40 57/25/41
f 36/27/42 34/26/43 70/26/44 72/27/42
f 23/28/40 24/30/40 60/30/40 59/28/40
f 35/29/42 36/27/42 72/27/42 71/29/42
f 24/30/40 22/6/45 58/6/46 60/30/40
f 33/7/47 35/29/42 71/29/42 69/7/48
f 25/13/49 27/32/40 63/32/40 61/13/50
f 32/31/42 30/24/51 66/24/52 68/31/42
f 27/32/40 28/34/40 64/34/40 63/32/40
f 31/33/42 32/31/42 68/31/42 67/33/42
f 28/34/40 26/36/53 62/36/54 64/34/40
f 29/35/55 31/33/42 67/33/42 65/35/56
f 26/36/53 21/25/39 57/25/41 62/36/54
f 34/26/43 29/35/55 65/35/56 70/26/44
f 22/6/45 1/5/34 37/5/34 58/6/46
f 11/8/36 33/7/47 69/7/48 47/8/36
f 7/14/34 25/13/49 61/13/50 43/14/34
f 30/24/51 16/23/36 52/23/36 66/24/52
o book_pages
v -0.333148 -0.065003 0.480207
v -0.333148 0.065003 0.480207
v -0.333148 -0.065003 -0.480207
v -0.333148 0.065003 -0.480207
v 0.278999 -0.065003 0.480207
v 0.278999 0.065003 0.480207
v 0.278999 -0.065003 -0.480207
v 0.278999 0.065003 -0.480207
v -0.338988 -0.043336 0.480207
v -0.343284 -0.021668 0.480207
v -0.344956 0.000000 0.480207
v -0.343284 0.021668 0.480207
v -0.338988 0.043336 0.480207
v -0.338988 0.043336 -0.480207
v -0.343284 0.021668 -0.480207
v -0.344956 -0.000000 -0.480207
v -0.343284 -0.021668 -0.480207
v -0.338988 -0.043336 -0.480207
v 0.273159 0.043336 -0.480207
v 0.268863 0.021668 -0.480207
v 0.267191 -0.000000 -0.480207
v 0.268863 -0.021668 -0.480207
v 0.273159 -0.043336 -0.480207
v 0.273159 0.043336 0.480207
v 0.268863 0.021668 0.480207
v 0.267191 -0.000000 0.480207
v 0.268863 -0.021668 0.480207
v 0.273159 -0.043336 0.480207
vn -0.9655 0.2603 -0.0000
vn -0.0000 -0.0000 -1.0000
vn 0.9655 -0.2603 -0.0000
vn -0.0000 -0.0000 1.0000
vn -0.0000 -1.0000 -0.0000
vn -0.0000 1.0000 -0.0000
vn 0.9655 0.2603 -0.0000
vn 0.9809 0.1945 -0.0000
vn 0.9970 0.0769 -0.0000
vn 0.9970 -0.0769 -0.0000
vn 0.9809 -0.1945 -0.0000
vn -0.9655 -0.2603 -0.0000
vn -0.9809 -0.1945 -0.0000
vn -0.9970 -0.0769 -0.0000
vn -0.9970 0.0769 -0.0000
vn -0.9809 0.1945 -0.0000
vt 0.064206 0.789577
vt 0.072451 0.937910
vt 0.072451 0.937909
vt 0.064206 0.789576
vt 0.936649 0.937909
vt 0.928404 0.789576
vt 0.936649 0.937910
vt 0.928404 0.789577
vt 0.072451 0.047915
vt 0.936649 0.047915
vt 0.936649 0.047916
vt 0.072451 0.047916
vt 0.928404 0.196248
vt 0.064206 0.196248
vt 0.922339 0.344580
vt 0.058141 0.344580
vt 0.919979 0.492912
vt 0.055781 0.492912
vt 0.922339 0.641245
vt 0.058141 0.641245
vt 0.928404 0.196247
vt 0.922339 0.344579
vt 0.919979 0.492912
vt 0.922339 0.641244
vt 0.064206 0.196247
vt 0.058141 0.344579
vt 0.055781 0.492912
vt 0.058141 0.641244
s 0
f 85/37/57 74/38/57 76/39/57 86/40/57
f 86/40/58 76/39/58 80/41/58 91/42/58
f 91/42/59 80/41/59 78/43/59 96/44/59
f 96/44/60 78/43/60 74/38/60 85/37/60
f 75/45/61 79/46/61 77/47/61 73/48/61
f 80/41/62 76/39/62 74/38/62 78/43/62
f 77/47/60 100/49/60 81/50/60 73/48/60
f 100/49/60 99/51/60 82/52/60 81/50/60
f 99/51/60 98/53/60 83/54/60 82/52/60
f 98/53/60 97/55/60 84/56/60 83/54/60
f 97/55/60 96/44/60 85/37/60 84/56/60
f 79/46/63 95/57/63 100/49/63 77/47/63
f 95/57/64 94/58/64 99/51/64 100/49/64
f 94/58/65 93/59/65 98/53/65 99/51/65
f 93/59/66 92/60/66 97/55/66 98/53/66
f 92/60/67 91/42/67 96/44/67 97/55/67
f 75/45/58 90/61/58 95/57/58 79/46/58
f 90/61/58 89/62/58 94/58/58 95/57/58
f 89/62/58 88/63/58 93/59/58 94/58/58
f 88/63/58 87/64/58 92/60/58 93/59/58
f 87/64/58 86/40/58 91/42/58 92/60/58
f 73/48/68 81/50/68 90/61/68 75/45/68
f 81/50/69 82/52/69 89/62/69 90/61/69
f 82/52/70 83/54/70 88/63/70 89/62/70
f 83/54/71 84/56/71 87/64/71 88/63/71
f 84/56/72 85/37/72 86/40/72 87/64/72
