# Blender 4.3.2
# www.blender.org
mtllib ceil_export.mtl
o ceil_export
v -4.205636 3.357013 -5.020749
v -4.205636 3.518780 -5.020749
v -3.916764 3.357013 -5.493281
v -3.916764 3.518780 -5.493281
v -2.483609 3.518780 -4.800263
v -2.483609 3.357013 -4.800263
v -4.589898 3.518780 -4.770770
v -4.589898 3.357013 -4.770770
v -2.483609 3.357013 -5.552267
v -2.483609 3.518780 -5.552267
v -2.483609 3.357013 -5.079735
v -2.483609 3.518780 -5.079735
v -3.134339 3.357013 -5.552267
v -3.134339 3.518780 -5.079735
v -3.134339 3.518780 -5.552267
v -3.134339 3.357013 -5.079735
v -3.134339 3.518780 -4.833970
v -3.134339 3.357013 -4.833970
v -2.483609 3.518781 -4.388463
v -2.483609 3.357014 -4.388463
v -4.921142 3.518781 -4.384249
v -4.921142 3.357014 -4.384249
v -3.134339 3.518781 -4.388463
v -3.134339 3.357014 -4.388463
v -2.483609 3.518781 -2.821119
v -2.483609 3.357014 -2.821119
v -5.202954 3.518781 -3.014930
v -5.202954 3.357014 -3.014930
v -3.134339 3.518781 -2.821119
v -3.134339 3.357014 -2.821119
v -4.205636 3.078937 -5.020749
v -3.916764 3.078937 -5.493281
v -4.589898 3.078937 -4.770770
v -3.402303 3.078937 -5.552267
v -3.402303 3.078937 -5.079734
v -3.402303 3.078937 -4.833970
v -4.921142 3.078937 -4.384249
v -3.402303 3.078937 -4.388463
v -5.202954 3.078937 -3.014930
v -3.402303 3.078937 -2.821119
v -2.483609 3.543391 -1.287547
v -2.483609 3.381623 -1.287547
v -5.476615 3.543391 -1.452236
v -5.476615 3.381623 -1.452236
v -3.233267 3.543391 -1.287547
v -3.233267 3.381623 -1.287547
v -5.476615 3.103547 -1.452236
v -3.501232 3.103547 -1.287547
v -3.328263 3.405201 0.595781
v -3.596228 3.127125 0.595781
v -5.571612 3.405201 0.431092
v -5.571612 3.566968 0.431092
v -2.483609 3.405201 0.595781
v -2.483609 3.566968 0.595781
v -3.328263 3.566968 0.595781
v -5.571612 3.127125 0.431092
v -0.761582 3.357013 -5.020749
v -0.761582 3.518780 -5.020749
v -1.050454 3.357013 -5.493281
v -1.050454 3.518780 -5.493281
v -0.377320 3.518780 -4.770770
v -0.377320 3.357013 -4.770770
v -1.832879 3.357013 -5.552267
v -1.832879 3.518780 -5.079735
v -1.832879 3.518780 -5.552267
v -1.832879 3.357013 -5.079735
v -1.832879 3.518780 -4.833970
v -1.832879 3.357013 -4.833970
v -0.046076 3.518781 -4.384249
v -0.046076 3.357014 -4.384249
v -1.832879 3.518781 -4.388463
v -1.832879 3.357014 -4.388463
v 0.235736 3.518781 -3.014930
v 0.235736 3.357014 -3.014930
v -1.832879 3.518781 -2.821119
v -1.832879 3.357014 -2.821119
v -0.761582 3.078937 -5.020749
v -1.050454 3.078937 -5.493281
v -0.377320 3.078937 -4.770770
v -1.564915 3.078937 -5.552267
v -1.564915 3.078937 -5.079734
v -1.564915 3.078937 -4.833970
v -0.046076 3.078937 -4.384249
v -1.564915 3.078937 -4.388463
v 0.235736 3.078937 -3.014930
v -1.564915 3.078937 -2.821119
v 0.509397 3.543391 -1.452236
v 0.509397 3.381623 -1.452236
v -1.733951 3.543391 -1.287547
v -1.733951 3.381623 -1.287547
v 0.509397 3.103547 -1.452236
v -1.465986 3.103547 -1.287547
v -1.638955 3.405201 0.595781
v -1.370990 3.127125 0.595781
v 0.604394 3.405201 0.431092
v 0.604394 3.566968 0.431092
v -1.638955 3.566968 0.595781
v 0.604394 3.127125 0.431092
vn -0.8532 -0.0000 -0.5216
vn -0.0000 1.0000 -0.0000
vn -0.0015 -0.9999 0.0157
vn -0.0013 -0.9999 0.0141
vn -0.5453 -0.0000 -0.8382
vn 0.7201 -0.6939 -0.0000
vn -0.0000 -1.0000 -0.0000
vn -0.0000 -0.0000 -1.0000
vn -0.0752 -0.0000 -0.9972
vn -0.7593 -0.0000 -0.6507
vn -0.0000 0.9999 -0.0160
vn 0.0006 0.9999 -0.0159
vn 0.0006 0.9999 -0.0142
vn -0.0000 0.9999 -0.0143
vn -0.9850 -0.0000 -0.1725
vn -0.9795 -0.0000 -0.2016
vn -0.0905 0.0436 -0.9949
vn -0.0010 -0.9999 0.0125
vn -0.9987 -0.0000 -0.0504
vn 0.0005 0.9999 -0.0125
vn -0.0000 0.9999 -0.0125
vn 0.0013 0.9999 -0.0157
vn 0.0011 0.9999 -0.0141
vn 0.7189 -0.6927 0.0575
vn 0.7191 -0.6930 0.0513
vn 0.7189 -0.6927 0.0574
vn -0.0000 -0.9999 0.0160
vn -0.0000 -0.9999 0.0143
vn -0.0000 -0.9999 0.0142
vn -0.0778 0.0375 0.9963
vn -0.0732 -0.0000 0.9973
vn -0.0000 -0.0000 1.0000
vn 0.0009 0.9999 -0.0125
vn -0.0000 -0.9999 0.0125
vn 0.7193 -0.6932 0.0450
vn 0.8532 -0.0000 -0.5216
vn 0.0015 -0.9999 0.0157
vn 0.0013 -0.9999 0.0141
vn 0.5453 -0.0000 -0.8382
vn -0.7201 -0.6939 -0.0000
vn 0.0752 -0.0000 -0.9972
vn 0.7593 -0.0000 -0.6507
vn -0.0006 0.9999 -0.0142
vn -0.0006 0.9999 -0.0159
vn 0.9850 -0.0000 -0.1725
vn 0.9795 -0.0000 -0.2016
vn 0.0905 0.0436 -0.9949
vn 0.0010 -0.9999 0.0125
vn 0.9987 -0.0000 -0.0504
vn -0.0005 0.9999 -0.0125
vn -0.0011 0.9999 -0.0141
vn -0.0013 0.9999 -0.0157
vn -0.7189 -0.6927 0.0575
vn -0.7189 -0.6927 0.0574
vn -0.7191 -0.6930 0.0513
vn 0.0778 0.0375 0.9963
vn 0.0732 -0.0000 0.9973
vn -0.0009 0.9999 -0.0125
vn -0.7193 -0.6932 0.0450
vt 0.375000 0.000000
vt 0.625000 0.000000
vt 0.625000 0.250000
vt 0.375000 0.250000
vt 0.750000 0.750000
vt 0.812500 0.750000
vt 0.125000 0.750000
vt 0.187500 0.750000
vt 0.875000 0.750000
vt 0.812500 0.500000
vt 0.875000 0.500000
vt 0.187500 0.500000
vt 0.250000 0.500000
vt 0.250000 0.750000
vt 0.375000 0.312500
vt 0.625000 0.312500
vt 0.625000 0.375000
vt 0.375000 0.375000
vt 0.750000 0.500000
vt 0.125000 0.500000
vt 0.375000 0.937500
vt 0.375000 1.000000
vt 0.625000 0.937500
vt 0.625000 1.000000
vt 0.375000 0.875000
vt 0.625000 0.875000
s 1
usemtl Material.005
f 1/1/1 2/2/1 4/3/1 3/4/1
f 5/5/2 17/6/2 23/6/2 19/5/2
f 39/7/3 40/8/3 48/8/4 47/7/4
f 14/6/2 2/9/2 7/9/2 17/6/2
f 2/2/5 1/1/5 8/1/5 7/2/5
f 15/10/2 4/11/2 2/9/2 14/6/2
f 16/8/6 18/8/6 36/8/6 35/8/6
f 13/12/7 9/13/7 11/14/7 16/8/7
f 16/8/7 11/14/7 6/14/7 18/8/7
f 13/15/8 15/16/8 10/17/8 9/18/8
f 3/4/9 4/3/9 15/16/9 13/15/9
f 24/8/6 30/8/6 40/8/6 38/8/6
f 10/19/2 15/10/2 14/6/2 12/5/2
f 12/5/2 14/6/2 17/6/2 5/5/2
f 13/12/6 16/8/6 35/8/6 34/12/6
f 24/8/7 20/14/7 26/14/7 30/8/7
f 18/8/7 6/14/7 20/14/7 24/8/7
f 7/2/10 8/1/10 22/1/10 21/2/10
f 17/6/2 7/9/2 21/9/2 23/6/2
f 25/5/11 29/6/12 45/6/13 41/5/14
f 28/1/15 39/1/15 47/1/15 44/1/15
f 19/5/2 23/6/2 29/6/2 25/5/2
f 21/2/16 22/1/16 28/1/16 27/2/16
f 23/6/2 21/9/2 27/9/2 29/6/2
f 31/7/7 35/8/7 36/8/7 33/7/7
f 33/7/7 36/8/7 38/8/7 37/7/7
f 32/20/7 34/12/7 35/8/7 31/7/7
f 37/7/7 38/8/7 40/8/7 39/7/7
f 18/8/6 24/8/6 38/8/6 36/8/6
f 8/1/5 1/1/5 31/1/5 33/1/5
f 28/1/16 22/1/16 37/1/16 39/1/16
f 1/1/1 3/4/1 32/4/1 31/1/1
f 22/1/10 8/1/10 33/1/10 37/1/10
f 3/4/17 13/15/17 34/15/17 32/4/17
f 47/7/4 48/8/4 50/8/18 56/7/18
f 43/2/19 44/1/19 51/1/19 52/2/19
f 41/5/14 45/6/13 55/6/20 54/5/21
f 27/2/15 28/1/15 44/1/15 43/2/15
f 29/6/12 27/9/22 43/9/23 45/6/13
f 40/8/24 30/8/24 46/8/25 48/8/26
f 30/8/27 26/14/27 42/14/28 46/8/29
f 49/21/30 51/22/30 56/22/30 50/21/30
f 49/21/31 55/23/31 52/24/31 51/22/31
f 53/25/32 54/26/32 55/23/32 49/21/32
f 45/6/13 43/9/23 52/9/33 55/6/20
f 46/8/29 42/14/28 53/14/34 49/8/34
f 48/8/26 46/8/25 49/8/35 50/8/35
f 44/1/19 47/1/19 56/1/19 51/1/19
f 57/1/36 59/4/36 60/3/36 58/2/36
f 5/5/2 19/5/2 71/6/2 67/6/2
f 85/7/37 91/7/38 92/8/38 86/8/37
f 64/6/2 67/6/2 61/9/2 58/9/2
f 58/2/39 61/2/39 62/1/39 57/1/39
f 65/10/2 64/6/2 58/9/2 60/11/2
f 66/8/40 81/8/40 82/8/40 68/8/40
f 63/12/7 66/8/7 11/14/7 9/13/7
f 66/8/7 68/8/7 6/14/7 11/14/7
f 63/15/8 9/18/8 10/17/8 65/16/8
f 59/4/41 63/15/41 65/16/41 60/3/41
f 72/8/40 84/8/40 86/8/40 76/8/40
f 10/19/2 12/5/2 64/6/2 65/10/2
f 12/5/2 5/5/2 67/6/2 64/6/2
f 63/12/40 80/12/40 81/8/40 66/8/40
f 72/8/7 76/8/7 26/14/7 20/14/7
f 68/8/7 72/8/7 20/14/7 6/14/7
f 61/2/42 69/2/42 70/1/42 62/1/42
f 67/6/2 71/6/2 69/9/2 61/9/2
f 25/5/11 41/5/14 89/6/43 75/6/44
f 74/1/45 88/1/45 91/1/45 85/1/45
f 19/5/2 25/5/2 75/6/2 71/6/2
f 69/2/46 73/2/46 74/1/46 70/1/46
f 71/6/2 75/6/2 73/9/2 69/9/2
f 77/7/7 79/7/7 82/8/7 81/8/7
f 79/7/7 83/7/7 84/8/7 82/8/7
f 78/20/7 77/7/7 81/8/7 80/12/7
f 83/7/7 85/7/7 86/8/7 84/8/7
f 68/8/40 82/8/40 84/8/40 72/8/40
f 62/1/39 79/1/39 77/1/39 57/1/39
f 74/1/46 85/1/46 83/1/46 70/1/46
f 57/1/36 77/1/36 78/4/36 59/4/36
f 70/1/42 83/1/42 79/1/42 62/1/42
f 59/4/47 78/4/47 80/15/47 63/15/47
f 91/7/38 98/7/48 94/8/48 92/8/38
f 87/2/49 96/2/49 95/1/49 88/1/49
f 41/5/14 54/5/21 97/6/50 89/6/43
f 73/2/45 87/2/45 88/1/45 74/1/45
f 75/6/44 89/6/43 87/9/51 73/9/52
f 86/8/53 92/8/54 90/8/55 76/8/53
f 76/8/27 90/8/29 42/14/28 26/14/27
f 93/21/56 94/21/56 98/22/56 95/22/56
f 93/21/57 95/22/57 96/24/57 97/23/57
f 53/25/32 93/21/32 97/23/32 54/26/32
f 89/6/43 97/6/50 96/9/58 87/9/51
f 90/8/29 93/8/34 53/14/34 42/14/28
f 92/8/54 94/8/59 93/8/59 90/8/55
f 88/1/49 95/1/49 98/1/49 91/1/49
