# Blender 4.3.2
# www.blender.org
mtllib cocpit_export.mtl
o cocpit_export
v -2.973002 0.078479 -5.080107
v -2.973002 1.098050 -5.080107
v -2.973002 0.078479 -5.327932
v -2.973002 1.098050 -5.327932
v -4.018597 1.098050 -5.311359
v -4.018597 0.078479 -5.311359
v -3.955398 1.098050 -5.067047
v -3.955398 0.078479 -5.067047
v -2.483609 0.078479 -5.315994
v -2.483609 1.098050 -5.315994
v -2.483609 0.078479 -5.076597
v -2.483609 1.098050 -5.076597
v -4.796753 1.098050 0.111481
v -4.796753 0.078480 0.111481
v -4.805045 1.229814 0.099568
v -4.992397 1.229814 -0.077717
v -4.962965 1.229814 -0.003709
v -4.098619 1.098050 -5.514662
v -3.053024 1.098050 -5.535119
v -2.483609 1.098050 -5.528700
v -4.910481 1.098050 0.313114
v -4.910481 1.186404 0.313114
v -4.098619 1.186404 -5.514662
v -3.053024 1.186404 -5.535119
v -2.483609 1.186404 -5.528700
v -4.035952 2.852037 -5.209530
v -3.112424 2.852037 -5.224167
v -2.483609 2.852037 -5.213624
v -4.788340 1.229814 -4.031198
v -4.805640 2.852038 0.118716
v -4.106633 2.852037 -5.389098
v -3.183104 2.852037 -5.407167
v -2.483609 2.852037 -5.401497
v -2.483609 2.459292 -5.528700
v -3.053024 2.459292 -5.535119
v -4.098619 2.459292 -5.514662
v -2.483609 2.459292 -5.315994
v -2.973002 2.459292 -5.327932
v -4.910481 2.459293 0.313114
v -4.018597 2.459292 -5.311359
v -4.590423 1.229813 -4.415240
v -4.035952 3.480666 -5.209531
v -3.112424 3.480666 -5.224168
v -2.483609 3.480666 -5.213624
v -2.973002 1.229813 -5.322059
v -4.805640 3.480667 0.118716
v -4.106633 3.480666 -5.389098
v -3.183104 3.480666 -5.407167
v -2.483609 3.480666 -5.401498
v -4.398672 0.078479 -4.271405
v -4.589774 0.078479 -3.881643
v -4.398648 1.098050 -4.271433
v -4.589676 1.098050 -3.882127
v -4.594732 0.078479 -4.418281
v -4.792785 0.078479 -4.033428
v -4.792797 1.098050 -4.033367
v -4.594781 1.098050 -4.418228
v -4.017071 1.229813 -5.305459
v -4.774828 1.098050 -4.568818
v -4.979320 1.098050 -4.189918
v -4.979156 1.186404 -4.190683
v -4.774829 1.186404 -4.568817
v -4.508964 2.852038 -4.426254
v -4.706823 2.852038 -4.042683
v -4.871786 2.852038 -4.180716
v -4.667434 2.852038 -4.558667
v -4.774774 2.459293 -4.568872
v -4.979085 2.459293 -4.191015
v -4.594615 2.459293 -4.418405
v -4.792496 2.459293 -4.034815
v -4.706919 3.480667 -4.042223
v -4.509025 3.480667 -4.426190
v -4.667434 3.480667 -4.558666
v -4.871888 3.480667 -4.180243
v -4.967202 1.098050 0.000011
v -4.997539 1.098050 -0.076712
v -4.967218 0.078480 -0.000000
v -4.997562 0.078480 -0.076600
v -5.221259 1.186404 0.137768
v -5.254202 1.186404 0.063125
v -5.221051 1.098050 0.137885
v -5.254160 1.098050 0.062929
v -4.851117 2.852038 -0.154811
v -4.881371 2.852038 -0.231197
v -5.107954 2.852038 -0.108054
v -5.075056 2.852038 -0.033293
v -5.221330 2.459293 0.137727
v -5.254195 2.459293 0.063090
v -4.997624 2.459293 -0.076302
v -4.967367 2.459293 -0.000098
v -4.881332 3.480667 -0.231382
v -4.851063 3.480667 -0.154777
v -5.074876 3.480667 -0.033192
v -5.107927 3.480667 -0.108178
v -2.973002 1.186404 -5.275132
v -2.973002 1.235245 -5.327932
v -4.018597 1.235245 -5.311359
v -4.004875 1.186404 -5.258311
v -2.483609 1.235245 -5.315994
v -2.483609 1.186404 -5.263345
v -2.483609 1.137562 -5.315994
v -2.483609 1.186404 -5.364836
v -2.483609 1.180971 -5.359404
v -2.483609 1.229813 -5.310138
v -4.820748 1.186404 0.154022
v -4.796753 1.137562 0.111481
v -4.556824 1.186404 -4.390053
v -4.594627 1.235245 -4.418393
v -4.792585 1.235245 -4.034387
v -4.754414 1.186404 -4.005711
v -4.950470 1.186404 -0.089754
v -4.997644 1.235246 -0.076210
v -4.927707 1.186404 -0.032519
v -4.967377 1.235246 -0.000104
v -2.973002 -0.000000 -5.080107
v -2.973002 -0.000000 -5.327932
v -4.018597 -0.000000 -5.311359
v -3.955398 -0.000000 -5.067047
v -2.483609 -0.000000 -5.315994
v -2.483609 -0.000000 -5.076597
v -4.796753 0.000000 0.111481
v -4.398672 -0.000000 -4.271405
v -4.589774 -0.000000 -3.881643
v -4.594732 -0.000000 -4.418281
v -4.792785 -0.000000 -4.033428
v -4.967218 0.000000 0.000000
v -4.997562 -0.000000 -0.076600
v -2.973002 1.175387 -5.080107
v -2.973002 1.186404 -5.092841
v -3.958718 1.186404 -5.079881
v -3.955398 1.175444 -5.067047
v -2.483609 1.186404 -5.089283
v -2.483609 1.175368 -5.076597
v -4.710653 2.852038 -0.049691
v -4.714691 2.852038 -0.065591
v -4.802165 2.459293 0.121076
v -4.806239 2.459293 0.105276
v -4.710660 3.480667 -0.049678
v -4.714696 3.480667 -0.065594
v -4.598810 1.186404 -3.888898
v -4.589690 1.175698 -3.882061
v -4.398627 1.175546 -4.271456
v -4.407596 1.186404 -4.278185
v -4.788550 1.175915 0.071020
v -4.795708 1.186404 0.053805
v -4.806213 1.235246 0.105294
v -4.802085 1.224392 0.120935
v -4.800580 1.219000 0.115383
v -4.797015 1.192479 0.060209
v -2.483609 1.192478 -5.269893
v -2.973002 1.192478 -5.281699
v -2.483609 1.143636 -5.322069
v -4.006581 1.192478 -5.264908
v -4.759161 1.192478 -4.009278
v -4.932641 1.192479 -0.028488
v -4.561526 1.192478 -4.393577
v -4.956337 1.192479 -0.088069
v -4.790233 1.181944 0.077228
v -4.805885 1.187788 0.119676
v -4.797869 1.168720 0.102091
v -1.994216 0.078479 -5.080107
v -1.994216 1.098050 -5.080107
v -1.994216 0.078479 -5.327932
v -1.994216 1.098050 -5.327932
v -0.948621 1.098050 -5.311359
v -0.948621 0.078479 -5.311359
v -1.011820 1.098050 -5.067047
v -1.011820 0.078479 -5.067047
v -0.170465 1.098050 0.111481
v -0.170465 0.078480 0.111481
v -0.162173 1.229814 0.099568
v 0.025179 1.229814 -0.077717
v -0.004253 1.229814 -0.003709
v -0.868599 1.098050 -5.514662
v -1.914194 1.098050 -5.535119
v -0.056737 1.098050 0.313114
v -0.056737 1.186404 0.313114
v -0.868599 1.186404 -5.514662
v -1.914194 1.186404 -5.535119
v -0.931266 2.852037 -5.209530
v -1.854794 2.852037 -5.224167
v -0.178878 1.229814 -4.031198
v -0.161578 2.852038 0.118716
v -0.860585 2.852037 -5.389098
v -1.784114 2.852037 -5.407167
v -1.914194 2.459292 -5.535119
v -0.868599 2.459292 -5.514662
v -1.994216 2.459292 -5.327932
v -0.056737 2.459293 0.313114
v -0.948621 2.459292 -5.311359
v -0.376795 1.229813 -4.415240
v -0.931266 3.480666 -5.209531
v -1.854794 3.480666 -5.224168
v -1.994216 1.229813 -5.322059
v -0.161578 3.480667 0.118716
v -0.860585 3.480666 -5.389098
v -1.784114 3.480666 -5.407167
v -0.568546 0.078479 -4.271405
v -0.377444 0.078479 -3.881643
v -0.568570 1.098050 -4.271433
v -0.377542 1.098050 -3.882127
v -0.372486 0.078479 -4.418281
v -0.174433 0.078479 -4.033428
v -0.174421 1.098050 -4.033367
v -0.372437 1.098050 -4.418228
v -0.950147 1.229813 -5.305459
v -0.192390 1.098050 -4.568818
v 0.012102 1.098050 -4.189918
v 0.011938 1.186404 -4.190683
v -0.192389 1.186404 -4.568817
v -0.458254 2.852038 -4.426254
v -0.260395 2.852038 -4.042683
v -0.095432 2.852038 -4.180716
v -0.299784 2.852038 -4.558667
v -0.192444 2.459293 -4.568872
v 0.011867 2.459293 -4.191015
v -0.372603 2.459293 -4.418405
v -0.174722 2.459293 -4.034815
v -0.260299 3.480667 -4.042223
v -0.458193 3.480667 -4.426190
v -0.299784 3.480667 -4.558666
v -0.095330 3.480667 -4.180243
v -0.000016 1.098050 0.000011
v 0.030321 1.098050 -0.076712
v 0.000000 0.078480 -0.000000
v 0.030344 0.078480 -0.076600
v 0.254041 1.186404 0.137768
v 0.286984 1.186404 0.063125
v 0.253833 1.098050 0.137885
v 0.286942 1.098050 0.062929
v -0.116101 2.852038 -0.154811
v -0.085847 2.852038 -0.231197
v 0.140736 2.852038 -0.108054
v 0.107838 2.852038 -0.033293
v 0.254112 2.459293 0.137727
v 0.286977 2.459293 0.063090
v 0.030406 2.459293 -0.076302
v 0.000149 2.459293 -0.000098
v -0.085886 3.480667 -0.231382
v -0.116155 3.480667 -0.154777
v 0.107658 3.480667 -0.033192
v 0.140709 3.480667 -0.108178
v -1.994216 1.186404 -5.275132
v -1.994216 1.235245 -5.327932
v -0.948621 1.235245 -5.311359
v -0.962343 1.186404 -5.258311
v -0.146470 1.186404 0.154022
v -0.170465 1.137562 0.111481
v -0.410394 1.186404 -4.390053
v -0.372591 1.235245 -4.418393
v -0.174633 1.235245 -4.034387
v -0.212804 1.186404 -4.005711
v -0.016748 1.186404 -0.089754
v 0.030426 1.235246 -0.076210
v -0.039511 1.186404 -0.032519
v 0.000159 1.235246 -0.000104
v -1.994216 -0.000000 -5.080107
v -1.994216 -0.000000 -5.327932
v -0.948621 -0.000000 -5.311359
v -1.011820 -0.000000 -5.067047
v -0.170465 0.000000 0.111481
v -0.568546 -0.000000 -4.271405
v -0.377444 -0.000000 -3.881643
v -0.372486 -0.000000 -4.418281
v -0.174433 -0.000000 -4.033428
v 0.000000 0.000000 0.000000
v 0.030344 -0.000000 -0.076600
v -1.994216 1.175387 -5.080107
v -1.994216 1.186404 -5.092841
v -1.008500 1.186404 -5.079881
v -1.011820 1.175444 -5.067047
v -0.256565 2.852038 -0.049691
v -0.252527 2.852038 -0.065591
v -0.165053 2.459293 0.121076
v -0.160979 2.459293 0.105276
v -0.256558 3.480667 -0.049678
v -0.252522 3.480667 -0.065594
v -0.368408 1.186404 -3.888898
v -0.377528 1.175698 -3.882061
v -0.568591 1.175546 -4.271456
v -0.559622 1.186404 -4.278185
v -0.178668 1.175915 0.071020
v -0.171510 1.186404 0.053805
v -0.161005 1.235246 0.105294
v -0.165133 1.224392 0.120935
v -0.166638 1.219000 0.115383
v -0.170203 1.192479 0.060209
v -1.994216 1.192478 -5.281699
v -0.960637 1.192478 -5.264908
v -0.208057 1.192478 -4.009278
v -0.034577 1.192479 -0.028488
v -0.405692 1.192478 -4.393577
v -0.010881 1.192479 -0.088069
v -0.176985 1.181944 0.077228
v -0.161333 1.187788 0.119676
v -0.169349 1.168720 0.102091
vn 0.0043 -0.0000 -1.0000
vn -0.0158 -0.0000 -0.9999
vn -0.0000 -0.0000 1.0000
vn 0.0031 -0.0000 1.0000
vn -0.0000 -1.0000 -0.0000
vn 0.0133 -0.0000 0.9999
vn 0.8860 -0.0000 0.4637
vn 0.9680 -0.0000 0.2511
vn 0.8860 -0.0000 0.4636
vn -0.0000 1.0000 -0.0000
vn -0.0000 -0.0000 -1.0000
vn -0.8403 -0.0000 -0.5421
vn -0.8658 -0.0000 -0.5004
vn 0.8736 -0.0000 0.4867
vn 0.8860 -0.0001 0.4638
vn 0.9678 -0.0201 0.2510
vn 0.9679 -0.0100 0.2512
vn -0.9655 -0.0000 -0.2604
vn -0.9868 -0.0000 0.1619
vn 1.0000 -0.0000 -0.0000
vn -0.0043 -0.0000 1.0000
vn -0.0244 -0.0000 0.9997
vn -0.0221 -0.1299 0.9913
vn -0.0050 -0.1281 0.9918
vn -0.9614 -0.0004 -0.2751
vn -0.9847 -0.0005 0.1744
vn -0.9846 -0.0003 0.1747
vn -0.9609 -0.0002 -0.2769
vn 0.9449 0.0432 0.3246
vn 0.9379 0.0590 0.3418
vn 0.9543 0.0120 0.2986
vn 0.9883 0.0138 0.1517
vn -0.9528 0.1376 -0.2707
vn -0.9609 0.2009 0.1907
vn -0.9696 0.1952 0.1474
vn -0.9509 0.1419 -0.2751
vn 0.5473 -0.0000 -0.8369
vn 0.5334 -0.2244 -0.8156
vn 0.5335 -0.2237 -0.8157
vn -0.4914 -0.0000 0.8709
vn -0.4755 0.2526 0.8427
vn -0.4764 0.2453 0.8443
vn 0.0113 -0.0000 -0.9999
vn -0.0041 -0.0000 -1.0000
vn -0.0196 -0.0000 -0.9998
vn -0.8135 -0.0000 -0.5816
vn -0.8484 -0.0006 -0.5294
vn -0.8483 -0.0003 -0.5295
vn 0.5328 -0.2293 -0.8146
vn 0.5328 -0.2286 -0.8148
vn -0.0182 -0.1294 0.9914
vn 0.0006 -0.1277 0.9918
vn 0.8656 -0.0000 0.5008
vn 0.8403 -0.0000 0.5421
vn 0.8421 -0.0626 0.5357
vn 0.8652 -0.0804 0.4949
vn 0.0103 0.1573 -0.9875
vn -0.0032 0.1556 -0.9878
vn -0.0067 0.1554 -0.9878
vn 0.0087 0.1570 -0.9876
vn -0.8196 0.1076 -0.5627
vn -0.8470 0.1113 -0.5199
vn -0.8553 0.0001 -0.5182
vn -0.8287 -0.0000 -0.5597
vn -0.0193 0.1526 -0.9881
vn -0.0057 -0.0000 -1.0000
vn -0.8133 0.0907 -0.5747
vn -0.8455 0.1122 -0.5221
vn 0.9697 -0.1667 -0.1785
vn 0.9611 -0.1075 0.2545
vn 0.9587 -0.1091 0.2626
vn 0.9773 -0.1587 -0.1400
vn -0.9841 0.0001 0.1775
vn -0.9620 -0.0000 -0.2731
vn -0.4753 0.2541 0.8424
vn -0.4744 0.2608 0.8408
vn 0.0157 -0.1280 0.9916
vn 0.0157 -0.1243 0.9921
vn -0.0193 0.1551 -0.9877
vn 0.8674 -0.0790 0.4913
vn 0.8493 -0.0729 0.5228
vn 0.8560 -0.0000 0.5169
vn 0.8729 -0.0000 0.4879
vn 0.8710 0.0061 0.4913
vn 0.8710 0.0044 0.4913
vn 0.8710 -0.0000 0.4913
vn 0.8858 0.0011 0.4641
vn 0.8917 -0.0438 0.4505
vn 0.8710 0.0060 0.4913
vn 0.8710 0.0043 0.4913
vn 0.9139 -0.1819 -0.3628
vn 0.9293 -0.0000 -0.3693
vn 0.9867 -0.0000 -0.1625
vn -0.0072 -0.0000 1.0000
vn 0.9791 -0.0134 0.2030
vn 0.0158 -0.0000 0.9999
vn 0.9662 -0.0000 0.2579
vn 0.9863 -0.0000 -0.1647
vn -0.0005 -0.0000 1.0000
vn 0.0081 -0.0000 -1.0000
vn -0.0168 -0.0000 0.9999
vn 0.9654 -0.0000 0.2608
vn 0.9987 -0.0000 0.0518
vn -0.9298 -0.0000 0.3681
vn -0.9298 -0.0000 0.3680
vn -0.9148 -0.0015 0.4039
vn -0.9149 -0.0007 0.4036
vn 0.9299 -0.0001 -0.3679
vn 0.9087 -0.2114 -0.3599
vn -0.8858 0.2514 0.3900
vn -0.9152 0.0002 0.4030
vn -0.8930 0.2185 0.3934
vn -0.5473 -0.0000 0.8369
vn 0.3870 0.7071 -0.5918
vn 0.5344 0.7238 -0.4366
vn 0.3871 0.7071 -0.5918
vn 0.0108 0.7355 0.6774
vn -0.0028 0.7346 0.6785
vn -0.0029 0.7346 0.6785
vn -0.0165 0.7335 0.6795
vn -0.0166 0.7335 0.6795
vn 0.6358 0.6796 0.3661
vn 0.7044 0.6849 0.1864
vn 0.7126 0.6823 0.1636
vn 0.6365 0.6801 0.3637
vn 0.6284 0.6661 0.4016
vn 0.6295 0.6658 0.4005
vn 0.7123 0.6927 -0.1128
vn 0.7096 0.6941 -0.1214
vn 0.9252 0.3585 -0.1247
vn 0.9444 0.3185 -0.0818
vn 0.9462 0.3143 -0.0773
vn 0.9275 0.3541 -0.1200
vn 0.7043 0.6849 0.1868
vn 0.6940 0.6875 0.2137
vn -0.9655 -0.0000 -0.2605
vn -0.9868 -0.0000 0.1620
vn -0.9297 -0.0000 0.3683
vn 0.0019 0.7571 0.6533
vn 0.0086 0.7589 0.6512
vn 0.0020 0.7571 0.6533
vn -0.0047 0.7553 0.6553
vn 0.9593 -0.1413 -0.2443
vn 0.9693 -0.0000 -0.2460
vn 0.9540 -0.1756 -0.2432
vn 0.9532 -0.1756 -0.2461
vn 0.9584 -0.1413 -0.2480
vn 0.7186 0.6784 0.1529
vn 0.6323 0.7008 0.3304
vn 0.6333 0.6981 0.3341
vn 0.6923 0.6930 0.2012
vn 0.6397 0.6806 0.3572
vn 0.9767 0.1336 -0.1681
vn 0.9742 0.1777 -0.1388
vn 0.8867 0.4527 -0.0937
vn 0.8344 0.5505 -0.0265
vn 0.7123 0.6927 -0.1131
vn 0.6264 0.6668 0.4037
vn 0.6341 0.6793 0.3695
vn 0.6349 0.6798 0.3670
vn 0.6269 0.6666 0.4032
vn -0.0027 0.7346 0.6785
vn -0.0164 0.7335 0.6795
vn 0.0109 0.7356 0.6774
vn 0.9291 -0.0058 0.3697
vn 0.0110 0.7356 0.6773
vn 0.7145 0.6915 -0.1062
vn 0.9227 -0.0874 0.3755
vn -0.0043 -0.0000 -1.0000
vn 0.0158 -0.0000 -0.9999
vn -0.0031 -0.0000 1.0000
vn -0.0133 -0.0000 0.9999
vn -0.8860 -0.0000 0.4637
vn -0.8860 -0.0000 0.4636
vn -0.9680 -0.0000 0.2511
vn 0.8403 -0.0000 -0.5421
vn 0.8658 -0.0000 -0.5004
vn -0.8860 -0.0001 0.4638
vn -0.8736 -0.0000 0.4867
vn -0.9679 -0.0100 0.2512
vn -0.9678 -0.0201 0.2510
vn 0.9655 -0.0000 -0.2604
vn 0.9868 -0.0000 0.1618
vn 0.9868 -0.0000 0.1619
vn 0.0043 -0.0000 1.0000
vn 0.0050 -0.1281 0.9918
vn 0.0221 -0.1299 0.9913
vn 0.0244 -0.0000 0.9997
vn 0.9614 -0.0004 -0.2751
vn 0.9609 -0.0002 -0.2769
vn 0.9846 -0.0003 0.1747
vn 0.9847 -0.0005 0.1744
vn -0.9449 0.0432 0.3246
vn -0.9883 0.0138 0.1517
vn -0.9543 0.0120 0.2986
vn -0.9379 0.0590 0.3418
vn 0.9528 0.1376 -0.2707
vn 0.9509 0.1419 -0.2751
vn 0.9696 0.1952 0.1474
vn 0.9609 0.2009 0.1906
vn -0.5473 -0.0000 -0.8369
vn -0.5335 -0.2237 -0.8157
vn -0.5334 -0.2244 -0.8156
vn 0.4914 -0.0000 0.8709
vn 0.4764 0.2453 0.8443
vn 0.4755 0.2526 0.8427
vn -0.0113 -0.0000 -0.9999
vn 0.0041 -0.0000 -1.0000
vn 0.0196 -0.0000 -0.9998
vn 0.8135 -0.0000 -0.5816
vn 0.8483 -0.0003 -0.5295
vn 0.8484 -0.0006 -0.5294
vn -0.5328 -0.2293 -0.8146
vn -0.5328 -0.2286 -0.8148
vn -0.0006 -0.1277 0.9918
vn 0.0182 -0.1294 0.9914
vn -0.8656 -0.0000 0.5008
vn -0.8652 -0.0804 0.4949
vn -0.8421 -0.0626 0.5357
vn -0.8403 -0.0000 0.5421
vn -0.0103 0.1573 -0.9875
vn -0.0087 0.1570 -0.9876
vn 0.0067 0.1554 -0.9878
vn 0.0032 0.1556 -0.9878
vn 0.8196 0.1076 -0.5627
vn 0.8287 -0.0000 -0.5597
vn 0.8553 0.0001 -0.5182
vn 0.8470 0.1113 -0.5199
vn 0.0057 -0.0000 -1.0000
vn 0.0193 0.1526 -0.9881
vn 0.8133 0.0907 -0.5747
vn 0.8455 0.1122 -0.5221
vn -0.9697 -0.1667 -0.1785
vn -0.9773 -0.1587 -0.1400
vn -0.9587 -0.1091 0.2626
vn -0.9611 -0.1075 0.2545
vn 0.9620 -0.0000 -0.2731
vn 0.9841 0.0001 0.1775
vn 0.4744 0.2608 0.8408
vn 0.4753 0.2541 0.8424
vn -0.0157 -0.1280 0.9916
vn -0.0157 -0.1243 0.9921
vn 0.0193 0.1551 -0.9877
vn -0.8674 -0.0790 0.4913
vn -0.8729 -0.0000 0.4879
vn -0.8560 -0.0000 0.5170
vn -0.8493 -0.0729 0.5228
vn -0.8710 0.0061 0.4913
vn -0.8710 -0.0000 0.4913
vn -0.8710 0.0044 0.4913
vn -0.8710 0.0043 0.4913
vn -0.8710 0.0060 0.4913
vn -0.8917 -0.0438 0.4505
vn -0.8858 0.0011 0.4641
vn -0.9139 -0.1819 -0.3628
vn -0.9867 -0.0000 -0.1625
vn -0.9293 -0.0000 -0.3693
vn 0.0072 -0.0000 1.0000
vn -0.9791 -0.0134 0.2030
vn -0.0158 -0.0000 0.9999
vn -0.9863 -0.0000 -0.1647
vn -0.9662 -0.0000 0.2579
vn 0.0005 -0.0000 1.0000
vn -0.0081 -0.0000 -1.0000
vn 0.0168 -0.0000 0.9999
vn -0.9654 -0.0000 0.2608
vn -0.9987 -0.0000 0.0518
vn 0.9298 -0.0000 0.3680
vn 0.9298 -0.0000 0.3681
vn 0.9149 -0.0007 0.4036
vn 0.9148 -0.0015 0.4039
vn -0.9087 -0.2114 -0.3599
vn -0.9299 -0.0001 -0.3679
vn 0.9152 0.0002 0.4030
vn 0.8858 0.2514 0.3900
vn 0.8930 0.2185 0.3934
vn 0.5473 -0.0000 0.8369
vn -0.3870 0.7071 -0.5918
vn -0.5343 0.7238 -0.4366
vn -0.0108 0.7355 0.6774
vn 0.0029 0.7346 0.6785
vn 0.0028 0.7346 0.6785
vn 0.0166 0.7335 0.6795
vn 0.0165 0.7335 0.6795
vn -0.6358 0.6795 0.3661
vn -0.6365 0.6801 0.3637
vn -0.7126 0.6823 0.1636
vn -0.7044 0.6849 0.1864
vn -0.6284 0.6661 0.4016
vn -0.6295 0.6658 0.4005
vn -0.7096 0.6941 -0.1214
vn -0.7123 0.6927 -0.1128
vn -0.9252 0.3585 -0.1247
vn -0.9275 0.3541 -0.1200
vn -0.9462 0.3143 -0.0773
vn -0.9444 0.3185 -0.0818
vn -0.6940 0.6875 0.2138
vn -0.7043 0.6849 0.1868
vn 0.9655 -0.0000 -0.2605
vn 0.9297 -0.0000 0.3683
vn 0.9868 -0.0000 0.1620
vn -0.0019 0.7571 0.6533
vn -0.0020 0.7571 0.6533
vn -0.0086 0.7589 0.6512
vn 0.0047 0.7553 0.6553
vn -0.9593 -0.1413 -0.2443
vn -0.9540 -0.1756 -0.2432
vn -0.9693 -0.0000 -0.2460
vn -0.9532 -0.1756 -0.2461
vn -0.9584 -0.1413 -0.2480
vn -0.7186 0.6784 0.1529
vn -0.6923 0.6930 0.2012
vn -0.6333 0.6981 0.3341
vn -0.6323 0.7008 0.3304
vn -0.6397 0.6806 0.3572
vn -0.9742 0.1777 -0.1388
vn -0.9767 0.1336 -0.1681
vn -0.8867 0.4527 -0.0937
vn -0.8344 0.5505 -0.0265
vn -0.7123 0.6927 -0.1131
vn -0.5344 0.7238 -0.4366
vn -0.6264 0.6668 0.4038
vn -0.6269 0.6666 0.4032
vn -0.6349 0.6798 0.3670
vn -0.6341 0.6793 0.3695
vn 0.0027 0.7346 0.6785
vn 0.0164 0.7335 0.6795
vn -0.0109 0.7356 0.6774
vn -0.9291 -0.0058 0.3697
vn -0.5344 0.7237 -0.4366
vn -0.0110 0.7356 0.6774
vn -0.7145 0.6915 -0.1062
vn -0.9227 -0.0874 0.3755
vt 0.625000 0.250000
vt 0.375000 0.250000
vt 0.375000 0.875000
vt 0.625000 0.875000
vt 0.625000 1.000000
vt 0.375000 1.000000
vt 0.000000 0.000000
vt 0.750000 0.554981
vt 0.875000 0.553263
vt 0.875000 0.737155
vt 0.750000 0.736752
vt 0.625000 0.375000
vt 0.375000 0.375000
vt 0.875000 0.738764
vt 0.875000 0.547038
vt 0.875000 0.546384
vt 0.875000 0.582494
vt 0.875000 0.738862
vt 0.875000 0.736867
vt 0.875000 0.554283
vt 0.875000 0.548218
vt 0.875000 0.738557
vt 0.875000 0.500000
vt 0.750000 0.500000
vt 0.875000 0.750000
vt 0.875000 0.737260
vt 0.875000 0.554505
vt 0.875000 0.535005
vt 0.875000 0.736746
vt 0.875000 0.744248
vt 0.875000 0.734863
vt 0.875000 0.738802
vt 0.875000 0.548031
vt 0.875000 0.548043
vt 0.875000 0.738771
vt 0.875000 0.737266
vt 0.875000 0.554433
vt 0.125000 0.500000
vt 0.173219 0.596438
vt 0.625000 0.394715
vt 0.750081 0.500000
vt 0.875000 0.738809
vt 0.875000 0.551864
vt 0.875000 0.506037
vt 0.875000 0.505924
vt 0.750000 0.506115
vt 0.875000 0.542221
vt 0.875000 0.541187
vt 0.875000 0.547532
vt 0.875000 0.505159
vt 0.875000 0.738854
vt 0.875000 0.505231
vt 0.125000 0.750000
vt 0.250000 0.500000
vt 0.250000 0.750000
vt 0.125000 0.548219
vt 0.750000 0.750000
vt 0.875000 0.540615
vt 0.875000 0.578208
vt 0.875000 0.505363
vt 0.875000 0.546639
vt 0.750000 0.548142
vt 0.750578 0.500000
vt 0.750650 0.500000
vt 0.875000 0.747212
vt 0.875000 0.748317
s 1
usemtl Material.013
f 4/1/1 3/2/1 6/2/2 5/1/2
f 6/2/2 3/2/1 116/2/1 117/2/2
f 11/3/3 12/4/3 2/5/4 1/6/4
f 75/7/5 13/7/5 21/7/5 81/7/5
f 1/6/4 2/5/4 7/5/6 8/6/6
f 50/6/7 51/6/8 123/6/8 122/6/9
f 100/8/10 95/9/10 129/10/10 132/11/10
f 3/2/1 4/1/1 10/12/11 9/13/11
f 5/1/12 6/2/12 54/2/13 57/1/13
f 140/14/10 110/15/10 111/16/10 113/17/10 145/18/10
f 1/6/4 8/6/6 118/6/6 115/6/4
f 52/5/7 7/5/14 131/5/14 142/5/15
f 130/19/10 98/20/10 107/21/10 143/22/10
f 52/5/7 142/5/15 141/5/16 53/5/17
f 56/1/18 55/2/18 78/2/19 76/1/19
f 8/6/14 7/5/14 52/5/7 50/6/7
f 12/7/20 10/7/20 101/7/20 100/7/20 132/7/20 133/7/20
f 96/23/21 99/24/22 37/24/23 38/23/24
f 138/25/10 139/26/10 92/27/10 93/28/10 46/25/10
f 60/1/25 82/1/26 80/1/27 61/1/28
f 102/7/20 103/7/20 152/7/20 101/7/20 10/7/20 20/7/20 25/7/20
f 158/29/29 160/30/30 106/25/31 144/31/32
f 68/1/33 88/1/34 85/1/35 65/1/36
f 99/7/20 102/7/20 25/7/20 34/7/20 37/7/20
f 146/32/37 114/33/37 90/34/38 137/35/39
f 11/3/3 1/6/4 115/6/4 120/3/3
f 79/7/40 22/7/40 39/7/41 87/7/42
f 20/12/43 19/1/44 24/1/44 25/12/43
f 19/1/44 18/1/45 23/1/45 24/1/44
f 18/1/46 59/1/47 62/1/48 23/1/46
f 135/36/49 83/37/50 92/27/37 139/26/37
f 38/23/24 37/24/23 28/24/51 27/23/52
f 10/12/5 4/1/5 19/1/5 20/12/5
f 4/1/5 5/1/5 18/1/5 19/1/5
f 5/1/5 57/1/5 59/1/5 18/1/5
f 108/23/53 97/23/54 40/23/55 69/23/56
f 34/12/57 35/1/58 32/1/59 33/12/60
f 31/1/61 66/1/62 73/1/63 47/1/64
f 32/1/59 31/1/65 47/1/45 48/1/66
f 36/1/67 67/1/68 66/1/62 31/1/61
f 89/23/69 70/23/70 64/23/71 84/23/72
f 137/35/39 90/34/38 83/37/50 135/36/49
f 65/1/36 85/1/35 94/1/73 74/1/74
f 37/7/20 34/7/20 33/7/20 28/7/20
f 87/7/42 39/7/41 30/7/75 86/7/76
f 40/23/77 38/23/24 27/23/52 26/23/78
f 35/1/58 36/1/79 31/1/65 32/1/59
f 63/23/80 26/23/81 42/23/82 72/23/83
f 30/5/84 134/5/85 138/5/86 46/5/86
f 22/5/86 105/5/87 147/5/88 136/5/89 39/5/90
f 56/1/5 76/1/5 82/1/5 60/1/5
f 90/34/91 114/33/92 112/23/93 89/23/69
f 143/22/10 107/21/10 110/15/10 140/14/10
f 39/5/90 136/5/89 134/5/85 30/5/84
f 24/1/44 23/1/45 36/1/79 35/1/58
f 2/5/4 12/4/3 133/4/94 128/5/4
f 23/1/46 62/1/48 67/1/68 36/1/67
f 13/5/95 106/5/31 105/5/87 22/5/86 21/5/86
f 86/7/76 30/7/75 46/7/40 93/7/40
f 25/12/43 24/1/44 35/1/58 34/12/57
f 97/23/96 96/23/21 38/23/24 40/23/77
f 61/1/28 80/1/27 88/1/34 68/1/33
f 81/7/40 21/7/40 22/7/40 79/7/40
f 72/23/10 42/23/10 47/23/10 73/23/10
f 42/23/10 43/23/10 48/23/10 47/23/10
f 91/23/10 71/23/10 74/23/10 94/23/10
f 43/23/10 44/24/10 49/24/10 48/23/10
f 84/23/72 64/23/71 71/23/97 91/23/98
f 26/23/78 27/23/52 43/23/99 42/23/96
f 33/12/60 32/1/59 48/1/66 49/12/100
f 69/23/56 40/23/55 26/23/81 63/23/80
f 28/7/20 33/7/20 49/7/20 44/7/20
f 27/23/52 28/24/51 44/24/101 43/23/99
f 57/1/13 54/2/13 55/2/18 56/1/18
f 54/2/13 6/2/12 117/2/12 124/2/13
f 50/6/7 52/5/7 53/5/17 51/6/8
f 70/23/70 109/23/102 108/23/53 69/23/56
f 13/5/95 53/5/17 141/5/16 144/5/32 106/5/31
f 62/1/48 59/1/47 60/1/25 61/1/28
f 68/1/33 65/1/36 66/1/62 67/1/68
f 59/1/5 57/1/5 56/1/5 60/1/5
f 112/23/93 109/23/102 70/23/70 89/23/69
f 61/1/28 68/1/33 67/1/68 62/1/48
f 64/23/71 70/23/70 69/23/56 63/23/80
f 72/23/10 73/23/10 74/23/10 71/23/10
f 73/1/63 66/1/62 65/1/36 74/1/74
f 63/23/80 72/23/83 71/23/97 64/23/71
f 51/6/8 53/5/17 13/5/95 14/6/103
f 76/1/19 78/38/19 77/39/104 75/40/105
f 82/1/5 76/1/5 75/1/5 81/1/5
f 80/1/27 82/1/26 81/1/106 79/1/107
f 84/23/72 91/23/98 92/27/108 83/37/109
f 94/1/73 85/1/35 86/1/110 93/1/111
f 88/1/34 80/1/27 79/1/107 87/1/112
f 85/1/35 88/1/34 87/1/112 86/1/110
f 83/37/109 90/34/91 89/23/69 84/23/72
f 93/28/10 92/27/10 91/23/10 94/23/10
f 13/5/113 75/40/113 77/39/113 14/6/113
f 150/24/20 100/24/20 101/24/20 152/41/20
f 15/42/114 17/43/115 114/33/115 146/32/116
f 58/44/117 45/45/118 96/23/119 97/23/117
f 45/45/118 104/46/120 99/24/121 96/23/119
f 156/47/122 154/48/123 110/15/124 107/21/125
f 153/49/126 156/47/122 107/21/125 98/20/127
f 17/43/115 16/50/128 112/23/129 114/33/115
f 149/51/130 15/42/131 148/25/132 158/25/133
f 16/50/128 29/52/134 109/23/135 112/23/129
f 7/5/6 2/5/4 128/5/4 131/5/6
f 116/38/5 115/53/5 118/53/5 117/38/5
f 116/38/5 119/54/5 120/55/5 115/53/5
f 117/38/5 118/53/5 122/53/5 124/38/5
f 125/38/5 123/53/5 121/53/5 126/56/5 127/38/5
f 124/38/5 122/53/5 123/53/5 125/38/5
f 14/6/113 77/39/113 126/39/113 121/6/113
f 51/6/8 14/6/103 121/6/103 123/6/8
f 3/2/1 9/13/11 119/13/11 116/2/1
f 55/2/18 54/2/13 124/2/13 125/2/136
f 8/6/14 50/6/7 122/6/9 118/6/14
f 77/39/104 78/38/19 127/38/137 126/39/138
f 78/2/19 55/2/18 125/2/136 127/2/137
f 129/10/139 130/19/140 131/25/140 128/25/141
f 132/11/142 129/10/139 128/25/141 133/57/142
f 135/36/143 139/26/144 138/25/144 134/25/145
f 137/35/146 135/36/143 134/25/145 136/25/147
f 141/25/148 142/25/149 143/22/150 140/14/151
f 130/19/152 143/22/150 142/25/149 131/25/152
f 15/42/131 146/32/153 147/25/154 148/25/132
f 146/32/153 137/35/146 136/25/147 147/25/154
f 144/25/155 141/25/148 140/14/151 145/18/156
f 129/10/10 95/9/10 98/20/10 130/19/10
f 157/58/157 154/48/123 29/52/134 16/50/128
f 155/59/115 157/58/157 16/50/128 17/43/115
f 97/23/158 108/23/159 41/60/160 58/44/161
f 108/23/159 109/23/135 29/52/134 41/60/160
f 151/61/162 150/62/163 104/46/120 45/45/118
f 153/49/164 151/61/162 45/45/118 58/44/117
f 149/51/114 155/59/115 17/43/115 15/42/114
f 99/24/20 104/24/20 103/63/20 102/64/20
f 106/25/31 160/30/30 159/65/165 105/25/87
f 145/18/114 113/17/115 155/59/115 149/51/114
f 98/20/166 95/9/162 151/61/162 153/49/164
f 95/9/162 100/8/163 150/62/163 151/61/162
f 113/17/115 111/16/167 157/58/157 155/59/115
f 111/16/167 110/15/124 154/48/123 157/58/157
f 145/18/156 149/51/130 158/25/133 144/25/155
f 58/44/161 41/60/160 156/47/122 153/49/126
f 41/60/160 29/52/134 154/48/123 156/47/122
f 104/24/20 150/24/20 152/41/20 103/63/20
f 105/25/87 159/65/165 148/66/168 147/25/88
f 148/66/168 159/65/165 160/30/30 158/29/29
f 164/1/169 165/1/170 166/2/170 163/2/169
f 166/2/170 259/2/170 258/2/169 163/2/169
f 11/3/3 161/6/171 162/5/171 12/4/3
f 223/7/5 229/7/5 176/7/5 169/7/5
f 161/6/171 168/6/172 167/5/172 162/5/171
f 198/6/173 262/6/174 263/6/175 199/6/175
f 100/8/10 132/11/10 269/10/10 243/9/10
f 163/2/169 9/13/11 10/12/11 164/1/169
f 165/1/176 205/1/177 202/2/177 166/2/176
f 278/14/10 283/18/10 255/17/10 253/16/10 252/15/10
f 161/6/171 257/6/171 260/6/172 168/6/172
f 200/5/173 280/5/178 271/5/179 167/5/179
f 270/19/10 281/22/10 249/21/10 246/20/10
f 200/5/173 201/5/180 279/5/181 280/5/178
f 204/1/182 224/1/183 226/2/184 203/2/182
f 168/6/179 198/6/173 200/5/173 167/5/179
f 244/23/185 188/23/186 37/24/187 99/24/188
f 276/25/10 195/25/10 241/28/10 240/27/10 277/26/10
f 208/1/189 209/1/190 228/1/191 230/1/192
f 294/29/193 282/31/194 248/25/195 296/30/196
f 216/1/197 213/1/198 233/1/199 236/1/200
f 284/32/201 275/35/202 238/34/203 256/33/201
f 11/3/3 120/3/3 257/6/171 161/6/171
f 227/7/204 235/7/205 189/7/206 177/7/204
f 20/12/207 25/12/207 179/1/208 175/1/208
f 175/1/208 179/1/208 178/1/209 174/1/209
f 174/1/210 178/1/210 210/1/211 207/1/212
f 273/36/213 277/26/201 240/27/201 231/37/214
f 188/23/186 181/23/215 28/24/216 37/24/187
f 10/12/5 20/12/5 175/1/5 164/1/5
f 164/1/5 175/1/5 174/1/5 165/1/5
f 165/1/5 174/1/5 207/1/5 205/1/5
f 250/23/217 217/23/218 190/23/219 245/23/220
f 34/12/221 33/12/222 185/1/223 186/1/224
f 184/1/225 196/1/226 221/1/227 214/1/228
f 185/1/223 197/1/229 196/1/209 184/1/230
f 187/1/231 184/1/225 214/1/228 215/1/232
f 237/23/233 232/23/234 212/23/235 218/23/236
f 275/35/202 273/36/213 231/37/214 238/34/203
f 213/1/198 222/1/237 242/1/238 233/1/199
f 235/7/205 234/7/239 183/7/240 189/7/206
f 190/23/241 180/23/242 181/23/215 188/23/186
f 186/1/224 185/1/223 184/1/230 187/1/243
f 211/23/244 220/23/245 192/23/246 180/23/247
f 183/5/248 195/5/249 276/5/249 272/5/250
f 177/5/249 189/5/251 274/5/252 285/5/253 247/5/254
f 204/1/5 208/1/5 230/1/5 224/1/5
f 238/34/255 237/23/233 254/23/256 256/33/257
f 281/22/10 278/14/10 252/15/10 249/21/10
f 189/5/251 183/5/248 272/5/250 274/5/252
f 179/1/208 186/1/224 187/1/243 178/1/209
f 162/5/171 268/5/171 133/4/258 12/4/3
f 178/1/210 187/1/231 215/1/232 210/1/211
f 169/5/259 176/5/249 177/5/249 247/5/254 248/5/195
f 234/7/239 241/7/204 195/7/204 183/7/240
f 25/12/207 34/12/221 186/1/224 179/1/208
f 245/23/260 190/23/241 188/23/186 244/23/185
f 209/1/190 216/1/197 236/1/200 228/1/191
f 229/7/204 227/7/204 177/7/204 176/7/204
f 220/23/10 221/23/10 196/23/10 192/23/10
f 192/23/10 196/23/10 197/23/10 193/23/10
f 239/23/10 242/23/10 222/23/10 219/23/10
f 193/23/10 197/23/10 49/24/10 44/24/10
f 232/23/234 239/23/261 219/23/262 212/23/235
f 180/23/242 192/23/260 193/23/263 181/23/215
f 33/12/222 49/12/264 197/1/229 185/1/223
f 217/23/218 211/23/244 180/23/247 190/23/219
f 181/23/215 193/23/263 44/24/265 28/24/216
f 205/1/177 204/1/182 203/2/182 202/2/177
f 202/2/177 264/2/177 259/2/176 166/2/176
f 198/6/173 199/6/175 201/5/180 200/5/173
f 218/23/236 217/23/218 250/23/217 251/23/266
f 169/5/259 248/5/195 282/5/194 279/5/181 201/5/180
f 210/1/211 209/1/190 208/1/189 207/1/212
f 216/1/197 215/1/232 214/1/228 213/1/198
f 207/1/5 208/1/5 204/1/5 205/1/5
f 254/23/256 237/23/233 218/23/236 251/23/266
f 209/1/190 210/1/211 215/1/232 216/1/197
f 212/23/235 211/23/244 217/23/218 218/23/236
f 220/23/10 219/23/10 222/23/10 221/23/10
f 221/1/227 222/1/237 213/1/198 214/1/228
f 211/23/244 212/23/235 219/23/262 220/23/245
f 199/6/175 170/6/267 169/5/259 201/5/180
f 224/1/183 223/40/268 225/39/269 226/38/184
f 230/1/5 229/1/5 223/1/5 224/1/5
f 228/1/191 227/1/270 229/1/271 230/1/192
f 232/23/234 231/37/272 240/27/273 239/23/261
f 242/1/238 241/1/274 234/1/275 233/1/199
f 236/1/200 235/1/276 227/1/270 228/1/191
f 233/1/199 234/1/275 235/1/276 236/1/200
f 231/37/272 232/23/234 237/23/233 238/34/255
f 241/28/10 242/23/10 239/23/10 240/27/10
f 169/5/277 170/6/277 225/39/277 223/40/277
f 171/42/278 284/32/278 256/33/279 173/43/279
f 206/44/280 245/23/280 244/23/281 194/45/282
f 194/45/282 244/23/281 99/24/283 104/46/284
f 292/47/285 249/21/286 252/15/287 290/48/288
f 289/49/289 246/20/290 249/21/286 292/47/285
f 173/43/279 256/33/279 254/23/291 172/50/292
f 287/51/293 294/25/294 286/25/295 171/42/296
f 172/50/292 254/23/291 251/23/297 182/52/298
f 167/5/172 271/5/172 268/5/171 162/5/171
f 258/38/5 259/38/5 260/53/5 257/53/5
f 258/38/5 257/53/5 120/55/5 119/54/5
f 259/38/5 264/38/5 262/53/5 260/53/5
f 265/38/5 267/38/5 266/56/5 261/53/5 263/53/5
f 264/38/5 265/38/5 263/53/5 262/53/5
f 170/6/277 261/6/277 266/39/277 225/39/277
f 199/6/175 263/6/175 261/6/267 170/6/267
f 163/2/169 258/2/169 119/13/11 9/13/11
f 203/2/182 265/2/299 264/2/177 202/2/177
f 168/6/179 260/6/179 262/6/174 198/6/173
f 225/39/269 266/39/300 267/38/301 226/38/184
f 226/2/184 267/2/301 265/2/299 203/2/182
f 269/10/302 268/25/303 271/25/304 270/19/304
f 132/11/305 133/57/305 268/25/303 269/10/302
f 273/36/306 272/25/307 276/25/308 277/26/308
f 275/35/309 274/25/310 272/25/307 273/36/306
f 279/25/311 278/14/312 281/22/313 280/25/314
f 270/19/315 271/25/315 280/25/314 281/22/313
f 171/42/296 286/25/295 285/25/316 284/32/317
f 284/32/317 285/25/316 274/25/310 275/35/309
f 282/25/318 283/18/319 278/14/312 279/25/311
f 269/10/10 270/19/10 246/20/10 243/9/10
f 293/58/320 172/50/292 182/52/298 290/48/288
f 291/59/321 173/43/279 172/50/292 293/58/320
f 245/23/322 206/44/323 191/60/324 250/23/325
f 250/23/325 191/60/324 182/52/298 251/23/297
f 288/61/326 194/45/282 104/46/284 150/62/327
f 289/49/328 206/44/280 194/45/282 288/61/326
f 287/51/278 171/42/278 173/43/279 291/59/321
f 248/25/195 247/25/254 295/65/329 296/30/196
f 283/18/278 287/51/278 291/59/321 255/17/330
f 246/20/331 289/49/328 288/61/326 243/9/326
f 243/9/326 288/61/326 150/62/327 100/8/327
f 255/17/330 291/59/321 293/58/320 253/16/332
f 253/16/332 293/58/320 290/48/288 252/15/287
f 283/18/319 282/25/318 294/25/294 287/51/293
f 206/44/323 289/49/289 292/47/285 191/60/324
f 191/60/324 292/47/285 290/48/288 182/52/298
f 247/25/254 285/25/253 286/66/333 295/65/329
f 286/66/333 294/29/193 296/30/196 295/65/329
