# Blender 4.3.2
# www.blender.org
mtllib control_panel_holder.mtl
o Cube.010_export
v -0.264941 0.261511 -0.387076
v -0.294267 0.947468 -0.762188
v 0.254271 0.261511 -0.387076
v 0.283597 0.261511 -0.762187
v 0.283597 0.947468 -0.762188
v -1.601677 0.261511 -0.283926
v -1.672803 0.261511 -0.743500
v -0.294267 0.261511 -0.762187
v 1.591007 0.261511 -0.283926
v 1.662133 0.261511 -0.743500
v -0.264941 0.925174 -0.387076
v -0.276317 0.947468 -0.409370
v -1.601677 0.925174 -0.283926
v -1.578647 0.947468 -0.285702
v -1.672803 0.925174 -0.743500
v -1.649576 0.947468 -0.743815
v -0.303266 0.261511 -0.204235
v -0.288320 0.925346 -0.350115
v -0.313445 0.947468 -0.358139
v -1.580014 0.261511 -0.101418
v -1.587228 0.925281 -0.249059
v -1.564714 0.947468 -0.256980
v 0.265646 0.947468 -0.409370
v 0.254271 0.925174 -0.387076
v 1.567977 0.947468 -0.285702
v 1.591007 0.925174 -0.283926
v 1.638906 0.947468 -0.743815
v 1.662133 0.925174 -0.743500
v 0.360491 0.301987 -0.185875
v 0.292596 0.261511 -0.204235
v 0.277649 0.925346 -0.350115
v 0.354934 0.885239 -0.317530
v 0.302775 0.947468 -0.358139
v 1.569343 0.261511 -0.101418
v 1.503068 0.301991 -0.093012
v 1.576558 0.925281 -0.249059
v 1.554044 0.947468 -0.256980
v 1.503070 0.885239 -0.224710
v -0.323854 0.925715 -0.330037
v -0.330180 0.261511 -0.180074
v -1.555097 0.261511 -0.080536
v -1.555096 0.925718 -0.230481
v 0.319510 0.261511 -0.180074
v 0.313184 0.925715 -0.330037
v 1.544426 0.925718 -0.230481
v 1.544427 0.261511 -0.080536
v -0.365604 0.870104 -0.384687
v -0.371162 0.286852 -0.253032
v -1.513738 0.286855 -0.160168
v -1.513740 0.870103 -0.291867
v 0.360491 0.286852 -0.253032
v 0.354934 0.870104 -0.384687
v 1.503070 0.870103 -0.291867
v 1.503068 0.286855 -0.160168
v -0.365604 0.865755 -0.403982
v -0.371162 0.282503 -0.272327
v -1.513738 0.282507 -0.179464
v -1.513740 0.865754 -0.311162
v 0.360491 0.282503 -0.272327
v 0.354934 0.865755 -0.403982
v 1.503070 0.865754 -0.311162
v 1.503068 0.282507 -0.179464
v 0.350329 0.291951 -0.184437
v 0.344581 0.895276 -0.320631
v 1.513325 0.895276 -0.226142
v 1.513324 0.291953 -0.089918
v -0.371162 0.300076 -0.194356
v -0.362586 0.293518 -0.184662
v -0.356868 0.893709 -0.320147
v -0.365604 0.883328 -0.326011
v -1.522392 0.293521 -0.090401
v -1.513738 0.300079 -0.101494
v -1.513740 0.883327 -0.233191
v -1.522394 0.893709 -0.225918
vn 1.0000 -0.0000 -0.0000
vn -0.0000 -0.0000 -1.0000
vn 0.9864 0.0129 0.1639
vn -0.9864 0.0129 0.1639
vn -0.0000 -1.0000 -0.0000
vn -0.0000 -0.0000 1.0000
vn -0.0136 -0.0000 -0.9999
vn 0.9626 0.0189 0.2702
vn -0.0000 1.0000 -0.0000
vn -0.9882 -0.0000 0.1529
vn -1.0000 -0.0000 -0.0000
vn 0.0136 -0.0000 -0.9999
vn -0.9626 0.0189 0.2702
vn 0.9970 -0.0070 0.0775
vn 0.9882 -0.0000 0.1529
vn 0.3743 0.6610 0.6503
vn -0.3928 0.6358 0.6644
vn -0.3743 0.6610 0.6503
vn 0.3928 0.6358 0.6644
vn -0.6876 0.7183 0.1064
vn 0.5703 0.1699 0.8037
vn -0.5607 0.1782 0.8086
vn 0.0504 0.7808 0.6228
vn -0.6384 0.7155 0.2837
vn 0.5655 0.7286 0.3865
vn 0.6876 0.7183 0.1064
vn -0.5703 0.1699 0.8037
vn 0.5607 0.1782 0.8086
vn -0.0504 0.7808 0.6228
vn 0.6384 0.7155 0.2837
vn -0.5655 0.7286 0.3865
vn -0.0000 0.7071 0.7071
vn -0.9970 -0.0070 0.0775
vn -0.0179 0.9754 -0.2198
vn 0.0178 -0.9754 0.2198
vn -0.0789 0.2190 0.9725
vn -0.0787 0.2190 0.9725
vn -0.0787 0.2194 0.9725
vn -0.0789 0.2194 0.9724
vn 0.0787 0.2190 0.9725
vn 0.0789 0.2190 0.9725
vn 0.0789 0.2194 0.9724
vn 0.0179 0.9754 -0.2198
vn -0.0178 -0.9754 0.2198
vn 1.0000 0.0091 -0.0020
vn 0.0787 0.2194 0.9725
vn 0.0788 0.2192 0.9725
vn -0.0788 0.2192 0.9725
vn -1.0000 0.0091 -0.0020
vn -0.6792 0.1678 0.7145
vn 0.7349 0.1494 0.6615
vn 0.0682 -0.5336 0.8430
vn 0.0433 0.8449 0.5332
vt 0.545736 0.910690
vt 0.365243 0.901993
vt 0.376665 0.889014
vt 0.531362 0.892945
vt 0.738008 0.627228
vt 0.738008 0.815256
vt 0.579610 0.815256
vt 0.579610 0.627228
vt 0.278943 0.569172
vt 0.270856 0.583168
vt 0.065009 0.594837
vt 0.000000 0.524406
vt 0.569327 0.950575
vt 0.289292 0.996815
vt 0.354123 0.925876
vt 0.561108 0.936581
vt 0.587648 0.524406
vt 0.729970 0.524406
vt 0.883448 0.524406
vt 0.883448 0.706323
vt 0.741126 0.706323
vt 0.741126 0.524406
vt 0.561900 0.004315
vt 0.747704 0.005770
vt 0.744781 0.379206
vt 0.567164 0.377669
vt 0.559026 0.371459
vt 0.289292 0.524406
vt 0.558238 0.535991
vt 0.550362 0.552848
vt 0.342769 0.589540
vt 0.574076 0.539422
vt 0.579610 0.937600
vt 0.569522 0.928308
vt 0.559890 0.560733
vt 0.849460 0.000000
vt 0.869653 0.362605
vt 0.342669 0.601752
vt 0.352937 0.914781
vt 0.733088 0.911967
vt 0.584530 0.911967
vt 0.403349 -0.000000
vt 0.434826 0.352957
vt 0.310626 0.371459
vt 0.307752 0.004315
vt 0.732203 0.524406
vt 0.524989 0.506456
vt 0.075484 0.617657
vt 0.256609 0.608115
vt 0.240862 0.628260
vt 0.087984 0.631840
vt 0.466304 0.000000
vt 0.302488 0.377669
vt 0.124872 0.379206
vt 0.121948 0.005770
vt 0.000000 1.000000
vt 0.053821 0.933427
vt 0.264935 0.968429
vt 0.273078 0.985413
vt 0.289045 0.981747
vt 0.274484 0.960359
vt 0.279312 0.591348
vt 0.289292 0.581994
vt -0.000000 0.362605
vt 0.020193 0.000000
vt 0.063881 0.605888
vt 0.053619 0.921039
vt 0.944280 0.714965
vt 0.944279 0.902993
vt 0.847445 0.903568
vt 0.841144 0.896882
vt 0.841144 0.714965
vt 0.137449 0.524406
vt 0.344663 0.506456
vt 0.549174 0.566731
vt 0.558547 0.924141
vt 0.263615 0.954404
vt 0.268377 0.595595
vt 0.515662 0.503963
vt 0.353990 0.503963
vt 0.886566 0.714965
vt 0.738008 0.714965
vt 0.841144 0.903568
vt 0.738008 0.903568
vt 0.738008 0.721651
vt 0.744310 0.714965
vt 0.841144 0.715540
vt 0.354241 0.611657
vt 0.369316 0.623513
vt 0.536184 0.583396
vt 0.520217 0.602992
vt 0.062379 0.913324
vt 0.253915 0.942096
vt 0.259050 0.605528
vt 0.072812 0.614876
vt 0.539205 0.579622
vt 0.351373 0.609266
vt 0.235642 0.634660
vt 0.092346 0.636559
vt 0.375193 0.627779
vt 0.381013 0.884263
vt 0.362277 0.905290
vt 0.064718 0.911292
vt 0.081885 0.897775
vt 0.250951 0.938478
vt 0.232386 0.916049
vt 0.549100 0.914205
vt 0.514105 0.610297
vt 0.526040 0.886454
vt 0.087747 0.893449
vt 0.226252 0.908877
s 1
usemtl Material.010
f 73/1/1 72/2/1 49/3/1 50/4/1
f 8/5/2 2/6/2 5/7/2 4/8/2
f 26/9/3 36/10/3 34/11/3 9/12/3
f 13/13/4 6/14/4 20/15/4 21/16/4
f 8/5/5 4/8/5 3/17/5 1/18/5
f 3/19/6 24/20/6 11/21/6 1/22/6
f 2/23/7 8/24/7 7/25/7 15/26/7 16/27/7
f 1/28/8 11/29/8 18/30/8 17/31/8
f 12/32/9 14/33/9 22/34/9 19/35/9
f 8/24/5 1/36/5 6/37/5 7/25/5
f 6/14/5 1/28/5 17/31/5 40/38/5 41/39/5 20/15/5
f 5/7/9 2/6/9 12/40/9 23/41/9
f 23/42/9 25/43/9 27/44/9 5/45/9
f 6/46/10 13/47/10 15/26/10 7/25/10
f 35/48/11 38/49/11 53/50/11 54/51/11
f 12/52/9 2/23/9 16/27/9 14/43/9
f 5/45/12 27/44/12 28/53/12 10/54/12 4/55/12
f 3/56/13 30/57/13 31/58/13 24/59/13
f 23/60/9 33/61/9 37/62/9 25/63/9
f 4/55/5 10/54/5 9/64/5 3/65/5
f 9/12/5 34/11/5 46/66/5 43/67/5 30/57/5 3/56/5
f 4/68/14 5/69/14 23/70/14 24/71/14 3/72/14
f 9/73/15 10/54/15 28/53/15 26/74/15
f 18/30/16 19/35/16 39/75/16
f 21/16/17 42/76/17 22/34/17
f 31/58/18 44/77/18 33/61/18
f 36/10/19 37/62/19 45/78/19
f 14/79/20 16/27/20 15/26/20 13/47/20
f 17/31/21 18/30/21 39/75/21 40/38/21
f 41/39/22 42/76/22 21/16/22 20/15/22
f 19/35/23 22/34/23 42/76/23 39/75/23
f 13/13/24 21/16/24 22/34/24 14/33/24
f 18/30/25 11/29/25 12/32/25 19/35/25
f 26/74/26 28/53/26 27/44/26 25/80/26
f 43/67/27 44/77/27 31/58/27 30/57/27
f 34/11/28 36/10/28 45/78/28 46/66/28
f 44/77/29 45/78/29 37/62/29 33/61/29
f 25/63/30 37/62/30 36/10/30 26/9/30
f 33/61/31 23/60/31 24/59/31 31/58/31
f 23/81/32 12/82/32 11/21/32 24/20/32
f 8/83/33 1/84/33 11/85/33 12/86/33 2/87/33
f 72/2/34 67/88/34 48/89/34 49/3/34
f 70/90/35 73/1/35 50/4/35 47/91/35
f 63/92/36 64/93/37 44/77/37 43/67/36
f 65/94/38 66/95/39 46/66/39 45/78/38
f 64/93/37 65/94/38 45/78/38 44/77/37
f 69/96/40 68/97/41 40/38/41 39/75/40
f 66/95/39 63/92/36 43/67/36 46/66/39
f 54/51/11 53/50/11 61/98/11 62/99/11
f 49/3/34 48/89/34 56/100/34 57/101/34
f 68/97/41 71/102/42 41/39/42 40/38/41
f 29/103/43 35/48/43 54/51/43 51/104/43
f 38/49/44 32/105/44 52/106/44 53/50/44
f 32/105/45 29/103/45 51/104/45 52/106/45
f 71/102/42 74/107/46 42/76/46 41/39/42
f 74/107/46 69/96/40 39/75/40 42/76/46
f 56/100/47 55/108/47 58/109/47 57/101/47
f 59/110/48 62/99/48 61/98/48 60/111/48
f 47/91/35 50/4/35 58/109/35 55/108/35
f 48/89/49 47/91/49 55/108/49 56/100/49
f 51/104/43 54/51/43 62/99/43 59/110/43
f 53/50/44 52/106/44 60/111/44 61/98/44
f 52/106/45 51/104/45 59/110/45 60/111/45
f 50/4/1 49/3/1 57/101/1 58/109/1
f 35/48/39 29/103/36 63/92/36 66/95/39
f 32/105/37 38/49/38 65/94/38 64/93/37
f 38/49/38 35/48/39 66/95/39 65/94/38
f 29/103/36 32/105/37 64/93/37 63/92/36
f 70/90/50 67/88/50 68/97/50 69/96/50
f 72/2/51 73/1/51 74/107/51 71/102/51
f 73/1/52 70/90/52 69/96/52 74/107/52
f 71/102/53 68/97/53 67/88/53 72/2/53
f 67/88/49 70/90/49 47/91/49 48/89/49
