# Blender 4.3.2
# www.blender.org
mtllib fuel_diluter.mtl
o Cube.059_export.001
v -0.017124 0.037293 -0.018976
v -0.019746 0.041735 -0.026611
v 0.019746 0.041735 -0.026611
v 0.017125 0.037293 -0.018976
v -0.019746 0.041735 0.026611
v -0.017124 0.037293 0.018976
v 0.019746 0.041735 0.026611
v 0.017125 0.037293 0.018976
v 0.017125 0.037293 -0.000000
v 0.019782 0.041841 -0.000000
v -0.017124 0.037293 -0.000000
v -0.019782 0.041841 -0.000000
v -0.050669 0.114337 -0.081991
v -0.044203 0.120301 -0.076027
v 0.044203 0.120301 -0.076027
v 0.050669 0.114337 -0.081991
v -0.044203 0.120301 0.076027
v -0.050669 0.114337 0.081991
v 0.044203 0.120301 0.076027
v 0.050669 0.114337 0.081991
v 0.044043 0.114337 -0.000000
v 0.038059 0.120301 -0.000000
v -0.044043 0.114337 -0.000000
v -0.038059 0.120301 -0.000000
v -0.047468 0.045997 -0.075439
v -0.050669 0.051333 -0.081991
v 0.050669 0.051333 -0.081991
v 0.047468 0.045997 -0.075439
v -0.050669 0.051333 0.081991
v -0.047468 0.045997 0.075439
v 0.050669 0.051333 0.081991
v 0.047468 0.045997 0.075439
v 0.041293 0.045962 -0.000000
v 0.044043 0.051333 -0.000000
v -0.041293 0.045962 -0.000000
v -0.044043 0.051333 -0.000000
v -0.017124 -0.019456 -0.018976
v 0.017125 -0.019456 -0.018976
v -0.017124 -0.019456 0.018976
v 0.017125 -0.019456 0.018976
v 0.017125 -0.019456 0.000000
v -0.017124 -0.019456 0.000000
vn 0.1789 -0.9839 -0.0000
vn 0.1001 -0.9945 -0.0324
vn 0.4670 -0.8520 -0.2368
vn 0.5827 -0.8127 -0.0000
vn -0.1001 -0.9945 0.0324
vn 0.1001 -0.9945 0.0324
vn 0.4670 -0.8520 0.2368
vn -0.4670 -0.8520 0.2368
vn -0.0000 -0.0000 1.0000
vn -0.0000 -0.5399 0.8418
vn -0.0000 -0.5399 0.8417
vn 0.9650 -0.2622 -0.0000
vn 1.0000 -0.0000 -0.0000
vn 0.9462 -0.3237 0.0003
vn -0.9720 -0.2349 -0.0000
vn -0.9862 -0.1451 -0.0798
vn -0.9568 0.2804 -0.0773
vn -0.9206 0.3906 -0.0000
vn 0.3072 0.9085 0.2834
vn 0.3649 0.9310 -0.0000
vn -0.3649 0.9310 -0.0000
vn -0.3072 0.9085 0.2834
vn -0.9650 -0.2622 -0.0000
vn -1.0000 -0.0000 -0.0000
vn -0.9461 -0.3238 -0.0003
vn 0.9462 -0.3237 -0.0003
vn -0.1001 -0.9945 -0.0324
vn -0.1789 -0.9839 -0.0000
vn -0.5827 -0.8127 -0.0000
vn -0.4670 -0.8520 -0.2368
vn 0.3072 0.9085 -0.2834
vn -0.3072 0.9085 -0.2834
vn -0.0000 -0.3726 0.9280
vn -0.0000 0.2804 0.9599
vn -0.9862 -0.1451 0.0798
vn -0.9568 0.2804 0.0773
vn -0.9461 -0.3238 0.0003
vn 0.9862 -0.1451 -0.0798
vn 0.9720 -0.2349 -0.0000
vn 0.9206 0.3906 -0.0000
vn 0.9568 0.2804 -0.0773
vn 0.9862 -0.1451 0.0798
vn 0.9568 0.2804 0.0773
vn -0.0000 -0.8644 -0.5029
vn -0.0000 -0.5399 -0.8418
vn -0.0000 -0.5399 -0.8417
vn 0.8625 -0.5060 -0.0000
vn 0.8625 -0.5060 -0.0005
vn -0.0000 -0.8644 0.5029
vn -0.8625 -0.5061 -0.0000
vn -0.8625 -0.5061 0.0005
vn 0.8625 -0.5060 0.0005
vn -0.8625 -0.5061 -0.0005
vn -0.0000 0.2804 -0.9599
vn -0.0000 -0.3726 -0.9280
vn -0.0000 -1.0000 -0.0000
vn -0.0000 -0.0000 -1.0000
vt 0.625000 0.375000
vt 0.625000 0.250000
vt 0.625000 0.750000
vt 0.625000 0.500000
vt 0.375000 0.500000
vt 0.621875 0.500000
vt 0.621875 0.750000
vt 0.375000 0.750000
vt 0.621875 0.375000
vt 0.375000 0.375000
vt 0.375000 0.250000
vt 0.621875 0.250000
vt 0.625000 0.875000
vt 0.634093 0.515167
vt 0.750000 0.516983
vt 0.750000 0.733017
vt 0.634093 0.734833
vt 0.621875 0.875000
vt 0.375000 0.875000
vt 0.625000 1.000000
vt 0.865907 0.515167
vt 0.865907 0.734833
vt 0.621875 1.000000
vt 0.375000 1.000000
vt 0.625000 0.000000
vt 0.621875 0.000000
vt 0.625000 0.015951
vt 0.625000 0.234049
vt 0.625000 0.490175
vt 0.625000 0.990175
vt 0.625000 0.259825
vt 0.625000 0.759825
vt 0.250000 0.500000
vt 0.250000 0.750000
vt 0.125000 0.500000
vt 0.125000 0.750000
vt 0.375000 0.000000
s 1
f 10/1/1 3/2/2 28/2/3 33/1/4
f 5/3/5 7/4/6 32/4/7 30/3/8
f 40/5/9 8/6/10 6/7/11 39/8/9
f 9/9/12 41/10/13 38/11/13 4/12/14
f 36/13/15 29/3/16 18/3/17 23/13/18
f 19/14/19 22/15/20 24/16/21 17/17/22
f 11/18/23 42/19/24 39/8/24 6/7/25
f 40/5/13 41/10/13 9/9/12 8/6/26
f 2/20/27 12/13/28 35/13/29 25/20/30
f 7/4/6 10/1/1 33/1/4 32/4/7
f 22/15/20 15/21/31 14/22/32 24/16/21
f 29/3/33 31/4/33 20/4/34 18/3/34
f 12/13/28 5/3/5 30/3/8 35/13/29
f 26/20/35 36/13/15 23/13/18 13/20/36
f 1/23/37 37/24/24 42/19/24 11/18/23
f 31/4/38 34/1/39 21/1/40 20/4/41
f 34/1/39 27/2/42 16/2/43 21/1/40
f 2/25/44 3/2/44 4/12/45 1/26/46
f 10/1/47 7/4/48 8/6/26 9/9/12
f 7/4/49 5/3/49 6/7/11 8/6/10
f 12/13/50 2/20/51 1/23/37 11/18/23
f 3/2/52 10/1/47 9/9/12 4/12/14
f 5/3/53 12/13/50 11/18/23 6/7/25
f 14/27/32 15/28/31 16/2/54 13/25/54
f 22/1/20 19/29/19 20/4/41 21/1/40
f 19/14/19 17/17/22 18/3/34 20/4/34
f 24/13/21 14/30/32 13/20/36 23/13/18
f 15/31/31 22/1/20 21/1/40 16/2/43
f 17/32/22 24/13/21 23/13/18 18/3/17
f 3/2/2 2/25/27 25/25/30 28/2/3
f 26/25/55 27/2/55 28/2/3 25/25/30
f 34/1/39 31/4/38 32/4/7 33/1/4
f 31/4/33 29/3/33 30/3/8 32/4/7
f 36/13/15 26/20/35 25/20/30 35/13/29
f 27/2/42 34/1/39 33/1/4 28/2/3
f 29/3/16 36/13/15 35/13/29 30/3/8
f 27/2/55 26/25/55 13/25/54 16/2/54
f 41/33/56 40/5/56 39/8/56 42/34/56
f 38/35/56 41/33/56 42/34/56 37/36/56
f 4/12/45 38/11/57 37/37/57 1/26/46
