# Blender 4.3.1
# www.blender.org
mtllib Sphere.006_export.mtl
o Sphere.006_export
v 0.045383 0.318595 -0.054085
v 0.017826 0.064781 -0.021244
v 0.069530 0.318595 -0.012260
v 0.027311 0.064781 -0.004816
v 0.061144 0.318595 0.035301
v 0.024017 0.064781 0.013866
v 0.024148 0.318595 0.066345
v 0.009485 0.064781 0.026060
v -0.024148 0.318595 0.066345
v -0.009485 0.064781 0.026060
v -0.061144 0.318595 0.035301
v -0.024017 0.064781 0.013866
v 0.000000 0.053294 -0.000000
v -0.000000 0.377915 -0.000000
v -0.069530 0.318595 -0.012260
v -0.027311 0.064781 -0.004816
v -0.045383 0.318595 -0.054085
v -0.017826 0.064781 -0.021244
v -0.000000 0.318595 -0.070603
v 0.000000 0.064781 -0.027732
v 0.015135 0.100041 -0.018038
v 0.023189 0.100041 -0.004089
v 0.020392 0.100041 0.011773
v 0.008053 0.100041 0.022127
v -0.008053 0.100041 0.022127
v -0.020392 0.100041 0.011773
v -0.023189 0.100041 -0.004089
v -0.015135 0.100041 -0.018038
v 0.000000 0.100041 -0.023547
v 0.019495 0.248435 -0.023233
v 0.029868 0.248435 -0.005267
v 0.026265 0.248435 0.015164
v 0.010373 0.248435 0.028499
v -0.010373 0.248435 0.028499
v -0.026265 0.248435 0.015164
v -0.029867 0.248435 -0.005267
v -0.019495 0.248435 -0.023233
v 0.000000 0.248435 -0.030329
v 0.039552 0.287931 -0.047136
v 0.060597 0.287931 -0.010685
v 0.053288 0.287931 0.030766
v 0.021045 0.287931 0.057821
v -0.021045 0.287931 0.057821
v -0.053288 0.287931 0.030766
v -0.060597 0.287931 -0.010685
v -0.039552 0.287931 -0.047136
v -0.000000 0.287931 -0.061532
v 0.025410 0.263930 -0.030283
v 0.028297 0.269804 -0.033724
v 0.038931 0.263930 -0.006865
v 0.043354 0.269804 -0.007645
v 0.034235 0.263930 0.019766
v 0.038125 0.269804 0.022011
v 0.013521 0.263930 0.037147
v 0.015057 0.269804 0.041368
v -0.013520 0.263930 0.037147
v -0.015057 0.269804 0.041368
v -0.034235 0.263930 0.019766
v -0.038125 0.269804 0.022011
v -0.038930 0.263930 -0.006865
v -0.043354 0.269804 -0.007645
v -0.025410 0.263930 -0.030283
v -0.028297 0.269804 -0.033724
v 0.000000 0.269804 -0.044023
v 0.000000 0.263930 -0.039531
v 0.035921 0.354131 -0.042809
v 0.021735 0.371551 -0.025903
v 0.033299 0.371551 -0.005872
v 0.055034 0.354131 -0.009704
v 0.029283 0.371551 0.016907
v 0.048396 0.354131 0.027942
v 0.011565 0.371551 0.031774
v 0.019113 0.354131 0.052513
v -0.011565 0.371551 0.031774
v -0.019113 0.354131 0.052513
v -0.029283 0.371551 0.016907
v -0.048397 0.354131 0.027942
v -0.033300 0.371551 -0.005872
v -0.055035 0.354131 -0.009704
v -0.021735 0.371551 -0.025903
v -0.035921 0.354131 -0.042809
v -0.000000 0.371551 -0.033813
v -0.000000 0.354131 -0.055884
vn -0.0000 -0.4823 -0.8760
vn -0.0000 0.0491 -0.9988
vn 0.6420 0.0491 -0.7651
vn 0.5631 -0.4823 -0.6711
vn -0.0000 0.5781 -0.8160
vn 0.5245 0.5781 -0.6251
vn -0.0000 -1.0000 -0.0000
vn -0.0000 -0.4554 -0.8903
vn 0.5722 -0.4554 -0.6820
vn 0.9836 0.0491 -0.1734
vn 0.8036 0.5781 -0.1417
vn 0.7067 0.5781 0.4080
vn 0.8650 0.0491 0.4994
vn 0.8627 -0.4823 -0.1521
vn -0.0000 0.8899 -0.4561
vn -0.0000 1.0000 -0.0000
vn 0.2932 0.8899 -0.3494
vn 0.8767 -0.4554 -0.1546
vn 0.4492 0.8899 -0.0792
vn 0.7587 -0.4823 0.4380
vn 0.2791 0.5781 0.7668
vn 0.3416 0.0491 0.9386
vn 0.7710 -0.4554 0.4451
vn 0.3950 0.8899 0.2281
vn 0.2996 -0.4823 0.8232
vn -0.2791 0.5781 0.7668
vn -0.3416 0.0491 0.9386
vn 0.3045 -0.4554 0.8366
vn 0.1560 0.8899 0.4286
vn -0.2996 -0.4823 0.8232
vn -0.7067 0.5781 0.4080
vn -0.8650 0.0491 0.4994
vn -0.3045 -0.4554 0.8366
vn -0.1560 0.8899 0.4286
vn -0.3950 0.8899 0.2281
vn -0.7586 -0.4823 0.4380
vn -0.8036 0.5781 -0.1417
vn -0.9836 0.0491 -0.1734
vn -0.7710 -0.4554 0.4451
vn -0.8767 -0.4554 -0.1546
vn -0.4492 0.8899 -0.0792
vn -0.8627 -0.4823 -0.1521
vn -0.2932 0.8899 -0.3494
vn -0.5722 -0.4554 -0.6820
vn -0.6420 0.0491 -0.7651
vn -0.5245 0.5781 -0.6251
vn -0.5631 -0.4823 -0.6711
vn -0.6423 0.0369 -0.7655
vn -0.0000 0.0369 -0.9993
vn -0.9841 0.0369 -0.1735
vn -0.8654 0.0369 0.4997
vn -0.3418 0.0369 0.9391
vn 0.3418 0.0369 0.9391
vn 0.8654 0.0369 0.4997
vn 0.9841 0.0369 -0.1735
vn 0.6423 0.0369 -0.7655
vn -0.4838 -0.6585 -0.5765
vn -0.0000 -0.6585 -0.7526
vn -0.7412 -0.6585 -0.1307
vn -0.6518 -0.6585 0.3763
vn -0.2574 -0.6585 0.7072
vn 0.2574 -0.6585 0.7072
vn 0.6518 -0.6585 0.3763
vn 0.7412 -0.6585 -0.1307
vn 0.4838 -0.6585 -0.5765
vn -0.0000 -0.3024 -0.9532
vn 0.6127 -0.3024 -0.7302
vn 0.9387 -0.3024 -0.1655
vn 0.8255 -0.3024 0.4766
vn 0.3260 -0.3024 0.8957
vn -0.3260 -0.3024 0.8957
vn -0.8255 -0.3024 0.4766
vn -0.9387 -0.3024 -0.1655
vn -0.6127 -0.3024 -0.7302
vn -0.5299 -0.5660 -0.6315
vn -0.0000 -0.5660 -0.8244
vn -0.8119 -0.5660 -0.1432
vn -0.7140 -0.5660 0.4122
vn -0.2820 -0.5660 0.7747
vn 0.2820 -0.5660 0.7747
vn 0.7140 -0.5660 0.4122
vn 0.8119 -0.5660 -0.1432
vn 0.5299 -0.5660 -0.6315
vt 0.666667 0.480710
vt 0.666667 0.500000
vt 0.555556 0.500000
vt 0.555556 0.480710
vt 0.666667 0.677949
vt 0.555556 0.677949
vt 0.611111 0.000000
vt 0.666667 0.250000
vt 0.555556 0.250000
vt 0.444444 0.500000
vt 0.444444 0.677949
vt 0.333333 0.677949
vt 0.333333 0.500000
vt 0.444444 0.480710
vt 0.648739 0.830676
vt 0.611111 1.000000
vt 0.573484 0.830676
vt 0.500000 0.000000
vt 0.444444 0.250000
vt 0.537628 0.830676
vt 0.500000 1.000000
vt 0.462372 0.830676
vt 0.333333 0.480710
vt 0.222222 0.677949
vt 0.222222 0.500000
vt 0.388889 0.000000
vt 0.333333 0.250000
vt 0.426516 0.830676
vt 0.388889 1.000000
vt 0.351261 0.830676
vt 0.222222 0.480710
vt 0.111111 0.677949
vt 0.111111 0.500000
vt 0.277778 0.000000
vt 0.222222 0.250000
vt 0.315405 0.830676
vt 0.277778 1.000000
vt 0.240150 0.830676
vt 0.111111 0.480710
vt 0.000000 0.677949
vt 0.000000 0.500000
vt 0.166667 0.000000
vt 0.111111 0.250000
vt 0.204294 0.830676
vt 0.166667 1.000000
vt 0.129039 0.830676
vt 0.093183 0.830676
vt 0.055556 1.000000
vt 0.017928 0.830676
vt 0.000000 0.480710
vt 1.000000 0.500000
vt 1.000000 0.677949
vt 0.888889 0.677949
vt 0.888889 0.500000
vt 0.055556 0.000000
vt 0.000000 0.250000
vt 0.944444 0.000000
vt 1.000000 0.250000
vt 0.888889 0.250000
vt 0.982072 0.830676
vt 0.944444 1.000000
vt 0.906817 0.830676
vt 1.000000 0.480710
vt 0.888889 0.480710
vt 0.870961 0.830676
vt 0.833333 1.000000
vt 0.795706 0.830676
vt 0.833333 0.000000
vt 0.777778 0.250000
vt 0.777778 0.500000
vt 0.777778 0.677949
vt 0.777778 0.480710
vt 0.722222 0.000000
vt 0.759850 0.830676
vt 0.722222 1.000000
vt 0.684595 0.830676
vt 0.777778 0.308350
vt 0.666667 0.308350
vt 0.888889 0.308350
vt 1.000000 0.308350
vt 0.111111 0.308350
vt 0.000000 0.308350
vt 0.222222 0.308350
vt 0.333333 0.308350
vt 0.444444 0.308350
vt 0.555556 0.308350
vt 0.777778 0.463917
vt 0.666667 0.463917
vt 0.888889 0.463917
vt 1.000000 0.463917
vt 0.111111 0.463917
vt 0.000000 0.463917
vt 0.222222 0.463917
vt 0.333333 0.463917
vt 0.444444 0.463917
vt 0.555556 0.463917
vt 0.666667 0.446583
vt 0.555556 0.446583
vt 0.444444 0.446583
vt 0.333333 0.446583
vt 0.222222 0.446583
vt 0.111111 0.446583
vt 0.000000 0.446583
vt 1.000000 0.446583
vt 0.888889 0.446583
vt 0.777778 0.446583
vt 0.777778 0.458894
vt 0.666667 0.458894
vt 0.888889 0.458894
vt 1.000000 0.458894
vt 0.111111 0.458894
vt 0.000000 0.458894
vt 0.222222 0.458894
vt 0.333333 0.458894
vt 0.444444 0.458894
vt 0.555556 0.458894
s 1
usemtl Material.002
f 47/1/1 19/2/2 1/3/3 39/4/4
f 19/2/2 83/5/5 66/6/6 1/3/3
f 13/7/7 20/8/8 2/9/9
f 3/10/10 69/11/11 71/12/12 5/13/13
f 39/4/4 1/3/3 3/10/10 40/14/14
f 82/15/15 14/16/16 67/17/17
f 13/18/7 2/9/9 4/19/18
f 67/20/17 14/21/16 68/22/19
f 40/14/14 3/10/10 5/13/13 41/23/20
f 5/13/13 71/12/12 73/24/21 7/25/22
f 13/26/7 4/19/18 6/27/23
f 68/28/19 14/29/16 70/30/24
f 41/23/20 5/13/13 7/25/22 42/31/25
f 7/25/22 73/24/21 75/32/26 9/33/27
f 13/34/7 6/27/23 8/35/28
f 70/36/24 14/37/16 72/38/29
f 42/31/25 7/25/22 9/33/27 43/39/30
f 9/33/27 75/32/26 77/40/31 11/41/32
f 13/42/7 8/35/28 10/43/33
f 72/44/29 14/45/16 74/46/34
f 74/47/34 14/48/16 76/49/35
f 43/39/30 9/33/27 11/41/32 44/50/36
f 11/51/32 77/52/31 79/53/37 15/54/38
f 13/55/7 10/43/33 12/56/39
f 13/57/7 12/58/39 16/59/40
f 76/60/35 14/61/16 78/62/41
f 44/63/36 11/51/32 15/54/38 45/64/42
f 78/65/41 14/66/16 80/67/43
f 13/68/7 16/59/40 18/69/44
f 17/70/45 81/71/46 83/5/5 19/2/2
f 45/64/42 15/54/38 17/70/45 46/72/47
f 15/54/38 79/53/37 81/71/46 17/70/45
f 13/73/7 18/69/44 20/8/8
f 80/74/43 14/75/16 82/76/15
f 46/72/47 17/70/45 19/2/2 47/1/1
f 18/69/44 28/77/48 29/78/49 20/8/8
f 16/59/40 27/79/50 28/77/48 18/69/44
f 12/58/39 26/80/51 27/79/50 16/59/40
f 10/43/33 25/81/52 26/82/51 12/56/39
f 8/35/28 24/83/53 25/81/52 10/43/33
f 6/27/23 23/84/54 24/83/53 8/35/28
f 4/19/18 22/85/55 23/84/54 6/27/23
f 2/9/9 21/86/56 22/85/55 4/19/18
f 20/8/8 29/78/49 21/86/56 2/9/9
f 63/87/57 46/72/47 47/1/1 64/88/58
f 61/89/59 45/64/42 46/72/47 63/87/57
f 59/90/60 44/63/36 45/64/42 61/89/59
f 57/91/61 43/39/30 44/50/36 59/92/60
f 55/93/62 42/31/25 43/39/30 57/91/61
f 53/94/63 41/23/20 42/31/25 55/93/62
f 51/95/64 40/14/14 41/23/20 53/94/63
f 49/96/65 39/4/4 40/14/14 51/95/64
f 29/78/49 38/97/66 30/98/67 21/86/56
f 21/86/56 30/98/67 31/99/68 22/85/55
f 22/85/55 31/99/68 32/100/69 23/84/54
f 23/84/54 32/100/69 33/101/70 24/83/53
f 24/83/53 33/101/70 34/102/71 25/81/52
f 25/81/52 34/102/71 35/103/72 26/82/51
f 26/80/51 35/104/72 36/105/73 27/79/50
f 27/79/50 36/105/73 37/106/74 28/77/48
f 28/77/48 37/106/74 38/97/66 29/78/49
f 37/106/74 62/107/75 65/108/76 38/97/66
f 36/105/73 60/109/77 62/107/75 37/106/74
f 35/104/72 58/110/78 60/109/77 36/105/73
f 34/102/71 56/111/79 58/112/78 35/103/72
f 33/101/70 54/113/80 56/111/79 34/102/71
f 32/100/69 52/114/81 54/113/80 33/101/70
f 31/99/68 50/115/82 52/114/81 32/100/69
f 30/98/67 48/116/83 50/115/82 31/99/68
f 38/97/66 65/108/76 48/116/83 30/98/67
f 63/87/57 64/88/58 65/108/76 62/107/75
f 61/89/59 63/87/57 62/107/75 60/109/77
f 59/90/60 61/89/59 60/109/77 58/110/78
f 57/91/61 59/92/60 58/112/78 56/111/79
f 55/93/62 57/91/61 56/111/79 54/113/80
f 53/94/63 55/93/62 54/113/80 52/114/81
f 51/95/64 53/94/63 52/114/81 50/115/82
f 49/96/65 51/95/64 50/115/82 48/116/83
f 64/88/58 49/96/65 48/116/83 65/108/76
f 64/88/58 47/1/1 39/4/4 49/96/65
f 69/11/11 66/6/6 67/20/17 68/22/19
f 71/12/12 69/11/11 68/28/19 70/30/24
f 73/24/21 71/12/12 70/36/24 72/38/29
f 75/32/26 73/24/21 72/44/29 74/46/34
f 74/47/34 76/49/35 77/40/31 75/32/26
f 76/60/35 78/62/41 79/53/37 77/52/31
f 78/65/41 80/67/43 81/71/46 79/53/37
f 80/74/43 82/76/15 83/5/5 81/71/46
f 66/6/6 83/5/5 82/15/15 67/17/17
f 1/3/3 66/6/6 69/11/11 3/10/10
