# Blender 4.3.2
# www.blender.org
mtllib _keyboard_key_d_export.mtl
o _keyboard_key_d_export
v -0.050014 0.000000 0.000000
v -0.050014 -0.000000 -0.021110
v -0.050014 0.021508 -0.000000
v 0.050014 0.000000 0.000000
v -0.050014 0.000000 0.264744
v -0.050014 0.021508 0.264744
v 0.050014 0.000000 0.264744
v -0.043175 0.000000 0.281342
v -0.043175 0.021508 0.281342
v 0.043175 0.000000 0.281342
v -0.029827 0.000000 0.290333
v -0.029827 0.021508 0.290333
v 0.029827 0.000000 0.290333
v 0.029827 0.021508 0.290333
v 0.043175 0.021508 0.281342
v 0.050014 0.021508 0.264744
v 0.050014 0.021508 -0.000000
v 0.050014 0.021508 -0.021110
v -0.050014 0.021508 -0.021110
v 0.050014 -0.000000 -0.021110
vn -0.0000 -1.0000 -0.0000
vn -1.0000 -0.0000 -0.0000
vn -0.9810 -0.0000 0.1942
vn -0.7748 -0.0000 0.6322
vn -0.2921 -0.0000 0.9564
vn 0.2921 -0.0000 0.9564
vn 0.7748 -0.0000 0.6322
vn -0.0000 1.0000 -0.0000
vn 0.9810 -0.0000 0.1942
vn 1.0000 -0.0000 -0.0000
vn -0.0000 -0.0000 -1.0000
vt 0.207797 0.746377
vt 0.128481 0.749285
vt 0.127867 0.732545
vt 0.207183 0.729638
vt 0.225541 0.780171
vt 0.208676 0.780054
vt 0.208422 0.763432
vt 0.225541 0.763356
vt 0.217771 0.977343
vt 0.201691 0.969308
vt 0.120171 0.522619
vt 0.199487 0.519712
vt 0.207656 0.991661
vt 0.196258 0.979185
vt 0.125112 0.509259
vt 0.193581 0.506749
vt 0.194719 1.000000
vt 0.188696 0.984698
vt 0.135434 0.501742
vt 0.182736 0.500008
vt 0.147574 0.998869
vt 0.155547 0.984741
vt 0.136159 0.989351
vt 0.148229 0.979307
vt 0.128198 0.975536
vt 0.143005 0.969197
vt 0.113874 0.783497
vt 0.129863 0.782569
vt 0.129106 0.766340
vt 0.112771 0.767464
s 1
usemtl keyboard.010
f 2/1/1 20/2/1 4/3/1 1/4/1
f 1/5/2 3/6/2 19/7/2 2/8/2
f 3/6/2 1/5/2 5/9/3 6/10/3
f 1/4/1 4/3/1 7/11/1 5/12/1
f 6/10/3 5/9/3 8/13/4 9/14/4
f 5/12/1 7/11/1 10/15/1 8/16/1
f 9/14/4 8/13/4 11/17/5 12/18/5
f 8/16/1 10/15/1 13/19/1 11/20/1
f 13/21/6 14/22/6 12/18/5 11/17/5
f 10/23/7 15/24/7 14/22/6 13/21/6
f 15/24/8 9/14/8 12/18/8 14/22/8
f 7/25/9 16/26/9 15/24/7 10/23/7
f 16/26/8 6/10/8 9/14/8 15/24/8
f 4/27/10 17/28/10 16/26/9 7/25/9
f 17/28/8 3/6/8 6/10/8 16/26/8
f 18/29/8 19/7/8 3/6/8 17/28/8
f 20/30/10 18/29/10 17/28/10 4/27/10
f 2/1/11 19/7/11 18/29/11 20/2/11
