# Blender 4.3.1
# www.blender.org
mtllib Cube.002_export.mtl
o Cube.002_export
v 0.276565 0.014665 -0.075298
v 0.276565 0.036173 -0.075298
v 0.276565 0.014665 -0.096409
v 0.276565 0.036173 -0.096409
v 0.376593 0.014665 -0.075298
v 0.376593 0.036173 -0.075298
v 0.376593 0.014665 -0.096409
v 0.376593 0.036173 -0.096409
v 0.276565 0.014665 0.140448
v 0.276565 0.036173 0.140448
v 0.376593 0.014665 0.140448
v 0.376593 0.036173 0.140448
v 0.283405 0.014665 0.157046
v 0.283405 0.036173 0.157046
v 0.369754 0.014665 0.157046
v 0.369754 0.036173 0.157046
v 0.296752 0.014665 0.166037
v 0.296752 0.036173 0.166037
v 0.356406 0.014665 0.166037
v 0.356406 0.036173 0.166037
v 0.386596 0.014665 -0.075298
v 0.386596 0.036173 -0.075298
v 0.386596 0.014665 -0.096409
v 0.386596 0.036173 -0.096409
v 0.486623 0.014665 -0.075298
v 0.486623 0.036173 -0.075298
v 0.486623 0.014665 -0.096409
v 0.486623 0.036173 -0.096409
v 0.386596 0.014665 0.140448
v 0.386596 0.036173 0.140448
v 0.486623 0.014665 0.140448
v 0.486623 0.036173 0.140448
v 0.393435 0.014665 0.157046
v 0.393435 0.036173 0.157046
v 0.479784 0.014665 0.157046
v 0.479784 0.036173 0.157046
v 0.406782 0.014665 0.166037
v 0.406782 0.036173 0.166037
v 0.466437 0.014665 0.166037
v 0.466437 0.036173 0.166037
v -0.489803 0.014665 -0.075298
v -0.489803 0.036173 -0.075298
v -0.489803 0.014665 -0.096409
v -0.489803 0.036173 -0.096409
v -0.389775 0.014665 -0.075298
v -0.389775 0.036173 -0.075298
v -0.389775 0.014665 -0.096409
v -0.389775 0.036173 -0.096409
v -0.489803 0.014665 0.140448
v -0.489803 0.036173 0.140448
v -0.389775 0.014665 0.140448
v -0.389775 0.036173 0.140448
v -0.482963 0.014665 0.157046
v -0.482963 0.036173 0.157046
v -0.396614 0.014665 0.157046
v -0.396614 0.036173 0.157046
v -0.469616 0.014665 0.166037
v -0.469616 0.036173 0.166037
v -0.409961 0.014665 0.166037
v -0.409961 0.036173 0.166037
v -0.379772 0.014665 -0.075298
v -0.379772 0.036173 -0.075298
v -0.379772 0.014665 -0.096409
v -0.379772 0.036173 -0.096409
v -0.279745 0.014665 -0.075298
v -0.279745 0.036173 -0.075298
v -0.279745 0.014665 -0.096409
v -0.279745 0.036173 -0.096409
v -0.379772 0.014665 0.140448
v -0.379772 0.036173 0.140448
v -0.279745 0.014665 0.140448
v -0.279745 0.036173 0.140448
v -0.372933 0.014665 0.157046
v -0.372933 0.036173 0.157046
v -0.286584 0.014665 0.157046
v -0.286584 0.036173 0.157046
v -0.359586 0.014665 0.166037
v -0.359586 0.036173 0.166037
v -0.299931 0.014665 0.166037
v -0.299931 0.036173 0.166037
v -0.157924 0.014665 -0.075298
v -0.157924 0.036173 -0.075298
v -0.157924 0.014665 -0.096409
v -0.157924 0.036173 -0.096409
v -0.057897 0.014665 -0.075298
v -0.057897 0.036173 -0.075298
v -0.057897 0.014665 -0.096409
v -0.057897 0.036173 -0.096409
v -0.157924 0.014665 0.140448
v -0.157924 0.036173 0.140448
v -0.057897 0.014665 0.140448
v -0.057897 0.036173 0.140448
v -0.151085 0.014665 0.157046
v -0.151085 0.036173 0.157046
v -0.064736 0.014665 0.157046
v -0.064736 0.036173 0.157046
v -0.137738 0.014665 0.166037
v -0.137738 0.036173 0.166037
v -0.078083 0.014665 0.166037
v -0.078083 0.036173 0.166037
v -0.047894 0.014665 -0.075298
v -0.047894 0.036173 -0.075298
v -0.047894 0.014665 -0.096409
v -0.047894 0.036173 -0.096409
v 0.052134 0.014665 -0.075298
v 0.052134 0.036173 -0.075298
v 0.052134 0.014665 -0.096409
v 0.052134 0.036173 -0.096409
v -0.047894 0.014665 0.140448
v -0.047894 0.036173 0.140448
v 0.052134 0.014665 0.140448
v 0.052134 0.036173 0.140448
v -0.041055 0.014665 0.157046
v -0.041055 0.036173 0.157046
v 0.045294 0.014665 0.157046
v 0.045294 0.036173 0.157046
v -0.027707 0.014665 0.166037
v -0.027707 0.036173 0.166037
v 0.031947 0.014665 0.166037
v 0.031947 0.036173 0.166037
v 0.062136 0.014665 -0.075298
v 0.062136 0.036173 -0.075298
v 0.062136 0.014665 -0.096409
v 0.062136 0.036173 -0.096409
v 0.162164 0.014665 -0.075298
v 0.162164 0.036173 -0.075298
v 0.162164 0.014665 -0.096409
v 0.162164 0.036173 -0.096409
v 0.062136 0.014665 0.140448
v 0.062136 0.036173 0.140448
v 0.162164 0.014665 0.140448
v 0.162164 0.036173 0.140448
v 0.068976 0.014665 0.157046
v 0.068976 0.036173 0.157046
v 0.155325 0.014665 0.157046
v 0.155325 0.036173 0.157046
v 0.082323 0.014665 0.166037
v 0.082323 0.036173 0.166037
v 0.141978 0.014665 0.166037
v 0.141978 0.036173 0.166037
vn -1.0000 -0.0000 -0.0000
vn -0.0000 -0.0000 -1.0000
vn 1.0000 -0.0000 -0.0000
vn -0.0000 1.0000 -0.0000
vn -0.0000 -1.0000 -0.0000
vn 0.9246 -0.0000 0.3810
vn -0.9246 -0.0000 0.3810
vn -0.0000 -0.0000 1.0000
vn 0.5587 -0.0000 0.8294
vn -0.5587 -0.0000 0.8294
vt 0.282512 0.158310
vt 0.295330 0.158436
vt 0.295563 0.171052
vt 0.282512 0.171126
vt 0.296165 0.183986
vt 0.355713 0.168250
vt 0.356315 0.181184
vt 0.368072 0.167199
vt 0.354971 0.155975
vt 0.367040 0.155068
vt 0.300731 0.041834
vt 0.344599 0.041871
vt 0.356907 0.193878
vt 0.296757 0.196681
vt 0.304789 0.034442
vt 0.340659 0.034308
vt 0.355651 0.037030
vt 0.288676 0.035804
vt 0.362950 0.323614
vt 0.302800 0.326416
vt 0.310436 0.030317
vt 0.335183 0.030256
vt 0.349638 0.026767
vt 0.359303 0.333787
vt 0.307378 0.336206
vt 0.296265 0.025110
vt 0.341103 0.019703
vt 0.305932 0.018890
vt 0.351528 0.339567
vt 0.315656 0.341238
vt 0.111392 0.158324
vt 0.124210 0.158449
vt 0.124443 0.171065
vt 0.111392 0.171139
vt 0.125045 0.183999
vt 0.184592 0.168266
vt 0.185194 0.181200
vt 0.196951 0.167215
vt 0.183850 0.155991
vt 0.195919 0.155084
vt 0.129595 0.041841
vt 0.173461 0.041895
vt 0.185784 0.193894
vt 0.125635 0.196693
vt 0.133648 0.034439
vt 0.169518 0.034333
vt 0.184518 0.037041
vt 0.117544 0.035830
vt 0.191821 0.323628
vt 0.131672 0.326427
vt 0.139245 0.030296
vt 0.163998 0.030287
vt 0.178491 0.026768
vt 0.188173 0.333800
vt 0.136249 0.336216
vt 0.125103 0.025134
vt 0.169922 0.019707
vt 0.134741 0.018890
vt 0.180399 0.339580
vt 0.144527 0.341249
vt 0.196951 0.158310
vt 0.209769 0.158436
vt 0.210002 0.171052
vt 0.196951 0.171126
vt 0.210605 0.183986
vt 0.270152 0.168250
vt 0.270755 0.181184
vt 0.282512 0.167199
vt 0.269410 0.155975
vt 0.281480 0.155068
vt 0.215171 0.041834
vt 0.259039 0.041871
vt 0.271346 0.193878
vt 0.211196 0.196681
vt 0.219229 0.034442
vt 0.255099 0.034308
vt 0.270091 0.037030
vt 0.203115 0.035804
vt 0.277390 0.323614
vt 0.217240 0.326416
vt 0.224875 0.030317
vt 0.249623 0.030256
vt 0.264078 0.026767
vt 0.273742 0.333787
vt 0.221818 0.336206
vt 0.210705 0.025110
vt 0.255543 0.019703
vt 0.220372 0.018890
vt 0.265968 0.339567
vt 0.230096 0.341238
vt 0.025834 0.158324
vt 0.038651 0.158449
vt 0.038884 0.171065
vt 0.025834 0.171139
vt 0.039486 0.183999
vt 0.099033 0.168266
vt 0.099635 0.181200
vt 0.111392 0.167215
vt 0.098291 0.155991
vt 0.110361 0.155084
vt 0.044036 0.041841
vt 0.087902 0.041895
vt 0.100225 0.193894
vt 0.040076 0.196693
vt 0.048089 0.034439
vt 0.083959 0.034333
vt 0.098959 0.037041
vt 0.031985 0.035830
vt 0.106262 0.323628
vt 0.046113 0.326427
vt 0.053686 0.030296
vt 0.078439 0.030287
vt 0.092932 0.026768
vt 0.102614 0.333800
vt 0.050690 0.336216
vt 0.039545 0.025134
vt 0.084363 0.019707
vt 0.049182 0.018890
vt 0.094840 0.339580
vt 0.058968 0.341249
vt 0.451613 0.155022
vt 0.464128 0.155145
vt 0.464356 0.167463
vt 0.451613 0.167535
vt 0.464944 0.180092
vt 0.523087 0.164727
vt 0.523676 0.177356
vt 0.535155 0.163701
vt 0.522363 0.152742
vt 0.534148 0.151856
vt 0.469403 0.041293
vt 0.512236 0.041329
vt 0.524253 0.189751
vt 0.465522 0.192487
vt 0.473365 0.034075
vt 0.508389 0.033945
vt 0.523027 0.036602
vt 0.457632 0.035405
vt 0.530155 0.316427
vt 0.471423 0.319163
vt 0.478878 0.030048
vt 0.503042 0.029988
vt 0.517156 0.026582
vt 0.526593 0.326360
vt 0.475893 0.328722
vt 0.465042 0.024963
vt 0.508822 0.019684
vt 0.474481 0.018890
vt 0.519002 0.332004
vt 0.483976 0.333635
vt 0.368072 0.155035
vt 0.380587 0.155158
vt 0.380815 0.167476
vt 0.368072 0.167548
vt 0.381402 0.180105
vt 0.439545 0.164743
vt 0.440133 0.177372
vt 0.451613 0.163717
vt 0.438820 0.152758
vt 0.450606 0.151872
vt 0.385845 0.041300
vt 0.428677 0.041353
vt 0.440709 0.189767
vt 0.381979 0.192500
vt 0.389803 0.034072
vt 0.424827 0.033969
vt 0.439473 0.036613
vt 0.374079 0.035431
vt 0.446604 0.316440
vt 0.387874 0.319173
vt 0.395268 0.030027
vt 0.419437 0.030018
vt 0.433588 0.026582
vt 0.443042 0.326373
vt 0.392343 0.328732
vt 0.381460 0.024987
vt 0.425221 0.019688
vt 0.390870 0.018890
vt 0.435451 0.332016
vt 0.400425 0.333646
vt 0.618698 0.197503
vt 0.606182 0.197380
vt 0.605955 0.185062
vt 0.618698 0.184989
vt 0.605366 0.172433
vt 0.547223 0.187798
vt 0.546635 0.175169
vt 0.535155 0.188824
vt 0.547948 0.199783
vt 0.536163 0.200669
vt 0.600908 0.311232
vt 0.558074 0.311196
vt 0.546057 0.162774
vt 0.604789 0.160038
vt 0.596946 0.318450
vt 0.561922 0.318580
vt 0.547284 0.315923
vt 0.612679 0.317120
vt 0.540156 0.036098
vt 0.598887 0.033362
vt 0.591432 0.322477
vt 0.567268 0.322537
vt 0.553155 0.325943
vt 0.543718 0.026165
vt 0.594418 0.023803
vt 0.605268 0.327562
vt 0.561488 0.332841
vt 0.595830 0.333635
vt 0.551309 0.020521
vt 0.586335 0.018890
s 1
usemtl keyboard2
f 1/1/1 2/2/1 4/3/1 3/4/1
f 3/5/2 4/3/2 8/6/2 7/7/2
f 7/8/3 8/6/3 6/9/3 5/10/3
f 6/9/4 2/2/4 10/11/4 12/12/4
f 3/5/5 7/7/5 5/13/5 1/14/5
f 8/6/4 4/3/4 2/2/4 6/9/4
f 12/12/4 10/11/4 14/15/4 16/16/4
f 5/10/3 6/9/3 12/12/3 11/17/3
f 2/2/1 1/1/1 9/18/1 10/11/1
f 1/14/5 5/13/5 11/19/5 9/20/5
f 16/16/4 14/15/4 18/21/4 20/22/4
f 11/17/6 12/12/6 16/16/6 15/23/6
f 9/20/5 11/19/5 15/24/5 13/25/5
f 10/11/7 9/18/7 13/26/7 14/15/7
f 19/27/8 20/22/8 18/21/8 17/28/8
f 15/23/9 16/16/9 20/22/9 19/27/9
f 13/25/5 15/24/5 19/29/5 17/30/5
f 14/15/10 13/26/10 17/28/10 18/21/10
f 21/31/1 22/32/1 24/33/1 23/34/1
f 23/35/2 24/33/2 28/36/2 27/37/2
f 27/38/3 28/36/3 26/39/3 25/40/3
f 26/39/4 22/32/4 30/41/4 32/42/4
f 23/35/5 27/37/5 25/43/5 21/44/5
f 28/36/4 24/33/4 22/32/4 26/39/4
f 32/42/4 30/41/4 34/45/4 36/46/4
f 25/40/3 26/39/3 32/42/3 31/47/3
f 22/32/1 21/31/1 29/48/1 30/41/1
f 21/44/5 25/43/5 31/49/5 29/50/5
f 36/46/4 34/45/4 38/51/4 40/52/4
f 31/47/6 32/42/6 36/46/6 35/53/6
f 29/50/5 31/49/5 35/54/5 33/55/5
f 30/41/7 29/48/7 33/56/7 34/45/7
f 39/57/8 40/52/8 38/51/8 37/58/8
f 35/53/9 36/46/9 40/52/9 39/57/9
f 33/55/5 35/54/5 39/59/5 37/60/5
f 34/45/10 33/56/10 37/58/10 38/51/10
f 41/61/1 42/62/1 44/63/1 43/64/1
f 43/65/2 44/63/2 48/66/2 47/67/2
f 47/68/3 48/66/3 46/69/3 45/70/3
f 46/69/4 42/62/4 50/71/4 52/72/4
f 43/65/5 47/67/5 45/73/5 41/74/5
f 48/66/4 44/63/4 42/62/4 46/69/4
f 52/72/4 50/71/4 54/75/4 56/76/4
f 45/70/3 46/69/3 52/72/3 51/77/3
f 42/62/1 41/61/1 49/78/1 50/71/1
f 41/74/5 45/73/5 51/79/5 49/80/5
f 56/76/4 54/75/4 58/81/4 60/82/4
f 51/77/6 52/72/6 56/76/6 55/83/6
f 49/80/5 51/79/5 55/84/5 53/85/5
f 50/71/7 49/78/7 53/86/7 54/75/7
f 59/87/8 60/82/8 58/81/8 57/88/8
f 55/83/9 56/76/9 60/82/9 59/87/9
f 53/85/5 55/84/5 59/89/5 57/90/5
f 54/75/10 53/86/10 57/88/10 58/81/10
f 61/91/1 62/92/1 64/93/1 63/94/1
f 63/95/2 64/93/2 68/96/2 67/97/2
f 67/98/3 68/96/3 66/99/3 65/100/3
f 66/99/4 62/92/4 70/101/4 72/102/4
f 63/95/5 67/97/5 65/103/5 61/104/5
f 68/96/4 64/93/4 62/92/4 66/99/4
f 72/102/4 70/101/4 74/105/4 76/106/4
f 65/100/3 66/99/3 72/102/3 71/107/3
f 62/92/1 61/91/1 69/108/1 70/101/1
f 61/104/5 65/103/5 71/109/5 69/110/5
f 76/106/4 74/105/4 78/111/4 80/112/4
f 71/107/6 72/102/6 76/106/6 75/113/6
f 69/110/5 71/109/5 75/114/5 73/115/5
f 70/101/7 69/108/7 73/116/7 74/105/7
f 79/117/8 80/112/8 78/111/8 77/118/8
f 75/113/9 76/106/9 80/112/9 79/117/9
f 73/115/5 75/114/5 79/119/5 77/120/5
f 74/105/10 73/116/10 77/118/10 78/111/10
f 81/121/1 82/122/1 84/123/1 83/124/1
f 83/125/2 84/123/2 88/126/2 87/127/2
f 87/128/3 88/126/3 86/129/3 85/130/3
f 86/129/4 82/122/4 90/131/4 92/132/4
f 83/125/5 87/127/5 85/133/5 81/134/5
f 88/126/4 84/123/4 82/122/4 86/129/4
f 92/132/4 90/131/4 94/135/4 96/136/4
f 85/130/3 86/129/3 92/132/3 91/137/3
f 82/122/1 81/121/1 89/138/1 90/131/1
f 81/134/5 85/133/5 91/139/5 89/140/5
f 96/136/4 94/135/4 98/141/4 100/142/4
f 91/137/6 92/132/6 96/136/6 95/143/6
f 89/140/5 91/139/5 95/144/5 93/145/5
f 90/131/7 89/138/7 93/146/7 94/135/7
f 99/147/8 100/142/8 98/141/8 97/148/8
f 95/143/9 96/136/9 100/142/9 99/147/9
f 93/145/5 95/144/5 99/149/5 97/150/5
f 94/135/10 93/146/10 97/148/10 98/141/10
f 101/151/1 102/152/1 104/153/1 103/154/1
f 103/155/2 104/153/2 108/156/2 107/157/2
f 107/158/3 108/156/3 106/159/3 105/160/3
f 106/159/4 102/152/4 110/161/4 112/162/4
f 103/155/5 107/157/5 105/163/5 101/164/5
f 108/156/4 104/153/4 102/152/4 106/159/4
f 112/162/4 110/161/4 114/165/4 116/166/4
f 105/160/3 106/159/3 112/162/3 111/167/3
f 102/152/1 101/151/1 109/168/1 110/161/1
f 101/164/5 105/163/5 111/169/5 109/170/5
f 116/166/4 114/165/4 118/171/4 120/172/4
f 111/167/6 112/162/6 116/166/6 115/173/6
f 109/170/5 111/169/5 115/174/5 113/175/5
f 110/161/7 109/168/7 113/176/7 114/165/7
f 119/177/8 120/172/8 118/171/8 117/178/8
f 115/173/9 116/166/9 120/172/9 119/177/9
f 113/175/5 115/174/5 119/179/5 117/180/5
f 114/165/10 113/176/10 117/178/10 118/171/10
f 121/181/1 122/182/1 124/183/1 123/184/1
f 123/185/2 124/183/2 128/186/2 127/187/2
f 127/188/3 128/186/3 126/189/3 125/190/3
f 126/189/4 122/182/4 130/191/4 132/192/4
f 123/185/5 127/187/5 125/193/5 121/194/5
f 128/186/4 124/183/4 122/182/4 126/189/4
f 132/192/4 130/191/4 134/195/4 136/196/4
f 125/190/3 126/189/3 132/192/3 131/197/3
f 122/182/1 121/181/1 129/198/1 130/191/1
f 121/194/5 125/193/5 131/199/5 129/200/5
f 136/196/4 134/195/4 138/201/4 140/202/4
f 131/197/6 132/192/6 136/196/6 135/203/6
f 129/200/5 131/199/5 135/204/5 133/205/5
f 130/191/7 129/198/7 133/206/7 134/195/7
f 139/207/8 140/202/8 138/201/8 137/208/8
f 135/203/9 136/196/9 140/202/9 139/207/9
f 133/205/5 135/204/5 139/209/5 137/210/5
f 134/195/10 133/206/10 137/208/10 138/201/10
