# Blender 4.3.1
# www.blender.org
mtllib Cube.037_export.mtl
o Cube.037_export
v -0.696690 -0.049462 0.009807
v -0.696690 0.066614 0.009807
v -0.637217 -0.049462 -0.111063
v -0.637217 0.066614 -0.111064
v 0.692376 -0.049462 0.009807
v 0.692376 0.066614 0.009807
v 0.634039 -0.049462 -0.111063
v 0.634039 0.066614 -0.111064
v -0.511571 -0.049462 -0.111063
v -0.511571 0.066614 -0.111064
v -0.559289 -0.049462 0.009807
v -0.559290 0.066614 0.009807
v 0.513434 0.066614 -0.111064
v 0.561607 -0.049462 0.009807
v 0.513434 -0.049462 -0.111063
v 0.561607 0.066614 0.009807
v -0.696690 -0.049462 0.233044
v -0.696690 0.066614 0.233044
v -0.559289 -0.049462 0.233044
v -0.559290 0.066614 0.233044
v 0.692376 -0.049462 0.253121
v 0.692376 0.066614 0.253121
v 0.561607 -0.049462 0.253121
v 0.561607 0.066614 0.253121
v 0.000932 -0.049462 -0.111063
v 0.001159 0.066614 0.009807
v 0.000932 0.066614 -0.111064
v 0.001159 -0.049462 0.009807
v -0.255320 -0.049462 -0.111063
v -0.279066 0.066614 0.009807
v -0.255320 0.066614 -0.111064
v -0.279065 -0.049462 0.009807
v 0.257183 0.066614 -0.111064
v 0.281383 -0.049462 0.009807
v 0.257183 -0.049462 -0.111063
v 0.281383 0.066614 0.009807
v -0.529871 -0.049462 -0.168426
v -0.529871 0.066614 -0.168426
v 0.528742 -0.049462 -0.168426
v 0.528742 0.066614 -0.168426
v -0.425441 -0.049462 -0.168426
v -0.425441 0.066614 -0.168426
v 0.426484 0.066614 -0.168426
v 0.426484 -0.049462 -0.168426
v 0.000522 -0.049462 -0.168426
v 0.000522 0.066614 -0.168426
v -0.212459 -0.049462 -0.168426
v -0.212459 0.066614 -0.168426
v 0.213503 0.066614 -0.168426
v 0.213503 -0.049462 -0.168426
v -0.680106 -0.049462 0.262921
v -0.680106 0.066614 0.262921
v -0.575874 -0.049462 0.262921
v -0.575874 0.066614 0.262921
v 0.678035 -0.049462 0.282998
v 0.678035 0.066614 0.282998
v 0.575948 -0.049462 0.282998
v 0.575948 0.066614 0.282998
v -0.368718 -0.049462 -0.194717
v -0.368718 0.066614 -0.194717
v 0.368111 -0.049462 -0.194717
v 0.368111 0.066614 -0.194717
v -0.296031 -0.049462 -0.194717
v -0.296031 0.066614 -0.194717
v 0.296936 0.066614 -0.194717
v 0.296936 -0.049462 -0.194717
v 0.000452 -0.049462 -0.194717
v 0.000452 0.066614 -0.194717
v -0.147789 -0.049462 -0.194717
v -0.147789 0.066614 -0.194717
v 0.148694 0.066614 -0.194717
v 0.148694 -0.049462 -0.194717
v -0.696690 -0.049462 0.121426
v -0.696690 0.066614 0.121426
v -0.559290 0.066614 0.121426
v 0.561607 0.066614 0.119016
v 0.692376 0.066614 0.119016
v 0.692376 -0.049462 0.119016
v 0.561607 -0.049462 0.119016
v -0.696690 -0.016294 0.009807
v -0.637217 -0.016294 -0.111063
v 0.634039 -0.016294 -0.111063
v 0.692376 -0.016294 0.009807
v -0.559290 -0.016294 0.009807
v 0.561607 -0.016294 0.009807
v -0.696690 -0.016294 0.233044
v -0.559290 -0.016294 0.233044
v 0.692376 -0.016294 0.253121
v 0.561607 -0.016294 0.253121
v 0.001159 -0.016294 0.009807
v -0.279065 -0.016294 0.009807
v 0.281383 -0.016294 0.009807
v -0.529871 -0.016294 -0.168426
v 0.528742 -0.016294 -0.168426
v -0.680106 -0.016294 0.262921
v -0.575874 -0.016294 0.262921
v 0.678035 -0.016294 0.282998
v 0.575948 -0.016294 0.282998
v -0.368718 -0.016294 -0.194717
v 0.368111 -0.016294 -0.194717
v -0.296031 -0.016294 -0.194717
v 0.296936 -0.016294 -0.194717
v 0.000452 -0.016294 -0.194717
v -0.147789 -0.016294 -0.194717
v 0.148694 -0.016294 -0.194717
v -0.696690 -0.016294 0.121426
v 0.692376 -0.016294 0.119016
v -0.559290 -0.016294 0.120184
v -0.559289 -0.049462 0.120184
v 0.281383 -0.049462 0.120184
v 0.561607 -0.016294 0.120184
v -0.279065 -0.049462 0.120184
v 0.001159 -0.049462 0.120184
v 0.001159 -0.016294 0.120184
v -0.279065 -0.016294 0.120184
v 0.281383 -0.016294 0.120184
vn -0.8973 -0.0000 -0.4415
vn -0.0000 -1.0000 -0.0000
vn 0.9006 -0.0000 -0.4347
vn -1.0000 -0.0000 -0.0000
vn -0.0000 1.0000 -0.0000
vn -0.0000 -0.0000 1.0000
vn 1.0000 -0.0000 -0.0000
vn 0.8743 -0.0000 0.4853
vn 0.4784 -0.0000 -0.8781
vn -0.1610 -0.0000 -0.9870
vn -0.4713 -0.0000 -0.8820
vn 0.9015 -0.0000 0.4327
vn -0.9015 -0.0000 0.4327
vn -0.8743 -0.0000 0.4853
vn -0.0000 -0.0000 -1.0000
vn 0.1615 -0.0000 -0.9869
vn 0.0021 -0.0176 0.9998
vt 0.711149 0.933231
vt 0.710984 0.968859
vt 0.653094 0.968592
vt 0.653259 0.932964
vt 0.410525 0.427925
vt 0.300407 0.426892
vt 0.319057 0.402414
vt 0.410580 0.403273
vt 0.876244 0.615902
vt 0.875910 0.651530
vt 0.818236 0.650988
vt 0.818570 0.615361
vt 0.759116 0.933452
vt 0.759181 0.919198
vt 0.807148 0.919420
vt 0.807082 0.933673
vt 0.630760 0.429991
vt 0.682587 0.430477
vt 0.707169 0.482654
vt 0.650974 0.482127
vt 0.458298 0.728612
vt 0.404313 0.727500
vt 0.379831 0.675041
vt 0.438865 0.676257
vt 0.568397 0.730880
vt 0.559264 0.678738
vt 0.136297 0.425352
vt 0.190290 0.425858
vt 0.169297 0.477607
vt 0.110252 0.477053
vt 0.857104 0.857959
vt 0.857269 0.822331
vt 0.977693 0.822889
vt 0.977527 0.858517
vt 0.593627 0.404990
vt 0.637570 0.405403
vt 0.977613 0.640414
vt 0.921428 0.639256
vt 0.922615 0.581638
vt 0.978800 0.582795
vt 0.950512 0.738752
vt 0.898694 0.737684
vt 0.920461 0.686178
vt 0.976647 0.687335
vt 0.520643 0.428958
vt 0.530554 0.480997
vt 0.502104 0.404132
vt 0.440841 0.580343
vt 0.381806 0.579127
vt 0.389196 0.566437
vt 0.433980 0.567360
vt 0.439853 0.628300
vt 0.380818 0.627084
vt 0.929745 0.934239
vt 0.929047 0.969866
vt 0.881080 0.969644
vt 0.881244 0.934016
vt 0.109802 0.525018
vt 0.168852 0.525039
vt 0.168397 0.573538
vt 0.109352 0.572984
vt 0.866395 0.969576
vt 0.866560 0.933948
vt 0.650533 0.529056
vt 0.706728 0.529583
vt 0.706188 0.587212
vt 0.649993 0.586685
vt 0.584534 0.613165
vt 0.584165 0.598907
vt 0.641794 0.599448
vt 0.641660 0.613701
vt 0.771640 0.614920
vt 0.771306 0.650548
vt 0.713678 0.650007
vt 0.714012 0.614380
vt 0.977758 0.808626
vt 0.977693 0.822880
vt 0.926163 0.822642
vt 0.926229 0.808388
vt 0.410135 0.479867
vt 0.289716 0.478737
vt 0.616258 0.856844
vt 0.616423 0.821215
vt 0.736846 0.821773
vt 0.736681 0.857402
vt 0.788595 0.735416
vt 0.678496 0.733148
vt 0.679663 0.681218
vt 0.800062 0.683698
vt 0.494796 0.754021
vt 0.449928 0.753096
vt 0.495834 0.856286
vt 0.495999 0.820657
vt 0.860828 0.761561
vt 0.769320 0.759676
vt 0.469467 0.806281
vt 0.469632 0.770652
vt 0.539801 0.770976
vt 0.539637 0.806605
vt 0.804935 0.771710
vt 0.741242 0.770398
vt 0.586304 0.755906
vt 0.613857 0.767774
vt 0.550165 0.766462
vt 0.346953 0.391377
vt 0.410656 0.391975
vt 0.518935 0.765819
vt 0.227533 0.401555
vt 0.283250 0.390779
vt 0.677812 0.757791
vt 0.417163 0.806039
vt 0.417327 0.770411
vt 0.182657 0.401134
vt 0.904764 0.762466
vt 0.821602 0.969370
vt 0.821767 0.933741
vt 0.699771 0.614246
vt 0.699436 0.649874
vt 0.655567 0.649462
vt 0.655901 0.613834
vt 0.929041 0.568928
vt 0.972903 0.569831
vt 0.161150 0.586309
vt 0.116358 0.585889
vt 0.656035 0.599581
vt 0.821833 0.919487
vt 0.699904 0.599993
vt 0.825694 0.807924
vt 0.825859 0.772296
vt 0.856445 0.772437
vt 0.856281 0.808065
vt 0.571037 0.771120
vt 0.570873 0.806749
vt 0.761989 0.807630
vt 0.762153 0.772002
vt 0.634578 0.807043
vt 0.634743 0.771414
vt 0.698448 0.771708
vt 0.698284 0.807337
vt 0.538063 0.393170
vt 0.568648 0.393457
vt 0.252015 0.390486
vt 0.677550 0.769086
vt 0.835515 0.772340
vt 0.474360 0.392572
vt 0.856215 0.822319
vt 0.977178 0.934458
vt 0.977013 0.970087
vt 0.711214 0.918977
vt 0.495997 0.820657
vt 0.495931 0.834911
vt 0.449000 0.834694
vt 0.448563 0.820438
vt 0.536768 0.648347
vt 0.537102 0.612720
vt 0.583697 0.648788
vt 0.818704 0.601108
vt 0.771774 0.600667
vt 0.758951 0.969081
vt 0.926393 0.772759
vt 0.698218 0.821590
vt 0.761923 0.821884
vt 0.570807 0.821002
vt 0.634513 0.821296
vt 0.825628 0.822178
vt 0.539571 0.820858
vt 0.806918 0.969302
vt 0.641326 0.649328
vt 0.714145 0.600126
vt 0.866625 0.919694
vt 0.417097 0.820293
vt 0.469402 0.820534
vt 0.289271 0.526169
vt 0.616038 0.904277
vt 0.495615 0.903719
vt 0.977923 0.772997
vt 0.881310 0.919762
vt 0.929810 0.919986
vt 0.530109 0.528428
vt 0.409690 0.527299
vt 0.876378 0.601649
vt 0.653324 0.918710
vt 0.495548 0.917982
vt 0.615972 0.918531
vt 0.736395 0.919089
vt 0.736461 0.904835
vt 0.856884 0.905393
vt 0.856818 0.919647
vt 0.977308 0.905951
vt 0.977242 0.920204
vt 0.495865 0.849165
vt 0.448432 0.848946
vt 0.448498 0.834692
s 1
usemtl keyboard2
f 80/1/1 2/2/1 4/3/1 81/4/1
f 25/5/2 29/6/2 47/7/2 45/8/2
f 82/9/3 8/10/3 6/11/3 83/12/3
f 106/13/4 73/14/4 17/15/4 86/16/4
f 15/17/2 7/18/2 5/19/2 14/20/2
f 10/21/5 4/22/5 2/23/5 12/24/5
f 31/25/5 10/21/5 12/24/5 30/26/5
f 3/27/2 9/28/2 11/29/2 1/30/2
f 91/31/6 30/32/6 12/33/6 84/34/6
f 7/18/2 15/17/2 44/35/2 39/36/2
f 77/37/5 76/38/5 24/39/5 22/40/5
f 8/41/5 13/42/5 16/43/5 6/44/5
f 35/45/2 15/17/2 14/20/2 34/46/2
f 35/45/2 25/5/2 45/8/2 50/47/2
f 20/48/5 18/49/5 52/50/5 54/51/5
f 75/52/5 74/53/5 18/49/5 20/48/5
f 108/54/7 75/55/7 20/56/7 87/57/7
f 73/58/2 109/59/2 19/60/2 17/61/2
f 87/57/8 20/56/8 54/62/8 96/63/8
f 79/64/2 78/65/2 21/66/2 23/67/2
f 111/68/4 79/69/4 23/70/4 89/71/4
f 107/72/7 77/73/7 22/74/7 88/75/7
f 82/76/9 7/77/9 39/78/9 94/79/9
f 29/6/2 25/5/2 28/80/2 32/81/2
f 92/82/6 36/83/6 26/84/6 90/85/6
f 33/86/5 27/87/5 26/88/5 36/89/5
f 9/28/2 29/6/2 32/81/2 11/29/2
f 4/22/5 10/21/5 42/90/5 38/91/5
f 90/85/6 26/84/6 30/32/6 91/31/6
f 27/87/5 31/25/5 30/26/5 26/88/5
f 13/42/5 33/86/5 36/89/5 16/43/5
f 85/92/6 16/93/6 36/83/6 92/82/6
f 33/86/5 13/42/5 43/94/5 49/95/5
f 25/5/2 35/45/2 34/46/2 28/80/2
f 93/96/10 38/97/10 60/98/10 99/99/10
f 49/95/5 43/94/5 65/100/5 71/101/5
f 42/90/5 48/102/5 70/103/5 64/104/5
f 45/8/2 47/7/2 69/105/2 67/106/2
f 38/91/5 42/90/5 64/104/5 60/107/5
f 47/7/2 41/108/2 63/109/2 69/105/2
f 27/87/5 33/86/5 49/95/5 46/110/5
f 31/25/5 27/87/5 46/110/5 48/102/5
f 10/21/5 31/25/5 48/102/5 42/90/5
f 15/17/2 35/45/2 50/47/2 44/35/2
f 81/111/11 4/112/11 38/97/11 93/96/11
f 9/28/2 3/27/2 37/113/2 41/108/2
f 29/6/2 9/28/2 41/108/2 47/7/2
f 13/42/5 8/41/5 40/114/5 43/94/5
f 96/63/6 54/62/6 52/115/6 95/116/6
f 97/117/6 56/118/6 58/119/6 98/120/6
f 22/40/5 24/39/5 58/121/5 56/122/5
f 88/75/12 22/74/12 56/118/12 97/117/12
f 17/61/2 19/60/2 53/123/2 51/124/2
f 89/71/13 23/70/13 57/125/13 98/120/13
f 86/16/14 17/15/14 51/126/14 95/116/14
f 23/67/2 21/66/2 55/127/2 57/125/2
f 102/128/15 65/129/15 62/130/15 100/131/15
f 99/99/15 60/98/15 64/132/15 101/133/15
f 105/134/15 71/135/15 65/129/15 102/128/15
f 104/136/15 70/137/15 68/138/15 103/139/15
f 101/133/15 64/132/15 70/137/15 104/136/15
f 103/139/15 68/138/15 71/135/15 105/134/15
f 39/36/2 44/35/2 66/140/2 61/141/2
f 41/108/2 37/113/2 59/142/2 63/109/2
f 46/110/5 49/95/5 71/101/5 68/143/5
f 43/94/5 40/114/5 62/144/5 65/100/5
f 44/35/2 50/47/2 72/145/2 66/140/2
f 50/47/2 45/8/2 67/106/2 72/145/2
f 94/79/16 39/78/16 61/146/16 100/131/16
f 48/102/5 46/110/5 68/143/5 70/103/5
f 1/30/2 11/29/2 109/59/2 73/58/2
f 84/147/7 12/148/7 75/55/7 108/54/7
f 12/24/5 2/23/5 74/53/5 75/52/5
f 80/1/4 1/149/4 73/14/4 106/13/4
f 83/12/7 6/11/7 77/73/7 107/72/7
f 85/150/4 14/151/4 79/152/4 111/153/4
f 14/20/2 5/19/2 78/65/2 79/64/2
f 6/44/5 16/43/5 76/38/5 77/37/5
f 16/154/4 85/155/4 111/68/4 76/156/4
f 5/157/7 83/12/7 107/72/7 78/158/7
f 2/2/4 80/1/4 106/13/4 74/159/4
f 40/160/16 94/79/16 100/131/16 62/130/16
f 67/161/15 103/139/15 105/134/15 72/162/15
f 63/163/15 101/133/15 104/136/15 69/164/15
f 69/164/15 104/136/15 103/139/15 67/161/15
f 72/162/15 105/134/15 102/128/15 66/165/15
f 59/166/15 99/99/15 101/133/15 63/163/15
f 66/165/15 102/128/15 100/131/15 61/146/15
f 18/167/14 86/16/14 95/116/14 52/115/14
f 24/168/13 89/71/13 98/120/13 58/119/13
f 21/169/12 88/75/12 97/117/12 55/127/12
f 55/127/6 97/117/6 98/120/6 57/125/6
f 53/170/6 96/63/6 95/116/6 51/126/6
f 3/171/11 81/111/11 93/96/11 37/172/11
f 37/172/10 93/96/10 99/99/10 59/166/10
f 11/29/2 32/81/2 112/173/2 109/59/2
f 85/92/5 92/82/5 116/174/5 111/175/5
f 8/176/9 82/76/9 94/79/9 40/160/9
f 78/158/7 107/72/7 88/75/7 21/169/7
f 76/156/4 111/68/4 89/71/4 24/168/4
f 19/177/8 87/57/8 96/63/8 53/170/8
f 109/178/7 108/54/7 87/57/7 19/177/7
f 28/80/2 34/46/2 110/179/2 113/180/2
f 74/159/4 106/13/4 86/16/4 18/167/4
f 7/181/3 82/9/3 83/12/3 5/157/3
f 1/149/1 80/1/1 81/4/1 3/182/1
f 79/183/17 111/175/17 116/174/17 110/184/17
f 113/185/6 114/186/6 115/187/6 112/188/6
f 110/184/6 116/174/6 114/186/6 113/185/6
f 112/188/6 115/187/6 108/189/6 109/190/6
f 34/46/2 14/20/2 79/64/2 110/179/2
f 84/151/4 11/191/4 109/192/4 108/193/4
f 90/85/5 91/31/5 115/187/5 114/186/5
f 91/31/5 84/34/5 108/189/5 115/187/5
f 92/82/5 90/85/5 114/186/5 116/174/5
f 32/81/2 28/80/2 113/180/2 112/173/2
