# Blender 4.3.2
# www.blender.org
mtllib _keyboard_key_h_export.mtl
o _keyboard_key_h_export
v -0.050014 0.000000 0.000000
v -0.050014 -0.000000 -0.021110
v -0.050014 0.021508 -0.000000
v 0.050014 0.000000 0.000000
v -0.050014 0.000000 0.264744
v -0.050014 0.021508 0.264744
v 0.050014 0.000000 0.264744
v -0.043175 0.000000 0.281343
v -0.043175 0.021508 0.281343
v 0.043175 0.000000 0.281343
v -0.029827 0.000000 0.290333
v -0.029827 0.021508 0.290333
v 0.029827 0.000000 0.290333
v 0.029827 0.021508 0.290333
v 0.043175 0.021508 0.281343
v 0.050014 0.021508 0.264744
v 0.050014 0.021508 -0.000000
v 0.050014 0.021508 -0.021110
v -0.050014 0.021508 -0.021110
v 0.050014 -0.000000 -0.021110
vn -0.0000 -1.0000 -0.0000
vn -1.0000 -0.0000 -0.0000
vn -0.9810 -0.0000 0.1942
vn -0.7748 -0.0000 0.6322
vn -0.2920 -0.0000 0.9564
vn 0.2920 -0.0000 0.9564
vn 0.7748 -0.0000 0.6322
vn -0.0000 1.0000 -0.0000
vn 0.9810 -0.0000 0.1942
vn 1.0000 -0.0000 -0.0000
vn -0.0000 -0.0000 -1.0000
vt 0.658871 0.246366
vt 0.579556 0.249270
vt 0.578943 0.232531
vt 0.658258 0.229627
vt 0.676614 0.280159
vt 0.659749 0.280042
vt 0.659495 0.263421
vt 0.676614 0.263344
vt 0.668859 0.477316
vt 0.652787 0.469306
vt 0.571255 0.022608
vt 0.650570 0.019704
vt 0.658785 0.491636
vt 0.647359 0.479197
vt 0.576196 0.009249
vt 0.644665 0.006741
vt 0.645887 0.500008
vt 0.639863 0.484734
vt 0.586519 0.001732
vt 0.633820 -0.000000
vt 0.598728 0.498871
vt 0.606707 0.484708
vt 0.587269 0.489356
vt 0.599331 0.479281
vt 0.579289 0.475526
vt 0.594104 0.469171
vt 0.564948 0.283483
vt 0.580938 0.282554
vt 0.580180 0.266325
vt 0.563845 0.267450
s 1
usemtl keyboard.010
f 2/1/1 20/2/1 4/3/1 1/4/1
f 1/5/2 3/6/2 19/7/2 2/8/2
f 3/6/2 1/5/2 5/9/3 6/10/3
f 1/4/1 4/3/1 7/11/1 5/12/1
f 6/10/3 5/9/3 8/13/4 9/14/4
f 5/12/1 7/11/1 10/15/1 8/16/1
f 9/14/4 8/13/4 11/17/5 12/18/5
f 8/16/1 10/15/1 13/19/1 11/20/1
f 13/21/6 14/22/6 12/18/5 11/17/5
f 10/23/7 15/24/7 14/22/6 13/21/6
f 15/24/8 9/14/8 12/18/8 14/22/8
f 7/25/9 16/26/9 15/24/7 10/23/7
f 16/26/8 6/10/8 9/14/8 15/24/8
f 4/27/10 17/28/10 16/26/9 7/25/9
f 17/28/8 3/6/8 6/10/8 16/26/8
f 18/29/8 19/7/8 3/6/8 17/28/8
f 20/30/10 18/29/10 17/28/10 4/27/10
f 2/1/11 19/7/11 18/29/11 20/2/11
