# Blender 4.3.2
# www.blender.org
mtllib _keyboard_key_a_export.mtl
o _keyboard_key_a_export
v -0.050014 0.000000 0.000000
v -0.050014 -0.000000 -0.021110
v -0.050014 0.021508 -0.000000
v 0.050014 0.000000 0.000000
v -0.050014 0.000000 0.264744
v -0.050014 0.021508 0.264744
v 0.050014 0.000000 0.264744
v -0.043175 0.000000 0.281343
v -0.043175 0.021508 0.281343
v 0.043175 0.000000 0.281343
v -0.029827 0.000000 0.290333
v -0.029827 0.021508 0.290333
v 0.029827 0.000000 0.290333
v 0.029827 0.021508 0.290333
v 0.043175 0.021508 0.281343
v 0.050014 0.021508 0.264744
v 0.050014 0.021508 -0.000000
v 0.050014 0.021508 -0.021110
v -0.050014 0.021508 -0.021110
v 0.050014 -0.000000 -0.021110
vn -0.0000 -1.0000 -0.0000
vn -1.0000 -0.0000 -0.0000
vn -0.9810 -0.0000 0.1942
vn -0.7748 -0.0000 0.6322
vn -0.2920 -0.0000 0.9564
vn 0.2920 -0.0000 0.9564
vn 0.7748 -0.0000 0.6322
vn -0.0000 1.0000 -0.0000
vn 0.9810 -0.0000 0.1942
vn 1.0000 -0.0000 -0.0000
vn -0.0000 -0.0000 -1.0000
vt 0.807126 0.253642
vt 0.886441 0.250738
vt 0.887054 0.267477
vt 0.807739 0.270381
vt 0.789383 0.219849
vt 0.806248 0.219966
vt 0.806502 0.236587
vt 0.789383 0.236664
vt 0.797138 0.022692
vt 0.813210 0.030702
vt 0.894741 0.477400
vt 0.815427 0.480304
vt 0.807212 0.008372
vt 0.818637 0.020811
vt 0.889800 0.490759
vt 0.821332 0.493267
vt 0.820110 -0.000000
vt 0.826133 0.015274
vt 0.879478 0.498276
vt 0.832176 0.500008
vt 0.867269 0.001137
vt 0.859290 0.015300
vt 0.878728 0.010652
vt 0.866666 0.020727
vt 0.886707 0.024482
vt 0.871893 0.030837
vt 0.901048 0.216525
vt 0.885059 0.217454
vt 0.885816 0.233683
vt 0.902152 0.232558
s 1
usemtl keyboard.010
f 2/1/1 20/2/1 4/3/1 1/4/1
f 1/5/2 3/6/2 19/7/2 2/8/2
f 3/6/2 1/5/2 5/9/3 6/10/3
f 1/4/1 4/3/1 7/11/1 5/12/1
f 6/10/3 5/9/3 8/13/4 9/14/4
f 5/12/1 7/11/1 10/15/1 8/16/1
f 9/14/4 8/13/4 11/17/5 12/18/5
f 8/16/1 10/15/1 13/19/1 11/20/1
f 13/21/6 14/22/6 12/18/5 11/17/5
f 10/23/7 15/24/7 14/22/6 13/21/6
f 15/24/8 9/14/8 12/18/8 14/22/8
f 7/25/9 16/26/9 15/24/7 10/23/7
f 16/26/8 6/10/8 9/14/8 15/24/8
f 4/27/10 17/28/10 16/26/9 7/25/9
f 17/28/8 3/6/8 6/10/8 16/26/8
f 18/29/8 19/7/8 3/6/8 17/28/8
f 20/30/10 18/29/10 17/28/10 4/27/10
f 2/1/11 19/7/11 18/29/11 20/2/11
