# Blender 4.3.2
# www.blender.org
mtllib _laver_01_export.mtl
o _laver_01_export
v -0.002482 0.001658 0.004377
v -0.002482 0.001658 -0.002284
v 0.002704 0.001658 0.004377
v 0.002704 0.001658 -0.002284
v 0.000111 0.001658 -0.002284
v 0.000111 0.001658 0.004377
v -0.002482 0.063709 0.004376
v -0.003526 0.064573 0.004886
v -0.003526 0.064573 -0.002794
v -0.002482 0.063709 -0.002284
v 0.003748 0.064573 0.004886
v 0.002704 0.063709 0.004376
v 0.003748 0.064573 -0.002794
v 0.002704 0.063709 -0.002284
v 0.000111 0.063709 -0.002284
v 0.000111 0.064594 -0.002801
v 0.000111 0.063709 0.004376
v 0.000111 0.064594 0.004893
v -0.015835 0.078693 0.010900
v -0.014675 0.079852 0.009643
v -0.014675 0.079852 -0.007550
v -0.015835 0.078693 -0.008808
v 0.014897 0.079852 0.009643
v 0.016057 0.078693 0.010900
v 0.014897 0.079852 -0.007550
v 0.016057 0.078693 -0.008808
v 0.000111 0.078693 -0.007519
v 0.000111 0.079852 -0.006356
v 0.000111 0.078693 0.009612
v 0.000111 0.079852 0.008448
v -0.014560 0.065402 0.010278
v -0.015835 0.066440 0.010900
v -0.015835 0.066440 -0.008808
v -0.014560 0.065402 -0.008185
v 0.016057 0.066440 0.010900
v 0.014783 0.065402 0.010278
v 0.016057 0.066440 -0.008808
v 0.014783 0.065402 -0.008185
v 0.000111 0.065395 -0.006985
v 0.000111 0.066440 -0.007519
v 0.000111 0.065395 0.009077
v 0.000111 0.066440 0.009612
v -0.002482 0.000774 0.004377
v -0.002482 0.000774 -0.002284
v 0.002704 0.000774 0.004377
v 0.002704 0.000774 -0.002284
v 0.000111 0.000774 -0.002284
v 0.000111 0.000774 0.004377
vn -0.0000 -0.9833 -0.1819
vn -0.0252 -0.9942 -0.1042
vn -0.0530 -0.9975 -0.0462
vn 0.0252 -0.9942 0.1041
vn 0.0252 -0.9942 -0.1042
vn 0.0530 -0.9975 -0.0462
vn 0.0530 -0.9975 0.0462
vn -1.0000 -0.0000 -0.0000
vn 1.0000 -0.0000 -0.0000
vn -0.0000 -0.2347 0.9721
vn -0.0798 -0.1450 0.9862
vn -0.0805 -0.0000 0.9968
vn -0.0000 -0.0000 1.0000
vn -0.0000 1.0000 -0.0000
vn -0.0000 -0.0000 -1.0000
vn -0.0252 -0.9942 0.1041
vn -0.0000 -0.9833 0.1819
vn -0.0530 -0.9975 0.0462
vn 0.0798 -0.1449 0.9862
vn 0.0805 -0.0000 0.9968
vn -0.0798 -0.1450 -0.9862
vn -0.0000 -0.2347 -0.9721
vn -0.0806 -0.0000 -0.9967
vn 0.0798 -0.1450 -0.9862
vn 0.0806 -0.0000 -0.9967
vn -0.6376 -0.7704 -0.0000
vn -0.0000 -0.5060 -0.8625
vn -0.0007 -0.5060 -0.8625
vn 0.6376 -0.7704 -0.0000
vn -0.0000 -0.5060 0.8625
vn 0.0007 -0.5060 0.8625
vn 0.0007 -0.5060 -0.8625
vn -0.0007 -0.5060 0.8625
vn -0.7068 0.7074 -0.0000
vn -0.0000 0.7085 -0.7057
vn -0.0569 0.7074 -0.7045
vn 0.7068 0.7074 -0.0000
vn -0.0000 0.7085 0.7057
vn 0.0569 0.7074 0.7045
vn 0.0569 0.7074 -0.7045
vn -0.6313 -0.7755 -0.0000
vn -0.0722 -0.4502 -0.8900
vn -0.0000 -0.4513 -0.8924
vn 0.6316 -0.7753 -0.0000
vn 0.0723 -0.4501 0.8900
vn -0.0000 -0.4513 0.8924
vn 0.0723 -0.4501 -0.8900
vn -0.0722 -0.4502 0.8900
vn -0.0000 -1.0000 -0.0000
vn -0.0569 0.7074 0.7045
vt 0.625000 0.375000
vt 0.625000 0.250000
vt 0.625000 0.750000
vt 0.625000 0.500000
vt 0.375000 0.000000
vt 0.621875 0.000000
vt 0.621875 0.250000
vt 0.375000 0.250000
vt 0.375000 0.500000
vt 0.375000 0.750000
vt 0.625000 0.875000
vt 0.634093 0.515167
vt 0.750000 0.516983
vt 0.750000 0.733017
vt 0.634093 0.734833
vt 0.621875 0.500000
vt 0.621875 0.750000
vt 0.621875 0.375000
vt 0.375000 0.375000
vt 0.621875 0.875000
vt 0.375000 0.875000
vt 0.625000 1.000000
vt 0.865907 0.515167
vt 0.865907 0.734833
vt 0.625000 0.000000
vt 0.621875 1.000000
vt 0.375000 1.000000
vt 0.625000 0.015951
vt 0.625000 0.234049
vt 0.625000 0.490175
vt 0.625000 0.990175
vt 0.625000 0.259825
vt 0.250000 0.500000
vt 0.250000 0.750000
vt 0.125000 0.500000
vt 0.125000 0.750000
vt 0.625000 0.759825
s 1
f 16/1/1 9/2/2 34/2/3 39/1/1
f 11/3/4 13/4/5 38/4/6 36/3/7
f 1/5/8 7/6/8 10/7/8 2/8/8
f 4/9/9 3/10/9 45/10/9 46/9/9
f 42/11/10 35/3/11 24/3/12 29/11/13
f 25/12/14 28/13/14 30/14/14 23/15/14
f 4/9/9 14/16/9 12/17/9 3/10/9
f 2/8/15 10/7/15 15/18/15 5/19/15
f 3/10/13 12/17/13 17/20/13 6/21/13
f 8/22/16 18/11/17 41/11/17 31/22/18
f 13/4/5 16/1/1 39/1/1 38/4/6
f 28/13/14 21/23/14 20/24/14 30/14/14
f 35/3/9 37/4/9 26/4/9 24/3/9
f 18/11/17 11/3/4 36/3/7 41/11/17
f 32/22/19 42/11/10 29/11/13 19/22/20
f 5/19/15 15/18/15 14/16/15 4/9/15
f 5/19/15 4/9/15 46/9/15 47/19/15
f 37/4/21 40/1/22 27/1/15 26/4/23
f 40/1/22 33/2/24 22/2/25 27/1/15
f 8/25/26 9/2/26 10/7/26 7/6/26
f 16/1/27 13/4/28 14/16/28 15/18/27
f 13/4/29 11/3/29 12/17/29 14/16/29
f 18/11/30 8/22/31 7/26/31 17/20/30
f 9/2/32 16/1/27 15/18/27 10/7/32
f 11/3/33 18/11/30 17/20/30 12/17/33
f 6/21/13 17/20/13 7/26/13 1/27/13
f 20/28/34 21/29/34 22/2/34 19/25/34
f 28/1/35 25/30/36 26/4/36 27/1/35
f 25/12/37 23/15/37 24/3/37 26/4/37
f 30/11/38 20/31/39 19/22/39 29/11/38
f 21/32/40 28/1/35 27/1/35 22/2/40
f 9/2/2 8/25/16 31/25/18 34/2/3
f 32/25/41 33/2/41 34/2/41 31/25/41
f 40/1/22 37/4/21 38/4/42 39/1/43
f 37/4/44 35/3/44 36/3/44 38/4/44
f 42/11/10 32/22/19 31/22/45 41/11/46
f 33/2/24 40/1/22 39/1/43 34/2/47
f 35/3/11 42/11/10 41/11/46 36/3/48
f 33/2/8 32/25/8 19/25/8 22/2/8
f 47/33/49 46/9/49 45/10/49 48/34/49
f 44/35/49 47/33/49 48/34/49 43/36/49
f 1/5/8 2/8/8 44/8/8 43/5/8
f 6/21/13 1/27/13 43/27/13 48/21/13
f 3/10/13 6/21/13 48/21/13 45/10/13
f 2/8/15 5/19/15 47/19/15 44/8/15
f 23/37/50 30/11/38 29/11/38 24/3/50
