# Blender 4.3.2
# www.blender.org
mtllib _laver_01_arrow_export.mtl
o _laver_01_arrow_export
v 0.005373 0.075063 -0.031092
v 0.005373 0.081248 -0.000000
v 0.005373 0.075063 0.031092
v -0.005151 0.075063 -0.031092
v -0.005151 0.081248 -0.000000
v -0.005151 0.075063 0.031092
v 0.005373 0.067546 -0.045144
v 0.005373 0.079682 -0.015850
v 0.005373 0.079682 0.015850
v 0.005373 0.067546 0.045144
v -0.005151 0.067546 -0.045144
v -0.005151 0.079682 -0.015850
v -0.005151 0.079682 0.015850
v -0.005151 0.067546 0.045144
v 0.012295 0.067534 -0.045159
v 0.012295 0.067534 0.045159
v -0.012072 0.067534 -0.045159
v 0.000111 0.057470 -0.057430
v 0.000111 0.057470 0.057430
v -0.012072 0.067534 0.045159
v 0.005373 0.074796 -0.030982
v 0.005373 0.080959 -0.000000
v 0.005373 0.074796 0.030982
v -0.005151 0.074796 -0.030982
v -0.005151 0.080959 -0.000000
v -0.005151 0.074796 0.030982
v 0.005373 0.067311 -0.044976
v 0.005373 0.079399 -0.015793
v 0.005373 0.079399 0.015793
v 0.005373 0.067311 0.044976
v -0.005151 0.067311 -0.044976
v -0.005151 0.079399 -0.015793
v -0.005151 0.079399 0.015793
v -0.005151 0.067311 0.044976
v 0.012295 0.067311 -0.044976
v 0.012295 0.067311 0.044976
v -0.012072 0.067311 -0.044976
v 0.000111 0.057247 -0.057247
v 0.000111 0.057247 0.057247
v -0.012072 0.067311 0.044976
vn -0.0000 0.9239 -0.3827
vn -0.0000 0.9808 -0.1951
vn -0.0000 1.0000 -0.0000
vn -0.0000 0.9808 0.1951
vn -0.0000 0.9239 0.3827
vn -0.0000 0.8129 0.5824
vn -0.0000 0.8129 -0.5824
vn -0.0000 0.7732 -0.6341
vn -0.0000 0.7732 0.6341
vn -0.0000 -0.9239 0.3827
vn -0.0000 -0.9808 0.1951
vn -0.0000 -1.0000 -0.0000
vn -0.0000 -0.9808 -0.1951
vn -0.0000 -0.9239 -0.3827
vn -0.0000 -0.8129 -0.5825
vn -0.0000 -0.8129 0.5825
vn -0.0000 -0.7732 0.6341
vn -0.0000 -0.7732 -0.6341
vn 1.0000 -0.0000 -0.0000
vn -1.0000 -0.0000 -0.0000
vn -0.7932 -0.3863 -0.4707
vn -0.7932 -0.3863 0.4707
vn 0.7932 -0.3863 0.4707
vn 0.7932 -0.3863 -0.4707
vn -0.0014 0.6087 0.7934
vn -0.0014 0.6086 0.7934
vn 0.0014 0.6083 -0.7937
vn -0.0014 0.6086 -0.7934
vn -0.0014 0.6087 -0.7934
vn 0.0014 0.6083 0.7937
vt 0.000000 0.000000
s 1
f 1/1/1 4/1/1 12/1/2 8/1/2
f 8/1/2 12/1/2 5/1/3 2/1/3
f 5/1/3 13/1/4 9/1/4 2/1/3
f 9/1/4 13/1/4 6/1/5 3/1/5
f 6/1/5 14/1/6 10/1/6 3/1/5
f 7/1/7 11/1/7 4/1/1 1/1/1
f 7/1/7 18/1/8 11/1/7
f 14/1/6 19/1/9 10/1/6
f 19/1/9 16/1/9 10/1/6
f 14/1/6 20/1/9 19/1/9
f 7/1/7 15/1/8 18/1/8
f 18/1/8 17/1/8 11/1/7
f 21/1/10 28/1/11 32/1/11 24/1/10
f 28/1/11 22/1/12 25/1/12 32/1/11
f 25/1/12 22/1/12 29/1/13 33/1/13
f 29/1/13 23/1/14 26/1/14 33/1/13
f 26/1/14 23/1/14 30/1/15 34/1/15
f 27/1/16 21/1/10 24/1/10 31/1/16
f 27/1/16 31/1/16 38/1/17
f 34/1/15 30/1/15 39/1/18
f 39/1/18 30/1/15 36/1/18
f 34/1/15 39/1/18 40/1/18
f 27/1/16 38/1/17 35/1/17
f 38/1/17 31/1/16 37/1/17
f 7/1/19 1/1/19 21/1/19 27/1/19
f 8/1/19 2/1/19 22/1/19 28/1/19
f 1/1/19 8/1/19 28/1/19 21/1/19
f 9/1/19 3/1/19 23/1/19 29/1/19
f 2/1/19 9/1/19 29/1/19 22/1/19
f 3/1/19 10/1/19 30/1/19 23/1/19
f 4/1/20 11/1/20 31/1/20 24/1/20
f 5/1/20 12/1/20 32/1/20 25/1/20
f 12/1/20 4/1/20 24/1/20 32/1/20
f 6/1/20 13/1/20 33/1/20 26/1/20
f 13/1/20 5/1/20 25/1/20 33/1/20
f 14/1/20 6/1/20 26/1/20 34/1/20
f 17/1/21 18/1/21 38/1/21 37/1/21
f 19/1/22 20/1/22 40/1/22 39/1/22
f 16/1/23 19/1/23 39/1/23 36/1/23
f 18/1/24 15/1/24 35/1/24 38/1/24
f 11/1/25 17/1/26 37/1/25 31/1/26
f 10/1/27 16/1/27 36/1/27 30/1/27
f 20/1/28 14/1/29 34/1/28 40/1/29
f 15/1/30 7/1/30 27/1/30 35/1/30
