# Blender 4.3.2
# www.blender.org
mtllib _led_export.mtl
o _led_export
v 0.002200 0.020821 -0.002640
v 0.003080 0.017518 -0.003688
v 0.001672 0.001164 -0.002010
v 0.003330 0.020821 -0.000683
v 0.004678 0.017518 -0.000921
v 0.002521 0.001164 -0.000540
v 0.002938 0.020821 0.001543
v 0.004123 0.017518 0.002227
v 0.002226 0.001164 0.001132
v 0.001207 0.020821 0.002995
v 0.001675 0.017518 0.004281
v 0.000925 0.001164 0.002223
v -0.001053 0.020821 0.002995
v -0.001522 0.017518 0.004281
v -0.000772 0.001164 0.002223
v -0.002785 0.020821 0.001543
v -0.003970 0.017518 0.002227
v -0.002073 0.001164 0.001132
v 0.000077 0.000136 -0.000109
v 0.000077 0.022190 -0.000109
v -0.003177 0.020821 -0.000683
v -0.004525 0.017518 -0.000921
v -0.002368 0.001164 -0.000540
v -0.002047 0.020821 -0.002640
v -0.002927 0.017518 -0.003688
v -0.001519 0.001164 -0.002010
v 0.000077 0.020821 -0.003413
v 0.000077 0.017518 -0.004781
v 0.000077 0.001164 -0.002591
v 0.001431 0.004320 -0.001723
v 0.002152 0.004320 -0.000475
v 0.001902 0.004320 0.000945
v 0.000797 0.004320 0.001871
v -0.000644 0.004320 0.001871
v -0.001749 0.004320 0.000945
v -0.001999 0.004320 -0.000475
v -0.001278 0.004320 -0.001723
v 0.000077 0.004320 -0.002217
vn 0.0001 -0.0382 -0.9993
vn 0.0001 0.0945 -0.9955
vn 0.6399 0.0945 -0.7626
vn 0.6424 -0.0382 -0.7654
vn 0.0001 0.6674 -0.7447
vn 0.0001 1.0000 -0.0000
vn 0.4786 0.6675 -0.5704
vn 0.0001 -1.0000 -0.0000
vn 0.0001 -0.4555 -0.8902
vn 0.5723 -0.4555 -0.6819
vn 0.9804 0.0945 -0.1730
vn 0.9841 -0.0382 -0.1737
vn 0.7333 0.6675 -0.1294
vn 0.8767 -0.4554 -0.1547
vn 0.8621 0.0945 0.4978
vn 0.8653 -0.0382 0.4998
vn 0.6449 0.6674 0.3723
vn 0.7709 -0.4555 0.4453
vn 0.3404 0.0945 0.9355
vn 0.3416 -0.0382 0.9391
vn 0.2547 0.6675 0.6997
vn 0.3043 -0.4555 0.8366
vn -0.3404 0.0945 0.9355
vn -0.3416 -0.0382 0.9391
vn -0.2546 0.6675 0.6998
vn -0.3043 -0.4555 0.8366
vn -0.6448 0.6675 0.3724
vn -0.8621 0.0945 0.4978
vn -0.8653 -0.0382 0.4998
vn -0.7709 -0.4555 0.4453
vn -0.8767 -0.4555 -0.1547
vn -0.7333 0.6675 -0.1294
vn -0.9804 0.0945 -0.1730
vn -0.9841 -0.0382 -0.1737
vn -0.5723 -0.4555 -0.6819
vn -0.4786 0.6675 -0.5705
vn -0.6399 0.0945 -0.7626
vn -0.6423 -0.0382 -0.7655
vt 0.666667 0.308350
vt 0.666667 0.500000
vt 0.555556 0.500000
vt 0.555556 0.308350
vt 0.666667 0.750000
vt 0.611111 1.000000
vt 0.555556 0.750000
vt 0.611111 0.000000
vt 0.666667 0.250000
vt 0.555556 0.250000
vt 0.444444 0.500000
vt 0.444444 0.308350
vt 0.500000 1.000000
vt 0.444444 0.750000
vt 0.500000 0.000000
vt 0.444444 0.250000
vt 0.333333 0.500000
vt 0.333333 0.308350
vt 0.388889 1.000000
vt 0.333333 0.750000
vt 0.388889 0.000000
vt 0.333333 0.250000
vt 0.222222 0.500000
vt 0.222222 0.308350
vt 0.277778 1.000000
vt 0.222222 0.750000
vt 0.277778 0.000000
vt 0.222222 0.250000
vt 0.111111 0.500000
vt 0.111111 0.308350
vt 0.166667 1.000000
vt 0.111111 0.750000
vt 0.166667 0.000000
vt 0.111111 0.250000
vt 0.000000 0.750000
vt 0.000000 0.500000
vt 0.000000 0.308350
vt 0.055556 1.000000
vt 0.055556 0.000000
vt 0.000000 0.250000
vt 0.944444 0.000000
vt 1.000000 0.250000
vt 0.888889 0.250000
vt 1.000000 0.500000
vt 1.000000 0.750000
vt 0.888889 0.750000
vt 0.888889 0.500000
vt 1.000000 0.308350
vt 0.888889 0.308350
vt 0.944444 1.000000
vt 0.833333 0.000000
vt 0.777778 0.250000
vt 0.777778 0.750000
vt 0.777778 0.500000
vt 0.777778 0.308350
vt 0.833333 1.000000
vt 0.722222 0.000000
vt 0.722222 1.000000
s 1
f 38/1/1 28/2/2 2/3/3 30/4/4
f 27/5/5 20/6/6 1/7/7
f 19/8/8 29/9/9 3/10/10
f 28/2/2 27/5/5 1/7/7 2/3/3
f 30/4/4 2/3/3 5/11/11 31/12/12
f 1/7/7 20/13/6 4/14/13
f 19/15/8 3/10/10 6/16/14
f 2/3/3 1/7/7 4/14/13 5/11/11
f 31/12/12 5/11/11 8/17/15 32/18/16
f 4/14/13 20/19/6 7/20/17
f 19/21/8 6/16/14 9/22/18
f 5/11/11 4/14/13 7/20/17 8/17/15
f 32/18/16 8/17/15 11/23/19 33/24/20
f 7/20/17 20/25/6 10/26/21
f 19/27/8 9/22/18 12/28/22
f 8/17/15 7/20/17 10/26/21 11/23/19
f 33/24/20 11/23/19 14/29/23 34/30/24
f 10/26/21 20/31/6 13/32/25
f 19/33/8 12/28/22 15/34/26
f 11/23/19 10/26/21 13/32/25 14/29/23
f 14/29/23 13/32/25 16/35/27 17/36/28
f 34/30/24 14/29/23 17/36/28 35/37/29
f 13/32/25 20/38/6 16/35/27
f 19/39/8 15/34/26 18/40/30
f 19/41/8 18/42/30 23/43/31
f 17/44/28 16/45/27 21/46/32 22/47/33
f 35/48/29 17/44/28 22/47/33 36/49/34
f 16/45/27 20/50/6 21/46/32
f 19/51/8 23/43/31 26/52/35
f 22/47/33 21/46/32 24/53/36 25/54/37
f 36/49/34 22/47/33 25/54/37 37/55/38
f 21/46/32 20/56/6 24/53/36
f 19/57/8 26/52/35 29/9/9
f 25/54/37 24/53/36 27/5/5 28/2/2
f 37/55/38 25/54/37 28/2/2 38/1/1
f 24/53/36 20/58/6 27/5/5
f 26/52/35 37/55/38 38/1/1 29/9/9
f 23/43/31 36/49/34 37/55/38 26/52/35
f 18/42/30 35/48/29 36/49/34 23/43/31
f 15/34/26 34/30/24 35/37/29 18/40/30
f 12/28/22 33/24/20 34/30/24 15/34/26
f 9/22/18 32/18/16 33/24/20 12/28/22
f 6/16/14 31/12/12 32/18/16 9/22/18
f 3/10/10 30/4/4 31/12/12 6/16/14
f 29/9/9 38/1/1 30/4/4 3/10/10
