# Blender 4.3.2
# www.blender.org
mtllib _led_base_export.mtl
o _led_base_export
v 0.003735 -0.000708 -0.004452
v 0.005723 -0.000708 -0.001009
v 0.005033 -0.000708 0.002906
v 0.001988 -0.000708 0.005461
v -0.001988 -0.000708 0.005461
v -0.005033 -0.000708 0.002906
v -0.005723 -0.000708 -0.001009
v -0.003735 -0.000708 -0.004452
v 0.000000 -0.000708 -0.005811
v 0.003088 0.006002 -0.000545
v 0.002809 0.005741 -0.000438
v 0.001832 0.005741 -0.002129
v 0.002016 0.006002 -0.002402
v 0.002716 0.006002 0.001568
v 0.002470 0.005741 0.001485
v 0.001073 0.006002 0.002947
v 0.000974 0.005741 0.002741
v -0.001073 0.006002 0.002947
v -0.000979 0.005741 0.002741
v -0.002716 0.006002 0.001568
v -0.002476 0.005741 0.001485
v -0.003088 0.006002 -0.000545
v -0.002815 0.005741 -0.000438
v -0.002016 0.006002 -0.002402
v -0.001838 0.005741 -0.002129
v 0.000000 0.006002 -0.003136
v -0.000003 0.005741 -0.002797
v 0.002792 0.004265 -0.000110
v 0.002505 0.003997 -0.000001
v 0.001627 0.003997 -0.001521
v 0.001815 0.004264 -0.001801
v 0.002453 0.004265 0.001813
v 0.002200 0.003997 0.001729
v 0.000957 0.004264 0.003069
v 0.000855 0.003997 0.002857
v -0.000996 0.004264 0.003069
v -0.000901 0.003997 0.002857
v -0.002492 0.004265 0.001813
v -0.002246 0.003997 0.001729
v -0.002832 0.004265 -0.000110
v -0.002551 0.003997 -0.000001
v -0.001855 0.004264 -0.001801
v -0.001673 0.003997 -0.001521
v -0.000020 0.004264 -0.002470
v -0.000023 0.003997 -0.002122
v 0.003735 0.005687 -0.004452
v 0.003520 0.006002 -0.004195
v 0.005393 0.006002 -0.000951
v 0.005723 0.005687 -0.001009
v 0.004743 0.006002 0.002738
v 0.005033 0.005687 0.002906
v 0.001873 0.006002 0.005146
v 0.001988 0.005687 0.005461
v -0.001873 0.006002 0.005146
v -0.001988 0.005687 0.005461
v -0.004743 0.006002 0.002738
v -0.005033 0.005687 0.002906
v -0.005393 0.006002 -0.000951
v -0.005723 0.005687 -0.001009
v -0.003520 0.006002 -0.004195
v -0.003735 0.005687 -0.004452
v 0.000000 0.006002 -0.005476
v 0.000000 0.005687 -0.005811
vn -0.0000 -0.2168 -0.9762
vn 0.9848 -0.0000 0.1736
vn -0.6346 -0.1606 -0.7559
vn 0.6330 -0.1746 -0.7542
vn -0.0000 1.0000 -0.0000
vn -0.0000 -0.0000 1.0000
vn -0.9848 -0.0000 0.1736
vn 0.9836 -0.0496 -0.1736
vn 0.3352 0.2005 0.9206
vn 0.8615 0.1006 0.4977
vn -0.3348 0.2077 0.9191
vn -0.8660 -0.0000 -0.5000
vn -0.9844 -0.0275 -0.1737
vn -0.6428 -0.0000 0.7661
vn 0.6428 -0.0000 0.7661
vn -0.3419 -0.0000 -0.9397
vn -0.8598 0.1200 0.4964
vn -0.0000 -1.0000 -0.0000
vn -0.2163 0.7748 0.5941
vn 0.2171 0.7728 0.5964
vn 0.5786 0.7440 0.3342
vn 0.7098 0.6932 -0.1250
vn 0.4933 0.6411 -0.5879
vn -0.0000 0.6202 -0.7844
vn -0.4897 0.6477 -0.5836
vn -0.7016 0.7018 -0.1237
vn -0.5729 0.7499 0.3308
vn 0.3419 -0.0000 -0.9397
vn -0.2162 0.7749 0.5940
vn 0.5788 0.7439 0.3341
vn 0.7094 0.6936 -0.1250
vn 0.4934 0.6409 -0.5880
vn -0.0000 0.6201 -0.7845
vn -0.4899 0.6475 -0.5838
vn -0.7019 0.7014 -0.1237
vn -0.5731 0.7498 0.3308
vn 0.6123 0.7072 -0.3535
vn 0.6963 0.7072 0.1227
vn 0.4544 0.7073 0.5415
vn -0.0000 0.7071 0.7071
vn -0.4544 0.7073 0.5415
vn -0.6963 0.7072 0.1227
vn -0.6122 0.7073 -0.3535
vn -0.2418 0.7070 -0.6646
vn 0.2418 0.7070 -0.6646
vn 0.8660 -0.0000 -0.5000
vt 0.111111 0.666667
vt 0.222222 0.666667
vt 0.444444 0.333333
vt 0.444444 0.651033
vt 0.333333 0.651033
vt 0.333333 0.333333
vt 0.333333 0.666667
vt 0.000000 0.666667
vt 0.555556 0.666667
vt 0.666667 0.666667
vt 0.222222 0.333333
vt 0.222222 0.651033
vt 0.111111 0.651033
vt 0.111111 0.333333
vt 0.444444 0.666667
vt 1.000000 0.333333
vt 1.000000 0.651033
vt 0.888889 0.651033
vt 0.888889 0.333333
vt 0.888889 0.666667
vt 1.000000 0.666667
vt 0.777778 0.666667
vt 0.777778 0.651033
vt 0.777778 0.333333
vt 0.000000 0.651033
vt 0.000000 0.333333
vt 0.666667 0.651033
vt 0.666667 0.333333
vt 0.555556 0.333333
vt 0.555556 0.651033
vt 0.660076 0.666667
vt 0.763552 0.666667
vt 0.863543 0.666667
vt 0.901871 0.666667
vt 0.209240 0.666667
vt 0.127416 0.666667
vt 0.247568 0.666667
vt 0.347559 0.666667
vt 0.451035 0.666667
s 1
f 19/1/1 17/2/1 34/2/1 36/1/1
f 2/3/2 49/4/2 51/5/2 3/6/2
f 17/2/3 15/7/3 32/7/3 34/2/3
f 21/8/4 19/1/4 36/1/4 38/8/4
f 47/9/5 62/10/5 26/10/5 13/9/5
f 4/11/6 53/12/6 55/13/6 5/14/6
f 50/7/5 48/15/5 10/15/5 14/7/5
f 6/16/7 57/17/7 59/18/7 7/19/7
f 23/20/8 21/21/8 38/21/8 40/20/8
f 52/2/5 50/7/5 14/7/5 16/2/5
f 27/10/9 25/22/9 42/22/9 44/10/9
f 25/22/10 23/20/10 40/20/10 42/22/10
f 54/1/5 52/2/5 16/2/5 18/1/5
f 12/9/11 27/10/11 44/10/11 31/9/11
f 56/8/5 54/1/5 18/1/5 20/8/5
f 7/19/12 59/18/12 61/23/12 8/24/12
f 15/7/13 11/15/13 28/15/13 32/7/13
f 58/20/5 56/21/5 20/21/5 22/20/5
f 5/14/14 55/13/14 57/25/14 6/26/14
f 3/6/15 51/5/15 53/12/15 4/11/15
f 60/22/5 58/20/5 22/20/5 24/22/5
f 8/24/16 61/23/16 63/27/16 9/28/16
f 62/10/5 60/22/5 24/22/5 26/10/5
f 48/15/5 47/9/5 13/9/5 10/15/5
f 11/15/17 12/9/17 31/9/17 28/15/17
f 1/29/18 2/3/18 3/6/18 4/11/18 5/14/18 6/16/18 7/19/18 8/24/18 9/28/18
f 27/10/19 12/9/19 13/9/19 26/10/19
f 25/22/20 27/10/20 26/10/20 24/22/20
f 23/20/21 25/22/21 24/22/21 22/20/21
f 21/21/22 23/20/22 22/20/22 20/21/22
f 19/1/23 21/8/23 20/8/23 18/1/23
f 17/2/24 19/1/24 18/1/24 16/2/24
f 15/7/25 17/2/25 16/2/25 14/7/25
f 11/15/26 15/7/26 14/7/26 10/15/26
f 12/9/27 11/15/27 10/15/27 13/9/27
f 9/28/28 63/27/28 46/30/28 1/29/28
f 45/31/29 30/9/29 31/9/29 44/10/29
f 43/32/20 45/31/20 44/10/20 42/22/20
f 41/33/30 43/32/30 42/22/30 40/20/30
f 39/34/31 41/33/31 40/20/31 38/21/31
f 37/35/32 39/34/32 38/21/32 36/36/32
f 35/37/33 37/35/33 36/1/33 34/2/33
f 33/38/34 35/37/34 34/2/34 32/7/34
f 29/39/35 33/38/35 32/7/35 28/15/35
f 30/9/36 29/39/36 28/15/36 31/9/36
f 45/31/5 43/32/5 41/33/5 39/34/5 37/35/5 35/37/5 33/38/5 29/39/5 30/9/5
f 47/9/37 48/15/37 49/4/37 46/30/37
f 48/15/38 50/7/38 51/5/38 49/4/38
f 50/7/39 52/2/39 53/12/39 51/5/39
f 52/2/40 54/1/40 55/13/40 53/12/40
f 54/1/41 56/8/41 57/25/41 55/13/41
f 56/21/42 58/20/42 59/18/42 57/17/42
f 58/20/43 60/22/43 61/23/43 59/18/43
f 60/22/44 62/10/44 63/27/44 61/23/44
f 62/10/45 47/9/45 46/30/45 63/27/45
f 1/29/46 46/30/46 49/4/46 2/3/46
