# Blender 4.3.2
# www.blender.org
mtllib _lever_02_base_export.mtl
o _lever_02_base_export
v -0.003575 0.000177 -0.010782
v -0.003575 -0.001962 -0.010571
v -0.003575 -0.004019 -0.009947
v -0.003575 -0.005915 -0.008934
v -0.003575 -0.007577 -0.007570
v -0.003575 -0.008941 -0.005908
v -0.003575 -0.009954 -0.004012
v -0.003575 -0.010578 -0.001955
v -0.003575 -0.010789 0.000184
v -0.003575 -0.010578 0.002324
v -0.003575 -0.009954 0.004381
v -0.003575 -0.008941 0.006277
v -0.003575 -0.007577 0.007939
v -0.003575 -0.005915 0.009302
v -0.003575 -0.004019 0.010316
v -0.003575 -0.001962 0.010940
v -0.003575 0.000177 0.011151
v -0.003575 0.002317 0.010940
v -0.003575 0.004374 0.010316
v -0.003575 0.006270 0.009302
v -0.003575 0.007932 0.007939
v -0.003575 0.009296 0.006277
v -0.003575 0.010309 0.004381
v -0.003575 0.010933 0.002324
v -0.003575 0.011144 0.000184
v -0.003575 0.010933 -0.001955
v -0.003575 0.010309 -0.004012
v -0.003575 0.009296 -0.005908
v -0.003575 0.007932 -0.007570
v -0.003575 0.006270 -0.008934
v -0.003575 0.004374 -0.009947
v -0.003575 0.002317 -0.010571
v 0.000083 0.000177 -0.010782
v 0.000083 -0.001962 -0.010571
v 0.000083 -0.004019 -0.009947
v 0.000083 -0.005915 -0.008934
v 0.000083 -0.007577 -0.007570
v 0.000083 -0.008941 -0.005908
v 0.000083 -0.009954 -0.004012
v 0.000083 -0.010578 -0.001955
v 0.000083 -0.010789 0.000184
v 0.000083 -0.010578 0.002324
v 0.000083 -0.009954 0.004381
v 0.000083 -0.008941 0.006277
v 0.000083 -0.007577 0.007939
v 0.000083 -0.005915 0.009302
v 0.000083 -0.004019 0.010316
v 0.000083 -0.001962 0.010940
v 0.000083 0.000177 0.011151
v 0.000083 0.002317 0.010940
v 0.000083 0.004374 0.010316
v 0.000083 0.006270 0.009302
v 0.000083 0.007932 0.007939
v 0.000083 0.009296 0.006277
v 0.000083 0.010309 0.004381
v 0.000083 0.010933 0.002324
v 0.000083 0.011144 0.000184
v 0.000083 0.010933 -0.001955
v 0.000083 0.010309 -0.004012
v 0.000083 0.009296 -0.005908
v 0.000083 0.007932 -0.007570
v 0.000083 0.006270 -0.008934
v 0.000083 0.004374 -0.009947
v 0.000083 0.002317 -0.010571
v -0.003575 0.000177 -0.012006
v -0.003575 -0.002201 -0.011772
v -0.003575 -0.004488 -0.011078
v -0.003575 -0.006595 -0.009952
v -0.003575 -0.008443 -0.008436
v -0.003575 -0.009959 -0.006588
v -0.003575 -0.011085 -0.004481
v -0.003575 -0.011779 -0.002194
v -0.003575 -0.012013 0.000184
v -0.003575 -0.011779 0.002563
v -0.003575 -0.011085 0.004849
v -0.003575 -0.009959 0.006957
v -0.003575 -0.008443 0.008804
v -0.003575 -0.006595 0.010320
v -0.003575 -0.004488 0.011447
v -0.003575 -0.002201 0.012140
v -0.003575 0.000177 0.012375
v -0.003575 0.002556 0.012140
v -0.003575 0.004842 0.011447
v -0.003575 0.006950 0.010320
v -0.003575 0.008797 0.008804
v -0.003575 0.010313 0.006957
v -0.003575 0.011440 0.004849
v -0.003575 0.012133 0.002563
v -0.003575 0.012368 0.000184
v -0.003575 0.012133 -0.002194
v -0.003575 0.011440 -0.004481
v -0.003575 0.010313 -0.006588
v -0.003575 0.008797 -0.008436
v -0.003575 0.006950 -0.009952
v -0.003575 0.004842 -0.011078
v -0.003575 0.002556 -0.011772
v -0.007179 0.000177 -0.012006
v -0.007179 -0.002201 -0.011772
v -0.007179 -0.004488 -0.011078
v -0.007179 -0.006595 -0.009952
v -0.007179 -0.008443 -0.008436
v -0.007179 -0.009959 -0.006588
v -0.007179 -0.011085 -0.004481
v -0.007179 -0.011779 -0.002194
v -0.007179 -0.012013 0.000184
v -0.007179 -0.011779 0.002563
v -0.007179 -0.011085 0.004849
v -0.007179 -0.009959 0.006957
v -0.007179 -0.008443 0.008804
v -0.007179 -0.006595 0.010320
v -0.007179 -0.004488 0.011447
v -0.007179 -0.002201 0.012140
v -0.007179 0.000177 0.012375
v -0.007179 0.002556 0.012140
v -0.007179 0.004842 0.011447
v -0.007179 0.006950 0.010320
v -0.007179 0.008797 0.008804
v -0.007179 0.010313 0.006957
v -0.007179 0.011440 0.004849
v -0.007179 0.012133 0.002563
v -0.007179 0.012368 0.000184
v -0.007179 0.012133 -0.002194
v -0.007179 0.011440 -0.004481
v -0.007179 0.010313 -0.006588
v -0.007179 0.008797 -0.008436
v -0.007179 0.006950 -0.009952
v -0.007179 0.004842 -0.011078
v -0.007179 0.002556 -0.011772
v -0.007179 0.000177 -0.005882
v -0.007179 -0.001006 -0.005765
v -0.007179 -0.002144 -0.005420
v -0.007179 -0.003193 -0.004859
v -0.007179 -0.004112 -0.004105
v -0.007179 -0.004866 -0.003186
v -0.007179 -0.005427 -0.002137
v -0.007179 -0.005772 -0.000999
v -0.007179 -0.005889 0.000184
v -0.007179 -0.005772 0.001368
v -0.007179 -0.005427 0.002506
v -0.007179 -0.004866 0.003554
v -0.007179 -0.004112 0.004474
v -0.007179 -0.003193 0.005228
v -0.007179 -0.002144 0.005788
v -0.007179 -0.001006 0.006134
v -0.007179 0.000177 0.006250
v -0.007179 0.001361 0.006134
v -0.007179 0.002499 0.005788
v -0.007179 0.003547 0.005228
v -0.007179 0.004467 0.004474
v -0.007179 0.005221 0.003554
v -0.007179 0.005782 0.002506
v -0.007179 0.006127 0.001368
v -0.007179 0.006243 0.000184
v -0.007179 0.006127 -0.000999
v -0.007179 0.005782 -0.002137
v -0.007179 0.005221 -0.003186
v -0.007179 0.004467 -0.004105
v -0.007179 0.003547 -0.004859
v -0.007179 0.002499 -0.005420
v -0.007179 0.001361 -0.005765
v -0.013466 0.000177 -0.005882
v -0.013466 -0.001006 -0.005765
v -0.013466 -0.002144 -0.005420
v -0.013466 -0.003193 -0.004859
v -0.013466 -0.004112 -0.004105
v -0.013466 -0.004866 -0.003186
v -0.013466 -0.005427 -0.002137
v -0.013466 -0.005772 -0.000999
v -0.013466 -0.005889 0.000184
v -0.013466 -0.005772 0.001368
v -0.013466 -0.005427 0.002506
v -0.013466 -0.004866 0.003554
v -0.013466 -0.004112 0.004474
v -0.013466 -0.003193 0.005228
v -0.013466 -0.002144 0.005788
v -0.013466 -0.001006 0.006134
v -0.013466 0.000177 0.006250
v -0.013466 0.001361 0.006134
v -0.013466 0.002499 0.005788
v -0.013466 0.003547 0.005228
v -0.013466 0.004467 0.004474
v -0.013466 0.005221 0.003554
v -0.013466 0.005782 0.002506
v -0.013466 0.006127 0.001368
v -0.013466 0.006243 0.000184
v -0.013466 0.006127 -0.000999
v -0.013466 0.005782 -0.002137
v -0.013466 0.005221 -0.003186
v -0.013466 0.004467 -0.004105
v -0.013466 0.003547 -0.004859
v -0.013466 0.002499 -0.005420
v -0.013466 0.001361 -0.005765
v -0.013466 0.000177 -0.011929
v -0.013466 -0.002186 -0.011696
v -0.013466 -0.004458 -0.011007
v -0.013466 -0.006553 -0.009888
v -0.013466 -0.008388 -0.008381
v -0.013466 -0.009894 -0.006545
v -0.013466 -0.011014 -0.004451
v -0.013466 -0.011703 -0.002179
v -0.013466 -0.011936 0.000184
v -0.013466 -0.011703 0.002548
v -0.013466 -0.011014 0.004820
v -0.013466 -0.009894 0.006914
v -0.013466 -0.008388 0.008750
v -0.013466 -0.006552 0.010256
v -0.013466 -0.004458 0.011376
v -0.013466 -0.002186 0.012065
v -0.013466 0.000177 0.012298
v -0.013466 0.002541 0.012065
v -0.013466 0.004813 0.011376
v -0.013466 0.006907 0.010256
v -0.013466 0.008743 0.008750
v -0.013466 0.010249 0.006914
v -0.013466 0.011369 0.004820
v -0.013466 0.012058 0.002548
v -0.013466 0.012291 0.000184
v -0.013466 0.012058 -0.002179
v -0.013466 0.011369 -0.004451
v -0.013466 0.010249 -0.006545
v -0.013466 0.008743 -0.008381
v -0.013466 0.006907 -0.009888
v -0.013466 0.004813 -0.011007
v -0.013466 0.002541 -0.011696
v -0.016273 0.000177 -0.011929
v -0.016273 -0.002186 -0.011696
v -0.016273 -0.004458 -0.011007
v -0.016273 -0.006553 -0.009888
v -0.016273 -0.008388 -0.008381
v -0.016273 -0.009894 -0.006545
v -0.016273 -0.011014 -0.004451
v -0.016273 -0.011703 -0.002179
v -0.016273 -0.011936 0.000184
v -0.016273 -0.011703 0.002548
v -0.016273 -0.011014 0.004820
v -0.016273 -0.009894 0.006914
v -0.016273 -0.008388 0.008750
v -0.016273 -0.006552 0.010256
v -0.016273 -0.004458 0.011376
v -0.016273 -0.002186 0.012065
v -0.016273 0.000177 0.012298
v -0.016273 0.002541 0.012065
v -0.016273 0.004813 0.011376
v -0.016273 0.006907 0.010256
v -0.016273 0.008743 0.008750
v -0.016273 0.010249 0.006914
v -0.016273 0.011369 0.004820
v -0.016273 0.012058 0.002548
v -0.016273 0.012291 0.000184
v -0.016273 0.012058 -0.002179
v -0.016273 0.011369 -0.004451
v -0.016273 0.010249 -0.006545
v -0.016273 0.008743 -0.008381
v -0.016273 0.006907 -0.009888
v -0.016273 0.004813 -0.011007
v -0.016273 0.002541 -0.011696
v -0.016273 0.000177 -0.013304
v -0.016273 -0.002454 -0.013045
v -0.016273 -0.004984 -0.012277
v -0.016273 -0.007316 -0.011031
v -0.016273 -0.009360 -0.009353
v -0.016273 -0.011038 -0.007309
v -0.016273 -0.012284 -0.004977
v -0.016273 -0.013052 -0.002447
v -0.016273 -0.013311 0.000184
v -0.016273 -0.013052 0.002816
v -0.016273 -0.012284 0.005346
v -0.016273 -0.011038 0.007678
v -0.016273 -0.009360 0.009722
v -0.016273 -0.007316 0.011400
v -0.016273 -0.004984 0.012646
v -0.016273 -0.002454 0.013413
v -0.016273 0.000177 0.013673
v -0.016273 0.002809 0.013413
v -0.016273 0.005339 0.012646
v -0.016273 0.007671 0.011399
v -0.016273 0.009715 0.009722
v -0.016273 0.011392 0.007678
v -0.016273 0.012639 0.005346
v -0.016273 0.013406 0.002816
v -0.016273 0.013666 0.000184
v -0.016273 0.013406 -0.002447
v -0.016273 0.012639 -0.004977
v -0.016273 0.011392 -0.007309
v -0.016273 0.009715 -0.009353
v -0.016273 0.007671 -0.011031
v -0.016273 0.005339 -0.012277
v -0.016273 0.002809 -0.013045
v -0.020639 0.000177 -0.013304
v -0.020639 -0.002454 -0.013045
v -0.020639 -0.004984 -0.012277
v -0.020639 -0.007316 -0.011031
v -0.020639 -0.009360 -0.009353
v -0.020639 -0.011038 -0.007309
v -0.020639 -0.012284 -0.004977
v -0.020639 -0.013052 -0.002447
v -0.020639 -0.013311 0.000184
v -0.020639 -0.013052 0.002816
v -0.020639 -0.012284 0.005346
v -0.020639 -0.011038 0.007678
v -0.020639 -0.009360 0.009722
v -0.020639 -0.007316 0.011400
v -0.020639 -0.004984 0.012646
v -0.020639 -0.002454 0.013413
v -0.020639 0.000177 0.013673
v -0.020639 0.002809 0.013413
v -0.020639 0.005339 0.012646
v -0.020639 0.007671 0.011399
v -0.020639 0.009715 0.009722
v -0.020639 0.011392 0.007678
v -0.020639 0.012639 0.005346
v -0.020639 0.013406 0.002816
v -0.020639 0.013666 0.000184
v -0.020639 0.013406 -0.002447
v -0.020639 0.012639 -0.004977
v -0.020639 0.011392 -0.007309
v -0.020639 0.009715 -0.009353
v -0.020639 0.007671 -0.011031
v -0.020639 0.005339 -0.012277
v -0.020639 0.002809 -0.013045
v 0.003740 0.000177 -0.010782
v 0.003740 -0.001962 -0.010571
v 0.003740 -0.004019 -0.009947
v 0.003740 -0.005915 -0.008934
v 0.003740 -0.007577 -0.007570
v 0.003740 -0.008941 -0.005908
v 0.003740 -0.009954 -0.004012
v 0.003740 -0.010578 -0.001955
v 0.003740 -0.010789 0.000184
v 0.003740 -0.010578 0.002324
v 0.003740 -0.009954 0.004381
v 0.003740 -0.008941 0.006277
v 0.003740 -0.007577 0.007939
v 0.003740 -0.005915 0.009302
v 0.003740 -0.004019 0.010316
v 0.003740 -0.001962 0.010940
v 0.003740 0.000177 0.011151
v 0.003740 0.002317 0.010940
v 0.003740 0.004374 0.010316
v 0.003740 0.006270 0.009302
v 0.003740 0.007932 0.007939
v 0.003740 0.009296 0.006277
v 0.003740 0.010309 0.004381
v 0.003740 0.010933 0.002324
v 0.003740 0.011144 0.000184
v 0.003740 0.010933 -0.001955
v 0.003740 0.010309 -0.004012
v 0.003740 0.009296 -0.005908
v 0.003740 0.007932 -0.007570
v 0.003740 0.006270 -0.008934
v 0.003740 0.004374 -0.009947
v 0.003740 0.002317 -0.010571
v 0.003740 0.000177 -0.012006
v 0.003740 -0.002201 -0.011772
v 0.003740 -0.004488 -0.011078
v 0.003740 -0.006595 -0.009952
v 0.003740 -0.008443 -0.008436
v 0.003740 -0.009959 -0.006588
v 0.003740 -0.011085 -0.004481
v 0.003740 -0.011779 -0.002194
v 0.003740 -0.012013 0.000184
v 0.003740 -0.011779 0.002563
v 0.003740 -0.011085 0.004849
v 0.003740 -0.009959 0.006957
v 0.003740 -0.008443 0.008804
v 0.003740 -0.006595 0.010320
v 0.003740 -0.004488 0.011447
v 0.003740 -0.002201 0.012140
v 0.003740 0.000177 0.012375
v 0.003740 0.002556 0.012140
v 0.003740 0.004842 0.011447
v 0.003740 0.006950 0.010320
v 0.003740 0.008797 0.008804
v 0.003740 0.010313 0.006957
v 0.003740 0.011440 0.004849
v 0.003740 0.012133 0.002563
v 0.003740 0.012368 0.000184
v 0.003740 0.012133 -0.002194
v 0.003740 0.011440 -0.004481
v 0.003740 0.010313 -0.006588
v 0.003740 0.008797 -0.008436
v 0.003740 0.006950 -0.009952
v 0.003740 0.004842 -0.011078
v 0.003740 0.002556 -0.011772
v 0.007344 0.000177 -0.012006
v 0.007344 -0.002201 -0.011772
v 0.007344 -0.004488 -0.011078
v 0.007344 -0.006595 -0.009952
v 0.007344 -0.008443 -0.008436
v 0.007344 -0.009959 -0.006588
v 0.007344 -0.011085 -0.004481
v 0.007344 -0.011779 -0.002194
v 0.007344 -0.012013 0.000184
v 0.007344 -0.011779 0.002563
v 0.007344 -0.011085 0.004849
v 0.007344 -0.009959 0.006957
v 0.007344 -0.008443 0.008804
v 0.007344 -0.006595 0.010320
v 0.007344 -0.004488 0.011447
v 0.007344 -0.002201 0.012140
v 0.007344 0.000177 0.012375
v 0.007344 0.002556 0.012140
v 0.007344 0.004842 0.011447
v 0.007344 0.006950 0.010320
v 0.007344 0.008797 0.008804
v 0.007344 0.010313 0.006957
v 0.007344 0.011440 0.004849
v 0.007344 0.012133 0.002563
v 0.007344 0.012368 0.000184
v 0.007344 0.012133 -0.002194
v 0.007344 0.011440 -0.004481
v 0.007344 0.010313 -0.006588
v 0.007344 0.008797 -0.008436
v 0.007344 0.006950 -0.009952
v 0.007344 0.004842 -0.011078
v 0.007344 0.002556 -0.011772
v 0.007344 0.000177 -0.005882
v 0.007344 -0.001006 -0.005765
v 0.007344 -0.002144 -0.005420
v 0.007344 -0.003193 -0.004859
v 0.007344 -0.004112 -0.004105
v 0.007344 -0.004866 -0.003186
v 0.007344 -0.005427 -0.002137
v 0.007344 -0.005772 -0.000999
v 0.007344 -0.005889 0.000184
v 0.007344 -0.005772 0.001368
v 0.007344 -0.005427 0.002506
v 0.007344 -0.004866 0.003554
v 0.007344 -0.004112 0.004474
v 0.007344 -0.003193 0.005228
v 0.007344 -0.002144 0.005788
v 0.007344 -0.001006 0.006134
v 0.007344 0.000177 0.006250
v 0.007344 0.001361 0.006134
v 0.007344 0.002499 0.005788
v 0.007344 0.003547 0.005228
v 0.007344 0.004467 0.004474
v 0.007344 0.005221 0.003554
v 0.007344 0.005782 0.002506
v 0.007344 0.006127 0.001368
v 0.007344 0.006243 0.000184
v 0.007344 0.006127 -0.000999
v 0.007344 0.005782 -0.002137
v 0.007344 0.005221 -0.003186
v 0.007344 0.004467 -0.004105
v 0.007344 0.003547 -0.004859
v 0.007344 0.002499 -0.005420
v 0.007344 0.001361 -0.005765
v 0.013631 0.000177 -0.005882
v 0.013631 -0.001006 -0.005765
v 0.013631 -0.002144 -0.005420
v 0.013631 -0.003193 -0.004859
v 0.013631 -0.004112 -0.004105
v 0.013631 -0.004866 -0.003186
v 0.013631 -0.005427 -0.002137
v 0.013631 -0.005772 -0.000999
v 0.013631 -0.005889 0.000184
v 0.013631 -0.005772 0.001368
v 0.013631 -0.005427 0.002506
v 0.013631 -0.004866 0.003554
v 0.013631 -0.004112 0.004474
v 0.013631 -0.003193 0.005228
v 0.013631 -0.002144 0.005788
v 0.013631 -0.001006 0.006134
v 0.013631 0.000177 0.006250
v 0.013631 0.001361 0.006134
v 0.013631 0.002499 0.005788
v 0.013631 0.003547 0.005228
v 0.013631 0.004467 0.004474
v 0.013631 0.005221 0.003554
v 0.013631 0.005782 0.002506
v 0.013631 0.006127 0.001368
v 0.013631 0.006243 0.000184
v 0.013631 0.006127 -0.000999
v 0.013631 0.005782 -0.002137
v 0.013631 0.005221 -0.003186
v 0.013631 0.004467 -0.004105
v 0.013631 0.003547 -0.004859
v 0.013631 0.002499 -0.005420
v 0.013631 0.001361 -0.005765
v 0.013631 0.000177 -0.011929
v 0.013631 -0.002186 -0.011696
v 0.013631 -0.004458 -0.011007
v 0.013631 -0.006553 -0.009888
v 0.013631 -0.008388 -0.008381
v 0.013631 -0.009894 -0.006545
v 0.013631 -0.011014 -0.004451
v 0.013631 -0.011703 -0.002179
v 0.013631 -0.011936 0.000184
v 0.013631 -0.011703 0.002548
v 0.013631 -0.011014 0.004820
v 0.013631 -0.009894 0.006914
v 0.013631 -0.008388 0.008750
v 0.013631 -0.006552 0.010256
v 0.013631 -0.004458 0.011376
v 0.013631 -0.002186 0.012065
v 0.013631 0.000177 0.012298
v 0.013631 0.002541 0.012065
v 0.013631 0.004813 0.011376
v 0.013631 0.006907 0.010256
v 0.013631 0.008743 0.008750
v 0.013631 0.010249 0.006914
v 0.013631 0.011369 0.004820
v 0.013631 0.012058 0.002548
v 0.013631 0.012291 0.000184
v 0.013631 0.012058 -0.002179
v 0.013631 0.011369 -0.004451
v 0.013631 0.010249 -0.006545
v 0.013631 0.008743 -0.008381
v 0.013631 0.006907 -0.009888
v 0.013631 0.004813 -0.011007
v 0.013631 0.002541 -0.011696
v 0.016439 0.000177 -0.011929
v 0.016439 -0.002186 -0.011696
v 0.016439 -0.004458 -0.011007
v 0.016439 -0.006553 -0.009888
v 0.016439 -0.008388 -0.008381
v 0.016439 -0.009894 -0.006545
v 0.016439 -0.011014 -0.004451
v 0.016439 -0.011703 -0.002179
v 0.016439 -0.011936 0.000184
v 0.016439 -0.011703 0.002548
v 0.016439 -0.011014 0.004820
v 0.016439 -0.009894 0.006914
v 0.016439 -0.008388 0.008750
v 0.016439 -0.006552 0.010256
v 0.016439 -0.004458 0.011376
v 0.016439 -0.002186 0.012065
v 0.016439 0.000177 0.012298
v 0.016439 0.002541 0.012065
v 0.016439 0.004813 0.011376
v 0.016439 0.006907 0.010256
v 0.016439 0.008743 0.008750
v 0.016439 0.010249 0.006914
v 0.016439 0.011369 0.004820
v 0.016438 0.012058 0.002548
v 0.016438 0.012291 0.000184
v 0.016438 0.012058 -0.002179
v 0.016439 0.011369 -0.004451
v 0.016439 0.010249 -0.006545
v 0.016439 0.008743 -0.008381
v 0.016439 0.006907 -0.009888
v 0.016439 0.004813 -0.011007
v 0.016439 0.002541 -0.011696
v 0.016438 0.000177 -0.013304
v 0.016438 -0.002454 -0.013045
v 0.016438 -0.004984 -0.012277
v 0.016438 -0.007316 -0.011031
v 0.016438 -0.009360 -0.009353
v 0.016438 -0.011038 -0.007309
v 0.016438 -0.012284 -0.004977
v 0.016438 -0.013052 -0.002447
v 0.016438 -0.013311 0.000184
v 0.016438 -0.013052 0.002816
v 0.016438 -0.012284 0.005346
v 0.016438 -0.011038 0.007678
v 0.016438 -0.009360 0.009722
v 0.016438 -0.007316 0.011400
v 0.016438 -0.004984 0.012646
v 0.016438 -0.002454 0.013413
v 0.016438 0.000177 0.013673
v 0.016438 0.002809 0.013413
v 0.016438 0.005339 0.012646
v 0.016438 0.007671 0.011399
v 0.016438 0.009715 0.009722
v 0.016438 0.011392 0.007678
v 0.016438 0.012639 0.005346
v 0.016438 0.013406 0.002816
v 0.016438 0.013666 0.000184
v 0.016438 0.013406 -0.002447
v 0.016438 0.012639 -0.004977
v 0.016438 0.011392 -0.007309
v 0.016438 0.009715 -0.009353
v 0.016438 0.007671 -0.011031
v 0.016438 0.005339 -0.012277
v 0.016438 0.002809 -0.013045
v 0.020804 0.000177 -0.013304
v 0.020804 -0.002454 -0.013045
v 0.020804 -0.004984 -0.012277
v 0.020804 -0.007316 -0.011031
v 0.020804 -0.009360 -0.009353
v 0.020804 -0.011038 -0.007309
v 0.020804 -0.012284 -0.004977
v 0.020804 -0.013052 -0.002447
v 0.020804 -0.013311 0.000184
v 0.020804 -0.013052 0.002816
v 0.020804 -0.012284 0.005346
v 0.020804 -0.011038 0.007678
v 0.020804 -0.009360 0.009722
v 0.020804 -0.007316 0.011400
v 0.020804 -0.004984 0.012646
v 0.020804 -0.002454 0.013413
v 0.020804 0.000177 0.013673
v 0.020804 0.002809 0.013413
v 0.020804 0.005339 0.012646
v 0.020804 0.007671 0.011399
v 0.020804 0.009715 0.009722
v 0.020804 0.011392 0.007678
v 0.020804 0.012639 0.005346
v 0.020804 0.013406 0.002816
v 0.020804 0.013666 0.000184
v 0.020804 0.013406 -0.002447
v 0.020804 0.012639 -0.004977
v 0.020804 0.011392 -0.007309
v 0.020804 0.009715 -0.009353
v 0.020804 0.007671 -0.011031
v 0.020804 0.005339 -0.012277
v 0.020804 0.002809 -0.013045
vn 1.0000 -0.0000 -0.0000
vn -0.0000 0.1951 -0.9808
vn -0.0000 -0.0000 -1.0000
vn -0.0000 0.3826 -0.9239
vn -0.0000 0.5555 -0.8315
vn -0.0000 0.7071 -0.7071
vn -0.0001 0.8316 -0.5554
vn -0.0000 0.8315 -0.5555
vn 0.0001 0.9239 -0.3826
vn -0.0000 0.9239 -0.3826
vn -0.0000 0.9808 -0.1952
vn -0.0000 1.0000 -0.0000
vn -0.0000 0.9808 0.1951
vn 0.0001 0.9239 0.3826
vn -0.0000 0.9239 0.3826
vn -0.0001 0.8314 0.5556
vn -0.0000 0.8315 0.5555
vn -0.0000 0.7070 0.7072
vn 0.0001 0.5555 0.8315
vn -0.0000 0.5555 0.8315
vn -0.0001 0.3827 0.9239
vn -0.0000 0.3828 0.9238
vn -0.0000 0.1951 0.9808
vn -0.0000 -0.0000 1.0000
vn -0.0000 -0.1952 0.9808
vn -0.0001 -0.3829 0.9238
vn -0.0000 -0.3828 0.9238
vn 0.0001 -0.5555 0.8315
vn -0.0000 -0.5555 0.8315
vn -0.0000 -0.7070 0.7072
vn -0.0000 -0.8315 0.5555
vn -0.0000 -0.9239 0.3826
vn -0.0000 -0.9808 0.1951
vn -0.0000 -1.0000 -0.0000
vn -0.0000 -0.9808 -0.1952
vn -0.0000 -0.9239 -0.3826
vn -0.0000 -0.8315 -0.5555
vn -0.0000 -0.7071 -0.7071
vn -0.0000 -0.5555 -0.8315
vn -0.0000 -0.3826 -0.9239
vn -0.0000 -0.1952 -0.9808
vn 0.0001 -0.8315 0.5556
vn -0.0001 -0.8316 0.5554
vn -1.0000 -0.0000 -0.0000
vn -0.0001 0.9808 -0.1951
vn 0.0003 0.9239 -0.3827
vn -0.0003 0.9239 -0.3827
vn 0.0001 0.9808 -0.1951
vn -0.0001 -0.5556 0.8314
vn 0.0001 -0.5556 0.8314
vn -0.0001 0.8314 -0.5556
vn 0.0001 0.8314 -0.5556
vn 0.0001 -0.3827 0.9239
vn -0.0001 -0.3827 0.9239
vn -0.0000 -0.1951 -0.9808
vn -0.0000 0.7072 -0.7070
vn -0.0000 -0.1951 0.9808
vn -0.0000 -0.3827 -0.9239
vn -0.0000 0.3827 -0.9239
vn -0.0000 0.3826 0.9239
vn -0.0000 0.5556 0.8314
vn -0.0000 -0.9239 -0.3827
vn -0.0000 0.7071 0.7071
vn -0.0000 -0.9808 -0.1951
vn -0.0000 0.8314 0.5556
vn -0.0001 -0.9239 0.3827
vn 0.0001 -0.9239 0.3827
vn -0.0000 0.9239 -0.3827
vn -0.0000 0.8314 -0.5556
vn -0.0001 -0.5551 0.8318
vn -0.0004 -0.3827 0.9239
vn 0.0004 -0.3827 0.9239
vn -0.0001 -0.5555 0.8315
vn 0.0004 -0.0000 -1.0000
vn -0.0002 -0.1952 -0.9808
vn 0.0002 -0.1952 -0.9808
vn -0.0004 -0.0000 -1.0000
vn 0.0001 0.7069 -0.7073
vn -0.0001 0.7069 -0.7073
vn 0.0001 -0.1952 0.9808
vn -0.0001 -0.1952 0.9808
vn 0.0001 -0.3827 -0.9239
vn -0.0001 -0.3827 -0.9239
vn -0.0004 0.5555 -0.8315
vn 0.0004 0.5556 -0.8315
vn -0.0002 -0.0000 1.0000
vn 0.0002 -0.0000 1.0000
vn -0.0001 -0.5556 -0.8314
vn 0.0003 0.3829 -0.9238
vn -0.0003 0.3829 -0.9238
vn 0.0005 0.1952 0.9808
vn -0.0005 0.1952 0.9808
vn -0.0001 0.1952 -0.9808
vn 0.0001 0.1952 -0.9808
vn -0.0005 0.3829 0.9238
vn 0.0005 0.3829 0.9238
vn -0.0000 -0.8314 -0.5556
vn 0.0002 0.5555 0.8315
vn 0.0002 0.5550 0.8319
vn 0.0005 0.7071 0.7071
vn -0.0005 0.7071 0.7071
vn -0.0001 -0.9808 -0.1952
vn 0.0001 -0.9808 -0.1952
vn -0.0007 0.8315 0.5555
vn 0.0007 0.8315 0.5556
vn 0.0003 -1.0000 -0.0000
vn -0.0003 -1.0000 -0.0000
vn 0.0002 0.9239 0.3826
vn -0.0003 0.9237 0.3831
vn -0.0001 -0.9808 0.1952
vn 0.0001 -0.9808 0.1952
vn 0.0003 0.9809 0.1946
vn -0.0002 0.9808 0.1951
vn 0.0003 -0.9238 0.3829
vn -0.0003 -0.9238 0.3829
vn -0.0007 1.0000 -0.0000
vn 0.0007 1.0000 -0.0000
vn -0.0006 -0.8315 0.5556
vn 0.0006 -0.8315 0.5556
vn 0.0002 0.9808 -0.1951
vn -0.0003 0.9809 -0.1946
vn 0.0003 -0.7073 0.7069
vn -0.0003 -0.7073 0.7069
vn -0.0000 -0.8315 -0.5556
vn -0.0000 -0.9238 -0.3828
vn -0.0004 0.5556 0.8315
vn 0.0004 0.5556 0.8315
vn -0.0004 0.8315 0.5556
vn 0.0004 0.8315 0.5556
vn 0.0001 0.9238 0.3828
vn -0.0001 0.9238 0.3828
vn 0.0001 -0.9238 0.3828
vn -0.0001 -0.8315 0.5556
vn -0.0000 0.9808 -0.1951
vn 0.0002 -0.7070 0.7072
vn -0.0001 -0.7073 0.7070
vn 0.0002 0.9238 -0.3828
vn -0.0002 0.9238 -0.3828
vn -0.0005 -0.5556 0.8315
vn 0.0005 -0.5556 0.8315
vn -0.0005 0.8315 -0.5556
vn 0.0005 0.8315 -0.5556
vn 0.0002 -0.3828 0.9238
vn -0.0002 -0.3828 0.9238
vn 0.0001 0.7071 -0.7071
vn -0.0002 0.7073 -0.7069
vn -0.0000 -0.3825 -0.9240
vn -0.0000 0.5556 -0.8315
vn 0.0001 -0.5556 -0.8315
vn -0.0001 -0.5556 -0.8315
vn -0.0001 -0.7073 -0.7069
vn -0.0000 -0.7072 -0.7070
vn 0.0001 0.3828 0.9238
vn -0.0001 0.3828 0.9238
vn -0.0002 0.8315 0.5556
vn 0.0004 0.9239 0.3827
vn -0.0004 0.9239 0.3827
vn 0.0002 0.8315 0.5556
vn -0.0003 0.9808 0.1951
vn 0.0003 0.9808 0.1951
vn 0.0001 1.0000 -0.0000
vn -0.0001 1.0000 -0.0000
vn 0.0004 -0.8315 0.5556
vn -0.0004 -0.8315 0.5556
vn -0.0001 0.9808 -0.1952
vn 0.0001 0.9808 -0.1952
vn -0.0002 -0.7071 0.7071
vn 0.0002 -0.7071 0.7071
vn 0.0001 0.9239 -0.3827
vn -0.0001 0.9239 -0.3827
vn 0.0001 -0.5556 0.8315
vn -0.0001 -0.5556 0.8315
vn -0.0000 0.8315 -0.5556
vn -0.0001 -0.3825 0.9239
vn -0.0000 -0.3827 0.9239
vn 0.0001 -0.1952 -0.9808
vn -0.0001 -0.1950 -0.9808
vn -0.0000 -0.1950 0.9808
vn -0.0003 -0.3827 -0.9239
vn 0.0003 -0.3827 -0.9239
vn 0.0001 0.5556 -0.8315
vn -0.0001 0.5556 -0.8315
vn 0.0001 -0.0000 1.0000
vn -0.0001 -0.0000 1.0000
vn -0.0003 0.3827 -0.9239
vn 0.0003 0.3827 -0.9239
vn 0.0001 0.1950 -0.9808
vn 0.0002 0.3828 0.9238
vn -0.0001 0.3825 0.9240
vn 0.0001 -0.8315 -0.5556
vn -0.0001 -0.8315 -0.5556
vn -0.0002 0.5556 0.8315
vn -0.0000 0.5554 0.8316
vn -0.0001 -0.9239 -0.3827
vn 0.0001 -0.9239 -0.3827
vn 0.0001 0.8314 -0.5557
vn -0.0002 0.9239 -0.3826
vn -0.0002 0.9239 0.3826
vn 0.0002 0.8316 0.5554
vn 0.0002 0.9239 -0.3827
vn -0.0002 0.9239 -0.3827
vn -0.0002 -0.5556 0.8314
vn 0.0002 -0.5556 0.8314
vn -0.0002 0.8314 -0.5556
vn 0.0002 0.8314 -0.5556
vn 0.0002 -0.3827 0.9239
vn -0.0002 -0.3827 0.9239
vn 0.0003 0.5553 -0.8316
vn -0.0002 0.5557 -0.8314
vn -0.0001 -0.5554 0.8316
vn -0.0001 -0.5552 0.8317
vn -0.0003 -0.0000 -1.0000
vn 0.0003 -0.0000 -1.0000
vn -0.0003 -0.1952 -0.9808
vn 0.0003 -0.1952 -0.9808
vn 0.0002 0.7069 -0.7073
vn -0.0002 0.7069 -0.7073
vn 0.0004 -0.1952 0.9808
vn -0.0004 -0.1952 0.9808
vn -0.0006 0.5555 -0.8315
vn 0.0006 0.5556 -0.8315
vn -0.0004 -0.0000 1.0000
vn 0.0004 -0.0000 1.0000
vn -0.0000 0.1952 -0.9808
vn 0.0002 0.5556 0.8314
vn 0.0002 0.5549 0.8319
vn 0.0007 0.7071 0.7071
vn -0.0007 0.7071 0.7071
vn -0.0008 0.8315 0.5555
vn 0.0008 0.8315 0.5555
vn 0.0001 0.9809 0.1947
vn -0.0001 0.9808 0.1949
vn -0.0007 -0.8315 0.5556
vn 0.0007 -0.8315 0.5556
vn -0.0000 0.9808 -0.1948
vn -1.0000 -0.0001 -0.0000
vn -1.0000 0.0002 -0.0000
vn -1.0000 0.0003 -0.0000
vn 0.0005 0.5556 0.8315
vn -0.0005 0.5556 0.8315
vn -0.0000 -0.9238 0.3828
vn -0.0000 -0.8315 0.5556
vn 0.0001 0.9238 -0.3828
vn -0.0001 0.9238 -0.3828
vn -0.0002 -0.5556 0.8315
vn 0.0002 -0.5556 0.8315
vn -0.0004 0.8315 -0.5556
vn 0.0004 0.8315 -0.5556
vn 0.0002 -0.5556 -0.8315
vn -0.0002 -0.5556 -0.8315
vn -0.0002 -0.7073 -0.7069
vn -0.0002 0.3828 0.9238
vn -1.0000 -0.0005 -0.0001
vn -1.0000 -0.0002 -0.0000
vn -1.0000 0.0001 -0.0001
vn -1.0000 0.0002 -0.0001
vn -1.0000 0.0006 -0.0004
vn -1.0000 0.0003 -0.0002
vn -1.0000 0.0003 -0.0003
vn -1.0000 -0.0005 0.0001
vn -1.0000 0.0002 -0.0003
vn -1.0000 -0.0003 0.0002
vn -1.0000 -0.0002 0.0001
vn -1.0000 -0.0000 -0.0001
vn -1.0000 -0.0000 0.0002
vn -1.0000 -0.0000 0.0003
vn -1.0000 -0.0002 0.0002
vn -1.0000 -0.0000 -0.0003
vn -1.0000 -0.0000 -0.0002
vn -1.0000 0.0001 0.0002
vn -1.0000 -0.0004 0.0006
vn -1.0000 -0.0001 0.0002
vn -1.0000 0.0004 0.0006
vn -1.0000 0.0003 0.0003
vn -1.0000 0.0001 0.0001
vn -1.0000 -0.0001 -0.0002
vn -1.0000 -0.0001 -0.0001
vn -1.0000 0.0006 0.0004
vn -1.0000 0.0003 0.0002
vn -1.0000 -0.0002 -0.0003
vn -1.0000 0.0002 0.0001
vn -1.0000 -0.0002 -0.0002
vn -1.0000 -0.0003 -0.0002
vn -1.0000 -0.0002 -0.0001
vn -0.0000 0.8315 0.5556
vn -0.0000 0.9239 0.3827
vn -0.0001 0.9808 0.1951
vn 0.0001 0.9808 0.1951
vn -0.0002 -0.9239 0.3827
vn 0.0002 -0.9239 0.3827
vn 0.0003 1.0000 -0.0000
vn -0.0003 1.0000 -0.0000
vn 0.0005 -0.8315 0.5556
vn -0.0005 -0.8315 0.5556
vn -0.0004 -0.7071 0.7071
vn 0.0004 -0.7071 0.7071
vn 0.0004 -0.5556 0.8315
vn -0.0004 -0.5556 0.8315
vn -0.0002 0.8315 -0.5556
vn 0.0002 0.8315 -0.5556
vn -0.0002 -0.3825 0.9239
vn -0.0002 -0.3827 -0.9239
vn 0.0002 -0.3827 -0.9239
vn 0.0002 0.5556 -0.8315
vn -0.0002 0.5556 -0.8315
vn 0.0003 -0.0000 1.0000
vn -0.0003 -0.0000 1.0000
vn 0.0004 -0.5556 -0.8315
vn -0.0004 -0.5556 -0.8315
vn -0.0002 0.3827 -0.9239
vn 0.0002 0.3827 -0.9239
vn -0.0001 0.1951 0.9808
vn -0.0000 0.1950 0.9808
vn -0.0004 -0.7071 -0.7071
vn 0.0004 -0.7071 -0.7071
vn -0.0001 0.3826 0.9239
vn 0.0005 -0.8315 -0.5556
vn -0.0005 -0.8315 -0.5556
vn -0.0001 0.5556 0.8315
vn -0.0002 -0.9239 -0.3827
vn 0.0002 -0.9239 -0.3827
vt 0.375000 0.500000
vt 0.343750 0.500000
vt 0.031250 0.500000
vt 0.031250 0.750000
vt 0.000000 0.750000
vt 0.000000 0.500000
vt 0.062500 0.500000
vt 0.062500 0.750000
vt 0.093750 0.500000
vt 0.093750 0.750000
vt 0.125000 0.500000
vt 0.125000 0.750000
vt 0.156250 0.500000
vt 0.156250 0.750000
vt 0.187500 0.500000
vt 0.187500 0.750000
vt 0.218750 0.500000
vt 0.218750 0.750000
vt 0.250000 0.500000
vt 0.250000 0.750000
vt 0.281250 0.500000
vt 0.281250 0.750000
vt 0.312500 0.500000
vt 0.312500 0.750000
vt 0.343750 0.750000
vt 0.375000 0.750000
vt 0.406250 0.500000
vt 0.406250 0.750000
vt 0.437500 0.500000
vt 0.437500 0.750000
vt 0.468750 0.500000
vt 0.468750 0.750000
vt 0.500000 0.500000
vt 0.500000 0.750000
vt 0.531250 0.500000
vt 0.531250 0.750000
vt 0.562500 0.500000
vt 0.562500 0.750000
vt 0.593750 0.500000
vt 0.593750 0.750000
vt 0.625000 0.500000
vt 0.625000 0.750000
vt 0.656250 0.500000
vt 0.656250 0.750000
vt 0.687500 0.500000
vt 0.687500 0.750000
vt 0.718750 0.500000
vt 0.718750 0.750000
vt 0.750000 0.500000
vt 0.750000 0.750000
vt 0.781250 0.500000
vt 0.781250 0.750000
vt 0.812500 0.500000
vt 0.812500 0.750000
vt 0.843750 0.500000
vt 0.843750 0.750000
vt 0.875000 0.500000
vt 0.875000 0.750000
vt 0.906250 0.500000
vt 0.906250 0.750000
vt 0.937500 0.500000
vt 0.937500 0.750000
vt 0.968750 0.500000
vt 0.968750 0.750000
vt 1.000000 0.500000
vt 1.000000 0.750000
vt 0.750000 0.490000
vt 0.796822 0.485388
vt 0.841844 0.471731
vt 0.883337 0.449553
vt 0.919706 0.419706
vt 0.949553 0.383337
vt 0.971731 0.341844
vt 0.985388 0.296822
vt 0.990000 0.250000
vt 0.985388 0.203178
vt 0.971731 0.158156
vt 0.949553 0.116663
vt 0.919706 0.080294
vt 0.883337 0.050447
vt 0.841844 0.028269
vt 0.796822 0.014612
vt 0.750000 0.010000
vt 0.703178 0.014612
vt 0.658156 0.028269
vt 0.616663 0.050447
vt 0.580294 0.080294
vt 0.550447 0.116663
vt 0.528269 0.158156
vt 0.514612 0.203178
vt 0.510000 0.250000
vt 0.514612 0.296822
vt 0.528269 0.341844
vt 0.550447 0.383337
vt 0.580294 0.419706
vt 0.616663 0.449553
vt 0.658156 0.471731
vt 0.703178 0.485388
s 1
f 21/1/1 22/2/1 86/2/1 85/1/1
f 32/3/2 64/4/2 33/5/3 1/6/3
f 31/7/4 63/8/4 64/4/2 32/3/2
f 30/9/5 62/10/5 63/8/4 31/7/4
f 29/11/6 61/12/6 62/10/5 30/9/5
f 28/13/7 60/14/8 61/12/6 29/11/6
f 27/15/9 59/16/10 60/14/8 28/13/7
f 26/17/11 58/18/11 59/16/10 27/15/9
f 25/19/12 57/20/12 58/18/11 26/17/11
f 24/21/13 56/22/13 57/20/12 25/19/12
f 23/23/14 55/24/15 56/22/13 24/21/13
f 22/2/16 54/25/17 55/24/15 23/23/14
f 21/1/18 53/26/18 54/25/17 22/2/16
f 20/27/19 52/28/20 53/26/18 21/1/18
f 19/29/21 51/30/22 52/28/20 20/27/19
f 18/31/23 50/32/23 51/30/22 19/29/21
f 17/33/24 49/34/24 50/32/23 18/31/23
f 16/35/25 48/36/25 49/34/24 17/33/24
f 15/37/26 47/38/27 48/36/25 16/35/25
f 14/39/28 46/40/29 47/38/27 15/37/26
f 13/41/30 45/42/30 46/40/29 14/39/28
f 12/43/31 44/44/31 45/42/30 13/41/30
f 11/45/32 43/46/32 44/44/31 12/43/31
f 10/47/33 42/48/33 43/46/32 11/45/32
f 9/49/34 41/50/34 42/48/33 10/47/33
f 8/51/35 40/52/35 41/50/34 9/49/34
f 7/53/36 39/54/36 40/52/35 8/51/35
f 6/55/37 38/56/37 39/54/36 7/53/36
f 5/57/38 37/58/38 38/56/37 6/55/37
f 4/59/39 36/60/39 37/58/38 5/57/38
f 3/61/40 35/62/40 36/60/39 4/59/39
f 2/63/41 34/64/41 35/62/40 3/61/40
f 1/65/3 33/66/3 34/64/41 2/63/41
f 76/43/42 77/41/30 109/41/30 108/43/43
f 1/65/1 2/63/1 66/63/1 65/65/1
f 28/13/1 29/11/1 93/11/1 92/13/1
f 8/51/1 9/49/1 73/49/1 72/51/1
f 15/37/1 16/35/1 80/35/1 79/37/1
f 22/2/1 23/23/1 87/23/1 86/2/1
f 2/63/1 3/61/1 67/61/1 66/63/1
f 29/11/1 30/9/1 94/9/1 93/11/1
f 9/49/1 10/47/1 74/47/1 73/49/1
f 16/35/1 17/33/1 81/33/1 80/35/1
f 23/23/1 24/21/1 88/21/1 87/23/1
f 3/61/1 4/59/1 68/59/1 67/61/1
f 30/9/1 31/7/1 95/7/1 94/9/1
f 10/47/1 11/45/1 75/45/1 74/47/1
f 17/33/1 18/31/1 82/31/1 81/33/1
f 24/21/1 25/19/1 89/19/1 88/21/1
f 4/59/1 5/57/1 69/57/1 68/59/1
f 31/7/1 32/3/1 96/3/1 95/7/1
f 11/45/1 12/43/1 76/43/1 75/45/1
f 18/31/1 19/29/1 83/29/1 82/31/1
f 25/19/1 26/17/1 90/17/1 89/19/1
f 5/57/1 6/55/1 70/55/1 69/57/1
f 32/3/1 1/6/1 65/6/1 96/3/1
f 12/43/1 13/41/1 77/41/1 76/43/1
f 19/29/1 20/27/1 84/27/1 83/29/1
f 26/17/1 27/15/1 91/15/1 90/17/1
f 6/55/1 7/53/1 71/53/1 70/55/1
f 13/41/1 14/39/1 78/39/1 77/41/1
f 20/27/1 21/1/1 85/1/1 84/27/1
f 27/15/1 28/13/1 92/13/1 91/15/1
f 7/53/1 8/51/1 72/51/1 71/53/1
f 14/39/1 15/37/1 79/37/1 78/39/1
f 111/37/44 112/35/44 144/35/44 143/37/44
f 90/17/45 91/15/46 123/15/47 122/17/48
f 77/41/30 78/39/49 110/39/50 109/41/30
f 91/15/46 92/13/51 124/13/52 123/15/47
f 78/39/49 79/37/53 111/37/54 110/39/50
f 65/65/3 66/63/55 98/63/55 97/65/3
f 92/13/51 93/11/56 125/11/56 124/13/52
f 79/37/53 80/35/57 112/35/57 111/37/54
f 66/63/55 67/61/58 99/61/58 98/63/55
f 93/11/56 94/9/5 126/9/5 125/11/56
f 80/35/57 81/33/24 113/33/24 112/35/57
f 67/61/58 68/59/39 100/59/39 99/61/58
f 94/9/5 95/7/59 127/7/59 126/9/5
f 81/33/24 82/31/23 114/31/23 113/33/24
f 68/59/39 69/57/38 101/57/38 100/59/39
f 95/7/59 96/3/2 128/3/2 127/7/59
f 82/31/23 83/29/60 115/29/60 114/31/23
f 69/57/38 70/55/37 102/55/37 101/57/38
f 96/3/2 65/6/3 97/6/3 128/3/2
f 83/29/60 84/27/61 116/27/61 115/29/60
f 70/55/37 71/53/62 103/53/62 102/55/37
f 84/27/61 85/1/63 117/1/63 116/27/61
f 71/53/62 72/51/64 104/51/64 103/53/62
f 85/1/63 86/2/65 118/2/65 117/1/63
f 72/51/64 73/49/34 105/49/34 104/51/64
f 86/2/65 87/23/15 119/23/15 118/2/65
f 73/49/34 74/47/33 106/47/33 105/49/34
f 87/23/15 88/21/13 120/21/13 119/23/15
f 74/47/33 75/45/66 107/45/67 106/47/33
f 88/21/13 89/19/12 121/19/12 120/21/13
f 75/45/66 76/43/42 108/43/43 107/45/67
f 89/19/12 90/17/45 122/17/48 121/19/12
f 155/15/68 156/13/69 188/13/69 187/15/68
f 98/63/44 99/61/44 131/61/44 130/63/44
f 125/11/44 126/9/44 158/9/44 157/11/44
f 112/35/44 113/33/44 145/33/44 144/35/44
f 99/61/44 100/59/44 132/59/44 131/61/44
f 126/9/44 127/7/44 159/7/44 158/9/44
f 113/33/44 114/31/44 146/31/44 145/33/44
f 100/59/44 101/57/44 133/57/44 132/59/44
f 127/7/44 128/3/44 160/3/44 159/7/44
f 114/31/44 115/29/44 147/29/44 146/31/44
f 101/57/44 102/55/44 134/55/44 133/57/44
f 128/3/44 97/6/44 129/6/44 160/3/44
f 115/29/44 116/27/44 148/27/44 147/29/44
f 102/55/44 103/53/44 135/53/44 134/55/44
f 116/27/44 117/1/44 149/1/44 148/27/44
f 103/53/44 104/51/44 136/51/44 135/53/44
f 117/1/44 118/2/44 150/2/44 149/1/44
f 104/51/44 105/49/44 137/49/44 136/51/44
f 118/2/44 119/23/44 151/23/44 150/2/44
f 105/49/44 106/47/44 138/47/44 137/49/44
f 119/23/44 120/21/44 152/21/44 151/23/44
f 106/47/44 107/45/44 139/45/44 138/47/44
f 120/21/44 121/19/44 153/19/44 152/21/44
f 107/45/44 108/43/44 140/43/44 139/45/44
f 121/19/44 122/17/44 154/17/44 153/19/44
f 108/43/44 109/41/44 141/41/44 140/43/44
f 122/17/44 123/15/44 155/15/44 154/17/44
f 109/41/44 110/39/44 142/39/44 141/41/44
f 123/15/44 124/13/44 156/13/44 155/15/44
f 110/39/44 111/37/44 143/37/44 142/39/44
f 97/65/44 98/63/44 130/63/44 129/65/44
f 124/13/44 125/11/44 157/11/44 156/13/44
f 163/61/1 164/59/1 196/59/1 195/61/1
f 142/39/70 143/37/71 175/37/72 174/39/73
f 129/65/74 130/63/75 162/63/76 161/65/77
f 156/13/69 157/11/78 189/11/79 188/13/69
f 143/37/71 144/35/80 176/35/81 175/37/72
f 130/63/75 131/61/82 163/61/83 162/63/76
f 157/11/78 158/9/84 190/9/85 189/11/79
f 144/35/80 145/33/86 177/33/87 176/35/81
f 131/61/82 132/59/88 164/59/39 163/61/83
f 158/9/84 159/7/89 191/7/90 190/9/85
f 145/33/86 146/31/91 178/31/92 177/33/87
f 132/59/88 133/57/38 165/57/38 164/59/39
f 159/7/89 160/3/93 192/3/94 191/7/90
f 146/31/91 147/29/95 179/29/96 178/31/92
f 133/57/38 134/55/97 166/55/97 165/57/38
f 160/3/93 129/6/74 161/6/77 192/3/94
f 147/29/95 148/27/98 180/27/99 179/29/96
f 134/55/97 135/53/62 167/53/62 166/55/97
f 148/27/98 149/1/100 181/1/101 180/27/99
f 135/53/62 136/51/102 168/51/103 167/53/62
f 149/1/100 150/2/104 182/2/105 181/1/101
f 136/51/102 137/49/106 169/49/107 168/51/103
f 150/2/104 151/23/108 183/23/109 182/2/105
f 137/49/106 138/47/110 170/47/111 169/49/107
f 151/23/108 152/21/112 184/21/113 183/23/109
f 138/47/110 139/45/114 171/45/115 170/47/111
f 152/21/112 153/19/116 185/19/117 184/21/113
f 139/45/114 140/43/118 172/43/119 171/45/115
f 153/19/116 154/17/120 186/17/121 185/19/117
f 140/43/118 141/41/122 173/41/123 172/43/119
f 154/17/120 155/15/68 187/15/68 186/17/121
f 141/41/122 142/39/70 174/39/73 173/41/123
f 198/55/124 199/53/125 231/53/125 230/55/124
f 190/9/1 191/7/1 223/7/1 222/9/1
f 177/33/1 178/31/1 210/31/1 209/33/1
f 164/59/1 165/57/1 197/57/1 196/59/1
f 191/7/1 192/3/1 224/3/1 223/7/1
f 178/31/1 179/29/1 211/29/1 210/31/1
f 165/57/1 166/55/1 198/55/1 197/57/1
f 192/3/1 161/6/1 193/6/1 224/3/1
f 179/29/1 180/27/1 212/27/1 211/29/1
f 166/55/1 167/53/1 199/53/1 198/55/1
f 180/27/1 181/1/1 213/1/1 212/27/1
f 167/53/1 168/51/1 200/51/1 199/53/1
f 181/1/1 182/2/1 214/2/1 213/1/1
f 168/51/1 169/49/1 201/49/1 200/51/1
f 182/2/1 183/23/1 215/23/1 214/2/1
f 169/49/1 170/47/1 202/47/1 201/49/1
f 183/23/1 184/21/1 216/21/1 215/23/1
f 170/47/1 171/45/1 203/45/1 202/47/1
f 184/21/1 185/19/1 217/19/1 216/21/1
f 171/45/1 172/43/1 204/43/1 203/45/1
f 185/19/1 186/17/1 218/17/1 217/19/1
f 172/43/1 173/41/1 205/41/1 204/43/1
f 186/17/1 187/15/1 219/15/1 218/17/1
f 173/41/1 174/39/1 206/39/1 205/41/1
f 187/15/1 188/13/1 220/13/1 219/15/1
f 174/39/1 175/37/1 207/37/1 206/39/1
f 161/65/1 162/63/1 194/63/1 193/65/1
f 188/13/1 189/11/1 221/11/1 220/13/1
f 175/37/1 176/35/1 208/35/1 207/37/1
f 162/63/1 163/61/1 195/61/1 194/63/1
f 189/11/1 190/9/1 222/9/1 221/11/1
f 176/35/1 177/33/1 209/33/1 208/35/1
f 233/49/1 234/47/1 266/47/1 265/49/1
f 212/27/126 213/1/100 245/1/101 244/27/127
f 199/53/125 200/51/64 232/51/64 231/53/125
f 213/1/100 214/2/128 246/2/129 245/1/101
f 200/51/64 201/49/34 233/49/34 232/51/64
f 214/2/128 215/23/130 247/23/131 246/2/129
f 201/49/34 202/47/33 234/47/33 233/49/34
f 215/23/130 216/21/13 248/21/13 247/23/131
f 202/47/33 203/45/132 235/45/66 234/47/33
f 216/21/13 217/19/12 249/19/12 248/21/13
f 203/45/132 204/43/133 236/43/31 235/45/66
f 217/19/12 218/17/134 250/17/134 249/19/12
f 204/43/133 205/41/135 237/41/136 236/43/31
f 218/17/134 219/15/137 251/15/138 250/17/134
f 205/41/135 206/39/139 238/39/140 237/41/136
f 219/15/137 220/13/141 252/13/142 251/15/138
f 206/39/139 207/37/143 239/37/144 238/39/140
f 193/65/3 194/63/55 226/63/55 225/65/3
f 220/13/141 221/11/145 253/11/146 252/13/142
f 207/37/143 208/35/57 240/35/57 239/37/144
f 194/63/55 195/61/147 227/61/147 226/63/55
f 221/11/145 222/9/148 254/9/148 253/11/146
f 208/35/57 209/33/24 241/33/24 240/35/57
f 195/61/147 196/59/149 228/59/150 227/61/147
f 222/9/148 223/7/4 255/7/4 254/9/148
f 209/33/24 210/31/23 242/31/23 241/33/24
f 196/59/149 197/57/151 229/57/152 228/59/150
f 223/7/4 224/3/2 256/3/2 255/7/4
f 210/31/23 211/29/153 243/29/154 242/31/23
f 197/57/151 198/55/124 230/55/124 229/57/152
f 224/3/2 193/6/3 225/6/3 256/3/2
f 211/29/153 212/27/126 244/27/127 243/29/154
f 264/51/35 265/49/34 297/49/34 296/51/35
f 247/23/1 248/21/1 280/21/1 279/23/1
f 234/47/1 235/45/1 267/45/1 266/47/1
f 248/21/1 249/19/1 281/19/1 280/21/1
f 235/45/1 236/43/1 268/43/1 267/45/1
f 249/19/1 250/17/1 282/17/1 281/19/1
f 236/43/1 237/41/1 269/41/1 268/43/1
f 250/17/1 251/15/1 283/15/1 282/17/1
f 237/41/1 238/39/1 270/39/1 269/41/1
f 251/15/1 252/13/1 284/13/1 283/15/1
f 238/39/1 239/37/1 271/37/1 270/39/1
f 225/65/1 226/63/1 258/63/1 257/65/1
f 252/13/1 253/11/1 285/11/1 284/13/1
f 239/37/1 240/35/1 272/35/1 271/37/1
f 226/63/1 227/61/1 259/61/1 258/63/1
f 253/11/1 254/9/1 286/9/1 285/11/1
f 240/35/1 241/33/1 273/33/1 272/35/1
f 227/61/1 228/59/1 260/59/1 259/61/1
f 254/9/1 255/7/1 287/7/1 286/9/1
f 241/33/1 242/31/1 274/31/1 273/33/1
f 228/59/1 229/57/1 261/57/1 260/59/1
f 255/7/1 256/3/1 288/3/1 287/7/1
f 242/31/1 243/29/1 275/29/1 274/31/1
f 229/57/1 230/55/1 262/55/1 261/57/1
f 256/3/1 225/6/1 257/6/1 288/3/1
f 243/29/1 244/27/1 276/27/1 275/29/1
f 230/55/1 231/53/1 263/53/1 262/55/1
f 244/27/1 245/1/1 277/1/1 276/27/1
f 231/53/1 232/51/1 264/51/1 263/53/1
f 245/1/1 246/2/1 278/2/1 277/1/1
f 232/51/1 233/49/1 265/49/1 264/51/1
f 246/2/1 247/23/1 279/23/1 278/2/1
f 289/67/44 290/68/44 291/69/44 292/70/44 293/71/44 294/72/44 295/73/44 296/74/44 297/75/44 298/76/44 299/77/44 300/78/44 301/79/44 302/80/44 303/81/44 304/82/44 305/83/44 306/84/44 307/85/44 308/86/44 309/87/44 310/88/44 311/89/44 312/90/44 313/91/44 314/92/44 315/93/44 316/94/44 317/95/44 318/96/44 319/97/44 320/98/44
f 278/2/155 279/23/156 311/23/157 310/2/158
f 265/49/34 266/47/33 298/47/33 297/49/34
f 279/23/156 280/21/159 312/21/160 311/23/157
f 266/47/33 267/45/66 299/45/67 298/47/33
f 280/21/159 281/19/161 313/19/162 312/21/160
f 267/45/66 268/43/163 300/43/164 299/45/67
f 281/19/161 282/17/165 314/17/166 313/19/162
f 268/43/163 269/41/167 301/41/168 300/43/164
f 282/17/165 283/15/169 315/15/170 314/17/166
f 269/41/167 270/39/171 302/39/172 301/41/168
f 283/15/169 284/13/173 316/13/173 315/15/170
f 270/39/171 271/37/174 303/37/175 302/39/172
f 257/65/3 258/63/176 290/63/177 289/65/3
f 284/13/173 285/11/56 317/11/56 316/13/173
f 271/37/174 272/35/178 304/35/80 303/37/175
f 258/63/176 259/61/179 291/61/180 290/63/177
f 285/11/56 286/9/181 318/9/182 317/11/56
f 272/35/178 273/33/183 305/33/184 304/35/80
f 259/61/179 260/59/149 292/59/150 291/61/180
f 286/9/181 287/7/185 319/7/186 318/9/182
f 273/33/183 274/31/23 306/31/23 305/33/184
f 260/59/149 261/57/38 293/57/38 292/59/150
f 287/7/185 288/3/187 320/3/93 319/7/186
f 274/31/23 275/29/188 307/29/189 306/31/23
f 261/57/38 262/55/190 294/55/191 293/57/38
f 288/3/187 257/6/3 289/6/3 320/3/93
f 275/29/188 276/27/192 308/27/193 307/29/189
f 262/55/190 263/53/194 295/53/195 294/55/191
f 276/27/192 277/1/63 309/1/63 308/27/193
f 263/53/194 264/51/35 296/51/35 295/53/195
f 277/1/63 278/2/155 310/2/158 309/1/63
f 341/1/44 373/1/44 374/2/44 342/2/44
f 352/3/2 321/6/3 33/5/3 64/4/2
f 351/7/4 352/3/2 64/4/2 63/8/4
f 350/9/5 351/7/4 63/8/4 62/10/5
f 349/11/6 350/9/5 62/10/5 61/12/6
f 348/13/196 349/11/6 61/12/6 60/14/8
f 347/15/197 348/13/196 60/14/8 59/16/10
f 346/17/11 347/15/197 59/16/10 58/18/11
f 345/19/12 346/17/11 58/18/11 57/20/12
f 344/21/13 345/19/12 57/20/12 56/22/13
f 343/23/198 344/21/13 56/22/13 55/24/15
f 342/2/199 343/23/198 55/24/15 54/25/17
f 341/1/18 342/2/199 54/25/17 53/26/18
f 340/27/20 341/1/18 53/26/18 52/28/20
f 339/29/22 340/27/20 52/28/20 51/30/22
f 338/31/23 339/29/22 51/30/22 50/32/23
f 337/33/24 338/31/23 50/32/23 49/34/24
f 336/35/25 337/33/24 49/34/24 48/36/25
f 335/37/27 336/35/25 48/36/25 47/38/27
f 334/39/29 335/37/27 47/38/27 46/40/29
f 333/41/30 334/39/29 46/40/29 45/42/30
f 332/43/31 333/41/30 45/42/30 44/44/31
f 331/45/32 332/43/31 44/44/31 43/46/32
f 330/47/33 331/45/32 43/46/32 42/48/33
f 329/49/34 330/47/33 42/48/33 41/50/34
f 328/51/35 329/49/34 41/50/34 40/52/35
f 327/53/36 328/51/35 40/52/35 39/54/36
f 326/55/37 327/53/36 39/54/36 38/56/37
f 325/57/38 326/55/37 38/56/37 37/58/38
f 324/59/39 325/57/38 37/58/38 36/60/39
f 323/61/40 324/59/39 36/60/39 35/62/40
f 322/63/41 323/61/40 35/62/40 34/64/41
f 321/65/3 322/63/41 34/64/41 33/66/3
f 364/43/43 396/43/42 397/41/30 365/41/30
f 321/65/44 353/65/44 354/63/44 322/63/44
f 348/13/44 380/13/44 381/11/44 349/11/44
f 328/51/44 360/51/44 361/49/44 329/49/44
f 335/37/44 367/37/44 368/35/44 336/35/44
f 342/2/44 374/2/44 375/23/44 343/23/44
f 322/63/44 354/63/44 355/61/44 323/61/44
f 349/11/44 381/11/44 382/9/44 350/9/44
f 329/49/44 361/49/44 362/47/44 330/47/44
f 336/35/44 368/35/44 369/33/44 337/33/44
f 343/23/44 375/23/44 376/21/44 344/21/44
f 323/61/44 355/61/44 356/59/44 324/59/44
f 350/9/44 382/9/44 383/7/44 351/7/44
f 330/47/44 362/47/44 363/45/44 331/45/44
f 337/33/44 369/33/44 370/31/44 338/31/44
f 344/21/44 376/21/44 377/19/44 345/19/44
f 324/59/44 356/59/44 357/57/44 325/57/44
f 351/7/44 383/7/44 384/3/44 352/3/44
f 331/45/44 363/45/44 364/43/44 332/43/44
f 338/31/44 370/31/44 371/29/44 339/29/44
f 345/19/44 377/19/44 378/17/44 346/17/44
f 325/57/44 357/57/44 358/55/44 326/55/44
f 352/3/44 384/3/44 353/6/44 321/6/44
f 332/43/44 364/43/44 365/41/44 333/41/44
f 339/29/44 371/29/44 372/27/44 340/27/44
f 346/17/44 378/17/44 379/15/44 347/15/44
f 326/55/44 358/55/44 359/53/44 327/53/44
f 333/41/44 365/41/44 366/39/44 334/39/44
f 340/27/44 372/27/44 373/1/44 341/1/44
f 347/15/44 379/15/44 380/13/44 348/13/44
f 327/53/44 359/53/44 360/51/44 328/51/44
f 334/39/44 366/39/44 367/37/44 335/37/44
f 399/37/1 431/37/1 432/35/1 400/35/1
f 378/17/134 410/17/134 411/15/200 379/15/201
f 365/41/30 397/41/30 398/39/202 366/39/203
f 379/15/201 411/15/200 412/13/204 380/13/205
f 366/39/203 398/39/202 399/37/206 367/37/207
f 353/65/3 385/65/3 386/63/55 354/63/55
f 380/13/205 412/13/204 413/11/56 381/11/56
f 367/37/207 399/37/206 400/35/57 368/35/57
f 354/63/55 386/63/55 387/61/58 355/61/58
f 381/11/56 413/11/56 414/9/208 382/9/209
f 368/35/57 400/35/57 401/33/24 369/33/24
f 355/61/58 387/61/58 388/59/39 356/59/39
f 382/9/209 414/9/208 415/7/185 383/7/186
f 369/33/24 401/33/24 402/31/23 370/31/23
f 356/59/39 388/59/39 389/57/38 357/57/38
f 383/7/186 415/7/185 416/3/2 384/3/2
f 370/31/23 402/31/23 403/29/60 371/29/60
f 357/57/38 389/57/38 390/55/37 358/55/37
f 384/3/2 416/3/2 385/6/3 353/6/3
f 371/29/60 403/29/60 404/27/61 372/27/61
f 358/55/37 390/55/37 391/53/62 359/53/62
f 372/27/61 404/27/61 405/1/63 373/1/63
f 359/53/62 391/53/62 392/51/64 360/51/64
f 373/1/63 405/1/63 406/2/65 374/2/65
f 360/51/64 392/51/64 393/49/34 361/49/34
f 374/2/65 406/2/65 407/23/15 375/23/15
f 361/49/34 393/49/34 394/47/33 362/47/33
f 375/23/15 407/23/15 408/21/13 376/21/13
f 362/47/33 394/47/33 395/45/66 363/45/67
f 376/21/13 408/21/13 409/19/12 377/19/12
f 363/45/67 395/45/66 396/43/42 364/43/43
f 377/19/12 409/19/12 410/17/134 378/17/134
f 443/15/68 475/15/68 476/13/69 444/13/69
f 386/63/1 418/63/1 419/61/1 387/61/1
f 413/11/1 445/11/1 446/9/1 414/9/1
f 400/35/1 432/35/1 433/33/1 401/33/1
f 387/61/1 419/61/1 420/59/1 388/59/1
f 414/9/1 446/9/1 447/7/1 415/7/1
f 401/33/1 433/33/1 434/31/1 402/31/1
f 388/59/1 420/59/1 421/57/1 389/57/1
f 415/7/1 447/7/1 448/3/1 416/3/1
f 402/31/1 434/31/1 435/29/1 403/29/1
f 389/57/1 421/57/1 422/55/1 390/55/1
f 416/3/1 448/3/1 417/6/1 385/6/1
f 403/29/1 435/29/1 436/27/1 404/27/1
f 390/55/1 422/55/1 423/53/1 391/53/1
f 404/27/1 436/27/1 437/1/1 405/1/1
f 391/53/1 423/53/1 424/51/1 392/51/1
f 405/1/1 437/1/1 438/2/1 406/2/1
f 392/51/1 424/51/1 425/49/1 393/49/1
f 406/2/1 438/2/1 439/23/1 407/23/1
f 393/49/1 425/49/1 426/47/1 394/47/1
f 407/23/1 439/23/1 440/21/1 408/21/1
f 394/47/1 426/47/1 427/45/1 395/45/1
f 408/21/1 440/21/1 441/19/1 409/19/1
f 395/45/1 427/45/1 428/43/1 396/43/1
f 409/19/1 441/19/1 442/17/1 410/17/1
f 396/43/1 428/43/1 429/41/1 397/41/1
f 410/17/1 442/17/1 443/15/1 411/15/1
f 397/41/1 429/41/1 430/39/1 398/39/1
f 411/15/1 443/15/1 444/13/1 412/13/1
f 398/39/1 430/39/1 431/37/1 399/37/1
f 385/65/1 417/65/1 418/63/1 386/63/1
f 412/13/1 444/13/1 445/11/1 413/11/1
f 451/61/44 483/61/44 484/59/44 452/59/44
f 430/39/210 462/39/211 463/37/71 431/37/72
f 417/65/212 449/65/213 450/63/214 418/63/215
f 444/13/69 476/13/69 477/11/216 445/11/217
f 431/37/72 463/37/71 464/35/218 432/35/219
f 418/63/215 450/63/214 451/61/82 419/61/83
f 445/11/217 477/11/216 478/9/220 446/9/221
f 432/35/219 464/35/218 465/33/222 433/33/223
f 419/61/83 451/61/82 452/59/88 420/59/39
f 446/9/221 478/9/220 479/7/89 447/7/90
f 433/33/223 465/33/222 466/31/91 434/31/92
f 420/59/39 452/59/88 453/57/38 421/57/38
f 447/7/90 479/7/89 480/3/224 448/3/224
f 434/31/92 466/31/91 467/29/95 435/29/96
f 421/57/38 453/57/38 454/55/97 422/55/97
f 448/3/224 480/3/224 449/6/213 417/6/212
f 435/29/96 467/29/95 468/27/225 436/27/226
f 422/55/97 454/55/97 455/53/62 423/53/62
f 436/27/226 468/27/225 469/1/227 437/1/228
f 423/53/62 455/53/62 456/51/102 424/51/103
f 437/1/228 469/1/227 470/2/229 438/2/230
f 424/51/103 456/51/102 457/49/106 425/49/107
f 438/2/230 470/2/229 471/23/108 439/23/109
f 425/49/107 457/49/106 458/47/110 426/47/111
f 439/23/109 471/23/108 472/21/231 440/21/232
f 426/47/111 458/47/110 459/45/114 427/45/115
f 440/21/232 472/21/231 473/19/162 441/19/161
f 427/45/115 459/45/114 460/43/233 428/43/234
f 441/19/161 473/19/162 474/17/235 442/17/235
f 428/43/234 460/43/233 461/41/122 429/41/123
f 442/17/235 474/17/235 475/15/68 443/15/68
f 429/41/123 461/41/122 462/39/211 430/39/210
f 486/55/124 518/55/124 519/53/125 487/53/125
f 478/9/44 510/9/44 511/7/44 479/7/44
f 465/33/44 497/33/44 498/31/44 466/31/44
f 452/59/44 484/59/44 485/57/44 453/57/44
f 479/7/44 511/7/44 512/3/44 480/3/44
f 466/31/44 498/31/44 499/29/44 467/29/44
f 453/57/44 485/57/44 486/55/44 454/55/44
f 480/3/44 512/3/44 481/6/44 449/6/44
f 467/29/44 499/29/44 500/27/44 468/27/44
f 454/55/44 486/55/44 487/53/44 455/53/44
f 468/27/44 500/27/44 501/1/44 469/1/44
f 455/53/44 487/53/44 488/51/44 456/51/44
f 469/1/44 501/1/44 502/2/44 470/2/44
f 456/51/44 488/51/44 489/49/44 457/49/44
f 470/2/44 502/2/44 503/23/44 471/23/44
f 457/49/44 489/49/44 490/47/44 458/47/44
f 471/23/44 503/23/44 504/21/44 472/21/44
f 458/47/44 490/47/44 491/45/44 459/45/44
f 472/21/44 504/21/44 505/19/44 473/19/44
f 459/45/44 491/45/44 492/43/44 460/43/44
f 473/19/44 505/19/44 506/17/44 474/17/44
f 460/43/44 492/43/44 493/41/44 461/41/44
f 474/17/44 506/17/44 507/15/44 475/15/44
f 461/41/44 493/41/44 494/39/44 462/39/44
f 475/15/44 507/15/44 508/13/44 476/13/44
f 462/39/44 494/39/44 495/37/44 463/37/44
f 449/65/44 481/65/44 482/63/44 450/63/44
f 476/13/44 508/13/44 509/11/44 477/11/44
f 463/37/44 495/37/44 496/35/44 464/35/44
f 450/63/44 482/63/44 483/61/44 451/61/44
f 477/11/44 509/11/44 510/9/44 478/9/44
f 464/35/44 496/35/44 497/33/44 465/33/44
f 521/49/236 553/49/237 554/47/238 522/47/238
f 500/27/239 532/27/240 533/1/100 501/1/101
f 487/53/125 519/53/125 520/51/64 488/51/64
f 501/1/101 533/1/100 534/2/128 502/2/129
f 488/51/64 520/51/64 521/49/34 489/49/34
f 502/2/129 534/2/128 535/23/130 503/23/131
f 489/49/34 521/49/34 522/47/33 490/47/33
f 503/23/131 535/23/130 536/21/13 504/21/13
f 490/47/33 522/47/33 523/45/241 491/45/241
f 504/21/13 536/21/13 537/19/12 505/19/12
f 491/45/241 523/45/241 524/43/242 492/43/242
f 505/19/12 537/19/12 538/17/134 506/17/134
f 492/43/242 524/43/242 525/41/135 493/41/136
f 506/17/134 538/17/134 539/15/243 507/15/244
f 493/41/136 525/41/135 526/39/245 494/39/246
f 507/15/244 539/15/243 540/13/247 508/13/248
f 494/39/246 526/39/245 527/37/27 495/37/27
f 481/65/3 513/65/3 514/63/55 482/63/55
f 508/13/248 540/13/247 541/11/145 509/11/146
f 495/37/27 527/37/27 528/35/57 496/35/57
f 482/63/55 514/63/55 515/61/147 483/61/147
f 509/11/146 541/11/145 542/9/148 510/9/148
f 496/35/57 528/35/57 529/33/24 497/33/24
f 483/61/147 515/61/147 516/59/249 484/59/250
f 510/9/148 542/9/148 543/7/4 511/7/4
f 497/33/24 529/33/24 530/31/23 498/31/23
f 484/59/250 516/59/249 517/57/251 485/57/38
f 511/7/4 543/7/4 544/3/2 512/3/2
f 498/31/23 530/31/23 531/29/188 499/29/252
f 485/57/38 517/57/251 518/55/124 486/55/124
f 512/3/2 544/3/2 513/6/3 481/6/3
f 499/29/252 531/29/188 532/27/240 500/27/239
f 552/51/35 584/51/35 585/49/34 553/49/34
f 535/23/253 567/23/254 568/21/254 536/21/254
f 522/47/238 554/47/238 555/45/255 523/45/256
f 536/21/254 568/21/254 569/19/44 537/19/44
f 523/45/256 555/45/255 556/43/257 524/43/258
f 537/19/44 569/19/44 570/17/254 538/17/254
f 524/43/258 556/43/257 557/41/259 525/41/255
f 538/17/254 570/17/254 571/15/254 539/15/260
f 525/41/255 557/41/259 558/39/261 526/39/261
f 539/15/260 571/15/254 572/13/262 540/13/263
f 526/39/261 558/39/261 559/37/255 527/37/255
f 513/65/264 545/65/265 546/63/266 514/63/265
f 540/13/263 572/13/262 573/11/267 541/11/267
f 527/37/255 559/37/255 560/35/268 528/35/269
f 514/63/265 546/63/266 547/61/270 515/61/270
f 541/11/267 573/11/267 574/9/271 542/9/272
f 528/35/269 560/35/268 561/33/269 529/33/269
f 515/61/270 547/61/270 548/59/273 516/59/270
f 542/9/272 574/9/271 575/7/272 543/7/272
f 529/33/269 561/33/269 562/31/269 530/31/268
f 516/59/270 548/59/273 549/57/274 517/57/275
f 543/7/272 575/7/272 576/3/266 544/3/265
f 530/31/268 562/31/269 563/29/276 531/29/277
f 517/57/275 549/57/274 550/55/278 518/55/279
f 544/3/265 576/3/266 545/6/265 513/6/264
f 531/29/277 563/29/276 564/27/280 532/27/276
f 518/55/279 550/55/278 551/53/281 519/53/275
f 532/27/276 564/27/280 565/1/282 533/1/282
f 519/53/275 551/53/281 552/51/238 520/51/237
f 533/1/282 565/1/282 566/2/283 534/2/284
f 520/51/237 552/51/238 553/49/237 521/49/236
f 534/2/284 566/2/283 567/23/254 535/23/253
f 577/67/1 608/98/1 607/97/1 606/96/1 605/95/1 604/94/1 603/93/1 602/92/1 601/91/1 600/90/1 599/89/1 598/88/1 597/87/1 596/86/1 595/85/1 594/84/1 593/83/1 592/82/1 591/81/1 590/80/1 589/79/1 588/78/1 587/77/1 586/76/1 585/75/1 584/74/1 583/73/1 582/72/1 581/71/1 580/70/1 579/69/1 578/68/1
f 566/2/285 598/2/285 599/23/286 567/23/286
f 553/49/34 585/49/34 586/47/33 554/47/33
f 567/23/286 599/23/286 600/21/287 568/21/288
f 554/47/33 586/47/33 587/45/289 555/45/290
f 568/21/288 600/21/287 601/19/291 569/19/292
f 555/45/290 587/45/289 588/43/293 556/43/294
f 569/19/292 601/19/291 602/17/165 570/17/166
f 556/43/294 588/43/293 589/41/295 557/41/296
f 570/17/166 602/17/165 603/15/200 571/15/201
f 557/41/296 589/41/295 590/39/297 558/39/298
f 571/15/201 603/15/200 604/13/299 572/13/300
f 558/39/298 590/39/297 591/37/301 559/37/27
f 545/65/3 577/65/3 578/63/41 546/63/41
f 572/13/300 604/13/299 605/11/56 573/11/56
f 559/37/27 591/37/301 592/35/178 560/35/80
f 546/63/41 578/63/41 579/61/302 547/61/303
f 573/11/56 605/11/56 606/9/304 574/9/305
f 560/35/80 592/35/178 593/33/306 561/33/307
f 547/61/303 579/61/302 580/59/308 548/59/309
f 574/9/305 606/9/304 607/7/310 575/7/311
f 561/33/307 593/33/306 594/31/312 562/31/313
f 548/59/309 580/59/308 581/57/314 549/57/315
f 575/7/311 607/7/310 608/3/2 576/3/2
f 562/31/313 594/31/312 595/29/153 563/29/316
f 549/57/315 581/57/314 582/55/317 550/55/318
f 576/3/2 608/3/2 577/6/3 545/6/3
f 563/29/316 595/29/153 596/27/319 564/27/20
f 550/55/318 582/55/317 583/53/320 551/53/321
f 564/27/20 596/27/319 597/1/63 565/1/63
f 551/53/321 583/53/320 584/51/35 552/51/35
f 565/1/63 597/1/63 598/2/285 566/2/285
