# Blender 4.3.2
# www.blender.org
mtllib lever_02.mtl
o lever_02
v -0.009239 0.193802 -0.008735
v -0.009239 0.196172 -0.010377
v -0.009239 0.191792 -0.008537
v -0.009239 0.198453 -0.009685
v -0.009239 0.189867 -0.007948
v -0.009239 0.200557 -0.008561
v -0.009239 0.188091 -0.007002
v -0.009239 0.202398 -0.007047
v -0.009239 0.186532 -0.005721
v -0.009239 0.203912 -0.005206
v -0.009239 0.185250 -0.004162
v -0.009239 0.205035 -0.003103
v -0.009239 0.184300 -0.002385
v -0.009239 0.205728 -0.000822
v -0.009239 0.183716 -0.000455
v -0.009239 0.205961 0.001549
v -0.009239 0.183518 0.001549
v -0.009239 0.205728 0.003919
v -0.009239 0.183716 0.003553
v -0.009239 0.205035 0.006201
v -0.009239 0.184300 0.005483
v -0.009239 0.203912 0.008304
v -0.009239 0.185250 0.007260
v -0.009239 0.202398 0.010145
v -0.009239 0.186532 0.008819
v -0.009239 0.200557 0.011659
v -0.009239 0.188091 0.010095
v -0.009239 0.198453 0.012783
v -0.009239 0.189867 0.011050
v -0.009239 0.196172 0.013475
v -0.009239 0.191792 0.011634
v -0.009239 0.193802 0.013708
v -0.009239 0.193802 0.011832
v -0.009239 0.191431 0.013475
v -0.009239 0.195806 0.011634
v -0.009239 0.189150 0.012783
v -0.009239 0.197736 0.011050
v -0.009239 0.187047 0.011659
v -0.009239 0.199512 0.010095
v -0.009239 0.185206 0.010145
v -0.009239 0.201071 0.008819
v -0.009239 0.183691 0.008304
v -0.009239 0.202348 0.007260
v -0.009239 0.182568 0.006201
v -0.009239 0.203303 0.005483
v -0.009239 0.181875 0.003919
v -0.009239 0.203887 0.003553
v -0.009239 0.181643 0.001549
v -0.009239 0.204085 0.001549
v -0.009239 0.181875 -0.000822
v -0.009239 0.203887 -0.000455
v -0.009239 0.182568 -0.003103
v -0.009239 0.203303 -0.002385
v -0.009239 0.183691 -0.005206
v -0.009239 0.202348 -0.004162
v -0.009239 0.185206 -0.007047
v -0.009239 0.201071 -0.005721
v -0.009239 0.187047 -0.008561
v -0.009239 0.199512 -0.007002
v -0.009239 0.189150 -0.009685
v -0.009239 0.197736 -0.007948
v -0.009239 0.191431 -0.010377
v -0.009239 0.195806 -0.008537
v -0.009239 0.193802 -0.010610
v 0.001306 0.193802 -0.008735
v 0.001306 0.191792 -0.008537
v 0.001306 0.189867 -0.007948
v 0.001306 0.188091 -0.007002
v 0.001306 0.186532 -0.005721
v 0.001306 0.185250 -0.004162
v 0.001306 0.184300 -0.002385
v 0.001306 0.183716 -0.000455
v 0.001306 0.183518 0.001549
v 0.001306 0.183716 0.003553
v 0.001306 0.184300 0.005483
v 0.001306 0.185250 0.007260
v 0.001306 0.186532 0.008819
v 0.001306 0.188091 0.010095
v 0.001306 0.189867 0.011050
v 0.001306 0.191792 0.011634
v 0.001306 0.193802 0.011832
v 0.001306 0.195806 0.011634
v 0.001306 0.197736 0.011050
v 0.001306 0.199512 0.010095
v 0.001306 0.201071 0.008819
v 0.001306 0.202348 0.007260
v 0.001306 0.203303 0.005483
v 0.001306 0.203887 0.003553
v 0.001306 0.204085 0.001549
v 0.001306 0.203887 -0.000455
v 0.001306 0.203303 -0.002385
v 0.001306 0.202348 -0.004162
v 0.001306 0.201071 -0.005721
v 0.001306 0.199512 -0.007002
v 0.001306 0.197736 -0.007948
v 0.001306 0.195806 -0.008537
v -0.057004 0.196172 -0.010377
v -0.057004 0.198453 -0.009685
v -0.057004 0.200557 -0.008561
v -0.057004 0.202398 -0.007047
v -0.057004 0.203912 -0.005206
v -0.057004 0.205035 -0.003103
v -0.057004 0.205728 -0.000822
v -0.057004 0.205961 0.001549
v -0.057004 0.205728 0.003919
v -0.057004 0.205035 0.006201
v -0.057004 0.203912 0.008304
v -0.057004 0.202398 0.010145
v -0.057004 0.200557 0.011659
v -0.057004 0.198453 0.012783
v -0.057004 0.196172 0.013475
v -0.057004 0.193802 0.013708
v -0.057004 0.191431 0.013475
v -0.057004 0.189150 0.012783
v -0.057004 0.187047 0.011659
v -0.057004 0.185206 0.010145
v -0.057004 0.183691 0.008304
v -0.057004 0.182568 0.006201
v -0.057004 0.181875 0.003919
v -0.057004 0.181643 0.001549
v -0.057004 0.181875 -0.000822
v -0.057004 0.182568 -0.003103
v -0.057004 0.183691 -0.005206
v -0.057004 0.185206 -0.007047
v -0.057004 0.187047 -0.008561
v -0.057004 0.189150 -0.009685
v -0.057004 0.191431 -0.010377
v -0.057004 0.193802 -0.010610
v -0.057004 0.195281 -0.005894
v -0.057004 0.196707 -0.005463
v -0.057004 0.198018 -0.004761
v -0.057004 0.199166 -0.003815
v -0.057004 0.200111 -0.002667
v -0.057004 0.200809 -0.001356
v -0.057004 0.201245 0.000069
v -0.057004 0.201388 0.001549
v -0.057004 0.201245 0.003029
v -0.057004 0.200809 0.004454
v -0.057004 0.200111 0.005765
v -0.057004 0.199166 0.006913
v -0.057004 0.198018 0.007859
v -0.057004 0.196707 0.008561
v -0.057004 0.195281 0.008992
v -0.057004 0.193802 0.009135
v -0.057004 0.192322 0.008992
v -0.057004 0.190897 0.008561
v -0.057004 0.189585 0.007859
v -0.057004 0.188437 0.006913
v -0.057004 0.187492 0.005765
v -0.057004 0.186789 0.004454
v -0.057004 0.186359 0.003029
v -0.057004 0.186215 0.001549
v -0.057004 0.186359 0.000069
v -0.057004 0.186789 -0.001356
v -0.057004 0.187492 -0.002667
v -0.057004 0.188437 -0.003815
v -0.057004 0.189585 -0.004761
v -0.057004 0.190897 -0.005463
v -0.057004 0.192322 -0.005894
v -0.057004 0.193802 -0.006037
v -0.078249 0.195281 -0.005894
v -0.078249 0.196707 -0.005463
v -0.078249 0.198018 -0.004761
v -0.078249 0.199166 -0.003815
v -0.078249 0.200111 -0.002667
v -0.078249 0.200809 -0.001356
v -0.078249 0.201245 0.000069
v -0.078249 0.201388 0.001549
v -0.078249 0.201245 0.003029
v -0.078249 0.200809 0.004454
v -0.078249 0.200111 0.005765
v -0.078249 0.199166 0.006913
v -0.078249 0.198018 0.007859
v -0.078249 0.196707 0.008561
v -0.078249 0.195281 0.008992
v -0.078249 0.193802 0.009135
v -0.078249 0.192322 0.008992
v -0.078249 0.190897 0.008561
v -0.078249 0.189585 0.007859
v -0.078249 0.188437 0.006913
v -0.078249 0.187492 0.005765
v -0.078249 0.186789 0.004454
v -0.078249 0.186359 0.003029
v -0.078249 0.186215 0.001549
v -0.078249 0.186359 0.000069
v -0.078249 0.186789 -0.001356
v -0.078249 0.187492 -0.002667
v -0.078249 0.188437 -0.003815
v -0.078249 0.189585 -0.004761
v -0.078249 0.190897 -0.005463
v -0.078249 0.192322 -0.005894
v -0.078249 0.193802 -0.006037
v -0.078378 0.196523 -0.012134
v -0.078378 0.199141 -0.011342
v -0.078378 0.201551 -0.010051
v -0.078378 0.203664 -0.008314
v -0.078378 0.205401 -0.006201
v -0.078378 0.206693 -0.003791
v -0.078378 0.207485 -0.001173
v -0.078378 0.207752 0.001549
v -0.078378 0.207485 0.004271
v -0.078378 0.206693 0.006889
v -0.078378 0.205401 0.009299
v -0.078378 0.203664 0.011417
v -0.078378 0.201551 0.013149
v -0.078378 0.199141 0.014440
v -0.078378 0.196523 0.015232
v -0.078378 0.193802 0.015499
v -0.078378 0.191080 0.015232
v -0.078378 0.188462 0.014440
v -0.078378 0.186052 0.013149
v -0.078378 0.183939 0.011417
v -0.078378 0.182202 0.009299
v -0.078378 0.180910 0.006889
v -0.078378 0.180118 0.004271
v -0.078378 0.179851 0.001549
v -0.078378 0.180118 -0.001173
v -0.078378 0.180910 -0.003791
v -0.078378 0.182202 -0.006201
v -0.078378 0.183939 -0.008314
v -0.078378 0.186052 -0.010051
v -0.078378 0.188462 -0.011342
v -0.078378 0.191080 -0.012134
v -0.078378 0.193802 -0.012401
v -0.093496 0.196523 -0.012134
v -0.093496 0.199141 -0.011342
v -0.093496 0.201551 -0.010051
v -0.093496 0.203664 -0.008314
v -0.093496 0.205401 -0.006201
v -0.093496 0.206693 -0.003791
v -0.093496 0.207485 -0.001173
v -0.093496 0.207752 0.001549
v -0.093496 0.207485 0.004271
v -0.093496 0.206693 0.006889
v -0.093496 0.205401 0.009299
v -0.093496 0.203664 0.011417
v -0.093496 0.201551 0.013149
v -0.093496 0.199141 0.014440
v -0.093496 0.196523 0.015232
v -0.093496 0.193802 0.015499
v -0.093496 0.191080 0.015232
v -0.093496 0.188462 0.014440
v -0.093496 0.186052 0.013149
v -0.093496 0.183939 0.011417
v -0.093496 0.182202 0.009299
v -0.093496 0.180910 0.006889
v -0.093496 0.180118 0.004271
v -0.093496 0.179851 0.001549
v -0.093496 0.180118 -0.001173
v -0.093496 0.180910 -0.003791
v -0.093496 0.182202 -0.006201
v -0.093496 0.183939 -0.008314
v -0.093496 0.186052 -0.010051
v -0.093496 0.188462 -0.011342
v -0.093496 0.191080 -0.012134
v -0.093496 0.193802 -0.012401
v -0.064630 -0.005453 0.025080
v -0.064630 0.010011 0.025080
v -0.064630 -0.005453 -0.023120
v -0.064630 0.010011 -0.023120
v -0.038189 -0.005453 0.025080
v -0.038189 0.010011 0.025080
v -0.038189 -0.005453 -0.023120
v -0.038189 0.010011 -0.023120
v -0.064630 0.088132 0.025080
v -0.064630 0.088132 -0.023120
v -0.038189 0.088132 0.025080
v -0.038189 0.088132 -0.023120
v -0.059498 0.088132 0.015722
v -0.059498 0.088132 -0.013762
v -0.043321 0.088132 0.015722
v -0.043321 0.088132 -0.013762
v -0.070905 0.107491 0.015722
v -0.070905 0.107491 -0.013762
v -0.055074 0.107491 0.015722
v -0.055074 0.107491 -0.013762
v -0.075745 0.178352 0.015722
v -0.075745 0.178352 -0.013762
v -0.059568 0.178352 0.015722
v -0.059568 0.178352 -0.013762
v -0.075745 0.205317 0.015722
v -0.075745 0.205317 -0.013762
v -0.059568 0.205317 0.015722
v -0.059568 0.205317 -0.013762
v -0.071831 0.209118 0.008591
v -0.071831 0.209118 -0.006631
v -0.063482 0.209118 0.008591
v -0.063482 0.209118 -0.006631
v 0.011852 0.193802 -0.008735
v 0.011852 0.196172 -0.010377
v 0.011852 0.191792 -0.008537
v 0.011852 0.198453 -0.009685
v 0.011852 0.189867 -0.007948
v 0.011852 0.200557 -0.008561
v 0.011852 0.188091 -0.007002
v 0.011852 0.202398 -0.007047
v 0.011852 0.186532 -0.005721
v 0.011852 0.203912 -0.005206
v 0.011852 0.185250 -0.004162
v 0.011852 0.205035 -0.003103
v 0.011852 0.184300 -0.002385
v 0.011852 0.205728 -0.000822
v 0.011852 0.183716 -0.000455
v 0.011852 0.205961 0.001549
v 0.011852 0.183518 0.001549
v 0.011852 0.205728 0.003919
v 0.011852 0.183716 0.003553
v 0.011852 0.205035 0.006201
v 0.011852 0.184300 0.005483
v 0.011852 0.203912 0.008304
v 0.011852 0.185250 0.007260
v 0.011852 0.202398 0.010145
v 0.011852 0.186532 0.008819
v 0.011852 0.200557 0.011659
v 0.011852 0.188091 0.010095
v 0.011852 0.198453 0.012783
v 0.011852 0.189867 0.011050
v 0.011852 0.196172 0.013475
v 0.011852 0.191792 0.011634
v 0.011852 0.193802 0.013708
v 0.011852 0.193802 0.011832
v 0.011852 0.191431 0.013475
v 0.011852 0.195806 0.011634
v 0.011852 0.189150 0.012783
v 0.011852 0.197736 0.011050
v 0.011852 0.187047 0.011659
v 0.011852 0.199512 0.010095
v 0.011852 0.185206 0.010145
v 0.011852 0.201071 0.008819
v 0.011852 0.183691 0.008304
v 0.011852 0.202348 0.007260
v 0.011852 0.182568 0.006201
v 0.011852 0.203303 0.005483
v 0.011852 0.181875 0.003919
v 0.011852 0.203887 0.003553
v 0.011852 0.181643 0.001549
v 0.011852 0.204085 0.001549
v 0.011852 0.181875 -0.000822
v 0.011852 0.203887 -0.000455
v 0.011852 0.182568 -0.003103
v 0.011852 0.203303 -0.002385
v 0.011852 0.183691 -0.005206
v 0.011852 0.202348 -0.004162
v 0.011852 0.185206 -0.007047
v 0.011852 0.201071 -0.005721
v 0.011852 0.187047 -0.008561
v 0.011852 0.199512 -0.007002
v 0.011852 0.189150 -0.009685
v 0.011852 0.197736 -0.007948
v 0.011852 0.191431 -0.010377
v 0.011852 0.195806 -0.008537
v 0.011852 0.193802 -0.010610
v 0.059622 0.196172 -0.010377
v 0.059622 0.198453 -0.009685
v 0.059622 0.200557 -0.008561
v 0.059622 0.202398 -0.007047
v 0.059622 0.203912 -0.005206
v 0.059622 0.205035 -0.003103
v 0.059622 0.205728 -0.000822
v 0.059622 0.205961 0.001549
v 0.059622 0.205728 0.003919
v 0.059622 0.205035 0.006201
v 0.059622 0.203912 0.008304
v 0.059622 0.202398 0.010145
v 0.059622 0.200557 0.011659
v 0.059622 0.198453 0.012783
v 0.059622 0.196172 0.013475
v 0.059622 0.193802 0.013708
v 0.059622 0.191431 0.013475
v 0.059622 0.189150 0.012783
v 0.059622 0.187047 0.011659
v 0.059622 0.185206 0.010145
v 0.059622 0.183691 0.008304
v 0.059622 0.182568 0.006201
v 0.059622 0.181875 0.003919
v 0.059622 0.181643 0.001549
v 0.059622 0.181875 -0.000822
v 0.059622 0.182568 -0.003103
v 0.059622 0.183691 -0.005206
v 0.059622 0.185206 -0.007047
v 0.059622 0.187047 -0.008561
v 0.059622 0.189150 -0.009685
v 0.059622 0.191431 -0.010377
v 0.059622 0.193802 -0.010610
v 0.059622 0.195281 -0.005894
v 0.059622 0.196707 -0.005463
v 0.059622 0.198018 -0.004761
v 0.059622 0.199166 -0.003815
v 0.059622 0.200111 -0.002667
v 0.059622 0.200809 -0.001356
v 0.059622 0.201245 0.000069
v 0.059622 0.201388 0.001549
v 0.059622 0.201245 0.003029
v 0.059622 0.200809 0.004454
v 0.059622 0.200111 0.005765
v 0.059622 0.199166 0.006913
v 0.059622 0.198018 0.007859
v 0.059622 0.196707 0.008561
v 0.059622 0.195281 0.008992
v 0.059622 0.193802 0.009135
v 0.059622 0.192322 0.008992
v 0.059622 0.190897 0.008561
v 0.059622 0.189585 0.007859
v 0.059622 0.188437 0.006913
v 0.059622 0.187492 0.005765
v 0.059622 0.186789 0.004454
v 0.059622 0.186359 0.003029
v 0.059622 0.186215 0.001549
v 0.059622 0.186359 0.000069
v 0.059622 0.186789 -0.001356
v 0.059622 0.187492 -0.002667
v 0.059622 0.188437 -0.003815
v 0.059622 0.189585 -0.004761
v 0.059622 0.190897 -0.005463
v 0.059622 0.192322 -0.005894
v 0.059622 0.193802 -0.006037
v 0.080867 0.195281 -0.005894
v 0.080867 0.196707 -0.005463
v 0.080867 0.198018 -0.004761
v 0.080867 0.199166 -0.003815
v 0.080867 0.200111 -0.002667
v 0.080867 0.200809 -0.001356
v 0.080867 0.201245 0.000069
v 0.080867 0.201388 0.001549
v 0.080867 0.201245 0.003029
v 0.080867 0.200809 0.004454
v 0.080867 0.200111 0.005765
v 0.080867 0.199166 0.006913
v 0.080867 0.198018 0.007859
v 0.080867 0.196707 0.008561
v 0.080867 0.195281 0.008992
v 0.080867 0.193802 0.009135
v 0.080867 0.192322 0.008992
v 0.080867 0.190897 0.008561
v 0.080867 0.189585 0.007859
v 0.080867 0.188437 0.006913
v 0.080867 0.187492 0.005765
v 0.080867 0.186789 0.004454
v 0.080867 0.186359 0.003029
v 0.080867 0.186215 0.001549
v 0.080867 0.186359 0.000069
v 0.080867 0.186789 -0.001356
v 0.080867 0.187492 -0.002667
v 0.080867 0.188437 -0.003815
v 0.080867 0.189585 -0.004761
v 0.080867 0.190897 -0.005463
v 0.080867 0.192322 -0.005894
v 0.080867 0.193802 -0.006037
v 0.080996 0.196523 -0.012134
v 0.080996 0.199141 -0.011342
v 0.080996 0.201551 -0.010051
v 0.080996 0.203664 -0.008314
v 0.080996 0.205401 -0.006201
v 0.080996 0.206693 -0.003791
v 0.080996 0.207485 -0.001173
v 0.080996 0.207752 0.001549
v 0.080996 0.207485 0.004271
v 0.080996 0.206693 0.006889
v 0.080996 0.205401 0.009299
v 0.080996 0.203664 0.011417
v 0.080996 0.201551 0.013149
v 0.080996 0.199141 0.014440
v 0.080996 0.196523 0.015232
v 0.080996 0.193802 0.015499
v 0.080996 0.191080 0.015232
v 0.080996 0.188462 0.014440
v 0.080996 0.186052 0.013149
v 0.080996 0.183939 0.011417
v 0.080996 0.182202 0.009299
v 0.080996 0.180910 0.006889
v 0.080996 0.180118 0.004271
v 0.080996 0.179851 0.001549
v 0.080996 0.180118 -0.001173
v 0.080996 0.180910 -0.003791
v 0.080996 0.182202 -0.006201
v 0.080996 0.183939 -0.008314
v 0.080996 0.186052 -0.010051
v 0.080996 0.188462 -0.011342
v 0.080996 0.191080 -0.012134
v 0.080996 0.193802 -0.012401
v 0.096114 0.196523 -0.012134
v 0.096114 0.199141 -0.011342
v 0.096114 0.201551 -0.010051
v 0.096114 0.203664 -0.008314
v 0.096114 0.205401 -0.006201
v 0.096114 0.206693 -0.003791
v 0.096114 0.207485 -0.001173
v 0.096114 0.207752 0.001549
v 0.096114 0.207485 0.004271
v 0.096114 0.206693 0.006889
v 0.096114 0.205401 0.009299
v 0.096114 0.203664 0.011417
v 0.096114 0.201551 0.013149
v 0.096114 0.199141 0.014440
v 0.096114 0.196523 0.015232
v 0.096114 0.193802 0.015499
v 0.096114 0.191080 0.015232
v 0.096114 0.188462 0.014440
v 0.096114 0.186052 0.013149
v 0.096114 0.183939 0.011417
v 0.096114 0.182202 0.009299
v 0.096114 0.180910 0.006889
v 0.096114 0.180118 0.004271
v 0.096114 0.179851 0.001549
v 0.096114 0.180118 -0.001173
v 0.096114 0.180910 -0.003791
v 0.096114 0.182202 -0.006201
v 0.096114 0.183939 -0.008314
v 0.096114 0.186052 -0.010051
v 0.096114 0.188462 -0.011342
v 0.096114 0.191080 -0.012134
v 0.096114 0.193802 -0.012401
v 0.067248 -0.005453 0.025080
v 0.067248 0.010011 0.025080
v 0.067248 -0.005453 -0.023120
v 0.067248 0.010011 -0.023120
v 0.040807 -0.005453 0.025080
v 0.040807 0.010011 0.025080
v 0.040807 -0.005453 -0.023120
v 0.040807 0.010011 -0.023120
v 0.067248 0.088132 0.025080
v 0.067248 0.088132 -0.023120
v 0.040807 0.088132 0.025080
v 0.040807 0.088132 -0.023120
v 0.062116 0.088132 0.015722
v 0.062116 0.088132 -0.013762
v 0.045939 0.088132 0.015722
v 0.045939 0.088132 -0.013762
v 0.073523 0.107491 0.015722
v 0.073523 0.107491 -0.013762
v 0.057692 0.107491 0.015722
v 0.057692 0.107491 -0.013762
v 0.078363 0.178352 0.015722
v 0.078363 0.178352 -0.013762
v 0.062186 0.178352 0.015722
v 0.062186 0.178352 -0.013762
v 0.078363 0.205317 0.015722
v 0.078363 0.205317 -0.013762
v 0.062186 0.205317 0.015722
v 0.062186 0.205317 -0.013762
v 0.074449 0.209118 0.008591
v 0.074449 0.209118 -0.006631
v 0.066095 0.209118 0.008591
v 0.066095 0.209118 -0.006631
vn 1.0000 -0.0000 -0.0000
vn -1.0000 -0.0000 -0.0000
vn -0.0000 -0.0000 -1.0000
vn -0.0000 -0.1951 -0.9808
vn 0.0006 0.1970 -0.9804
vn -0.0000 0.1951 -0.9808
vn -0.0004 0.0001 -1.0000
vn -0.0003 0.0001 -1.0000
vn 0.0017 0.3825 -0.9239
vn -0.0000 0.3842 -0.9233
vn -0.0015 0.5552 -0.8317
vn -0.0000 0.5539 -0.8326
vn 0.0004 0.7083 -0.7059
vn -0.0000 0.7070 -0.7072
vn 0.0015 0.8311 -0.5562
vn -0.0000 0.8321 -0.5546
vn -0.0015 0.9236 -0.3835
vn -0.0000 0.9229 -0.3849
vn 0.0005 0.9808 -0.1949
vn -0.0000 0.9809 -0.1944
vn -0.0001 1.0000 0.0002
vn -0.0000 1.0000 -0.0005
vn -0.0000 0.9808 0.1951
vn -0.0000 0.9807 0.1954
vn -0.0015 0.9236 0.3835
vn -0.0000 0.9242 0.3820
vn 0.0015 0.8311 0.5562
vn -0.0000 0.8301 0.5576
vn -0.0005 0.7071 0.7071
vn -0.0000 0.7076 0.7066
vn 0.0016 0.5562 0.8311
vn -0.0000 0.5548 0.8320
vn -0.0015 0.3835 0.9236
vn -0.0000 0.3849 0.9230
vn 0.0004 0.1949 0.9808
vn -0.0002 0.1949 0.9808
vn -0.0003 0.0001 1.0000
vn -0.0000 0.0001 1.0000
vn -0.0000 -0.1951 0.9808
vn -0.0011 -0.3844 0.9232
vn -0.0000 -0.3826 0.9239
vn 0.0016 -0.5562 0.8311
vn -0.0000 -0.5577 0.8301
vn -0.0004 -0.7069 0.7073
vn -0.0000 -0.7058 0.7084
vn -0.0002 -0.8313 0.5558
vn -0.0000 -0.8310 0.5563
vn -0.0002 -0.9240 0.3823
vn -0.0000 -0.9239 0.3826
vn 0.0005 -0.9808 0.1949
vn -0.0000 -0.9809 0.1947
vn -0.0005 -1.0000 -0.0000
vn -0.0000 -1.0000 -0.0000
vn 0.0006 -0.9808 -0.1949
vn -0.0000 -0.9808 -0.1950
vn -0.0002 -0.9239 -0.3827
vn -0.0000 -0.9240 -0.3823
vn -0.0005 -0.8310 -0.5563
vn -0.0000 -0.8313 -0.5558
vn 0.0009 -0.7071 -0.7071
vn -0.0000 -0.7065 -0.7077
vn -0.0014 -0.5552 -0.8317
vn -0.0000 -0.5563 -0.8310
vn 0.0022 -0.3829 -0.9238
vn -0.0000 -0.3809 -0.9246
vn -0.0006 -0.1952 -0.9808
vn -0.0000 -0.1975 -0.9803
vn 0.0001 0.9808 -0.1951
vn -0.0001 0.9239 -0.3827
vn 0.0001 0.9239 -0.3827
vn -0.0001 0.9808 -0.1951
vn -0.0000 -0.3827 0.9239
vn 0.0001 0.9808 0.1951
vn -0.0003 1.0000 -0.0000
vn 0.0003 1.0000 -0.0000
vn -0.0001 0.9808 0.1951
vn -0.0001 0.9239 0.3827
vn 0.0001 0.9239 0.3827
vn -0.0011 -0.7071 -0.7071
vn 0.0003 -0.8315 -0.5555
vn -0.0005 -0.8311 -0.5562
vn 0.0011 -0.7071 -0.7071
vn 0.0007 0.8312 0.5559
vn -0.0007 0.8312 0.5559
vn 0.0005 0.5562 0.8311
vn -0.0012 0.7071 0.7071
vn 0.0012 0.7071 0.7071
vn -0.0003 0.5555 0.8315
vn -0.0000 0.3827 -0.9239
vn -0.0011 -0.7071 0.7071
vn 0.0005 -0.5559 0.8312
vn -0.0005 -0.5559 0.8312
vn 0.0011 -0.7071 0.7071
vn -0.0000 0.1951 0.9808
vn -0.0000 0.3827 0.9239
vn -0.0001 -0.3827 -0.9239
vn 0.0007 -0.5559 -0.8312
vn -0.0007 -0.5559 -0.8312
vn 0.0001 -0.3827 -0.9239
vn -0.0000 -0.0000 1.0000
vn -0.0012 0.7071 -0.7071
vn 0.0003 0.5555 -0.8315
vn -0.0005 0.5562 -0.8311
vn 0.0012 0.7071 -0.7071
vn -0.0000 -0.9239 0.3827
vn 0.0005 -0.8311 0.5562
vn -0.0003 -0.8315 0.5555
vn -0.0000 -0.9808 0.1951
vn -0.0000 -0.9808 -0.1951
vn 0.0007 0.8312 -0.5559
vn -0.0007 0.8312 -0.5559
vn -0.0000 -0.9239 -0.3827
vn 0.0011 -0.9239 0.3826
vn -0.0006 -0.8301 0.5576
vn -0.0006 -0.8314 0.5557
vn -0.0011 -0.9239 0.3826
vn 0.9998 -0.0164 0.0110
vn 0.9998 -0.0141 0.0141
vn 0.9998 -0.0140 0.0140
vn 0.9998 -0.0168 0.0112
vn 0.0005 -0.5559 0.8313
vn 0.0009 -0.3826 0.9239
vn -0.0009 -0.3826 0.9239
vn 0.0005 -0.5574 0.8302
vn -0.0015 -1.0000 -0.0000
vn 0.0006 -0.9808 0.1949
vn 0.0006 -0.9813 0.1927
vn 0.0015 -1.0000 -0.0000
vn -0.0015 -0.7071 0.7071
vn 0.0015 -0.7071 0.7071
vn 0.0011 -0.9239 -0.3826
vn -0.0006 -0.9813 -0.1927
vn -0.0006 -0.9808 -0.1949
vn -0.0011 -0.9239 -0.3826
vn -0.0014 -0.7071 -0.7071
vn 0.0006 -0.8314 -0.5557
vn 0.0006 -0.8301 -0.5576
vn 0.0014 -0.7071 -0.7071
vn 0.0010 0.3826 -0.9239
vn -0.0007 0.1926 -0.9813
vn -0.0007 0.1950 -0.9808
vn -0.0010 0.3826 -0.9239
vn 0.0011 -0.3826 -0.9239
vn -0.0006 -0.5575 -0.8301
vn -0.0006 -0.5557 -0.8314
vn -0.0011 -0.3826 -0.9239
vn -0.0015 0.7071 -0.7071
vn 0.0005 0.5559 -0.8313
vn 0.0005 0.5574 -0.8302
vn 0.0015 0.7071 -0.7071
vn -0.0015 -0.0000 -1.0000
vn 0.0015 -0.0000 -1.0000
vn -0.0020 0.9239 -0.3827
vn 0.0017 0.8316 -0.5554
vn -0.0017 0.8316 -0.5554
vn 0.0020 0.9239 -0.3827
vn -0.0015 1.0000 -0.0000
vn 0.0018 0.9807 -0.1954
vn -0.0018 0.9807 -0.1954
vn 0.0015 1.0000 -0.0000
vn 0.0007 -0.1949 -0.9808
vn 0.0007 -0.1926 -0.9813
vn -0.0020 0.9239 0.3827
vn 0.0018 0.9807 0.1954
vn -0.0018 0.9807 0.1954
vn 0.0020 0.9239 0.3827
vn -0.0015 0.7071 0.7071
vn 0.0017 0.8316 0.5554
vn -0.0017 0.8316 0.5554
vn 0.0015 0.7071 0.7071
vn 0.0011 0.3826 0.9239
vn -0.0006 0.5575 0.8302
vn -0.0006 0.5558 0.8313
vn -0.0011 0.3826 0.9239
vn -0.0015 -0.0000 1.0000
vn 0.0007 0.1950 0.9808
vn 0.0007 0.1926 0.9813
vn 0.0015 -0.0000 1.0000
vn -0.0007 -0.1926 0.9813
vn -0.0007 -0.1949 0.9808
vn -0.0008 0.7071 -0.7071
vn 0.0004 0.5557 -0.8314
vn 0.0004 0.5570 -0.8305
vn 0.0008 0.7071 -0.7071
vn 0.9998 -0.0182 -0.0076
vn 0.9998 -0.0198 -0.0039
vn 0.9998 -0.0195 -0.0039
vn 0.9998 -0.0195 0.0039
vn 0.9998 -0.0182 0.0076
vn 0.9998 -0.0140 -0.0140
vn 0.9998 -0.0165 -0.0111
vn 0.9998 -0.0141 -0.0141
vn 0.9998 0.0077 -0.0187
vn 0.9998 0.0039 -0.0195
vn 0.9998 0.0039 -0.0194
vn 0.9998 -0.0199 -0.0000
vn 0.9998 -0.0202 -0.0000
vn 0.9998 -0.0077 -0.0187
vn 0.9998 -0.0111 -0.0165
vn 0.9998 0.0140 -0.0140
vn 0.9998 0.0111 -0.0165
vn 0.9998 0.0143 -0.0143
vn 0.9998 -0.0000 -0.0199
vn 0.9998 -0.0000 -0.0197
vn 0.9998 0.0184 -0.0076
vn 0.9998 0.0165 -0.0111
vn 0.9998 0.0199 -0.0000
vn 0.9998 0.0198 -0.0039
vn 0.9998 0.0197 -0.0000
vn 0.9998 -0.0039 -0.0195
vn 0.9998 -0.0039 -0.0194
vn 0.9998 0.0182 0.0076
vn 0.9998 0.0195 0.0039
vn 0.9998 0.0140 0.0140
vn 0.9998 0.0164 0.0110
vn 0.9998 0.0168 0.0112
vn 0.9998 0.0077 0.0187
vn 0.9998 0.0111 0.0165
vn 0.9998 -0.0000 0.0199
vn 0.9998 0.0039 0.0195
vn 0.9998 0.0039 0.0194
vn 0.9998 -0.0000 0.0197
vn 0.9998 -0.0077 0.0187
vn 0.9998 -0.0039 0.0195
vn 0.9998 -0.0039 0.0194
vn 0.9998 -0.0111 0.0165
vn 0.0005 -0.8314 -0.5557
vn 0.0011 -0.9238 -0.3828
vn -0.0011 -0.9238 -0.3828
vn 0.0005 -0.8305 -0.5570
vn -0.0004 0.1945 -0.9809
vn -0.0000 -0.0002 -1.0000
vn 0.0001 -0.0000 -1.0000
vn -0.0000 0.1949 -0.9808
vn 0.0008 0.9238 -0.3828
vn -0.0005 0.8305 -0.5570
vn -0.0005 0.8314 -0.5557
vn -0.0008 0.9238 -0.3828
vn -0.0006 -0.5572 -0.8304
vn -0.0009 -0.7071 -0.7071
vn -0.0006 -0.5555 -0.8315
vn 0.0009 0.3828 -0.9238
vn -0.0009 0.3828 -0.9238
vn 0.0002 0.9808 -0.1950
vn 0.0002 0.9810 -0.1941
vn 0.0002 -0.1949 -0.9808
vn 0.0010 -0.3828 -0.9238
vn -0.0010 -0.3828 -0.9238
vn 0.0002 -0.1942 -0.9810
vn 0.0009 0.9238 0.3828
vn -0.0003 0.9810 0.1941
vn -0.0003 0.9808 0.1950
vn -0.0009 0.9238 0.3828
vn -0.0000 0.7070 0.7072
vn -0.0000 0.8315 0.5555
vn 0.0005 0.8313 0.5559
vn 0.0009 0.3828 0.9238
vn -0.0005 0.5558 0.8313
vn 0.0005 0.5558 0.8313
vn -0.0009 0.3828 0.9238
vn -0.0001 -0.0000 1.0000
vn 0.0003 0.1950 0.9808
vn 0.0003 0.1941 0.9810
vn 0.0001 -0.0000 1.0000
vn 0.0010 -0.3828 0.9238
vn -0.0001 -0.1943 0.9809
vn -0.0001 -0.1948 0.9808
vn -0.0010 -0.3828 0.9238
vn 0.0004 -0.7070 0.7072
vn -0.0010 -0.5558 0.8313
vn 0.0010 -0.5558 0.8313
vn -0.0004 -0.7070 0.7072
vn 0.0009 -0.9238 0.3828
vn -0.0006 -0.8313 0.5559
vn 0.0006 -0.8313 0.5559
vn -0.0009 -0.9238 0.3828
vn -0.0000 -0.9808 0.1950
vn 0.0004 -0.9809 0.1945
vn -0.0006 -0.9809 -0.1945
vn -0.0000 1.0000 -0.0000
vn 0.8548 0.5190 -0.0000
vn 0.9540 0.2998 -0.0000
vn -0.8616 -0.5076 -0.0000
vn -0.9552 -0.2958 -0.0000
vn 0.9995 0.0317 -0.0000
vn -0.9994 -0.0341 -0.0000
vn 0.6968 0.7172 -0.0000
vn -0.0000 0.9620 -0.2730
vn 0.0003 0.9621 -0.2727
vn -0.0000 0.9621 0.2727
vn -0.6969 0.7171 -0.0000
vn -0.0000 0.8825 0.4703
vn -0.0000 0.8823 -0.4708
vn -0.0001 -0.0000 -1.0000
vn 0.0001 -0.1951 -0.9808
vn -0.0001 -0.1951 -0.9808
vn 0.0005 0.1952 -0.9808
vn 0.0002 0.0001 -1.0000
vn -0.0016 0.3825 -0.9239
vn 0.0013 0.5552 -0.8317
vn 0.0004 0.7073 -0.7069
vn -0.0015 0.8311 -0.5562
vn 0.0016 0.9236 -0.3835
vn -0.0006 0.9808 -0.1949
vn 0.0002 1.0000 -0.0001
vn -0.0002 0.9808 0.1949
vn 0.0015 0.9236 0.3835
vn -0.0015 0.8311 0.5562
vn 0.0005 0.7071 0.7071
vn -0.0016 0.5562 0.8311
vn 0.0013 0.3835 0.9236
vn 0.0002 0.0001 1.0000
vn 0.0006 -0.3828 0.9238
vn -0.0018 -0.5562 0.8311
vn -0.0006 -0.7057 0.7085
vn 0.0005 -0.8310 0.5563
vn 0.0001 -0.9239 0.3827
vn -0.0005 -0.9808 0.1949
vn 0.0005 -1.0000 -0.0000
vn -0.0005 -0.9808 -0.1949
vn 0.0005 -0.9240 -0.3825
vn 0.0004 -0.8315 -0.5555
vn 0.0015 -0.5552 -0.8317
vn -0.0022 -0.3829 -0.9238
vn -0.0006 -0.1973 -0.9803
vn -0.0000 0.9808 -0.1951
vn -0.0003 0.9239 -0.3827
vn 0.0003 0.9239 -0.3827
vn 0.0002 -0.1951 0.9808
vn -0.0002 -0.1951 0.9808
vn -0.0003 0.9808 0.1951
vn 0.0003 0.9808 0.1951
vn 0.0003 0.9239 0.3827
vn -0.0003 0.9239 0.3827
vn 0.0012 -0.7071 -0.7071
vn -0.0012 -0.7071 -0.7071
vn -0.0009 0.8312 0.5559
vn 0.0009 0.8312 0.5559
vn -0.0005 0.5559 0.8312
vn 0.0005 0.5559 0.8312
vn -0.0011 0.7071 0.7071
vn 0.0011 0.7071 0.7071
vn 0.0001 0.3827 -0.9239
vn -0.0001 0.3827 -0.9239
vn 0.0012 -0.7071 0.7071
vn -0.0012 -0.7071 0.7071
vn -0.0001 0.1951 0.9808
vn 0.0001 0.1951 0.9808
vn -0.0004 -0.0000 1.0000
vn 0.0004 -0.0000 1.0000
vn 0.0011 0.7071 -0.7071
vn -0.0011 0.7071 -0.7071
vn 0.0006 0.5559 -0.8312
vn -0.0006 0.5559 -0.8312
vn 0.0009 0.8312 -0.5559
vn -0.0009 0.8312 -0.5559
vn -0.0007 -0.8301 0.5577
vn -0.0007 -0.8314 0.5556
vn -0.9998 -0.0165 0.0111
vn -0.9998 -0.0168 0.0112
vn -0.9998 -0.0141 0.0141
vn -0.9998 -0.0143 0.0143
vn 0.0008 -0.3826 0.9239
vn -0.0008 -0.3826 0.9239
vn -0.0016 -0.7071 0.7071
vn 0.0016 -0.7071 0.7071
vn 0.0006 -0.8301 -0.5575
vn -0.0010 -0.3826 -0.9239
vn 0.0010 -0.3826 -0.9239
vn 0.0006 0.5558 -0.8313
vn 0.0006 0.5575 -0.8302
vn 0.0016 1.0000 -0.0000
vn -0.0016 1.0000 -0.0000
vn 0.0018 0.9807 -0.1953
vn -0.0018 0.9807 -0.1953
vn 0.0018 0.9807 0.1953
vn -0.0018 0.9807 0.1953
vn 0.0016 0.7071 0.7071
vn -0.0016 0.7071 0.7071
vn 0.0018 0.8316 0.5554
vn -0.0018 0.8316 0.5554
vn -0.0006 0.5575 0.8301
vn -0.0006 0.5557 0.8314
vn -0.9998 -0.0184 -0.0076
vn -0.9998 -0.0182 -0.0076
vn -0.9998 -0.0198 -0.0039
vn -0.9998 -0.0195 -0.0039
vn -0.9998 -0.0195 0.0039
vn -0.9998 -0.0198 0.0039
vn -0.9998 -0.0182 0.0076
vn -0.9998 -0.0141 -0.0141
vn -0.9998 -0.0164 -0.0110
vn -0.9998 -0.0168 -0.0113
vn -0.9998 0.0077 -0.0187
vn -0.9998 0.0076 -0.0184
vn -0.9998 0.0039 -0.0194
vn -0.9998 0.0039 -0.0195
vn -0.9998 -0.0199 -0.0000
vn -0.9998 -0.0077 -0.0187
vn -0.9998 -0.0076 -0.0184
vn -0.9998 -0.0111 -0.0165
vn -0.9998 0.0141 -0.0141
vn -0.9998 0.0143 -0.0143
vn -0.9998 0.0111 -0.0165
vn -0.9998 -0.0000 -0.0202
vn -0.9998 -0.0000 -0.0199
vn -0.9998 0.0181 -0.0075
vn -0.9998 0.0168 -0.0112
vn -0.9998 0.0199 -0.0000
vn -0.9998 0.0195 -0.0039
vn -0.9998 0.0198 -0.0039
vn -0.9998 -0.0039 -0.0195
vn -0.9998 -0.0039 -0.0194
vn -0.9998 0.0181 0.0075
vn -0.9998 0.0195 0.0039
vn -0.9998 0.0198 0.0039
vn -0.9998 0.0141 0.0141
vn -0.9998 0.0140 0.0140
vn -0.9998 0.0168 0.0112
vn -0.9998 0.0077 0.0187
vn -0.9998 0.0076 0.0184
vn -0.9998 0.0112 0.0168
vn -0.9998 0.0111 0.0165
vn -0.9998 -0.0000 0.0199
vn -0.9998 -0.0000 0.0202
vn -0.9998 0.0039 0.0194
vn -0.9998 0.0039 0.0195
vn -0.9998 -0.0077 0.0187
vn -0.9998 -0.0039 0.0194
vn -0.9998 -0.0039 0.0195
vn -0.9998 -0.0112 0.0168
vn -0.9998 -0.0111 0.0165
vn 0.0005 -0.8304 -0.5571
vn 0.0005 -0.8315 -0.5556
vn -0.0003 0.1945 -0.9809
vn -0.0010 0.9238 -0.3828
vn 0.0010 0.9238 -0.3828
vn -0.0006 0.8304 -0.5572
vn -0.0006 0.8315 -0.5555
vn -0.0005 -0.5556 -0.8315
vn -0.0005 -0.5572 -0.8304
vn 0.0008 0.3828 -0.9238
vn -0.0008 0.3828 -0.9238
vn 0.0005 1.0000 -0.0000
vn -0.0005 1.0000 -0.0000
vn 0.0003 -0.1945 -0.9809
vn -0.0000 -0.1948 -0.9808
vn -0.0010 0.9238 0.3828
vn 0.0010 0.9238 0.3828
vn -0.0004 0.7069 0.7074
vn 0.0002 0.7073 0.7069
vn -0.0000 0.8317 0.5553
vn 0.0007 0.8313 0.5559
vn -0.0010 0.5558 0.8313
vn 0.0010 0.5558 0.8313
vn 0.0002 0.1950 0.9808
vn 0.0002 0.1941 0.9810
vn -0.0003 -0.7070 0.7072
vn 0.0003 -0.7070 0.7072
vn -0.0011 -0.5558 0.8313
vn 0.0011 -0.5558 0.8313
vn -0.0012 -0.9238 0.3828
vn 0.0012 -0.9238 0.3828
vn -0.0005 -0.8313 0.5559
vn 0.0005 -0.8313 0.5559
vn 0.0006 -0.9809 0.1945
vn -0.0005 -0.9809 -0.1945
vn -0.8548 0.5190 -0.0000
vn -0.9540 0.2998 -0.0000
vn 0.8616 -0.5076 -0.0000
vn 0.9552 -0.2958 -0.0000
vn -0.9995 0.0317 -0.0000
vn 0.9994 -0.0341 -0.0000
vn -0.6971 0.7170 -0.0000
vn -0.0000 0.9621 -0.2727
vn 0.6971 0.7170 -0.0000
vn -0.0000 0.8825 -0.4703
vt 0.250000 0.500000
vt 0.218750 0.500000
vt 0.812500 0.500000
vt 0.781250 0.500000
vt 0.125000 0.500000
vt 0.093750 0.500000
vt 0.406250 0.500000
vt 0.375000 0.500000
vt 0.687500 0.500000
vt 0.656250 0.500000
vt 0.968750 0.500000
vt 0.937500 0.500000
vt 0.281250 0.500000
vt 0.562500 0.500000
vt 0.531250 0.500000
vt 0.843750 0.500000
vt 0.156250 0.500000
vt 0.437500 0.500000
vt 0.718750 0.500000
vt 0.031250 0.500000
vt 0.000000 0.500000
vt 1.000000 0.500000
vt 0.312500 0.500000
vt 0.593750 0.500000
vt 0.875000 0.500000
vt 0.187500 0.500000
vt 0.468750 0.500000
vt 0.750000 0.500000
vt 0.062500 0.500000
vt 0.343750 0.500000
vt 0.625000 0.500000
vt 0.906250 0.500000
vt 0.500000 0.500000
vt 0.031250 0.750000
vt 0.000000 0.750000
vt 0.062500 0.750000
vt 0.093750 0.750000
vt 0.125000 0.750000
vt 0.156250 0.750000
vt 0.187500 0.750000
vt 0.218750 0.750000
vt 0.250000 0.750000
vt 0.281250 0.750000
vt 0.312500 0.750000
vt 0.343750 0.750000
vt 0.375000 0.750000
vt 0.406250 0.750000
vt 0.437500 0.750000
vt 0.468750 0.750000
vt 0.500000 0.750000
vt 0.531250 0.750000
vt 0.562500 0.750000
vt 0.593750 0.750000
vt 0.625000 0.750000
vt 0.656250 0.750000
vt 0.687500 0.750000
vt 0.718750 0.750000
vt 0.750000 0.750000
vt 0.781250 0.750000
vt 0.812500 0.750000
vt 0.843750 0.750000
vt 0.875000 0.750000
vt 0.906250 0.750000
vt 0.937500 0.750000
vt 0.968750 0.750000
vt 1.000000 0.750000
vt 0.750000 0.490000
vt 0.796822 0.485388
vt 0.841844 0.471731
vt 0.883337 0.449553
vt 0.919706 0.419706
vt 0.949553 0.383337
vt 0.971731 0.341844
vt 0.985388 0.296822
vt 0.990000 0.250000
vt 0.985388 0.203178
vt 0.971731 0.158156
vt 0.949553 0.116663
vt 0.919706 0.080294
vt 0.883337 0.050447
vt 0.841844 0.028269
vt 0.796822 0.014612
vt 0.750000 0.010000
vt 0.703178 0.014612
vt 0.658156 0.028269
vt 0.616663 0.050447
vt 0.580294 0.080294
vt 0.550447 0.116663
vt 0.528269 0.158156
vt 0.514612 0.203178
vt 0.510000 0.250000
vt 0.514612 0.296822
vt 0.528269 0.341844
vt 0.550447 0.383337
vt 0.580294 0.419706
vt 0.616663 0.449553
vt 0.658156 0.471731
vt 0.703178 0.485388
vt 0.375000 0.000000
vt 0.625000 0.000000
vt 0.625000 0.250000
vt 0.375000 0.250000
vt 0.625000 1.000000
vt 0.375000 1.000000
s 1
f 49/1/1 51/2/1 14/2/1 16/1/1
f 13/3/1 15/4/1 50/4/1 52/3/1
f 57/5/1 59/6/1 6/6/1 8/5/1
f 39/7/1 41/8/1 24/8/1 26/7/1
f 21/9/1 23/10/1 42/10/1 44/9/1
f 3/11/1 5/12/1 60/12/1 62/11/1
f 47/13/1 49/1/1 16/1/1 18/13/1
f 29/14/1 31/15/1 34/15/1 36/14/1
f 11/16/1 13/3/1 52/3/1 54/16/1
f 55/17/1 57/5/1 8/5/1 10/17/1
f 37/18/1 39/7/1 26/7/1 28/18/1
f 19/19/1 21/9/1 44/9/1 46/19/1
f 63/20/1 1/21/1 64/21/1 2/20/1
f 1/22/1 3/11/1 62/11/1 64/22/1
f 45/23/1 47/13/1 18/13/1 20/23/1
f 27/24/1 29/14/1 36/14/1 38/24/1
f 9/25/1 11/16/1 54/16/1 56/25/1
f 53/26/1 55/17/1 10/17/1 12/26/1
f 35/27/1 37/18/1 28/18/1 30/27/1
f 17/28/1 19/19/1 46/19/1 48/28/1
f 61/29/1 63/20/1 2/20/1 4/29/1
f 43/30/1 45/23/1 20/23/1 22/30/1
f 25/31/1 27/24/1 38/24/1 40/31/1
f 7/32/1 9/25/1 56/25/1 58/32/1
f 51/2/1 53/26/1 12/26/1 14/2/1
f 33/33/1 35/27/1 30/27/1 32/33/1
f 15/4/1 17/28/1 48/28/1 50/4/1
f 59/6/1 61/29/1 4/29/1 6/6/1
f 41/8/1 43/30/1 22/30/1 24/8/1
f 23/10/1 25/31/1 40/31/1 42/10/1
f 112/33/2 111/27/2 143/27/2 144/33/2
f 64/22/3 62/11/4 127/11/4 128/22/3
f 31/15/1 33/33/1 32/33/1 34/15/1
f 5/12/1 7/32/1 58/32/1 60/12/1
f 63/20/5 96/34/6 65/35/7 1/21/8
f 61/29/9 95/36/10 96/34/6 63/20/5
f 59/6/11 94/37/12 95/36/10 61/29/9
f 57/5/13 93/38/14 94/37/12 59/6/11
f 55/17/15 92/39/16 93/38/14 57/5/13
f 53/26/17 91/40/18 92/39/16 55/17/15
f 51/2/19 90/41/20 91/40/18 53/26/17
f 49/1/21 89/42/22 90/41/20 51/2/19
f 47/13/23 88/43/24 89/42/22 49/1/21
f 45/23/25 87/44/26 88/43/24 47/13/23
f 43/30/27 86/45/28 87/44/26 45/23/25
f 41/8/29 85/46/30 86/45/28 43/30/27
f 39/7/31 84/47/32 85/46/30 41/8/29
f 37/18/33 83/48/34 84/47/32 39/7/31
f 35/27/35 82/49/36 83/48/34 37/18/33
f 33/33/37 81/50/38 82/49/36 35/27/35
f 31/15/39 80/51/39 81/50/38 33/33/37
f 29/14/40 79/52/41 80/51/39 31/15/39
f 27/24/42 78/53/43 79/52/41 29/14/40
f 25/31/44 77/54/45 78/53/43 27/24/42
f 23/10/46 76/55/47 77/54/45 25/31/44
f 21/9/48 75/56/49 76/55/47 23/10/46
f 19/19/50 74/57/51 75/56/49 21/9/48
f 17/28/52 73/58/53 74/57/51 19/19/50
f 15/4/54 72/59/55 73/58/53 17/28/52
f 13/3/56 71/60/57 72/59/55 15/4/54
f 11/16/58 70/61/59 71/60/57 13/3/56
f 9/25/60 69/62/61 70/61/59 11/16/58
f 7/32/62 68/63/63 69/62/61 9/25/60
f 5/12/64 67/64/65 68/63/63 7/32/62
f 3/11/66 66/65/67 67/64/65 5/12/64
f 1/22/8 65/66/7 66/65/67 3/11/66
f 14/2/68 12/26/69 102/26/70 103/2/71
f 36/14/72 34/15/39 113/15/39 114/14/72
f 18/13/73 16/1/74 104/1/75 105/13/76
f 20/23/77 18/13/73 105/13/76 106/23/78
f 56/25/79 54/16/80 123/16/81 124/25/82
f 22/30/83 20/23/77 106/23/78 107/30/84
f 26/7/85 24/8/86 108/8/87 109/7/88
f 4/29/89 2/20/6 97/20/6 98/29/89
f 40/31/90 38/24/91 115/24/92 116/31/93
f 30/27/94 28/18/95 110/18/95 111/27/94
f 24/8/86 22/30/83 107/30/84 108/8/87
f 60/12/96 58/32/97 125/32/98 126/12/99
f 34/15/39 32/33/100 112/33/100 113/15/39
f 38/24/91 36/14/72 114/14/72 115/24/92
f 8/5/101 6/6/102 99/6/103 100/5/104
f 44/9/105 42/10/106 117/10/107 118/9/105
f 42/10/106 40/31/90 116/31/93 117/10/107
f 28/18/95 26/7/85 109/7/88 110/18/95
f 46/19/108 44/9/105 118/9/105 119/19/108
f 50/4/109 48/28/53 120/28/53 121/4/109
f 12/26/69 10/17/110 101/17/111 102/26/70
f 48/28/53 46/19/108 119/19/108 120/28/53
f 54/16/80 52/3/112 122/3/112 123/16/81
f 2/20/6 64/21/3 128/21/3 97/20/6
f 32/33/100 30/27/94 111/27/94 112/33/100
f 58/32/97 56/25/79 124/25/82 125/32/98
f 6/6/102 4/29/89 98/29/89 99/6/103
f 62/11/4 60/12/96 126/12/99 127/11/4
f 16/1/74 14/2/68 103/2/71 104/1/75
f 52/3/112 50/4/109 121/4/109 122/3/112
f 10/17/110 8/5/101 100/5/104 101/17/111
f 150/9/113 149/10/114 181/10/115 182/9/116
f 109/7/2 108/8/2 140/8/2 141/7/2
f 114/14/2 113/15/2 145/15/2 146/14/2
f 111/27/2 110/18/2 142/18/2 143/27/2
f 116/31/2 115/24/2 147/24/2 148/31/2
f 113/15/2 112/33/2 144/33/2 145/15/2
f 118/9/2 117/10/2 149/10/2 150/9/2
f 115/24/2 114/14/2 146/14/2 147/24/2
f 120/28/2 119/19/2 151/19/2 152/28/2
f 117/10/2 116/31/2 148/31/2 149/10/2
f 122/3/2 121/4/2 153/4/2 154/3/2
f 119/19/2 118/9/2 150/9/2 151/19/2
f 124/25/2 123/16/2 155/16/2 156/25/2
f 98/29/2 97/20/2 129/20/2 130/29/2
f 121/4/2 120/28/2 152/28/2 153/4/2
f 126/12/2 125/32/2 157/32/2 158/12/2
f 100/5/2 99/6/2 131/6/2 132/5/2
f 123/16/2 122/3/2 154/3/2 155/16/2
f 97/20/2 128/21/2 160/21/2 129/20/2
f 102/26/2 101/17/2 133/17/2 134/26/2
f 125/32/2 124/25/2 156/25/2 157/32/2
f 99/6/2 98/29/2 130/29/2 131/6/2
f 104/1/2 103/2/2 135/2/2 136/1/2
f 127/11/2 126/12/2 158/12/2 159/11/2
f 101/17/2 100/5/2 132/5/2 133/17/2
f 106/23/2 105/13/2 137/13/2 138/23/2
f 128/22/2 127/11/2 159/11/2 160/22/2
f 103/2/2 102/26/2 134/26/2 135/2/2
f 108/8/2 107/30/2 139/30/2 140/8/2
f 105/13/2 104/1/2 136/1/2 137/13/2
f 110/18/2 109/7/2 141/7/2 142/18/2
f 107/30/2 106/23/2 138/23/2 139/30/2
f 181/10/117 180/31/118 212/31/119 213/10/120
f 147/24/121 146/14/122 178/14/123 179/24/124
f 152/28/125 151/19/126 183/19/127 184/28/128
f 149/10/114 148/31/129 180/31/130 181/10/115
f 154/3/131 153/4/132 185/4/133 186/3/134
f 151/19/126 150/9/113 182/9/116 183/19/127
f 156/25/135 155/16/136 187/16/137 188/25/138
f 130/29/139 129/20/140 161/20/141 162/29/142
f 153/4/132 152/28/125 184/28/128 185/4/133
f 158/12/143 157/32/144 189/32/145 190/12/146
f 132/5/147 131/6/148 163/6/149 164/5/150
f 155/16/136 154/3/131 186/3/134 187/16/137
f 129/20/140 160/21/151 192/21/152 161/20/141
f 134/26/153 133/17/154 165/17/155 166/26/156
f 157/32/144 156/25/135 188/25/138 189/32/145
f 131/6/148 130/29/139 162/29/142 163/6/149
f 136/1/157 135/2/158 167/2/159 168/1/160
f 159/11/161 158/12/143 190/12/146 191/11/162
f 133/17/154 132/5/147 164/5/150 165/17/155
f 138/23/163 137/13/164 169/13/165 170/23/166
f 160/22/151 159/11/161 191/11/162 192/22/152
f 135/2/158 134/26/153 166/26/156 167/2/159
f 140/8/167 139/30/168 171/30/169 172/8/170
f 137/13/164 136/1/157 168/1/160 169/13/165
f 142/18/171 141/7/172 173/7/173 174/18/174
f 139/30/168 138/23/163 170/23/166 171/30/169
f 144/33/175 143/27/176 175/27/177 176/33/178
f 141/7/172 140/8/167 172/8/170 173/7/173
f 146/14/122 145/15/179 177/15/180 178/14/123
f 143/27/176 142/18/171 174/18/174 175/27/177
f 148/31/129 147/24/121 179/24/124 180/31/130
f 145/15/179 144/33/175 176/33/178 177/15/180
f 196/5/181 195/6/182 227/6/183 228/5/184
f 186/3/185 185/4/186 217/4/187 218/3/185
f 183/19/188 182/9/189 214/9/189 215/19/188
f 188/25/190 187/16/191 219/16/191 220/25/192
f 162/29/193 161/20/194 193/20/195 194/29/193
f 185/4/186 184/28/196 216/28/197 217/4/187
f 190/12/198 189/32/199 221/32/199 222/12/198
f 164/5/200 163/6/201 195/6/201 196/5/202
f 187/16/191 186/3/185 218/3/185 219/16/191
f 161/20/194 192/21/203 224/21/204 193/20/195
f 166/26/205 165/17/206 197/17/206 198/26/205
f 189/32/199 188/25/190 220/25/192 221/32/199
f 163/6/201 162/29/193 194/29/193 195/6/201
f 168/1/207 167/2/208 199/2/208 200/1/209
f 191/11/210 190/12/198 222/12/198 223/11/211
f 165/17/206 164/5/200 196/5/202 197/17/206
f 170/23/212 169/13/213 201/13/213 202/23/212
f 192/22/203 191/11/210 223/11/211 224/22/204
f 167/2/208 166/26/205 198/26/205 199/2/208
f 172/8/214 171/30/215 203/30/216 204/8/214
f 169/13/213 168/1/207 200/1/209 201/13/213
f 174/18/217 173/7/218 205/7/218 206/18/217
f 171/30/215 170/23/212 202/23/212 203/30/216
f 176/33/219 175/27/220 207/27/221 208/33/222
f 173/7/218 172/8/214 204/8/214 205/7/218
f 178/14/223 177/15/224 209/15/225 210/14/223
f 175/27/220 174/18/217 206/18/217 207/27/221
f 180/31/118 179/24/226 211/24/226 212/31/119
f 177/15/224 176/33/219 208/33/222 209/15/225
f 182/9/189 181/10/117 213/10/120 214/9/189
f 179/24/226 178/14/223 210/14/223 211/24/226
f 184/28/196 183/19/188 215/19/188 216/28/197
f 256/67/2 255/68/2 254/69/2 253/70/2 252/71/2 251/72/2 250/73/2 249/74/2 248/75/2 247/76/2 246/77/2 245/78/2 244/79/2 243/80/2 242/81/2 241/82/2 240/83/2 239/84/2 238/85/2 237/86/2 236/87/2 235/88/2 234/89/2 233/90/2 232/91/2 231/92/2 230/93/2 229/94/2 228/95/2 227/96/2 226/97/2 225/98/2
f 219/16/227 218/3/228 250/3/229 251/16/230
f 193/20/231 224/21/232 256/21/233 225/20/234
f 198/26/235 197/17/236 229/17/237 230/26/238
f 221/32/239 220/25/240 252/25/60 253/32/241
f 195/6/182 194/29/242 226/29/243 227/6/183
f 200/1/74 199/2/244 231/2/245 232/1/75
f 223/11/246 222/12/247 254/12/248 255/11/249
f 197/17/236 196/5/181 228/5/184 229/17/237
f 202/23/250 201/13/251 233/13/252 234/23/253
f 224/22/232 223/11/246 255/11/249 256/22/233
f 199/2/244 198/26/235 230/26/238 231/2/245
f 204/8/254 203/30/255 235/30/256 236/8/254
f 201/13/251 200/1/74 232/1/75 233/13/252
f 206/18/257 205/7/258 237/7/259 238/18/260
f 203/30/255 202/23/250 234/23/253 235/30/256
f 208/33/261 207/27/262 239/27/263 240/33/264
f 205/7/258 204/8/254 236/8/254 237/7/259
f 210/14/265 209/15/266 241/15/267 242/14/268
f 207/27/262 206/18/257 238/18/260 239/27/263
f 212/31/269 211/24/270 243/24/271 244/31/272
f 209/15/266 208/33/261 240/33/264 241/15/267
f 214/9/273 213/10/274 245/10/275 246/9/276
f 211/24/270 210/14/265 242/14/268 243/24/271
f 216/28/53 215/19/277 247/19/278 248/28/53
f 213/10/274 212/31/269 244/31/272 245/10/275
f 218/3/228 217/4/279 249/4/109 250/3/229
f 215/19/277 214/9/273 246/9/276 247/19/278
f 220/25/240 219/16/227 251/16/230 252/25/60
f 194/29/242 193/20/231 225/20/234 226/29/243
f 217/4/279 216/28/53 248/28/53 249/4/109
f 222/12/247 221/32/239 253/32/241 254/12/248
f 257/99/2 258/100/2 260/101/2 259/102/2
f 259/102/3 260/101/3 264/31/3 263/8/3
f 263/8/1 264/31/1 262/54/1 261/46/1
f 261/46/100 262/54/100 258/103/100 257/104/100
f 259/5/53 263/8/53 261/46/53 257/38/53
f 258/103/100 262/54/100 267/54/100 265/103/100
f 267/54/280 268/31/280 272/31/280 271/54/280
f 264/31/3 260/101/3 266/101/3 268/31/3
f 262/54/1 264/31/1 268/31/1 267/54/1
f 260/101/2 258/100/2 265/100/2 266/101/2
f 271/54/281 272/31/281 276/31/282 275/54/282
f 266/101/280 265/100/280 269/100/280 270/101/280
f 265/103/280 267/54/280 271/54/280 269/103/280
f 268/31/280 266/101/280 270/101/280 272/31/280
f 273/103/100 275/54/100 279/54/100 277/103/100
f 270/101/283 269/100/283 273/100/284 274/101/284
f 269/103/100 271/54/100 275/54/100 273/103/100
f 272/31/3 270/101/3 274/101/3 276/31/3
f 277/103/100 279/54/100 283/54/100 281/103/100
f 276/31/3 274/101/3 278/101/3 280/31/3
f 275/54/282 276/31/282 280/31/285 279/54/285
f 274/101/284 273/100/284 277/100/286 278/101/286
f 283/54/287 284/31/287 288/31/287 287/54/287
f 280/31/3 278/101/3 282/101/3 284/31/3
f 279/54/285 280/31/285 284/31/1 283/54/1
f 278/101/286 277/100/286 281/100/2 282/101/2
f 288/31/288 286/25/289 285/62/290 287/54/290
f 282/101/291 281/100/291 285/100/291 286/101/291
f 281/103/292 283/54/292 287/54/290 285/103/290
f 284/31/293 282/101/293 286/101/289 288/31/288
f 337/1/2 304/1/2 302/2/2 339/2/2
f 301/3/2 340/3/2 338/4/2 303/4/2
f 345/5/2 296/5/2 294/6/2 347/6/2
f 327/7/2 314/7/2 312/8/2 329/8/2
f 309/9/2 332/9/2 330/10/2 311/10/2
f 291/11/2 350/11/2 348/12/2 293/12/2
f 335/13/2 306/13/2 304/1/2 337/1/2
f 317/14/2 324/14/2 322/15/2 319/15/2
f 299/16/2 342/16/2 340/3/2 301/3/2
f 343/17/2 298/17/2 296/5/2 345/5/2
f 325/18/2 316/18/2 314/7/2 327/7/2
f 307/19/2 334/19/2 332/9/2 309/9/2
f 351/20/2 290/20/2 352/21/2 289/21/2
f 289/22/2 352/22/2 350/11/2 291/11/2
f 333/23/2 308/23/2 306/13/2 335/13/2
f 315/24/2 326/24/2 324/14/2 317/14/2
f 297/25/2 344/25/2 342/16/2 299/16/2
f 341/26/2 300/26/2 298/17/2 343/17/2
f 323/27/2 318/27/2 316/18/2 325/18/2
f 305/28/2 336/28/2 334/19/2 307/19/2
f 349/29/2 292/29/2 290/20/2 351/20/2
f 331/30/2 310/30/2 308/23/2 333/23/2
f 313/31/2 328/31/2 326/24/2 315/24/2
f 295/32/2 346/32/2 344/25/2 297/25/2
f 339/2/2 302/2/2 300/26/2 341/26/2
f 321/33/2 320/33/2 318/27/2 323/27/2
f 303/4/2 338/4/2 336/28/2 305/28/2
f 347/6/2 294/6/2 292/29/2 349/29/2
f 329/8/2 312/8/2 310/30/2 331/30/2
f 311/10/2 330/10/2 328/31/2 313/31/2
f 368/33/1 400/33/1 399/27/1 367/27/1
f 352/22/233 384/22/294 383/11/295 350/11/296
f 319/15/2 322/15/2 320/33/2 321/33/2
f 293/12/2 348/12/2 346/32/2 295/32/2
f 351/20/297 289/21/298 65/35/7 96/34/6
f 349/29/299 351/20/297 96/34/6 95/36/10
f 347/6/300 349/29/299 95/36/10 94/37/12
f 345/5/301 347/6/300 94/37/12 93/38/14
f 343/17/302 345/5/301 93/38/14 92/39/16
f 341/26/303 343/17/302 92/39/16 91/40/18
f 339/2/304 341/26/303 91/40/18 90/41/20
f 337/1/305 339/2/304 90/41/20 89/42/22
f 335/13/306 337/1/305 89/42/22 88/43/24
f 333/23/307 335/13/306 88/43/24 87/44/26
f 331/30/308 333/23/307 87/44/26 86/45/28
f 329/8/309 331/30/308 86/45/28 85/46/30
f 327/7/310 329/8/309 85/46/30 84/47/32
f 325/18/311 327/7/310 84/47/32 83/48/34
f 323/27/36 325/18/311 83/48/34 82/49/36
f 321/33/312 323/27/36 82/49/36 81/50/38
f 319/15/39 321/33/312 81/50/38 80/51/39
f 317/14/313 319/15/39 80/51/39 79/52/41
f 315/24/314 317/14/313 79/52/41 78/53/43
f 313/31/315 315/24/314 78/53/43 77/54/45
f 311/10/316 313/31/315 77/54/45 76/55/47
f 309/9/317 311/10/316 76/55/47 75/56/49
f 307/19/318 309/9/317 75/56/49 74/57/51
f 305/28/319 307/19/318 74/57/51 73/58/53
f 303/4/320 305/28/319 73/58/53 72/59/55
f 301/3/321 303/4/320 72/59/55 71/60/57
f 299/16/322 301/3/321 71/60/57 70/61/59
f 297/25/240 299/16/322 70/61/59 69/62/61
f 295/32/323 297/25/240 69/62/61 68/63/63
f 293/12/324 295/32/323 68/63/63 67/64/65
f 291/11/325 293/12/324 67/64/65 66/65/67
f 289/22/298 291/11/325 66/65/67 65/66/7
f 302/2/326 359/2/326 358/26/327 300/26/328
f 324/14/72 370/14/72 369/15/329 322/15/330
f 306/13/331 361/13/332 360/1/74 304/1/75
f 308/23/333 362/23/334 361/13/332 306/13/331
f 344/25/335 380/25/336 379/16/80 342/16/81
f 310/30/337 363/30/338 362/23/334 308/23/333
f 314/7/339 365/7/340 364/8/341 312/8/342
f 292/29/343 354/29/344 353/20/6 290/20/6
f 328/31/345 372/31/346 371/24/91 326/24/92
f 318/27/347 367/27/348 366/18/95 316/18/95
f 312/8/342 364/8/341 363/30/338 310/30/337
f 348/12/99 382/12/96 381/32/97 346/32/98
f 322/15/330 369/15/329 368/33/349 320/33/350
f 326/24/92 371/24/91 370/14/72 324/14/72
f 296/5/351 356/5/352 355/6/353 294/6/354
f 332/9/105 374/9/105 373/10/106 330/10/107
f 330/10/107 373/10/106 372/31/346 328/31/345
f 316/18/95 366/18/95 365/7/340 314/7/339
f 334/19/108 375/19/108 374/9/105 332/9/105
f 338/4/109 377/4/109 376/28/53 336/28/53
f 300/26/328 358/26/327 357/17/355 298/17/356
f 336/28/53 376/28/53 375/19/108 334/19/108
f 342/16/81 379/16/80 378/3/112 340/3/112
f 290/20/6 353/20/6 384/21/294 352/21/233
f 320/33/350 368/33/349 367/27/348 318/27/347
f 346/32/98 381/32/97 380/25/336 344/25/335
f 294/6/354 355/6/353 354/29/344 292/29/343
f 350/11/296 383/11/295 382/12/96 348/12/99
f 304/1/75 360/1/74 359/2/326 302/2/326
f 340/3/112 378/3/112 377/4/109 338/4/109
f 298/17/356 357/17/355 356/5/352 296/5/351
f 406/9/116 438/9/113 437/10/357 405/10/358
f 365/7/1 397/7/1 396/8/1 364/8/1
f 370/14/1 402/14/1 401/15/1 369/15/1
f 367/27/1 399/27/1 398/18/1 366/18/1
f 372/31/1 404/31/1 403/24/1 371/24/1
f 369/15/1 401/15/1 400/33/1 368/33/1
f 374/9/1 406/9/1 405/10/1 373/10/1
f 371/24/1 403/24/1 402/14/1 370/14/1
f 376/28/1 408/28/1 407/19/1 375/19/1
f 373/10/1 405/10/1 404/31/1 372/31/1
f 378/3/1 410/3/1 409/4/1 377/4/1
f 375/19/1 407/19/1 406/9/1 374/9/1
f 380/25/1 412/25/1 411/16/1 379/16/1
f 354/29/1 386/29/1 385/20/1 353/20/1
f 377/4/1 409/4/1 408/28/1 376/28/1
f 382/12/1 414/12/1 413/32/1 381/32/1
f 356/5/1 388/5/1 387/6/1 355/6/1
f 379/16/1 411/16/1 410/3/1 378/3/1
f 353/20/1 385/20/1 416/21/1 384/21/1
f 358/26/1 390/26/1 389/17/1 357/17/1
f 381/32/1 413/32/1 412/25/1 380/25/1
f 355/6/1 387/6/1 386/29/1 354/29/1
f 360/1/1 392/1/1 391/2/1 359/2/1
f 383/11/1 415/11/1 414/12/1 382/12/1
f 357/17/1 389/17/1 388/5/1 356/5/1
f 362/23/1 394/23/1 393/13/1 361/13/1
f 384/22/1 416/22/1 415/11/1 383/11/1
f 359/2/1 391/2/1 390/26/1 358/26/1
f 364/8/1 396/8/1 395/30/1 363/30/1
f 361/13/1 393/13/1 392/1/1 360/1/1
f 366/18/1 398/18/1 397/7/1 365/7/1
f 363/30/1 395/30/1 394/23/1 362/23/1
f 437/10/359 469/10/360 468/31/361 436/31/362
f 403/24/124 435/24/121 434/14/363 402/14/364
f 408/28/128 440/28/125 439/19/126 407/19/127
f 405/10/358 437/10/357 436/31/365 404/31/366
f 410/3/134 442/3/131 441/4/132 409/4/133
f 407/19/127 439/19/126 438/9/113 406/9/116
f 412/25/138 444/25/135 443/16/136 411/16/367
f 386/29/142 418/29/139 417/20/140 385/20/141
f 409/4/133 441/4/132 440/28/125 408/28/128
f 414/12/368 446/12/369 445/32/144 413/32/145
f 388/5/150 420/5/147 419/6/370 387/6/371
f 411/16/367 443/16/136 442/3/131 410/3/134
f 385/20/141 417/20/140 448/21/151 416/21/152
f 390/26/156 422/26/153 421/17/154 389/17/155
f 413/32/145 445/32/144 444/25/135 412/25/138
f 387/6/371 419/6/370 418/29/139 386/29/142
f 392/1/372 424/1/373 423/2/374 391/2/375
f 415/11/162 447/11/161 446/12/369 414/12/368
f 389/17/155 421/17/154 420/5/147 388/5/150
f 394/23/166 426/23/163 425/13/376 393/13/377
f 416/22/152 448/22/151 447/11/161 415/11/162
f 391/2/375 423/2/374 422/26/153 390/26/156
f 396/8/378 428/8/379 427/30/380 395/30/381
f 393/13/377 425/13/376 424/1/373 392/1/372
f 398/18/174 430/18/171 429/7/382 397/7/383
f 395/30/381 427/30/380 426/23/163 394/23/166
f 400/33/178 432/33/175 431/27/176 399/27/177
f 397/7/383 429/7/382 428/8/379 396/8/378
f 402/14/364 434/14/363 433/15/179 401/15/180
f 399/27/177 431/27/176 430/18/171 398/18/174
f 404/31/366 436/31/365 435/24/121 403/24/124
f 401/15/180 433/15/179 432/33/175 400/33/178
f 452/5/184 484/5/181 483/6/182 451/6/183
f 442/3/384 474/3/385 473/4/386 441/4/387
f 439/19/388 471/19/389 470/9/390 438/9/390
f 444/25/391 476/25/391 475/16/392 443/16/393
f 418/29/394 450/29/395 449/20/396 417/20/397
f 441/4/387 473/4/386 472/28/398 440/28/398
f 446/12/399 478/12/400 477/32/401 445/32/401
f 420/5/402 452/5/403 451/6/404 419/6/404
f 443/16/393 475/16/392 474/3/385 442/3/384
f 417/20/397 449/20/396 480/21/405 448/21/406
f 422/26/407 454/26/407 453/17/408 421/17/408
f 445/32/401 477/32/401 476/25/391 444/25/391
f 419/6/404 451/6/404 450/29/395 418/29/394
f 424/1/409 456/1/409 455/2/410 423/2/411
f 447/11/412 479/11/413 478/12/400 446/12/399
f 421/17/408 453/17/408 452/5/403 420/5/402
f 426/23/414 458/23/414 457/13/415 425/13/416
f 448/22/406 480/22/405 479/11/413 447/11/412
f 423/2/411 455/2/410 454/26/407 422/26/407
f 428/8/417 460/8/418 459/30/419 427/30/419
f 425/13/416 457/13/415 456/1/409 424/1/409
f 430/18/420 462/18/421 461/7/422 429/7/423
f 427/30/419 459/30/419 458/23/414 426/23/414
f 432/33/424 464/33/425 463/27/426 431/27/427
f 429/7/423 461/7/422 460/8/418 428/8/417
f 434/14/428 466/14/428 465/15/429 433/15/430
f 431/27/427 463/27/426 462/18/421 430/18/420
f 436/31/362 468/31/361 467/24/431 435/24/432
f 433/15/430 465/15/429 464/33/425 432/33/424
f 438/9/390 470/9/390 469/10/360 437/10/359
f 435/24/432 467/24/431 466/14/428 434/14/428
f 440/28/398 472/28/398 471/19/389 439/19/388
f 512/67/1 481/98/1 482/97/1 483/96/1 484/95/1 485/94/1 486/93/1 487/92/1 488/91/1 489/90/1 490/89/1 491/88/1 492/87/1 493/86/1 494/85/1 495/84/1 496/83/1 497/82/1 498/81/1 499/80/1 500/79/1 501/78/1 502/77/1 503/76/1 504/75/1 505/74/1 506/73/1 507/72/1 508/71/1 509/70/1 510/69/1 511/68/1
f 475/16/433 507/16/434 506/3/228 474/3/229
f 449/20/234 481/20/435 512/21/3 480/21/3
f 454/26/436 486/26/437 485/17/438 453/17/439
f 477/32/440 509/32/441 508/25/240 476/25/60
f 451/6/183 483/6/182 482/29/442 450/29/443
f 456/1/444 488/1/445 487/2/244 455/2/245
f 479/11/446 511/11/447 510/12/247 478/12/248
f 453/17/439 485/17/438 484/5/181 452/5/184
f 458/23/448 490/23/449 489/13/251 457/13/252
f 480/22/3 512/22/3 511/11/447 479/11/446
f 455/2/245 487/2/244 486/26/437 454/26/436
f 460/8/450 492/8/451 491/30/452 459/30/453
f 457/13/252 489/13/251 488/1/445 456/1/444
f 462/18/260 494/18/257 493/7/454 461/7/455
f 459/30/453 491/30/452 490/23/449 458/23/448
f 464/33/264 496/33/261 495/27/456 463/27/457
f 461/7/455 493/7/454 492/8/451 460/8/450
f 466/14/268 498/14/265 497/15/266 465/15/267
f 463/27/457 495/27/456 494/18/257 462/18/260
f 468/31/458 500/31/459 499/24/460 467/24/461
f 465/15/267 497/15/266 496/33/261 464/33/264
f 470/9/462 502/9/463 501/10/464 469/10/465
f 467/24/461 499/24/460 498/14/265 466/14/268
f 472/28/53 504/28/53 503/19/108 471/19/466
f 469/10/465 501/10/464 500/31/459 468/31/458
f 474/3/229 506/3/228 505/4/467 473/4/109
f 471/19/466 503/19/108 502/9/463 470/9/462
f 476/25/60 508/25/240 507/16/434 475/16/433
f 450/29/443 482/29/442 481/20/435 449/20/234
f 473/4/109 505/4/467 504/28/53 472/28/53
f 478/12/248 510/12/247 509/32/441 477/32/440
f 513/99/1 515/102/1 516/101/1 514/100/1
f 515/102/3 519/8/3 520/31/3 516/101/3
f 519/8/2 517/46/2 518/54/2 520/31/2
f 517/46/100 513/104/100 514/103/100 518/54/100
f 515/5/53 513/38/53 517/46/53 519/8/53
f 514/103/100 521/103/100 523/54/100 518/54/100
f 523/54/280 527/54/280 528/31/280 524/31/280
f 520/31/3 524/31/3 522/101/3 516/101/3
f 518/54/2 523/54/2 524/31/2 520/31/2
f 516/101/1 522/101/1 521/100/1 514/100/1
f 527/54/468 531/54/469 532/31/469 528/31/468
f 522/101/280 526/101/280 525/100/280 521/100/280
f 521/103/280 525/103/280 527/54/280 523/54/280
f 524/31/280 528/31/280 526/101/280 522/101/280
f 529/103/100 533/103/100 535/54/100 531/54/100
f 526/101/470 530/101/471 529/100/471 525/100/470
f 525/103/100 529/103/100 531/54/100 527/54/100
f 528/31/3 532/31/3 530/101/3 526/101/3
f 533/103/100 537/103/100 539/54/100 535/54/100
f 532/31/3 536/31/3 534/101/3 530/101/3
f 531/54/469 535/54/472 536/31/472 532/31/469
f 530/101/471 534/101/473 533/100/473 529/100/471
f 539/54/474 543/54/474 544/31/474 540/31/474
f 536/31/3 540/31/3 538/101/3 534/101/3
f 535/54/472 539/54/2 540/31/2 536/31/472
f 534/101/473 538/101/1 537/100/1 533/100/473
f 544/31/475 543/54/290 541/62/290 542/25/475
f 538/101/476 542/101/476 541/100/476 537/100/476
f 537/103/292 541/103/290 543/54/290 539/54/292
f 540/31/477 544/31/475 542/101/475 538/101/477
