# Blender 4.3.2
# www.blender.org
mtllib _lever_01_base_export.mtl
o _lever_01_base_export
v -0.012950 -0.002024 0.046256
v -0.012950 -0.002024 -0.040793
v 0.012950 -0.002024 0.046256
v 0.012950 -0.002024 -0.040793
v -0.012950 0.011090 0.046256
v -0.011547 0.012950 0.044099
v -0.012539 0.012405 0.045624
v -0.011547 0.012950 -0.038636
v -0.012950 0.011090 -0.040793
v -0.012539 0.012405 -0.040161
v 0.011547 0.012950 -0.038636
v 0.012950 0.011090 -0.040793
v 0.012539 0.012405 -0.040161
v 0.011547 0.012950 0.044099
v 0.012950 0.011090 0.046256
v 0.012539 0.012405 0.045624
v -0.005178 0.012950 0.034310
v -0.004569 0.012144 0.033375
v -0.004569 0.012144 -0.027912
v -0.005178 0.012950 -0.028847
v 0.004569 0.012144 0.033375
v 0.005178 0.012950 0.034310
v 0.004569 0.012144 -0.027912
v 0.005178 0.012950 -0.028847
v -0.004569 0.006311 0.033375
v -0.003940 0.005682 0.032745
v -0.003940 0.005682 -0.027282
v -0.004569 0.006311 -0.027912
v 0.003940 0.005682 -0.027282
v 0.004569 0.006311 -0.027912
v 0.003940 0.005682 0.032745
v 0.004569 0.006311 0.033375
v -0.012950 -0.004017 -0.040793
v -0.012950 -0.004017 0.046256
v 0.012950 -0.004017 -0.040793
v 0.012950 -0.004017 0.046256
vn -0.0000 1.0000 -0.0000
vn -1.0000 -0.0000 -0.0000
vn -0.9919 0.1269 -0.0000
vn -0.0000 -0.0000 -1.0000
vn -0.0000 0.2008 -0.9796
vn 1.0000 -0.0000 -0.0000
vn 0.9919 0.1269 -0.0000
vn -0.0000 0.4688 0.8833
vn -0.0000 0.2883 0.9575
vn -0.0000 0.4688 -0.8833
vn -0.0000 0.2883 -0.9575
vn -0.9257 0.3782 -0.0000
vn -0.9577 0.2878 -0.0000
vn -0.4815 0.8764 -0.0000
vn -0.8866 0.4625 -0.0000
vn -0.0000 0.9417 -0.3365
vn -0.0000 0.6596 -0.7517
vn 0.4815 0.8764 -0.0000
vn 0.8866 0.4625 -0.0000
vn -0.0000 0.9417 0.3365
vn -0.0000 0.6595 0.7517
vn -0.0000 0.2008 0.9796
vn -0.0000 -0.0000 1.0000
vn 0.9257 0.3782 -0.0000
vn 0.7979 0.6028 -0.0000
vn -0.0000 0.7574 0.6529
vn -0.7979 0.6028 -0.0000
vn -0.0000 0.7574 -0.6529
vn 0.7071 0.7071 -0.0000
vn 0.9577 0.2878 -0.0000
vn -0.0000 0.7077 0.7065
vn -0.7071 0.7071 -0.0000
vn -0.0000 0.7077 -0.7065
vn -0.0000 -1.0000 -0.0000
vt 0.831856 0.737163
vt 0.831856 0.512837
vt 0.867209 0.502318
vt 0.867209 0.747682
vt 0.375000 0.000000
vt 0.593944 0.000000
vt 0.593944 0.250000
vt 0.375000 0.250000
vt 0.375000 0.500000
vt 0.668144 0.512837
vt 0.668144 0.737163
vt 0.632791 0.747682
vt 0.632791 0.502318
vt 0.593944 0.500000
vt 0.593944 0.750000
vt 0.375000 0.750000
vt 0.671521 0.513842
vt 0.828479 0.513842
vt 0.828479 0.736158
vt 0.671521 0.736158
vt 0.875000 0.501815
vt 0.875000 0.748185
vt 0.625000 0.001815
vt 0.625000 0.248185
vt 0.628968 0.500000
vt 0.871032 0.500000
vt 0.625000 0.253968
vt 0.625000 0.496032
vt 0.625000 0.748185
vt 0.625000 0.501815
vt 0.871032 0.750000
vt 0.628968 0.750000
vt 0.625000 0.753968
vt 0.625000 0.996032
vt 0.593944 1.000000
vt 0.375000 1.000000
vt 0.682331 0.516125
vt 0.817669 0.516125
vt 0.817669 0.733875
vt 0.682331 0.733875
vt 0.125000 0.500000
vt 0.125000 0.750000
s 1
f 17/1/1 20/2/1 8/3/1 6/4/1
f 1/5/2 5/6/3 9/7/3 2/8/2
f 2/8/4 4/9/4 35/9/4 33/8/4
f 24/10/1 22/11/1 14/12/1 11/13/1
f 2/8/4 9/7/5 12/14/5 4/9/4
f 4/9/6 12/14/7 15/15/7 3/16/6
f 23/17/8 19/18/8 28/18/9 30/17/9
f 18/19/10 21/20/10 32/20/11 25/19/11
f 22/11/1 17/1/1 6/4/1 14/12/1
f 21/20/12 23/17/12 30/17/13 32/20/13
f 20/2/1 24/10/1 11/13/1 8/3/1
f 6/4/14 8/3/14 10/21/15 7/22/15
f 7/23/15 10/24/15 9/7/3 5/6/3
f 8/3/16 11/13/16 13/25/17 10/26/17
f 10/27/17 13/28/17 12/14/5 9/7/5
f 11/13/18 14/12/18 16/29/19 13/30/19
f 13/30/19 16/29/19 15/15/7 12/14/7
f 14/12/20 6/4/20 7/31/21 16/32/21
f 16/33/21 7/34/21 5/35/22 15/15/22
f 3/16/23 15/15/22 5/35/22 1/36/23
f 18/19/24 19/18/24 20/2/25 17/1/25
f 19/18/8 23/17/8 24/10/26 20/2/26
f 23/17/12 21/20/12 22/11/27 24/10/27
f 21/20/10 18/19/10 17/1/28 22/11/28
f 29/37/1 27/38/1 26/39/1 31/40/1
f 26/39/29 27/38/29 28/18/30 25/19/30
f 27/38/31 29/37/31 30/17/9 28/18/9
f 29/37/32 31/40/32 32/20/13 30/17/13
f 31/40/33 26/39/33 25/19/11 32/20/11
f 19/18/24 18/19/24 25/19/30 28/18/30
f 33/41/34 35/9/34 36/16/34 34/42/34
f 4/9/6 3/16/6 36/16/6 35/9/6
f 1/5/2 2/8/2 33/8/2 34/5/2
f 3/16/23 1/36/23 34/36/23 36/16/23
