# Blender 4.3.1
# www.blender.org
mtllib Cube.046_export.mtl
o Cube.046_export
v -0.077907 -0.034757 0.014154
v -0.079506 0.030924 0.014154
v -0.077907 -0.034757 -0.014154
v -0.079506 0.030924 -0.014154
v 0.079506 -0.030924 0.014154
v 0.077907 0.034757 0.014154
v 0.079506 -0.030924 -0.014154
v 0.077907 0.034757 -0.014154
v -0.087551 -0.029466 -0.011774
v -0.087551 -0.029466 0.011774
v -0.088881 0.025170 0.011774
v -0.088881 0.025170 -0.011774
v 0.087551 0.029466 -0.011774
v 0.088881 -0.025170 -0.011774
v 0.088881 -0.025170 0.011774
v 0.087551 0.029466 0.011774
v -0.092036 -0.019638 -0.007494
v -0.092036 -0.019638 0.007494
v -0.092883 0.015136 0.007494
v -0.092883 0.015136 -0.007494
v 0.092036 0.019638 -0.007494
v 0.092883 -0.015136 -0.007494
v 0.092883 -0.015136 0.007494
v 0.092036 0.019638 0.007494
v -0.095739 0.089677 0.014154
v -0.097338 0.155359 0.014154
v -0.095739 0.089677 -0.014154
v -0.097338 0.155359 -0.014154
v 0.061674 0.093510 0.014154
v 0.060075 0.159191 0.014154
v 0.061674 0.093510 -0.014154
v 0.060075 0.159191 -0.014154
v -0.105383 0.094969 -0.011774
v -0.105383 0.094969 0.011774
v -0.106713 0.149604 0.011774
v -0.106713 0.149604 -0.011774
v 0.069719 0.153900 -0.011774
v 0.071049 0.099264 -0.011774
v 0.071049 0.099264 0.011774
v 0.069719 0.153900 0.011774
v -0.109868 0.104796 -0.007494
v -0.109868 0.104796 0.007494
v -0.110714 0.139570 0.007494
v -0.110714 0.139570 -0.007494
v 0.074204 0.144072 -0.007494
v 0.075051 0.109298 -0.007494
v 0.075051 0.109298 0.007494
v 0.074204 0.144072 0.007494
v -0.113571 0.214111 0.014154
v -0.115170 0.279793 0.014154
v -0.113571 0.214111 -0.014154
v -0.115170 0.279793 -0.014154
v 0.043843 0.217944 0.014154
v 0.042243 0.283625 0.014154
v 0.043843 0.217944 -0.014154
v 0.042243 0.283625 -0.014154
v -0.123215 0.219403 -0.011774
v -0.123215 0.219403 0.011774
v -0.124545 0.274038 0.011774
v -0.124545 0.274038 -0.011774
v 0.051887 0.278334 -0.011774
v 0.053217 0.223698 -0.011774
v 0.053217 0.223698 0.011774
v 0.051887 0.278334 0.011774
v -0.127700 0.229230 -0.007494
v -0.127700 0.229230 0.007494
v -0.128546 0.264004 0.007494
v -0.128546 0.264004 -0.007494
v 0.056372 0.268507 -0.007494
v 0.057219 0.233733 -0.007494
v 0.057219 0.233733 0.007494
v 0.056372 0.268507 0.007494
v -0.131403 0.338546 0.014154
v -0.133002 0.404227 0.014154
v -0.131403 0.338546 -0.014154
v -0.133002 0.404227 -0.014154
v 0.026011 0.342378 0.014154
v 0.024411 0.408059 0.014154
v 0.026011 0.342378 -0.014154
v 0.024411 0.408059 -0.014154
v -0.141047 0.343837 -0.011774
v -0.141047 0.343837 0.011774
v -0.142377 0.398472 0.011774
v -0.142377 0.398472 -0.011774
v 0.034055 0.402768 -0.011774
v 0.035385 0.348133 -0.011774
v 0.035385 0.348133 0.011774
v 0.034055 0.402768 0.011774
v -0.145532 0.353665 -0.007494
v -0.145532 0.353665 0.007494
v -0.146378 0.388438 0.007494
v -0.146378 0.388438 -0.007494
v 0.038540 0.392941 -0.007494
v 0.039387 0.358167 -0.007494
v 0.039387 0.358167 0.007494
v 0.038540 0.392941 0.007494
v -0.149235 0.462980 0.014154
v -0.150834 0.528661 0.014154
v -0.149235 0.462980 -0.014154
v -0.150834 0.528661 -0.014154
v 0.008179 0.466812 0.014154
v 0.006580 0.532494 0.014154
v 0.008179 0.466812 -0.014154
v 0.006580 0.532494 -0.014154
v -0.158878 0.468271 -0.011774
v -0.158878 0.468271 0.011774
v -0.160209 0.522906 0.011774
v -0.160209 0.522906 -0.011774
v 0.016223 0.527202 -0.011774
v 0.017553 0.472567 -0.011774
v 0.017553 0.472567 0.011774
v 0.016223 0.527202 0.011774
v -0.163364 0.478099 -0.007494
v -0.163364 0.478099 0.007494
v -0.164210 0.512873 0.007494
v -0.164210 0.512873 -0.007494
v 0.020709 0.517375 -0.007494
v 0.021555 0.482601 -0.007494
v 0.021555 0.482601 0.007494
v 0.020709 0.517375 0.007494
v -0.167066 0.587414 0.014154
v -0.168666 0.653095 0.014154
v -0.167066 0.587414 -0.014154
v -0.168666 0.653095 -0.014154
v -0.009653 0.591247 0.014154
v -0.011252 0.656928 0.014154
v -0.009653 0.591247 -0.014154
v -0.011252 0.656928 -0.014154
v -0.176710 0.592706 -0.011774
v -0.176710 0.592706 0.011774
v -0.178041 0.647341 0.011774
v -0.178041 0.647341 -0.011774
v -0.001609 0.651636 -0.011774
v -0.000279 0.597001 -0.011774
v -0.000279 0.597001 0.011774
v -0.001609 0.651636 0.011774
v -0.181195 0.602533 -0.007494
v -0.181195 0.602533 0.007494
v -0.182042 0.637307 0.007494
v -0.182042 0.637307 -0.007494
v 0.002877 0.641809 -0.007494
v 0.003723 0.607035 -0.007494
v 0.003723 0.607035 0.007494
v 0.002877 0.641809 0.007494
v -0.184898 0.711848 0.014154
v -0.186498 0.777530 0.014154
v -0.184898 0.711848 -0.014154
v -0.186498 0.777530 -0.014154
v -0.027485 0.715681 0.014154
v -0.029084 0.781362 0.014154
v -0.027485 0.715681 -0.014154
v -0.029084 0.781362 -0.014154
v -0.194542 0.717140 -0.011774
v -0.194542 0.717140 0.011774
v -0.195872 0.771775 0.011774
v -0.195872 0.771775 -0.011774
v -0.019441 0.776071 -0.011774
v -0.018110 0.721435 -0.011774
v -0.018110 0.721435 0.011774
v -0.019441 0.776071 0.011774
v -0.199027 0.726967 -0.007494
v -0.199027 0.726967 0.007494
v -0.199874 0.761741 0.007494
v -0.199874 0.761741 -0.007494
v -0.014955 0.766243 -0.007494
v -0.014109 0.731469 -0.007494
v -0.014109 0.731469 0.007494
v -0.014955 0.766243 0.007494
v -0.202730 0.836283 0.014154
v -0.204329 0.901964 0.014154
v -0.202730 0.836283 -0.014154
v -0.204329 0.901964 -0.014154
v -0.045317 0.840115 0.014154
v -0.046916 0.905796 0.014154
v -0.045317 0.840115 -0.014154
v -0.046916 0.905796 -0.014154
v -0.212374 0.841574 -0.011774
v -0.212374 0.841574 0.011774
v -0.213704 0.896209 0.011774
v -0.213704 0.896209 -0.011774
v -0.037273 0.900505 -0.011774
v -0.035942 0.845870 -0.011774
v -0.035942 0.845870 0.011774
v -0.037273 0.900505 0.011774
v -0.216859 0.851401 -0.007494
v -0.216859 0.851401 0.007494
v -0.217706 0.886175 0.007494
v -0.217706 0.886175 -0.007494
v -0.032787 0.890678 -0.007494
v -0.031941 0.855903 -0.007494
v -0.031941 0.855903 0.007494
v -0.032787 0.890678 0.007494
v -0.220562 0.960717 0.014154
v -0.222161 1.026398 0.014154
v -0.220562 0.960717 -0.014154
v -0.222161 1.026398 -0.014154
v -0.063149 0.964549 0.014154
v -0.064748 1.030231 0.014154
v -0.063149 0.964549 -0.014154
v -0.064748 1.030231 -0.014154
v -0.230206 0.966008 -0.011774
v -0.230206 0.966008 0.011774
v -0.231536 1.020644 0.011774
v -0.231536 1.020644 -0.011774
v -0.055104 1.024939 -0.011774
v -0.053774 0.970304 -0.011774
v -0.053774 0.970304 0.011774
v -0.055104 1.024939 0.011774
v -0.234691 0.975835 -0.007494
v -0.234691 0.975835 0.007494
v -0.235538 1.010610 0.007494
v -0.235538 1.010610 -0.007494
v -0.050619 1.015112 -0.007494
v -0.049772 0.980338 -0.007494
v -0.049772 0.980338 0.007494
v -0.050619 1.015112 0.007494
v -0.238394 1.085151 0.014154
v -0.239993 1.150832 0.014154
v -0.238394 1.085151 -0.014154
v -0.239993 1.150832 -0.014154
v -0.080981 1.088984 0.014154
v -0.082580 1.154665 0.014154
v -0.080981 1.088984 -0.014154
v -0.082580 1.154665 -0.014154
v -0.248038 1.090442 -0.011774
v -0.248038 1.090442 0.011774
v -0.249368 1.145078 0.011774
v -0.249368 1.145078 -0.011774
v -0.072936 1.149373 -0.011774
v -0.071606 1.094738 -0.011774
v -0.071606 1.094738 0.011774
v -0.072936 1.149373 0.011774
v -0.252523 1.100270 -0.007494
v -0.252523 1.100270 0.007494
v -0.253370 1.135044 0.007494
v -0.253370 1.135044 -0.007494
v -0.068451 1.139546 -0.007494
v -0.067604 1.104772 -0.007494
v -0.067604 1.104772 0.007494
v -0.068451 1.139546 0.007494
v -0.256226 1.209585 0.014154
v -0.257825 1.275266 0.014154
v -0.256226 1.209585 -0.014154
v -0.257825 1.275266 -0.014154
v -0.098812 1.213418 0.014154
v -0.100412 1.279099 0.014154
v -0.098812 1.213418 -0.014154
v -0.100412 1.279099 -0.014154
v -0.265870 1.214876 -0.011774
v -0.265870 1.214876 0.011774
v -0.267200 1.269512 0.011774
v -0.267200 1.269512 -0.011774
v -0.090768 1.273808 -0.011774
v -0.089438 1.219172 -0.011774
v -0.089438 1.219172 0.011774
v -0.090768 1.273808 0.011774
v -0.270355 1.224704 -0.007494
v -0.270355 1.224704 0.007494
v -0.271202 1.259478 0.007494
v -0.271202 1.259478 -0.007494
v -0.086283 1.263980 -0.007494
v -0.085436 1.229206 -0.007494
v -0.085436 1.229206 0.007494
v -0.086283 1.263980 0.007494
v -0.274058 1.334019 0.014154
v -0.275657 1.399701 0.014154
v -0.274058 1.334019 -0.014154
v -0.275657 1.399701 -0.014154
v -0.116645 1.337852 0.014154
v -0.118244 1.403533 0.014154
v -0.116645 1.337852 -0.014154
v -0.118244 1.403533 -0.014154
v -0.283702 1.339311 -0.011774
v -0.283702 1.339311 0.011774
v -0.285032 1.393946 0.011774
v -0.285032 1.393946 -0.011774
v -0.108600 1.398242 -0.011774
v -0.107270 1.343606 -0.011774
v -0.107270 1.343606 0.011774
v -0.108600 1.398242 0.011774
v -0.288187 1.349138 -0.007494
v -0.288187 1.349138 0.007494
v -0.289033 1.383912 0.007494
v -0.289033 1.383912 -0.007494
v -0.104115 1.388414 -0.007494
v -0.103268 1.353640 -0.007494
v -0.103268 1.353640 0.007494
v -0.104115 1.388414 0.007494
vn -0.5231 0.8522 -0.0000
vn -0.0000 -0.0000 -1.0000
vn 0.2427 0.0059 -0.9701
vn -0.0000 -0.0000 1.0000
vn 0.0243 -0.9997 -0.0000
vn -0.0243 0.9997 -0.0000
vn -0.7098 -0.0173 -0.7042
vn 0.9289 -0.3705 -0.0000
vn -0.4810 -0.8767 -0.0000
vn 0.2427 0.0059 0.9701
vn 0.5231 -0.8522 -0.0000
vn -0.2427 -0.0059 -0.9701
vn -0.2427 -0.0059 0.9701
vn 0.4810 0.8767 -0.0000
vn -0.9997 -0.0243 -0.0000
vn 0.9997 0.0243 -0.0000
vn -0.7098 -0.0173 0.7042
vn 0.9097 0.4152 -0.0000
vn 0.7098 0.0173 -0.7042
vn -0.9289 0.3705 -0.0000
vn -0.9097 -0.4152 -0.0000
vn 0.7098 0.0173 0.7042
vn -0.5231 0.8523 -0.0000
vn -0.7099 -0.0173 -0.7041
vn 0.9289 -0.3704 -0.0000
vn 0.5231 -0.8523 -0.0000
vn -0.7099 -0.0173 0.7041
vn -0.9289 0.3704 -0.0000
vn -0.5232 0.8522 -0.0000
vn 0.7098 0.0173 -0.7041
vn 0.7098 0.0173 0.7041
vn 0.5232 -0.8522 -0.0000
vt 0.875000 0.750000
vt 0.875000 0.500000
vt 0.375000 0.250000
vt 0.625000 0.250000
vt 0.625000 0.500000
vt 0.375000 0.500000
vt 0.375000 0.750000
vt 0.625000 0.750000
vt 0.625000 1.000000
vt 0.375000 1.000000
vt 0.125000 0.500000
vt 0.125000 0.750000
vt 0.375000 0.000000
vt 0.625000 0.000000
s 1
usemtl Material.007
f 2/1/1 4/2/1 12/2/1 11/1/1
f 3/3/2 4/4/2 8/5/2 7/6/2
f 7/6/3 8/5/3 13/5/3 14/6/3
f 5/7/4 6/8/4 2/9/4 1/10/4
f 3/11/5 7/6/5 5/7/5 1/12/5
f 8/5/6 4/2/6 2/1/6 6/8/6
f 12/4/7 9/3/7 17/3/7 20/4/7
f 15/7/8 14/6/8 22/6/8 23/7/8
f 3/11/9 1/12/9 10/12/9 9/11/9
f 6/8/10 5/7/10 15/7/10 16/8/10
f 5/7/11 7/6/11 14/6/11 15/7/11
f 4/4/12 3/3/12 9/3/12 12/4/12
f 1/10/13 2/9/13 11/9/13 10/10/13
f 8/5/14 6/8/14 16/8/14 13/5/14
f 18/13/15 19/14/15 20/4/15 17/3/15
f 22/6/16 21/5/16 24/8/16 23/7/16
f 10/10/17 11/9/17 19/9/17 18/10/17
f 13/5/18 16/8/18 24/8/18 21/5/18
f 14/6/19 13/5/19 21/5/19 22/6/19
f 11/1/20 12/2/20 20/2/20 19/1/20
f 9/11/21 10/12/21 18/12/21 17/11/21
f 16/8/22 15/7/22 23/7/22 24/8/22
f 26/1/23 28/2/23 36/2/23 35/1/23
f 27/3/2 28/4/2 32/5/2 31/6/2
f 31/6/3 32/5/3 37/5/3 38/6/3
f 29/7/4 30/8/4 26/9/4 25/10/4
f 27/11/5 31/6/5 29/7/5 25/12/5
f 32/5/6 28/2/6 26/1/6 30/8/6
f 36/4/24 33/3/24 41/3/24 44/4/24
f 39/7/25 38/6/25 46/6/25 47/7/25
f 27/11/9 25/12/9 34/12/9 33/11/9
f 30/8/10 29/7/10 39/7/10 40/8/10
f 29/7/26 31/6/26 38/6/26 39/7/26
f 28/4/12 27/3/12 33/3/12 36/4/12
f 25/10/13 26/9/13 35/9/13 34/10/13
f 32/5/14 30/8/14 40/8/14 37/5/14
f 42/13/15 43/14/15 44/4/15 41/3/15
f 46/6/16 45/5/16 48/8/16 47/7/16
f 34/10/27 35/9/27 43/9/27 42/10/27
f 37/5/18 40/8/18 48/8/18 45/5/18
f 38/6/19 37/5/19 45/5/19 46/6/19
f 35/1/28 36/2/28 44/2/28 43/1/28
f 33/11/21 34/12/21 42/12/21 41/11/21
f 40/8/22 39/7/22 47/7/22 48/8/22
f 50/1/23 52/2/23 60/2/23 59/1/23
f 51/3/2 52/4/2 56/5/2 55/6/2
f 55/6/3 56/5/3 61/5/3 62/6/3
f 53/7/4 54/8/4 50/9/4 49/10/4
f 51/11/5 55/6/5 53/7/5 49/12/5
f 56/5/6 52/2/6 50/1/6 54/8/6
f 60/4/7 57/3/7 65/3/7 68/4/7
f 63/7/25 62/6/25 70/6/25 71/7/25
f 51/11/9 49/12/9 58/12/9 57/11/9
f 54/8/10 53/7/10 63/7/10 64/8/10
f 53/7/26 55/6/26 62/6/26 63/7/26
f 52/4/12 51/3/12 57/3/12 60/4/12
f 49/10/13 50/9/13 59/9/13 58/10/13
f 56/5/14 54/8/14 64/8/14 61/5/14
f 66/13/15 67/14/15 68/4/15 65/3/15
f 70/6/16 69/5/16 72/8/16 71/7/16
f 58/10/17 59/9/17 67/9/17 66/10/17
f 61/5/18 64/8/18 72/8/18 69/5/18
f 62/6/19 61/5/19 69/5/19 70/6/19
f 59/1/28 60/2/28 68/2/28 67/1/28
f 57/11/21 58/12/21 66/12/21 65/11/21
f 64/8/22 63/7/22 71/7/22 72/8/22
f 74/1/1 76/2/1 84/2/1 83/1/1
f 75/3/2 76/4/2 80/5/2 79/6/2
f 79/6/3 80/5/3 85/5/3 86/6/3
f 77/7/4 78/8/4 74/9/4 73/10/4
f 75/11/5 79/6/5 77/7/5 73/12/5
f 80/5/6 76/2/6 74/1/6 78/8/6
f 84/4/24 81/3/24 89/3/24 92/4/24
f 87/7/8 86/6/8 94/6/8 95/7/8
f 75/11/9 73/12/9 82/12/9 81/11/9
f 78/8/10 77/7/10 87/7/10 88/8/10
f 77/7/11 79/6/11 86/6/11 87/7/11
f 76/4/12 75/3/12 81/3/12 84/4/12
f 73/10/13 74/9/13 83/9/13 82/10/13
f 80/5/14 78/8/14 88/8/14 85/5/14
f 90/13/15 91/14/15 92/4/15 89/3/15
f 94/6/16 93/5/16 96/8/16 95/7/16
f 82/10/27 83/9/27 91/9/27 90/10/27
f 85/5/18 88/8/18 96/8/18 93/5/18
f 86/6/19 85/5/19 93/5/19 94/6/19
f 83/1/28 84/2/28 92/2/28 91/1/28
f 81/11/21 82/12/21 90/12/21 89/11/21
f 88/8/22 87/7/22 95/7/22 96/8/22
f 98/1/29 100/2/29 108/2/29 107/1/29
f 99/3/2 100/4/2 104/5/2 103/6/2
f 103/6/3 104/5/3 109/5/3 110/6/3
f 101/7/4 102/8/4 98/9/4 97/10/4
f 99/11/5 103/6/5 101/7/5 97/12/5
f 104/5/6 100/2/6 98/1/6 102/8/6
f 108/4/7 105/3/7 113/3/7 116/4/7
f 111/7/25 110/6/25 118/6/25 119/7/25
f 99/11/9 97/12/9 106/12/9 105/11/9
f 102/8/10 101/7/10 111/7/10 112/8/10
f 101/7/11 103/6/11 110/6/11 111/7/11
f 100/4/12 99/3/12 105/3/12 108/4/12
f 97/10/13 98/9/13 107/9/13 106/10/13
f 104/5/14 102/8/14 112/8/14 109/5/14
f 114/13/15 115/14/15 116/4/15 113/3/15
f 118/6/16 117/5/16 120/8/16 119/7/16
f 106/10/17 107/9/17 115/9/17 114/10/17
f 109/5/18 112/8/18 120/8/18 117/5/18
f 110/6/19 109/5/19 117/5/19 118/6/19
f 107/1/28 108/2/28 116/2/28 115/1/28
f 105/11/21 106/12/21 114/12/21 113/11/21
f 112/8/22 111/7/22 119/7/22 120/8/22
f 122/1/23 124/2/23 132/2/23 131/1/23
f 123/3/2 124/4/2 128/5/2 127/6/2
f 127/6/3 128/5/3 133/5/3 134/6/3
f 125/7/4 126/8/4 122/9/4 121/10/4
f 123/11/5 127/6/5 125/7/5 121/12/5
f 128/5/6 124/2/6 122/1/6 126/8/6
f 132/4/24 129/3/24 137/3/24 140/4/24
f 135/7/25 134/6/25 142/6/25 143/7/25
f 123/11/9 121/12/9 130/12/9 129/11/9
f 126/8/10 125/7/10 135/7/10 136/8/10
f 125/7/26 127/6/26 134/6/26 135/7/26
f 124/4/12 123/3/12 129/3/12 132/4/12
f 121/10/13 122/9/13 131/9/13 130/10/13
f 128/5/14 126/8/14 136/8/14 133/5/14
f 138/13/15 139/14/15 140/4/15 137/3/15
f 142/6/16 141/5/16 144/8/16 143/7/16
f 130/10/27 131/9/27 139/9/27 138/10/27
f 133/5/18 136/8/18 144/8/18 141/5/18
f 134/6/19 133/5/19 141/5/19 142/6/19
f 131/1/28 132/2/28 140/2/28 139/1/28
f 129/11/21 130/12/21 138/12/21 137/11/21
f 136/8/22 135/7/22 143/7/22 144/8/22
f 146/1/29 148/2/29 156/2/29 155/1/29
f 147/3/2 148/4/2 152/5/2 151/6/2
f 151/6/3 152/5/3 157/5/3 158/6/3
f 149/7/4 150/8/4 146/9/4 145/10/4
f 147/11/5 151/6/5 149/7/5 145/12/5
f 152/5/6 148/2/6 146/1/6 150/8/6
f 156/4/7 153/3/7 161/3/7 164/4/7
f 159/7/25 158/6/25 166/6/25 167/7/25
f 147/11/9 145/12/9 154/12/9 153/11/9
f 150/8/10 149/7/10 159/7/10 160/8/10
f 149/7/26 151/6/26 158/6/26 159/7/26
f 148/4/12 147/3/12 153/3/12 156/4/12
f 145/10/13 146/9/13 155/9/13 154/10/13
f 152/5/14 150/8/14 160/8/14 157/5/14
f 162/13/15 163/14/15 164/4/15 161/3/15
f 166/6/16 165/5/16 168/8/16 167/7/16
f 154/10/17 155/9/17 163/9/17 162/10/17
f 157/5/18 160/8/18 168/8/18 165/5/18
f 158/6/30 157/5/30 165/5/30 166/6/30
f 155/1/28 156/2/28 164/2/28 163/1/28
f 153/11/21 154/12/21 162/12/21 161/11/21
f 160/8/31 159/7/31 167/7/31 168/8/31
f 170/1/1 172/2/1 180/2/1 179/1/1
f 171/3/2 172/4/2 176/5/2 175/6/2
f 175/6/3 176/5/3 181/5/3 182/6/3
f 173/7/4 174/8/4 170/9/4 169/10/4
f 171/11/5 175/6/5 173/7/5 169/12/5
f 176/5/6 172/2/6 170/1/6 174/8/6
f 180/4/24 177/3/24 185/3/24 188/4/24
f 183/7/25 182/6/25 190/6/25 191/7/25
f 171/11/9 169/12/9 178/12/9 177/11/9
f 174/8/10 173/7/10 183/7/10 184/8/10
f 173/7/11 175/6/11 182/6/11 183/7/11
f 172/4/12 171/3/12 177/3/12 180/4/12
f 169/10/13 170/9/13 179/9/13 178/10/13
f 176/5/14 174/8/14 184/8/14 181/5/14
f 186/13/15 187/14/15 188/4/15 185/3/15
f 190/6/16 189/5/16 192/8/16 191/7/16
f 178/10/27 179/9/27 187/9/27 186/10/27
f 181/5/18 184/8/18 192/8/18 189/5/18
f 182/6/19 181/5/19 189/5/19 190/6/19
f 179/1/28 180/2/28 188/2/28 187/1/28
f 177/11/21 178/12/21 186/12/21 185/11/21
f 184/8/22 183/7/22 191/7/22 192/8/22
f 194/1/23 196/2/23 204/2/23 203/1/23
f 195/3/2 196/4/2 200/5/2 199/6/2
f 199/6/3 200/5/3 205/5/3 206/6/3
f 197/7/4 198/8/4 194/9/4 193/10/4
f 195/11/5 199/6/5 197/7/5 193/12/5
f 200/5/6 196/2/6 194/1/6 198/8/6
f 204/4/7 201/3/7 209/3/7 212/4/7
f 207/7/25 206/6/25 214/6/25 215/7/25
f 195/11/9 193/12/9 202/12/9 201/11/9
f 198/8/10 197/7/10 207/7/10 208/8/10
f 197/7/11 199/6/11 206/6/11 207/7/11
f 196/4/12 195/3/12 201/3/12 204/4/12
f 193/10/13 194/9/13 203/9/13 202/10/13
f 200/5/14 198/8/14 208/8/14 205/5/14
f 210/13/15 211/14/15 212/4/15 209/3/15
f 214/6/16 213/5/16 216/8/16 215/7/16
f 202/10/17 203/9/17 211/9/17 210/10/17
f 205/5/18 208/8/18 216/8/18 213/5/18
f 206/6/19 205/5/19 213/5/19 214/6/19
f 203/1/28 204/2/28 212/2/28 211/1/28
f 201/11/21 202/12/21 210/12/21 209/11/21
f 208/8/22 207/7/22 215/7/22 216/8/22
f 218/1/23 220/2/23 228/2/23 227/1/23
f 219/3/2 220/4/2 224/5/2 223/6/2
f 223/6/3 224/5/3 229/5/3 230/6/3
f 221/7/4 222/8/4 218/9/4 217/10/4
f 219/11/5 223/6/5 221/7/5 217/12/5
f 224/5/6 220/2/6 218/1/6 222/8/6
f 228/4/24 225/3/24 233/3/24 236/4/24
f 231/7/25 230/6/25 238/6/25 239/7/25
f 219/11/9 217/12/9 226/12/9 225/11/9
f 222/8/10 221/7/10 231/7/10 232/8/10
f 221/7/26 223/6/26 230/6/26 231/7/26
f 220/4/12 219/3/12 225/3/12 228/4/12
f 217/10/13 218/9/13 227/9/13 226/10/13
f 224/5/14 222/8/14 232/8/14 229/5/14
f 234/13/15 235/14/15 236/4/15 233/3/15
f 238/6/16 237/5/16 240/8/16 239/7/16
f 226/10/27 227/9/27 235/9/27 234/10/27
f 229/5/18 232/8/18 240/8/18 237/5/18
f 230/6/19 229/5/19 237/5/19 238/6/19
f 227/1/28 228/2/28 236/2/28 235/1/28
f 225/11/21 226/12/21 234/12/21 233/11/21
f 232/8/22 231/7/22 239/7/22 240/8/22
f 242/1/1 244/2/1 252/2/1 251/1/1
f 243/3/2 244/4/2 248/5/2 247/6/2
f 247/6/3 248/5/3 253/5/3 254/6/3
f 245/7/4 246/8/4 242/9/4 241/10/4
f 243/11/5 247/6/5 245/7/5 241/12/5
f 248/5/6 244/2/6 242/1/6 246/8/6
f 252/4/7 249/3/7 257/3/7 260/4/7
f 255/7/8 254/6/8 262/6/8 263/7/8
f 243/11/9 241/12/9 250/12/9 249/11/9
f 246/8/10 245/7/10 255/7/10 256/8/10
f 245/7/32 247/6/32 254/6/32 255/7/32
f 244/4/12 243/3/12 249/3/12 252/4/12
f 241/10/13 242/9/13 251/9/13 250/10/13
f 248/5/14 246/8/14 256/8/14 253/5/14
f 258/13/15 259/14/15 260/4/15 257/3/15
f 262/6/16 261/5/16 264/8/16 263/7/16
f 250/10/17 251/9/17 259/9/17 258/10/17
f 253/5/18 256/8/18 264/8/18 261/5/18
f 254/6/19 253/5/19 261/5/19 262/6/19
f 251/1/28 252/2/28 260/2/28 259/1/28
f 249/11/21 250/12/21 258/12/21 257/11/21
f 256/8/22 255/7/22 263/7/22 264/8/22
f 266/1/1 268/2/1 276/2/1 275/1/1
f 267/3/2 268/4/2 272/5/2 271/6/2
f 271/6/3 272/5/3 277/5/3 278/6/3
f 269/7/4 270/8/4 266/9/4 265/10/4
f 267/11/5 271/6/5 269/7/5 265/12/5
f 272/5/6 268/2/6 266/1/6 270/8/6
f 276/4/24 273/3/24 281/3/24 284/4/24
f 279/7/25 278/6/25 286/6/25 287/7/25
f 267/11/9 265/12/9 274/12/9 273/11/9
f 270/8/10 269/7/10 279/7/10 280/8/10
f 269/7/32 271/6/32 278/6/32 279/7/32
f 268/4/12 267/3/12 273/3/12 276/4/12
f 265/10/13 266/9/13 275/9/13 274/10/13
f 272/5/14 270/8/14 280/8/14 277/5/14
f 282/13/15 283/14/15 284/4/15 281/3/15
f 286/6/16 285/5/16 288/8/16 287/7/16
f 274/10/27 275/9/27 283/9/27 282/10/27
f 277/5/18 280/8/18 288/8/18 285/5/18
f 278/6/19 277/5/19 285/5/19 286/6/19
f 275/1/28 276/2/28 284/2/28 283/1/28
f 273/11/21 274/12/21 282/12/21 281/11/21
f 280/8/22 279/7/22 287/7/22 288/8/22
