# Blender 4.3.1
# www.blender.org
mtllib Cube.047_export.mtl
o Cube.047_export
v -0.413502 -0.074386 -0.074781
v -0.413994 -0.074386 0.072008
v -0.413502 0.074386 -0.074781
v -0.413994 0.074386 0.072008
v 0.413994 -0.074386 -0.072008
v 0.413502 -0.074386 0.074781
v 0.413994 0.074386 -0.072008
v 0.413502 0.074386 0.074781
v -0.463532 0.061876 -0.062605
v -0.463532 -0.061876 -0.062605
v -0.463941 -0.061876 0.059497
v -0.463941 0.061876 0.059497
v 0.463532 0.061876 0.062605
v 0.463941 0.061876 -0.059497
v 0.463941 -0.061876 -0.059497
v 0.463532 -0.061876 0.062605
v -0.485913 0.039382 -0.040486
v -0.485913 -0.039382 -0.040486
v -0.486174 -0.039382 0.037229
v -0.486174 0.039382 0.037229
v 0.485913 0.039382 0.040486
v 0.486174 0.039382 -0.037229
v 0.486174 -0.039382 -0.037229
v 0.485913 -0.039382 0.040486
v -0.414781 -0.074386 0.306869
v -0.415273 -0.074386 0.453658
v -0.414781 0.074386 0.306869
v -0.415273 0.074386 0.453658
v 0.412715 -0.074386 0.309642
v 0.412223 -0.074386 0.456431
v 0.412715 0.074386 0.309642
v 0.412223 0.074386 0.456431
v -0.464811 0.061876 0.319045
v -0.464811 -0.061876 0.319045
v -0.465220 -0.061876 0.441147
v -0.465220 0.061876 0.441147
v 0.462253 0.061876 0.444255
v 0.462662 0.061876 0.322153
v 0.462662 -0.061876 0.322153
v 0.462253 -0.061876 0.444255
v -0.487192 0.039382 0.341164
v -0.487192 -0.039382 0.341164
v -0.487453 -0.039382 0.418879
v -0.487453 0.039382 0.418879
v 0.484634 0.039382 0.422137
v 0.484895 0.039382 0.344421
v 0.484895 -0.039382 0.344421
v 0.484634 -0.039382 0.422137
v -0.416060 -0.074386 0.688519
v -0.416551 -0.074386 0.835308
v -0.416060 0.074386 0.688519
v -0.416551 0.074386 0.835308
v 0.411436 -0.074386 0.691292
v 0.410944 -0.074386 0.838081
v 0.411436 0.074386 0.691292
v 0.410944 0.074386 0.838081
v -0.466090 0.061876 0.700695
v -0.466090 -0.061876 0.700695
v -0.466499 -0.061876 0.822797
v -0.466499 0.061876 0.822797
v 0.460974 0.061876 0.825905
v 0.461383 0.061876 0.703803
v 0.461383 -0.061876 0.703803
v 0.460974 -0.061876 0.825905
v -0.488471 0.039382 0.722814
v -0.488471 -0.039382 0.722814
v -0.488732 -0.039382 0.800529
v -0.488732 0.039382 0.800529
v 0.483355 0.039382 0.803786
v 0.483616 0.039382 0.726071
v 0.483616 -0.039382 0.726071
v 0.483355 -0.039382 0.803786
v -0.417339 -0.074386 1.070169
v -0.417831 -0.074385 1.216958
v -0.417339 0.074386 1.070169
v -0.417831 0.074386 1.216958
v 0.410157 -0.074386 1.072942
v 0.409665 -0.074385 1.219731
v 0.410157 0.074386 1.072942
v 0.409665 0.074386 1.219731
v -0.467369 0.061876 1.082345
v -0.467369 -0.061876 1.082345
v -0.467778 -0.061876 1.204447
v -0.467778 0.061876 1.204447
v 0.459695 0.061876 1.207556
v 0.460104 0.061876 1.085453
v 0.460104 -0.061876 1.085453
v 0.459695 -0.061876 1.207556
v -0.489750 0.039382 1.104464
v -0.489750 -0.039382 1.104464
v -0.490011 -0.039382 1.182179
v -0.490011 0.039382 1.182179
v 0.482076 0.039382 1.185437
v 0.482337 0.039382 1.107721
v 0.482337 -0.039382 1.107721
v 0.482076 -0.039382 1.185437
v -0.418618 -0.074385 1.451819
v -0.419110 -0.074385 1.598608
v -0.418618 0.074386 1.451819
v -0.419110 0.074386 1.598608
v 0.408878 -0.074385 1.454593
v 0.408386 -0.074385 1.601381
v 0.408878 0.074386 1.454593
v 0.408386 0.074386 1.601381
v -0.468648 0.061876 1.463995
v -0.468648 -0.061876 1.463995
v -0.469057 -0.061876 1.586097
v -0.469057 0.061876 1.586097
v 0.458416 0.061876 1.589205
v 0.458825 0.061876 1.467103
v 0.458825 -0.061876 1.467103
v 0.458416 -0.061876 1.589205
v -0.491029 0.039382 1.486113
v -0.491029 -0.039382 1.486113
v -0.491290 -0.039382 1.563829
v -0.491290 0.039382 1.563829
v 0.480798 0.039382 1.567086
v 0.481058 0.039382 1.489372
v 0.481058 -0.039382 1.489372
v 0.480798 -0.039382 1.567086
v -0.419897 -0.074385 1.833470
v -0.420388 -0.074385 1.980258
v -0.419897 0.074386 1.833470
v -0.420388 0.074385 1.980258
v 0.407599 -0.074385 1.836242
v 0.407107 -0.074385 1.983031
v 0.407599 0.074386 1.836242
v 0.407107 0.074385 1.983031
v -0.469927 0.061876 1.845645
v -0.469927 -0.061876 1.845645
v -0.470336 -0.061876 1.967747
v -0.470336 0.061876 1.967747
v 0.457137 0.061876 1.970855
v 0.457546 0.061876 1.848753
v 0.457546 -0.061876 1.848753
v 0.457137 -0.061876 1.970855
v -0.492308 0.039382 1.867764
v -0.492308 -0.039382 1.867764
v -0.492569 -0.039382 1.945479
v -0.492569 0.039382 1.945479
v 0.479518 0.039382 1.948737
v 0.479779 0.039382 1.871022
v 0.479779 -0.039382 1.871022
v 0.479518 -0.039382 1.948737
v -0.421176 -0.074385 2.215119
v -0.421668 -0.074385 2.361908
v -0.421176 0.074385 2.215119
v -0.421668 0.074385 2.361908
v 0.406320 -0.074385 2.217892
v 0.405828 -0.074385 2.364681
v 0.406320 0.074385 2.217892
v 0.405828 0.074385 2.364681
v -0.471206 0.061876 2.227295
v -0.471206 -0.061876 2.227295
v -0.471615 -0.061876 2.349397
v -0.471615 0.061876 2.349397
v 0.455858 0.061876 2.352505
v 0.456267 0.061876 2.230403
v 0.456267 -0.061876 2.230403
v 0.455858 -0.061876 2.352505
v -0.493587 0.039382 2.249413
v -0.493587 -0.039382 2.249413
v -0.493848 -0.039382 2.327129
v -0.493848 0.039382 2.327129
v 0.478239 0.039382 2.330386
v 0.478500 0.039382 2.252672
v 0.478500 -0.039382 2.252672
v 0.478239 -0.039382 2.330386
v -0.422455 -0.074385 2.596769
v -0.422947 -0.074385 2.743558
v -0.422455 0.074385 2.596769
v -0.422947 0.074386 2.743558
v 0.405041 -0.074385 2.599543
v 0.404549 -0.074385 2.746331
v 0.405041 0.074385 2.599543
v 0.404549 0.074386 2.746331
v -0.472485 0.061876 2.608945
v -0.472485 -0.061876 2.608945
v -0.472894 -0.061876 2.731047
v -0.472894 0.061876 2.731047
v 0.454579 0.061876 2.734156
v 0.454988 0.061876 2.612053
v 0.454988 -0.061876 2.612053
v 0.454579 -0.061876 2.734156
v -0.494866 0.039383 2.631064
v -0.494866 -0.039382 2.631064
v -0.495127 -0.039382 2.708779
v -0.495127 0.039383 2.708779
v 0.476961 0.039383 2.712037
v 0.477221 0.039383 2.634321
v 0.477221 -0.039382 2.634321
v 0.476961 -0.039382 2.712037
v -0.423734 -0.074385 2.978419
v -0.424225 -0.074385 3.125208
v -0.423734 0.074386 2.978419
v -0.424225 0.074386 3.125208
v 0.403762 -0.074385 2.981192
v 0.403270 -0.074385 3.127981
v 0.403762 0.074386 2.981192
v 0.403270 0.074386 3.127981
v -0.473764 0.061876 2.990595
v -0.473764 -0.061876 2.990595
v -0.474173 -0.061876 3.112697
v -0.474173 0.061876 3.112697
v 0.453300 0.061876 3.115806
v 0.453709 0.061876 2.993703
v 0.453709 -0.061876 2.993703
v 0.453300 -0.061876 3.115806
v -0.496145 0.039383 3.012714
v -0.496145 -0.039382 3.012714
v -0.496406 -0.039382 3.090429
v -0.496406 0.039383 3.090429
v 0.475681 0.039383 3.093687
v 0.475942 0.039383 3.015971
v 0.475942 -0.039382 3.015971
v 0.475681 -0.039382 3.093687
vn -0.2430 -0.0000 0.9700
vn -0.0000 1.0000 -0.0000
vn 0.2428 0.9701 0.0008
vn -0.0000 -1.0000 -0.0000
vn 0.0034 -0.0000 -1.0000
vn -0.0034 -0.0000 1.0000
vn -0.7100 0.7042 -0.0024
vn 0.7077 -0.0000 -0.7065
vn -0.2365 -0.0000 -0.9716
vn 0.2428 -0.9701 0.0008
vn 0.2430 -0.0000 -0.9700
vn -0.2428 0.9701 -0.0008
vn -0.2428 -0.9701 -0.0008
vn 0.2365 -0.0000 0.9716
vn -1.0000 -0.0000 -0.0033
vn 1.0000 -0.0000 0.0033
vn -0.7100 -0.7042 -0.0024
vn 0.7029 -0.0000 0.7113
vn 0.7100 0.7042 0.0024
vn -0.7077 -0.0000 0.7065
vn -0.7029 -0.0000 -0.7113
vn 0.7100 -0.7042 0.0024
vn -1.0000 -0.0000 -0.0034
vn 1.0000 -0.0000 0.0034
vt 0.875000 0.750000
vt 0.875000 0.500000
vt 0.375000 0.250000
vt 0.625000 0.250000
vt 0.625000 0.500000
vt 0.375000 0.500000
vt 0.375000 0.750000
vt 0.625000 0.750000
vt 0.625000 1.000000
vt 0.375000 1.000000
vt 0.125000 0.500000
vt 0.125000 0.750000
vt 0.375000 0.000000
vt 0.625000 0.000000
s 1
usemtl Material.012
f 2/1/1 4/2/1 12/2/1 11/1/1
f 3/3/2 4/4/2 8/5/2 7/6/2
f 7/6/3 8/5/3 13/5/3 14/6/3
f 5/7/4 6/8/4 2/9/4 1/10/4
f 3/11/5 7/6/5 5/7/5 1/12/5
f 8/5/6 4/2/6 2/1/6 6/8/6
f 12/4/7 9/3/7 17/3/7 20/4/7
f 15/7/8 14/6/8 22/6/8 23/7/8
f 3/11/9 1/12/9 10/12/9 9/11/9
f 6/8/10 5/7/10 15/7/10 16/8/10
f 5/7/11 7/6/11 14/6/11 15/7/11
f 4/4/12 3/3/12 9/3/12 12/4/12
f 1/10/13 2/9/13 11/9/13 10/10/13
f 8/5/14 6/8/14 16/8/14 13/5/14
f 18/13/15 19/14/15 20/4/15 17/3/15
f 22/6/16 21/5/16 24/8/16 23/7/16
f 10/10/17 11/9/17 19/9/17 18/10/17
f 13/5/18 16/8/18 24/8/18 21/5/18
f 14/6/19 13/5/19 21/5/19 22/6/19
f 11/1/20 12/2/20 20/2/20 19/1/20
f 9/11/21 10/12/21 18/12/21 17/11/21
f 16/8/22 15/7/22 23/7/22 24/8/22
f 26/1/1 28/2/1 36/2/1 35/1/1
f 27/3/2 28/4/2 32/5/2 31/6/2
f 31/6/3 32/5/3 37/5/3 38/6/3
f 29/7/4 30/8/4 26/9/4 25/10/4
f 27/11/5 31/6/5 29/7/5 25/12/5
f 32/5/6 28/2/6 26/1/6 30/8/6
f 36/4/7 33/3/7 41/3/7 44/4/7
f 39/7/8 38/6/8 46/6/8 47/7/8
f 27/11/9 25/12/9 34/12/9 33/11/9
f 30/8/10 29/7/10 39/7/10 40/8/10
f 29/7/11 31/6/11 38/6/11 39/7/11
f 28/4/12 27/3/12 33/3/12 36/4/12
f 25/10/13 26/9/13 35/9/13 34/10/13
f 32/5/14 30/8/14 40/8/14 37/5/14
f 42/13/23 43/14/23 44/4/23 41/3/23
f 46/6/24 45/5/24 48/8/24 47/7/24
f 34/10/17 35/9/17 43/9/17 42/10/17
f 37/5/18 40/8/18 48/8/18 45/5/18
f 38/6/19 37/5/19 45/5/19 46/6/19
f 35/1/20 36/2/20 44/2/20 43/1/20
f 33/11/21 34/12/21 42/12/21 41/11/21
f 40/8/22 39/7/22 47/7/22 48/8/22
f 50/1/1 52/2/1 60/2/1 59/1/1
f 51/3/2 52/4/2 56/5/2 55/6/2
f 55/6/3 56/5/3 61/5/3 62/6/3
f 53/7/4 54/8/4 50/9/4 49/10/4
f 51/11/5 55/6/5 53/7/5 49/12/5
f 56/5/6 52/2/6 50/1/6 54/8/6
f 60/4/7 57/3/7 65/3/7 68/4/7
f 63/7/8 62/6/8 70/6/8 71/7/8
f 51/11/9 49/12/9 58/12/9 57/11/9
f 54/8/10 53/7/10 63/7/10 64/8/10
f 53/7/11 55/6/11 62/6/11 63/7/11
f 52/4/12 51/3/12 57/3/12 60/4/12
f 49/10/13 50/9/13 59/9/13 58/10/13
f 56/5/14 54/8/14 64/8/14 61/5/14
f 66/13/15 67/14/15 68/4/15 65/3/15
f 70/6/16 69/5/16 72/8/16 71/7/16
f 58/10/17 59/9/17 67/9/17 66/10/17
f 61/5/18 64/8/18 72/8/18 69/5/18
f 62/6/19 61/5/19 69/5/19 70/6/19
f 59/1/20 60/2/20 68/2/20 67/1/20
f 57/11/21 58/12/21 66/12/21 65/11/21
f 64/8/22 63/7/22 71/7/22 72/8/22
f 74/1/1 76/2/1 84/2/1 83/1/1
f 75/3/2 76/4/2 80/5/2 79/6/2
f 79/6/3 80/5/3 85/5/3 86/6/3
f 77/7/4 78/8/4 74/9/4 73/10/4
f 75/11/5 79/6/5 77/7/5 73/12/5
f 80/5/6 76/2/6 74/1/6 78/8/6
f 84/4/7 81/3/7 89/3/7 92/4/7
f 87/7/8 86/6/8 94/6/8 95/7/8
f 75/11/9 73/12/9 82/12/9 81/11/9
f 78/8/10 77/7/10 87/7/10 88/8/10
f 77/7/11 79/6/11 86/6/11 87/7/11
f 76/4/12 75/3/12 81/3/12 84/4/12
f 73/10/13 74/9/13 83/9/13 82/10/13
f 80/5/14 78/8/14 88/8/14 85/5/14
f 90/13/15 91/14/15 92/4/15 89/3/15
f 94/6/24 93/5/24 96/8/24 95/7/24
f 82/10/17 83/9/17 91/9/17 90/10/17
f 85/5/18 88/8/18 96/8/18 93/5/18
f 86/6/19 85/5/19 93/5/19 94/6/19
f 83/1/20 84/2/20 92/2/20 91/1/20
f 81/11/21 82/12/21 90/12/21 89/11/21
f 88/8/22 87/7/22 95/7/22 96/8/22
f 98/1/1 100/2/1 108/2/1 107/1/1
f 99/3/2 100/4/2 104/5/2 103/6/2
f 103/6/3 104/5/3 109/5/3 110/6/3
f 101/7/4 102/8/4 98/9/4 97/10/4
f 99/11/5 103/6/5 101/7/5 97/12/5
f 104/5/6 100/2/6 98/1/6 102/8/6
f 108/4/7 105/3/7 113/3/7 116/4/7
f 111/7/8 110/6/8 118/6/8 119/7/8
f 99/11/9 97/12/9 106/12/9 105/11/9
f 102/8/10 101/7/10 111/7/10 112/8/10
f 101/7/11 103/6/11 110/6/11 111/7/11
f 100/4/12 99/3/12 105/3/12 108/4/12
f 97/10/13 98/9/13 107/9/13 106/10/13
f 104/5/14 102/8/14 112/8/14 109/5/14
f 114/13/23 115/14/23 116/4/23 113/3/23
f 118/6/16 117/5/16 120/8/16 119/7/16
f 106/10/17 107/9/17 115/9/17 114/10/17
f 109/5/18 112/8/18 120/8/18 117/5/18
f 110/6/19 109/5/19 117/5/19 118/6/19
f 107/1/20 108/2/20 116/2/20 115/1/20
f 105/11/21 106/12/21 114/12/21 113/11/21
f 112/8/22 111/7/22 119/7/22 120/8/22
f 122/1/1 124/2/1 132/2/1 131/1/1
f 123/3/2 124/4/2 128/5/2 127/6/2
f 127/6/3 128/5/3 133/5/3 134/6/3
f 125/7/4 126/8/4 122/9/4 121/10/4
f 123/11/5 127/6/5 125/7/5 121/12/5
f 128/5/6 124/2/6 122/1/6 126/8/6
f 132/4/7 129/3/7 137/3/7 140/4/7
f 135/7/8 134/6/8 142/6/8 143/7/8
f 123/11/9 121/12/9 130/12/9 129/11/9
f 126/8/10 125/7/10 135/7/10 136/8/10
f 125/7/11 127/6/11 134/6/11 135/7/11
f 124/4/12 123/3/12 129/3/12 132/4/12
f 121/10/13 122/9/13 131/9/13 130/10/13
f 128/5/14 126/8/14 136/8/14 133/5/14
f 138/13/23 139/14/23 140/4/23 137/3/23
f 142/6/16 141/5/16 144/8/16 143/7/16
f 130/10/17 131/9/17 139/9/17 138/10/17
f 133/5/18 136/8/18 144/8/18 141/5/18
f 134/6/19 133/5/19 141/5/19 142/6/19
f 131/1/20 132/2/20 140/2/20 139/1/20
f 129/11/21 130/12/21 138/12/21 137/11/21
f 136/8/22 135/7/22 143/7/22 144/8/22
f 146/1/1 148/2/1 156/2/1 155/1/1
f 147/3/2 148/4/2 152/5/2 151/6/2
f 151/6/3 152/5/3 157/5/3 158/6/3
f 149/7/4 150/8/4 146/9/4 145/10/4
f 147/11/5 151/6/5 149/7/5 145/12/5
f 152/5/6 148/2/6 146/1/6 150/8/6
f 156/4/7 153/3/7 161/3/7 164/4/7
f 159/7/8 158/6/8 166/6/8 167/7/8
f 147/11/9 145/12/9 154/12/9 153/11/9
f 150/8/10 149/7/10 159/7/10 160/8/10
f 149/7/11 151/6/11 158/6/11 159/7/11
f 148/4/12 147/3/12 153/3/12 156/4/12
f 145/10/13 146/9/13 155/9/13 154/10/13
f 152/5/14 150/8/14 160/8/14 157/5/14
f 162/13/23 163/14/23 164/4/23 161/3/23
f 166/6/24 165/5/24 168/8/24 167/7/24
f 154/10/17 155/9/17 163/9/17 162/10/17
f 157/5/18 160/8/18 168/8/18 165/5/18
f 158/6/19 157/5/19 165/5/19 166/6/19
f 155/1/20 156/2/20 164/2/20 163/1/20
f 153/11/21 154/12/21 162/12/21 161/11/21
f 160/8/22 159/7/22 167/7/22 168/8/22
f 170/1/1 172/2/1 180/2/1 179/1/1
f 171/3/2 172/4/2 176/5/2 175/6/2
f 175/6/3 176/5/3 181/5/3 182/6/3
f 173/7/4 174/8/4 170/9/4 169/10/4
f 171/11/5 175/6/5 173/7/5 169/12/5
f 176/5/6 172/2/6 170/1/6 174/8/6
f 180/4/7 177/3/7 185/3/7 188/4/7
f 183/7/8 182/6/8 190/6/8 191/7/8
f 171/11/9 169/12/9 178/12/9 177/11/9
f 174/8/10 173/7/10 183/7/10 184/8/10
f 173/7/11 175/6/11 182/6/11 183/7/11
f 172/4/12 171/3/12 177/3/12 180/4/12
f 169/10/13 170/9/13 179/9/13 178/10/13
f 176/5/14 174/8/14 184/8/14 181/5/14
f 186/13/15 187/14/15 188/4/15 185/3/15
f 190/6/24 189/5/24 192/8/24 191/7/24
f 178/10/17 179/9/17 187/9/17 186/10/17
f 181/5/18 184/8/18 192/8/18 189/5/18
f 182/6/19 181/5/19 189/5/19 190/6/19
f 179/1/20 180/2/20 188/2/20 187/1/20
f 177/11/21 178/12/21 186/12/21 185/11/21
f 184/8/22 183/7/22 191/7/22 192/8/22
f 194/1/1 196/2/1 204/2/1 203/1/1
f 195/3/2 196/4/2 200/5/2 199/6/2
f 199/6/3 200/5/3 205/5/3 206/6/3
f 197/7/4 198/8/4 194/9/4 193/10/4
f 195/11/5 199/6/5 197/7/5 193/12/5
f 200/5/6 196/2/6 194/1/6 198/8/6
f 204/4/7 201/3/7 209/3/7 212/4/7
f 207/7/8 206/6/8 214/6/8 215/7/8
f 195/11/9 193/12/9 202/12/9 201/11/9
f 198/8/10 197/7/10 207/7/10 208/8/10
f 197/7/11 199/6/11 206/6/11 207/7/11
f 196/4/12 195/3/12 201/3/12 204/4/12
f 193/10/13 194/9/13 203/9/13 202/10/13
f 200/5/14 198/8/14 208/8/14 205/5/14
f 210/13/15 211/14/15 212/4/15 209/3/15
f 214/6/16 213/5/16 216/8/16 215/7/16
f 202/10/17 203/9/17 211/9/17 210/10/17
f 205/5/18 208/8/18 216/8/18 213/5/18
f 206/6/19 205/5/19 213/5/19 214/6/19
f 203/1/20 204/2/20 212/2/20 211/1/20
f 201/11/21 202/12/21 210/12/21 209/11/21
f 208/8/22 207/7/22 215/7/22 216/8/22
