# Blender 4.3.2
# www.blender.org
mtllib tv_box.mtl
o Cube.003_export.001
v -0.252269 0.336823 -0.190448
v -0.254754 0.254754 -0.343954
v -0.336823 0.252269 -0.190448
v -0.252695 0.327326 -0.306821
v -0.301181 0.325007 -0.188441
v -0.299580 0.317599 -0.303071
v -0.303418 0.252784 -0.330962
v -0.252784 0.303418 -0.330962
v -0.299651 0.299651 -0.321169
v -0.325007 0.301181 -0.188441
v -0.327326 0.252695 -0.306821
v -0.317599 0.299580 -0.303071
v 0.252269 0.336823 -0.190448
v 0.336823 0.252269 -0.190448
v 0.254754 0.254754 -0.343954
v 0.301181 0.325007 -0.188441
v 0.252695 0.327326 -0.306821
v 0.299580 0.317599 -0.303071
v 0.327326 0.252695 -0.306821
v 0.325007 0.301181 -0.188441
v 0.317599 0.299580 -0.303071
v 0.252784 0.303418 -0.330962
v 0.303418 0.252784 -0.330962
v 0.299651 0.299651 -0.321169
v -0.252269 -0.336823 -0.190448
v -0.336823 -0.252269 -0.190448
v -0.254754 -0.254754 -0.343954
v -0.301181 -0.325007 -0.188441
v -0.252695 -0.327326 -0.306821
v -0.299580 -0.317599 -0.303071
v -0.327326 -0.252695 -0.306821
v -0.325007 -0.301181 -0.188441
v -0.317599 -0.299580 -0.303071
v -0.252784 -0.303418 -0.330962
v -0.303418 -0.252784 -0.330962
v -0.299651 -0.299651 -0.321169
v 0.252269 -0.336823 -0.190448
v 0.254754 -0.254754 -0.343954
v 0.336823 -0.252269 -0.190448
v 0.252695 -0.327326 -0.306821
v 0.301181 -0.325007 -0.188441
v 0.299580 -0.317599 -0.303071
v 0.303418 -0.252784 -0.330962
v 0.252784 -0.303418 -0.330962
v 0.299651 -0.299651 -0.321169
v 0.325007 -0.301181 -0.188441
v 0.327326 -0.252695 -0.306821
v 0.317599 -0.299580 -0.303071
v -0.000000 0.343456 -0.196829
v -0.000000 0.335315 -0.313449
v -0.000000 0.310048 -0.339108
v -0.000000 0.260904 -0.354181
v -0.000000 -0.260904 -0.354181
v -0.000000 -0.310048 -0.339108
v -0.000000 -0.335315 -0.313449
v -0.000000 -0.343456 -0.196829
v 0.343456 0.000000 -0.196829
v 0.335315 0.000000 -0.313449
v 0.310048 0.000000 -0.339108
v 0.260904 -0.000000 -0.354181
v -0.343456 -0.000000 -0.196829
v -0.335315 0.000000 -0.313449
v -0.310048 0.000000 -0.339108
v -0.260904 -0.000000 -0.354181
v -0.000000 -0.000000 -0.369651
v -0.136187 0.333091 -0.311378
v -0.136253 0.307977 -0.336833
v -0.137568 0.258883 -0.351320
v -0.136253 -0.307977 -0.336833
v -0.136187 -0.333091 -0.311378
v -0.135497 -0.341776 -0.194730
v -0.135497 0.341776 -0.194730
v -0.137568 -0.258883 -0.351320
v -0.141899 -0.000000 -0.365035
v 0.135497 0.341776 -0.194730
v 0.137568 -0.258883 -0.351320
v 0.136187 0.333091 -0.311378
v 0.136253 0.307977 -0.336833
v 0.137568 0.258883 -0.351320
v 0.136253 -0.307977 -0.336833
v 0.136187 -0.333091 -0.311378
v 0.135497 -0.341776 -0.194730
v 0.141899 -0.000000 -0.365035
v 0.341776 -0.135497 -0.194730
v -0.333091 -0.136187 -0.311378
v -0.307977 -0.136253 -0.336833
v -0.258883 -0.137568 -0.351320
v -0.000000 -0.141899 -0.365035
v 0.333091 -0.136187 -0.311378
v 0.307977 -0.136253 -0.336833
v 0.258883 -0.137568 -0.351320
v -0.341776 -0.135497 -0.194730
v -0.140472 -0.140472 -0.361032
v 0.140472 -0.140472 -0.361032
v 0.333091 0.136187 -0.311378
v 0.307977 0.136253 -0.336833
v 0.258883 0.137568 -0.351320
v -0.341776 0.135497 -0.194730
v 0.341776 0.135497 -0.194730
v -0.333091 0.136187 -0.311378
v -0.307977 0.136253 -0.336833
v -0.258883 0.137568 -0.351320
v -0.000000 0.141899 -0.365035
v -0.140472 0.140472 -0.361032
v 0.140472 0.140472 -0.361032
v -0.246813 0.328789 0.180287
v -0.328789 0.246813 0.180287
v -0.244328 0.244328 0.328575
v -0.296639 0.320054 0.181965
v -0.246058 0.317735 0.297916
v -0.294236 0.311867 0.297662
v -0.317735 0.246058 0.297916
v -0.320054 0.296639 0.181965
v -0.311867 0.294236 0.297662
v -0.245970 0.294402 0.321015
v -0.294402 0.245970 0.321015
v -0.294166 0.294166 0.315214
v 0.246813 0.328789 0.180287
v 0.244328 0.244328 0.328575
v 0.328789 0.246813 0.180287
v 0.246058 0.317735 0.297916
v 0.296639 0.320054 0.181965
v 0.294236 0.311867 0.297662
v 0.294402 0.245970 0.321015
v 0.245970 0.294402 0.321015
v 0.294166 0.294166 0.315214
v 0.320054 0.296639 0.181965
v 0.317735 0.246058 0.297916
v 0.311867 0.294236 0.297662
v -0.246813 -0.328789 0.180287
v -0.244328 -0.244328 0.328575
v -0.328789 -0.246813 0.180287
v -0.246058 -0.317735 0.297916
v -0.296639 -0.320054 0.181965
v -0.294236 -0.311867 0.297661
v -0.294402 -0.245970 0.321015
v -0.245970 -0.294402 0.321015
v -0.294166 -0.294166 0.315214
v -0.320054 -0.296639 0.181965
v -0.317735 -0.246058 0.297916
v -0.311867 -0.294236 0.297661
v 0.246813 -0.328789 0.180287
v 0.328789 -0.246813 0.180287
v 0.244328 -0.244328 0.328575
v 0.296639 -0.320054 0.181965
v 0.246058 -0.317735 0.297916
v 0.294236 -0.311867 0.297661
v 0.317735 -0.246058 0.297916
v 0.320054 -0.296639 0.181965
v 0.311867 -0.294236 0.297661
v 0.245970 -0.294402 0.321015
v 0.294402 -0.245970 0.321015
v 0.294166 -0.294166 0.315214
v -0.000000 0.238261 0.321450
v -0.000000 0.288606 0.315489
v -0.000000 0.312366 0.292121
v -0.000000 0.325258 0.173988
v -0.000000 -0.325258 0.173988
v -0.000000 -0.312366 0.292121
v -0.000000 -0.288606 0.315489
v -0.000000 -0.238261 0.321450
v 0.238261 -0.000000 0.321450
v 0.288606 -0.000000 0.315489
v 0.312366 -0.000000 0.292121
v 0.325258 -0.000000 0.173988
v -0.238261 -0.000000 0.321450
v -0.288606 -0.000000 0.315489
v -0.312366 -0.000000 0.292121
v -0.325258 -0.000000 0.173988
v -0.000000 -0.000000 0.309097
v -0.129663 0.290676 0.317764
v -0.129729 0.314590 0.294192
v -0.130419 0.326939 0.176087
v -0.129729 -0.314590 0.294192
v -0.129663 -0.290676 0.317764
v -0.128348 -0.240281 0.324311
v -0.128348 0.240281 0.324311
v -0.130419 -0.326939 0.176087
v -0.124017 -0.000000 0.313713
v 0.128348 0.240281 0.324311
v 0.130419 -0.326939 0.176087
v 0.129663 0.290676 0.317764
v 0.129729 0.314590 0.294192
v 0.130419 0.326939 0.176087
v 0.129729 -0.314590 0.294192
v 0.129663 -0.290676 0.317764
v 0.128348 -0.240281 0.324311
v 0.124017 -0.000000 0.313713
v 0.240281 -0.128348 0.324311
v -0.290676 -0.129663 0.317764
v -0.314590 -0.129729 0.294192
v -0.326939 -0.130419 0.176087
v 0.290676 -0.129663 0.317764
v 0.314590 -0.129729 0.294192
v 0.326939 -0.130419 0.176087
v -0.240281 -0.128348 0.324311
v -0.000000 -0.124017 0.313713
v -0.125444 -0.125444 0.317716
v 0.125444 -0.125444 0.317716
v 0.290676 0.129663 0.317764
v 0.314590 0.129729 0.294192
v 0.326939 0.130419 0.176087
v -0.240281 0.128348 0.324311
v -0.000000 0.124017 0.313713
v 0.240281 0.128348 0.324311
v -0.290676 0.129663 0.317764
v -0.314590 0.129729 0.294192
v -0.326939 0.130419 0.176087
v -0.125444 0.125444 0.317716
v 0.125444 0.125444 0.317716
v -0.283477 0.332182 -0.189106
v -0.253028 0.334430 -0.280746
v -0.283314 0.323075 -0.304743
v -0.300966 0.322773 -0.278327
v -0.252537 0.316765 -0.320280
v -0.283400 0.301336 -0.326675
v -0.298721 0.310310 -0.313802
v -0.253451 0.285844 -0.338556
v -0.285844 0.253451 -0.338556
v -0.301336 0.283400 -0.326675
v -0.316765 0.252537 -0.320280
v -0.323075 0.283314 -0.304742
v -0.310310 0.298721 -0.313802
v -0.334430 0.253028 -0.280746
v -0.332182 0.283477 -0.189106
v -0.322773 0.300967 -0.278327
v -0.314567 0.314567 -0.188234
v -0.310272 0.310272 -0.302172
v 0.253028 0.334430 -0.280746
v 0.283477 0.332182 -0.189106
v 0.300967 0.322773 -0.278327
v 0.283314 0.323075 -0.304742
v 0.314567 0.314567 -0.188234
v 0.322773 0.300967 -0.278327
v 0.310272 0.310272 -0.302172
v 0.332182 0.283477 -0.189106
v 0.334430 0.253028 -0.280746
v 0.323075 0.283314 -0.304743
v 0.316765 0.252537 -0.320280
v 0.301336 0.283400 -0.326675
v 0.310310 0.298721 -0.313802
v 0.285844 0.253451 -0.338556
v 0.253451 0.285844 -0.338556
v 0.283400 0.301336 -0.326675
v 0.252537 0.316765 -0.320280
v 0.298721 0.310310 -0.313802
v -0.253028 -0.334430 -0.280746
v -0.283477 -0.332182 -0.189106
v -0.300967 -0.322773 -0.278327
v -0.283314 -0.323075 -0.304742
v -0.314567 -0.314567 -0.188234
v -0.322773 -0.300967 -0.278327
v -0.310272 -0.310272 -0.302172
v -0.332182 -0.283477 -0.189106
v -0.334430 -0.253028 -0.280746
v -0.323075 -0.283314 -0.304743
v -0.316765 -0.252537 -0.320280
v -0.301336 -0.283400 -0.326675
v -0.310310 -0.298721 -0.313802
v -0.285844 -0.253451 -0.338556
v -0.253451 -0.285844 -0.338556
v -0.283400 -0.301336 -0.326675
v -0.252537 -0.316765 -0.320280
v -0.298721 -0.310310 -0.313802
v 0.283477 -0.332182 -0.189106
v 0.253028 -0.334430 -0.280746
v 0.283314 -0.323075 -0.304743
v 0.300967 -0.322773 -0.278327
v 0.252537 -0.316765 -0.320280
v 0.283400 -0.301336 -0.326675
v 0.298721 -0.310310 -0.313802
v 0.253451 -0.285844 -0.338556
v 0.285844 -0.253451 -0.338556
v 0.301336 -0.283400 -0.326675
v 0.316765 -0.252537 -0.320280
v 0.323075 -0.283314 -0.304743
v 0.310310 -0.298721 -0.313802
v 0.334430 -0.253028 -0.280746
v 0.332182 -0.283477 -0.189106
v 0.322773 -0.300967 -0.278327
v 0.314567 -0.314567 -0.188234
v 0.310272 -0.310272 -0.302172
v 0.200258 0.339836 -0.192542
v -0.200946 0.330630 -0.309187
v -0.201029 0.305786 -0.334318
v -0.202716 0.256776 -0.348146
v 0.202716 -0.256776 -0.348146
v -0.201029 -0.305786 -0.334318
v -0.200946 -0.330630 -0.309187
v -0.200258 -0.339836 -0.192542
v 0.339835 -0.200258 -0.192542
v 0.330630 0.200946 -0.309187
v 0.305786 0.201029 -0.334318
v 0.256776 0.202716 -0.348146
v -0.339835 0.200258 -0.192542
v -0.330630 -0.200946 -0.309187
v -0.305786 -0.201029 -0.334318
v -0.256776 -0.202716 -0.348146
v -0.067964 0.343007 -0.196267
v 0.068385 0.334718 -0.312893
v 0.068422 0.309492 -0.338498
v 0.069147 0.260363 -0.353416
v -0.069147 -0.260363 -0.353416
v 0.068422 -0.309492 -0.338498
v 0.068385 -0.334718 -0.312893
v 0.067964 -0.343007 -0.196267
v -0.000000 -0.342845 -0.287132
v -0.000000 -0.323973 -0.327564
v -0.000000 -0.292224 -0.347592
v -0.000000 0.292224 -0.347592
v -0.000000 0.323973 -0.327564
v -0.000000 0.342845 -0.287132
v -0.000000 -0.208267 -0.360085
v 0.343007 0.067964 -0.196267
v 0.334718 -0.068385 -0.312893
v 0.309492 -0.068422 -0.338498
v 0.260363 -0.069147 -0.353416
v -0.343007 -0.067964 -0.196267
v -0.334718 0.068385 -0.312893
v -0.309492 0.068422 -0.338498
v -0.260363 0.069147 -0.353416
v -0.000000 0.071523 -0.368408
v -0.208267 -0.000000 -0.360085
v -0.292224 0.000000 -0.347592
v -0.323973 0.000000 -0.327564
v -0.342845 0.000000 -0.287132
v 0.292224 0.000000 -0.347592
v 0.323973 0.000000 -0.327564
v 0.342845 0.000000 -0.287132
v 0.071523 -0.000000 -0.368408
v -0.068385 0.334718 -0.312893
v -0.068422 0.309492 -0.338498
v -0.069147 0.260363 -0.353416
v -0.068422 -0.309492 -0.338498
v -0.068385 -0.334718 -0.312893
v -0.067964 -0.343007 -0.196267
v -0.200258 0.339836 -0.192542
v -0.202716 -0.256776 -0.348146
v -0.071523 -0.000000 -0.368408
v -0.141518 0.070740 -0.363963
v -0.138983 -0.206437 -0.356671
v -0.136344 0.340555 -0.285059
v -0.136092 0.321861 -0.325426
v -0.136686 0.290155 -0.345099
v -0.136686 -0.290155 -0.345099
v -0.136092 -0.321861 -0.325426
v -0.136344 -0.340555 -0.285059
v 0.067964 0.343007 -0.196267
v 0.069147 -0.260363 -0.353416
v 0.200946 0.330630 -0.309187
v 0.201029 0.305786 -0.334318
v 0.202716 0.256776 -0.348146
v 0.201029 -0.305786 -0.334318
v 0.200946 -0.330630 -0.309187
v 0.200258 -0.339836 -0.192542
v 0.208267 -0.000000 -0.360085
v 0.141518 0.070740 -0.363963
v 0.333970 -0.249572 -0.005214
v 0.323513 -0.299223 -0.003346
v 0.132958 -0.335526 -0.009488
v 0.299223 -0.323513 -0.003346
v 0.249572 -0.333970 -0.005214
v 0.136343 -0.340555 -0.285059
v 0.136092 -0.321861 -0.325426
v 0.136686 -0.290155 -0.345099
v 0.136686 0.290155 -0.345099
v 0.136092 0.321861 -0.325426
v 0.136344 0.340555 -0.285059
v 0.138983 -0.206437 -0.356671
v 0.335526 -0.000000 -0.011599
v 0.343007 -0.067964 -0.196267
v -0.334718 -0.068385 -0.312893
v -0.309492 -0.068422 -0.338498
v -0.260363 -0.069147 -0.353416
v -0.000000 -0.071523 -0.368408
v 0.330630 -0.200946 -0.309187
v 0.305786 -0.201029 -0.334318
v 0.256776 -0.202716 -0.348146
v -0.339835 -0.200258 -0.192542
v -0.141518 -0.070740 -0.363963
v 0.141518 -0.070740 -0.363963
v 0.335526 -0.132958 -0.009488
v -0.299223 0.323513 -0.003346
v 0.070740 -0.141518 -0.363963
v -0.206437 -0.138983 -0.356671
v -0.249572 0.333970 -0.005214
v -0.340555 -0.136343 -0.285059
v -0.321861 -0.136092 -0.325426
v -0.290155 -0.136686 -0.345099
v 0.299223 0.323513 -0.003346
v 0.249572 0.333970 -0.005214
v 0.132958 0.335526 -0.009488
v -0.323513 0.299223 -0.003346
v -0.070740 -0.141518 -0.363963
v -0.132958 0.335526 -0.009488
v -0.000000 0.335526 -0.011599
v 0.333970 0.249572 -0.005214
v 0.290155 -0.136686 -0.345099
v 0.321861 -0.136092 -0.325426
v 0.340555 -0.136343 -0.285059
v 0.206437 -0.138983 -0.356671
v 0.323513 0.299223 -0.003346
v 0.334718 0.068385 -0.312893
v 0.309492 0.068422 -0.338498
v 0.260363 0.069147 -0.353416
v -0.343007 0.067964 -0.196267
v 0.339835 0.200258 -0.192542
v -0.330630 0.200946 -0.309187
v -0.305786 0.201029 -0.334318
v -0.256776 0.202716 -0.348146
v -0.000000 0.208267 -0.360085
v -0.138983 0.206437 -0.356671
v 0.335526 0.132958 -0.009488
v 0.138983 0.206437 -0.356671
v 0.070740 0.141518 -0.363963
v -0.323513 -0.299223 -0.003346
v -0.335526 -0.132958 -0.009488
v -0.206437 0.138983 -0.356671
v -0.249572 -0.333970 -0.005214
v 0.206437 0.138983 -0.356671
v 0.340555 0.136344 -0.285059
v 0.321861 0.136092 -0.325426
v 0.290155 0.136686 -0.345099
v -0.333970 0.249572 -0.005214
v -0.335526 0.132958 -0.009488
v -0.335526 -0.000000 -0.011599
v -0.070740 0.141518 -0.363963
v -0.299223 -0.323513 -0.003346
v -0.000000 -0.335526 -0.011599
v -0.132958 -0.335526 -0.009488
v -0.333970 -0.249572 -0.005214
v -0.290155 0.136686 -0.345099
v -0.321861 0.136092 -0.325426
v -0.340555 0.136344 -0.285059
v -0.245890 0.323960 0.271279
v -0.278541 0.326208 0.181464
v -0.295103 0.316408 0.272418
v -0.277423 0.316106 0.298243
v -0.310048 0.310048 0.182111
v -0.316408 0.295103 0.272418
v -0.305021 0.305021 0.297098
v -0.326208 0.278541 0.181464
v -0.323960 0.245890 0.271279
v -0.316106 0.277423 0.298243
v -0.307850 0.246154 0.311251
v -0.294733 0.277336 0.319422
v -0.304983 0.293633 0.308407
v -0.276174 0.245466 0.326750
v -0.245466 0.276174 0.326750
v -0.277336 0.294734 0.319422
v -0.246154 0.307850 0.311251
v -0.293633 0.304983 0.308407
v 0.278541 0.326208 0.181464
v 0.245890 0.323960 0.271279
v 0.277423 0.316106 0.298243
v 0.295103 0.316408 0.272418
v 0.246154 0.307850 0.311251
v 0.277336 0.294734 0.319422
v 0.293633 0.304983 0.308407
v 0.245466 0.276174 0.326750
v 0.276174 0.245466 0.326750
v 0.294733 0.277336 0.319422
v 0.307850 0.246154 0.311251
v 0.316106 0.277423 0.298243
v 0.304983 0.293633 0.308407
v 0.323960 0.245890 0.271279
v 0.326208 0.278541 0.181464
v 0.316408 0.295103 0.272418
v 0.310048 0.310048 0.182111
v 0.305021 0.305021 0.297098
v -0.278541 -0.326208 0.181464
v -0.245890 -0.323960 0.271279
v -0.277423 -0.316106 0.298243
v -0.295103 -0.316408 0.272418
v -0.246154 -0.307850 0.311251
v -0.277336 -0.294734 0.319422
v -0.293633 -0.304983 0.308407
v -0.245466 -0.276174 0.326750
v -0.276174 -0.245466 0.326750
v -0.294733 -0.277336 0.319422
v -0.307850 -0.246154 0.311251
v -0.316106 -0.277423 0.298243
v -0.304983 -0.293633 0.308407
v -0.323960 -0.245890 0.271279
v -0.326208 -0.278541 0.181464
v -0.316408 -0.295103 0.272418
v -0.310048 -0.310048 0.182110
v -0.305021 -0.305021 0.297098
v 0.245890 -0.323960 0.271279
v 0.278541 -0.326208 0.181464
v 0.295103 -0.316408 0.272418
v 0.277423 -0.316106 0.298243
v 0.310048 -0.310048 0.182110
v 0.316408 -0.295103 0.272418
v 0.305021 -0.305021 0.297098
v 0.326208 -0.278541 0.181464
v 0.323960 -0.245890 0.271279
v 0.316106 -0.277423 0.298243
v 0.307850 -0.246154 0.311251
v 0.294733 -0.277336 0.319422
v 0.304983 -0.293633 0.308407
v 0.276174 -0.245466 0.326750
v 0.245466 -0.276174 0.326750
v 0.277336 -0.294734 0.319422
v 0.246154 -0.307850 0.311251
v 0.293633 -0.304983 0.308407
v 0.192064 0.242378 0.327097
v -0.193710 0.292763 0.319952
v -0.193793 0.316724 0.296278
v -0.194522 0.328492 0.178264
v 0.194522 -0.328492 0.178264
v -0.193793 -0.316724 0.296278
v -0.193710 -0.292763 0.319952
v -0.192064 -0.242378 0.327097
v 0.242378 -0.192064 0.327097
v 0.292763 0.193710 0.319952
v 0.316724 0.193793 0.296278
v 0.328491 0.194522 0.178264
v -0.242378 0.192064 0.327097
v -0.292763 -0.193710 0.319952
v -0.316724 -0.193793 0.296278
v -0.328491 -0.194522 0.178264
v -0.063811 0.238801 0.322215
v 0.064536 0.289162 0.316099
v 0.064573 0.312963 0.292677
v 0.064994 0.325708 0.174550
v -0.064994 -0.325708 0.174550
v 0.064573 -0.312963 0.292677
v 0.064536 -0.289162 0.316099
v 0.063811 -0.238801 0.322215
v -0.000000 -0.270093 0.320734
v -0.000000 -0.302394 0.305720
v -0.000000 -0.318564 0.265193
v -0.000000 0.318564 0.265193
v -0.000000 0.302394 0.305720
v -0.000000 0.270093 0.320734
v -0.000000 0.186524 0.318273
v 0.238801 0.063811 0.322215
v 0.289161 -0.064536 0.316099
v 0.312963 -0.064573 0.292677
v 0.325708 -0.064994 0.174550
v -0.238801 -0.063811 0.322215
v -0.289161 0.064536 0.316099
v -0.312963 0.064573 0.292677
v -0.325708 0.064994 0.174550
v -0.000000 -0.061435 0.310340
v -0.061435 -0.000000 0.310340
v -0.318564 -0.000000 0.265193
v -0.302394 -0.000000 0.305720
v -0.270093 -0.000000 0.320734
v 0.318564 -0.000000 0.265193
v 0.302394 -0.000000 0.305720
v 0.270093 -0.000000 0.320734
v 0.186524 -0.000000 0.318273
v -0.064536 0.289162 0.316099
v -0.064573 0.312963 0.292677
v -0.064994 0.325708 0.174550
v -0.064573 -0.312963 0.292677
v -0.064536 -0.289162 0.316099
v -0.063811 -0.238801 0.322215
v -0.192064 0.242378 0.327097
v -0.194522 -0.328491 0.178264
v -0.186524 -0.000000 0.318273
v -0.126933 0.188354 0.321687
v -0.124398 -0.062218 0.314785
v -0.129230 0.272162 0.323227
v -0.129824 0.304507 0.307858
v -0.129573 0.320855 0.267266
v -0.129573 -0.320855 0.267266
v -0.129824 -0.304507 0.307858
v -0.129230 -0.272162 0.323227
v 0.063811 0.238801 0.322215
v 0.064994 -0.325708 0.174550
v 0.193710 0.292763 0.319952
v 0.193793 0.316724 0.296278
v 0.194522 0.328491 0.178264
v 0.193793 -0.316724 0.296278
v 0.193710 -0.292763 0.319952
v 0.192064 -0.242378 0.327097
v 0.061435 -0.000000 0.310340
v 0.126933 0.188354 0.321688
v 0.129230 -0.272162 0.323227
v 0.129824 -0.304507 0.307858
v 0.129573 -0.320855 0.267266
v 0.129573 0.320855 0.267266
v 0.129824 0.304507 0.307858
v 0.129230 0.272161 0.323227
v 0.124398 -0.062218 0.314785
v 0.238801 -0.063811 0.322215
v -0.289162 -0.064536 0.316099
v -0.312963 -0.064573 0.292677
v -0.325708 -0.064994 0.174550
v 0.292763 -0.193710 0.319952
v 0.316724 -0.193793 0.296278
v 0.328491 -0.194522 0.178264
v -0.242378 -0.192064 0.327097
v -0.000000 -0.186524 0.318273
v -0.126933 -0.188354 0.321687
v 0.126933 -0.188354 0.321687
v 0.062218 -0.124398 0.314785
v -0.188354 -0.126933 0.321687
v -0.272161 -0.129230 0.323227
v -0.304507 -0.129824 0.307858
v -0.320855 -0.129573 0.267266
v -0.062218 -0.124398 0.314785
v 0.320855 -0.129573 0.267266
v 0.304507 -0.129824 0.307858
v 0.272161 -0.129230 0.323227
v 0.188354 -0.126933 0.321687
v 0.289162 0.064536 0.316099
v 0.312963 0.064573 0.292677
v 0.325708 0.064994 0.174550
v -0.238801 0.063811 0.322215
v -0.000000 0.061435 0.310340
v 0.242378 0.192064 0.327097
v -0.292763 0.193710 0.319952
v -0.316724 0.193793 0.296278
v -0.328491 0.194522 0.178264
v -0.124398 0.062218 0.314785
v 0.124398 0.062218 0.314785
v 0.062218 0.124398 0.314785
v -0.188354 0.126933 0.321687
v 0.188354 0.126933 0.321687
v 0.272161 0.129230 0.323227
v 0.304507 0.129824 0.307858
v 0.320855 0.129573 0.267266
v -0.062218 0.124398 0.314785
v -0.320855 0.129573 0.267266
v -0.304507 0.129824 0.307858
v -0.272161 0.129230 0.323227
v 0.204528 -0.204528 -0.352913
v -0.283907 0.329583 -0.279220
v -0.283025 0.313641 -0.317141
v -0.284313 0.284313 -0.333575
v -0.313641 0.283025 -0.317141
v -0.329583 0.283907 -0.279220
v -0.313316 0.313316 -0.277994
v -0.307182 0.307182 -0.310671
v 0.283907 0.329583 -0.279220
v 0.313316 0.313316 -0.277994
v 0.329583 0.283907 -0.279220
v 0.313641 0.283025 -0.317141
v 0.284313 0.284313 -0.333575
v 0.283025 0.313641 -0.317141
v 0.307182 0.307182 -0.310671
v -0.283907 -0.329583 -0.279220
v -0.313316 -0.313316 -0.277994
v -0.329583 -0.283907 -0.279220
v -0.313641 -0.283025 -0.317141
v -0.284313 -0.284313 -0.333575
v -0.283025 -0.313641 -0.317141
v -0.307182 -0.307182 -0.310671
v 0.283907 -0.329583 -0.279220
v 0.283025 -0.313641 -0.317141
v 0.284313 -0.284313 -0.333575
v 0.313641 -0.283025 -0.317141
v 0.329583 -0.283907 -0.279220
v 0.313316 -0.313316 -0.277994
v 0.307182 -0.307182 -0.310671
v 0.201172 0.337992 -0.282894
v 0.200823 0.319572 -0.323112
v 0.201584 0.287992 -0.342323
v 0.201584 -0.287992 -0.342323
v 0.200823 -0.319572 -0.323112
v 0.201172 -0.337992 -0.282894
v 0.337992 -0.201172 -0.282894
v 0.319572 -0.200823 -0.323112
v 0.287992 -0.201584 -0.342323
v -0.337992 0.201172 -0.282894
v -0.319572 0.200823 -0.323112
v -0.287992 0.201584 -0.342323
v 0.335332 -0.197394 -0.007291
v 0.312965 -0.312965 -0.003167
v 0.066479 -0.335526 -0.011035
v -0.068467 -0.342231 -0.286576
v -0.068332 -0.323406 -0.326990
v -0.068661 -0.291670 -0.346924
v -0.068661 0.291670 -0.346924
v -0.068332 0.323406 -0.326989
v -0.068467 0.342231 -0.286576
v -0.069924 -0.207777 -0.359173
v 0.335526 0.066479 -0.011034
v -0.197394 -0.335332 -0.007291
v -0.071314 0.071314 -0.367213
v -0.330327 -0.281121 -0.003940
v -0.335526 -0.066479 -0.011035
v -0.312965 0.312965 -0.003166
v -0.197394 0.335332 -0.007291
v 0.066479 0.335526 -0.011035
v 0.330327 0.281121 -0.003940
v -0.291670 -0.068661 -0.346924
v -0.323406 -0.068332 -0.326989
v -0.342231 -0.068467 -0.286576
v 0.291670 0.068661 -0.346924
v 0.323406 0.068332 -0.326989
v 0.342231 0.068467 -0.286576
v 0.207777 0.069924 -0.359173
v 0.335332 0.197394 -0.007291
v -0.207777 0.069924 -0.359173
v -0.335332 0.197394 -0.007291
v -0.204528 -0.204528 -0.352913
v -0.201172 0.337992 -0.282894
v -0.200823 0.319572 -0.323112
v -0.201584 0.287992 -0.342323
v -0.201584 -0.287992 -0.342323
v -0.200823 -0.319572 -0.323112
v -0.201172 -0.337992 -0.282894
v -0.066479 -0.335526 -0.011035
v 0.071314 0.071314 -0.367213
v 0.330327 -0.281121 -0.003940
v 0.281121 -0.330327 -0.003940
v 0.197394 -0.335332 -0.007291
v 0.068467 -0.342231 -0.286576
v 0.068332 -0.323406 -0.326990
v 0.068661 -0.291670 -0.346924
v 0.068661 0.291670 -0.346924
v 0.068332 0.323406 -0.326989
v 0.068467 0.342231 -0.286576
v 0.069924 -0.207777 -0.359173
v 0.335526 -0.066479 -0.011035
v -0.281121 -0.330327 -0.003940
v 0.071314 -0.071314 -0.367213
v -0.207777 -0.069924 -0.359173
v -0.281121 0.330327 -0.003940
v -0.337992 -0.201172 -0.282894
v -0.319572 -0.200823 -0.323112
v -0.287992 -0.201584 -0.342323
v -0.312965 -0.312965 -0.003167
v -0.071314 -0.071314 -0.367213
v -0.066479 0.335526 -0.011035
v 0.197394 0.335332 -0.007291
v 0.312965 0.312965 -0.003166
v 0.291670 -0.068661 -0.346924
v 0.323406 -0.068332 -0.326989
v 0.342231 -0.068467 -0.286576
v 0.207777 -0.069924 -0.359173
v 0.281121 0.330327 -0.003940
v 0.069924 0.207777 -0.359173
v -0.204528 0.204528 -0.352913
v 0.204528 0.204528 -0.352913
v 0.337992 0.201172 -0.282894
v 0.319572 0.200823 -0.323112
v 0.287992 0.201584 -0.342323
v -0.069924 0.207777 -0.359173
v -0.335332 -0.197394 -0.007291
v -0.335526 0.066479 -0.011035
v -0.330327 0.281121 -0.003940
v -0.291670 0.068661 -0.346924
v -0.323406 0.068332 -0.326989
v -0.342231 0.068467 -0.286576
v 0.190261 -0.190261 0.325055
v -0.277501 0.321876 0.272196
v -0.307506 0.307506 0.272421
v -0.321876 0.277501 0.272196
v -0.307181 0.277382 0.310597
v -0.277095 0.277095 0.324800
v -0.277382 0.307181 0.310597
v -0.302224 0.302224 0.305651
v 0.277501 0.321876 0.272196
v 0.277382 0.307181 0.310597
v 0.277095 0.277095 0.324800
v 0.307181 0.277382 0.310597
v 0.321876 0.277501 0.272196
v 0.307506 0.307506 0.272421
v 0.302224 0.302224 0.305651
v -0.277501 -0.321876 0.272196
v -0.277382 -0.307181 0.310597
v -0.277095 -0.277095 0.324800
v -0.307181 -0.277382 0.310597
v -0.321876 -0.277501 0.272196
v -0.307506 -0.307506 0.272421
v -0.302224 -0.302224 0.305651
v 0.277501 -0.321876 0.272196
v 0.307506 -0.307506 0.272421
v 0.321876 -0.277501 0.272196
v 0.307181 -0.277382 0.310597
v 0.277095 -0.277095 0.324800
v 0.277382 -0.307181 0.310597
v 0.302224 -0.302224 0.305651
v 0.193175 0.274287 0.325625
v 0.193908 0.306576 0.309953
v 0.193587 0.323040 0.269393
v 0.193587 -0.323040 0.269393
v 0.193908 -0.306576 0.309953
v 0.193175 -0.274287 0.325625
v 0.274287 -0.193175 0.325625
v 0.306576 -0.193908 0.309953
v 0.323040 -0.193587 0.269393
v -0.274287 0.193175 0.325625
v -0.306576 0.193908 0.309953
v -0.323040 0.193587 0.269393
v -0.064297 -0.270647 0.321402
v -0.064626 -0.302962 0.306294
v -0.064491 -0.319178 0.265749
v -0.064491 0.319178 0.265749
v -0.064626 0.302962 0.306294
v -0.064297 0.270647 0.321402
v -0.063034 -0.187013 0.319186
v -0.061644 0.061644 0.311535
v -0.319178 -0.064491 0.265749
v -0.302962 -0.064626 0.306294
v -0.270647 -0.064297 0.321402
v 0.319178 0.064491 0.265749
v 0.302962 0.064626 0.306294
v 0.270647 0.064297 0.321402
v 0.187013 0.063034 0.319186
v -0.187013 0.063034 0.319186
v -0.190261 -0.190261 0.325055
v -0.193175 0.274287 0.325625
v -0.193908 0.306576 0.309953
v -0.193587 0.323040 0.269393
v -0.193587 -0.323040 0.269393
v -0.193908 -0.306576 0.309953
v -0.193175 -0.274287 0.325625
v 0.061644 0.061644 0.311535
v 0.064297 -0.270647 0.321402
v 0.064626 -0.302962 0.306294
v 0.064491 -0.319178 0.265749
v 0.064491 0.319178 0.265749
v 0.064626 0.302962 0.306294
v 0.064297 0.270647 0.321402
v 0.063034 -0.187013 0.319186
v 0.061644 -0.061644 0.311535
v -0.187013 -0.063034 0.319186
v -0.274287 -0.193175 0.325625
v -0.306576 -0.193908 0.309953
v -0.323040 -0.193587 0.269393
v -0.061644 -0.061644 0.311535
v 0.319178 -0.064491 0.265749
v 0.302962 -0.064626 0.306294
v 0.270647 -0.064297 0.321402
v 0.187013 -0.063034 0.319186
v 0.063034 0.187013 0.319186
v -0.190261 0.190261 0.325055
v 0.190261 0.190261 0.325056
v 0.274287 0.193175 0.325625
v 0.306576 0.193908 0.309953
v 0.323040 0.193587 0.269393
v -0.063034 0.187013 0.319186
v -0.319178 0.064491 0.265749
v -0.302962 0.064626 0.306294
v -0.270647 0.064297 0.321402
vn 0.0544 -0.0544 -0.9970
vn 0.0841 -0.0486 -0.9953
vn 0.0763 -0.0763 -0.9942
vn 0.0486 -0.0841 -0.9953
vn 0.1487 -0.0437 -0.9879
vn 0.1393 -0.0694 -0.9878
vn 0.1303 -0.1303 -0.9829
vn 0.0694 -0.1393 -0.9878
vn 0.0437 -0.1487 -0.9879
vn -0.0971 0.9953 -0.0036
vn -0.1127 0.9832 -0.1434
vn -0.2606 0.9562 -0.1331
vn -0.2567 0.9665 -0.0059
vn -0.1154 0.8882 -0.4448
vn -0.2417 0.8743 -0.4210
vn -0.4394 0.8182 -0.3708
vn -0.4859 0.8666 -0.1138
vn -0.4950 0.8689 -0.0048
vn -0.1122 0.7063 -0.6990
vn -0.2235 0.6927 -0.6857
vn -0.1165 0.5126 -0.8507
vn -0.2404 0.4866 -0.8399
vn -0.4342 0.4342 -0.7893
vn -0.3963 0.6526 -0.6458
vn -0.1303 0.1303 -0.9829
vn -0.2872 0.1236 -0.9499
vn -0.2684 0.2684 -0.9252
vn -0.1236 0.2872 -0.9499
vn -0.5126 0.1165 -0.8507
vn -0.4866 0.2404 -0.8399
vn -0.7063 0.1122 -0.6990
vn -0.6927 0.2235 -0.6857
vn -0.8882 0.1154 -0.4448
vn -0.8743 0.2417 -0.4210
vn -0.8182 0.4394 -0.3708
vn -0.6526 0.3963 -0.6458
vn -0.9953 0.0971 -0.0036
vn -0.9665 0.2567 -0.0059
vn -0.9562 0.2606 -0.1331
vn -0.9832 0.1127 -0.1434
vn -0.8689 0.4950 -0.0048
vn -0.8666 0.4859 -0.1138
vn -0.7071 0.7071 -0.0038
vn -0.7034 0.7034 -0.1025
vn -0.6666 0.6666 -0.3336
vn -0.5795 0.5795 -0.5731
vn 0.0971 0.9953 -0.0036
vn 0.2567 0.9665 -0.0059
vn 0.2606 0.9562 -0.1331
vn 0.1127 0.9832 -0.1434
vn 0.4950 0.8689 -0.0048
vn 0.4859 0.8666 -0.1138
vn 0.4394 0.8182 -0.3708
vn 0.2417 0.8743 -0.4210
vn 0.1154 0.8882 -0.4448
vn 0.7071 0.7071 -0.0038
vn 0.7034 0.7034 -0.1025
vn 0.8689 0.4950 -0.0048
vn 0.8666 0.4859 -0.1138
vn 0.8182 0.4394 -0.3708
vn 0.6666 0.6666 -0.3336
vn 0.9953 0.0971 -0.0036
vn 0.9832 0.1127 -0.1434
vn 0.9562 0.2606 -0.1331
vn 0.9665 0.2567 -0.0059
vn 0.8882 0.1154 -0.4448
vn 0.8743 0.2417 -0.4210
vn 0.7063 0.1122 -0.6990
vn 0.6927 0.2235 -0.6857
vn 0.5126 0.1165 -0.8507
vn 0.4866 0.2404 -0.8399
vn 0.4342 0.4342 -0.7893
vn 0.6526 0.3963 -0.6458
vn 0.1303 0.1303 -0.9829
vn 0.1236 0.2872 -0.9499
vn 0.2684 0.2684 -0.9252
vn 0.2872 0.1236 -0.9499
vn 0.1165 0.5126 -0.8507
vn 0.2404 0.4866 -0.8399
vn 0.1122 0.7063 -0.6990
vn 0.2235 0.6927 -0.6857
vn 0.3963 0.6526 -0.6458
vn 0.5795 0.5795 -0.5731
vn -0.0971 -0.9953 -0.0036
vn -0.2567 -0.9665 -0.0059
vn -0.2606 -0.9562 -0.1331
vn -0.1127 -0.9832 -0.1434
vn -0.4950 -0.8689 -0.0048
vn -0.4859 -0.8666 -0.1138
vn -0.4394 -0.8182 -0.3708
vn -0.2417 -0.8743 -0.4210
vn -0.1154 -0.8882 -0.4448
vn -0.7071 -0.7071 -0.0038
vn -0.7034 -0.7034 -0.1025
vn -0.8689 -0.4950 -0.0048
vn -0.8666 -0.4859 -0.1138
vn -0.8182 -0.4394 -0.3708
vn -0.6666 -0.6666 -0.3336
vn -0.9953 -0.0971 -0.0036
vn -0.9832 -0.1127 -0.1434
vn -0.9562 -0.2606 -0.1331
vn -0.9665 -0.2567 -0.0059
vn -0.8882 -0.1154 -0.4448
vn -0.8743 -0.2417 -0.4210
vn -0.7063 -0.1122 -0.6990
vn -0.6927 -0.2235 -0.6857
vn -0.5126 -0.1165 -0.8507
vn -0.4866 -0.2404 -0.8399
vn -0.4342 -0.4342 -0.7893
vn -0.6526 -0.3963 -0.6458
vn -0.1303 -0.1303 -0.9829
vn -0.1236 -0.2872 -0.9499
vn -0.2684 -0.2684 -0.9252
vn -0.2872 -0.1236 -0.9499
vn -0.1165 -0.5126 -0.8507
vn -0.2404 -0.4866 -0.8399
vn -0.1122 -0.7063 -0.6990
vn -0.2235 -0.6927 -0.6857
vn -0.3963 -0.6526 -0.6458
vn -0.5795 -0.5795 -0.5731
vn 0.0971 -0.9953 -0.0036
vn 0.1127 -0.9832 -0.1434
vn 0.2606 -0.9562 -0.1331
vn 0.2567 -0.9665 -0.0059
vn 0.1154 -0.8882 -0.4448
vn 0.2417 -0.8743 -0.4210
vn 0.4394 -0.8182 -0.3708
vn 0.4859 -0.8666 -0.1138
vn 0.4950 -0.8689 -0.0048
vn 0.1122 -0.7063 -0.6990
vn 0.2235 -0.6927 -0.6857
vn 0.1165 -0.5126 -0.8507
vn 0.2404 -0.4866 -0.8399
vn 0.4342 -0.4342 -0.7893
vn 0.3963 -0.6526 -0.6458
vn 0.2872 -0.1236 -0.9499
vn 0.2684 -0.2684 -0.9252
vn 0.1236 -0.2872 -0.9499
vn 0.5126 -0.1165 -0.8507
vn 0.4866 -0.2404 -0.8399
vn 0.7063 -0.1122 -0.6990
vn 0.6927 -0.2235 -0.6857
vn 0.8882 -0.1154 -0.4448
vn 0.8743 -0.2417 -0.4210
vn 0.8182 -0.4394 -0.3708
vn 0.6526 -0.3963 -0.6458
vn 0.9953 -0.0971 -0.0036
vn 0.9665 -0.2567 -0.0059
vn 0.9562 -0.2606 -0.1331
vn 0.9832 -0.1127 -0.1434
vn 0.8689 -0.4950 -0.0048
vn 0.8666 -0.4859 -0.1138
vn 0.7071 -0.7071 -0.0038
vn 0.7034 -0.7034 -0.1025
vn 0.6666 -0.6666 -0.3336
vn 0.5795 -0.5795 -0.5731
vn 0.0203 0.9997 0.0096
vn 0.0391 0.9992 0.0025
vn 0.0557 0.9878 -0.1455
vn 0.0336 0.9889 -0.1447
vn 0.0634 0.8890 -0.4535
vn 0.0404 0.8884 -0.4574
vn 0.0642 0.7098 -0.7015
vn 0.0417 0.7112 -0.7017
vn 0.0653 0.5243 -0.8490
vn 0.0421 0.5316 -0.8459
vn 0.0665 0.2999 -0.9517
vn 0.0421 0.3101 -0.9498
vn 0.0694 0.1393 -0.9878
vn 0.0437 0.1487 -0.9879
vn 0.0665 -0.2999 -0.9517
vn 0.0421 -0.3101 -0.9498
vn 0.0653 -0.5243 -0.8490
vn 0.0421 -0.5316 -0.8459
vn 0.0642 -0.7098 -0.7015
vn 0.0417 -0.7112 -0.7017
vn 0.0634 -0.8890 -0.4535
vn 0.0404 -0.8884 -0.4574
vn 0.0557 -0.9878 -0.1455
vn 0.0336 -0.9889 -0.1447
vn 0.0391 -0.9992 0.0025
vn 0.0203 -0.9997 0.0096
vn 0.9997 -0.0203 0.0096
vn 0.9992 -0.0391 0.0025
vn 0.9878 -0.0557 -0.1455
vn 0.9889 -0.0336 -0.1447
vn 0.8890 -0.0634 -0.4535
vn 0.8884 -0.0404 -0.4574
vn 0.7098 -0.0642 -0.7015
vn 0.7112 -0.0417 -0.7017
vn 0.5243 -0.0653 -0.8490
vn 0.5316 -0.0421 -0.8459
vn 0.2999 -0.0665 -0.9517
vn 0.3101 -0.0421 -0.9498
vn -0.9997 0.0203 0.0096
vn -0.9992 0.0391 0.0025
vn -0.9878 0.0557 -0.1455
vn -0.9889 0.0336 -0.1447
vn -0.8890 0.0634 -0.4535
vn -0.8884 0.0404 -0.4574
vn -0.7098 0.0642 -0.7015
vn -0.7112 0.0417 -0.7017
vn -0.5243 0.0653 -0.8490
vn -0.5316 0.0421 -0.8459
vn -0.2999 0.0665 -0.9517
vn -0.3101 0.0421 -0.9498
vn -0.1393 0.0694 -0.9878
vn -0.1487 0.0437 -0.9879
vn 0.9992 -0.0004 0.0393
vn 0.9994 -0.0134 0.0309
vn 0.9983 0.0193 0.0556
vn 0.9988 0.0120 0.0482
vn 0.9983 -0.0409 0.0416
vn 0.9973 -0.0694 0.0234
vn 0.8749 -0.4839 0.0182
vn 0.7070 -0.7070 0.0178
vn 0.8847 -0.4649 0.0339
vn 0.7067 -0.7067 0.0322
vn 0.4649 -0.8847 0.0339
vn 0.4839 -0.8749 0.0182
vn 0.0004 -0.9992 0.0393
vn -0.0007 -0.9990 0.0455
vn 0.0103 -0.9998 0.0149
vn -0.0193 -0.9983 0.0556
vn -0.0117 -0.9981 0.0611
vn -0.0000 -0.9980 0.0631
vn -0.0000 -0.9989 0.0478
vn -0.0000 -0.9999 0.0168
vn -0.0404 -0.8884 -0.4574
vn -0.0215 -0.8880 -0.4593
vn -0.0176 -0.9895 -0.1435
vn -0.0336 -0.9889 -0.1447
vn -0.0000 -0.8880 -0.4599
vn -0.0000 -0.9897 -0.1431
vn -0.0103 -0.9998 0.0149
vn -0.0203 -0.9997 0.0096
vn -0.0421 -0.5316 -0.8459
vn -0.0224 -0.5360 -0.8439
vn -0.0223 -0.7121 -0.7017
vn -0.0417 -0.7112 -0.7017
vn -0.0000 -0.5375 -0.8432
vn -0.0000 -0.7124 -0.7018
vn -0.0437 -0.1487 -0.9879
vn -0.0231 -0.1554 -0.9876
vn -0.0224 -0.3168 -0.9482
vn -0.0421 -0.3101 -0.9498
vn -0.0000 -0.1577 -0.9875
vn -0.0000 -0.3192 -0.9477
vn -0.0421 0.5316 -0.8459
vn -0.0224 0.5360 -0.8439
vn -0.0224 0.3168 -0.9482
vn -0.0421 0.3101 -0.9498
vn -0.0000 0.5375 -0.8432
vn -0.0000 0.3192 -0.9477
vn -0.0000 0.1577 -0.9875
vn -0.0231 0.1554 -0.9876
vn -0.0437 0.1487 -0.9879
vn -0.0404 0.8884 -0.4574
vn -0.0215 0.8880 -0.4593
vn -0.0223 0.7121 -0.7017
vn -0.0417 0.7112 -0.7017
vn -0.0000 0.8880 -0.4599
vn -0.0000 0.7124 -0.7018
vn -0.0203 0.9997 0.0096
vn -0.0103 0.9998 0.0149
vn -0.0176 0.9895 -0.1435
vn -0.0336 0.9889 -0.1447
vn -0.0000 0.9999 0.0168
vn -0.0000 0.9897 -0.1431
vn -0.0544 -0.0544 -0.9970
vn -0.0289 -0.0587 -0.9979
vn -0.0257 -0.0898 -0.9956
vn -0.0486 -0.0841 -0.9953
vn -0.0000 -0.0603 -0.9982
vn -0.0000 -0.0919 -0.9958
vn 0.9997 0.0203 0.0096
vn 0.9992 0.0004 0.0393
vn 0.9990 -0.0007 0.0455
vn 0.9998 0.0103 0.0149
vn 0.9983 -0.0193 0.0556
vn 0.9981 -0.0117 0.0611
vn 0.9980 -0.0000 0.0631
vn 0.9989 -0.0000 0.0478
vn 0.9999 -0.0000 0.0168
vn -0.0004 -0.9992 0.0393
vn -0.0134 -0.9994 0.0309
vn -0.0391 -0.9992 0.0025
vn 0.0193 -0.9983 0.0556
vn 0.0120 -0.9988 0.0482
vn -0.0409 -0.9983 0.0416
vn -0.0694 -0.9973 0.0234
vn -0.0544 0.0544 -0.9970
vn -0.0289 0.0587 -0.9979
vn -0.0313 0.0313 -0.9990
vn -0.0587 0.0289 -0.9979
vn -0.0000 0.0603 -0.9982
vn -0.0000 0.0321 -0.9995
vn -0.0000 -0.0000 -1.0000
vn -0.0321 -0.0000 -0.9995
vn -0.0603 -0.0000 -0.9982
vn -0.8749 -0.4839 0.0182
vn -0.9722 -0.2334 0.0195
vn -0.8847 -0.4649 0.0339
vn -0.9781 -0.2046 0.0372
vn -0.9983 -0.0409 0.0416
vn -0.9973 -0.0694 0.0234
vn -0.9997 -0.0203 0.0096
vn -0.9992 -0.0004 0.0393
vn -0.9990 0.0007 0.0455
vn -0.9998 -0.0103 0.0149
vn -0.9983 0.0193 0.0556
vn -0.9981 0.0117 0.0611
vn -0.9980 -0.0000 0.0631
vn -0.9989 -0.0000 0.0478
vn -0.9999 -0.0000 0.0168
vn -0.8749 0.4839 0.0182
vn -0.7070 0.7070 0.0178
vn -0.8847 0.4649 0.0339
vn -0.7067 0.7067 0.0322
vn -0.4649 0.8847 0.0339
vn -0.4839 0.8749 0.0182
vn -0.0694 0.9973 0.0234
vn -0.0134 0.9994 0.0309
vn -0.0391 0.9992 0.0025
vn -0.0409 0.9983 0.0416
vn 0.0120 0.9988 0.0482
vn 0.0193 0.9983 0.0556
vn -0.0004 0.9992 0.0393
vn -0.0000 0.9989 0.0478
vn -0.0007 0.9990 0.0455
vn 0.0103 0.9998 0.0149
vn -0.0000 0.9980 0.0631
vn -0.0117 0.9981 0.0611
vn -0.0193 0.9983 0.0556
vn 0.0004 0.9992 0.0393
vn 0.8749 0.4839 0.0182
vn 0.9722 0.2334 0.0195
vn 0.8847 0.4649 0.0339
vn 0.9781 0.2046 0.0372
vn 0.9983 0.0409 0.0416
vn 0.9973 0.0694 0.0234
vn -0.5316 -0.0421 -0.8459
vn -0.5360 -0.0224 -0.8439
vn -0.3168 -0.0224 -0.9482
vn -0.3101 -0.0421 -0.9498
vn -0.5375 -0.0000 -0.8432
vn -0.3192 -0.0000 -0.9477
vn -0.1577 -0.0000 -0.9875
vn -0.1554 -0.0231 -0.9876
vn -0.1487 -0.0437 -0.9879
vn -0.8884 -0.0404 -0.4574
vn -0.8880 -0.0215 -0.4593
vn -0.7121 -0.0223 -0.7017
vn -0.7112 -0.0417 -0.7017
vn -0.8880 -0.0000 -0.4599
vn -0.7124 -0.0000 -0.7018
vn -0.9895 -0.0176 -0.1435
vn -0.9889 -0.0336 -0.1447
vn -0.9897 -0.0000 -0.1431
vn 0.5316 0.0421 -0.8459
vn 0.5360 0.0224 -0.8439
vn 0.3168 0.0224 -0.9482
vn 0.3101 0.0421 -0.9498
vn 0.5375 -0.0000 -0.8432
vn 0.3192 -0.0000 -0.9477
vn 0.1578 -0.0000 -0.9875
vn 0.1554 0.0231 -0.9876
vn 0.1487 0.0437 -0.9879
vn 0.8884 0.0404 -0.4574
vn 0.8880 0.0215 -0.4593
vn 0.7121 0.0223 -0.7017
vn 0.7112 0.0417 -0.7017
vn 0.8880 -0.0000 -0.4599
vn 0.7124 -0.0000 -0.7018
vn 0.9895 0.0176 -0.1435
vn 0.9889 0.0336 -0.1447
vn 0.9897 -0.0000 -0.1431
vn 0.0544 0.0544 -0.9970
vn 0.0841 0.0486 -0.9953
vn 0.0898 0.0257 -0.9956
vn 0.0587 0.0289 -0.9979
vn 0.0919 -0.0000 -0.9958
vn 0.0603 -0.0000 -0.9982
vn 0.9988 -0.0120 0.0482
vn 0.9994 0.0134 0.0309
vn 0.9992 0.0391 0.0025
vn -0.0841 0.0486 -0.9953
vn -0.0898 0.0257 -0.9956
vn -0.1554 0.0231 -0.9876
vn -0.0919 -0.0000 -0.9958
vn -0.9992 0.0004 0.0393
vn -0.9994 0.0134 0.0309
vn -0.9983 -0.0193 0.0556
vn -0.9988 -0.0120 0.0482
vn -0.9983 0.0409 0.0416
vn -0.9973 0.0694 0.0234
vn -0.0841 -0.0486 -0.9953
vn -0.0763 -0.0763 -0.9942
vn -0.1393 -0.0694 -0.9878
vn -0.0694 -0.1393 -0.9878
vn -0.0557 0.9878 -0.1455
vn -0.0634 0.8890 -0.4535
vn -0.0642 0.7098 -0.7015
vn -0.0653 0.5243 -0.8490
vn -0.0665 0.2999 -0.9517
vn -0.0694 0.1393 -0.9878
vn -0.0665 -0.2999 -0.9517
vn -0.0653 -0.5243 -0.8490
vn -0.0642 -0.7098 -0.7015
vn -0.0634 -0.8890 -0.4535
vn -0.0557 -0.9878 -0.1455
vn 0.0007 -0.9990 0.0455
vn 0.0117 -0.9981 0.0611
vn 0.0289 0.0587 -0.9979
vn 0.0313 0.0313 -0.9990
vn 0.0321 -0.0000 -0.9995
vn 0.9722 -0.2334 0.0195
vn 0.9781 -0.2046 0.0372
vn 0.2334 -0.9722 0.0195
vn 0.2046 -0.9781 0.0372
vn 0.0409 -0.9983 0.0416
vn 0.0694 -0.9973 0.0234
vn 0.0134 -0.9994 0.0309
vn -0.0120 -0.9988 0.0482
vn 0.0215 -0.8880 -0.4593
vn 0.0176 -0.9895 -0.1435
vn 0.0224 -0.5360 -0.8439
vn 0.0223 -0.7121 -0.7017
vn 0.0231 -0.1554 -0.9876
vn 0.0224 -0.3168 -0.9482
vn 0.0224 0.5360 -0.8439
vn 0.0224 0.3168 -0.9482
vn 0.0231 0.1554 -0.9876
vn 0.0215 0.8880 -0.4593
vn 0.0223 0.7121 -0.7017
vn 0.0176 0.9895 -0.1435
vn 0.0289 -0.0587 -0.9979
vn 0.0257 -0.0898 -0.9956
vn 0.9981 0.0117 0.0611
vn 0.9990 0.0007 0.0455
vn 0.9998 -0.0103 0.0149
vn -0.2334 -0.9722 0.0195
vn -0.2046 -0.9781 0.0372
vn -0.4649 -0.8847 0.0339
vn -0.4839 -0.8749 0.0182
vn 0.0313 -0.0313 -0.9990
vn -0.0000 -0.0321 -0.9995
vn 0.0587 -0.0289 -0.9979
vn -0.0898 -0.0257 -0.9956
vn -0.0587 -0.0289 -0.9979
vn -0.2334 0.9722 0.0195
vn -0.2046 0.9781 0.0372
vn -0.9992 -0.0391 0.0025
vn -0.9878 -0.0557 -0.1455
vn -0.8890 -0.0634 -0.4535
vn -0.7098 -0.0642 -0.7015
vn -0.5243 -0.0653 -0.8490
vn -0.2999 -0.0665 -0.9517
vn -0.7070 -0.7070 0.0178
vn -0.7067 -0.7067 0.0322
vn -0.0313 -0.0313 -0.9990
vn 0.0007 0.9990 0.0455
vn 0.0117 0.9981 0.0611
vn 0.0134 0.9994 0.0309
vn -0.0120 0.9988 0.0482
vn 0.0409 0.9983 0.0416
vn 0.0694 0.9973 0.0234
vn 0.4839 0.8749 0.0182
vn 0.7070 0.7070 0.0178
vn 0.4649 0.8847 0.0339
vn 0.7067 0.7067 0.0322
vn 0.5360 -0.0224 -0.8439
vn 0.3168 -0.0224 -0.9482
vn 0.1554 -0.0231 -0.9876
vn 0.8880 -0.0215 -0.4593
vn 0.7121 -0.0223 -0.7017
vn 0.9895 -0.0176 -0.1435
vn 0.0898 -0.0257 -0.9956
vn 0.2334 0.9722 0.0195
vn 0.2046 0.9781 0.0372
vn 0.0257 0.0898 -0.9956
vn -0.0000 0.0919 -0.9958
vn 0.0486 0.0841 -0.9953
vn -0.0763 0.0763 -0.9942
vn -0.0486 0.0841 -0.9953
vn 0.0763 0.0763 -0.9942
vn 0.1393 0.0694 -0.9878
vn 0.9878 0.0557 -0.1455
vn 0.8890 0.0634 -0.4535
vn 0.7098 0.0642 -0.7015
vn 0.5243 0.0653 -0.8490
vn 0.2999 0.0665 -0.9517
vn -0.0257 0.0898 -0.9956
vn -0.9994 -0.0134 0.0309
vn -0.9988 0.0120 0.0482
vn -0.9990 -0.0007 0.0455
vn -0.9998 0.0103 0.0149
vn -0.9981 -0.0117 0.0611
vn -0.9722 0.2334 0.0195
vn -0.9781 0.2046 0.0372
vn -0.5360 0.0224 -0.8439
vn -0.3168 0.0224 -0.9482
vn -0.8880 0.0215 -0.4593
vn -0.7121 0.0223 -0.7017
vn -0.9895 0.0176 -0.1435
vn -0.0530 0.0530 0.9972
vn -0.0449 0.0548 0.9975
vn -0.0448 0.0448 0.9980
vn -0.0548 0.0449 0.9975
vn -0.0387 0.0064 0.9992
vn -0.0371 -0.0045 0.9993
vn 0.0127 -0.0127 0.9998
vn 0.0045 0.0371 0.9993
vn -0.0064 0.0387 0.9992
vn -0.1759 0.9759 0.1295
vn -0.0212 0.9900 0.1398
vn -0.4358 0.8933 0.1100
vn -0.3779 0.8580 0.3478
vn -0.1417 0.9059 0.3990
vn -0.0066 0.9088 0.4173
vn -0.7037 0.7037 0.0976
vn -0.8933 0.4358 0.1100
vn -0.8580 0.3779 0.3478
vn -0.6729 0.6729 0.3071
vn -0.9900 0.0212 0.1398
vn -0.9759 0.1759 0.1295
vn -0.9088 0.0066 0.4173
vn -0.9059 0.1417 0.3990
vn -0.7035 -0.0008 0.7107
vn -0.6987 0.1190 0.7055
vn -0.4460 0.0042 0.8950
vn -0.4276 0.1381 0.8934
vn -0.3722 0.3722 0.8502
vn -0.6641 0.3301 0.6708
vn -0.0127 0.0127 0.9998
vn -0.0124 0.1768 0.9842
vn -0.1669 0.1669 0.9717
vn -0.1768 0.0124 0.9842
vn -0.0042 0.4460 0.8950
vn -0.1381 0.4276 0.8934
vn 0.0008 0.7035 0.7107
vn -0.1190 0.6987 0.7055
vn -0.3301 0.6641 0.6708
vn -0.5752 0.5752 0.5816
vn 0.0212 0.9900 0.1398
vn 0.1759 0.9759 0.1295
vn 0.0066 0.9088 0.4173
vn 0.1417 0.9059 0.3990
vn 0.3779 0.8580 0.3478
vn 0.4358 0.8933 0.1100
vn -0.0008 0.7035 0.7107
vn 0.1190 0.6987 0.7055
vn 0.0042 0.4460 0.8950
vn 0.1381 0.4276 0.8934
vn 0.3722 0.3722 0.8502
vn 0.3301 0.6641 0.6708
vn 0.0127 0.0127 0.9998
vn 0.1768 0.0124 0.9842
vn 0.1669 0.1669 0.9717
vn 0.0124 0.1768 0.9842
vn 0.4460 0.0042 0.8950
vn 0.4276 0.1381 0.8934
vn 0.7035 -0.0008 0.7107
vn 0.6987 0.1190 0.7055
vn 0.9088 0.0066 0.4173
vn 0.9059 0.1417 0.3990
vn 0.8580 0.3779 0.3478
vn 0.6641 0.3301 0.6708
vn 0.9759 0.1759 0.1295
vn 0.9900 0.0212 0.1398
vn 0.8933 0.4358 0.1100
vn 0.7037 0.7037 0.0976
vn 0.6729 0.6729 0.3071
vn 0.5752 0.5752 0.5816
vn -0.0212 -0.9900 0.1398
vn -0.1759 -0.9759 0.1295
vn -0.0066 -0.9088 0.4173
vn -0.1417 -0.9059 0.3990
vn -0.3779 -0.8580 0.3478
vn -0.4358 -0.8933 0.1100
vn 0.0008 -0.7035 0.7107
vn -0.1190 -0.6987 0.7055
vn -0.0042 -0.4460 0.8950
vn -0.1381 -0.4276 0.8934
vn -0.3722 -0.3722 0.8502
vn -0.3301 -0.6641 0.6708
vn -0.0127 -0.0127 0.9998
vn -0.1768 -0.0124 0.9842
vn -0.1669 -0.1669 0.9717
vn -0.0124 -0.1768 0.9842
vn -0.4460 -0.0042 0.8950
vn -0.4276 -0.1381 0.8934
vn -0.7035 0.0008 0.7107
vn -0.6987 -0.1190 0.7055
vn -0.9088 -0.0066 0.4173
vn -0.9059 -0.1417 0.3990
vn -0.8580 -0.3779 0.3478
vn -0.6641 -0.3301 0.6708
vn -0.9759 -0.1759 0.1295
vn -0.9900 -0.0212 0.1398
vn -0.8933 -0.4358 0.1100
vn -0.7037 -0.7037 0.0976
vn -0.6729 -0.6729 0.3071
vn -0.5752 -0.5752 0.5816
vn 0.1759 -0.9759 0.1295
vn 0.0212 -0.9900 0.1398
vn 0.4358 -0.8933 0.1100
vn 0.3779 -0.8580 0.3478
vn 0.1417 -0.9059 0.3990
vn 0.0066 -0.9088 0.4173
vn 0.7037 -0.7037 0.0976
vn 0.8933 -0.4358 0.1100
vn 0.8580 -0.3779 0.3478
vn 0.6729 -0.6729 0.3071
vn 0.9900 -0.0212 0.1398
vn 0.9759 -0.1759 0.1295
vn 0.9088 -0.0066 0.4173
vn 0.9059 -0.1417 0.3990
vn 0.7035 0.0008 0.7107
vn 0.6987 -0.1190 0.7055
vn 0.4460 -0.0042 0.8950
vn 0.4276 -0.1381 0.8934
vn 0.3722 -0.3722 0.8502
vn 0.6641 -0.3301 0.6708
vn 0.0124 -0.1768 0.9842
vn 0.1669 -0.1669 0.9717
vn 0.1768 -0.0124 0.9842
vn 0.0042 -0.4460 0.8950
vn 0.1381 -0.4276 0.8934
vn -0.0008 -0.7035 0.7107
vn 0.1190 -0.6987 0.7055
vn 0.3301 -0.6641 0.6708
vn 0.5752 -0.5752 0.5816
vn -0.0387 -0.0064 0.9992
vn -0.0371 0.0045 0.9993
vn -0.0358 0.1713 0.9846
vn -0.0375 0.1611 0.9862
vn -0.0391 0.4452 0.8946
vn -0.0396 0.4393 0.8975
vn -0.0406 0.7024 0.7106
vn -0.0403 0.7016 0.7114
vn -0.0372 0.9068 0.4199
vn -0.0382 0.9074 0.4185
vn -0.0278 0.9892 0.1441
vn -0.0314 0.9887 0.1465
vn -0.0278 -0.9892 0.1441
vn -0.0314 -0.9887 0.1465
vn -0.0372 -0.9068 0.4199
vn -0.0382 -0.9074 0.4185
vn -0.0406 -0.7024 0.7107
vn -0.0403 -0.7016 0.7114
vn -0.0391 -0.4452 0.8946
vn -0.0396 -0.4393 0.8975
vn -0.0358 -0.1713 0.9846
vn -0.0375 -0.1611 0.9862
vn 0.1713 0.0358 0.9846
vn 0.1611 0.0375 0.9862
vn 0.4452 0.0391 0.8946
vn 0.4393 0.0396 0.8975
vn 0.7024 0.0406 0.7106
vn 0.7016 0.0403 0.7114
vn 0.9068 0.0372 0.4199
vn 0.9074 0.0382 0.4185
vn 0.9892 0.0278 0.1441
vn 0.9887 0.0314 0.1465
vn 0.0064 -0.0387 0.9992
vn -0.0045 -0.0371 0.9993
vn -0.1713 -0.0358 0.9846
vn -0.1611 -0.0375 0.9862
vn -0.4452 -0.0391 0.8946
vn -0.4393 -0.0396 0.8975
vn -0.7024 -0.0406 0.7106
vn -0.7016 -0.0403 0.7114
vn -0.9068 -0.0372 0.4199
vn -0.9074 -0.0382 0.4185
vn -0.9892 -0.0278 0.1441
vn -0.9887 -0.0314 0.1465
vn 0.0396 -0.4393 0.8975
vn 0.0230 -0.4341 0.9006
vn 0.0218 -0.1528 0.9880
vn 0.0375 -0.1611 0.9862
vn -0.0000 -0.4322 0.9018
vn -0.0000 -0.1497 0.9887
vn -0.0000 0.0181 0.9998
vn 0.0224 0.0149 0.9996
vn 0.0387 0.0064 0.9992
vn 0.0382 -0.9074 0.4185
vn 0.0222 -0.9087 0.4169
vn 0.0234 -0.7014 0.7123
vn 0.0403 -0.7016 0.7114
vn -0.0000 -0.9092 0.4163
vn -0.0000 -0.7014 0.7127
vn 0.0184 -0.9888 0.1480
vn 0.0314 -0.9887 0.1465
vn -0.0000 -0.9889 0.1486
vn 0.0382 0.9074 0.4185
vn 0.0222 0.9087 0.4169
vn 0.0184 0.9888 0.1480
vn 0.0314 0.9887 0.1465
vn -0.0000 0.9092 0.4163
vn -0.0000 0.9889 0.1486
vn 0.0396 0.4393 0.8975
vn 0.0230 0.4341 0.9006
vn 0.0234 0.7014 0.7123
vn 0.0403 0.7016 0.7114
vn -0.0000 0.4322 0.9018
vn -0.0000 0.7014 0.7127
vn 0.0387 -0.0065 0.9992
vn 0.0224 -0.0149 0.9996
vn 0.0218 0.1528 0.9880
vn 0.0375 0.1611 0.9862
vn -0.0000 -0.0181 0.9998
vn -0.0000 0.1497 0.9887
vn 0.0530 0.0530 0.9972
vn 0.0449 0.0548 0.9975
vn 0.0260 0.0627 0.9977
vn 0.0308 0.0595 0.9978
vn -0.0000 0.0656 0.9978
vn -0.0000 0.0620 0.9981
vn 0.0530 -0.0530 0.9972
vn 0.0595 -0.0308 0.9978
vn 0.0347 -0.0347 0.9988
vn 0.0308 -0.0595 0.9978
vn 0.0620 -0.0000 0.9981
vn 0.0362 -0.0000 0.9993
vn -0.0000 -0.0000 1.0000
vn -0.0000 -0.0362 0.9993
vn -0.0000 -0.0620 0.9981
vn -0.9074 0.0382 0.4185
vn -0.9087 0.0222 0.4169
vn -0.9888 0.0184 0.1480
vn -0.9887 0.0314 0.1465
vn -0.9092 -0.0000 0.4163
vn -0.9889 -0.0000 0.1486
vn -0.4393 0.0396 0.8975
vn -0.4341 0.0230 0.9006
vn -0.7014 0.0234 0.7123
vn -0.7016 0.0403 0.7114
vn -0.4322 -0.0000 0.9018
vn -0.7014 -0.0000 0.7127
vn 0.0064 0.0387 0.9992
vn 0.0149 0.0224 0.9996
vn -0.1528 0.0218 0.9880
vn -0.1611 0.0375 0.9862
vn 0.0181 -0.0000 0.9998
vn -0.1497 -0.0000 0.9887
vn 0.9074 -0.0382 0.4185
vn 0.9087 -0.0222 0.4169
vn 0.9888 -0.0184 0.1480
vn 0.9887 -0.0314 0.1465
vn 0.9092 -0.0000 0.4163
vn 0.9889 -0.0000 0.1486
vn 0.4393 -0.0396 0.8975
vn 0.4341 -0.0230 0.9006
vn 0.7014 -0.0234 0.7123
vn 0.7016 -0.0403 0.7114
vn 0.4322 -0.0000 0.9018
vn 0.7014 -0.0000 0.7127
vn -0.0064 -0.0387 0.9992
vn -0.0149 -0.0224 0.9996
vn 0.1528 -0.0218 0.9880
vn 0.1611 -0.0375 0.9862
vn -0.0181 -0.0000 0.9998
vn 0.1497 -0.0000 0.9887
vn -0.0530 -0.0530 0.9972
vn -0.0595 -0.0308 0.9978
vn -0.0627 -0.0260 0.9977
vn -0.0548 -0.0449 0.9975
vn -0.0620 -0.0000 0.9981
vn -0.0656 -0.0000 0.9978
vn 0.0149 -0.0224 0.9996
vn 0.0627 -0.0260 0.9977
vn 0.0548 -0.0449 0.9975
vn 0.0656 -0.0000 0.9978
vn -0.0045 0.0371 0.9993
vn 0.0448 0.0448 0.9980
vn 0.0548 0.0449 0.9975
vn 0.0371 -0.0045 0.9993
vn 0.0371 0.0045 0.9993
vn 0.0358 0.1713 0.9846
vn 0.0391 0.4452 0.8946
vn 0.0406 0.7024 0.7106
vn 0.0372 0.9068 0.4199
vn 0.0278 0.9892 0.1441
vn 0.0278 -0.9892 0.1441
vn 0.0372 -0.9068 0.4199
vn 0.0406 -0.7024 0.7106
vn 0.0391 -0.4452 0.8946
vn 0.0358 -0.1713 0.9846
vn -0.0347 -0.0347 0.9988
vn -0.0308 -0.0595 0.9978
vn -0.0362 -0.0000 0.9993
vn -0.0230 -0.4341 0.9006
vn -0.0218 -0.1528 0.9880
vn -0.0224 0.0149 0.9996
vn -0.0222 -0.9087 0.4169
vn -0.0234 -0.7014 0.7123
vn -0.0184 -0.9888 0.1480
vn -0.0222 0.9087 0.4169
vn -0.0184 0.9888 0.1480
vn -0.0230 0.4341 0.9006
vn -0.0234 0.7014 0.7123
vn -0.0224 -0.0149 0.9996
vn -0.0218 0.1528 0.9880
vn -0.0260 0.0627 0.9977
vn -0.0308 0.0595 0.9978
vn -0.0000 0.0362 0.9993
vn -0.0347 0.0347 0.9988
vn -0.0595 0.0308 0.9978
vn 0.0627 0.0260 0.9977
vn 0.0595 0.0308 0.9978
vn -0.1713 0.0358 0.9846
vn -0.4452 0.0391 0.8946
vn -0.7024 0.0406 0.7106
vn -0.9068 0.0372 0.4199
vn -0.9892 0.0278 0.1441
vn 0.0347 0.0347 0.9988
vn 0.9087 0.0222 0.4169
vn 0.9888 0.0184 0.1480
vn 0.4341 0.0230 0.9006
vn 0.7014 0.0234 0.7123
vn -0.0149 0.0224 0.9996
vn 0.1528 0.0218 0.9880
vn -0.0627 0.0260 0.9977
vn -0.0000 -0.0656 0.9978
vn -0.0260 -0.0627 0.9977
vn -0.0449 -0.0548 0.9975
vn 0.0448 -0.0448 0.9980
vn 0.0449 -0.0548 0.9975
vn -0.0448 -0.0448 0.9980
vn 0.0045 -0.0371 0.9993
vn 0.1713 -0.0358 0.9846
vn 0.4452 -0.0391 0.8946
vn 0.7024 -0.0406 0.7106
vn 0.9068 -0.0372 0.4199
vn 0.9892 -0.0278 0.1441
vn 0.0260 -0.0627 0.9977
vn -0.9087 -0.0222 0.4169
vn -0.9888 -0.0184 0.1480
vn -0.4341 -0.0230 0.9006
vn -0.7014 -0.0234 0.7123
vn -0.1528 -0.0218 0.9880
vt 0.000000 0.000000
s 1
f 94/1/1 401/1/2 631/1/3 369/1/4
f 401/1/2 91/1/5 378/1/6 631/1/3
f 631/1/3 378/1/6 38/1/7 287/1/8
f 369/1/4 631/1/3 287/1/8 76/1/9
f 1/1/10 212/1/11 632/1/12 211/1/13
f 212/1/11 4/1/14 213/1/15 632/1/12
f 632/1/12 213/1/15 6/1/16 214/1/17
f 211/1/13 632/1/12 214/1/17 5/1/18
f 4/1/14 215/1/19 633/1/20 213/1/15
f 215/1/19 8/1/21 216/1/22 633/1/20
f 633/1/20 216/1/22 9/1/23 217/1/24
f 213/1/15 633/1/20 217/1/24 6/1/16
f 2/1/25 219/1/26 634/1/27 218/1/28
f 219/1/26 7/1/29 220/1/30 634/1/27
f 634/1/27 220/1/30 9/1/23 216/1/22
f 218/1/28 634/1/27 216/1/22 8/1/21
f 7/1/29 221/1/31 635/1/32 220/1/30
f 221/1/31 11/1/33 222/1/34 635/1/32
f 635/1/32 222/1/34 12/1/35 223/1/36
f 220/1/30 635/1/32 223/1/36 9/1/23
f 3/1/37 225/1/38 636/1/39 224/1/40
f 225/1/38 10/1/41 226/1/42 636/1/39
f 636/1/39 226/1/42 12/1/35 222/1/34
f 224/1/40 636/1/39 222/1/34 11/1/33
f 10/1/41 227/1/43 637/1/44 226/1/42
f 227/1/43 5/1/18 214/1/17 637/1/44
f 637/1/44 214/1/17 6/1/16 228/1/45
f 226/1/42 637/1/44 228/1/45 12/1/35
f 6/1/16 217/1/24 638/1/46 228/1/45
f 9/1/23 223/1/36 638/1/46 217/1/24
f 12/1/35 228/1/45 638/1/46 223/1/36
f 13/1/47 230/1/48 639/1/49 229/1/50
f 230/1/48 16/1/51 231/1/52 639/1/49
f 639/1/49 231/1/52 18/1/53 232/1/54
f 229/1/50 639/1/49 232/1/54 17/1/55
f 16/1/51 233/1/56 640/1/57 231/1/52
f 233/1/56 20/1/58 234/1/59 640/1/57
f 640/1/57 234/1/59 21/1/60 235/1/61
f 231/1/52 640/1/57 235/1/61 18/1/53
f 14/1/62 237/1/63 641/1/64 236/1/65
f 237/1/63 19/1/66 238/1/67 641/1/64
f 641/1/64 238/1/67 21/1/60 234/1/59
f 236/1/65 641/1/64 234/1/59 20/1/58
f 19/1/66 239/1/68 642/1/69 238/1/67
f 239/1/68 23/1/70 240/1/71 642/1/69
f 642/1/69 240/1/71 24/1/72 241/1/73
f 238/1/67 642/1/69 241/1/73 21/1/60
f 15/1/74 243/1/75 643/1/76 242/1/77
f 243/1/75 22/1/78 244/1/79 643/1/76
f 643/1/76 244/1/79 24/1/72 240/1/71
f 242/1/77 643/1/76 240/1/71 23/1/70
f 22/1/78 245/1/80 644/1/81 244/1/79
f 245/1/80 17/1/55 232/1/54 644/1/81
f 644/1/81 232/1/54 18/1/53 246/1/82
f 244/1/79 644/1/81 246/1/82 24/1/72
f 18/1/53 235/1/61 645/1/83 246/1/82
f 21/1/60 241/1/73 645/1/83 235/1/61
f 24/1/72 246/1/82 645/1/83 241/1/73
f 25/1/84 248/1/85 646/1/86 247/1/87
f 248/1/85 28/1/88 249/1/89 646/1/86
f 646/1/86 249/1/89 30/1/90 250/1/91
f 247/1/87 646/1/86 250/1/91 29/1/92
f 28/1/88 251/1/93 647/1/94 249/1/89
f 251/1/93 32/1/95 252/1/96 647/1/94
f 647/1/94 252/1/96 33/1/97 253/1/98
f 249/1/89 647/1/94 253/1/98 30/1/90
f 26/1/99 255/1/100 648/1/101 254/1/102
f 255/1/100 31/1/103 256/1/104 648/1/101
f 648/1/101 256/1/104 33/1/97 252/1/96
f 254/1/102 648/1/101 252/1/96 32/1/95
f 31/1/103 257/1/105 649/1/106 256/1/104
f 257/1/105 35/1/107 258/1/108 649/1/106
f 649/1/106 258/1/108 36/1/109 259/1/110
f 256/1/104 649/1/106 259/1/110 33/1/97
f 27/1/111 261/1/112 650/1/113 260/1/114
f 261/1/112 34/1/115 262/1/116 650/1/113
f 650/1/113 262/1/116 36/1/109 258/1/108
f 260/1/114 650/1/113 258/1/108 35/1/107
f 34/1/115 263/1/117 651/1/118 262/1/116
f 263/1/117 29/1/92 250/1/91 651/1/118
f 651/1/118 250/1/91 30/1/90 264/1/119
f 262/1/116 651/1/118 264/1/119 36/1/109
f 30/1/90 253/1/98 652/1/120 264/1/119
f 33/1/97 259/1/110 652/1/120 253/1/98
f 36/1/109 264/1/119 652/1/120 259/1/110
f 37/1/121 266/1/122 653/1/123 265/1/124
f 266/1/122 40/1/125 267/1/126 653/1/123
f 653/1/123 267/1/126 42/1/127 268/1/128
f 265/1/124 653/1/123 268/1/128 41/1/129
f 40/1/125 269/1/130 654/1/131 267/1/126
f 269/1/130 44/1/132 270/1/133 654/1/131
f 654/1/131 270/1/133 45/1/134 271/1/135
f 267/1/126 654/1/131 271/1/135 42/1/127
f 38/1/7 273/1/136 655/1/137 272/1/138
f 273/1/136 43/1/139 274/1/140 655/1/137
f 655/1/137 274/1/140 45/1/134 270/1/133
f 272/1/138 655/1/137 270/1/133 44/1/132
f 43/1/139 275/1/141 656/1/142 274/1/140
f 275/1/141 47/1/143 276/1/144 656/1/142
f 656/1/142 276/1/144 48/1/145 277/1/146
f 274/1/140 656/1/142 277/1/146 45/1/134
f 39/1/147 279/1/148 657/1/149 278/1/150
f 279/1/148 46/1/151 280/1/152 657/1/149
f 657/1/149 280/1/152 48/1/145 276/1/144
f 278/1/150 657/1/149 276/1/144 47/1/143
f 46/1/151 281/1/153 658/1/154 280/1/152
f 281/1/153 41/1/129 268/1/128 658/1/154
f 658/1/154 268/1/128 42/1/127 282/1/155
f 280/1/152 658/1/154 282/1/155 48/1/145
f 42/1/127 271/1/135 659/1/156 282/1/155
f 45/1/134 277/1/146 659/1/156 271/1/135
f 48/1/145 282/1/155 659/1/156 277/1/146
f 75/1/157 283/1/158 660/1/159 368/1/160
f 283/1/158 13/1/47 229/1/50 660/1/159
f 660/1/159 229/1/50 17/1/55 350/1/161
f 368/1/160 660/1/159 350/1/161 77/1/162
f 77/1/162 350/1/161 661/1/163 367/1/164
f 350/1/161 17/1/55 245/1/80 661/1/163
f 661/1/163 245/1/80 22/1/78 351/1/165
f 367/1/164 661/1/163 351/1/165 78/1/166
f 78/1/166 351/1/165 662/1/167 366/1/168
f 351/1/165 22/1/78 243/1/75 662/1/167
f 662/1/167 243/1/75 15/1/74 352/1/169
f 366/1/168 662/1/167 352/1/169 79/1/170
f 76/1/9 287/1/8 663/1/171 365/1/172
f 287/1/8 38/1/7 272/1/138 663/1/171
f 663/1/171 272/1/138 44/1/132 353/1/173
f 365/1/172 663/1/171 353/1/173 80/1/174
f 80/1/174 353/1/173 664/1/175 364/1/176
f 353/1/173 44/1/132 269/1/130 664/1/175
f 664/1/175 269/1/130 40/1/125 354/1/177
f 364/1/176 664/1/175 354/1/177 81/1/178
f 81/1/178 354/1/177 665/1/179 363/1/180
f 354/1/177 40/1/125 266/1/122 665/1/179
f 665/1/179 266/1/122 37/1/121 355/1/181
f 363/1/180 665/1/179 355/1/181 82/1/182
f 84/1/183 291/1/184 666/1/185 400/1/186
f 291/1/184 39/1/147 278/1/150 666/1/185
f 666/1/185 278/1/150 47/1/143 376/1/187
f 400/1/186 666/1/185 376/1/187 89/1/188
f 89/1/188 376/1/187 667/1/189 399/1/190
f 376/1/187 47/1/143 275/1/141 667/1/189
f 667/1/189 275/1/141 43/1/139 377/1/191
f 399/1/190 667/1/189 377/1/191 90/1/192
f 90/1/192 377/1/191 668/1/193 398/1/194
f 377/1/191 43/1/139 273/1/136 668/1/193
f 668/1/193 273/1/136 38/1/7 378/1/6
f 398/1/194 668/1/193 378/1/6 91/1/5
f 98/1/195 295/1/196 669/1/197 434/1/198
f 295/1/196 3/1/37 224/1/40 669/1/197
f 669/1/197 224/1/40 11/1/33 408/1/199
f 434/1/198 669/1/197 408/1/199 100/1/200
f 100/1/200 408/1/199 670/1/201 433/1/202
f 408/1/199 11/1/33 221/1/31 670/1/201
f 670/1/201 221/1/31 7/1/29 409/1/203
f 433/1/202 670/1/201 409/1/203 101/1/204
f 101/1/204 409/1/203 671/1/205 432/1/206
f 409/1/203 7/1/29 219/1/26 671/1/205
f 671/1/205 219/1/26 2/1/25 410/1/207
f 432/1/206 671/1/205 410/1/207 102/1/208
f 84/1/183 382/1/209 672/1/210 291/1/184
f 382/1/209 195/1/211 595/1/212 672/1/210
f 672/1/210 595/1/212 143/1/213 358/1/214
f 291/1/184 672/1/210 358/1/214 39/1/147
f 46/1/151 359/1/215 673/1/216 281/1/153
f 359/1/215 149/1/217 493/1/218 673/1/216
f 673/1/216 493/1/218 145/1/219 361/1/220
f 281/1/153 673/1/216 361/1/220 41/1/129
f 82/1/182 360/1/221 674/1/222 306/1/223
f 360/1/221 181/1/224 573/1/225 674/1/222
f 674/1/222 573/1/225 158/1/226 429/1/227
f 306/1/223 674/1/222 429/1/227 56/1/228
f 70/1/229 335/1/230 675/1/231 347/1/232
f 335/1/230 55/1/233 307/1/234 675/1/231
f 675/1/231 307/1/234 56/1/228 336/1/235
f 347/1/232 675/1/231 336/1/235 71/1/236
f 69/1/237 334/1/238 676/1/239 346/1/240
f 334/1/238 54/1/241 308/1/242 676/1/239
f 676/1/239 308/1/242 55/1/233 335/1/230
f 346/1/240 676/1/239 335/1/230 70/1/229
f 73/1/243 303/1/244 677/1/245 345/1/246
f 303/1/244 53/1/247 309/1/248 677/1/245
f 677/1/245 309/1/248 54/1/241 334/1/238
f 345/1/246 677/1/245 334/1/238 69/1/237
f 67/1/249 332/1/250 678/1/251 344/1/252
f 332/1/250 51/1/253 310/1/254 678/1/251
f 678/1/251 310/1/254 52/1/255 333/1/256
f 344/1/252 678/1/251 333/1/256 68/1/257
f 66/1/258 331/1/259 679/1/260 343/1/261
f 331/1/259 50/1/262 311/1/263 679/1/260
f 679/1/260 311/1/263 51/1/253 332/1/250
f 343/1/261 679/1/260 332/1/250 67/1/249
f 72/1/264 299/1/265 680/1/266 342/1/267
f 299/1/265 49/1/268 312/1/269 680/1/266
f 680/1/266 312/1/269 50/1/262 331/1/259
f 342/1/267 680/1/266 331/1/259 66/1/258
f 93/1/270 394/1/271 681/1/272 341/1/273
f 394/1/271 88/1/274 313/1/275 681/1/272
f 681/1/272 313/1/275 53/1/247 303/1/244
f 341/1/273 681/1/272 303/1/244 73/1/243
f 99/1/276 413/1/277 682/1/278 314/1/279
f 413/1/277 202/1/280 612/1/281 682/1/278
f 682/1/278 612/1/281 165/1/282 370/1/283
f 314/1/279 682/1/278 370/1/283 57/1/284
f 71/1/236 430/1/285 683/1/286 290/1/287
f 430/1/285 178/1/288 562/1/289 683/1/286
f 683/1/286 562/1/289 130/1/290 419/1/291
f 290/1/287 683/1/286 419/1/291 25/1/84
f 104/1/292 427/1/293 684/1/294 340/1/295
f 427/1/293 103/1/296 322/1/297 684/1/294
f 684/1/294 322/1/297 65/1/298 339/1/299
f 340/1/295 684/1/294 339/1/299 74/1/300
f 32/1/95 416/1/301 685/1/302 254/1/102
f 416/1/301 139/1/303 485/1/304 685/1/302
f 685/1/302 485/1/304 132/1/305 431/1/306
f 254/1/102 685/1/302 431/1/306 26/1/99
f 92/1/307 417/1/308 686/1/309 318/1/310
f 417/1/308 192/1/311 592/1/312 686/1/309
f 686/1/309 592/1/312 169/1/313 426/1/314
f 318/1/310 686/1/309 426/1/314 61/1/315
f 10/1/41 393/1/316 687/1/317 227/1/43
f 393/1/316 113/1/318 439/1/319 687/1/317
f 687/1/317 439/1/319 109/1/320 383/1/321
f 227/1/43 687/1/317 383/1/321 5/1/18
f 1/1/10 386/1/322 688/1/323 337/1/324
f 386/1/322 106/1/325 510/1/326 688/1/323
f 688/1/323 510/1/326 173/1/327 395/1/328
f 337/1/324 688/1/323 395/1/328 72/1/264
f 49/1/268 396/1/329 689/1/330 348/1/331
f 396/1/329 157/1/332 526/1/333 689/1/330
f 689/1/330 526/1/333 184/1/334 392/1/335
f 348/1/331 689/1/330 392/1/335 75/1/157
f 20/1/58 402/1/336 690/1/337 236/1/65
f 402/1/336 127/1/338 467/1/339 690/1/337
f 690/1/337 467/1/339 120/1/340 397/1/341
f 236/1/65 690/1/337 397/1/341 14/1/62
f 86/1/342 373/1/343 691/1/344 389/1/345
f 373/1/343 63/1/346 324/1/347 691/1/344
f 691/1/344 324/1/347 64/1/348 374/1/349
f 389/1/345 691/1/344 374/1/349 87/1/350
f 85/1/351 372/1/352 692/1/353 388/1/354
f 372/1/352 62/1/355 325/1/356 692/1/353
f 692/1/353 325/1/356 63/1/346 373/1/343
f 388/1/354 692/1/353 373/1/343 86/1/342
f 92/1/307 318/1/310 693/1/357 387/1/358
f 318/1/310 61/1/315 326/1/359 693/1/357
f 693/1/357 326/1/359 62/1/355 372/1/352
f 387/1/358 693/1/357 372/1/352 85/1/351
f 96/1/360 404/1/361 694/1/362 423/1/363
f 404/1/361 59/1/364 327/1/365 694/1/362
f 694/1/362 327/1/365 60/1/366 405/1/367
f 423/1/363 694/1/362 405/1/367 97/1/368
f 95/1/369 403/1/370 695/1/371 422/1/372
f 403/1/370 58/1/373 328/1/374 695/1/371
f 695/1/371 328/1/374 59/1/364 404/1/361
f 422/1/372 695/1/371 404/1/361 96/1/360
f 99/1/276 314/1/279 696/1/375 421/1/376
f 314/1/279 57/1/284 329/1/377 696/1/375
f 696/1/375 329/1/377 58/1/373 403/1/370
f 421/1/376 696/1/375 403/1/370 95/1/369
f 105/1/378 420/1/379 697/1/380 357/1/381
f 420/1/379 97/1/368 405/1/367 697/1/380
f 697/1/380 405/1/367 60/1/366 356/1/382
f 357/1/381 697/1/380 356/1/382 83/1/383
f 120/1/340 518/1/384 698/1/385 397/1/341
f 518/1/384 202/1/280 413/1/277 698/1/385
f 698/1/385 413/1/277 99/1/276 407/1/386
f 397/1/341 698/1/385 407/1/386 14/1/62
f 102/1/208 418/1/387 699/1/388 321/1/389
f 418/1/387 104/1/292 340/1/295 699/1/388
f 699/1/388 340/1/295 74/1/300 323/1/390
f 321/1/389 699/1/388 323/1/390 64/1/348
f 98/1/195 425/1/391 700/1/392 295/1/196
f 425/1/391 208/1/393 618/1/394 700/1/392
f 700/1/392 618/1/394 107/1/395 424/1/396
f 295/1/196 700/1/392 424/1/396 3/1/37
f 87/1/350 385/1/397 701/1/398 298/1/399
f 385/1/397 93/1/270 341/1/273 701/1/398
f 701/1/398 341/1/273 73/1/243 338/1/400
f 298/1/399 701/1/398 338/1/400 27/1/111
f 1/1/10 337/1/324 702/1/401 212/1/11
f 337/1/324 72/1/264 342/1/267 702/1/401
f 702/1/401 342/1/267 66/1/258 284/1/402
f 212/1/11 702/1/401 284/1/402 4/1/14
f 4/1/14 284/1/402 703/1/403 215/1/19
f 284/1/402 66/1/258 343/1/261 703/1/403
f 703/1/403 343/1/261 67/1/249 285/1/404
f 215/1/19 703/1/403 285/1/404 8/1/21
f 8/1/21 285/1/404 704/1/405 218/1/28
f 285/1/404 67/1/249 344/1/252 704/1/405
f 704/1/405 344/1/252 68/1/257 286/1/406
f 218/1/28 704/1/405 286/1/406 2/1/25
f 27/1/111 338/1/400 705/1/407 261/1/112
f 338/1/400 73/1/243 345/1/246 705/1/407
f 705/1/407 345/1/246 69/1/237 288/1/408
f 261/1/112 705/1/407 288/1/408 34/1/115
f 34/1/115 288/1/408 706/1/409 263/1/117
f 288/1/408 69/1/237 346/1/240 706/1/409
f 706/1/409 346/1/240 70/1/229 289/1/410
f 263/1/117 706/1/409 289/1/410 29/1/92
f 29/1/92 289/1/410 707/1/411 247/1/87
f 289/1/410 70/1/229 347/1/232 707/1/411
f 707/1/411 347/1/232 71/1/236 290/1/287
f 247/1/87 707/1/411 290/1/287 25/1/84
f 56/1/228 429/1/227 708/1/412 336/1/235
f 429/1/227 158/1/226 527/1/413 708/1/412
f 708/1/412 527/1/413 178/1/288 430/1/285
f 336/1/235 708/1/412 430/1/285 71/1/236
f 103/1/296 415/1/414 709/1/415 322/1/297
f 415/1/414 105/1/378 357/1/381 709/1/415
f 709/1/415 357/1/381 83/1/383 330/1/416
f 322/1/297 709/1/415 330/1/416 65/1/298
f 39/1/147 358/1/214 710/1/417 279/1/148
f 358/1/214 143/1/213 496/1/418 710/1/417
f 710/1/417 496/1/418 149/1/217 359/1/215
f 279/1/148 710/1/417 359/1/215 46/1/151
f 41/1/129 361/1/220 711/1/419 265/1/124
f 361/1/220 145/1/219 490/1/420 711/1/419
f 711/1/419 490/1/420 142/1/421 362/1/422
f 265/1/124 711/1/419 362/1/422 37/1/121
f 37/1/121 362/1/422 712/1/423 355/1/181
f 362/1/422 142/1/421 511/1/424 712/1/423
f 712/1/423 511/1/424 181/1/224 360/1/221
f 355/1/181 712/1/423 360/1/221 82/1/182
f 55/1/233 305/1/425 713/1/426 307/1/234
f 305/1/425 81/1/178 363/1/180 713/1/426
f 713/1/426 363/1/180 82/1/182 306/1/223
f 307/1/234 713/1/426 306/1/223 56/1/228
f 54/1/241 304/1/427 714/1/428 308/1/242
f 304/1/427 80/1/174 364/1/176 714/1/428
f 714/1/428 364/1/176 81/1/178 305/1/425
f 308/1/242 714/1/428 305/1/425 55/1/233
f 53/1/247 349/1/429 715/1/430 309/1/248
f 349/1/429 76/1/9 365/1/172 715/1/430
f 715/1/430 365/1/172 80/1/174 304/1/427
f 309/1/248 715/1/430 304/1/427 54/1/241
f 51/1/253 301/1/431 716/1/432 310/1/254
f 301/1/431 78/1/166 366/1/168 716/1/432
f 716/1/432 366/1/168 79/1/170 302/1/433
f 310/1/254 716/1/432 302/1/433 52/1/255
f 50/1/262 300/1/434 717/1/435 311/1/263
f 300/1/434 77/1/162 367/1/164 717/1/435
f 717/1/435 367/1/164 78/1/166 301/1/431
f 311/1/263 717/1/435 301/1/431 51/1/253
f 49/1/268 348/1/331 718/1/436 312/1/269
f 348/1/331 75/1/157 368/1/160 718/1/436
f 718/1/436 368/1/160 77/1/162 300/1/434
f 312/1/269 718/1/436 300/1/434 50/1/262
f 88/1/274 384/1/437 719/1/438 313/1/275
f 384/1/437 94/1/1 369/1/4 719/1/438
f 719/1/438 369/1/4 76/1/9 349/1/429
f 313/1/275 719/1/438 349/1/429 53/1/247
f 165/1/282 541/1/439 720/1/440 370/1/283
f 541/1/439 195/1/211 382/1/209 720/1/440
f 720/1/440 382/1/209 84/1/183 371/1/441
f 370/1/283 720/1/440 371/1/441 57/1/284
f 25/1/84 419/1/291 721/1/442 248/1/85
f 419/1/291 130/1/290 471/1/443 721/1/442
f 721/1/442 471/1/443 134/1/444 428/1/445
f 248/1/85 721/1/442 428/1/445 28/1/88
f 65/1/298 330/1/416 722/1/446 375/1/447
f 330/1/416 83/1/383 381/1/448 722/1/446
f 722/1/446 381/1/448 94/1/1 384/1/437
f 375/1/447 722/1/446 384/1/437 88/1/274
f 64/1/348 323/1/390 723/1/449 374/1/349
f 323/1/390 74/1/300 380/1/450 723/1/449
f 723/1/449 380/1/450 93/1/270 385/1/397
f 374/1/349 723/1/449 385/1/397 87/1/350
f 5/1/18 383/1/321 724/1/451 211/1/13
f 383/1/321 109/1/320 436/1/452 724/1/451
f 724/1/451 436/1/452 106/1/325 386/1/322
f 211/1/13 724/1/451 386/1/322 1/1/10
f 26/1/99 379/1/453 725/1/454 255/1/100
f 379/1/453 92/1/307 387/1/358 725/1/454
f 725/1/454 387/1/358 85/1/351 296/1/455
f 255/1/100 725/1/454 296/1/455 31/1/103
f 31/1/103 296/1/455 726/1/456 257/1/105
f 296/1/455 85/1/351 388/1/354 726/1/456
f 726/1/456 388/1/354 86/1/342 297/1/457
f 257/1/105 726/1/456 297/1/457 35/1/107
f 35/1/107 297/1/457 727/1/458 260/1/114
f 297/1/457 86/1/342 389/1/345 727/1/458
f 727/1/458 389/1/345 87/1/350 298/1/399
f 260/1/114 727/1/458 298/1/399 27/1/111
f 28/1/88 428/1/445 728/1/459 251/1/93
f 428/1/445 134/1/444 487/1/460 728/1/459
f 728/1/459 487/1/460 139/1/303 416/1/301
f 251/1/93 728/1/459 416/1/301 32/1/95
f 74/1/300 339/1/299 729/1/461 380/1/450
f 339/1/299 65/1/298 375/1/447 729/1/461
f 729/1/461 375/1/447 88/1/274 394/1/271
f 380/1/450 729/1/461 394/1/271 93/1/270
f 72/1/264 395/1/328 730/1/462 299/1/265
f 395/1/328 173/1/327 557/1/463 730/1/462
f 730/1/462 557/1/463 157/1/332 396/1/329
f 299/1/265 730/1/462 396/1/329 49/1/268
f 75/1/157 392/1/335 731/1/464 283/1/158
f 392/1/335 184/1/334 576/1/465 731/1/464
f 731/1/464 576/1/465 118/1/466 391/1/467
f 283/1/158 731/1/464 391/1/467 13/1/47
f 16/1/51 390/1/468 732/1/469 233/1/56
f 390/1/468 122/1/470 469/1/471 732/1/469
f 732/1/469 469/1/471 127/1/338 402/1/336
f 233/1/56 732/1/469 402/1/336 20/1/58
f 59/1/364 316/1/472 733/1/473 327/1/365
f 316/1/472 90/1/192 398/1/194 733/1/473
f 733/1/473 398/1/194 91/1/5 317/1/474
f 327/1/365 733/1/473 317/1/474 60/1/366
f 58/1/373 315/1/475 734/1/476 328/1/374
f 315/1/475 89/1/188 399/1/190 734/1/476
f 734/1/476 399/1/190 90/1/192 316/1/472
f 328/1/374 734/1/476 316/1/472 59/1/364
f 57/1/284 371/1/441 735/1/477 329/1/377
f 371/1/441 84/1/183 400/1/186 735/1/477
f 735/1/477 400/1/186 89/1/188 315/1/475
f 329/1/377 735/1/477 315/1/475 58/1/373
f 83/1/383 356/1/382 736/1/478 381/1/448
f 356/1/382 60/1/366 317/1/474 736/1/478
f 736/1/478 317/1/474 91/1/5 401/1/2
f 381/1/448 736/1/478 401/1/2 94/1/1
f 13/1/47 391/1/467 737/1/479 230/1/48
f 391/1/467 118/1/466 453/1/480 737/1/479
f 737/1/479 453/1/480 122/1/470 390/1/468
f 230/1/48 737/1/479 390/1/468 16/1/51
f 52/1/255 302/1/433 738/1/481 411/1/482
f 302/1/433 79/1/170 414/1/483 738/1/481
f 738/1/481 414/1/483 105/1/378 415/1/414
f 411/1/482 738/1/481 415/1/414 103/1/296
f 2/1/25 286/1/406 739/1/484 410/1/207
f 286/1/406 68/1/257 412/1/485 739/1/484
f 739/1/484 412/1/485 104/1/292 418/1/387
f 410/1/207 739/1/484 418/1/387 102/1/208
f 79/1/170 352/1/169 740/1/486 414/1/483
f 352/1/169 15/1/74 294/1/487 740/1/486
f 740/1/486 294/1/487 97/1/368 420/1/379
f 414/1/483 740/1/486 420/1/379 105/1/378
f 14/1/62 407/1/386 741/1/488 237/1/63
f 407/1/386 99/1/276 421/1/376 741/1/488
f 741/1/488 421/1/376 95/1/369 292/1/489
f 237/1/63 741/1/488 292/1/489 19/1/66
f 19/1/66 292/1/489 742/1/490 239/1/68
f 292/1/489 95/1/369 422/1/372 742/1/490
f 742/1/490 422/1/372 96/1/360 293/1/491
f 239/1/68 742/1/490 293/1/491 23/1/70
f 23/1/70 293/1/491 743/1/492 242/1/77
f 293/1/491 96/1/360 423/1/363 743/1/492
f 743/1/492 423/1/363 97/1/368 294/1/487
f 242/1/77 743/1/492 294/1/487 15/1/74
f 68/1/257 333/1/256 744/1/493 412/1/485
f 333/1/256 52/1/255 411/1/482 744/1/493
f 744/1/493 411/1/482 103/1/296 427/1/293
f 412/1/485 744/1/493 427/1/293 104/1/292
f 26/1/99 431/1/306 745/1/494 379/1/453
f 431/1/306 132/1/305 522/1/495 745/1/494
f 745/1/494 522/1/495 192/1/311 417/1/308
f 379/1/453 745/1/494 417/1/308 92/1/307
f 61/1/315 426/1/314 746/1/496 406/1/497
f 426/1/314 169/1/313 545/1/498 746/1/496
f 746/1/496 545/1/498 208/1/393 425/1/391
f 406/1/497 746/1/496 425/1/391 98/1/195
f 3/1/37 424/1/396 747/1/499 225/1/38
f 424/1/396 107/1/395 442/1/500 747/1/499
f 747/1/499 442/1/500 113/1/318 393/1/316
f 225/1/38 747/1/499 393/1/316 10/1/41
f 63/1/346 320/1/501 748/1/502 324/1/347
f 320/1/501 101/1/204 432/1/206 748/1/502
f 748/1/502 432/1/206 102/1/208 321/1/389
f 324/1/347 748/1/502 321/1/389 64/1/348
f 62/1/355 319/1/503 749/1/504 325/1/356
f 319/1/503 100/1/200 433/1/202 749/1/504
f 749/1/504 433/1/202 101/1/204 320/1/501
f 325/1/356 749/1/504 320/1/501 63/1/346
f 61/1/315 406/1/497 750/1/505 326/1/359
f 406/1/497 98/1/195 434/1/198 750/1/505
f 750/1/505 434/1/198 100/1/200 319/1/503
f 326/1/359 750/1/505 319/1/503 62/1/355
f 199/1/506 599/1/507 751/1/508 609/1/509
f 599/1/507 187/1/510 579/1/511 751/1/508
f 751/1/508 579/1/511 144/1/512 515/1/513
f 609/1/509 751/1/508 515/1/513 189/1/514
f 106/1/325 436/1/452 752/1/515 435/1/516
f 436/1/452 109/1/320 437/1/517 752/1/515
f 752/1/515 437/1/517 111/1/518 438/1/519
f 435/1/516 752/1/515 438/1/519 110/1/520
f 109/1/320 439/1/319 753/1/521 437/1/517
f 439/1/319 113/1/318 440/1/522 753/1/521
f 753/1/521 440/1/522 114/1/523 441/1/524
f 437/1/517 753/1/521 441/1/524 111/1/518
f 107/1/395 443/1/525 754/1/526 442/1/500
f 443/1/525 112/1/527 444/1/528 754/1/526
f 754/1/526 444/1/528 114/1/523 440/1/522
f 442/1/500 754/1/526 440/1/522 113/1/318
f 112/1/527 445/1/529 755/1/530 444/1/528
f 445/1/529 116/1/531 446/1/532 755/1/530
f 755/1/530 446/1/532 117/1/533 447/1/534
f 444/1/528 755/1/530 447/1/534 114/1/523
f 108/1/535 449/1/536 756/1/537 448/1/538
f 449/1/536 115/1/539 450/1/540 756/1/537
f 756/1/537 450/1/540 117/1/533 446/1/532
f 448/1/538 756/1/537 446/1/532 116/1/531
f 115/1/539 451/1/541 757/1/542 450/1/540
f 451/1/541 110/1/520 438/1/519 757/1/542
f 757/1/542 438/1/519 111/1/518 452/1/543
f 450/1/540 757/1/542 452/1/543 117/1/533
f 111/1/518 441/1/524 758/1/544 452/1/543
f 114/1/523 447/1/534 758/1/544 441/1/524
f 117/1/533 452/1/543 758/1/544 447/1/534
f 118/1/466 454/1/545 759/1/546 453/1/480
f 454/1/545 121/1/547 455/1/548 759/1/546
f 759/1/546 455/1/548 123/1/549 456/1/550
f 453/1/480 759/1/546 456/1/550 122/1/470
f 121/1/547 457/1/551 760/1/552 455/1/548
f 457/1/551 125/1/553 458/1/554 760/1/552
f 760/1/552 458/1/554 126/1/555 459/1/556
f 455/1/548 760/1/552 459/1/556 123/1/549
f 119/1/557 461/1/558 761/1/559 460/1/560
f 461/1/558 124/1/561 462/1/562 761/1/559
f 761/1/559 462/1/562 126/1/555 458/1/554
f 460/1/560 761/1/559 458/1/554 125/1/553
f 124/1/561 463/1/563 762/1/564 462/1/562
f 463/1/563 128/1/565 464/1/566 762/1/564
f 762/1/564 464/1/566 129/1/567 465/1/568
f 462/1/562 762/1/564 465/1/568 126/1/555
f 120/1/340 467/1/339 763/1/569 466/1/570
f 467/1/339 127/1/338 468/1/571 763/1/569
f 763/1/569 468/1/571 129/1/567 464/1/566
f 466/1/570 763/1/569 464/1/566 128/1/565
f 127/1/338 469/1/471 764/1/572 468/1/571
f 469/1/471 122/1/470 456/1/550 764/1/572
f 764/1/572 456/1/550 123/1/549 470/1/573
f 468/1/571 764/1/572 470/1/573 129/1/567
f 123/1/549 459/1/556 765/1/574 470/1/573
f 126/1/555 465/1/568 765/1/574 459/1/556
f 129/1/567 470/1/573 765/1/574 465/1/568
f 130/1/290 472/1/575 766/1/576 471/1/443
f 472/1/575 133/1/577 473/1/578 766/1/576
f 766/1/576 473/1/578 135/1/579 474/1/580
f 471/1/443 766/1/576 474/1/580 134/1/444
f 133/1/577 475/1/581 767/1/582 473/1/578
f 475/1/581 137/1/583 476/1/584 767/1/582
f 767/1/582 476/1/584 138/1/585 477/1/586
f 473/1/578 767/1/582 477/1/586 135/1/579
f 131/1/587 479/1/588 768/1/589 478/1/590
f 479/1/588 136/1/591 480/1/592 768/1/589
f 768/1/589 480/1/592 138/1/585 476/1/584
f 478/1/590 768/1/589 476/1/584 137/1/583
f 136/1/591 481/1/593 769/1/594 480/1/592
f 481/1/593 140/1/595 482/1/596 769/1/594
f 769/1/594 482/1/596 141/1/597 483/1/598
f 480/1/592 769/1/594 483/1/598 138/1/585
f 132/1/305 485/1/304 770/1/599 484/1/600
f 485/1/304 139/1/303 486/1/601 770/1/599
f 770/1/599 486/1/601 141/1/597 482/1/596
f 484/1/600 770/1/599 482/1/596 140/1/595
f 139/1/303 487/1/460 771/1/602 486/1/601
f 487/1/460 134/1/444 474/1/580 771/1/602
f 771/1/602 474/1/580 135/1/579 488/1/603
f 486/1/601 771/1/602 488/1/603 141/1/597
f 135/1/579 477/1/586 772/1/604 488/1/603
f 138/1/585 483/1/598 772/1/604 477/1/586
f 141/1/597 488/1/603 772/1/604 483/1/598
f 142/1/421 490/1/420 773/1/605 489/1/606
f 490/1/420 145/1/219 491/1/607 773/1/605
f 773/1/605 491/1/607 147/1/608 492/1/609
f 489/1/606 773/1/605 492/1/609 146/1/610
f 145/1/219 493/1/218 774/1/611 491/1/607
f 493/1/218 149/1/217 494/1/612 774/1/611
f 774/1/611 494/1/612 150/1/613 495/1/614
f 491/1/607 774/1/611 495/1/614 147/1/608
f 143/1/213 497/1/615 775/1/616 496/1/418
f 497/1/615 148/1/617 498/1/618 775/1/616
f 775/1/616 498/1/618 150/1/613 494/1/612
f 496/1/418 775/1/616 494/1/612 149/1/217
f 148/1/617 499/1/619 776/1/620 498/1/618
f 499/1/619 152/1/621 500/1/622 776/1/620
f 776/1/620 500/1/622 153/1/623 501/1/624
f 498/1/618 776/1/620 501/1/624 150/1/613
f 144/1/512 503/1/625 777/1/626 502/1/627
f 503/1/625 151/1/628 504/1/629 777/1/626
f 777/1/626 504/1/629 153/1/623 500/1/622
f 502/1/627 777/1/626 500/1/622 152/1/621
f 151/1/628 505/1/630 778/1/631 504/1/629
f 505/1/630 146/1/610 492/1/609 778/1/631
f 778/1/631 492/1/609 147/1/608 506/1/632
f 504/1/629 778/1/631 506/1/632 153/1/623
f 147/1/608 495/1/614 779/1/633 506/1/632
f 150/1/613 501/1/624 779/1/633 495/1/614
f 153/1/623 506/1/632 779/1/633 501/1/624
f 180/1/634 507/1/635 780/1/636 587/1/637
f 507/1/635 119/1/557 460/1/560 780/1/636
f 780/1/636 460/1/560 125/1/553 574/1/638
f 587/1/637 780/1/636 574/1/638 182/1/639
f 182/1/639 574/1/638 781/1/640 586/1/641
f 574/1/638 125/1/553 457/1/551 781/1/640
f 781/1/640 457/1/551 121/1/547 575/1/642
f 586/1/641 781/1/640 575/1/642 183/1/643
f 183/1/643 575/1/642 782/1/644 585/1/645
f 575/1/642 121/1/547 454/1/545 782/1/644
f 782/1/644 454/1/545 118/1/466 576/1/465
f 585/1/645 782/1/644 576/1/465 184/1/334
f 181/1/224 511/1/424 783/1/646 584/1/647
f 511/1/424 142/1/421 489/1/606 783/1/646
f 783/1/646 489/1/606 146/1/610 577/1/648
f 584/1/647 783/1/646 577/1/648 185/1/649
f 185/1/649 577/1/648 784/1/650 583/1/651
f 577/1/648 146/1/610 505/1/630 784/1/650
f 784/1/650 505/1/630 151/1/628 578/1/652
f 583/1/651 784/1/650 578/1/652 186/1/653
f 186/1/653 578/1/652 785/1/654 582/1/655
f 578/1/652 151/1/628 503/1/625 785/1/654
f 785/1/654 503/1/625 144/1/512 579/1/511
f 582/1/655 785/1/654 579/1/511 187/1/510
f 189/1/514 515/1/513 786/1/656 608/1/657
f 515/1/513 144/1/512 502/1/627 786/1/656
f 786/1/656 502/1/627 152/1/621 593/1/658
f 608/1/657 786/1/656 593/1/658 193/1/659
f 193/1/659 593/1/658 787/1/660 607/1/661
f 593/1/658 152/1/621 499/1/619 787/1/660
f 787/1/660 499/1/619 148/1/617 594/1/662
f 607/1/661 787/1/660 594/1/662 194/1/663
f 194/1/663 594/1/662 788/1/664 606/1/665
f 594/1/662 148/1/617 497/1/615 788/1/664
f 788/1/664 497/1/615 143/1/213 595/1/212
f 606/1/665 788/1/664 595/1/212 195/1/211
f 203/1/666 519/1/667 789/1/668 630/1/669
f 519/1/667 108/1/535 448/1/538 789/1/668
f 789/1/668 448/1/538 116/1/531 616/1/670
f 630/1/669 789/1/668 616/1/670 206/1/671
f 206/1/671 616/1/670 790/1/672 629/1/673
f 616/1/670 116/1/531 445/1/529 790/1/672
f 790/1/672 445/1/529 112/1/527 617/1/674
f 629/1/673 790/1/672 617/1/674 207/1/675
f 207/1/675 617/1/674 791/1/676 628/1/677
f 617/1/674 112/1/527 443/1/525 791/1/676
f 791/1/676 443/1/525 107/1/395 618/1/394
f 628/1/677 791/1/676 618/1/394 208/1/393
f 175/1/678 559/1/679 792/1/680 571/1/681
f 559/1/679 160/1/682 531/1/683 792/1/680
f 792/1/680 531/1/683 161/1/684 560/1/685
f 571/1/681 792/1/680 560/1/685 176/1/686
f 174/1/687 558/1/688 793/1/689 570/1/690
f 558/1/688 159/1/691 532/1/692 793/1/689
f 793/1/689 532/1/692 160/1/682 559/1/679
f 570/1/690 793/1/689 559/1/679 175/1/678
f 178/1/288 527/1/413 794/1/693 569/1/694
f 527/1/413 158/1/226 533/1/695 794/1/693
f 794/1/693 533/1/695 159/1/691 558/1/688
f 569/1/694 794/1/693 558/1/688 174/1/687
f 172/1/696 556/1/697 795/1/698 568/1/699
f 556/1/697 156/1/700 534/1/701 795/1/698
f 795/1/698 534/1/701 157/1/332 557/1/463
f 568/1/699 795/1/698 557/1/463 173/1/327
f 171/1/702 555/1/703 796/1/704 567/1/705
f 555/1/703 155/1/706 535/1/707 796/1/704
f 796/1/704 535/1/707 156/1/700 556/1/697
f 567/1/705 796/1/704 556/1/697 172/1/696
f 177/1/708 523/1/709 797/1/710 566/1/711
f 523/1/709 154/1/712 536/1/713 797/1/710
f 797/1/710 536/1/713 155/1/706 555/1/703
f 566/1/711 797/1/710 555/1/703 171/1/702
f 198/1/714 598/1/715 798/1/716 605/1/717
f 598/1/715 176/1/686 560/1/685 798/1/716
f 798/1/716 560/1/685 161/1/684 597/1/718
f 605/1/717 798/1/716 597/1/718 197/1/719
f 209/1/720 619/1/721 799/1/722 627/1/723
f 619/1/721 179/1/724 547/1/725 799/1/722
f 799/1/722 547/1/725 170/1/726 614/1/727
f 627/1/723 799/1/722 614/1/727 204/1/728
f 191/1/729 591/1/730 800/1/731 604/1/732
f 591/1/730 168/1/733 548/1/734 800/1/731
f 800/1/731 548/1/734 169/1/313 592/1/312
f 604/1/732 800/1/731 592/1/312 192/1/311
f 190/1/735 590/1/736 801/1/737 603/1/738
f 590/1/736 167/1/739 549/1/740 801/1/737
f 801/1/737 549/1/740 168/1/733 591/1/730
f 603/1/738 801/1/737 591/1/730 191/1/729
f 196/1/741 542/1/742 802/1/743 602/1/744
f 542/1/742 166/1/745 550/1/746 802/1/743
f 802/1/743 550/1/746 167/1/739 590/1/736
f 602/1/744 802/1/743 590/1/736 190/1/735
f 201/1/747 611/1/748 803/1/749 626/1/750
f 611/1/748 164/1/751 551/1/752 803/1/749
f 803/1/749 551/1/752 165/1/282 612/1/281
f 626/1/750 803/1/749 612/1/281 202/1/280
f 200/1/753 610/1/754 804/1/755 625/1/756
f 610/1/754 163/1/757 552/1/758 804/1/755
f 804/1/755 552/1/758 164/1/751 611/1/748
f 625/1/756 804/1/755 611/1/748 201/1/747
f 205/1/759 538/1/760 805/1/761 624/1/762
f 538/1/760 162/1/763 553/1/764 805/1/761
f 805/1/761 553/1/764 163/1/757 610/1/754
f 624/1/762 805/1/761 610/1/754 200/1/753
f 210/1/765 620/1/766 806/1/767 623/1/768
f 620/1/766 188/1/769 554/1/770 806/1/767
f 806/1/767 554/1/770 162/1/763 538/1/760
f 623/1/768 806/1/767 538/1/760 205/1/759
f 203/1/666 613/1/771 807/1/772 622/1/773
f 613/1/771 166/1/745 563/1/774 807/1/772
f 807/1/772 563/1/774 179/1/724 619/1/721
f 622/1/773 807/1/772 619/1/721 209/1/720
f 196/1/741 596/1/775 808/1/776 601/1/777
f 596/1/775 131/1/587 514/1/778 808/1/776
f 808/1/776 514/1/778 176/1/686 598/1/715
f 601/1/777 808/1/776 598/1/715 198/1/714
f 108/1/535 561/1/779 809/1/780 449/1/536
f 561/1/779 177/1/708 566/1/711 809/1/780
f 809/1/780 566/1/711 171/1/702 508/1/781
f 449/1/536 809/1/780 508/1/781 115/1/539
f 115/1/539 508/1/781 810/1/782 451/1/541
f 508/1/781 171/1/702 567/1/705 810/1/782
f 810/1/782 567/1/705 172/1/696 509/1/783
f 451/1/541 810/1/782 509/1/783 110/1/520
f 110/1/520 509/1/783 811/1/784 435/1/516
f 509/1/783 172/1/696 568/1/699 811/1/784
f 811/1/784 568/1/699 173/1/327 510/1/326
f 435/1/516 811/1/784 510/1/326 106/1/325
f 130/1/290 562/1/289 812/1/785 472/1/575
f 562/1/289 178/1/288 569/1/694 812/1/785
f 812/1/785 569/1/694 174/1/687 512/1/786
f 472/1/575 812/1/785 512/1/786 133/1/577
f 133/1/577 512/1/786 813/1/787 475/1/581
f 512/1/786 174/1/687 570/1/690 813/1/787
f 813/1/787 570/1/690 175/1/678 513/1/788
f 475/1/581 813/1/787 513/1/788 137/1/583
f 137/1/583 513/1/788 814/1/789 478/1/590
f 513/1/788 175/1/678 571/1/681 814/1/789
f 814/1/789 571/1/681 176/1/686 514/1/778
f 478/1/590 814/1/789 514/1/778 131/1/587
f 204/1/728 614/1/727 815/1/790 621/1/791
f 614/1/727 170/1/726 580/1/792 815/1/790
f 815/1/790 580/1/792 188/1/769 620/1/766
f 621/1/791 815/1/790 620/1/766 210/1/765
f 160/1/682 529/1/793 816/1/794 531/1/683
f 529/1/793 186/1/653 582/1/655 816/1/794
f 816/1/794 582/1/655 187/1/510 530/1/795
f 531/1/683 816/1/794 530/1/795 161/1/684
f 159/1/691 528/1/796 817/1/797 532/1/692
f 528/1/796 185/1/649 583/1/651 817/1/797
f 817/1/797 583/1/651 186/1/653 529/1/793
f 532/1/692 817/1/797 529/1/793 160/1/682
f 158/1/226 573/1/225 818/1/798 533/1/695
f 573/1/225 181/1/224 584/1/647 818/1/798
f 818/1/798 584/1/647 185/1/649 528/1/796
f 533/1/695 818/1/798 528/1/796 159/1/691
f 156/1/700 525/1/799 819/1/800 534/1/701
f 525/1/799 183/1/643 585/1/645 819/1/800
f 819/1/800 585/1/645 184/1/334 526/1/333
f 534/1/701 819/1/800 526/1/333 157/1/332
f 155/1/706 524/1/801 820/1/802 535/1/707
f 524/1/801 182/1/639 586/1/641 820/1/802
f 820/1/802 586/1/641 183/1/643 525/1/799
f 535/1/707 820/1/802 525/1/799 156/1/700
f 154/1/712 572/1/803 821/1/804 536/1/713
f 572/1/803 180/1/634 587/1/637 821/1/804
f 821/1/804 587/1/637 182/1/639 524/1/801
f 536/1/713 821/1/804 524/1/801 155/1/706
f 197/1/719 597/1/718 822/1/805 600/1/806
f 597/1/718 161/1/684 530/1/795 822/1/805
f 822/1/805 530/1/795 187/1/510 599/1/507
f 600/1/806 822/1/805 599/1/507 199/1/506
f 170/1/726 546/1/807 823/1/808 580/1/792
f 546/1/807 197/1/719 600/1/806 823/1/808
f 823/1/808 600/1/806 199/1/506 588/1/809
f 580/1/792 823/1/808 588/1/809 188/1/769
f 166/1/745 542/1/742 824/1/810 563/1/774
f 542/1/742 196/1/741 601/1/777 824/1/810
f 824/1/810 601/1/777 198/1/714 565/1/811
f 563/1/774 824/1/810 565/1/811 179/1/724
f 131/1/587 596/1/775 825/1/812 479/1/588
f 596/1/775 196/1/741 602/1/744 825/1/812
f 825/1/812 602/1/744 190/1/735 520/1/813
f 479/1/588 825/1/812 520/1/813 136/1/591
f 136/1/591 520/1/813 826/1/814 481/1/593
f 520/1/813 190/1/735 603/1/738 826/1/814
f 826/1/814 603/1/738 191/1/729 521/1/815
f 481/1/593 826/1/814 521/1/815 140/1/595
f 140/1/595 521/1/815 827/1/816 484/1/600
f 521/1/815 191/1/729 604/1/732 827/1/816
f 827/1/816 604/1/732 192/1/311 522/1/495
f 484/1/600 827/1/816 522/1/495 132/1/305
f 179/1/724 565/1/811 828/1/817 547/1/725
f 565/1/811 198/1/714 605/1/717 828/1/817
f 828/1/817 605/1/717 197/1/719 546/1/807
f 547/1/725 828/1/817 546/1/807 170/1/726
f 164/1/751 540/1/818 829/1/819 551/1/752
f 540/1/818 194/1/663 606/1/665 829/1/819
f 829/1/819 606/1/665 195/1/211 541/1/439
f 551/1/752 829/1/819 541/1/439 165/1/282
f 163/1/757 539/1/820 830/1/821 552/1/758
f 539/1/820 193/1/659 607/1/661 830/1/821
f 830/1/821 607/1/661 194/1/663 540/1/818
f 552/1/758 830/1/821 540/1/818 164/1/751
f 162/1/763 589/1/822 831/1/823 553/1/764
f 589/1/822 189/1/514 608/1/657 831/1/823
f 831/1/823 608/1/657 193/1/659 539/1/820
f 553/1/764 831/1/823 539/1/820 163/1/757
f 188/1/769 588/1/809 832/1/824 554/1/770
f 588/1/809 199/1/506 609/1/509 832/1/824
f 832/1/824 609/1/509 189/1/514 589/1/822
f 554/1/770 832/1/824 589/1/822 162/1/763
f 154/1/712 537/1/825 833/1/826 572/1/803
f 537/1/825 204/1/728 621/1/791 833/1/826
f 833/1/826 621/1/791 210/1/765 581/1/827
f 572/1/803 833/1/826 581/1/827 180/1/634
f 108/1/535 519/1/667 834/1/828 561/1/779
f 519/1/667 203/1/666 622/1/773 834/1/828
f 834/1/828 622/1/773 209/1/720 564/1/829
f 561/1/779 834/1/828 564/1/829 177/1/708
f 180/1/634 581/1/827 835/1/830 507/1/635
f 581/1/827 210/1/765 623/1/768 835/1/830
f 835/1/830 623/1/768 205/1/759 615/1/831
f 507/1/635 835/1/830 615/1/831 119/1/557
f 119/1/557 615/1/831 836/1/832 461/1/558
f 615/1/831 205/1/759 624/1/762 836/1/832
f 836/1/832 624/1/762 200/1/753 516/1/833
f 461/1/558 836/1/832 516/1/833 124/1/561
f 124/1/561 516/1/833 837/1/834 463/1/563
f 516/1/833 200/1/753 625/1/756 837/1/834
f 837/1/834 625/1/756 201/1/747 517/1/835
f 463/1/563 837/1/834 517/1/835 128/1/565
f 128/1/565 517/1/835 838/1/836 466/1/570
f 517/1/835 201/1/747 626/1/750 838/1/836
f 838/1/836 626/1/750 202/1/280 518/1/384
f 466/1/570 838/1/836 518/1/384 120/1/340
f 177/1/708 564/1/829 839/1/837 523/1/709
f 564/1/829 209/1/720 627/1/723 839/1/837
f 839/1/837 627/1/723 204/1/728 537/1/825
f 523/1/709 839/1/837 537/1/825 154/1/712
f 168/1/733 544/1/838 840/1/839 548/1/734
f 544/1/838 207/1/675 628/1/677 840/1/839
f 840/1/839 628/1/677 208/1/393 545/1/498
f 548/1/734 840/1/839 545/1/498 169/1/313
f 167/1/739 543/1/840 841/1/841 549/1/740
f 543/1/840 206/1/671 629/1/673 841/1/841
f 841/1/841 629/1/673 207/1/675 544/1/838
f 549/1/740 841/1/841 544/1/838 168/1/733
f 166/1/745 613/1/771 842/1/842 550/1/746
f 613/1/771 203/1/666 630/1/669 842/1/842
f 842/1/842 630/1/669 206/1/671 543/1/840
f 550/1/746 842/1/842 543/1/840 167/1/739
