# Blender 4.3.1
# www.blender.org
mtllib Cube.001_export.mtl
o Cube.001_export
v -1.101703 -0.971604 0.118749
v -1.384356 0.983608 0.119499
v -1.063866 -1.004502 -0.144572
v -1.348261 1.022021 -0.142873
v 0.000000 -1.004502 -0.144572
v 0.000000 0.981828 -0.144572
v 0.000000 -1.004502 0.118749
v 0.000000 0.981828 0.118748
v -0.676155 -1.004502 -0.144572
v -0.676155 0.981828 0.118748
v -0.676155 0.981828 -0.144572
v -0.676155 -1.004502 0.118749
v -1.365421 -0.971604 0.118749
v -1.654371 0.979199 0.117323
v -1.393900 -1.004502 -0.144572
v -1.684281 1.016534 -0.145581
v 1.101703 -0.971604 0.118749
v 1.383440 0.987540 0.119465
v 1.063866 -1.004502 -0.144572
v 1.350665 1.029190 -0.142849
v 0.676155 -1.004502 -0.144572
v 0.676155 0.981828 0.118748
v 0.676155 0.981828 -0.144572
v 0.676155 -1.004502 0.118749
v 1.365421 -0.971604 0.118749
v 1.652184 0.961011 0.117298
v 1.393900 -1.004502 -0.144572
v 1.685105 0.996176 -0.145545
v -1.063866 -1.004502 0.118749
v -1.350301 1.017061 0.120393
v -1.393900 -1.004502 0.118749
v -1.686322 1.011574 0.117685
v 1.063866 -1.004502 0.118749
v 1.352242 1.023671 0.120409
v 1.393900 -1.004502 0.118749
v 1.686682 0.990657 0.117713
v -1.101703 -0.971604 -0.073557
v -1.382866 0.987230 -0.072767
v -1.365421 -0.971604 -0.073557
v -1.652881 0.982821 -0.074943
v 1.101703 -0.971604 -0.073557
v 1.382288 0.991571 -0.072795
v 1.365421 -0.971604 -0.073557
v 1.651032 0.965041 -0.074962
vn -0.0165 0.9997 0.0187
vn 0.0008 -0.0002 1.0000
vn -0.0111 -0.0022 0.9999
vn -0.0085 -0.0015 1.0000
vn 0.0560 0.9984 0.0096
vn -0.0000 -1.0000 -0.0000
vn -0.0008 0.0002 -1.0000
vn -0.0000 -0.0000 -1.0000
vn 0.0039 0.0004 -1.0000
vn -0.0013 -0.0000 -1.0000
vn -0.0000 1.0000 -0.0000
vn -0.0000 -0.0000 1.0000
vn -0.9897 -0.1429 -0.0052
vn 0.0041 0.0007 -1.0000
vn 0.9893 0.1460 0.0052
vn 0.0984 0.9949 0.0203
vn -0.0008 -0.0002 1.0000
vn -0.0015 -0.0003 1.0000
vn -0.0659 0.9978 0.0107
vn 0.0008 0.0002 -1.0000
vn -0.0037 0.0009 -1.0000
vn 0.0014 0.0005 -1.0000
vn 0.9895 -0.1446 -0.0045
vn -0.0040 0.0008 -1.0000
vn -0.0124 -0.0024 0.9999
vn -0.0062 -0.0012 1.0000
vn 0.0030 0.0008 1.0000
vn 0.0060 0.0015 1.0000
vn -0.0078 -0.0188 0.9998
vn 0.0068 -0.0013 1.0000
vn 0.0136 -0.0025 0.9999
vn -0.0065 0.0016 1.0000
vn -0.0033 0.0008 1.0000
vn 0.0060 -0.0210 0.9998
vn -0.0041 -0.0004 1.0000
vn 0.0040 -0.0004 1.0000
vn -0.0984 -0.9949 -0.0203
vn 0.9899 -0.1419 -0.0045
vn 0.0165 -0.9997 -0.0187
vn -0.9898 -0.1426 -0.0052
vn -0.9892 0.1463 0.0045
vt 0.482635 0.741140
vt 0.542986 0.709958
vt 0.582287 0.773201
vt 0.542915 0.840161
vt 0.004017 0.579264
vt 0.433030 0.589760
vt 0.437077 0.735550
vt 0.001969 0.663003
vt 0.516337 0.566839
vt 0.454193 0.572715
vt 0.929684 0.579150
vt 0.940980 0.431473
vt 1.000000 0.433395
vt 0.990061 0.587546
vt 0.514233 0.416430
vt 0.913639 0.659193
vt 0.974318 0.681559
vt 0.452785 0.414039
vt 0.007590 0.433227
vt 0.436602 0.443722
vt 0.931279 0.755588
vt 0.896520 0.716118
vt 0.396325 0.876181
vt 0.006825 0.769242
vt 0.049750 0.752855
vt 0.347617 0.820896
vt 0.511115 0.079169
vt 0.588035 0.000000
vt 0.608725 0.063782
vt 0.572253 0.122308
vt 0.011163 0.287189
vt 0.013211 0.203451
vt 0.452785 0.151883
vt 0.440175 0.297685
vt 0.529082 0.265697
vt 0.465871 0.254098
vt 0.939532 0.283627
vt 1.000000 0.279334
vt 0.929177 0.203160
vt 0.990622 0.185367
vt 0.953461 0.109634
vt 0.916510 0.145474
vt 0.011327 0.672601
vt 0.061097 0.710036
vt 0.425394 0.742093
vt 0.403289 0.884590
vt 0.000000 0.773829
vt 0.021670 0.194309
vt 0.440745 0.145374
vt 0.410185 0.008843
vt 0.007597 0.098094
vt 0.000000 0.093318
vt 0.417119 -0.000000
vt 0.347539 0.773860
vt 0.061128 0.161796
vt 0.063069 0.116215
vt 0.360244 0.062205
vt 0.359946 0.109698
s 1
usemtl Material.011
f 30/1/1 4/2/1 16/3/1 32/4/1
f 12/5/2 10/6/2 30/7/3 29/8/4
f 11/9/5 4/2/5 30/1/5 10/10/5
f 9/11/6 5/12/6 7/13/6 12/14/6
f 9/11/7 11/9/7 6/15/8 5/12/8
f 3/16/9 4/2/10 11/9/7 9/11/7
f 3/16/6 9/11/6 12/14/6 29/17/6
f 6/15/11 11/9/11 10/10/11 8/18/11
f 7/19/12 8/20/12 10/6/2 12/5/2
f 31/21/13 32/4/13 16/3/13 15/22/13
f 3/16/6 29/17/6 31/21/6 15/22/6
f 4/2/10 3/16/9 15/22/14 16/3/14
f 14/23/15 13/24/15 39/25/15 40/26/15
f 34/27/16 36/28/16 28/29/16 20/30/16
f 24/31/17 33/32/18 34/33/18 22/34/17
f 23/35/19 22/36/19 34/27/19 20/30/19
f 21/37/6 24/38/6 7/13/6 5/12/6
f 21/37/20 5/12/8 6/15/8 23/35/20
f 19/39/21 21/37/20 23/35/20 20/30/22
f 19/39/6 33/40/6 24/38/6 21/37/6
f 6/15/11 8/18/11 22/36/11 23/35/11
f 7/19/12 24/31/17 22/34/17 8/20/12
f 35/41/23 27/42/23 28/29/23 36/28/23
f 19/39/6 27/42/6 35/41/6 33/40/6
f 20/30/22 28/29/24 27/42/24 19/39/21
f 13/24/11 1/43/11 37/44/11 39/25/11
f 2/45/25 1/43/26 29/8/4 30/7/3
f 13/24/27 14/23/28 32/46/28 31/47/27
f 14/23/29 2/45/29 30/7/29 32/46/29
f 1/43/26 13/24/27 31/47/27 29/8/4
f 17/48/30 18/49/31 34/33/31 33/32/30
f 26/50/32 25/51/33 35/52/33 36/53/32
f 18/49/34 26/50/34 36/53/34 34/33/34
f 25/51/33 17/48/30 33/32/30 35/52/33
f 37/44/35 38/54/35 40/26/35 39/25/35
f 41/55/36 43/56/36 44/57/36 42/58/36
f 26/50/37 18/49/37 42/58/37 44/57/37
f 18/49/38 17/48/38 41/55/38 42/58/38
f 2/45/39 14/23/39 40/26/39 38/54/39
f 1/43/40 2/45/40 38/54/40 37/44/40
f 17/48/11 25/51/11 43/56/11 41/55/11
f 25/51/41 26/50/41 44/57/41 43/56/41
