# Blender 4.3.1
# www.blender.org
mtllib Cube.005_export.mtl
o Cube.005_export
v -0.067014 0.048067 -0.160929
v -0.067014 0.234130 -0.126770
v -0.067014 0.082226 -0.346993
v -0.067014 0.268290 -0.312833
v 0.122158 0.048067 -0.160929
v 0.122158 0.234130 -0.126770
v 0.122158 0.082226 -0.346993
v 0.122158 0.268290 -0.312833
v -0.035335 0.113385 -0.341273
v -0.035335 0.237131 -0.318554
v 0.090480 0.113385 -0.341273
v 0.090480 0.237131 -0.318554
v -0.035335 0.144742 -0.512073
v -0.035335 0.268489 -0.489354
v 0.090480 0.144742 -0.512073
v 0.090480 0.268489 -0.489354
v -0.035335 0.166701 -0.631682
v -0.035335 0.290448 -0.608963
v 0.090480 0.166701 -0.631682
v 0.090480 0.290448 -0.608963
v -0.035335 0.990244 -0.356847
v 0.090480 0.990244 -0.356847
v -0.035335 1.012203 -0.476455
v 0.090480 1.012203 -0.476455
v -0.035335 1.085652 -0.339330
v 0.090480 1.085652 -0.339330
v -0.035335 1.107611 -0.458939
v 0.090480 1.107611 -0.458939
v -0.035335 1.071583 -0.799895
v 0.090480 1.071583 -0.799895
v -0.035335 1.166991 -0.782379
v 0.090480 1.166991 -0.782379
v -0.382735 -0.407750 0.398524
v -0.382735 -0.374837 0.429889
v -0.415686 -0.374798 0.396898
v -0.382735 -0.398118 0.421368
v -0.401760 -0.393831 0.416870
v -0.406035 -0.374817 0.420218
v -0.406035 -0.398090 0.398039
v -0.382735 0.374837 0.393762
v -0.382735 0.407750 0.359225
v -0.415686 0.374798 0.360774
v -0.382735 0.398118 0.382997
v -0.401760 0.393831 0.378912
v -0.406035 0.398090 0.359671
v -0.406035 0.374818 0.384093
v -0.382735 -0.407750 -0.171805
v -0.415686 -0.374798 -0.171805
v -0.382735 -0.374798 -0.204756
v -0.406035 -0.398099 -0.171805
v -0.401760 -0.393823 -0.190829
v -0.406035 -0.374798 -0.195105
v -0.382735 -0.398099 -0.195105
v -0.382735 0.407750 -0.171805
v -0.382735 0.374798 -0.204756
v -0.415686 0.374798 -0.171805
v -0.382735 0.398099 -0.195105
v -0.401760 0.393823 -0.190829
v -0.406035 0.374798 -0.195105
v -0.406035 0.398099 -0.171805
v 0.366861 -0.407750 0.398524
v 0.399813 -0.374798 0.396898
v 0.366861 -0.374837 0.429889
v 0.390162 -0.398090 0.398039
v 0.385886 -0.393831 0.416870
v 0.390162 -0.374817 0.420218
v 0.366861 -0.398118 0.421368
v 0.366861 0.407750 0.359225
v 0.366861 0.374837 0.393762
v 0.399813 0.374798 0.360774
v 0.366861 0.398118 0.382997
v 0.385886 0.393831 0.378912
v 0.390162 0.374818 0.384093
v 0.390162 0.398090 0.359671
v 0.366861 -0.407750 -0.171805
v 0.366861 -0.374798 -0.204756
v 0.399813 -0.374798 -0.171805
v 0.366861 -0.398099 -0.195105
v 0.385886 -0.393823 -0.190829
v 0.390162 -0.374798 -0.195105
v 0.390162 -0.398099 -0.171805
v 0.366861 0.407750 -0.171805
v 0.399813 0.374798 -0.171805
v 0.366861 0.374798 -0.204756
v 0.390162 0.398099 -0.171805
v 0.385886 0.393823 -0.190829
v 0.390162 0.374798 -0.195105
v 0.366861 0.398099 -0.195105
v -0.369502 0.316920 0.634485
v -0.352950 0.344021 0.634485
v -0.369502 0.316920 0.398153
v -0.352950 0.344021 0.398153
v -0.318409 0.345718 0.398153
v -0.318409 0.345718 0.634485
v -0.313122 0.299266 0.413804
v -0.016145 0.316576 0.411733
v -0.016145 0.366811 0.396083
v -0.016145 0.366811 0.632414
v -0.364421 -0.334955 0.535430
v -0.364421 -0.334955 0.398153
v -0.329207 -0.333447 0.413804
v -0.326101 0.311585 0.617436
v -0.313122 0.299266 0.603947
v -0.329207 -0.333447 0.518994
v -0.342187 -0.333447 0.531533
v -0.016145 0.329041 0.614412
v -0.016145 0.316576 0.601878
v -0.167800 0.310032 0.412769
v -0.167277 0.360064 0.633449
v -0.167277 0.360064 0.397118
v -0.167800 0.310032 0.602912
v -0.174289 0.322424 0.615924
v 0.346005 0.302565 0.634485
v 0.326815 0.334733 0.634485
v 0.346005 0.302565 0.398153
v 0.326815 0.334733 0.398153
v 0.286120 0.345718 0.398153
v 0.286120 0.345718 0.634485
v 0.287165 0.303488 0.413804
v 0.332131 -0.334955 0.535430
v 0.332131 -0.334955 0.398153
v 0.296918 -0.333447 0.413804
v 0.300144 0.315808 0.617436
v 0.287165 0.303488 0.603947
v 0.296918 -0.333447 0.518994
v 0.309897 -0.333447 0.531533
v 0.135510 0.310032 0.412769
v 0.134987 0.360064 0.633449
v 0.134987 0.360064 0.397118
v 0.135510 0.310032 0.602912
v 0.142000 0.322424 0.615924
vn -1.0000 -0.0000 -0.0000
vn -0.0000 0.1806 -0.9836
vn 1.0000 -0.0000 -0.0000
vn -0.0000 -0.1806 0.9836
vn -0.0000 -0.9836 -0.1806
vn -0.0000 0.9836 0.1806
vn -0.0000 0.0481 0.9988
vn -0.0000 1.0000 -0.0000
vn -0.0000 -0.0000 -1.0000
vn -0.3302 -0.8848 0.3288
vn -0.3302 -0.2859 0.8996
vn -0.8927 -0.3109 0.3262
vn -0.3212 0.3623 0.8749
vn -0.3212 0.8914 0.3198
vn -0.8837 0.3389 0.3229
vn -0.3251 -0.8881 -0.3251
vn -0.8881 -0.3251 -0.3251
vn -0.3251 -0.3251 -0.8881
vn -0.3251 0.8881 -0.3251
vn -0.3251 0.3251 -0.8881
vn -0.8881 0.3251 -0.3251
vn 0.3302 -0.8848 0.3288
vn 0.8927 -0.3109 0.3262
vn 0.3302 -0.2859 0.8996
vn 0.3212 0.8914 0.3198
vn 0.3212 0.3623 0.8749
vn 0.8837 0.3389 0.3229
vn 0.3251 -0.8881 -0.3251
vn 0.3251 -0.3251 -0.8881
vn 0.8881 -0.3251 -0.3251
vn 0.3251 0.8881 -0.3251
vn 0.8881 0.3251 -0.3251
vn 0.3251 0.3251 -0.8881
vn -0.3828 -0.9238 -0.0000
vn -0.9239 -0.3827 -0.0000
vn -0.3830 0.0445 0.9227
vn -0.9238 0.0184 0.3823
vn -0.3828 0.9238 -0.0000
vn -0.9239 0.3827 -0.0000
vn -0.3827 -0.0000 -0.9239
vn -0.9239 -0.0000 -0.3827
vn -0.0000 -0.9239 -0.3827
vn -0.0000 -0.3827 -0.9239
vn -0.0000 0.9239 -0.3827
vn -0.0000 0.3827 -0.9239
vn 0.9239 -0.0000 -0.3827
vn 0.3827 -0.0000 -0.9239
vn 0.3828 -0.9238 -0.0000
vn 0.9239 -0.3827 -0.0000
vn 0.3828 0.9238 -0.0000
vn 0.9239 0.3827 -0.0000
vn 0.3829 0.0445 0.9227
vn 0.9238 0.0184 0.3823
vn -0.0000 -0.9214 0.3885
vn -0.0000 -0.3437 0.9391
vn -0.0000 0.9268 0.3755
vn -0.0000 0.4197 0.9077
vn -0.0000 -1.0000 -0.0000
vn -0.8534 0.5212 -0.0000
vn 0.1268 -0.2250 -0.9661
vn 0.2939 -0.1374 0.9459
vn 0.0431 -0.9991 -0.0000
vn -0.0491 0.9988 -0.0000
vn -1.0000 -0.0078 -0.0000
vn 0.0442 -0.4409 0.8965
vn -0.0945 0.9955 -0.0000
vn 0.0066 -0.2980 -0.9545
vn -0.0000 -0.2980 -0.9546
vn 0.0438 -0.9990 0.0022
vn 0.3229 -0.0028 -0.9464
vn 0.9997 -0.0254 -0.0000
vn 0.0360 -0.7116 0.7016
vn 0.6758 -0.1144 0.7281
vn 0.1868 -0.3314 0.9248
vn 0.0576 -0.7087 0.7031
vn 0.0194 -0.3077 -0.9513
vn -0.0446 0.9990 -0.0000
vn 0.0259 -0.4280 0.9034
vn 0.0739 -0.9973 -0.0000
vn 0.8588 0.5123 -0.0000
vn -0.1794 -0.2490 -0.9517
vn -0.3177 -0.1339 0.9387
vn -0.0431 -0.9991 -0.0000
vn 0.2606 0.9654 -0.0000
vn 0.9998 -0.0218 -0.0000
vn -0.0388 -0.4648 0.8846
vn 0.0945 0.9955 -0.0000
vn -0.0066 -0.2980 -0.9545
vn -0.0438 -0.9990 0.0022
vn -0.3158 0.0010 -0.9488
vn -0.9999 -0.0153 -0.0000
vn -0.0362 -0.7170 0.6962
vn -0.0360 -0.7122 0.7011
vn -0.0360 -0.7117 0.7016
vn -0.6783 -0.1069 0.7270
vn -0.2821 -0.3915 0.8759
vn -0.0362 -0.7175 0.6956
vn -0.0157 -0.3215 -0.9468
vn 0.0446 0.9990 -0.0000
vn -0.0259 -0.4280 0.9034
vt 0.375000 0.000000
vt 0.625000 0.000000
vt 0.625000 0.250000
vt 0.375000 0.250000
vt 0.375000 0.500000
vt 0.625000 0.500000
vt 0.625000 0.750000
vt 0.375000 0.750000
vt 0.625000 1.000000
vt 0.375000 1.000000
vt 0.125000 0.500000
vt 0.125000 0.750000
vt 0.875000 0.500000
vt 0.875000 0.750000
vt 0.385090 0.760101
vt 0.614910 0.760102
vt 0.614910 0.989899
vt 0.385090 0.989898
vt 0.385102 0.513083
vt 0.614899 0.513660
vt 0.614898 0.736334
vt 0.385102 0.736911
vt 0.635102 0.513800
vt 0.864898 0.513800
vt 0.864898 0.736200
vt 0.635102 0.736200
vt 0.385102 0.013089
vt 0.614898 0.013666
vt 0.614898 0.236340
vt 0.385102 0.236917
vt 0.385102 0.260102
vt 0.614898 0.260102
vt 0.614898 0.489898
vt 0.385102 0.489898
vt 0.135102 0.737052
vt 0.135102 0.750000
vt 0.129269 0.750000
vt 0.125000 0.736862
vt 0.385238 1.000000
vt 0.379472 1.000000
vt 0.375000 0.989898
vt 0.375000 0.013138
vt 0.375000 0.005739
vt 0.385238 0.000000
vt 0.625000 0.989898
vt 0.625000 0.995731
vt 0.615047 1.000000
vt 0.875000 0.736387
vt 0.875000 0.744445
vt 0.864898 0.750000
vt 0.615047 0.000000
vt 0.620938 0.000000
vt 0.625000 0.013613
vt 0.135102 0.512948
vt 0.125000 0.512948
vt 0.125000 0.505472
vt 0.135102 0.500000
vt 0.385102 0.250000
vt 0.379269 0.250000
vt 0.375000 0.237052
vt 0.375000 0.260102
vt 0.375000 0.254269
vt 0.864898 0.500000
vt 0.870731 0.500000
vt 0.875000 0.513800
vt 0.614898 0.250000
vt 0.620731 0.250000
vt 0.625000 0.260102
vt 0.625000 0.236200
vt 0.625000 0.244167
vt 0.364898 0.737052
vt 0.375000 0.736862
vt 0.376491 0.749510
vt 0.364898 0.750000
vt 0.385238 0.750000
vt 0.375000 0.760102
vt 0.635102 0.750000
vt 0.625069 0.748148
vt 0.625000 0.736387
vt 0.615047 0.750000
vt 0.625000 0.760102
vt 0.364898 0.512948
vt 0.364898 0.500000
vt 0.375000 0.501824
vt 0.375000 0.512948
vt 0.385102 0.500000
vt 0.375000 0.489898
vt 0.625000 0.513800
vt 0.623577 0.500521
vt 0.635102 0.500000
vt 0.614898 0.500000
vt 0.625000 0.489898
vt 0.625000 0.288459
vt 0.375000 0.288459
vt 0.375000 0.974157
vt 0.375000 0.974159
vt 0.206730 0.500000
vt 0.250000 0.500000
vt 0.250000 0.734540
vt 0.206730 0.734538
vt 0.836541 0.500000
vt 0.836541 0.750000
vt 0.446387 0.920599
vt 0.625000 0.918270
vt 0.625000 0.961541
vt 0.445967 0.966199
vt 0.793270 0.500000
vt 0.793270 0.750000
vt 0.375000 0.331730
vt 0.625000 0.331730
vt 0.625000 0.375000
vt 0.375000 0.375000
vt 0.163459 0.500000
vt 0.163459 0.723372
vt 0.150841 0.750000
vt 0.163459 0.734536
vt 0.375000 0.918270
vt 0.375000 0.875000
vt 0.446806 0.875000
vt 0.375000 0.961541
vt 0.447203 0.974991
vt 0.750000 0.500000
vt 0.750000 0.750000
vt 0.625000 0.875000
s 1
f 1/1/1 2/2/1 4/3/1 3/4/1
f 3/4/2 4/3/2 10/3/2 9/4/2
f 7/5/3 8/6/3 6/7/3 5/8/3
f 5/8/4 6/7/4 2/9/4 1/10/4
f 3/11/5 7/5/5 5/8/5 1/12/5
f 8/6/6 4/13/6 2/14/6 6/7/6
f 10/13/6 12/6/6 16/6/6 14/13/6
f 8/6/2 7/5/2 11/5/2 12/6/2
f 7/5/2 3/11/2 9/11/2 11/5/2
f 4/13/2 8/6/2 12/6/2 10/13/2
f 16/6/3 15/5/3 19/5/3 20/6/3
f 9/4/1 10/3/1 14/3/1 13/4/1
f 12/6/3 11/5/3 15/5/3 16/6/3
f 11/5/5 9/11/5 13/11/5 15/5/5
f 17/4/2 18/3/2 20/6/2 19/5/2
f 15/5/5 13/11/5 17/11/5 19/5/5
f 20/6/2 18/3/2 23/3/2 24/6/2
f 13/4/1 14/3/1 18/3/1 17/4/1
f 23/3/1 21/3/1 25/3/1 27/3/1
f 18/3/1 14/3/1 21/3/1 23/3/1
f 14/13/4 16/6/4 22/6/4 21/13/4
f 16/6/3 20/6/3 24/6/3 22/6/3
f 25/13/6 26/6/6 28/6/6 27/13/6
f 28/6/3 24/6/3 30/6/3 32/6/3
f 22/6/3 24/6/3 28/6/3 26/6/3
f 21/13/4 22/6/4 26/6/4 25/13/4
f 30/6/2 29/3/2 31/3/2 32/6/2
f 24/6/5 23/3/5 29/3/5 30/6/5
f 23/3/1 27/3/1 31/3/1 29/3/1
f 27/13/6 28/6/6 32/6/6 31/13/6
f 63/15/7 69/16/7 40/17/7 34/18/7
f 77/19/3 83/20/3 70/21/3 62/22/3
f 82/23/8 54/24/8 41/25/8 68/26/8
f 35/27/1 42/28/1 56/29/1 48/30/1
f 49/31/9 55/32/9 84/33/9 76/34/9
f 33/35/10 36/36/10 37/37/10 39/38/10
f 34/18/11 38/39/11 37/40/11 36/41/11
f 35/27/12 39/42/12 37/43/12 38/44/12
f 40/17/13 43/45/13 44/46/13 46/47/13
f 41/25/14 45/48/14 44/49/14 43/50/14
f 42/28/15 46/51/15 44/52/15 45/53/15
f 47/54/16 50/55/16 51/56/16 53/57/16
f 48/30/17 52/58/17 51/59/17 50/60/17
f 49/31/18 53/61/18 51/62/18 52/58/18
f 54/24/19 57/63/19 58/64/19 60/65/19
f 55/32/20 59/66/20 58/67/20 57/68/20
f 56/29/21 60/69/21 58/70/21 59/66/21
f 61/71/22 64/72/22 65/73/22 67/74/22
f 62/22/23 66/75/23 65/73/23 64/72/23
f 63/15/24 67/76/24 65/73/24 66/75/24
f 68/26/25 71/77/25 72/78/25 74/79/25
f 69/16/26 73/80/26 72/78/26 71/81/26
f 70/21/27 74/79/27 72/78/27 73/80/27
f 75/82/28 78/83/28 79/84/28 81/85/28
f 76/34/29 80/86/29 79/84/29 78/87/29
f 77/19/30 81/85/30 79/84/30 80/86/30
f 82/23/31 85/88/31 86/89/31 88/90/31
f 83/20/32 87/91/32 86/89/32 85/88/32
f 84/33/33 88/92/33 86/89/33 87/91/33
f 47/54/34 33/35/34 39/38/34 50/55/34
f 50/60/35 39/42/35 35/27/35 48/30/35
f 34/18/36 40/17/36 46/47/36 38/39/36
f 38/44/37 46/51/37 42/28/37 35/27/37
f 41/25/38 54/24/38 60/65/38 45/48/38
f 45/53/39 60/69/39 56/29/39 42/28/39
f 55/32/40 49/31/40 52/58/40 59/66/40
f 59/66/41 52/58/41 48/30/41 56/29/41
f 75/82/42 47/54/42 53/57/42 78/83/42
f 78/87/43 53/61/43 49/31/43 76/34/43
f 54/24/44 82/23/44 88/90/44 57/63/44
f 57/68/45 88/92/45 84/33/45 55/32/45
f 83/20/46 77/19/46 80/86/46 87/91/46
f 87/91/47 80/86/47 76/34/47 84/33/47
f 61/71/48 75/82/48 81/85/48 64/72/48
f 64/72/49 81/85/49 77/19/49 62/22/49
f 82/23/50 68/26/50 74/79/50 85/88/50
f 85/88/51 74/79/51 70/21/51 83/20/51
f 69/16/52 63/15/52 66/75/52 73/80/52
f 73/80/53 66/75/53 62/22/53 70/21/53
f 33/35/54 61/71/54 67/74/54 36/36/54
f 36/41/55 67/76/55 63/15/55 34/18/55
f 68/26/56 41/25/56 43/50/56 71/77/56
f 71/81/57 43/45/57 40/17/57 69/16/57
f 47/54/58 75/82/58 61/71/58 33/35/58
f 89/1/59 90/2/59 92/3/59 91/4/59
f 91/4/60 92/3/60 93/93/60 95/94/60
f 102/95/61 89/10/61 99/10/61 105/96/61
f 108/97/62 96/98/62 107/99/62 111/100/62
f 93/101/63 92/13/63 90/14/63 94/102/63
f 89/1/64 91/4/64 100/4/64 99/1/64
f 112/103/65 109/104/65 94/105/65 102/106/65
f 110/107/66 93/101/66 94/102/66 109/108/66
f 108/109/67 110/110/67 97/111/68 96/112/68
f 100/11/69 101/113/69 104/114/69 105/115/69 99/12/69
f 91/4/70 95/94/70 101/94/70 100/4/70
f 95/113/71 103/116/71 104/114/71 101/113/71
f 111/117/72 107/118/72 106/119/72 112/103/72
f 102/95/73 105/96/73 104/120/73 103/120/73
f 102/121/74 94/105/74 90/9/74 89/10/74
f 103/120/75 111/117/75 112/103/75 102/106/75
f 95/94/76 93/93/76 110/110/76 108/109/76
f 97/122/77 110/107/77 109/108/77 98/123/77
f 106/119/78 98/124/78 109/104/78 112/103/78
f 95/113/79 108/97/79 111/100/79 103/116/79
f 113/1/80 115/4/80 116/3/80 114/2/80
f 115/4/81 119/94/81 117/93/81 116/3/81
f 123/95/82 126/96/82 120/10/82 113/10/82
f 127/97/83 130/100/83 107/99/83 96/98/83
f 117/101/84 118/102/84 114/14/84 116/13/84
f 113/1/85 120/1/85 121/4/85 115/4/85
f 131/103/86 123/106/86 118/105/86 128/104/86
f 129/107/87 128/108/87 118/102/87 117/101/87
f 127/109/88 96/112/68 97/111/68 129/110/88
f 121/11/89 120/12/89 126/115/89 125/114/89 122/113/89
f 115/4/90 121/4/90 122/94/90 119/94/90
f 119/113/91 122/113/91 125/114/91 124/116/91
f 130/117/92 131/103/93 106/119/94 107/118/94
f 123/95/95 124/120/95 125/120/95 126/96/95
f 123/121/96 113/10/96 114/9/96 118/105/96
f 124/120/97 123/106/97 131/103/93 130/117/92
f 119/94/98 127/109/98 129/110/98 117/93/98
f 97/122/99 98/123/99 128/108/99 129/107/99
f 106/119/100 131/103/100 128/104/100 98/124/100
f 119/113/83 124/116/83 130/100/83 127/97/83
