# Blender 4.3.2
# www.blender.org
mtllib _valve_export.mtl
o _valve_export
v 0.036115 -0.000011 0.000000
v 0.035147 -0.000011 0.003612
v 0.032503 -0.000011 0.006256
v 0.028892 -0.000011 0.007223
v 0.025280 -0.000011 0.006256
v 0.022636 -0.000011 0.003612
v 0.021668 -0.000011 0.000000
v 0.022636 -0.000011 -0.003612
v 0.025280 -0.000011 -0.006256
v 0.028892 -0.000011 -0.007223
v 0.032503 -0.000011 -0.006256
v 0.035147 -0.000011 -0.003612
v 0.033937 0.012342 -0.000000
v 0.033028 0.012011 0.003612
v 0.030543 0.011107 0.006256
v 0.027150 0.009871 0.007223
v 0.023755 0.008636 0.006256
v 0.021271 0.007732 0.003612
v 0.020362 0.007401 -0.000000
v 0.021271 0.007732 -0.003612
v 0.023755 0.008636 -0.006256
v 0.027150 0.009871 -0.007223
v 0.030543 0.011107 -0.006256
v 0.033028 0.012011 -0.003612
v 0.027666 0.023205 -0.000000
v 0.026924 0.022583 0.003612
v 0.024899 0.020883 0.006256
v 0.022132 0.018562 0.007223
v 0.019365 0.016240 0.006256
v 0.017340 0.014541 0.003612
v 0.016599 0.013918 -0.000000
v 0.017340 0.014541 -0.003612
v 0.019365 0.016240 -0.006256
v 0.022132 0.018562 -0.007223
v 0.024899 0.020883 -0.006256
v 0.026924 0.022583 -0.003612
v 0.018057 0.031267 -0.000000
v 0.017573 0.030429 0.003612
v 0.016251 0.028139 0.006256
v 0.014445 0.025012 0.007223
v 0.012639 0.021884 0.006256
v 0.011317 0.019594 0.003612
v 0.010834 0.018756 -0.000000
v 0.011317 0.019594 -0.003612
v 0.012639 0.021884 -0.006256
v 0.014445 0.025012 -0.007223
v 0.016251 0.028139 -0.006256
v 0.017573 0.030429 -0.003612
v 0.006270 0.035557 -0.000000
v 0.006102 0.034604 0.003612
v 0.005643 0.032000 0.006256
v 0.005016 0.028444 0.007223
v 0.004389 0.024887 0.006256
v 0.003929 0.022283 0.003612
v 0.003762 0.021330 -0.000000
v 0.003929 0.022283 -0.003612
v 0.004389 0.024887 -0.006256
v 0.005016 0.028444 -0.007223
v 0.005643 0.032000 -0.006256
v 0.006102 0.034604 -0.003612
v -0.006273 0.035557 -0.000000
v -0.006105 0.034604 0.003612
v -0.005646 0.032000 0.006256
v -0.005019 0.028444 0.007223
v -0.004391 0.024887 0.006256
v -0.003932 0.022283 0.003612
v -0.003764 0.021330 -0.000000
v -0.003932 0.022283 -0.003612
v -0.004391 0.024887 -0.006256
v -0.005019 0.028444 -0.007223
v -0.005646 0.032000 -0.006256
v -0.006105 0.034604 -0.003612
v -0.018060 0.031267 -0.000000
v -0.017576 0.030429 0.003612
v -0.016254 0.028139 0.006256
v -0.014448 0.025012 0.007223
v -0.012642 0.021884 0.006256
v -0.011320 0.019594 0.003612
v -0.010836 0.018756 -0.000000
v -0.011320 0.019594 -0.003612
v -0.012642 0.021884 -0.006256
v -0.014448 0.025012 -0.007223
v -0.016254 0.028139 -0.006256
v -0.017576 0.030429 -0.003612
v -0.027668 0.023205 -0.000000
v -0.026927 0.022583 0.003612
v -0.024902 0.020883 0.006256
v -0.022135 0.018562 0.007223
v -0.019368 0.016240 0.006256
v -0.017343 0.014541 0.003612
v -0.016601 0.013918 -0.000000
v -0.017343 0.014541 -0.003612
v -0.019368 0.016240 -0.006256
v -0.022135 0.018562 -0.007223
v -0.024902 0.020883 -0.006256
v -0.026927 0.022583 -0.003612
v -0.033940 0.012342 -0.000000
v -0.033030 0.012011 0.003612
v -0.030546 0.011107 0.006256
v -0.027152 0.009871 0.007223
v -0.023758 0.008636 0.006256
v -0.021274 0.007732 0.003612
v -0.020365 0.007401 -0.000000
v -0.021274 0.007732 -0.003612
v -0.023758 0.008636 -0.006256
v -0.027152 0.009871 -0.007223
v -0.030546 0.011107 -0.006256
v -0.033030 0.012011 -0.003612
v -0.036118 -0.000011 0.000000
v -0.035150 -0.000011 0.003612
v -0.032506 -0.000011 0.006256
v -0.028895 -0.000011 0.007223
v -0.025283 -0.000011 0.006256
v -0.022639 -0.000011 0.003612
v -0.021671 -0.000011 0.000000
v -0.022639 -0.000011 -0.003612
v -0.025283 -0.000011 -0.006256
v -0.028895 -0.000011 -0.007223
v -0.032506 -0.000011 -0.006256
v -0.035150 -0.000011 -0.003612
v -0.033940 -0.012363 0.000000
v -0.033030 -0.012032 0.003612
v -0.030546 -0.011128 0.006256
v -0.027152 -0.009893 0.007223
v -0.023758 -0.008658 0.006256
v -0.021274 -0.007753 0.003612
v -0.020365 -0.007422 0.000000
v -0.021274 -0.007753 -0.003612
v -0.023758 -0.008658 -0.006256
v -0.027152 -0.009893 -0.007223
v -0.030546 -0.011128 -0.006256
v -0.033030 -0.012032 -0.003612
v -0.027668 -0.023226 0.000000
v -0.026927 -0.022604 0.003612
v -0.024902 -0.020904 0.006256
v -0.022135 -0.018583 0.007223
v -0.019368 -0.016261 0.006256
v -0.017343 -0.014562 0.003612
v -0.016601 -0.013940 0.000000
v -0.017343 -0.014562 -0.003612
v -0.019368 -0.016261 -0.006256
v -0.022135 -0.018583 -0.007223
v -0.024902 -0.020904 -0.006256
v -0.026927 -0.022604 -0.003612
v -0.018060 -0.031288 0.000000
v -0.017576 -0.030450 0.003612
v -0.016254 -0.028161 0.006256
v -0.014448 -0.025033 0.007223
v -0.012642 -0.021905 0.006256
v -0.011320 -0.019615 0.003612
v -0.010836 -0.018777 0.000000
v -0.011320 -0.019615 -0.003612
v -0.012642 -0.021905 -0.006256
v -0.014448 -0.025033 -0.007223
v -0.016254 -0.028161 -0.006256
v -0.017576 -0.030450 -0.003612
v -0.006273 -0.035579 0.000000
v -0.006105 -0.034625 0.003612
v -0.005646 -0.032022 0.006256
v -0.005019 -0.028465 0.007223
v -0.004391 -0.024908 0.006256
v -0.003932 -0.022304 0.003612
v -0.003764 -0.021351 0.000000
v -0.003932 -0.022304 -0.003612
v -0.004391 -0.024908 -0.006256
v -0.005019 -0.028465 -0.007223
v -0.005646 -0.032022 -0.006256
v -0.006105 -0.034625 -0.003612
v 0.006270 -0.035579 0.000000
v 0.006102 -0.034625 0.003612
v 0.005643 -0.032022 0.006256
v 0.005016 -0.028465 0.007223
v 0.004389 -0.024908 0.006256
v 0.003929 -0.022304 0.003612
v 0.003762 -0.021351 0.000000
v 0.003929 -0.022304 -0.003612
v 0.004389 -0.024908 -0.006256
v 0.005016 -0.028465 -0.007223
v 0.005643 -0.032022 -0.006256
v 0.006102 -0.034625 -0.003612
v 0.018057 -0.031288 0.000000
v 0.017573 -0.030450 0.003612
v 0.016251 -0.028161 0.006256
v 0.014445 -0.025033 0.007223
v 0.012639 -0.021905 0.006256
v 0.011317 -0.019615 0.003612
v 0.010834 -0.018777 0.000000
v 0.011317 -0.019615 -0.003612
v 0.012639 -0.021905 -0.006256
v 0.014445 -0.025033 -0.007223
v 0.016251 -0.028161 -0.006256
v 0.017573 -0.030450 -0.003612
v 0.027666 -0.023226 0.000000
v 0.026924 -0.022604 0.003612
v 0.024899 -0.020904 0.006256
v 0.022132 -0.018583 0.007223
v 0.019365 -0.016261 0.006256
v 0.017340 -0.014562 0.003612
v 0.016599 -0.013940 0.000000
v 0.017340 -0.014562 -0.003612
v 0.019365 -0.016261 -0.006256
v 0.022132 -0.018583 -0.007223
v 0.024899 -0.020904 -0.006256
v 0.026924 -0.022604 -0.003612
v 0.033937 -0.012363 0.000000
v 0.033028 -0.012032 0.003612
v 0.030543 -0.011128 0.006256
v 0.027149 -0.009893 0.007223
v 0.023755 -0.008658 0.006256
v 0.021271 -0.007753 0.003612
v 0.020362 -0.007422 0.000000
v 0.021271 -0.007753 -0.003612
v 0.023755 -0.008658 -0.006256
v 0.027149 -0.009893 -0.007223
v 0.030543 -0.011128 -0.006256
v 0.033028 -0.012032 -0.003612
v 0.001749 0.005883 0.001608
v 0.001674 0.005459 -0.000000
v 0.001749 0.005883 -0.001608
v -0.001751 0.005883 0.001608
v -0.001676 0.005459 -0.000000
v -0.001751 0.005883 -0.001608
v -0.005980 -0.001442 0.001608
v -0.005576 -0.001295 0.000000
v -0.005980 -0.001442 -0.001608
v -0.004231 -0.004473 0.001608
v -0.003901 -0.004196 0.000000
v -0.004231 -0.004473 -0.001608
v 0.004228 -0.004473 0.001608
v 0.003898 -0.004196 0.000000
v 0.004228 -0.004473 -0.001608
v 0.005978 -0.001442 0.001608
v 0.005573 -0.001295 0.000000
v 0.005978 -0.001442 -0.001608
v 0.020505 -0.007437 0.003511
v 0.016684 -0.014057 0.003511
v 0.019621 -0.007115 0.000000
v 0.015963 -0.013452 0.000000
v 0.016684 -0.014057 -0.003511
v 0.020505 -0.007437 -0.003511
v -0.020324 -0.007361 -0.003487
v -0.016528 -0.013935 -0.003487
v -0.020324 -0.007361 0.003487
v -0.019446 -0.007042 0.000000
v -0.016528 -0.013935 0.003487
v -0.015813 -0.013335 0.000000
v 0.003647 0.020463 -0.000000
v 0.003810 0.021387 0.003502
v -0.003813 0.021387 0.003502
v -0.003650 0.020463 -0.000000
v 0.003810 0.021387 -0.003502
v -0.003813 0.021387 -0.003502
v 0.001901 0.007027 0.001747
v -0.001903 0.007027 0.001747
v -0.001822 0.006566 -0.000000
v -0.001903 0.007027 -0.001747
v 0.001819 0.006566 -0.000000
v 0.001901 0.007027 -0.001747
v -0.006676 -0.001729 -0.001699
v -0.006676 -0.001729 0.001699
v -0.004827 -0.004932 0.001699
v -0.004478 -0.004639 0.000000
v -0.004827 -0.004932 -0.001699
v -0.006249 -0.001574 0.000000
v 0.006558 -0.001681 0.001684
v 0.006134 -0.001527 0.000000
v 0.004379 -0.004566 0.000000
v 0.006558 -0.001681 -0.001684
v 0.004725 -0.004856 0.001684
v 0.004725 -0.004856 -0.001684
v 0.000000 -0.008529 -0.001322
v 0.006668 -0.005318 -0.001322
v 0.008315 0.001898 -0.001322
v 0.003700 0.007684 -0.001322
v -0.003700 0.007684 -0.001322
v -0.008315 0.001898 -0.001322
v -0.006668 -0.005318 -0.001322
v 0.000000 -0.008529 -0.002759
v 0.006668 -0.005318 -0.002759
v 0.008315 0.001898 -0.002759
v 0.003700 0.007684 -0.002759
v -0.003700 0.007684 -0.002759
v -0.008315 0.001898 -0.002759
v -0.006668 -0.005318 -0.002759
v 0.000000 -0.004104 -0.003351
v 0.003209 -0.002559 -0.003351
v 0.004001 0.000913 -0.003351
v 0.001781 0.003697 -0.003351
v -0.001781 0.003697 -0.003351
v -0.004001 0.000913 -0.003351
v -0.003209 -0.002559 -0.003351
v 0.000000 -0.007593 0.004745
v 0.000000 -0.008529 0.003903
v 0.005937 -0.004734 0.004745
v 0.006668 -0.005318 0.003903
v 0.007403 0.001690 0.004745
v 0.008315 0.001898 0.003903
v 0.003295 0.006842 0.004745
v 0.003700 0.007684 0.003903
v -0.003295 0.006842 0.004745
v -0.003700 0.007684 0.003903
v -0.007403 0.001690 0.004745
v -0.008315 0.001898 0.003903
v -0.005937 -0.004734 0.004745
v -0.006668 -0.005318 0.003903
v 0.000000 -0.004104 -0.021863
v 0.003209 -0.002559 -0.021863
v 0.004001 0.000913 -0.021863
v 0.001781 0.003697 -0.021863
v -0.001781 0.003697 -0.021863
v -0.004001 0.000913 -0.021863
v -0.003209 -0.002559 -0.021863
v 0.000000 -0.008112 -0.023336
v 0.006342 -0.005058 -0.023336
v 0.007908 0.001805 -0.023336
v 0.003519 0.007309 -0.023336
v -0.003519 0.007309 -0.023336
v -0.007908 0.001805 -0.023336
v -0.006342 -0.005058 -0.023336
v 0.000000 -0.008112 -0.032788
v 0.006342 -0.005058 -0.032788
v 0.007908 0.001805 -0.032788
v 0.003519 0.007309 -0.032788
v -0.003519 0.007309 -0.032788
v -0.007908 0.001805 -0.032788
v -0.006342 -0.005058 -0.032788
v 0.000000 -0.013895 -0.033375
v 0.010863 -0.008663 -0.033375
v 0.013547 0.003092 -0.033375
v 0.006029 0.012519 -0.033375
v -0.006029 0.012519 -0.033375
v -0.013547 0.003092 -0.033375
v -0.010863 -0.008663 -0.033375
v 0.000000 -0.013895 -0.052514
v 0.010863 -0.008663 -0.052514
v 0.013547 0.003092 -0.052514
v 0.006029 0.012519 -0.052514
v -0.006029 0.012519 -0.052514
v -0.013547 0.003092 -0.052514
v -0.010863 -0.008663 -0.052514
vn 1.0000 -0.0000 -0.0000
vn 0.9397 0.3420 -0.0000
vn 0.8202 0.2985 0.4880
vn 0.8728 -0.0000 0.4880
vn 0.4894 0.1781 0.8536
vn 0.5209 -0.0000 0.8536
vn 0.0270 0.0098 0.9996
vn 0.0287 -0.0000 0.9996
vn -0.4490 -0.1634 0.8785
vn -0.4778 -0.0000 0.8785
vn -0.8068 -0.2936 0.5128
vn -0.8585 -0.0000 0.5128
vn -0.9397 -0.3420 -0.0000
vn -1.0000 -0.0000 -0.0000
vn -0.8068 -0.2936 -0.5128
vn -0.8585 -0.0000 -0.5128
vn -0.4490 -0.1634 -0.8785
vn -0.4778 -0.0000 -0.8785
vn 0.0270 0.0098 -0.9996
vn 0.0287 -0.0000 -0.9996
vn 0.4894 0.1781 -0.8536
vn 0.5209 -0.0000 -0.8536
vn 0.8202 0.2985 -0.4880
vn 0.8728 -0.0000 -0.4880
vn 0.7660 0.6428 -0.0000
vn 0.6686 0.5611 0.4880
vn 0.3990 0.3348 0.8536
vn 0.0220 0.0185 0.9996
vn -0.3660 -0.3071 0.8785
vn -0.6577 -0.5519 0.5128
vn -0.7661 -0.6428 -0.0000
vn -0.6577 -0.5519 -0.5128
vn -0.3661 -0.3074 -0.8783
vn 0.0220 0.0185 -0.9996
vn 0.3990 0.3348 -0.8536
vn 0.6686 0.5611 -0.4880
vn 0.5000 0.8660 -0.0000
vn 0.4364 0.7559 0.4880
vn 0.2604 0.4511 0.8536
vn 0.0144 0.0249 0.9996
vn -0.2389 -0.4137 0.8785
vn -0.4292 -0.7435 0.5128
vn -0.5000 -0.8660 -0.0000
vn -0.4292 -0.7435 -0.5128
vn -0.2389 -0.4137 -0.8785
vn 0.0144 0.0249 -0.9996
vn 0.2604 0.4511 -0.8536
vn 0.4364 0.7559 -0.4880
vn 0.1736 0.9848 -0.0000
vn 0.1516 0.8596 0.4880
vn 0.0904 0.5130 0.8536
vn 0.0050 0.0283 0.9996
vn -0.0830 -0.4705 0.8785
vn 0.0447 -0.6957 0.7169
vn 0.6003 -0.7998 -0.0000
vn 0.0447 -0.6957 -0.7169
vn -0.0830 -0.4705 -0.8785
vn 0.0050 0.0283 -0.9996
vn 0.0904 0.5130 -0.8536
vn 0.1516 0.8596 -0.4880
vn -0.1736 0.9848 -0.0000
vn -0.1516 0.8596 0.4880
vn -0.0904 0.5130 0.8536
vn -0.0050 0.0283 0.9996
vn 0.0830 -0.4705 0.8785
vn -0.0447 -0.6957 0.7169
vn -0.5038 -0.5169 -0.6921
vn -0.6088 -0.7933 -0.0000
vn -0.9930 -0.1185 -0.0000
vn -0.7725 -0.2067 -0.6004
vn 0.1959 0.6947 0.6921
vn 0.3825 0.9240 -0.0000
vn -0.3934 0.9194 -0.0000
vn -0.2073 0.7724 0.6004
vn -0.0447 -0.6957 -0.7169
vn 0.0830 -0.4705 -0.8785
vn -0.0050 0.0283 -0.9996
vn -0.0904 0.5130 -0.8536
vn -0.1516 0.8596 -0.4880
vn -0.5000 0.8660 -0.0000
vn -0.4364 0.7559 0.4880
vn -0.2604 0.4511 0.8536
vn -0.0144 0.0249 0.9996
vn 0.2389 -0.4137 0.8785
vn 0.4292 -0.7435 0.5128
vn 0.5000 -0.8660 -0.0000
vn -0.6007 -0.7995 -0.0000
vn 0.4292 -0.7435 -0.5128
vn 0.2389 -0.4137 -0.8785
vn -0.0144 0.0249 -0.9996
vn -0.2604 0.4511 -0.8536
vn -0.4364 0.7559 -0.4880
vn -0.7660 0.6428 -0.0000
vn -0.6686 0.5611 0.4880
vn -0.3990 0.3348 0.8536
vn -0.0220 0.0185 0.9996
vn 0.3663 -0.3071 0.8783
vn 0.6576 -0.5519 0.5128
vn 0.7660 -0.6428 -0.0000
vn 0.6576 -0.5519 -0.5128
vn 0.3660 -0.3071 -0.8785
vn -0.0220 0.0185 -0.9996
vn -0.3990 0.3348 -0.8536
vn -0.6686 0.5611 -0.4880
vn -0.9397 0.3420 -0.0000
vn -0.8202 0.2985 0.4880
vn -0.4895 0.1781 0.8536
vn -0.0270 0.0098 0.9996
vn 0.4490 -0.1634 0.8785
vn 0.8067 -0.2936 0.5128
vn 0.9397 -0.3420 -0.0000
vn 0.8067 -0.2936 -0.5128
vn 0.4490 -0.1634 -0.8785
vn -0.0270 0.0098 -0.9996
vn -0.4895 0.1781 -0.8536
vn -0.8202 0.2985 -0.4880
vn -0.8728 -0.0000 0.4880
vn -0.5209 -0.0000 0.8536
vn -0.0287 -0.0000 0.9996
vn 0.4778 -0.0000 0.8785
vn 0.8585 -0.0000 0.5128
vn 0.8585 -0.0000 -0.5128
vn 0.4778 -0.0000 -0.8785
vn -0.0287 -0.0000 -0.9996
vn -0.5209 -0.0000 -0.8536
vn -0.8728 -0.0000 -0.4880
vn -0.8202 -0.2985 0.4880
vn -0.4895 -0.1781 0.8536
vn -0.0270 -0.0098 0.9996
vn 0.4490 0.1634 0.8785
vn 0.5802 0.3866 0.7169
vn 0.3924 0.9198 -0.0000
vn 0.5802 0.3866 -0.7169
vn 0.4490 0.1634 -0.8785
vn -0.0270 -0.0098 -0.9996
vn -0.4895 -0.1781 -0.8536
vn -0.8202 -0.2985 -0.4880
vn -0.7660 -0.6428 -0.0000
vn -0.6687 -0.5611 0.4880
vn -0.3990 -0.3348 0.8536
vn -0.0220 -0.0185 0.9996
vn 0.3660 0.3071 0.8785
vn 0.6248 0.3092 0.7169
vn 0.5037 -0.5170 -0.6921
vn -0.1961 0.6947 -0.6921
vn 0.2072 0.7724 -0.6004
vn 0.7726 -0.2072 -0.6001
vn 0.6995 -0.1777 0.6922
vn -0.6996 -0.1774 0.6921
vn -0.5654 -0.5654 0.6006
vn 0.5656 -0.5653 0.6005
vn 0.6248 0.3092 -0.7169
vn 0.3660 0.3071 -0.8785
vn -0.0220 -0.0185 -0.9996
vn -0.3990 -0.3348 -0.8536
vn -0.6687 -0.5611 -0.4880
vn -0.4364 -0.7559 0.4880
vn -0.2604 -0.4511 0.8536
vn -0.0144 -0.0249 0.9996
vn 0.2389 0.4137 0.8785
vn 0.4292 0.7435 0.5128
vn 0.9927 -0.1202 -0.0000
vn 0.4292 0.7435 -0.5128
vn 0.2389 0.4137 -0.8785
vn -0.0144 -0.0249 -0.9996
vn -0.2604 -0.4511 -0.8536
vn -0.4364 -0.7559 -0.4880
vn -0.1737 -0.9848 -0.0000
vn -0.1516 -0.8596 0.4880
vn -0.0905 -0.5130 0.8536
vn -0.0050 -0.0283 0.9996
vn 0.0830 0.4705 0.8785
vn 0.1491 0.8455 0.5128
vn 0.1491 0.8455 -0.5128
vn 0.0830 0.4705 -0.8785
vn -0.0050 -0.0283 -0.9996
vn -0.0905 -0.5130 -0.8536
vn -0.1516 -0.8596 -0.4880
vn 0.1737 -0.9848 -0.0000
vn 0.1516 -0.8596 0.4880
vn 0.0905 -0.5130 0.8536
vn 0.0050 -0.0283 0.9996
vn -0.0830 0.4708 0.8783
vn -0.1491 0.8455 0.5128
vn -0.1737 0.9848 -0.0000
vn -0.1491 0.8455 -0.5128
vn -0.0830 0.4708 -0.8783
vn 0.0050 -0.0283 -0.9996
vn 0.0905 -0.5130 -0.8536
vn 0.1516 -0.8596 -0.4880
vn 0.4364 -0.7559 0.4880
vn 0.2604 -0.4511 0.8536
vn 0.0144 -0.0249 0.9996
vn -0.2389 0.4137 0.8785
vn -0.4292 0.7435 0.5128
vn -0.4292 0.7435 -0.5128
vn -0.2389 0.4137 -0.8785
vn 0.0144 -0.0249 -0.9996
vn 0.2604 -0.4511 -0.8536
vn 0.4364 -0.7559 -0.4880
vn 0.6686 -0.5611 0.4880
vn 0.3990 -0.3348 0.8536
vn 0.0220 -0.0185 0.9996
vn -0.3660 0.3071 0.8785
vn -0.6248 0.3090 0.7170
vn -0.9927 -0.1202 -0.0000
vn -0.6249 0.3093 -0.7168
vn -0.3660 0.3071 -0.8785
vn 0.0220 -0.0185 -0.9996
vn 0.3990 -0.3348 -0.8536
vn 0.6686 -0.5611 -0.4880
vn 0.8202 -0.2985 0.4880
vn 0.4894 -0.1781 0.8536
vn 0.0270 -0.0098 0.9996
vn -0.4490 0.1634 0.8785
vn -0.5803 0.3865 0.7169
vn -0.5038 -0.5169 0.6921
vn -0.7725 -0.2067 0.6004
vn 0.9915 -0.1302 -0.0000
vn 0.5996 -0.8003 -0.0000
vn -0.5803 0.3865 -0.7169
vn -0.4490 0.1634 -0.8785
vn 0.0270 -0.0098 -0.9996
vn 0.4894 -0.1781 -0.8536
vn 0.8202 -0.2985 -0.4880
vn -0.3922 0.9199 -0.0000
vn -0.5994 -0.8004 -0.0000
vn -0.5654 -0.5654 -0.6006
vn 0.5656 -0.5653 -0.6005
vn 0.2072 0.7724 0.6004
vn 0.7725 -0.2068 0.6004
vn 0.9929 -0.1192 -0.0000
vn 0.3933 0.9194 -0.0000
vn -0.2073 0.7724 -0.6004
vn -0.9914 -0.1305 -0.0000
vn 0.6995 -0.1776 -0.6922
vn 0.1959 0.6947 -0.6921
vn -0.3828 0.9238 -0.0000
vn -0.1961 0.6947 0.6921
vn -0.6996 -0.1779 -0.6920
vn 0.5037 -0.5170 0.6921
vn 0.6089 -0.7933 -0.0000
vn -0.5036 -0.5170 0.6922
vn -0.6087 -0.7934 -0.0000
vn -0.5039 -0.5169 -0.6920
vn 0.1957 0.6948 -0.6920
vn 0.3828 0.9238 -0.0000
vn 0.1960 0.6946 0.6922
vn 0.5035 -0.5171 -0.6922
vn 0.6087 -0.7934 -0.0000
vn -0.3826 0.9239 -0.0000
vn -0.1957 0.6948 -0.6920
vn 0.5034 -0.5172 0.6922
vn -0.1957 0.6948 0.6920
vn 0.6996 -0.1775 -0.6921
vn -0.6996 -0.1773 -0.6922
vn -0.9915 -0.1304 -0.0000
vn 0.9914 -0.1306 -0.0000
vn -0.6996 -0.1778 0.6920
vn 0.6996 -0.1775 0.6921
vn -0.4339 -0.9010 -0.0000
vn 0.7818 0.6236 -0.0000
vn -0.0000 1.0000 -0.0000
vn -0.7818 0.6236 -0.0000
vn -0.9749 -0.2225 -0.0000
vn 0.9749 -0.2225 -0.0000
vn 0.4339 -0.9010 -0.0000
vn -0.0637 -0.1323 -0.9892
vn -0.9748 -0.2229 -0.0000
vn -0.1148 0.0916 -0.9892
vn 0.1148 0.0916 -0.9892
vn 0.0637 -0.1323 -0.9892
vn -0.1432 -0.0327 -0.9892
vn -0.0000 0.1469 -0.9892
vn 0.1432 -0.0327 -0.9892
vn 0.3068 -0.6370 0.7072
vn 0.6894 -0.1574 0.7071
vn 0.5531 0.4410 0.7068
vn -0.0000 0.7071 0.7071
vn -0.5531 0.4410 0.7068
vn -0.6894 -0.1574 0.7071
vn -0.3068 -0.6371 0.7071
vn -0.0000 -0.0000 1.0000
vn -0.3680 -0.0839 0.9260
vn 0.9748 -0.2229 -0.0000
vn -0.4338 -0.9010 -0.0000
vn -0.7819 0.6235 -0.0000
vn 0.7819 0.6235 -0.0000
vn 0.4338 -0.9010 -0.0000
vn -0.0000 0.3776 0.9260
vn 0.3680 -0.0839 0.9260
vn -0.1639 -0.3403 0.9259
vn -0.2953 0.2355 0.9259
vn 0.2953 0.2355 0.9259
vn 0.1639 -0.3403 0.9259
vn -0.0000 0.1120 0.9937
vn 0.4339 -0.9009 -0.0000
vn 0.1091 -0.0249 0.9937
vn -0.0486 -0.1009 0.9937
vn -0.0875 0.0698 0.9937
vn 0.0875 0.0698 0.9937
vn 0.0486 -0.1009 0.9937
vn -0.1091 -0.0249 0.9937
vn -0.0000 -0.0000 -1.0000
vn -0.9749 -0.2226 -0.0000
vn 0.9749 -0.2226 -0.0000
vn -0.4339 -0.9009 -0.0000
vn -0.7818 0.6235 -0.0000
vn 0.7818 0.6235 -0.0000
vt 0.500000 0.500000
vt 0.555556 0.500000
vt 0.555556 0.583333
vt 0.500000 0.583333
vt 0.555556 0.666667
vt 0.500000 0.666667
vt 0.555556 0.750000
vt 0.500000 0.750000
vt 0.555556 0.833333
vt 0.500000 0.833333
vt 0.555556 0.916667
vt 0.500000 0.916667
vt 0.555556 1.000000
vt 0.500000 1.000000
vt 0.500000 0.000000
vt 0.555556 0.000000
vt 0.555556 0.083333
vt 0.500000 0.083333
vt 0.555556 0.166667
vt 0.500000 0.166667
vt 0.555556 0.250000
vt 0.500000 0.250000
vt 0.555556 0.333333
vt 0.500000 0.333333
vt 0.555556 0.416667
vt 0.500000 0.416667
vt 0.611111 0.500000
vt 0.611111 0.583333
vt 0.611111 0.666667
vt 0.611111 0.750000
vt 0.611111 0.833333
vt 0.611111 0.916667
vt 0.611111 1.000000
vt 0.611111 0.000000
vt 0.611111 0.083333
vt 0.611111 0.166667
vt 0.611111 0.250000
vt 0.611111 0.333333
vt 0.611111 0.416667
vt 0.666667 0.500000
vt 0.666667 0.583333
vt 0.666667 0.666667
vt 0.666667 0.750000
vt 0.666667 0.833333
vt 0.666667 0.916667
vt 0.666667 1.000000
vt 0.666667 0.000000
vt 0.666667 0.083333
vt 0.666667 0.166667
vt 0.666667 0.250000
vt 0.666667 0.333333
vt 0.666667 0.416667
vt 0.722222 0.500000
vt 0.722222 0.583333
vt 0.722222 0.666667
vt 0.722222 0.750000
vt 0.722222 0.833333
vt 0.722222 0.916667
vt 0.722222 1.000000
vt 0.722222 0.000000
vt 0.722222 0.083333
vt 0.722222 0.166667
vt 0.722222 0.250000
vt 0.722222 0.333333
vt 0.722222 0.416667
vt 0.777778 0.500000
vt 0.777778 0.583333
vt 0.777778 0.666667
vt 0.777778 0.750000
vt 0.777778 0.833333
vt 0.777778 0.916667
vt 0.388889 0.083333
vt 0.388889 0.000000
vt 0.444444 0.916667
vt 0.444444 1.000000
vt 0.777778 0.083333
vt 0.777778 0.166667
vt 0.777778 0.250000
vt 0.777778 0.333333
vt 0.777778 0.416667
vt 0.833333 0.500000
vt 0.833333 0.583333
vt 0.833333 0.666667
vt 0.833333 0.750000
vt 0.833333 0.833333
vt 0.833333 0.916667
vt 0.833333 1.000000
vt 0.777778 1.000000
vt 0.777778 0.000000
vt 0.833333 0.000000
vt 0.833333 0.083333
vt 0.833333 0.166667
vt 0.833333 0.250000
vt 0.833333 0.333333
vt 0.833333 0.416667
vt 0.888889 0.500000
vt 0.888889 0.583333
vt 0.888889 0.666667
vt 0.888889 0.750000
vt 0.888889 0.833333
vt 0.888889 0.916667
vt 0.888889 1.000000
vt 0.888889 0.000000
vt 0.888889 0.083333
vt 0.888889 0.166667
vt 0.888889 0.250000
vt 0.888889 0.333333
vt 0.888889 0.416667
vt 0.944444 0.500000
vt 0.944444 0.583333
vt 0.944444 0.666667
vt 0.944444 0.750000
vt 0.944444 0.833333
vt 0.944444 0.916667
vt 0.944444 1.000000
vt 0.944444 0.000000
vt 0.944444 0.083333
vt 0.944444 0.166667
vt 0.944444 0.250000
vt 0.944444 0.333333
vt 0.944444 0.416667
vt 1.000000 0.500000
vt 1.000000 0.583333
vt 1.000000 0.666667
vt 1.000000 0.750000
vt 1.000000 0.833333
vt 1.000000 0.916667
vt 1.000000 1.000000
vt 1.000000 0.000000
vt 1.000000 0.083333
vt 1.000000 0.166667
vt 1.000000 0.250000
vt 1.000000 0.333333
vt 1.000000 0.416667
vt 0.000000 0.500000
vt 0.055556 0.500000
vt 0.055556 0.583333
vt 0.000000 0.583333
vt 0.055556 0.666667
vt 0.000000 0.666667
vt 0.055556 0.750000
vt 0.000000 0.750000
vt 0.055556 0.833333
vt 0.000000 0.833333
vt 0.055556 0.916667
vt 0.000000 0.916667
vt 0.055556 1.000000
vt 0.000000 1.000000
vt 0.000000 0.000000
vt 0.055556 0.000000
vt 0.055556 0.083333
vt 0.000000 0.083333
vt 0.055556 0.166667
vt 0.000000 0.166667
vt 0.055556 0.250000
vt 0.000000 0.250000
vt 0.055556 0.333333
vt 0.000000 0.333333
vt 0.055556 0.416667
vt 0.000000 0.416667
vt 0.111111 0.500000
vt 0.111111 0.583333
vt 0.111111 0.666667
vt 0.111111 0.750000
vt 0.111111 0.833333
vt 0.111111 0.916667
vt 0.111111 0.083333
vt 0.111111 0.166667
vt 0.111111 0.250000
vt 0.111111 0.333333
vt 0.111111 0.416667
vt 0.166667 0.500000
vt 0.166667 0.583333
vt 0.166667 0.666667
vt 0.166667 0.750000
vt 0.166667 0.833333
vt 0.166667 0.916667
vt 0.166667 1.000000
vt 0.111111 1.000000
vt 0.111111 0.000000
vt 0.166667 0.000000
vt 0.166667 0.083333
vt 0.166667 0.166667
vt 0.166667 0.250000
vt 0.166667 0.333333
vt 0.166667 0.416667
vt 0.222222 0.500000
vt 0.222222 0.583333
vt 0.222222 0.666667
vt 0.222222 0.750000
vt 0.222222 0.833333
vt 0.222222 0.916667
vt 0.222222 1.000000
vt 0.222222 0.000000
vt 0.222222 0.083333
vt 0.222222 0.166667
vt 0.222222 0.250000
vt 0.222222 0.333333
vt 0.222222 0.416667
vt 0.277778 0.500000
vt 0.277778 0.583333
vt 0.277778 0.666667
vt 0.277778 0.750000
vt 0.277778 0.833333
vt 0.277778 0.916667
vt 0.277778 1.000000
vt 0.277778 0.000000
vt 0.277778 0.083333
vt 0.277778 0.166667
vt 0.277778 0.250000
vt 0.277778 0.333333
vt 0.277778 0.416667
vt 0.333333 0.500000
vt 0.333333 0.583333
vt 0.333333 0.666667
vt 0.333333 0.750000
vt 0.333333 0.833333
vt 0.333333 0.916667
vt 0.333333 1.000000
vt 0.333333 0.000000
vt 0.333333 0.083333
vt 0.333333 0.166667
vt 0.333333 0.250000
vt 0.333333 0.333333
vt 0.333333 0.416667
vt 0.388889 0.500000
vt 0.388889 0.583333
vt 0.388889 0.666667
vt 0.388889 0.750000
vt 0.388889 0.833333
vt 0.388889 0.916667
vt 0.388889 1.000000
vt 0.388889 0.166667
vt 0.388889 0.250000
vt 0.388889 0.333333
vt 0.388889 0.416667
vt 0.444444 0.500000
vt 0.444444 0.583333
vt 0.444444 0.666667
vt 0.444444 0.750000
vt 0.444444 0.833333
vt 0.444444 0.083333
vt 0.444444 0.166667
vt 0.444444 0.250000
vt 0.444444 0.333333
vt 0.444444 0.416667
vt 0.444444 0.000000
vt 0.142857 0.569444
vt 0.142857 1.000000
vt 0.000000 0.569444
vt 0.714286 0.569444
vt 0.714286 1.000000
vt 0.571429 1.000000
vt 0.571429 0.569444
vt 0.428571 1.000000
vt 0.428571 0.569444
vt 0.285714 1.000000
vt 0.285714 0.569444
vt 0.857143 0.569444
vt 0.857143 1.000000
vt 1.000000 0.569444
vt 0.864976 0.500000
vt 0.992167 0.500000
vt 0.722118 0.500000
vt 0.849310 0.500000
vt 0.579261 0.500000
vt 0.706453 0.500000
vt 0.436404 0.500000
vt 0.563596 0.500000
vt 0.293547 0.500000
vt 0.420739 0.500000
vt 0.150690 0.500000
vt 0.277882 0.500000
vt 0.007833 0.500000
vt 0.135024 0.500000
vt 0.750000 0.463682
vt 0.917063 0.383229
vt 0.958324 0.202451
vt 0.842713 0.057479
vt 0.657287 0.057479
vt 0.541676 0.202451
vt 0.582937 0.383228
vt 0.437640 0.399638
vt 0.250000 0.490000
vt 0.062360 0.399638
vt 0.016017 0.196595
vt 0.145868 0.033767
vt 0.354132 0.033767
vt 0.483983 0.196595
s 1
f 1/1/1 13/2/2 14/3/3 2/4/4
f 2/4/4 14/3/3 15/5/5 3/6/6
f 3/6/6 15/5/5 16/7/7 4/8/8
f 4/8/8 16/7/7 17/9/9 5/10/10
f 5/10/10 17/9/9 18/11/11 6/12/12
f 6/12/12 18/11/11 19/13/13 7/14/14
f 7/15/14 19/16/13 20/17/15 8/18/16
f 8/18/16 20/17/15 21/19/17 9/20/18
f 9/20/18 21/19/17 22/21/19 10/22/20
f 10/22/20 22/21/19 23/23/21 11/24/22
f 11/24/22 23/23/21 24/25/23 12/26/24
f 12/26/24 24/25/23 13/2/2 1/1/1
f 13/2/2 25/27/25 26/28/26 14/3/3
f 14/3/3 26/28/26 27/29/27 15/5/5
f 15/5/5 27/29/27 28/30/28 16/7/7
f 16/7/7 28/30/28 29/31/29 17/9/9
f 17/9/9 29/31/29 30/32/30 18/11/11
f 18/11/11 30/32/30 31/33/31 19/13/13
f 19/16/13 31/34/31 32/35/32 20/17/15
f 20/17/15 32/35/32 33/36/33 21/19/17
f 21/19/17 33/36/33 34/37/34 22/21/19
f 22/21/19 34/37/34 35/38/35 23/23/21
f 23/23/21 35/38/35 36/39/36 24/25/23
f 24/25/23 36/39/36 25/27/25 13/2/2
f 25/27/25 37/40/37 38/41/38 26/28/26
f 26/28/26 38/41/38 39/42/39 27/29/27
f 27/29/27 39/42/39 40/43/40 28/30/28
f 28/30/28 40/43/40 41/44/41 29/31/29
f 29/31/29 41/44/41 42/45/42 30/32/30
f 30/32/30 42/45/42 43/46/43 31/33/31
f 31/34/31 43/47/43 44/48/44 32/35/32
f 32/35/32 44/48/44 45/49/45 33/36/33
f 33/36/33 45/49/45 46/50/46 34/37/34
f 34/37/34 46/50/46 47/51/47 35/38/35
f 35/38/35 47/51/47 48/52/48 36/39/36
f 36/39/36 48/52/48 37/40/37 25/27/25
f 37/40/37 49/53/49 50/54/50 38/41/38
f 38/41/38 50/54/50 51/55/51 39/42/39
f 39/42/39 51/55/51 52/56/52 40/43/40
f 40/43/40 52/56/52 53/57/53 41/44/41
f 41/44/41 53/57/53 54/58/54 42/45/42
f 42/45/42 54/58/54 55/59/55 43/46/43
f 43/47/43 55/60/55 56/61/56 44/48/44
f 44/48/44 56/61/56 57/62/57 45/49/45
f 45/49/45 57/62/57 58/63/58 46/50/46
f 46/50/46 58/63/58 59/64/59 47/51/47
f 47/51/47 59/64/59 60/65/60 48/52/48
f 48/52/48 60/65/60 49/53/49 37/40/37
f 49/53/49 61/66/61 62/67/62 50/54/50
f 50/54/50 62/67/62 63/68/63 51/55/51
f 51/55/51 63/68/63 64/69/64 52/56/52
f 52/56/52 64/69/64 65/70/65 53/57/53
f 53/57/53 65/70/65 66/71/66 54/58/54
f 270/72/67 267/73/68 230/73/69 231/72/70
f 265/74/71 266/75/72 233/75/73 232/74/74
f 56/61/56 68/76/75 69/77/76 57/62/57
f 57/62/57 69/77/76 70/78/77 58/63/58
f 58/63/58 70/78/77 71/79/78 59/64/59
f 59/64/59 71/79/78 72/80/79 60/65/60
f 60/65/60 72/80/79 61/66/61 49/53/49
f 61/66/61 73/81/80 74/82/81 62/67/62
f 62/67/62 74/82/81 75/83/82 63/68/63
f 63/68/63 75/83/82 76/84/83 64/69/64
f 64/69/64 76/84/83 77/85/84 65/70/65
f 65/70/65 77/85/84 78/86/85 66/71/66
f 66/71/66 78/86/85 79/87/86 67/88/87
f 67/89/87 79/90/86 80/91/88 68/76/75
f 68/76/75 80/91/88 81/92/89 69/77/76
f 69/77/76 81/92/89 82/93/90 70/78/77
f 70/78/77 82/93/90 83/94/91 71/79/78
f 71/79/78 83/94/91 84/95/92 72/80/79
f 72/80/79 84/95/92 73/81/80 61/66/61
f 73/81/80 85/96/93 86/97/94 74/82/81
f 74/82/81 86/97/94 87/98/95 75/83/82
f 75/83/82 87/98/95 88/99/96 76/84/83
f 76/84/83 88/99/96 89/100/97 77/85/84
f 77/85/84 89/100/97 90/101/98 78/86/85
f 78/86/85 90/101/98 91/102/99 79/87/86
f 79/90/86 91/103/99 92/104/100 80/91/88
f 80/91/88 92/104/100 93/105/101 81/92/89
f 81/92/89 93/105/101 94/106/102 82/93/90
f 82/93/90 94/106/102 95/107/103 83/94/91
f 83/94/91 95/107/103 96/108/104 84/95/92
f 84/95/92 96/108/104 85/96/93 73/81/80
f 85/96/93 97/109/105 98/110/106 86/97/94
f 86/97/94 98/110/106 99/111/107 87/98/95
f 87/98/95 99/111/107 100/112/108 88/99/96
f 88/99/96 100/112/108 101/113/109 89/100/97
f 89/100/97 101/113/109 102/114/110 90/101/98
f 90/101/98 102/114/110 103/115/111 91/102/99
f 91/103/99 103/116/111 104/117/112 92/104/100
f 92/104/100 104/117/112 105/118/113 93/105/101
f 93/105/101 105/118/113 106/119/114 94/106/102
f 94/106/102 106/119/114 107/120/115 95/107/103
f 95/107/103 107/120/115 108/121/116 96/108/104
f 96/108/104 108/121/116 97/109/105 85/96/93
f 97/109/105 109/122/14 110/123/117 98/110/106
f 98/110/106 110/123/117 111/124/118 99/111/107
f 99/111/107 111/124/118 112/125/119 100/112/108
f 100/112/108 112/125/119 113/126/120 101/113/109
f 101/113/109 113/126/120 114/127/121 102/114/110
f 102/114/110 114/127/121 115/128/1 103/115/111
f 103/116/111 115/129/1 116/130/122 104/117/112
f 104/117/112 116/130/122 117/131/123 105/118/113
f 105/118/113 117/131/123 118/132/124 106/119/114
f 106/119/114 118/132/124 119/133/125 107/120/115
f 107/120/115 119/133/125 120/134/126 108/121/116
f 108/121/116 120/134/126 109/122/14 97/109/105
f 109/135/14 121/136/13 122/137/127 110/138/117
f 110/138/117 122/137/127 123/139/128 111/140/118
f 111/140/118 123/139/128 124/141/129 112/142/119
f 112/142/119 124/141/129 125/143/130 113/144/120
f 113/144/120 125/143/130 126/145/131 114/146/121
f 114/146/121 126/145/131 127/147/132 115/148/1
f 115/149/1 127/150/132 128/151/133 116/152/122
f 116/152/122 128/151/133 129/153/134 117/154/123
f 117/154/123 129/153/134 130/155/135 118/156/124
f 118/156/124 130/155/135 131/157/136 119/158/125
f 119/158/125 131/157/136 132/159/137 120/160/126
f 120/160/126 132/159/137 121/136/13 109/135/14
f 121/136/13 133/161/138 134/162/139 122/137/127
f 122/137/127 134/162/139 135/163/140 123/139/128
f 123/139/128 135/163/140 136/164/141 124/141/129
f 124/141/129 136/164/141 137/165/142 125/143/130
f 125/143/130 137/165/142 138/166/143 126/145/131
f 263/167/144 259/151/145 225/151/146 228/167/147
f 253/58/148 254/71/149 220/71/150 217/58/151
f 128/151/133 140/167/152 141/168/153 129/153/134
f 129/153/134 141/168/153 142/169/154 130/155/135
f 130/155/135 142/169/154 143/170/155 131/157/136
f 131/157/136 143/170/155 144/171/156 132/159/137
f 132/159/137 144/171/156 133/161/138 121/136/13
f 133/161/138 145/172/43 146/173/157 134/162/139
f 134/162/139 146/173/157 147/174/158 135/163/140
f 135/163/140 147/174/158 148/175/159 136/164/141
f 136/164/141 148/175/159 149/176/160 137/165/142
f 137/165/142 149/176/160 150/177/161 138/166/143
f 138/166/143 150/177/161 151/178/37 139/179/162
f 139/180/162 151/181/37 152/182/163 140/167/152
f 140/167/152 152/182/163 153/183/164 141/168/153
f 141/168/153 153/183/164 154/184/165 142/169/154
f 142/169/154 154/184/165 155/185/166 143/170/155
f 143/170/155 155/185/166 156/186/167 144/171/156
f 144/171/156 156/186/167 145/172/43 133/161/138
f 145/172/43 157/187/168 158/188/169 146/173/157
f 146/173/157 158/188/169 159/189/170 147/174/158
f 147/174/158 159/189/170 160/190/171 148/175/159
f 148/175/159 160/190/171 161/191/172 149/176/160
f 149/176/160 161/191/172 162/192/173 150/177/161
f 150/177/161 162/192/173 163/193/49 151/178/37
f 151/181/37 163/194/49 164/195/174 152/182/163
f 152/182/163 164/195/174 165/196/175 153/183/164
f 153/183/164 165/196/175 166/197/176 154/184/165
f 154/184/165 166/197/176 167/198/177 155/185/166
f 155/185/166 167/198/177 168/199/178 156/186/167
f 156/186/167 168/199/178 157/187/168 145/172/43
f 157/187/168 169/200/179 170/201/180 158/188/169
f 158/188/169 170/201/180 171/202/181 159/189/170
f 159/189/170 171/202/181 172/203/182 160/190/171
f 160/190/171 172/203/182 173/204/183 161/191/172
f 161/191/172 173/204/183 174/205/184 162/192/173
f 162/192/173 174/205/184 175/206/185 163/193/49
f 163/194/49 175/207/185 176/208/186 164/195/174
f 164/195/174 176/208/186 177/209/187 165/196/175
f 165/196/175 177/209/187 178/210/188 166/197/176
f 166/197/176 178/210/188 179/211/189 167/198/177
f 167/198/177 179/211/189 180/212/190 168/199/178
f 168/199/178 180/212/190 169/200/179 157/187/168
f 169/200/179 181/213/86 182/214/191 170/201/180
f 170/201/180 182/214/191 183/215/192 171/202/181
f 171/202/181 183/215/192 184/216/193 172/203/182
f 172/203/182 184/216/193 185/217/194 173/204/183
f 173/204/183 185/217/194 186/218/195 174/205/184
f 174/205/184 186/218/195 187/219/80 175/206/185
f 175/207/185 187/220/80 188/221/196 176/208/186
f 176/208/186 188/221/196 189/222/197 177/209/187
f 177/209/187 189/222/197 190/223/198 178/210/188
f 178/210/188 190/223/198 191/224/199 179/211/189
f 179/211/189 191/224/199 192/225/200 180/212/190
f 180/212/190 192/225/200 181/213/86 169/200/179
f 181/213/86 193/226/99 194/227/201 182/214/191
f 182/214/191 194/227/201 195/228/202 183/215/192
f 183/215/192 195/228/202 196/229/203 184/216/193
f 184/216/193 196/229/203 197/230/204 185/217/194
f 185/217/194 197/230/204 198/231/205 186/218/195
f 186/218/195 198/231/205 199/232/206 187/219/80
f 187/220/80 199/73/206 200/72/207 188/221/196
f 188/221/196 200/72/207 201/233/208 189/222/197
f 189/222/197 201/233/208 202/234/209 190/223/198
f 190/223/198 202/234/209 203/235/210 191/224/199
f 191/224/199 203/235/210 204/236/211 192/225/200
f 192/225/200 204/236/211 193/226/99 181/213/86
f 193/226/99 205/237/111 206/238/212 194/227/201
f 194/227/201 206/238/212 207/239/213 195/228/202
f 195/228/202 207/239/213 208/240/214 196/229/203
f 196/229/203 208/240/214 209/241/215 197/230/204
f 197/230/204 209/241/215 210/74/216 198/231/205
f 269/231/217 265/74/71 232/74/74 229/231/218
f 257/59/219 253/58/148 217/58/151 218/59/220
f 200/72/207 212/242/221 213/243/222 201/233/208
f 201/233/208 213/243/222 214/244/223 202/234/209
f 202/234/209 214/244/223 215/245/224 203/235/210
f 203/235/210 215/245/224 216/246/225 204/236/211
f 204/236/211 216/246/225 205/237/111 193/226/99
f 205/237/111 1/1/1 2/4/4 206/238/212
f 206/238/212 2/4/4 3/6/6 207/239/213
f 207/239/213 3/6/6 4/8/8 208/240/214
f 208/240/214 4/8/8 5/10/10 209/241/215
f 209/241/215 5/10/10 6/12/12 210/74/216
f 210/74/216 6/12/12 7/14/14 211/75/226
f 211/247/226 7/15/14 8/18/16 212/242/221
f 212/242/221 8/18/16 9/20/18 213/243/222
f 213/243/222 9/20/18 10/22/20 214/244/223
f 214/244/223 10/22/20 11/24/22 215/245/224
f 215/245/224 11/24/22 12/26/24 216/246/225
f 216/246/225 12/26/24 1/1/1 205/237/111
f 217/58/151 220/71/150 221/88/227 218/59/220
f 218/60/220 221/89/227 222/76/228 219/61/229
f 223/145/230 226/166/231 227/179/232 224/147/233
f 224/150/233 227/180/232 228/167/147 225/151/146
f 229/231/218 232/74/74 233/75/73 230/232/69
f 230/73/69 233/247/73 234/242/234 231/72/70
f 254/71/149 255/88/235 221/88/227 220/71/150
f 258/61/236 257/60/219 218/60/220 219/61/229
f 266/247/72 268/242/237 234/242/234 233/247/73
f 264/147/238 260/145/239 223/145/230 224/147/233
f 255/89/235 256/76/240 222/76/228 221/89/227
f 268/242/237 270/72/67 231/72/70 234/242/234
f 260/145/239 261/166/241 226/166/231 223/145/230
f 256/76/240 258/61/236 219/61/229 222/76/228
f 261/166/241 262/179/242 227/179/232 226/166/231
f 259/151/145 264/150/238 224/150/233 225/151/146
f 267/232/68 269/231/217 229/231/218 230/232/69
f 262/180/242 263/167/144 228/167/147 227/180/232
f 199/232/206 198/231/205 236/231/243 238/232/244
f 212/242/221 200/72/207 239/72/245 240/242/246
f 211/247/226 212/242/221 240/242/246 237/247/247
f 198/231/205 210/74/216 235/74/248 236/231/243
f 210/74/216 211/75/226 237/75/247 235/74/248
f 200/72/207 199/73/206 238/73/244 239/72/245
f 139/180/162 140/167/152 242/167/249 246/180/250
f 128/151/133 127/150/132 244/150/251 241/151/252
f 138/166/143 139/179/162 246/179/250 245/166/253
f 126/145/131 138/166/143 245/166/253 243/145/254
f 127/147/132 126/145/131 243/145/254 244/147/251
f 140/167/152 128/151/133 241/151/252 242/167/249
f 68/76/75 56/61/56 251/61/255 252/76/256
f 67/89/87 68/76/75 252/76/256 250/89/257
f 56/61/56 55/60/55 247/60/258 251/61/255
f 66/71/66 67/88/87 250/88/257 249/71/259
f 55/59/55 54/58/54 248/58/260 247/59/258
f 54/58/54 66/71/66 249/71/259 248/58/260
f 252/76/256 251/61/255 258/61/236 256/76/240
f 250/89/257 252/76/256 256/76/240 255/89/235
f 251/61/255 247/60/258 257/60/219 258/61/236
f 249/71/259 250/88/257 255/88/235 254/71/149
f 247/59/258 248/58/260 253/58/148 257/59/219
f 248/58/260 249/71/259 254/71/149 253/58/148
f 246/180/250 242/167/249 263/167/144 262/180/242
f 241/151/252 244/150/251 264/150/238 259/151/145
f 245/166/253 246/179/250 262/179/242 261/166/241
f 243/145/254 245/166/253 261/166/241 260/145/239
f 244/147/251 243/145/254 260/145/239 264/147/238
f 242/167/249 241/151/252 259/151/145 263/167/144
f 238/232/244 236/231/243 269/231/217 267/232/68
f 240/242/246 239/72/245 270/72/67 268/242/237
f 237/247/247 240/242/246 268/242/237 266/247/72
f 236/231/243 235/74/248 265/74/71 269/231/217
f 235/74/248 237/75/247 266/75/72 265/74/71
f 239/72/245 238/73/244 267/73/68 270/72/67
f 305/248/261 277/249/261 271/148/261 293/250/261
f 297/251/262 273/252/262 274/253/262 299/254/262
f 299/254/263 274/253/263 275/255/263 301/256/263
f 301/256/264 275/255/264 276/257/264 303/258/264
f 303/258/265 276/257/265 277/249/265 305/248/265
f 271/148/261 277/249/261 284/249/261 278/148/261
f 295/259/266 272/260/266 273/252/266 297/251/266
f 293/261/267 271/128/267 272/260/267 295/259/267
f 278/148/268 284/249/268 291/249/268 285/148/268
f 273/252/266 272/260/266 279/260/266 280/252/266
f 276/257/264 275/255/264 282/255/264 283/257/264
f 272/260/267 271/128/267 278/128/267 279/260/267
f 274/253/262 273/252/262 280/252/262 281/253/262
f 277/249/265 276/257/265 283/257/265 284/249/265
f 275/255/263 274/253/263 281/253/263 282/255/263
f 291/249/269 290/257/269 311/257/269 312/249/269
f 283/257/270 282/255/270 289/255/270 290/257/270
f 281/253/271 280/252/271 287/252/271 288/253/271
f 279/260/272 278/128/272 285/128/272 286/260/272
f 284/249/273 283/257/273 290/257/273 291/249/273
f 282/255/274 281/253/274 288/253/274 289/255/274
f 280/252/275 279/260/275 286/260/275 287/252/275
f 293/261/276 295/259/276 294/262/276 292/263/276
f 295/259/277 297/251/277 296/264/277 294/265/277
f 297/251/278 299/254/278 298/266/278 296/267/278
f 299/254/279 301/256/279 300/268/279 298/269/279
f 301/256/280 303/258/280 302/270/280 300/271/280
f 303/258/281 305/248/281 304/272/281 302/273/281
f 305/248/282 293/250/282 292/274/282 304/275/282
f 292/276/283 294/277/283 296/278/283 298/279/283 300/280/283 302/281/283 304/282/283
f 312/249/284 311/257/284 318/257/284 319/249/284
f 289/255/263 288/253/263 309/253/263 310/255/263
f 287/252/285 286/260/285 307/260/285 308/252/285
f 285/148/286 291/249/286 312/249/286 306/148/286
f 290/257/287 289/255/287 310/255/287 311/257/287
f 288/253/288 287/252/288 308/252/288 309/253/288
f 286/260/289 285/128/289 306/128/289 307/260/289
f 313/148/261 319/249/261 326/249/261 320/148/261
f 310/255/290 309/253/290 316/253/290 317/255/290
f 308/252/291 307/260/291 314/260/291 315/252/291
f 306/148/292 312/249/292 319/249/292 313/148/292
f 311/257/293 310/255/293 317/255/293 318/257/293
f 309/253/294 308/252/294 315/252/294 316/253/294
f 307/260/295 306/128/295 313/128/295 314/260/295
f 324/255/296 323/253/296 330/253/296 331/255/296
f 318/257/287 317/255/287 324/255/287 325/257/287
f 316/253/288 315/252/288 322/252/288 323/253/288
f 314/260/267 313/128/267 320/128/267 321/260/267
f 319/249/265 318/257/265 325/257/265 326/249/265
f 317/255/263 316/253/263 323/253/263 324/255/263
f 315/252/266 314/260/266 321/260/266 322/252/266
f 328/260/297 327/128/297 334/128/297 335/260/297
f 322/252/298 321/260/298 328/260/298 329/252/298
f 320/148/299 326/249/299 333/249/299 327/148/299
f 325/257/300 324/255/300 331/255/300 332/257/300
f 323/253/301 322/252/301 329/252/301 330/253/301
f 321/260/302 320/128/302 327/128/302 328/260/302
f 326/249/303 325/257/303 332/257/303 333/249/303
f 335/283/304 334/284/304 340/285/304 339/286/304 338/287/304 337/288/304 336/289/304
f 333/249/305 332/257/305 339/257/305 340/249/305
f 331/255/263 330/253/263 337/253/263 338/255/263
f 329/252/306 328/260/306 335/260/306 336/252/306
f 327/148/307 333/249/307 340/249/307 334/148/307
f 332/257/308 331/255/308 338/255/308 339/257/308
f 330/253/309 329/252/309 336/252/309 337/253/309
