# Blender 4.3.1
# www.blender.org
mtllib dvere.mtl
o Cube.018
v -2.695501 -1.780617 -0.085106
v -2.695501 1.780617 -0.085106
v -2.695501 -1.780617 0.085106
v -2.695501 1.780617 0.085106
v 2.695501 -1.780617 -0.085106
v 2.695501 1.780617 -0.085106
v 2.695501 -1.780617 0.085106
v 2.695501 1.780617 0.085106
vn 1.0000 -0.0000 -0.0000
vn -0.0000 -0.0000 -1.0000
vn -1.0000 -0.0000 -0.0000
vn -0.0000 -0.0000 1.0000
vn -0.0000 1.0000 -0.0000
vn -0.0000 -1.0000 -0.0000
vt 0.179780 0.998979
vt 0.022886 0.985170
vt 0.030040 0.976879
vt 0.171275 0.990851
vt 0.031391 0.775768
vt 0.172626 0.789740
vt 0.022886 0.767640
vt 0.179780 0.781450
vt 0.964883 0.965474
vt 0.346057 0.965474
vt 0.346057 0.028695
vt 0.964883 0.028695
s 0
usemtl Material.012
f 1/1/1 2/2/1 4/3/1 3/4/1
f 3/4/2 4/3/2 8/5/2 7/6/2
f 7/6/3 8/5/3 6/7/3 5/8/3
f 5/9/4 6/10/4 2/11/4 1/12/4
f 3/4/5 7/6/5 5/8/5 1/1/5
f 8/5/6 4/3/6 2/2/6 6/7/6
