# Blender 4.3.1
# www.blender.org
mtllib stena_1.mtl
o Cube.061
v -0.491566 -0.511206 -0.138945
v -0.491566 0.512892 -0.138945
v -0.491566 -0.511206 -0.387870
v -0.491566 0.512892 -0.387870
v -1.541805 0.512892 -0.371224
v -1.541805 -0.511206 -0.371224
v -1.478325 0.512892 -0.125826
v -1.478325 -0.511206 -0.125826
v 0.000000 -0.511206 -0.375879
v 0.000000 0.512892 -0.375879
v 0.000000 -0.511206 -0.135418
v 0.000000 0.512892 -0.135418
v -2.323416 0.512892 5.075699
v -2.323416 -0.511206 5.075699
v -2.331745 0.645241 5.063733
v -2.519929 0.645241 4.885661
v -2.490366 0.645241 4.959997
v -1.622182 0.512892 -0.575429
v -0.571944 0.512892 -0.595977
v 0.000000 0.512892 -0.589530
v -2.437650 0.512892 5.278227
v -2.437650 0.601638 5.278227
v -1.622182 0.601638 -0.575429
v -0.571944 0.601638 -0.595977
v 0.000000 0.601638 -0.589530
v -1.559237 2.274669 -0.268942
v -0.631608 2.274669 -0.283645
v 0.000000 2.274669 -0.273054
v -2.314966 0.645241 0.914623
v -2.332343 2.274669 5.082965
v -1.630231 2.274669 -0.449308
v -0.702602 2.274669 -0.467456
v 0.000000 2.274669 -0.461762
v 0.000000 1.880180 -0.589530
v -0.571944 1.880180 -0.595977
v -1.622182 1.880180 -0.575429
v 0.000000 1.880180 -0.375879
v -0.491566 1.880180 -0.387870
v -2.437650 1.880180 5.278227
v -1.541805 1.880180 -0.371224
v -2.116170 0.645241 0.528875
v -1.559237 2.906090 -0.268942
v -0.631608 2.906090 -0.283645
v 0.000000 2.906090 -0.273054
v -0.491566 0.645241 -0.381971
v -2.332343 2.906090 5.082965
v -1.630231 2.906090 -0.449308
v -0.702602 2.906090 -0.467456
v 0.000000 2.906090 -0.461762
v -1.923568 -0.511206 0.673349
v -2.115518 -0.511206 1.064841
v -1.923543 0.512892 0.673321
v -2.115420 0.512892 1.064355
v -2.120498 -0.511206 0.525821
v -2.319430 -0.511206 0.912382
v -2.319443 0.512892 0.912444
v -2.120548 0.512892 0.525874
v -1.540272 0.645241 -0.365298
v -2.301394 0.512892 0.374616
v -2.506794 0.512892 0.755197
v -2.506629 0.601638 0.754430
v -2.301395 0.601638 0.374616
v -2.034350 2.274669 0.517812
v -2.233087 2.274669 0.903087
v -2.398782 2.274669 0.764441
v -2.193523 2.274669 0.384811
v -2.301340 1.880180 0.374561
v -2.506558 1.880180 0.754096
v -2.120381 1.880180 0.525696
v -2.319141 1.880180 0.910989
v -2.233183 2.906090 0.903549
v -2.034410 2.906090 0.517877
v -2.193523 2.906090 0.384812
v -2.398885 2.906090 0.764917
v -2.494622 0.512892 4.963733
v -2.525094 0.512892 4.886670
v -2.494638 -0.511206 4.963723
v -2.525117 -0.511206 4.886782
v -2.749808 0.601638 5.102102
v -2.782897 0.601638 5.027128
v -2.749599 0.512892 5.102220
v -2.782855 0.512892 5.026931
v -2.378021 2.274669 4.808224
v -2.408410 2.274669 4.731499
v -2.635999 2.274669 4.855189
v -2.602955 2.274669 4.930282
v -2.749878 1.880180 5.102062
v -2.782890 1.880180 5.027093
v -2.525180 1.880180 4.887082
v -2.494788 1.880180 4.963625
v -2.408371 2.906090 4.731313
v -2.377968 2.906090 4.808259
v -2.602775 2.906090 4.930384
v -2.635972 2.906090 4.855065
v -0.491566 0.601638 -0.334835
v -0.491566 0.650697 -0.387870
v -1.541805 0.650697 -0.371224
v -1.528021 0.601638 -0.317940
v 0.000000 0.650697 -0.375879
v 0.000000 0.601638 -0.322996
v 0.000000 0.552580 -0.375879
v 0.000000 0.601638 -0.424938
v 0.000000 0.596182 -0.419481
v 0.000000 0.645241 -0.369997
v -2.347518 0.601638 5.118429
v -2.323416 0.552580 5.075699
v -2.082422 0.601638 0.554174
v -2.120393 0.650697 0.525709
v -2.319230 0.650697 0.911419
v -2.280889 0.601638 0.940223
v -2.477816 0.601638 4.873570
v -2.525199 0.650697 4.887174
v -2.454952 0.601638 4.931059
v -2.494798 0.650697 4.963618
v -0.491566 -0.590034 -0.138945
v -0.491566 -0.590034 -0.387870
v -1.541805 -0.590034 -0.371224
v -1.478325 -0.590034 -0.125826
v 0.000000 -0.590034 -0.375879
v 0.000000 -0.590034 -0.135418
v -2.323416 -0.590034 5.075699
v -1.923568 -0.590034 0.673349
v -2.115518 -0.590034 1.064841
v -2.120498 -0.590034 0.525821
v -2.319430 -0.590034 0.912382
v -2.494638 -0.590034 4.963723
v -2.525117 -0.590034 4.886782
v -0.491566 0.590573 -0.138945
v -0.491566 0.601638 -0.151735
v -1.481660 0.601638 -0.138718
v -1.478325 0.590631 -0.125826
v 0.000000 0.601638 -0.148161
v 0.000000 0.590554 -0.135418
v -2.236934 2.274669 4.913812
v -2.240990 2.274669 4.897840
v -2.328852 1.880180 5.085336
v -2.332945 1.880180 5.069467
v -2.236941 2.906090 4.913824
v -2.240995 2.906090 4.897837
v -2.124594 0.601638 1.057555
v -2.115433 0.590885 1.064422
v -1.923522 0.590732 0.673297
v -1.932531 0.601638 0.666538
v -2.315176 0.591103 5.035058
v -2.322367 0.601638 5.017766
v -2.332918 0.650697 5.069485
v -2.328773 0.639795 5.085195
v -2.327260 0.634379 5.079618
v -2.323679 0.607740 5.024199
v 0.000000 0.607740 -0.329574
v -0.491566 0.607740 -0.341431
v 0.000000 0.558681 -0.381981
v -1.529736 0.607740 -0.324567
v -2.285658 0.607740 0.936640
v -2.459907 0.607740 4.935109
v -2.087145 0.607740 0.550634
v -2.483709 0.607740 4.875262
v -2.316867 0.597159 5.041293
v -2.332589 0.603029 5.083930
v -2.324538 0.583876 5.066267
v 0.491566 -0.511206 -0.138945
v 0.491566 0.512892 -0.138945
v 0.491566 -0.511206 -0.387870
v 0.491566 0.512892 -0.387870
v 1.541805 0.512892 -0.371224
v 1.541805 -0.511206 -0.371224
v 1.478325 0.512892 -0.125826
v 1.478325 -0.511206 -0.125826
v 2.323416 0.512892 5.075699
v 2.323416 -0.511206 5.075699
v 2.331745 0.645241 5.063733
v 2.519929 0.645241 4.885661
v 2.490366 0.645241 4.959997
v 1.622182 0.512892 -0.575429
v 0.571944 0.512892 -0.595977
v 2.437650 0.512892 5.278227
v 2.437650 0.601638 5.278227
v 1.622182 0.601638 -0.575429
v 0.571944 0.601638 -0.595977
v 1.559237 2.274669 -0.268942
v 0.631608 2.274669 -0.283645
v 2.314966 0.645241 0.914623
v 2.332343 2.274669 5.082965
v 1.630231 2.274669 -0.449308
v 0.702602 2.274669 -0.467456
v 0.571944 1.880180 -0.595977
v 1.622182 1.880180 -0.575429
v 0.491566 1.880180 -0.387870
v 2.437650 1.880180 5.278227
v 1.541805 1.880180 -0.371224
v 2.116170 0.645241 0.528875
v 1.559237 2.906090 -0.268942
v 0.631608 2.906090 -0.283645
v 0.491566 0.645241 -0.381971
v 2.332343 2.906090 5.082965
v 1.630231 2.906090 -0.449308
v 0.702602 2.906090 -0.467456
v 1.923568 -0.511206 0.673349
v 2.115518 -0.511206 1.064841
v 1.923543 0.512892 0.673321
v 2.115420 0.512892 1.064355
v 2.120498 -0.511206 0.525821
v 2.319430 -0.511206 0.912382
v 2.319443 0.512892 0.912444
v 2.120548 0.512892 0.525874
v 1.540272 0.645241 -0.365298
v 2.301394 0.512892 0.374616
v 2.506794 0.512892 0.755197
v 2.506629 0.601638 0.754430
v 2.301395 0.601638 0.374616
v 2.034350 2.274669 0.517812
v 2.233087 2.274669 0.903087
v 2.398782 2.274669 0.764441
v 2.193523 2.274669 0.384811
v 2.301340 1.880180 0.374561
v 2.506558 1.880180 0.754096
v 2.120381 1.880180 0.525696
v 2.319141 1.880180 0.910989
v 2.233183 2.906090 0.903549
v 2.034410 2.906090 0.517877
v 2.193523 2.906090 0.384812
v 2.398885 2.906090 0.764917
v 2.494622 0.512892 4.963733
v 2.525094 0.512892 4.886670
v 2.494638 -0.511206 4.963723
v 2.525117 -0.511206 4.886782
v 2.749808 0.601638 5.102102
v 2.782897 0.601638 5.027128
v 2.749599 0.512892 5.102220
v 2.782855 0.512892 5.026931
v 2.378021 2.274669 4.808224
v 2.408410 2.274669 4.731499
v 2.635999 2.274669 4.855189
v 2.602955 2.274669 4.930282
v 2.749878 1.880180 5.102062
v 2.782890 1.880180 5.027093
v 2.525180 1.880180 4.887082
v 2.494788 1.880180 4.963625
v 2.408371 2.906090 4.731313
v 2.377968 2.906090 4.808259
v 2.602775 2.906090 4.930384
v 2.635972 2.906090 4.855065
v 0.491566 0.601638 -0.334835
v 0.491566 0.650697 -0.387870
v 1.541805 0.650697 -0.371224
v 1.528021 0.601638 -0.317940
v 2.347518 0.601638 5.118429
v 2.323416 0.552580 5.075699
v 2.082422 0.601638 0.554174
v 2.120393 0.650697 0.525709
v 2.319230 0.650697 0.911419
v 2.280889 0.601638 0.940223
v 2.477816 0.601638 4.873570
v 2.525199 0.650697 4.887174
v 2.454952 0.601638 4.931059
v 2.494798 0.650697 4.963618
v 0.491566 -0.590034 -0.138945
v 0.491566 -0.590034 -0.387870
v 1.541805 -0.590034 -0.371224
v 1.478325 -0.590034 -0.125826
v 2.323416 -0.590034 5.075699
v 1.923568 -0.590034 0.673349
v 2.115518 -0.590034 1.064841
v 2.120498 -0.590034 0.525821
v 2.319430 -0.590034 0.912382
v 2.494638 -0.590034 4.963723
v 2.525117 -0.590034 4.886782
v 0.491566 0.590573 -0.138945
v 0.491566 0.601638 -0.151735
v 1.481660 0.601638 -0.138718
v 1.478325 0.590631 -0.125826
v 2.236934 2.274669 4.913812
v 2.240990 2.274669 4.897840
v 2.328852 1.880180 5.085336
v 2.332945 1.880180 5.069467
v 2.236941 2.906090 4.913824
v 2.240995 2.906090 4.897837
v 2.124594 0.601638 1.057555
v 2.115433 0.590885 1.064422
v 1.923522 0.590732 0.673297
v 1.932531 0.601638 0.666538
v 2.315176 0.591103 5.035058
v 2.322367 0.601638 5.017766
v 2.332918 0.650697 5.069485
v 2.328773 0.639795 5.085195
v 2.327260 0.634379 5.079618
v 2.323679 0.607740 5.024199
v 0.491566 0.607740 -0.341431
v 1.529736 0.607740 -0.324567
v 2.285658 0.607740 0.936640
v 2.459907 0.607740 4.935109
v 2.087145 0.607740 0.550634
v 2.483709 0.607740 4.875262
v 2.316867 0.597159 5.041293
v 2.332589 0.603029 5.083930
v 2.324538 0.583876 5.066267
vn 0.0031 -0.0000 1.0000
vn 0.0043 -0.0000 -1.0000
vn 0.0030 -0.7117 -0.7025
vn -0.2707 -0.8301 -0.4876
vn -0.4854 -0.0000 -0.8743
vn 0.5123 -0.0000 0.8588
vn -0.0000 -0.0000 -1.0000
vn 0.5804 -0.5714 -0.5802
vn -0.0000 -0.0000 1.0000
vn 0.2425 -0.0000 0.9701
vn 0.7912 -0.3686 0.4881
vn 0.4528 -0.0000 0.8916
vn 0.7353 0.5665 -0.3721
vn 0.7123 0.6927 -0.1128
vn 0.5344 0.7238 -0.4366
vn -0.3662 -0.6187 -0.6951
vn -0.0029 -0.7037 -0.7105
vn 0.3323 -0.6693 -0.6645
vn 0.2192 -0.5773 0.7865
vn 0.2684 -0.0000 0.9633
vn -0.4661 -0.0000 -0.8847
vn -0.0041 -0.0000 -1.0000
vn 0.4472 -0.0000 -0.8944
vn 0.5149 -0.1109 0.8501
vn 0.0006 -0.1277 0.9918
vn 0.4209 -0.1174 0.8995
vn 0.7043 0.6849 0.1868
vn 0.3641 0.1673 0.9162
vn -0.4922 0.1447 -0.8584
vn -0.0067 0.1554 -0.9878
vn 0.4868 0.1371 -0.8627
vn 0.4144 0.1431 -0.8988
vn -0.0032 0.1556 -0.9878
vn -0.4462 0.1391 -0.8841
vn 0.4780 -0.1141 0.8709
vn -0.0050 -0.1281 0.9918
vn 0.2116 0.1935 0.9580
vn 0.4662 -0.1097 0.8778
vn 0.6349 0.6798 0.3670
vn 0.2750 0.8340 0.4784
vn -0.0003 0.7108 0.7034
vn 0.3349 0.6627 0.6698
vn -0.0028 0.7346 0.6785
vn 0.2192 0.5773 0.7865
vn -0.3762 0.6166 -0.6915
vn -0.0041 0.7040 -0.7102
vn 0.3326 0.6686 -0.6651
vn 0.8860 -0.0000 0.4637
vn 0.9680 -0.0000 0.2511
vn 0.9679 -0.0100 0.2512
vn -0.8658 -0.0000 -0.5004
vn -0.9655 -0.0000 -0.2604
vn -0.6302 -0.7576 -0.1700
vn -0.6024 -0.7183 -0.3482
vn 0.3389 0.7452 0.5743
vn -0.6112 -0.6935 -0.3814
vn -0.7204 -0.6622 -0.2061
vn -0.9609 -0.0002 -0.2769
vn -0.8483 -0.0003 -0.5295
vn 0.8674 -0.0790 0.4913
vn 0.9587 -0.1091 0.2626
vn -0.9509 0.1419 -0.2751
vn -0.8470 0.1113 -0.5199
vn -0.8455 0.1122 -0.5221
vn -0.9528 0.1376 -0.2707
vn 0.8652 -0.0804 0.4949
vn 0.9611 -0.1075 0.2545
vn 0.6297 0.7584 0.1681
vn 0.6105 0.7148 0.3412
vn -0.6140 0.6962 -0.3720
vn -0.7215 0.6614 -0.2048
vn -0.4830 -0.7820 0.3940
vn -0.6434 -0.7582 0.1055
vn -0.7748 -0.0000 0.6321
vn -0.9868 -0.0000 0.1619
vn -0.7411 -0.0004 0.6714
vn -0.9846 -0.0003 0.1747
vn -0.5672 -0.6429 0.5148
vn -0.7420 -0.6574 0.1314
vn 0.7611 -0.2299 -0.6065
vn 0.9773 -0.1587 -0.1400
vn -0.9696 0.1952 0.1474
vn -0.7187 0.2688 0.6413
vn -0.7155 0.2439 0.6546
vn -0.9609 0.2009 0.1907
vn 0.9697 -0.1667 -0.1785
vn 0.7516 -0.2134 -0.6242
vn 0.6440 0.7574 -0.1075
vn 0.4830 0.7820 -0.3939
vn -0.5679 0.6426 0.5144
vn -0.7411 0.6580 0.1337
vn -0.0015 0.9297 0.3683
vn -0.0039 0.3991 0.9169
vn 0.4354 0.3722 0.8197
vn 0.2482 0.8935 0.3741
vn 0.5650 0.3321 0.7553
vn 0.5529 0.7773 0.3000
vn 1.0000 -0.0000 -0.0000
vn 0.4473 0.6561 0.6078
vn 0.8858 0.0011 0.4641
vn 0.9543 0.0120 0.2986
vn 0.3557 0.9122 0.2032
vn 0.8066 0.3609 0.4681
vn 0.8992 0.3545 0.2565
vn 0.4305 0.8972 0.0989
vn 0.4316 0.8998 -0.0641
vn 0.9212 0.3572 -0.1541
vn 0.3334 0.9025 -0.2725
vn 0.7199 0.3687 -0.5881
vn 0.0022 -0.7094 0.7048
vn 0.0030 -0.7026 -0.7116
vn -0.3829 -0.6148 -0.6895
vn 0.2789 -0.8389 0.4674
vn -0.0000 -0.7126 -0.7015
vn -0.0000 -0.7055 0.7087
vn 0.3768 -0.5546 0.7419
vn 0.6212 -0.7131 0.3250
vn 0.6345 -0.7552 0.1646
vn -0.6214 -0.6963 -0.3592
vn -0.7230 -0.6627 -0.1950
vn -0.5921 -0.6449 0.4832
vn -0.7394 -0.6622 0.1214
vn 0.0028 0.4174 0.9087
vn 0.0010 0.9381 0.3465
vn 0.1052 0.9728 0.2063
vn 0.4808 0.4828 0.7320
vn 0.3812 0.8656 0.3246
vn 0.3720 0.3847 0.8448
vn 0.9909 -0.1043 0.0855
vn 0.7865 -0.2010 -0.5840
vn 0.9811 -0.0627 0.1830
vn 0.8089 -0.2118 -0.5485
vn 0.7680 0.6322 0.1024
vn 0.6295 0.6338 -0.4495
vn 0.3330 0.9380 0.0968
vn 0.9027 0.3727 0.2152
vn 0.8194 0.3807 0.4286
vn 0.3385 0.9239 0.1786
vn 0.9805 0.1874 0.0599
vn 0.6455 0.7376 -0.1982
vn 0.8565 0.2397 -0.4571
vn 0.9697 0.0416 0.2405
vn 0.9805 0.1190 0.1564
vn 0.7147 0.5804 -0.3903
vn -0.0027 0.7346 0.6785
vn 0.3399 0.7452 0.5737
vn 0.7044 0.6848 0.1864
vn 0.5343 0.7238 -0.4366
vn 0.6358 0.6795 0.3661
vn 0.7123 0.6927 -0.1131
vn 0.9727 0.2066 0.1061
vn 0.9291 -0.0058 0.3697
vn 0.9379 0.0590 0.3418
vn -0.0031 -0.0000 1.0000
vn -0.0043 -0.0000 -1.0000
vn -0.0030 -0.7117 -0.7025
vn 0.2707 -0.8301 -0.4876
vn 0.4854 -0.0000 -0.8743
vn -0.5123 -0.0000 0.8588
vn -0.7912 -0.3686 0.4881
vn -0.4528 -0.0000 0.8916
vn -0.7353 0.5665 -0.3721
vn -0.7123 0.6927 -0.1128
vn -0.5344 0.7238 -0.4366
vn 0.3662 -0.6187 -0.6951
vn 0.0029 -0.7037 -0.7105
vn -0.2192 -0.5773 0.7865
vn -0.2684 -0.0000 0.9633
vn 0.4661 -0.0000 -0.8847
vn 0.0041 -0.0000 -1.0000
vn -0.5149 -0.1109 0.8501
vn -0.0006 -0.1277 0.9918
vn -0.7043 0.6849 0.1868
vn -0.3641 0.1673 0.9162
vn 0.4922 0.1447 -0.8584
vn 0.0067 0.1554 -0.9878
vn 0.0032 0.1556 -0.9878
vn 0.4462 0.1391 -0.8841
vn 0.0050 -0.1281 0.9918
vn -0.2116 0.1935 0.9580
vn -0.4662 -0.1097 0.8778
vn -0.6349 0.6798 0.3670
vn -0.2750 0.8340 0.4784
vn 0.0003 0.7108 0.7034
vn 0.0028 0.7346 0.6785
vn -0.2192 0.5773 0.7865
vn 0.3762 0.6166 -0.6915
vn 0.0041 0.7040 -0.7102
vn -0.8860 -0.0000 0.4637
vn -0.9680 -0.0000 0.2511
vn -0.9679 -0.0100 0.2512
vn 0.8658 -0.0000 -0.5004
vn 0.9655 -0.0000 -0.2604
vn 0.6302 -0.7576 -0.1700
vn 0.6024 -0.7183 -0.3482
vn -0.3389 0.7452 0.5743
vn 0.6112 -0.6935 -0.3814
vn 0.7204 -0.6622 -0.2061
vn 0.9609 -0.0002 -0.2769
vn 0.8483 -0.0003 -0.5295
vn -0.8674 -0.0790 0.4913
vn -0.9587 -0.1091 0.2626
vn 0.9509 0.1419 -0.2751
vn 0.8470 0.1113 -0.5199
vn 0.8455 0.1122 -0.5221
vn 0.9528 0.1376 -0.2707
vn -0.8652 -0.0804 0.4949
vn -0.9611 -0.1075 0.2545
vn -0.6297 0.7584 0.1681
vn -0.6105 0.7148 0.3412
vn 0.6140 0.6962 -0.3720
vn 0.7215 0.6614 -0.2048
vn 0.4830 -0.7820 0.3940
vn 0.6434 -0.7582 0.1055
vn 0.7748 -0.0000 0.6321
vn 0.9868 -0.0000 0.1619
vn 0.7411 -0.0004 0.6714
vn 0.9846 -0.0003 0.1747
vn 0.5672 -0.6429 0.5148
vn 0.7420 -0.6574 0.1314
vn -0.7611 -0.2299 -0.6065
vn -0.9773 -0.1587 -0.1400
vn 0.9696 0.1952 0.1474
vn 0.7187 0.2688 0.6413
vn 0.7155 0.2439 0.6546
vn 0.9609 0.2009 0.1907
vn -0.9697 -0.1667 -0.1785
vn -0.7516 -0.2134 -0.6242
vn -0.6440 0.7574 -0.1075
vn -0.4830 0.7820 -0.3939
vn 0.5679 0.6426 0.5144
vn 0.7411 0.6580 0.1337
vn 0.0015 0.9297 0.3683
vn 0.0039 0.3991 0.9169
vn -0.4354 0.3722 0.8197
vn -0.2482 0.8935 0.3741
vn -0.8858 0.0011 0.4641
vn -0.9543 0.0120 0.2986
vn -0.3557 0.9122 0.2032
vn -0.8066 0.3609 0.4681
vn -0.8992 0.3545 0.2565
vn -0.4305 0.8972 0.0989
vn -0.4316 0.8998 -0.0641
vn -0.9212 0.3572 -0.1541
vn -0.3334 0.9025 -0.2725
vn -0.7199 0.3687 -0.5881
vn -0.0022 -0.7094 0.7048
vn -0.0030 -0.7026 -0.7116
vn 0.3829 -0.6148 -0.6895
vn -0.2789 -0.8389 0.4674
vn -0.3768 -0.5546 0.7419
vn -0.6212 -0.7131 0.3250
vn -0.6345 -0.7552 0.1646
vn 0.6214 -0.6963 -0.3592
vn 0.7230 -0.6627 -0.1950
vn 0.5921 -0.6449 0.4832
vn 0.7394 -0.6622 0.1214
vn -0.0028 0.4174 0.9087
vn -0.0010 0.9381 0.3465
vn -0.1052 0.9728 0.2063
vn -0.4808 0.4828 0.7320
vn -0.9909 -0.1043 0.0855
vn -0.7865 -0.2010 -0.5840
vn -0.9811 -0.0627 0.1830
vn -0.8089 -0.2118 -0.5485
vn -0.7680 0.6322 0.1024
vn -0.6295 0.6338 -0.4495
vn -0.3330 0.9380 0.0968
vn -0.9027 0.3727 0.2152
vn -0.8194 0.3807 0.4286
vn -0.3385 0.9239 0.1786
vn -0.9805 0.1873 0.0599
vn -0.6455 0.7376 -0.1982
vn -0.8565 0.2397 -0.4571
vn -0.9697 0.0416 0.2405
vn -0.9805 0.1190 0.1564
vn -0.7147 0.5804 -0.3903
vn 0.0027 0.7346 0.6785
vn -0.3399 0.7452 0.5737
vn -0.7044 0.6848 0.1864
vn -0.5343 0.7238 -0.4366
vn -0.6358 0.6795 0.3661
vn -0.7123 0.6927 -0.1131
vn -0.9727 0.2066 0.1061
vn -0.9291 -0.0058 0.3697
vn -0.9379 0.0590 0.3418
vt 0.924417 0.258345
vt 0.924346 0.224996
vt 0.958401 0.224746
vt 0.958627 0.258054
vt 0.924346 0.222441
vt 0.958382 0.222190
vt 0.805588 0.288573
vt 0.772301 0.288573
vt 0.772271 0.272585
vt 0.805591 0.272595
vt 0.820811 0.160614
vt 0.819909 0.164863
vt 0.817192 0.162947
vt 0.816715 0.159867
vt 0.772352 0.240481
vt 0.805620 0.240529
vt 0.113208 0.236748
vt 0.146550 0.235592
vt 0.146644 0.241663
vt 0.113454 0.242740
vt 0.938189 0.454827
vt 0.888335 0.455510
vt 0.888403 0.436950
vt 0.938358 0.437061
vt 0.908359 0.258253
vt 0.908359 0.224889
vt 0.832522 0.070760
vt 0.850697 0.074483
vt 0.846478 0.092527
vt 0.829828 0.089337
vt 0.320241 0.769234
vt 0.301993 0.778168
vt 0.323321 0.375196
vt 0.325201 0.368917
vt 0.339187 0.357015
vt 0.808182 0.240532
vt 0.808152 0.272596
vt 0.109601 0.158364
vt 0.039561 0.163010
vt 0.039165 0.157103
vt 0.109180 0.152398
vt 0.339186 0.919985
vt 0.326436 0.936224
vt 0.308875 0.823438
vt 0.328870 0.817386
vt 0.142981 0.149713
vt 0.143221 0.155810
vt 0.828267 0.096702
vt 0.844988 0.099317
vt 0.838423 0.158435
vt 0.820910 0.159146
vt 0.043892 0.240181
vt 0.820057 0.247487
vt 0.827875 0.247487
vt 0.827875 0.248778
vt 0.826155 0.250373
vt 0.820471 0.250373
vt 0.820057 0.250012
vt 0.888319 0.462827
vt 0.938160 0.462148
vt 0.938562 0.587166
vt 0.888586 0.587144
vt 0.785421 0.161555
vt 0.785142 0.161606
vt 0.782927 0.158948
vt 0.787148 0.158294
vt 0.786863 0.160432
vt 0.825072 0.094616
vt 0.816869 0.158962
vt 0.815761 0.158845
vt 0.823707 0.094437
vt 0.829470 0.250373
vt 0.829292 0.250195
vt 0.828073 0.248976
vt 0.834821 0.247487
vt 0.834821 0.250373
vt 0.818863 0.166552
vt 0.818803 0.165990
vt 0.819236 0.165463
vt 0.819030 0.166598
vt 0.802927 0.092790
vt 0.801115 0.159371
vt 0.795105 0.158196
vt 0.796369 0.092207
vt 0.827875 0.251968
vt 0.834821 0.291942
vt 0.827875 0.291942
vt 0.334730 0.348796
vt 0.318915 0.364935
vt 0.195403 0.330525
vt 0.197825 0.307795
vt 0.808150 0.288573
vt 0.815774 0.159826
vt 0.816339 0.163328
vt 0.800738 0.164712
vt 0.801152 0.160342
vt 0.908474 0.265184
vt 0.927064 0.265111
vt 0.927086 0.267993
vt 0.908488 0.268084
vt 0.961197 0.264747
vt 0.961228 0.267632
vt 0.829631 0.068032
vt 0.826031 0.087962
vt 0.824594 0.087727
vt 0.828067 0.067752
vt 0.143863 0.313273
vt 0.144340 0.333566
vt 0.067510 0.330890
vt 0.068038 0.311236
vt 0.938763 0.628749
vt 0.874319 0.628707
vt 0.301704 0.825167
vt 0.320118 0.941432
vt 0.174562 0.956956
vt 0.166809 0.834811
vt 0.908839 0.309697
vt 0.927433 0.309493
vt 0.931819 0.322926
vt 0.908959 0.323206
vt 0.796535 0.067083
vt 0.796333 0.084954
vt 0.785583 0.085336
vt 0.784785 0.067187
vt 0.962010 0.322740
vt 0.962101 0.343334
vt 0.932026 0.343395
vt 0.803944 0.065330
vt 0.803186 0.085781
vt 0.193418 0.339312
vt 0.165699 0.787451
vt 0.120573 0.791146
vt 0.143385 0.343559
vt 0.787057 0.157266
vt 0.786121 0.092296
vt 0.830667 0.304768
vt 0.824532 0.304768
vt 0.794158 0.164416
vt 0.795049 0.159375
vt 0.781469 0.587182
vt 0.779567 0.628760
vt 0.961583 0.309274
vt 0.121522 0.841470
vt 0.127103 0.948655
vt 0.052086 0.952178
vt 0.047574 0.842946
vt 0.792392 0.167212
vt 0.817917 0.165391
vt 0.817803 0.166247
vt 0.799798 0.167690
vt 0.316264 0.373287
vt 0.769776 0.288578
vt 0.769743 0.272585
vt 0.781907 0.461609
vt 0.781919 0.086245
vt 0.781919 0.069350
vt 0.959913 0.349257
vt 0.929809 0.349389
vt 0.782838 0.157189
vt 0.783030 0.093981
vt 0.909265 0.349886
vt 0.909220 0.343747
vt 0.047123 0.791473
vt 0.067186 0.340673
vt 0.874289 0.693162
vt 0.779593 0.693178
vt 0.830667 0.325297
vt 0.824532 0.325297
vt 0.938747 0.693178
vt 0.852056 0.074802
vt 0.847794 0.092835
vt 0.295264 0.780315
vt 0.458476 0.157816
vt 0.455302 0.151646
vt 0.458514 0.154706
vt 0.457950 0.236948
vt 0.838573 0.159828
vt 0.840355 0.163289
vt 0.826369 0.250571
vt 0.335237 0.349682
vt 0.319679 0.365402
vt 0.782063 0.460789
vt 0.888321 0.462013
vt 0.938164 0.461334
vt 0.307986 0.823654
vt 0.301152 0.778440
vt 0.325654 0.936868
vt 0.317039 0.373499
vt 0.818810 0.166956
vt 0.817826 0.166586
vt 0.817916 0.166282
vt 0.296031 0.780077
vt 0.769829 0.240474
vt 0.924313 0.214401
vt 0.956367 0.214164
vt 0.908359 0.222307
vt 0.908359 0.214448
vt 0.854577 0.078531
vt 0.851782 0.094447
vt 0.846227 0.099519
vt 0.849570 0.101723
vt 0.841833 0.162452
vt 0.839696 0.159495
vt 0.839667 0.158348
vt 0.457923 0.243057
vt 0.044186 0.246150
vt 0.769192 0.272586
vt 0.769277 0.240370
vt 0.769228 0.288576
vt 0.792266 0.167442
vt 0.799751 0.167945
vt 0.108953 0.151211
vt 0.142589 0.148563
vt 0.038354 0.156056
vt 0.817708 0.166519
vt 0.454038 0.150642
vt 0.783303 0.454264
vt 0.787933 0.436034
vt 0.322425 0.374959
vt 0.324395 0.368380
vt 0.302515 0.824975
vt 0.320825 0.940851
vt 0.888333 0.456420
vt 0.938185 0.455738
vt 0.783130 0.455177
vt 0.338734 0.356045
vt 0.827684 0.251790
vt 0.818303 0.165905
vt 0.818975 0.167012
vt 0.892301 0.258345
vt 0.858091 0.258054
vt 0.858316 0.224746
vt 0.892372 0.224996
vt 0.858335 0.222190
vt 0.892372 0.222441
vt 0.805591 0.304551
vt 0.772271 0.304561
vt 0.902580 0.067637
vt 0.898484 0.068385
vt 0.898961 0.065305
vt 0.901678 0.063389
vt 0.805620 0.336617
vt 0.772352 0.336666
vt 0.385588 0.111106
vt 0.385255 0.117188
vt 0.351560 0.115632
vt 0.351740 0.109468
vt 0.790695 0.748840
vt 0.790554 0.733534
vt 0.833592 0.733449
vt 0.833647 0.749440
vt 0.914291 0.157492
vt 0.911597 0.138915
vt 0.928247 0.135725
vt 0.932466 0.153769
vt 0.465556 0.769234
vt 0.446611 0.357015
vt 0.460596 0.368917
vt 0.462476 0.375196
vt 0.483804 0.778168
vt 0.808152 0.304550
vt 0.808182 0.336615
vt 0.390343 0.031545
vt 0.390853 0.025492
vt 0.461898 0.031246
vt 0.461414 0.037239
vt 0.446611 0.919985
vt 0.456927 0.817386
vt 0.476922 0.823438
vt 0.459361 0.936224
vt 0.356232 0.028483
vt 0.356561 0.022294
vt 0.910036 0.131549
vt 0.902679 0.069106
vt 0.920193 0.069817
vt 0.926758 0.128935
vt 0.455941 0.115558
vt 0.833659 0.755744
vt 0.833401 0.862849
vt 0.790344 0.862857
vt 0.790718 0.755148
vt 0.867191 0.066697
vt 0.868633 0.067820
vt 0.868917 0.069958
vt 0.864696 0.069303
vt 0.866911 0.066645
vt 0.906841 0.133636
vt 0.905476 0.133815
vt 0.897531 0.069407
vt 0.898638 0.069290
vt 0.900632 0.061700
vt 0.900799 0.061654
vt 0.901005 0.062789
vt 0.900572 0.062261
vt 0.884696 0.135461
vt 0.878139 0.136045
vt 0.876875 0.070056
vt 0.882884 0.068881
vt 0.451067 0.348796
vt 0.587972 0.307795
vt 0.590394 0.330525
vt 0.466882 0.364935
vt 0.897543 0.068426
vt 0.882922 0.067910
vt 0.882508 0.063540
vt 0.898108 0.064924
vt 0.908243 0.265184
vt 0.908230 0.268084
vt 0.889631 0.267993
vt 0.889653 0.265111
vt 0.855489 0.267632
vt 0.855520 0.264747
vt 0.911400 0.160219
vt 0.909837 0.160500
vt 0.906363 0.140525
vt 0.907801 0.140290
vt 0.641934 0.313273
vt 0.717759 0.311236
vt 0.718287 0.330889
vt 0.641457 0.333566
vt 0.845683 0.898661
vt 0.790162 0.898683
vt 0.484093 0.825167
vt 0.618988 0.834811
vt 0.611236 0.956956
vt 0.465679 0.941432
vt 0.907878 0.309697
vt 0.907758 0.323206
vt 0.884899 0.322926
vt 0.889284 0.309493
vt 0.878305 0.161169
vt 0.866554 0.161064
vt 0.867352 0.142915
vt 0.878102 0.143298
vt 0.884691 0.343395
vt 0.854616 0.343334
vt 0.854707 0.322740
vt 0.885713 0.162922
vt 0.884955 0.142470
vt 0.592379 0.339312
vt 0.642413 0.343559
vt 0.665224 0.791146
vt 0.620098 0.787451
vt 0.867890 0.135956
vt 0.868826 0.070985
vt 0.876819 0.068877
vt 0.875928 0.063836
vt 0.925687 0.862905
vt 0.927317 0.898727
vt 0.855135 0.309274
vt 0.664275 0.841470
vt 0.738223 0.842946
vt 0.733711 0.952178
vt 0.658694 0.948655
vt 0.874161 0.061040
vt 0.881567 0.060561
vt 0.899572 0.062005
vt 0.899686 0.062861
vt 0.469533 0.373287
vt 0.769743 0.304561
vt 0.769776 0.288568
vt 0.925338 0.754719
vt 0.863688 0.142007
vt 0.863688 0.158902
vt 0.856804 0.349257
vt 0.886909 0.349389
vt 0.864608 0.071063
vt 0.864800 0.134271
vt 0.907498 0.343747
vt 0.907452 0.349886
vt 0.718611 0.340673
vt 0.738675 0.791473
vt 0.927281 0.954227
vt 0.845694 0.954192
vt 0.790162 0.954192
vt 0.929563 0.135417
vt 0.933825 0.153450
vt 0.490533 0.780315
vt 0.036015 0.026131
vt 0.036019 0.022971
vt 0.039324 0.019909
vt 0.035447 0.106508
vt 0.920342 0.068424
vt 0.922124 0.064963
vt 0.450560 0.349682
vt 0.466118 0.365402
vt 0.925204 0.754012
vt 0.833658 0.755043
vt 0.790715 0.754447
vt 0.477811 0.823654
vt 0.484645 0.778440
vt 0.460143 0.936868
vt 0.468758 0.373499
vt 0.900579 0.061296
vt 0.899686 0.061970
vt 0.899595 0.061666
vt 0.489766 0.780077
vt 0.769829 0.336672
vt 0.860350 0.214164
vt 0.892405 0.214401
vt 0.933551 0.133805
vt 0.936346 0.149721
vt 0.927997 0.128733
vt 0.921437 0.069904
vt 0.921465 0.068757
vt 0.923603 0.065800
vt 0.931340 0.126529
vt 0.035390 0.112714
vt 0.455559 0.121617
vt 0.769192 0.304560
vt 0.769277 0.336777
vt 0.769228 0.288570
vt 0.874035 0.060809
vt 0.881520 0.060307
vt 0.356975 0.021131
vt 0.391101 0.024289
vt 0.462737 0.030193
vt 0.899477 0.061733
vt 0.040622 0.018906
vt 0.920152 0.732683
vt 0.924137 0.748390
vt 0.463372 0.374959
vt 0.461402 0.368380
vt 0.464972 0.940851
vt 0.483282 0.824975
vt 0.833648 0.750224
vt 0.790698 0.749626
vt 0.924286 0.749176
vt 0.447063 0.356045
vt 0.900072 0.062346
vt 0.900744 0.061240
s 1
usemtl Material.006
f 4/1/3 3/2/2 6/3/5 5/4/4
f 6/3/5 3/2/2 116/5/111 117/6/112
f 11/7/9 12/8/10 2/9/1 1/10/1
f 75/11/72 13/12/11 21/13/19 81/14/78
f 1/10/1 2/9/1 7/15/6 8/16/6
f 50/17/48 51/18/49 123/19/118 122/20/117
f 100/21/97 95/22/92 129/23/124 132/24/127
f 3/2/2 4/1/3 10/25/8 9/26/7
f 5/27/4 6/28/5 54/29/51 57/30/54
f 140/31/135 110/32/105 111/33/106 113/34/108 145/35/140
f 1/10/1 8/16/6 118/36/113 115/37/110
f 52/38/48 7/39/6 131/40/126 142/41/137
f 130/42/125 98/43/95 107/44/102 143/45/138
f 52/38/48 142/41/137 141/46/136 53/47/50
f 56/48/53 55/49/52 78/50/75 76/51/73
f 8/52/6 7/39/6 52/38/48 50/17/48
f 12/53/10 10/54/8 101/55/98 100/56/97 132/57/127 133/58/128
f 96/59/93 99/60/96 37/61/35 38/62/36
f 138/63/133 139/64/134 92/65/89 93/66/90 46/67/44
f 60/68/57 82/69/79 80/70/77 61/71/58
f 102/72/98 103/73/98 152/74/98 101/55/98 10/54/8 20/75/18 25/76/23
f 158/77/151 160/78/153 106/79/101 144/80/139
f 68/81/65 88/82/85 85/83/82 65/84/62
f 99/85/96 102/72/98 25/76/23 34/86/32 37/87/35
f 146/88/141 114/89/109 90/90/87 137/91/132
f 11/7/9 1/10/1 115/37/110 120/92/115
f 79/93/76 22/94/20 39/95/37 87/96/84
f 20/97/18 19/98/17 24/99/22 25/100/23
f 19/98/17 18/101/16 23/102/21 24/99/22
f 18/103/16 59/104/56 62/105/59 23/106/21
f 135/107/130 83/108/80 92/109/89 139/110/134
f 38/62/36 37/61/35 28/111/26 27/112/25
f 10/25/8 4/1/3 19/98/17 20/97/18
f 4/1/3 5/4/4 18/101/16 19/98/17
f 5/27/4 57/30/54 59/104/56 18/103/16
f 108/113/103 97/114/94 40/115/38 69/116/66
f 34/117/32 35/118/33 32/119/30 33/120/31
f 31/121/29 66/122/63 73/123/70 47/124/45
f 32/119/30 31/125/29 47/126/45 48/127/46
f 36/128/34 67/129/64 66/122/63 31/121/29
f 89/130/86 70/131/67 64/132/61 84/133/81
f 137/91/132 90/90/87 83/108/80 135/107/130
f 65/84/62 85/83/82 94/134/91 74/135/71
f 37/87/35 34/86/32 33/136/31 28/137/26
f 87/96/84 39/95/37 30/138/28 86/139/83
f 40/140/38 38/62/36 27/112/25 26/141/24
f 35/118/33 36/142/34 31/125/29 32/119/30
f 63/143/60 26/144/24 42/145/40 72/146/69
f 30/138/28 134/147/129 138/63/133 46/67/44
f 22/94/20 105/148/100 147/149/142 136/150/131 39/95/37
f 56/48/53 76/51/73 82/69/79 60/68/57
f 90/90/87 114/89/109 112/151/107 89/130/86
f 143/45/138 107/44/102 110/32/105 140/31/135
f 39/95/37 136/150/131 134/147/129 30/138/28
f 24/99/22 23/102/21 36/142/34 35/118/33
f 2/9/1 12/8/10 133/152/128 128/153/123
f 23/106/21 62/105/59 67/129/64 36/128/34
f 13/12/11 106/79/101 105/148/100 22/94/20 21/13/19
f 86/139/83 30/138/28 46/67/44 93/66/90
f 25/100/23 24/99/22 35/118/33 34/117/32
f 97/154/94 96/59/93 38/62/36 40/140/38
f 61/71/58 80/70/77 88/82/85 68/81/65
f 81/14/78 21/13/19 22/94/20 79/93/76
f 72/155/69 42/156/40 47/124/45 73/123/70
f 42/157/40 43/158/41 48/127/46 47/126/45
f 91/159/88 71/160/68 74/135/71 94/134/91
f 43/158/41 44/161/42 49/162/47 48/127/46
f 84/133/81 64/132/61 71/163/68 91/164/88
f 26/141/24 27/112/25 43/165/41 42/166/40
f 33/120/31 32/119/30 48/127/46 49/162/47
f 69/116/66 40/115/38 26/144/24 63/143/60
f 28/137/26 33/136/31 49/167/47 44/168/42
f 27/112/25 28/111/26 44/169/42 43/165/41
f 57/30/54 54/29/51 55/49/52 56/48/53
f 54/29/51 6/28/5 117/170/112 124/171/119
f 50/17/48 52/38/48 53/47/50 51/18/49
f 70/131/67 109/172/104 108/113/103 69/116/66
f 13/173/11 53/47/50 141/46/136 144/174/139 106/175/101
f 62/105/59 59/104/56 60/68/57 61/71/58
f 68/81/65 65/84/62 66/122/63 67/129/64
f 59/104/56 57/30/54 56/48/53 60/68/57
f 112/151/107 109/172/104 70/131/67 89/130/86
f 61/71/58 68/81/65 67/129/64 62/105/59
f 64/132/61 70/131/67 69/116/66 63/143/60
f 72/155/69 73/123/70 74/135/71 71/160/68
f 73/123/70 66/122/63 65/84/62 74/135/71
f 63/143/60 72/146/69 71/163/68 64/132/61
f 51/18/49 53/47/50 13/173/11 14/176/12
f 76/51/73 78/50/75 77/177/74 75/11/72
f 82/69/79 76/51/73 75/11/72 81/14/78
f 80/70/77 82/69/79 81/14/78 79/93/76
f 84/133/81 91/164/88 92/109/89 83/108/80
f 94/134/91 85/83/82 86/139/83 93/66/90
f 88/82/85 80/70/77 79/93/76 87/96/84
f 85/83/82 88/82/85 87/96/84 86/139/83
f 83/108/80 90/90/87 89/130/86 84/133/81
f 93/66/90 92/65/89 91/159/88 94/134/91
f 13/12/11 75/11/72 77/177/74 14/178/12
f 150/179/99 100/56/97 101/55/98 152/74/98
f 15/180/13 17/181/15 114/89/109 146/88/141
f 58/182/55 45/183/43 96/59/93 97/154/94
f 45/183/43 104/184/99 99/60/96 96/59/93
f 156/185/149 154/186/147 110/32/105 107/44/102
f 153/187/146 156/185/149 107/44/102 98/43/95
f 17/181/15 16/188/14 112/151/107 114/89/109
f 149/189/144 15/190/13 148/191/143 158/77/151
f 16/188/14 29/192/27 109/172/104 112/151/107
f 7/15/6 2/9/1 128/153/123 131/193/126
f 116/5/111 115/194/110 118/195/113 117/6/112
f 116/5/111 119/196/114 120/197/115 115/194/110
f 117/170/112 118/198/113 122/199/117 124/171/119
f 125/200/120 123/201/118 121/202/116 126/203/121 127/204/122
f 124/171/119 122/199/117 123/201/118 125/200/120
f 14/178/12 77/177/74 126/203/121 121/202/116
f 51/18/49 14/176/12 121/205/116 123/19/118
f 3/2/2 9/26/7 119/196/114 116/5/111
f 55/49/52 54/29/51 124/171/119 125/200/120
f 8/52/6 50/17/48 122/20/117 118/206/113
f 77/177/74 78/50/75 127/204/122 126/203/121
f 78/50/75 55/49/52 125/200/120 127/204/122
f 129/207/124 130/208/125 131/193/126 128/153/123
f 132/209/127 129/207/124 128/153/123 133/152/128
f 135/210/130 139/64/134 138/63/133 134/147/129
f 137/211/132 135/210/130 134/147/129 136/150/131
f 141/46/136 142/41/137 143/212/138 140/213/135
f 130/214/125 143/212/138 142/41/137 131/40/126
f 15/190/13 146/215/141 147/149/142 148/191/143
f 146/215/141 137/211/132 136/150/131 147/149/142
f 144/174/139 141/46/136 140/213/135 145/216/140
f 129/23/124 95/22/92 98/217/95 130/218/125
f 157/219/150 154/186/147 29/192/27 16/188/14
f 155/220/148 157/219/150 16/188/14 17/181/15
f 97/114/94 108/113/103 41/221/39 58/222/55
f 108/113/103 109/172/104 29/192/27 41/221/39
f 151/223/145 150/224/99 104/184/99 45/183/43
f 153/225/146 151/223/145 45/183/43 58/182/55
f 149/226/144 155/220/148 17/181/15 15/180/13
f 99/85/96 104/227/99 103/73/98 102/72/98
f 106/79/101 160/78/153 159/228/152 105/148/100
f 145/35/140 113/34/108 155/220/148 149/226/144
f 98/217/95 95/22/92 151/223/145 153/225/146
f 95/22/92 100/21/97 150/224/99 151/223/145
f 113/34/108 111/33/106 157/219/150 155/220/148
f 111/33/106 110/32/105 154/186/147 157/219/150
f 145/229/140 149/189/144 158/77/151 144/80/139
f 58/222/55 41/221/39 156/185/149 153/187/146
f 41/221/39 29/192/27 154/186/147 156/185/149
f 104/227/99 150/179/99 152/74/98 103/73/98
f 105/148/100 159/228/152 148/191/143 147/149/142
f 148/191/143 159/228/152 160/78/153 158/77/151
f 164/230/156 165/231/157 166/232/158 163/233/155
f 166/232/158 259/234/249 258/235/248 163/233/155
f 11/7/9 161/236/154 162/237/154 12/8/10
f 223/238/213 229/239/219 176/240/167 169/241/160
f 161/236/154 168/242/159 167/243/159 162/237/154
f 198/244/189 262/245/252 263/246/253 199/247/190
f 100/248/97 132/249/127 269/250/259 243/251/233
f 163/233/155 9/26/7 10/25/8 164/230/156
f 165/252/157 205/253/195 202/254/192 166/255/158
f 278/256/268 283/257/273 255/258/245 253/259/243 252/260/242
f 161/236/154 257/261/247 260/262/250 168/242/159
f 200/263/189 280/264/270 271/265/261 167/266/159
f 270/267/260 281/268/271 249/269/239 246/270/236
f 200/263/189 201/271/191 279/272/269 280/264/270
f 204/273/194 224/274/214 226/275/216 203/276/193
f 168/277/159 198/244/189 200/263/189 167/266/159
f 244/278/234 188/279/179 37/280/35 99/281/96
f 276/282/266 195/283/186 241/284/231 240/285/230 277/286/267
f 208/287/198 209/288/199 228/289/218 230/290/220
f 294/291/284 282/292/272 248/293/238 296/294/286
f 216/295/206 213/296/203 233/297/223 236/298/226
f 284/299/274 275/300/265 238/301/228 256/302/246
f 11/7/9 120/92/115 257/261/247 161/236/154
f 227/303/217 235/304/225 189/305/180 177/306/168
f 20/307/18 25/308/23 179/309/170 175/310/166
f 175/310/166 179/309/170 178/311/169 174/312/165
f 174/313/165 178/314/169 210/315/200 207/316/197
f 273/317/263 277/318/267 240/319/230 231/320/221
f 188/279/179 181/321/172 28/322/26 37/280/35
f 10/25/8 20/307/18 175/310/166 164/230/156
f 164/230/156 175/310/166 174/312/165 165/231/157
f 165/252/157 174/313/165 207/316/197 205/253/195
f 250/323/240 217/324/207 190/325/181 245/326/235
f 34/327/32 33/328/31 185/329/176 186/330/177
f 184/331/175 196/332/187 221/333/211 214/334/204
f 185/329/176 197/335/188 196/336/187 184/337/175
f 187/338/178 184/331/175 214/334/204 215/339/205
f 237/340/227 232/341/222 212/342/202 218/343/208
f 275/300/265 273/317/263 231/320/221 238/301/228
f 213/296/203 222/344/212 242/345/232 233/297/223
f 235/304/225 234/346/224 183/347/174 189/305/180
f 190/348/181 180/349/171 181/321/172 188/279/179
f 186/330/177 185/329/176 184/337/175 187/350/178
f 211/351/201 220/352/210 192/353/183 180/354/171
f 183/347/174 195/283/186 276/282/266 272/355/262
f 177/306/168 189/305/180 274/356/264 285/357/275 247/358/237
f 204/273/194 208/287/198 230/290/220 224/274/214
f 238/301/228 237/340/227 254/359/244 256/302/246
f 281/268/271 278/256/268 252/260/242 249/269/239
f 189/305/180 183/347/174 272/355/262 274/356/264
f 179/309/170 186/330/177 187/350/178 178/311/169
f 162/237/154 268/360/258 133/361/128 12/8/10
f 178/314/169 187/338/178 215/339/205 210/315/200
f 169/241/160 176/240/167 177/306/168 247/358/237 248/293/238
f 234/346/224 241/284/231 195/283/186 183/347/174
f 25/308/23 34/327/32 186/330/177 179/309/170
f 245/362/235 190/348/181 188/279/179 244/278/234
f 209/288/199 216/295/206 236/298/226 228/289/218
f 229/239/219 227/303/217 177/306/168 176/240/167
f 220/363/210 221/333/211 196/332/187 192/364/183
f 192/365/183 196/336/187 197/335/188 193/366/184
f 239/367/229 242/345/232 222/344/212 219/368/209
f 193/366/184 197/335/188 49/369/47 44/370/42
f 232/341/222 239/371/229 219/372/209 212/342/202
f 180/349/171 192/373/183 193/374/184 181/321/172
f 33/328/31 49/369/47 197/335/188 185/329/176
f 217/324/207 211/351/201 180/354/171 190/325/181
f 181/321/172 193/374/184 44/375/42 28/322/26
f 205/253/195 204/273/194 203/276/193 202/254/192
f 202/254/192 264/376/254 259/377/249 166/255/158
f 198/244/189 199/247/190 201/271/191 200/263/189
f 218/343/208 217/324/207 250/323/240 251/378/241
f 169/379/160 248/380/238 282/381/272 279/272/269 201/271/191
f 210/315/200 209/288/199 208/287/198 207/316/197
f 216/295/206 215/339/205 214/334/204 213/296/203
f 207/316/197 208/287/198 204/273/194 205/253/195
f 254/359/244 237/340/227 218/343/208 251/378/241
f 209/288/199 210/315/200 215/339/205 216/295/206
f 212/342/202 211/351/201 217/324/207 218/343/208
f 220/363/210 219/368/209 222/344/212 221/333/211
f 221/333/211 222/344/212 213/296/203 214/334/204
f 211/351/201 212/342/202 219/372/209 220/352/210
f 199/247/190 170/382/161 169/379/160 201/271/191
f 224/274/214 223/238/213 225/383/215 226/275/216
f 230/290/220 229/239/219 223/238/213 224/274/214
f 228/289/218 227/303/217 229/239/219 230/290/220
f 232/341/222 231/320/221 240/319/230 239/371/229
f 242/345/232 241/284/231 234/346/224 233/297/223
f 236/298/226 235/304/225 227/303/217 228/289/218
f 233/297/223 234/346/224 235/304/225 236/298/226
f 231/320/221 232/341/222 237/340/227 238/301/228
f 241/284/231 242/345/232 239/367/229 240/285/230
f 169/241/160 170/384/161 225/383/215 223/238/213
f 171/385/162 284/299/274 256/302/246 173/386/164
f 206/387/196 245/362/235 244/278/234 194/388/185
f 194/388/185 244/278/234 99/281/96 104/389/99
f 292/390/282 249/269/239 252/260/242 290/391/280
f 289/392/279 246/270/236 249/269/239 292/390/282
f 173/386/164 256/302/246 254/359/244 172/393/163
f 287/394/277 294/291/284 286/395/276 171/396/162
f 172/393/163 254/359/244 251/378/241 182/397/173
f 167/243/159 271/398/261 268/360/258 162/237/154
f 258/235/248 259/234/249 260/399/250 257/400/247
f 258/235/248 257/400/247 120/197/115 119/196/114
f 259/377/249 264/376/254 262/401/252 260/402/250
f 265/403/255 267/404/257 266/405/256 261/406/251 263/407/253
f 264/376/254 265/403/255 263/407/253 262/401/252
f 170/384/161 261/406/251 266/405/256 225/383/215
f 199/247/190 263/246/253 261/408/251 170/382/161
f 163/233/155 258/235/248 119/196/114 9/26/7
f 203/276/193 265/403/255 264/376/254 202/254/192
f 168/277/159 260/409/250 262/245/252 198/244/189
f 225/383/215 266/405/256 267/404/257 226/275/216
f 226/275/216 267/404/257 265/403/255 203/276/193
f 269/410/259 268/360/258 271/398/261 270/411/260
f 132/412/127 133/361/128 268/360/258 269/410/259
f 273/413/263 272/355/262 276/282/266 277/286/267
f 275/414/265 274/356/264 272/355/262 273/413/263
f 279/272/269 278/415/268 281/416/271 280/264/270
f 270/417/260 271/265/261 280/264/270 281/416/271
f 171/396/162 286/395/276 285/357/275 284/418/274
f 284/418/274 285/357/275 274/356/264 275/414/265
f 282/381/272 283/419/273 278/415/268 279/272/269
f 269/250/259 270/420/260 246/421/236 243/251/233
f 293/422/283 172/393/163 182/397/173 290/391/280
f 291/423/281 173/386/164 172/393/163 293/422/283
f 245/326/235 206/424/196 191/425/182 250/323/240
f 250/323/240 191/425/182 182/397/173 251/378/241
f 288/426/278 194/388/185 104/389/99 150/427/99
f 289/428/279 206/387/196 194/388/185 288/426/278
f 287/429/277 171/385/162 173/386/164 291/423/281
f 248/293/238 247/358/237 295/430/285 296/294/286
f 283/257/273 287/429/277 291/423/281 255/258/245
f 246/421/236 289/428/279 288/426/278 243/251/233
f 243/251/233 288/426/278 150/427/99 100/248/97
f 255/258/245 291/423/281 293/422/283 253/259/243
f 253/259/243 293/422/283 290/391/280 252/260/242
f 283/431/273 282/292/272 294/291/284 287/394/277
f 206/424/196 289/392/279 292/390/282 191/425/182
f 191/425/182 292/390/282 290/391/280 182/397/173
f 247/358/237 285/357/275 286/395/276 295/430/285
f 286/395/276 294/291/284 296/294/286 295/430/285
