# Blender 4.3.1
# www.blender.org
mtllib svetla_2.mtl
o Cube.045
v -0.275065 -0.107305 0.048988
v -0.269758 0.120024 0.048988
v -0.275065 -0.107305 -0.048988
v -0.269758 0.120024 -0.048988
v 0.269758 -0.120024 0.048988
v 0.275065 0.107305 0.048988
v 0.269758 -0.120024 -0.048988
v 0.275065 0.107305 -0.048988
v -0.307532 -0.087421 -0.040750
v -0.307532 -0.087421 0.040750
v -0.303117 0.101677 0.040750
v -0.303117 0.101677 -0.040750
v 0.307532 0.087421 -0.040750
v 0.303117 -0.101677 -0.040750
v 0.303117 -0.101677 0.040750
v 0.307532 0.087421 0.040750
v -0.321416 -0.052707 -0.025936
v -0.321416 -0.052707 0.025936
v -0.318606 0.067649 0.025936
v -0.318606 0.067649 -0.025936
v 0.321416 0.052707 -0.025936
v 0.318606 -0.067649 -0.025936
v 0.318606 -0.067649 0.025936
v 0.321416 0.052707 0.025936
v -0.213780 0.323426 0.048988
v -0.208473 0.550755 0.048988
v -0.213780 0.323426 -0.048988
v -0.208473 0.550755 -0.048988
v 0.331043 0.310707 0.048988
v 0.336351 0.538036 0.048988
v 0.331043 0.310707 -0.048988
v 0.336351 0.538036 -0.048988
v -0.246246 0.343310 -0.040750
v -0.246246 0.343310 0.040750
v -0.241832 0.532408 0.040750
v -0.241832 0.532408 -0.040750
v 0.368817 0.518152 -0.040750
v 0.364402 0.329054 -0.040750
v 0.364402 0.329054 0.040750
v 0.368817 0.518152 0.040750
v -0.260131 0.378023 -0.025936
v -0.260131 0.378023 0.025936
v -0.257321 0.498380 0.025936
v -0.257321 0.498380 -0.025936
v 0.382701 0.483438 -0.025936
v 0.379892 0.363082 -0.025936
v 0.379892 0.363082 0.025936
v 0.382701 0.483438 0.025936
v -0.152495 0.754156 0.048988
v -0.147188 0.981486 0.048988
v -0.152495 0.754156 -0.048988
v -0.147188 0.981486 -0.048988
v 0.392329 0.741437 0.048988
v 0.397636 0.968767 0.048988
v 0.392329 0.741437 -0.048988
v 0.397636 0.968767 -0.048988
v -0.184961 0.774040 -0.040750
v -0.184961 0.774040 0.040750
v -0.180547 0.963139 0.040750
v -0.180547 0.963139 -0.040750
v 0.430102 0.948883 -0.040750
v 0.425688 0.759785 -0.040750
v 0.425688 0.759785 0.040750
v 0.430102 0.948883 0.040750
v -0.198846 0.808754 -0.025936
v -0.198846 0.808754 0.025936
v -0.196036 0.929111 0.025936
v -0.196036 0.929111 -0.025936
v 0.443987 0.914169 -0.025936
v 0.441177 0.793813 -0.025936
v 0.441177 0.793813 0.025936
v 0.443987 0.914169 0.025936
v -0.091209 1.184887 0.048988
v -0.085902 1.412217 0.048988
v -0.091209 1.184887 -0.048988
v -0.085902 1.412217 -0.048988
v 0.453614 1.172168 0.048988
v 0.458921 1.399498 0.048988
v 0.453614 1.172168 -0.048988
v 0.458921 1.399498 -0.048988
v -0.123676 1.204771 -0.040750
v -0.123676 1.204771 0.040750
v -0.119261 1.393870 0.040750
v -0.119261 1.393870 -0.040750
v 0.491387 1.379614 -0.040750
v 0.486973 1.190515 -0.040750
v 0.486973 1.190515 0.040750
v 0.491387 1.379614 0.040750
v -0.137560 1.239485 -0.025936
v -0.137560 1.239485 0.025936
v -0.134751 1.359842 0.025936
v -0.134751 1.359842 -0.025936
v 0.505272 1.344900 -0.025936
v 0.502462 1.224543 -0.025936
v 0.502462 1.224543 0.025936
v 0.505272 1.344900 0.025936
v -0.029924 1.615618 0.048988
v -0.024617 1.842948 0.048988
v -0.029924 1.615618 -0.048988
v -0.024617 1.842948 -0.048988
v 0.514899 1.602899 0.048988
v 0.520206 1.830229 0.048988
v 0.514899 1.602899 -0.048988
v 0.520206 1.830229 -0.048988
v -0.062391 1.635502 -0.040750
v -0.062391 1.635502 0.040750
v -0.057976 1.824601 0.040750
v -0.057976 1.824601 -0.040750
v 0.552673 1.810345 -0.040750
v 0.548258 1.621246 -0.040750
v 0.548258 1.621246 0.040750
v 0.552673 1.810345 0.040750
v -0.076275 1.670216 -0.025936
v -0.076275 1.670216 0.025936
v -0.073465 1.790572 0.025936
v -0.073465 1.790572 -0.025936
v 0.566557 1.775631 -0.025936
v 0.563748 1.655274 -0.025936
v 0.563748 1.655274 0.025936
v 0.566557 1.775631 0.025936
v 0.031361 2.046349 0.048988
v 0.036668 2.273679 0.048988
v 0.031361 2.046349 -0.048988
v 0.036668 2.273679 -0.048988
v 0.576185 2.033630 0.048988
v 0.581492 2.260959 0.048988
v 0.576185 2.033630 -0.048988
v 0.581492 2.260959 -0.048988
v -0.001105 2.066233 -0.040750
v -0.001105 2.066233 0.040750
v 0.003309 2.255332 0.040750
v 0.003309 2.255332 -0.040750
v 0.613958 2.241076 -0.040750
v 0.609543 2.051977 -0.040750
v 0.609543 2.051977 0.040750
v 0.613958 2.241076 0.040750
v -0.014990 2.100947 -0.025936
v -0.014990 2.100947 0.025936
v -0.012180 2.221303 0.025936
v -0.012180 2.221303 -0.025936
v 0.627843 2.206362 -0.025936
v 0.625033 2.086005 -0.025936
v 0.625033 2.086005 0.025936
v 0.627843 2.206362 0.025936
v 0.092646 2.477080 0.048988
v 0.097954 2.704410 0.048988
v 0.092646 2.477080 -0.048988
v 0.097954 2.704410 -0.048988
v 0.637470 2.464361 0.048988
v 0.642777 2.691690 0.048988
v 0.637470 2.464361 -0.048988
v 0.642777 2.691690 -0.048988
v 0.060180 2.496964 -0.040750
v 0.060180 2.496964 0.040750
v 0.064595 2.686062 0.040750
v 0.064595 2.686062 -0.040750
v 0.675243 2.671806 -0.040750
v 0.670829 2.482708 -0.040750
v 0.670829 2.482708 0.040750
v 0.675243 2.671806 0.040750
v 0.046296 2.531677 -0.025936
v 0.046296 2.531677 0.025936
v 0.049105 2.652034 0.025936
v 0.049105 2.652034 -0.025936
v 0.689128 2.637093 -0.025936
v 0.686318 2.516736 -0.025936
v 0.686318 2.516736 0.025936
v 0.689128 2.637093 0.025936
v 0.153932 2.907811 0.048988
v 0.159239 3.135140 0.048988
v 0.153932 2.907811 -0.048988
v 0.159239 3.135140 -0.048988
v 0.698755 2.895092 0.048988
v 0.704062 3.122421 0.048988
v 0.698755 2.895092 -0.048988
v 0.704062 3.122421 -0.048988
v 0.121465 2.927695 -0.040750
v 0.121465 2.927695 0.040750
v 0.125880 3.116793 0.040750
v 0.125880 3.116793 -0.040750
v 0.736529 3.102537 -0.040750
v 0.732114 2.913439 -0.040750
v 0.732114 2.913439 0.040750
v 0.736529 3.102537 0.040750
v 0.107581 2.962409 -0.025936
v 0.107581 2.962409 0.025936
v 0.110391 3.082765 0.025936
v 0.110391 3.082765 -0.025936
v 0.750413 3.067823 -0.025936
v 0.747603 2.947467 -0.025936
v 0.747603 2.947467 0.025936
v 0.750413 3.067823 0.025936
v 0.215217 3.338542 0.048988
v 0.220524 3.565871 0.048988
v 0.215217 3.338542 -0.048988
v 0.220524 3.565871 -0.048988
v 0.760040 3.325823 0.048988
v 0.765348 3.553152 0.048988
v 0.760040 3.325823 -0.048988
v 0.765348 3.553152 -0.048988
v 0.182751 3.358425 -0.040750
v 0.182751 3.358425 0.040750
v 0.187165 3.547524 0.040750
v 0.187165 3.547524 -0.040750
v 0.797814 3.533268 -0.040750
v 0.793399 3.344170 -0.040750
v 0.793399 3.344170 0.040750
v 0.797814 3.533268 0.040750
v 0.168866 3.393139 -0.025936
v 0.168866 3.393139 0.025936
v 0.171676 3.513496 0.025936
v 0.171676 3.513496 -0.025936
v 0.811698 3.498554 -0.025936
v 0.808889 3.378198 -0.025936
v 0.808889 3.378198 0.025936
v 0.811698 3.498554 0.025936
v 0.276502 3.769272 0.048988
v 0.281809 3.996602 0.048988
v 0.276502 3.769272 -0.048988
v 0.281809 3.996602 -0.048988
v 0.821326 3.756553 0.048988
v 0.826633 3.983883 0.048988
v 0.821326 3.756553 -0.048988
v 0.826633 3.983883 -0.048988
v 0.244036 3.789156 -0.040750
v 0.244036 3.789156 0.040750
v 0.248450 3.978255 0.040750
v 0.248450 3.978255 -0.040750
v 0.859099 3.963999 -0.040750
v 0.854685 3.774900 -0.040750
v 0.854685 3.774900 0.040750
v 0.859099 3.963999 0.040750
v 0.230151 3.823870 -0.025936
v 0.230151 3.823870 0.025936
v 0.232961 3.944227 0.025936
v 0.232961 3.944227 -0.025936
v 0.872984 3.929285 -0.025936
v 0.870174 3.808929 -0.025936
v 0.870174 3.808929 0.025936
v 0.872984 3.929285 0.025936
v 0.337788 4.200003 0.048988
v 0.343095 4.427333 0.048988
v 0.337788 4.200003 -0.048988
v 0.343095 4.427333 -0.048988
v 0.882611 4.187284 0.048988
v 0.887918 4.414614 0.048988
v 0.882611 4.187284 -0.048988
v 0.887918 4.414614 -0.048988
v 0.305321 4.219887 -0.040750
v 0.305321 4.219887 0.040750
v 0.309736 4.408986 0.040750
v 0.309736 4.408986 -0.040750
v 0.920384 4.394730 -0.040750
v 0.915970 4.205631 -0.040750
v 0.915970 4.205631 0.040750
v 0.920384 4.394730 0.040750
v 0.291437 4.254601 -0.025936
v 0.291437 4.254601 0.025936
v 0.294246 4.374958 0.025936
v 0.294246 4.374958 -0.025936
v 0.934269 4.360016 -0.025936
v 0.931459 4.239660 -0.025936
v 0.931459 4.239660 0.025936
v 0.934269 4.360016 0.025936
v 0.399073 4.630734 0.048988
v 0.404380 4.858064 0.048988
v 0.399073 4.630734 -0.048988
v 0.404380 4.858064 -0.048988
v 0.943896 4.618015 0.048988
v 0.949203 4.845345 0.048988
v 0.943896 4.618015 -0.048988
v 0.949203 4.845345 -0.048988
v 0.366606 4.650618 -0.040750
v 0.366606 4.650618 0.040750
v 0.371021 4.839716 0.040750
v 0.371021 4.839716 -0.040750
v 0.981670 4.825460 -0.040750
v 0.977255 4.636362 -0.040750
v 0.977255 4.636362 0.040750
v 0.981670 4.825460 0.040750
v 0.352722 4.685332 -0.025936
v 0.352722 4.685332 0.025936
v 0.355532 4.805689 0.025936
v 0.355532 4.805689 -0.025936
v 0.995554 4.790747 -0.025936
v 0.992745 4.670391 -0.025936
v 0.992745 4.670391 0.025936
v 0.995554 4.790747 0.025936
vn -0.4819 0.8762 -0.0000
vn -0.0000 -0.0000 -1.0000
vn 0.2427 -0.0057 -0.9701
vn -0.0000 -0.0000 1.0000
vn -0.0233 -0.9997 -0.0000
vn 0.0233 0.9997 -0.0000
vn -0.7098 0.0166 -0.7042
vn 0.9101 -0.4143 -0.0000
vn -0.5223 -0.8528 -0.0000
vn 0.2427 -0.0057 0.9701
vn 0.4819 -0.8762 -0.0000
vn -0.2427 0.0057 -0.9701
vn -0.2427 0.0057 0.9701
vn 0.5223 0.8528 -0.0000
vn -0.9997 0.0233 -0.0000
vn 0.9997 -0.0233 -0.0000
vn -0.7098 0.0166 0.7042
vn 0.9285 0.3714 -0.0000
vn 0.7098 -0.0166 -0.7042
vn -0.9101 0.4143 -0.0000
vn -0.9285 -0.3714 -0.0000
vn 0.7098 -0.0166 0.7042
vt 0.875000 0.750000
vt 0.875000 0.500000
vt 0.375000 0.250000
vt 0.625000 0.250000
vt 0.625000 0.500000
vt 0.375000 0.500000
vt 0.375000 0.750000
vt 0.625000 0.750000
vt 0.625000 1.000000
vt 0.375000 1.000000
vt 0.125000 0.500000
vt 0.125000 0.750000
vt 0.375000 0.000000
vt 0.625000 0.000000
s 0
usemtl Material.007
f 2/1/1 4/2/1 12/2/1 11/1/1
f 3/3/2 4/4/2 8/5/2 7/6/2
f 7/6/3 8/5/3 13/5/3 14/6/3
f 5/7/4 6/8/4 2/9/4 1/10/4
f 3/11/5 7/6/5 5/7/5 1/12/5
f 8/5/6 4/2/6 2/1/6 6/8/6
f 12/4/7 9/3/7 17/3/7 20/4/7
f 15/7/8 14/6/8 22/6/8 23/7/8
f 3/11/9 1/12/9 10/12/9 9/11/9
f 6/8/10 5/7/10 15/7/10 16/8/10
f 5/7/11 7/6/11 14/6/11 15/7/11
f 4/4/12 3/3/12 9/3/12 12/4/12
f 1/10/13 2/9/13 11/9/13 10/10/13
f 8/5/14 6/8/14 16/8/14 13/5/14
f 18/13/15 19/14/15 20/4/15 17/3/15
f 22/6/16 21/5/16 24/8/16 23/7/16
f 10/10/17 11/9/17 19/9/17 18/10/17
f 13/5/18 16/8/18 24/8/18 21/5/18
f 14/6/19 13/5/19 21/5/19 22/6/19
f 11/1/20 12/2/20 20/2/20 19/1/20
f 9/11/21 10/12/21 18/12/21 17/11/21
f 16/8/22 15/7/22 23/7/22 24/8/22
f 26/1/1 28/2/1 36/2/1 35/1/1
f 27/3/2 28/4/2 32/5/2 31/6/2
f 31/6/3 32/5/3 37/5/3 38/6/3
f 29/7/4 30/8/4 26/9/4 25/10/4
f 27/11/5 31/6/5 29/7/5 25/12/5
f 32/5/6 28/2/6 26/1/6 30/8/6
f 36/4/7 33/3/7 41/3/7 44/4/7
f 39/7/8 38/6/8 46/6/8 47/7/8
f 27/11/9 25/12/9 34/12/9 33/11/9
f 30/8/10 29/7/10 39/7/10 40/8/10
f 29/7/11 31/6/11 38/6/11 39/7/11
f 28/4/12 27/3/12 33/3/12 36/4/12
f 25/10/13 26/9/13 35/9/13 34/10/13
f 32/5/14 30/8/14 40/8/14 37/5/14
f 42/13/15 43/14/15 44/4/15 41/3/15
f 46/6/16 45/5/16 48/8/16 47/7/16
f 34/10/17 35/9/17 43/9/17 42/10/17
f 37/5/18 40/8/18 48/8/18 45/5/18
f 38/6/19 37/5/19 45/5/19 46/6/19
f 35/1/20 36/2/20 44/2/20 43/1/20
f 33/11/21 34/12/21 42/12/21 41/11/21
f 40/8/22 39/7/22 47/7/22 48/8/22
f 50/1/1 52/2/1 60/2/1 59/1/1
f 51/3/2 52/4/2 56/5/2 55/6/2
f 55/6/3 56/5/3 61/5/3 62/6/3
f 53/7/4 54/8/4 50/9/4 49/10/4
f 51/11/5 55/6/5 53/7/5 49/12/5
f 56/5/6 52/2/6 50/1/6 54/8/6
f 60/4/7 57/3/7 65/3/7 68/4/7
f 63/7/8 62/6/8 70/6/8 71/7/8
f 51/11/9 49/12/9 58/12/9 57/11/9
f 54/8/10 53/7/10 63/7/10 64/8/10
f 53/7/11 55/6/11 62/6/11 63/7/11
f 52/4/12 51/3/12 57/3/12 60/4/12
f 49/10/13 50/9/13 59/9/13 58/10/13
f 56/5/14 54/8/14 64/8/14 61/5/14
f 66/13/15 67/14/15 68/4/15 65/3/15
f 70/6/16 69/5/16 72/8/16 71/7/16
f 58/10/17 59/9/17 67/9/17 66/10/17
f 61/5/18 64/8/18 72/8/18 69/5/18
f 62/6/19 61/5/19 69/5/19 70/6/19
f 59/1/20 60/2/20 68/2/20 67/1/20
f 57/11/21 58/12/21 66/12/21 65/11/21
f 64/8/22 63/7/22 71/7/22 72/8/22
f 74/1/1 76/2/1 84/2/1 83/1/1
f 75/3/2 76/4/2 80/5/2 79/6/2
f 79/6/3 80/5/3 85/5/3 86/6/3
f 77/7/4 78/8/4 74/9/4 73/10/4
f 75/11/5 79/6/5 77/7/5 73/12/5
f 80/5/6 76/2/6 74/1/6 78/8/6
f 84/4/7 81/3/7 89/3/7 92/4/7
f 87/7/8 86/6/8 94/6/8 95/7/8
f 75/11/9 73/12/9 82/12/9 81/11/9
f 78/8/10 77/7/10 87/7/10 88/8/10
f 77/7/11 79/6/11 86/6/11 87/7/11
f 76/4/12 75/3/12 81/3/12 84/4/12
f 73/10/13 74/9/13 83/9/13 82/10/13
f 80/5/14 78/8/14 88/8/14 85/5/14
f 90/13/15 91/14/15 92/4/15 89/3/15
f 94/6/16 93/5/16 96/8/16 95/7/16
f 82/10/17 83/9/17 91/9/17 90/10/17
f 85/5/18 88/8/18 96/8/18 93/5/18
f 86/6/19 85/5/19 93/5/19 94/6/19
f 83/1/20 84/2/20 92/2/20 91/1/20
f 81/11/21 82/12/21 90/12/21 89/11/21
f 88/8/22 87/7/22 95/7/22 96/8/22
f 98/1/1 100/2/1 108/2/1 107/1/1
f 99/3/2 100/4/2 104/5/2 103/6/2
f 103/6/3 104/5/3 109/5/3 110/6/3
f 101/7/4 102/8/4 98/9/4 97/10/4
f 99/11/5 103/6/5 101/7/5 97/12/5
f 104/5/6 100/2/6 98/1/6 102/8/6
f 108/4/7 105/3/7 113/3/7 116/4/7
f 111/7/8 110/6/8 118/6/8 119/7/8
f 99/11/9 97/12/9 106/12/9 105/11/9
f 102/8/10 101/7/10 111/7/10 112/8/10
f 101/7/11 103/6/11 110/6/11 111/7/11
f 100/4/12 99/3/12 105/3/12 108/4/12
f 97/10/13 98/9/13 107/9/13 106/10/13
f 104/5/14 102/8/14 112/8/14 109/5/14
f 114/13/15 115/14/15 116/4/15 113/3/15
f 118/6/16 117/5/16 120/8/16 119/7/16
f 106/10/17 107/9/17 115/9/17 114/10/17
f 109/5/18 112/8/18 120/8/18 117/5/18
f 110/6/19 109/5/19 117/5/19 118/6/19
f 107/1/20 108/2/20 116/2/20 115/1/20
f 105/11/21 106/12/21 114/12/21 113/11/21
f 112/8/22 111/7/22 119/7/22 120/8/22
f 122/1/1 124/2/1 132/2/1 131/1/1
f 123/3/2 124/4/2 128/5/2 127/6/2
f 127/6/3 128/5/3 133/5/3 134/6/3
f 125/7/4 126/8/4 122/9/4 121/10/4
f 123/11/5 127/6/5 125/7/5 121/12/5
f 128/5/6 124/2/6 122/1/6 126/8/6
f 132/4/7 129/3/7 137/3/7 140/4/7
f 135/7/8 134/6/8 142/6/8 143/7/8
f 123/11/9 121/12/9 130/12/9 129/11/9
f 126/8/10 125/7/10 135/7/10 136/8/10
f 125/7/11 127/6/11 134/6/11 135/7/11
f 124/4/12 123/3/12 129/3/12 132/4/12
f 121/10/13 122/9/13 131/9/13 130/10/13
f 128/5/14 126/8/14 136/8/14 133/5/14
f 138/13/15 139/14/15 140/4/15 137/3/15
f 142/6/16 141/5/16 144/8/16 143/7/16
f 130/10/17 131/9/17 139/9/17 138/10/17
f 133/5/18 136/8/18 144/8/18 141/5/18
f 134/6/19 133/5/19 141/5/19 142/6/19
f 131/1/20 132/2/20 140/2/20 139/1/20
f 129/11/21 130/12/21 138/12/21 137/11/21
f 136/8/22 135/7/22 143/7/22 144/8/22
f 146/1/1 148/2/1 156/2/1 155/1/1
f 147/3/2 148/4/2 152/5/2 151/6/2
f 151/6/3 152/5/3 157/5/3 158/6/3
f 149/7/4 150/8/4 146/9/4 145/10/4
f 147/11/5 151/6/5 149/7/5 145/12/5
f 152/5/6 148/2/6 146/1/6 150/8/6
f 156/4/7 153/3/7 161/3/7 164/4/7
f 159/7/8 158/6/8 166/6/8 167/7/8
f 147/11/9 145/12/9 154/12/9 153/11/9
f 150/8/10 149/7/10 159/7/10 160/8/10
f 149/7/11 151/6/11 158/6/11 159/7/11
f 148/4/12 147/3/12 153/3/12 156/4/12
f 145/10/13 146/9/13 155/9/13 154/10/13
f 152/5/14 150/8/14 160/8/14 157/5/14
f 162/13/15 163/14/15 164/4/15 161/3/15
f 166/6/16 165/5/16 168/8/16 167/7/16
f 154/10/17 155/9/17 163/9/17 162/10/17
f 157/5/18 160/8/18 168/8/18 165/5/18
f 158/6/19 157/5/19 165/5/19 166/6/19
f 155/1/20 156/2/20 164/2/20 163/1/20
f 153/11/21 154/12/21 162/12/21 161/11/21
f 160/8/22 159/7/22 167/7/22 168/8/22
f 170/1/1 172/2/1 180/2/1 179/1/1
f 171/3/2 172/4/2 176/5/2 175/6/2
f 175/6/3 176/5/3 181/5/3 182/6/3
f 173/7/4 174/8/4 170/9/4 169/10/4
f 171/11/5 175/6/5 173/7/5 169/12/5
f 176/5/6 172/2/6 170/1/6 174/8/6
f 180/4/7 177/3/7 185/3/7 188/4/7
f 183/7/8 182/6/8 190/6/8 191/7/8
f 171/11/9 169/12/9 178/12/9 177/11/9
f 174/8/10 173/7/10 183/7/10 184/8/10
f 173/7/11 175/6/11 182/6/11 183/7/11
f 172/4/12 171/3/12 177/3/12 180/4/12
f 169/10/13 170/9/13 179/9/13 178/10/13
f 176/5/14 174/8/14 184/8/14 181/5/14
f 186/13/15 187/14/15 188/4/15 185/3/15
f 190/6/16 189/5/16 192/8/16 191/7/16
f 178/10/17 179/9/17 187/9/17 186/10/17
f 181/5/18 184/8/18 192/8/18 189/5/18
f 182/6/19 181/5/19 189/5/19 190/6/19
f 179/1/20 180/2/20 188/2/20 187/1/20
f 177/11/21 178/12/21 186/12/21 185/11/21
f 184/8/22 183/7/22 191/7/22 192/8/22
f 194/1/1 196/2/1 204/2/1 203/1/1
f 195/3/2 196/4/2 200/5/2 199/6/2
f 199/6/3 200/5/3 205/5/3 206/6/3
f 197/7/4 198/8/4 194/9/4 193/10/4
f 195/11/5 199/6/5 197/7/5 193/12/5
f 200/5/6 196/2/6 194/1/6 198/8/6
f 204/4/7 201/3/7 209/3/7 212/4/7
f 207/7/8 206/6/8 214/6/8 215/7/8
f 195/11/9 193/12/9 202/12/9 201/11/9
f 198/8/10 197/7/10 207/7/10 208/8/10
f 197/7/11 199/6/11 206/6/11 207/7/11
f 196/4/12 195/3/12 201/3/12 204/4/12
f 193/10/13 194/9/13 203/9/13 202/10/13
f 200/5/14 198/8/14 208/8/14 205/5/14
f 210/13/15 211/14/15 212/4/15 209/3/15
f 214/6/16 213/5/16 216/8/16 215/7/16
f 202/10/17 203/9/17 211/9/17 210/10/17
f 205/5/18 208/8/18 216/8/18 213/5/18
f 206/6/19 205/5/19 213/5/19 214/6/19
f 203/1/20 204/2/20 212/2/20 211/1/20
f 201/11/21 202/12/21 210/12/21 209/11/21
f 208/8/22 207/7/22 215/7/22 216/8/22
f 218/1/1 220/2/1 228/2/1 227/1/1
f 219/3/2 220/4/2 224/5/2 223/6/2
f 223/6/3 224/5/3 229/5/3 230/6/3
f 221/7/4 222/8/4 218/9/4 217/10/4
f 219/11/5 223/6/5 221/7/5 217/12/5
f 224/5/6 220/2/6 218/1/6 222/8/6
f 228/4/7 225/3/7 233/3/7 236/4/7
f 231/7/8 230/6/8 238/6/8 239/7/8
f 219/11/9 217/12/9 226/12/9 225/11/9
f 222/8/10 221/7/10 231/7/10 232/8/10
f 221/7/11 223/6/11 230/6/11 231/7/11
f 220/4/12 219/3/12 225/3/12 228/4/12
f 217/10/13 218/9/13 227/9/13 226/10/13
f 224/5/14 222/8/14 232/8/14 229/5/14
f 234/13/15 235/14/15 236/4/15 233/3/15
f 238/6/16 237/5/16 240/8/16 239/7/16
f 226/10/17 227/9/17 235/9/17 234/10/17
f 229/5/18 232/8/18 240/8/18 237/5/18
f 230/6/19 229/5/19 237/5/19 238/6/19
f 227/1/20 228/2/20 236/2/20 235/1/20
f 225/11/21 226/12/21 234/12/21 233/11/21
f 232/8/22 231/7/22 239/7/22 240/8/22
f 242/1/1 244/2/1 252/2/1 251/1/1
f 243/3/2 244/4/2 248/5/2 247/6/2
f 247/6/3 248/5/3 253/5/3 254/6/3
f 245/7/4 246/8/4 242/9/4 241/10/4
f 243/11/5 247/6/5 245/7/5 241/12/5
f 248/5/6 244/2/6 242/1/6 246/8/6
f 252/4/7 249/3/7 257/3/7 260/4/7
f 255/7/8 254/6/8 262/6/8 263/7/8
f 243/11/9 241/12/9 250/12/9 249/11/9
f 246/8/10 245/7/10 255/7/10 256/8/10
f 245/7/11 247/6/11 254/6/11 255/7/11
f 244/4/12 243/3/12 249/3/12 252/4/12
f 241/10/13 242/9/13 251/9/13 250/10/13
f 248/5/14 246/8/14 256/8/14 253/5/14
f 258/13/15 259/14/15 260/4/15 257/3/15
f 262/6/16 261/5/16 264/8/16 263/7/16
f 250/10/17 251/9/17 259/9/17 258/10/17
f 253/5/18 256/8/18 264/8/18 261/5/18
f 254/6/19 253/5/19 261/5/19 262/6/19
f 251/1/20 252/2/20 260/2/20 259/1/20
f 249/11/21 250/12/21 258/12/21 257/11/21
f 256/8/22 255/7/22 263/7/22 264/8/22
f 266/1/1 268/2/1 276/2/1 275/1/1
f 267/3/2 268/4/2 272/5/2 271/6/2
f 271/6/3 272/5/3 277/5/3 278/6/3
f 269/7/4 270/8/4 266/9/4 265/10/4
f 267/11/5 271/6/5 269/7/5 265/12/5
f 272/5/6 268/2/6 266/1/6 270/8/6
f 276/4/7 273/3/7 281/3/7 284/4/7
f 279/7/8 278/6/8 286/6/8 287/7/8
f 267/11/9 265/12/9 274/12/9 273/11/9
f 270/8/10 269/7/10 279/7/10 280/8/10
f 269/7/11 271/6/11 278/6/11 279/7/11
f 268/4/12 267/3/12 273/3/12 276/4/12
f 265/10/13 266/9/13 275/9/13 274/10/13
f 272/5/14 270/8/14 280/8/14 277/5/14
f 282/13/15 283/14/15 284/4/15 281/3/15
f 286/6/16 285/5/16 288/8/16 287/7/16
f 274/10/17 275/9/17 283/9/17 282/10/17
f 277/5/18 280/8/18 288/8/18 285/5/18
f 278/6/19 277/5/19 285/5/19 286/6/19
f 275/1/20 276/2/20 284/2/20 283/1/20
f 273/11/21 274/12/21 282/12/21 281/11/21
f 280/8/22 279/7/22 287/7/22 288/8/22
